G75*
%MOIN*%
%OFA0B0*%
%FSLAX24Y24*%
%IPPOS*%
%LPD*%
%AMOC8*
5,1,8,0,0,1.08239X$1,22.5*
%
%ADD10R,0.0433X0.0394*%
%ADD11R,0.0394X0.0433*%
%ADD12R,0.0630X0.0945*%
%ADD13R,0.0394X0.0551*%
%ADD14R,0.0551X0.0394*%
%ADD15R,0.0138X0.0354*%
%ADD16R,0.0394X0.0157*%
%ADD17R,0.0850X0.0900*%
%ADD18R,0.0460X0.0630*%
%ADD19R,0.0098X0.0394*%
%ADD20R,0.0236X0.0472*%
%ADD21R,0.0120X0.0390*%
%ADD22C,0.0750*%
%ADD23C,0.1050*%
%ADD24C,0.0000*%
%ADD25R,0.1000X0.0500*%
%ADD26C,0.0080*%
%ADD27OC8,0.0240*%
%ADD28C,0.0100*%
D10*
X007737Y004537D03*
X008407Y004537D03*
X009425Y005475D03*
X010094Y005475D03*
X009885Y004122D03*
X010760Y004122D03*
X010760Y003453D03*
X009885Y003453D03*
X007532Y008725D03*
X006862Y008725D03*
X006635Y012078D03*
X006635Y012747D03*
X006385Y015328D03*
X006385Y015997D03*
X007197Y016247D03*
X007197Y015578D03*
X020675Y013412D03*
X021344Y013412D03*
X021344Y010725D03*
X020675Y010725D03*
D11*
X019447Y009060D03*
X019447Y008390D03*
X017947Y007685D03*
X017947Y007015D03*
X014094Y004725D03*
X013425Y004725D03*
X013219Y006350D03*
X012550Y006350D03*
X012550Y007037D03*
X013219Y007037D03*
X008135Y002997D03*
X008135Y002328D03*
X012862Y001600D03*
X013532Y001600D03*
X023822Y008703D03*
X023822Y009372D03*
X023822Y012203D03*
X023822Y012872D03*
X005760Y014640D03*
X005760Y015310D03*
X004510Y012935D03*
X004510Y012265D03*
D12*
X007606Y012537D03*
X008788Y012537D03*
X009350Y016412D03*
X008169Y016412D03*
D13*
X007197Y014720D03*
X006823Y013854D03*
X007571Y013854D03*
X004885Y015104D03*
X005259Y015970D03*
X004510Y015970D03*
X013385Y003970D03*
X014134Y003970D03*
X013760Y003104D03*
X010821Y001854D03*
X010073Y001854D03*
X010447Y002720D03*
D14*
X011514Y002661D03*
X012380Y002287D03*
X011514Y001913D03*
X012630Y003226D03*
X011764Y003600D03*
X012630Y003974D03*
X015076Y003663D03*
X015943Y004037D03*
X015076Y004411D03*
D15*
X011965Y006343D03*
X011709Y006343D03*
X011453Y006343D03*
X011197Y006343D03*
X010941Y006343D03*
X010685Y006343D03*
X010429Y006343D03*
X010429Y008607D03*
X010685Y008607D03*
X010941Y008607D03*
X011197Y008607D03*
X011453Y008607D03*
X011709Y008607D03*
X011965Y008607D03*
D16*
X021369Y009278D03*
X021369Y009534D03*
X021369Y009790D03*
X021369Y010046D03*
X023150Y010046D03*
X023150Y009790D03*
X023150Y009534D03*
X023150Y009278D03*
X023088Y012028D03*
X023088Y012284D03*
X023088Y012540D03*
X023088Y012796D03*
X021306Y012796D03*
X021306Y012540D03*
X021306Y012284D03*
X021306Y012028D03*
D17*
X006508Y006104D03*
X004886Y006104D03*
X004886Y003846D03*
X006508Y003846D03*
D18*
X006260Y010975D03*
X006860Y010975D03*
X005660Y010975D03*
D19*
X008053Y007182D03*
X008250Y007182D03*
X008447Y007182D03*
X008644Y007182D03*
X008841Y007182D03*
X008841Y005518D03*
X008644Y005518D03*
X008447Y005518D03*
X008250Y005518D03*
X008053Y005518D03*
D20*
X006071Y012773D03*
X005323Y012773D03*
X005323Y013802D03*
X005697Y013802D03*
X006071Y013802D03*
D21*
X016551Y010561D03*
X016807Y010561D03*
X017063Y010561D03*
X017319Y010561D03*
X017575Y010561D03*
X017831Y010561D03*
X018087Y010561D03*
X018343Y010561D03*
X018599Y010561D03*
X018854Y010561D03*
X018854Y008264D03*
X018599Y008264D03*
X018343Y008264D03*
X018087Y008264D03*
X017831Y008264D03*
X017575Y008264D03*
X017319Y008264D03*
X017063Y008264D03*
X016807Y008264D03*
X016551Y008264D03*
D22*
X027949Y009838D03*
D23*
X028953Y008834D03*
X026945Y008834D03*
X026945Y010841D03*
X028953Y010841D03*
D24*
X005272Y001109D02*
X005270Y001186D01*
X005264Y001263D01*
X005255Y001340D01*
X005242Y001416D01*
X005225Y001492D01*
X005204Y001566D01*
X005180Y001640D01*
X005152Y001712D01*
X005121Y001782D01*
X005086Y001851D01*
X005048Y001919D01*
X005007Y001984D01*
X004962Y002047D01*
X004914Y002108D01*
X004864Y002167D01*
X004811Y002223D01*
X004755Y002276D01*
X004696Y002326D01*
X004635Y002374D01*
X004572Y002419D01*
X004507Y002460D01*
X004439Y002498D01*
X004370Y002533D01*
X004300Y002564D01*
X004228Y002592D01*
X004154Y002616D01*
X004080Y002637D01*
X004004Y002654D01*
X003928Y002667D01*
X003851Y002676D01*
X003774Y002682D01*
X003697Y002684D01*
X003697Y016857D01*
X003774Y016859D01*
X003851Y016865D01*
X003928Y016874D01*
X004004Y016887D01*
X004080Y016904D01*
X004154Y016925D01*
X004228Y016949D01*
X004300Y016977D01*
X004370Y017008D01*
X004439Y017043D01*
X004507Y017081D01*
X004572Y017122D01*
X004635Y017167D01*
X004696Y017215D01*
X004755Y017265D01*
X004811Y017318D01*
X004864Y017374D01*
X004914Y017433D01*
X004962Y017494D01*
X005007Y017557D01*
X005048Y017622D01*
X005086Y017690D01*
X005121Y017759D01*
X005152Y017829D01*
X005180Y017901D01*
X005204Y017975D01*
X005225Y018049D01*
X005242Y018125D01*
X005255Y018201D01*
X005264Y018278D01*
X005270Y018355D01*
X005272Y018432D01*
X005272Y018629D01*
X028106Y018629D01*
X028106Y018432D01*
X028108Y018355D01*
X028114Y018278D01*
X028123Y018201D01*
X028136Y018125D01*
X028153Y018049D01*
X028174Y017975D01*
X028198Y017901D01*
X028226Y017829D01*
X028257Y017759D01*
X028292Y017690D01*
X028330Y017622D01*
X028371Y017557D01*
X028416Y017494D01*
X028464Y017433D01*
X028514Y017374D01*
X028567Y017318D01*
X028623Y017265D01*
X028682Y017215D01*
X028743Y017167D01*
X028806Y017122D01*
X028871Y017081D01*
X028939Y017043D01*
X029008Y017008D01*
X029078Y016977D01*
X029150Y016949D01*
X029224Y016925D01*
X029298Y016904D01*
X029374Y016887D01*
X029450Y016874D01*
X029527Y016865D01*
X029604Y016859D01*
X029681Y016857D01*
X029681Y002684D01*
X029682Y002684D02*
X029602Y002678D01*
X029523Y002667D01*
X029444Y002653D01*
X029367Y002635D01*
X029290Y002614D01*
X029214Y002589D01*
X029140Y002560D01*
X029067Y002528D01*
X028995Y002492D01*
X028926Y002453D01*
X028858Y002411D01*
X028793Y002365D01*
X028729Y002317D01*
X028668Y002265D01*
X028610Y002211D01*
X028554Y002154D01*
X028501Y002094D01*
X028451Y002032D01*
X028404Y001968D01*
X028360Y001901D01*
X028319Y001833D01*
X028282Y001762D01*
X028248Y001690D01*
X028217Y001617D01*
X028190Y001541D01*
X028167Y001465D01*
X028147Y001388D01*
X028131Y001310D01*
X028119Y001231D01*
X028110Y001152D01*
X028105Y001072D01*
X028104Y000992D01*
X028107Y000913D01*
X028106Y000912D02*
X005272Y000912D01*
X005272Y001109D01*
X006256Y002094D02*
X006258Y002142D01*
X006264Y002190D01*
X006274Y002237D01*
X006287Y002283D01*
X006305Y002328D01*
X006325Y002372D01*
X006350Y002414D01*
X006378Y002453D01*
X006408Y002490D01*
X006442Y002524D01*
X006479Y002556D01*
X006517Y002585D01*
X006558Y002610D01*
X006601Y002632D01*
X006646Y002650D01*
X006692Y002664D01*
X006739Y002675D01*
X006787Y002682D01*
X006835Y002685D01*
X006883Y002684D01*
X006931Y002679D01*
X006979Y002670D01*
X007025Y002658D01*
X007070Y002641D01*
X007114Y002621D01*
X007156Y002598D01*
X007196Y002571D01*
X007234Y002541D01*
X007269Y002508D01*
X007301Y002472D01*
X007331Y002434D01*
X007357Y002393D01*
X007379Y002350D01*
X007399Y002306D01*
X007414Y002261D01*
X007426Y002214D01*
X007434Y002166D01*
X007438Y002118D01*
X007438Y002070D01*
X007434Y002022D01*
X007426Y001974D01*
X007414Y001927D01*
X007399Y001882D01*
X007379Y001838D01*
X007357Y001795D01*
X007331Y001754D01*
X007301Y001716D01*
X007269Y001680D01*
X007234Y001647D01*
X007196Y001617D01*
X007156Y001590D01*
X007114Y001567D01*
X007070Y001547D01*
X007025Y001530D01*
X006979Y001518D01*
X006931Y001509D01*
X006883Y001504D01*
X006835Y001503D01*
X006787Y001506D01*
X006739Y001513D01*
X006692Y001524D01*
X006646Y001538D01*
X006601Y001556D01*
X006558Y001578D01*
X006517Y001603D01*
X006479Y001632D01*
X006442Y001664D01*
X006408Y001698D01*
X006378Y001735D01*
X006350Y001774D01*
X006325Y001816D01*
X006305Y001860D01*
X006287Y001905D01*
X006274Y001951D01*
X006264Y001998D01*
X006258Y002046D01*
X006256Y002094D01*
X025941Y002094D02*
X025943Y002142D01*
X025949Y002190D01*
X025959Y002237D01*
X025972Y002283D01*
X025990Y002328D01*
X026010Y002372D01*
X026035Y002414D01*
X026063Y002453D01*
X026093Y002490D01*
X026127Y002524D01*
X026164Y002556D01*
X026202Y002585D01*
X026243Y002610D01*
X026286Y002632D01*
X026331Y002650D01*
X026377Y002664D01*
X026424Y002675D01*
X026472Y002682D01*
X026520Y002685D01*
X026568Y002684D01*
X026616Y002679D01*
X026664Y002670D01*
X026710Y002658D01*
X026755Y002641D01*
X026799Y002621D01*
X026841Y002598D01*
X026881Y002571D01*
X026919Y002541D01*
X026954Y002508D01*
X026986Y002472D01*
X027016Y002434D01*
X027042Y002393D01*
X027064Y002350D01*
X027084Y002306D01*
X027099Y002261D01*
X027111Y002214D01*
X027119Y002166D01*
X027123Y002118D01*
X027123Y002070D01*
X027119Y002022D01*
X027111Y001974D01*
X027099Y001927D01*
X027084Y001882D01*
X027064Y001838D01*
X027042Y001795D01*
X027016Y001754D01*
X026986Y001716D01*
X026954Y001680D01*
X026919Y001647D01*
X026881Y001617D01*
X026841Y001590D01*
X026799Y001567D01*
X026755Y001547D01*
X026710Y001530D01*
X026664Y001518D01*
X026616Y001509D01*
X026568Y001504D01*
X026520Y001503D01*
X026472Y001506D01*
X026424Y001513D01*
X026377Y001524D01*
X026331Y001538D01*
X026286Y001556D01*
X026243Y001578D01*
X026202Y001603D01*
X026164Y001632D01*
X026127Y001664D01*
X026093Y001698D01*
X026063Y001735D01*
X026035Y001774D01*
X026010Y001816D01*
X025990Y001860D01*
X025972Y001905D01*
X025959Y001951D01*
X025949Y001998D01*
X025943Y002046D01*
X025941Y002094D01*
X025941Y017448D02*
X025943Y017496D01*
X025949Y017544D01*
X025959Y017591D01*
X025972Y017637D01*
X025990Y017682D01*
X026010Y017726D01*
X026035Y017768D01*
X026063Y017807D01*
X026093Y017844D01*
X026127Y017878D01*
X026164Y017910D01*
X026202Y017939D01*
X026243Y017964D01*
X026286Y017986D01*
X026331Y018004D01*
X026377Y018018D01*
X026424Y018029D01*
X026472Y018036D01*
X026520Y018039D01*
X026568Y018038D01*
X026616Y018033D01*
X026664Y018024D01*
X026710Y018012D01*
X026755Y017995D01*
X026799Y017975D01*
X026841Y017952D01*
X026881Y017925D01*
X026919Y017895D01*
X026954Y017862D01*
X026986Y017826D01*
X027016Y017788D01*
X027042Y017747D01*
X027064Y017704D01*
X027084Y017660D01*
X027099Y017615D01*
X027111Y017568D01*
X027119Y017520D01*
X027123Y017472D01*
X027123Y017424D01*
X027119Y017376D01*
X027111Y017328D01*
X027099Y017281D01*
X027084Y017236D01*
X027064Y017192D01*
X027042Y017149D01*
X027016Y017108D01*
X026986Y017070D01*
X026954Y017034D01*
X026919Y017001D01*
X026881Y016971D01*
X026841Y016944D01*
X026799Y016921D01*
X026755Y016901D01*
X026710Y016884D01*
X026664Y016872D01*
X026616Y016863D01*
X026568Y016858D01*
X026520Y016857D01*
X026472Y016860D01*
X026424Y016867D01*
X026377Y016878D01*
X026331Y016892D01*
X026286Y016910D01*
X026243Y016932D01*
X026202Y016957D01*
X026164Y016986D01*
X026127Y017018D01*
X026093Y017052D01*
X026063Y017089D01*
X026035Y017128D01*
X026010Y017170D01*
X025990Y017214D01*
X025972Y017259D01*
X025959Y017305D01*
X025949Y017352D01*
X025943Y017400D01*
X025941Y017448D01*
X006256Y017448D02*
X006258Y017496D01*
X006264Y017544D01*
X006274Y017591D01*
X006287Y017637D01*
X006305Y017682D01*
X006325Y017726D01*
X006350Y017768D01*
X006378Y017807D01*
X006408Y017844D01*
X006442Y017878D01*
X006479Y017910D01*
X006517Y017939D01*
X006558Y017964D01*
X006601Y017986D01*
X006646Y018004D01*
X006692Y018018D01*
X006739Y018029D01*
X006787Y018036D01*
X006835Y018039D01*
X006883Y018038D01*
X006931Y018033D01*
X006979Y018024D01*
X007025Y018012D01*
X007070Y017995D01*
X007114Y017975D01*
X007156Y017952D01*
X007196Y017925D01*
X007234Y017895D01*
X007269Y017862D01*
X007301Y017826D01*
X007331Y017788D01*
X007357Y017747D01*
X007379Y017704D01*
X007399Y017660D01*
X007414Y017615D01*
X007426Y017568D01*
X007434Y017520D01*
X007438Y017472D01*
X007438Y017424D01*
X007434Y017376D01*
X007426Y017328D01*
X007414Y017281D01*
X007399Y017236D01*
X007379Y017192D01*
X007357Y017149D01*
X007331Y017108D01*
X007301Y017070D01*
X007269Y017034D01*
X007234Y017001D01*
X007196Y016971D01*
X007156Y016944D01*
X007114Y016921D01*
X007070Y016901D01*
X007025Y016884D01*
X006979Y016872D01*
X006931Y016863D01*
X006883Y016858D01*
X006835Y016857D01*
X006787Y016860D01*
X006739Y016867D01*
X006692Y016878D01*
X006646Y016892D01*
X006601Y016910D01*
X006558Y016932D01*
X006517Y016957D01*
X006479Y016986D01*
X006442Y017018D01*
X006408Y017052D01*
X006378Y017089D01*
X006350Y017128D01*
X006325Y017170D01*
X006305Y017214D01*
X006287Y017259D01*
X006274Y017305D01*
X006264Y017352D01*
X006258Y017400D01*
X006256Y017448D01*
D25*
X005510Y009475D03*
X005510Y008725D03*
X005510Y007975D03*
X005510Y007225D03*
D26*
X004910Y007192D02*
X003837Y007192D01*
X003837Y007114D02*
X004910Y007114D01*
X004910Y007035D02*
X003837Y007035D01*
X003837Y006957D02*
X004910Y006957D01*
X004910Y006933D02*
X004968Y006875D01*
X006051Y006875D01*
X006110Y006933D01*
X006110Y007516D01*
X006051Y007575D01*
X004968Y007575D01*
X004910Y007516D01*
X004910Y006933D01*
X004965Y006878D02*
X003837Y006878D01*
X003837Y006800D02*
X007135Y006800D01*
X007135Y006878D02*
X006054Y006878D01*
X006110Y006957D02*
X007135Y006957D01*
X007135Y007035D02*
X006110Y007035D01*
X006110Y007114D02*
X006497Y007114D01*
X006543Y007067D02*
X006415Y007196D01*
X006415Y007379D01*
X006485Y007449D01*
X006485Y007600D01*
X006260Y007825D01*
X006110Y007825D01*
X006110Y007683D01*
X006051Y007625D01*
X004968Y007625D01*
X004910Y007683D01*
X004910Y008266D01*
X004968Y008325D01*
X006010Y008325D01*
X005960Y008375D01*
X004968Y008375D01*
X004910Y008433D01*
X004910Y009016D01*
X004968Y009075D01*
X006051Y009075D01*
X006110Y009016D01*
X006110Y008650D01*
X006110Y008650D01*
X006110Y009100D01*
X006068Y009142D01*
X006051Y009125D01*
X004968Y009125D01*
X004910Y009183D01*
X004910Y009766D01*
X004968Y009825D01*
X006051Y009825D01*
X006110Y009766D01*
X006110Y009525D01*
X006322Y009312D01*
X007672Y009312D01*
X007672Y009390D02*
X006244Y009390D01*
X006322Y009312D02*
X006410Y009225D01*
X006410Y008662D01*
X006506Y008566D01*
X006506Y008685D01*
X006822Y008685D01*
X006822Y008765D01*
X006506Y008765D01*
X006506Y008940D01*
X006515Y008976D01*
X006534Y009008D01*
X006560Y009034D01*
X006592Y009052D01*
X006627Y009062D01*
X006822Y009062D01*
X006822Y008765D01*
X006902Y008765D01*
X006902Y009062D01*
X007097Y009062D01*
X007133Y009052D01*
X007135Y009051D01*
X007135Y009225D01*
X007672Y009225D01*
X007672Y009600D01*
X007263Y010010D01*
X005825Y010010D01*
X005510Y010325D01*
X005510Y010560D01*
X005388Y010560D01*
X005330Y010618D01*
X005330Y011093D01*
X005260Y011162D01*
X005172Y011250D01*
X005172Y012115D01*
X004806Y012115D01*
X004806Y012007D01*
X004748Y011949D01*
X004271Y011949D01*
X004213Y012007D01*
X004213Y012523D01*
X004271Y012582D01*
X004280Y012582D01*
X004259Y012588D01*
X004227Y012606D01*
X004201Y012632D01*
X004182Y012664D01*
X004173Y012700D01*
X004173Y012895D01*
X004470Y012895D01*
X004470Y012975D01*
X004470Y013291D01*
X004294Y013291D01*
X004259Y013282D01*
X004227Y013263D01*
X004201Y013237D01*
X004182Y013205D01*
X004173Y013170D01*
X004173Y012975D01*
X004470Y012975D01*
X004550Y012975D01*
X004846Y012975D01*
X004846Y013170D01*
X004837Y013205D01*
X004818Y013237D01*
X004792Y013263D01*
X004760Y013282D01*
X004725Y013291D01*
X004550Y013291D01*
X004550Y012975D01*
X004550Y012895D01*
X004846Y012895D01*
X004846Y012700D01*
X004837Y012664D01*
X004818Y012632D01*
X004792Y012606D01*
X004760Y012588D01*
X004739Y012582D01*
X004748Y012582D01*
X004806Y012523D01*
X004806Y012415D01*
X005139Y012415D01*
X005162Y012438D01*
X005105Y012496D01*
X005105Y013051D01*
X005163Y013109D01*
X005483Y013109D01*
X005541Y013051D01*
X005541Y012496D01*
X005483Y012438D01*
X005542Y012379D01*
X005542Y012196D01*
X005472Y012126D01*
X005472Y011390D01*
X005931Y011390D01*
X005960Y011361D01*
X005988Y011390D01*
X006110Y011390D01*
X006110Y011600D01*
X005921Y011789D01*
X005921Y012437D01*
X005911Y012437D01*
X005853Y012496D01*
X005853Y013051D01*
X005911Y013109D01*
X006231Y013109D01*
X006289Y013051D01*
X006289Y012897D01*
X006318Y012897D01*
X006318Y012985D01*
X006377Y013044D01*
X006892Y013044D01*
X006951Y012985D01*
X006951Y012509D01*
X006892Y012450D01*
X006377Y012450D01*
X006318Y012509D01*
X006318Y012597D01*
X006289Y012597D01*
X006289Y012496D01*
X006231Y012437D01*
X006221Y012437D01*
X006221Y011913D01*
X006280Y011854D01*
X006278Y011862D01*
X006278Y012038D01*
X006595Y012038D01*
X006675Y012038D01*
X006675Y012118D01*
X006991Y012118D01*
X006991Y012293D01*
X006982Y012329D01*
X006963Y012361D01*
X006937Y012387D01*
X006905Y012405D01*
X006869Y012415D01*
X006675Y012415D01*
X006675Y012118D01*
X006595Y012118D01*
X006595Y012415D01*
X006400Y012415D01*
X006364Y012405D01*
X006332Y012387D01*
X006306Y012361D01*
X006288Y012329D01*
X006278Y012293D01*
X006278Y012118D01*
X006595Y012118D01*
X006595Y012038D01*
X006595Y011741D01*
X006400Y011741D01*
X006391Y011743D01*
X006410Y011725D01*
X006410Y011390D01*
X006531Y011390D01*
X006560Y011361D01*
X006588Y011390D01*
X007131Y011390D01*
X007190Y011331D01*
X007190Y011125D01*
X008572Y011125D01*
X008660Y011037D01*
X008939Y010757D01*
X009038Y010757D01*
X009167Y010629D01*
X009167Y010446D01*
X009038Y010317D01*
X008856Y010317D01*
X008727Y010446D01*
X008727Y010545D01*
X008447Y010825D01*
X007190Y010825D01*
X007190Y010618D01*
X007131Y010560D01*
X006588Y010560D01*
X006560Y010588D01*
X006531Y010560D01*
X005988Y010560D01*
X005960Y010588D01*
X005931Y010560D01*
X005810Y010560D01*
X005810Y010450D01*
X005950Y010310D01*
X007387Y010310D01*
X007884Y009812D01*
X007972Y009725D01*
X007972Y009225D01*
X010635Y009225D01*
X010635Y018489D01*
X005412Y018489D01*
X005412Y018206D01*
X005295Y017770D01*
X005295Y017770D01*
X005069Y017379D01*
X005069Y017379D01*
X004750Y017060D01*
X004750Y017060D01*
X004359Y016834D01*
X004359Y016834D01*
X003923Y016717D01*
X003837Y016717D01*
X003837Y002824D01*
X003923Y002824D01*
X004359Y002707D01*
X004359Y002707D01*
X004750Y002481D01*
X004750Y002481D01*
X005069Y002162D01*
X005069Y002162D01*
X005295Y001771D01*
X005295Y001771D01*
X005412Y001335D01*
X005412Y001052D01*
X015447Y001052D01*
X015447Y002137D01*
X013197Y002137D01*
X013110Y002225D01*
X012764Y002570D01*
X012711Y002570D01*
X012756Y002526D01*
X012756Y002049D01*
X012697Y001991D01*
X012684Y001991D01*
X012699Y001976D01*
X012758Y001916D01*
X013101Y001916D01*
X013159Y001858D01*
X013159Y001342D01*
X013101Y001283D01*
X012624Y001283D01*
X012566Y001342D01*
X012566Y001685D01*
X012487Y001763D01*
X011890Y001763D01*
X011890Y001675D01*
X011831Y001617D01*
X011197Y001617D01*
X011138Y001675D01*
X011138Y001704D01*
X011118Y001704D01*
X011118Y001537D01*
X011059Y001479D01*
X010583Y001479D01*
X010524Y001537D01*
X010524Y002093D01*
X010370Y001939D01*
X010370Y001537D01*
X010311Y001479D01*
X009835Y001479D01*
X009776Y001537D01*
X009776Y001939D01*
X009735Y001981D01*
X009735Y003156D01*
X009627Y003156D01*
X009568Y003214D01*
X009568Y003303D01*
X009461Y003303D01*
X009351Y003192D01*
X009168Y003192D01*
X009040Y003321D01*
X009040Y003504D01*
X009168Y003632D01*
X009351Y003632D01*
X009380Y003603D01*
X009568Y003603D01*
X009568Y003691D01*
X009627Y003750D01*
X010142Y003750D01*
X010201Y003691D01*
X010201Y003214D01*
X010142Y003156D01*
X010035Y003156D01*
X010035Y002230D01*
X010236Y002230D01*
X010351Y002345D01*
X010209Y002345D01*
X010150Y002403D01*
X010150Y003037D01*
X010209Y003096D01*
X010685Y003096D01*
X010744Y003037D01*
X010744Y002870D01*
X011138Y002870D01*
X011138Y002900D01*
X011197Y002958D01*
X011831Y002958D01*
X011890Y002900D01*
X011890Y002870D01*
X012889Y002870D01*
X013322Y002437D01*
X014423Y002437D01*
X014352Y002509D01*
X014352Y002691D01*
X014422Y002761D01*
X014422Y002850D01*
X014322Y002950D01*
X014056Y002952D01*
X014056Y002787D01*
X013998Y002729D01*
X013521Y002729D01*
X013463Y002787D01*
X013463Y003076D01*
X013006Y003076D01*
X013006Y002988D01*
X012947Y002929D01*
X012313Y002929D01*
X012254Y002988D01*
X012254Y003450D01*
X012140Y003450D01*
X012140Y003362D01*
X012081Y003303D01*
X011447Y003303D01*
X011388Y003362D01*
X011388Y003387D01*
X011076Y003387D01*
X011076Y003214D01*
X011017Y003156D01*
X010502Y003156D01*
X010443Y003214D01*
X010443Y003691D01*
X010502Y003750D01*
X010920Y003750D01*
X010882Y003788D01*
X010844Y003825D01*
X010502Y003825D01*
X010443Y003884D01*
X010443Y003972D01*
X010201Y003972D01*
X010201Y003884D01*
X010142Y003825D01*
X009627Y003825D01*
X009568Y003884D01*
X009568Y003972D01*
X009160Y003972D01*
X009160Y003663D01*
X008972Y003475D01*
X008884Y003387D01*
X008285Y003387D01*
X008285Y003314D01*
X008373Y003314D01*
X008431Y003255D01*
X008431Y002739D01*
X008373Y002681D01*
X008364Y002681D01*
X008385Y002675D01*
X008417Y002656D01*
X008443Y002630D01*
X008462Y002598D01*
X008471Y002563D01*
X008471Y002368D01*
X008175Y002368D01*
X008175Y002288D01*
X008471Y002288D01*
X008471Y002093D01*
X008462Y002057D01*
X008443Y002025D01*
X008417Y001999D01*
X008385Y001981D01*
X008350Y001971D01*
X008175Y001971D01*
X008175Y002288D01*
X008095Y002288D01*
X008095Y001971D01*
X007919Y001971D01*
X007884Y001981D01*
X007852Y001999D01*
X007826Y002025D01*
X007807Y002057D01*
X007798Y002093D01*
X007798Y002288D01*
X008095Y002288D01*
X008095Y002368D01*
X007798Y002368D01*
X007798Y002563D01*
X007807Y002598D01*
X007826Y002630D01*
X007852Y002656D01*
X007884Y002675D01*
X007905Y002681D01*
X007896Y002681D01*
X007838Y002739D01*
X007838Y003255D01*
X007896Y003314D01*
X007985Y003314D01*
X007985Y003387D01*
X007033Y003387D01*
X007033Y003355D01*
X006974Y003296D01*
X006041Y003296D01*
X005983Y003355D01*
X005983Y003696D01*
X005411Y003696D01*
X005411Y003355D01*
X005353Y003296D01*
X004420Y003296D01*
X004361Y003355D01*
X004361Y004337D01*
X004420Y004396D01*
X005353Y004396D01*
X005411Y004337D01*
X005411Y003996D01*
X005983Y003996D01*
X005983Y004337D01*
X006041Y004396D01*
X006974Y004396D01*
X007033Y004337D01*
X007033Y003687D01*
X008760Y003687D01*
X008860Y003787D01*
X008860Y004850D01*
X008797Y004912D01*
X008597Y004912D01*
X008597Y004834D01*
X008665Y004834D01*
X008723Y004776D01*
X008723Y004299D01*
X008665Y004241D01*
X008149Y004241D01*
X008090Y004299D01*
X008090Y004308D01*
X008084Y004287D01*
X008066Y004255D01*
X008040Y004229D01*
X008008Y004210D01*
X007972Y004201D01*
X007777Y004201D01*
X007777Y004497D01*
X007697Y004497D01*
X007697Y004201D01*
X007502Y004201D01*
X007467Y004210D01*
X007435Y004229D01*
X007409Y004255D01*
X007390Y004287D01*
X007381Y004322D01*
X007381Y004497D01*
X007697Y004497D01*
X007697Y004577D01*
X007381Y004577D01*
X007381Y004753D01*
X007390Y004788D01*
X007409Y004820D01*
X007435Y004846D01*
X007467Y004865D01*
X007502Y004874D01*
X007697Y004874D01*
X007697Y004577D01*
X007777Y004577D01*
X007777Y004874D01*
X007972Y004874D01*
X008008Y004865D01*
X008040Y004846D01*
X008066Y004820D01*
X008084Y004788D01*
X008090Y004767D01*
X008090Y004776D01*
X008149Y004834D01*
X008297Y004834D01*
X008297Y005181D01*
X008250Y005181D01*
X008250Y005518D01*
X008250Y005855D01*
X008183Y005855D01*
X008147Y005845D01*
X008115Y005827D01*
X008103Y005815D01*
X007963Y005815D01*
X007904Y005756D01*
X007904Y005668D01*
X007156Y005668D01*
X007033Y005791D01*
X007033Y006595D01*
X006974Y006654D01*
X006041Y006654D01*
X005983Y006595D01*
X005983Y005612D01*
X006041Y005554D01*
X006845Y005554D01*
X007031Y005368D01*
X007904Y005368D01*
X007904Y005280D01*
X007963Y005221D01*
X008103Y005221D01*
X008115Y005209D01*
X008147Y005191D01*
X008183Y005181D01*
X008250Y005181D01*
X008250Y005518D01*
X008250Y005518D01*
X008250Y005518D01*
X008250Y005855D01*
X008318Y005855D01*
X008353Y005845D01*
X008385Y005827D01*
X008385Y005975D01*
X007135Y005975D01*
X007135Y007450D01*
X006885Y007450D01*
X006797Y007538D01*
X006785Y007550D01*
X006785Y007449D01*
X006855Y007379D01*
X006855Y007196D01*
X006726Y007067D01*
X006543Y007067D01*
X006418Y007192D02*
X006110Y007192D01*
X006110Y007271D02*
X006415Y007271D01*
X006415Y007349D02*
X006110Y007349D01*
X006110Y007428D02*
X006464Y007428D01*
X006485Y007506D02*
X006110Y007506D01*
X006089Y007663D02*
X006421Y007663D01*
X006485Y007585D02*
X003837Y007585D01*
X003837Y007663D02*
X004930Y007663D01*
X004910Y007742D02*
X003837Y007742D01*
X003837Y007820D02*
X004910Y007820D01*
X004910Y007899D02*
X003837Y007899D01*
X003837Y007977D02*
X004910Y007977D01*
X004910Y008056D02*
X003837Y008056D01*
X003837Y008134D02*
X004910Y008134D01*
X004910Y008213D02*
X003837Y008213D01*
X003837Y008291D02*
X004935Y008291D01*
X004910Y008448D02*
X003837Y008448D01*
X003837Y008370D02*
X005965Y008370D01*
X006110Y008684D02*
X006110Y008684D01*
X006110Y008762D02*
X006110Y008762D01*
X006110Y008841D02*
X006110Y008841D01*
X006110Y008919D02*
X006110Y008919D01*
X006110Y008998D02*
X006110Y008998D01*
X006110Y009076D02*
X003837Y009076D01*
X003837Y008998D02*
X004910Y008998D01*
X004910Y008919D02*
X003837Y008919D01*
X003837Y008841D02*
X004910Y008841D01*
X004910Y008762D02*
X003837Y008762D01*
X003837Y008684D02*
X004910Y008684D01*
X004910Y008605D02*
X003837Y008605D01*
X003837Y008527D02*
X004910Y008527D01*
X004938Y009155D02*
X003837Y009155D01*
X003837Y009233D02*
X004910Y009233D01*
X004910Y009312D02*
X003837Y009312D01*
X003837Y009390D02*
X004910Y009390D01*
X004910Y009469D02*
X003837Y009469D01*
X003837Y009547D02*
X004910Y009547D01*
X004910Y009626D02*
X003837Y009626D01*
X003837Y009704D02*
X004910Y009704D01*
X004926Y009783D02*
X003837Y009783D01*
X003837Y009861D02*
X007411Y009861D01*
X007489Y009783D02*
X006093Y009783D01*
X006110Y009704D02*
X007568Y009704D01*
X007646Y009626D02*
X006110Y009626D01*
X006110Y009547D02*
X007672Y009547D01*
X007672Y009469D02*
X006165Y009469D01*
X006401Y009233D02*
X007672Y009233D01*
X007972Y009233D02*
X010635Y009233D01*
X010635Y009312D02*
X007972Y009312D01*
X007972Y009390D02*
X010635Y009390D01*
X010635Y009469D02*
X007972Y009469D01*
X007972Y009547D02*
X010635Y009547D01*
X010635Y009626D02*
X007972Y009626D01*
X007972Y009704D02*
X010635Y009704D01*
X010635Y009783D02*
X007914Y009783D01*
X007835Y009861D02*
X010635Y009861D01*
X010635Y009940D02*
X007757Y009940D01*
X007678Y010018D02*
X010635Y010018D01*
X010635Y010097D02*
X007600Y010097D01*
X007521Y010175D02*
X010635Y010175D01*
X010635Y010254D02*
X007443Y010254D01*
X007332Y009940D02*
X003837Y009940D01*
X003837Y010018D02*
X005816Y010018D01*
X005738Y010097D02*
X003837Y010097D01*
X003837Y010175D02*
X005659Y010175D01*
X005581Y010254D02*
X003837Y010254D01*
X003837Y010332D02*
X005510Y010332D01*
X005510Y010411D02*
X003837Y010411D01*
X003837Y010489D02*
X005510Y010489D01*
X005380Y010568D02*
X003837Y010568D01*
X003837Y010646D02*
X005330Y010646D01*
X005330Y010725D02*
X003837Y010725D01*
X003837Y010803D02*
X005330Y010803D01*
X005330Y010882D02*
X003837Y010882D01*
X003837Y010960D02*
X005330Y010960D01*
X005330Y011039D02*
X003837Y011039D01*
X003837Y011117D02*
X005305Y011117D01*
X005226Y011196D02*
X003837Y011196D01*
X003837Y011274D02*
X005172Y011274D01*
X005172Y011353D02*
X003837Y011353D01*
X003837Y011431D02*
X005172Y011431D01*
X005172Y011510D02*
X003837Y011510D01*
X003837Y011588D02*
X005172Y011588D01*
X005172Y011667D02*
X003837Y011667D01*
X003837Y011745D02*
X005172Y011745D01*
X005172Y011824D02*
X003837Y011824D01*
X003837Y011902D02*
X005172Y011902D01*
X005172Y011981D02*
X004780Y011981D01*
X004806Y012059D02*
X005172Y012059D01*
X005472Y012059D02*
X005921Y012059D01*
X005921Y011981D02*
X005472Y011981D01*
X005472Y011902D02*
X005921Y011902D01*
X005921Y011824D02*
X005472Y011824D01*
X005472Y011745D02*
X005964Y011745D01*
X006043Y011667D02*
X005472Y011667D01*
X005472Y011588D02*
X006110Y011588D01*
X006110Y011510D02*
X005472Y011510D01*
X005472Y011431D02*
X006110Y011431D01*
X006410Y011431D02*
X010635Y011431D01*
X010635Y011353D02*
X007168Y011353D01*
X007190Y011274D02*
X010635Y011274D01*
X010635Y011196D02*
X007190Y011196D01*
X007190Y010803D02*
X008469Y010803D01*
X008547Y010725D02*
X007190Y010725D01*
X007190Y010646D02*
X008626Y010646D01*
X008704Y010568D02*
X007139Y010568D01*
X006580Y010568D02*
X006539Y010568D01*
X005980Y010568D02*
X005939Y010568D01*
X005810Y010489D02*
X008727Y010489D01*
X008762Y010411D02*
X005848Y010411D01*
X005927Y010332D02*
X008841Y010332D01*
X009053Y010332D02*
X010635Y010332D01*
X010635Y010411D02*
X009132Y010411D01*
X009167Y010489D02*
X010635Y010489D01*
X010635Y010568D02*
X009167Y010568D01*
X009149Y010646D02*
X010635Y010646D01*
X010635Y010725D02*
X009071Y010725D01*
X008893Y010803D02*
X010635Y010803D01*
X010635Y010882D02*
X008815Y010882D01*
X008736Y010960D02*
X010635Y010960D01*
X010635Y011039D02*
X008658Y011039D01*
X008579Y011117D02*
X010635Y011117D01*
X010635Y011510D02*
X006410Y011510D01*
X006410Y011588D02*
X010635Y011588D01*
X010635Y011667D02*
X008888Y011667D01*
X008851Y011630D02*
X008980Y011759D01*
X008980Y011941D01*
X008956Y011965D01*
X009144Y011965D01*
X009203Y012024D01*
X009203Y013051D01*
X009144Y013110D01*
X008431Y013110D01*
X008373Y013051D01*
X008373Y012024D01*
X008431Y011965D01*
X008563Y011965D01*
X008540Y011941D01*
X008540Y011759D01*
X008668Y011630D01*
X008851Y011630D01*
X008966Y011745D02*
X010635Y011745D01*
X010635Y011824D02*
X008980Y011824D01*
X008980Y011902D02*
X010635Y011902D01*
X010635Y011981D02*
X009160Y011981D01*
X009203Y012059D02*
X010635Y012059D01*
X010635Y012138D02*
X009203Y012138D01*
X009203Y012216D02*
X010635Y012216D01*
X010635Y012295D02*
X009203Y012295D01*
X009203Y012373D02*
X010635Y012373D01*
X010635Y012452D02*
X009203Y012452D01*
X009203Y012530D02*
X010635Y012530D01*
X010635Y012609D02*
X009203Y012609D01*
X009203Y012687D02*
X010635Y012687D01*
X010635Y012766D02*
X009203Y012766D01*
X009203Y012844D02*
X010635Y012844D01*
X010635Y012923D02*
X009203Y012923D01*
X009203Y013001D02*
X010635Y013001D01*
X010635Y013080D02*
X009174Y013080D01*
X008401Y013080D02*
X008043Y013080D01*
X008052Y013064D02*
X008033Y013096D01*
X008007Y013122D01*
X007975Y013140D01*
X007940Y013150D01*
X007646Y013150D01*
X007646Y012577D01*
X008061Y012577D01*
X008061Y013028D01*
X008052Y013064D01*
X008061Y013001D02*
X008373Y013001D01*
X008373Y012923D02*
X008061Y012923D01*
X008061Y012844D02*
X008373Y012844D01*
X008373Y012766D02*
X008061Y012766D01*
X008061Y012687D02*
X008373Y012687D01*
X008373Y012609D02*
X008061Y012609D01*
X008061Y012497D02*
X007646Y012497D01*
X007646Y011925D01*
X007940Y011925D01*
X007975Y011935D01*
X008007Y011953D01*
X008033Y011979D01*
X008052Y012011D01*
X008061Y012047D01*
X008061Y012497D01*
X008061Y012452D02*
X008373Y012452D01*
X008373Y012530D02*
X007646Y012530D01*
X007646Y012497D02*
X007646Y012577D01*
X007566Y012577D01*
X007566Y012497D01*
X007646Y012497D01*
X007646Y012452D02*
X007566Y012452D01*
X007566Y012497D02*
X007566Y011925D01*
X007273Y011925D01*
X007237Y011935D01*
X007206Y011953D01*
X007179Y011979D01*
X007161Y012011D01*
X007152Y012047D01*
X007152Y012497D01*
X007566Y012497D01*
X007566Y012530D02*
X006951Y012530D01*
X006951Y012609D02*
X007152Y012609D01*
X007152Y012577D02*
X007566Y012577D01*
X007566Y013150D01*
X007273Y013150D01*
X007237Y013140D01*
X007206Y013122D01*
X007179Y013096D01*
X007161Y013064D01*
X007152Y013028D01*
X007152Y012577D01*
X007152Y012687D02*
X006951Y012687D01*
X006951Y012766D02*
X007152Y012766D01*
X007152Y012844D02*
X006951Y012844D01*
X006951Y012923D02*
X007152Y012923D01*
X007152Y013001D02*
X006935Y013001D01*
X007170Y013080D02*
X006260Y013080D01*
X006289Y013001D02*
X006334Y013001D01*
X006318Y012923D02*
X006289Y012923D01*
X005882Y013080D02*
X005512Y013080D01*
X005541Y013001D02*
X005853Y013001D01*
X005853Y012923D02*
X005541Y012923D01*
X005541Y012844D02*
X005853Y012844D01*
X005853Y012766D02*
X005541Y012766D01*
X005541Y012687D02*
X005853Y012687D01*
X005853Y012609D02*
X005541Y012609D01*
X005541Y012530D02*
X005853Y012530D01*
X005897Y012452D02*
X005497Y012452D01*
X005542Y012373D02*
X005921Y012373D01*
X005921Y012295D02*
X005542Y012295D01*
X005542Y012216D02*
X005921Y012216D01*
X005921Y012138D02*
X005484Y012138D01*
X005149Y012452D02*
X004806Y012452D01*
X004799Y012530D02*
X005105Y012530D01*
X005105Y012609D02*
X004795Y012609D01*
X004843Y012687D02*
X005105Y012687D01*
X005105Y012766D02*
X004846Y012766D01*
X004846Y012844D02*
X005105Y012844D01*
X005105Y012923D02*
X004550Y012923D01*
X004550Y013001D02*
X004470Y013001D01*
X004470Y012923D02*
X003837Y012923D01*
X003837Y013001D02*
X004173Y013001D01*
X004173Y013080D02*
X003837Y013080D01*
X003837Y013158D02*
X004173Y013158D01*
X004201Y013237D02*
X003837Y013237D01*
X003837Y013315D02*
X010635Y013315D01*
X010635Y013237D02*
X004818Y013237D01*
X004846Y013158D02*
X010635Y013158D01*
X010635Y013394D02*
X003837Y013394D01*
X003837Y013472D02*
X005156Y013472D01*
X005163Y013465D02*
X005481Y013465D01*
X005493Y013453D01*
X005525Y013435D01*
X005560Y013425D01*
X005678Y013425D01*
X005678Y013783D01*
X005716Y013783D01*
X005716Y013425D01*
X005834Y013425D01*
X005869Y013435D01*
X005901Y013453D01*
X005913Y013465D01*
X006231Y013465D01*
X006289Y013524D01*
X006289Y014079D01*
X006231Y014138D01*
X006221Y014138D01*
X006221Y014490D01*
X006237Y014490D01*
X006447Y014700D01*
X006535Y014788D01*
X006535Y015031D01*
X006642Y015031D01*
X006701Y015089D01*
X006701Y015178D01*
X007009Y015178D01*
X007112Y015281D01*
X007455Y015281D01*
X007514Y015339D01*
X007514Y015816D01*
X007455Y015875D01*
X006939Y015875D01*
X006880Y015816D01*
X006880Y015478D01*
X006701Y015478D01*
X006701Y015566D01*
X006642Y015625D01*
X006127Y015625D01*
X006068Y015566D01*
X006068Y015089D01*
X006127Y015031D01*
X006235Y015031D01*
X006235Y014912D01*
X006113Y014790D01*
X006056Y014790D01*
X006056Y014898D01*
X005998Y014957D01*
X005521Y014957D01*
X005463Y014898D01*
X005463Y014382D01*
X005521Y014324D01*
X005921Y014324D01*
X005921Y014138D01*
X005913Y014138D01*
X005901Y014150D01*
X005869Y014168D01*
X005834Y014178D01*
X005716Y014178D01*
X005716Y013821D01*
X005678Y013821D01*
X005678Y014178D01*
X005560Y014178D01*
X005525Y014168D01*
X005493Y014150D01*
X005481Y014138D01*
X005163Y014138D01*
X005105Y014079D01*
X005105Y013952D01*
X004844Y013952D01*
X004788Y014007D01*
X004606Y014007D01*
X004477Y013879D01*
X004477Y013696D01*
X004606Y013567D01*
X004788Y013567D01*
X004872Y013652D01*
X005105Y013652D01*
X005105Y013524D01*
X005163Y013465D01*
X005105Y013551D02*
X003837Y013551D01*
X003837Y013629D02*
X004544Y013629D01*
X004477Y013708D02*
X003837Y013708D01*
X003837Y013786D02*
X004477Y013786D01*
X004477Y013865D02*
X003837Y013865D01*
X003837Y013943D02*
X004542Y013943D01*
X004850Y013629D02*
X005105Y013629D01*
X005105Y014022D02*
X003837Y014022D01*
X003837Y014100D02*
X005126Y014100D01*
X005509Y014336D02*
X003837Y014336D01*
X003837Y014414D02*
X005463Y014414D01*
X005463Y014493D02*
X003837Y014493D01*
X003837Y014571D02*
X005463Y014571D01*
X005463Y014650D02*
X003837Y014650D01*
X003837Y014728D02*
X004320Y014728D01*
X004356Y014692D02*
X004538Y014692D01*
X004608Y014762D01*
X004613Y014762D01*
X004646Y014729D01*
X005123Y014729D01*
X005181Y014787D01*
X005181Y015421D01*
X005123Y015480D01*
X004646Y015480D01*
X004588Y015421D01*
X004588Y015083D01*
X004538Y015132D01*
X004356Y015132D01*
X004227Y015004D01*
X004227Y014821D01*
X004356Y014692D01*
X004241Y014807D02*
X003837Y014807D01*
X003837Y014885D02*
X004227Y014885D01*
X004227Y014964D02*
X003837Y014964D01*
X003837Y015042D02*
X004266Y015042D01*
X004344Y015121D02*
X003837Y015121D01*
X003837Y015199D02*
X004588Y015199D01*
X004588Y015121D02*
X004550Y015121D01*
X004588Y015278D02*
X003837Y015278D01*
X003837Y015356D02*
X004588Y015356D01*
X004601Y015435D02*
X003837Y015435D01*
X003837Y015513D02*
X005463Y015513D01*
X005463Y015568D02*
X005463Y015052D01*
X005521Y014993D01*
X005998Y014993D01*
X006056Y015052D01*
X006056Y015568D01*
X005998Y015626D01*
X005847Y015626D01*
X005847Y015759D01*
X005856Y015750D01*
X006038Y015750D01*
X006068Y015780D01*
X006068Y015759D01*
X006127Y015700D01*
X006642Y015700D01*
X006701Y015759D01*
X006701Y016235D01*
X006642Y016294D01*
X006127Y016294D01*
X006068Y016235D01*
X006068Y016161D01*
X006038Y016190D01*
X005856Y016190D01*
X005786Y016120D01*
X005555Y016120D01*
X005555Y016287D01*
X005497Y016346D01*
X005020Y016346D01*
X004962Y016287D01*
X004962Y015653D01*
X005020Y015595D01*
X005490Y015595D01*
X005463Y015568D01*
X005487Y015592D02*
X004802Y015592D01*
X004793Y015583D02*
X004819Y015609D01*
X004838Y015641D01*
X004847Y015676D01*
X004847Y015930D01*
X004551Y015930D01*
X004551Y016010D01*
X004847Y016010D01*
X004847Y016264D01*
X004838Y016300D01*
X004819Y016332D01*
X004793Y016358D01*
X004761Y016377D01*
X004726Y016386D01*
X004550Y016386D01*
X004550Y016010D01*
X004470Y016010D01*
X004470Y015930D01*
X004174Y015930D01*
X004174Y015676D01*
X004183Y015641D01*
X004202Y015609D01*
X004228Y015583D01*
X004260Y015564D01*
X004295Y015555D01*
X004470Y015555D01*
X004470Y015930D01*
X004550Y015930D01*
X004550Y015555D01*
X004726Y015555D01*
X004761Y015564D01*
X004793Y015583D01*
X004846Y015670D02*
X004962Y015670D01*
X004962Y015749D02*
X004847Y015749D01*
X004847Y015827D02*
X004962Y015827D01*
X004962Y015906D02*
X004847Y015906D01*
X004962Y015984D02*
X004551Y015984D01*
X004550Y015906D02*
X004470Y015906D01*
X004470Y015984D02*
X003837Y015984D01*
X003837Y015906D02*
X004174Y015906D01*
X004174Y015827D02*
X003837Y015827D01*
X003837Y015749D02*
X004174Y015749D01*
X004175Y015670D02*
X003837Y015670D01*
X003837Y015592D02*
X004219Y015592D01*
X004470Y015592D02*
X004550Y015592D01*
X004550Y015670D02*
X004470Y015670D01*
X004470Y015749D02*
X004550Y015749D01*
X004550Y015827D02*
X004470Y015827D01*
X004470Y016010D02*
X004174Y016010D01*
X004174Y016264D01*
X004183Y016300D01*
X004202Y016332D01*
X004228Y016358D01*
X004260Y016377D01*
X004295Y016386D01*
X004470Y016386D01*
X004470Y016010D01*
X004470Y016063D02*
X004550Y016063D01*
X004550Y016141D02*
X004470Y016141D01*
X004470Y016220D02*
X004550Y016220D01*
X004550Y016298D02*
X004470Y016298D01*
X004470Y016377D02*
X004550Y016377D01*
X004760Y016377D02*
X006840Y016377D01*
X006840Y016455D02*
X003837Y016455D01*
X003837Y016377D02*
X004261Y016377D01*
X004183Y016298D02*
X003837Y016298D01*
X003837Y016220D02*
X004174Y016220D01*
X004174Y016141D02*
X003837Y016141D01*
X003837Y016063D02*
X004174Y016063D01*
X003837Y016534D02*
X006873Y016534D01*
X006868Y016530D02*
X006850Y016498D01*
X006840Y016462D01*
X006840Y016287D01*
X007157Y016287D01*
X007157Y016207D01*
X007237Y016207D01*
X007237Y015910D01*
X007432Y015910D01*
X007468Y015920D01*
X007500Y015938D01*
X007526Y015964D01*
X007544Y015996D01*
X007554Y016032D01*
X007554Y016207D01*
X007237Y016207D01*
X007237Y016287D01*
X007554Y016287D01*
X007554Y016462D01*
X007544Y016498D01*
X007526Y016530D01*
X007500Y016556D01*
X007468Y016574D01*
X007432Y016584D01*
X007237Y016584D01*
X007237Y016287D01*
X007157Y016287D01*
X007157Y016584D01*
X006962Y016584D01*
X006926Y016574D01*
X006895Y016556D01*
X006868Y016530D01*
X006992Y016717D02*
X006701Y016717D01*
X006433Y016829D01*
X006227Y017034D01*
X006116Y017303D01*
X006116Y017593D01*
X006227Y017862D01*
X006433Y018067D01*
X006701Y018178D01*
X006992Y018178D01*
X007260Y018067D01*
X007466Y017862D01*
X007577Y017593D01*
X007577Y017303D01*
X007466Y017034D01*
X007260Y016829D01*
X006992Y016717D01*
X007118Y016769D02*
X007714Y016769D01*
X007714Y016691D02*
X003837Y016691D01*
X003837Y016612D02*
X007714Y016612D01*
X007714Y016534D02*
X007521Y016534D01*
X007554Y016455D02*
X007714Y016455D01*
X007714Y016452D02*
X008129Y016452D01*
X008129Y016372D01*
X008209Y016372D01*
X008209Y015800D01*
X008502Y015800D01*
X008538Y015810D01*
X008570Y015828D01*
X008596Y015854D01*
X008614Y015886D01*
X008624Y015922D01*
X008624Y016372D01*
X008209Y016372D01*
X008209Y016452D01*
X008624Y016452D01*
X008624Y016903D01*
X008614Y016939D01*
X008596Y016971D01*
X008570Y016997D01*
X008538Y017015D01*
X008502Y017025D01*
X008209Y017025D01*
X008209Y016452D01*
X008129Y016452D01*
X008129Y017025D01*
X007836Y017025D01*
X007800Y017015D01*
X007768Y016997D01*
X007742Y016971D01*
X007724Y016939D01*
X007714Y016903D01*
X007714Y016452D01*
X007714Y016372D02*
X007714Y015922D01*
X007724Y015886D01*
X007742Y015854D01*
X007768Y015828D01*
X007800Y015810D01*
X007836Y015800D01*
X008129Y015800D01*
X008129Y016372D01*
X007714Y016372D01*
X007714Y016298D02*
X007554Y016298D01*
X007554Y016377D02*
X008129Y016377D01*
X008129Y016455D02*
X008209Y016455D01*
X008209Y016377D02*
X008935Y016377D01*
X008935Y016455D02*
X008624Y016455D01*
X008624Y016534D02*
X008935Y016534D01*
X008935Y016612D02*
X008624Y016612D01*
X008624Y016691D02*
X008935Y016691D01*
X008935Y016769D02*
X008624Y016769D01*
X008624Y016848D02*
X008935Y016848D01*
X008935Y016926D02*
X008994Y016985D01*
X009706Y016985D01*
X009765Y016926D01*
X009765Y015899D01*
X009706Y015840D01*
X008994Y015840D01*
X008935Y015899D01*
X008935Y016926D01*
X008618Y016926D01*
X008556Y017005D02*
X010635Y017005D01*
X010635Y017083D02*
X007486Y017083D01*
X007519Y017162D02*
X010635Y017162D01*
X010635Y017240D02*
X007551Y017240D01*
X007577Y017319D02*
X010635Y017319D01*
X010635Y017397D02*
X007577Y017397D01*
X007577Y017476D02*
X010635Y017476D01*
X010635Y017554D02*
X007577Y017554D01*
X007561Y017633D02*
X010635Y017633D01*
X010635Y017711D02*
X007528Y017711D01*
X007496Y017790D02*
X010635Y017790D01*
X010635Y017868D02*
X007459Y017868D01*
X007381Y017947D02*
X010635Y017947D01*
X010635Y018025D02*
X007302Y018025D01*
X007172Y018104D02*
X010635Y018104D01*
X010635Y018182D02*
X005405Y018182D01*
X005412Y018261D02*
X010635Y018261D01*
X010635Y018339D02*
X005412Y018339D01*
X005412Y018418D02*
X010635Y018418D01*
X010635Y016926D02*
X009765Y016926D01*
X009765Y016848D02*
X010635Y016848D01*
X010635Y016769D02*
X009765Y016769D01*
X009765Y016691D02*
X010635Y016691D01*
X010635Y016612D02*
X009765Y016612D01*
X009765Y016534D02*
X010635Y016534D01*
X010635Y016455D02*
X009765Y016455D01*
X009765Y016377D02*
X010635Y016377D01*
X010635Y016298D02*
X009765Y016298D01*
X009765Y016220D02*
X010635Y016220D01*
X010635Y016141D02*
X009765Y016141D01*
X009765Y016063D02*
X010635Y016063D01*
X010635Y015984D02*
X009765Y015984D01*
X009765Y015906D02*
X010635Y015906D01*
X010635Y015827D02*
X008569Y015827D01*
X008620Y015906D02*
X008935Y015906D01*
X008935Y015984D02*
X008624Y015984D01*
X008624Y016063D02*
X008935Y016063D01*
X008935Y016141D02*
X008624Y016141D01*
X008624Y016220D02*
X008935Y016220D01*
X008935Y016298D02*
X008624Y016298D01*
X008209Y016298D02*
X008129Y016298D01*
X008129Y016220D02*
X008209Y016220D01*
X008209Y016141D02*
X008129Y016141D01*
X008129Y016063D02*
X008209Y016063D01*
X008209Y015984D02*
X008129Y015984D01*
X008129Y015906D02*
X008209Y015906D01*
X008209Y015827D02*
X008129Y015827D01*
X007769Y015827D02*
X007502Y015827D01*
X007514Y015749D02*
X010635Y015749D01*
X010635Y015670D02*
X007514Y015670D01*
X007514Y015592D02*
X010635Y015592D01*
X010635Y015513D02*
X007514Y015513D01*
X007514Y015435D02*
X010635Y015435D01*
X010635Y015356D02*
X007514Y015356D01*
X007435Y015096D02*
X006959Y015096D01*
X006900Y015037D01*
X006900Y014403D01*
X006959Y014345D01*
X007435Y014345D01*
X007494Y014403D01*
X007494Y015037D01*
X007435Y015096D01*
X007489Y015042D02*
X010635Y015042D01*
X010635Y014964D02*
X007494Y014964D01*
X007494Y014885D02*
X010635Y014885D01*
X010635Y014807D02*
X007494Y014807D01*
X007494Y014728D02*
X010635Y014728D01*
X010635Y014650D02*
X007494Y014650D01*
X007494Y014571D02*
X010635Y014571D01*
X010635Y014493D02*
X007494Y014493D01*
X007494Y014414D02*
X010635Y014414D01*
X010635Y014336D02*
X006221Y014336D01*
X006221Y014414D02*
X006900Y014414D01*
X006900Y014493D02*
X006240Y014493D01*
X006318Y014571D02*
X006900Y014571D01*
X006900Y014650D02*
X006397Y014650D01*
X006475Y014728D02*
X006900Y014728D01*
X006900Y014807D02*
X006535Y014807D01*
X006535Y014885D02*
X006900Y014885D01*
X006900Y014964D02*
X006535Y014964D01*
X006654Y015042D02*
X006905Y015042D01*
X007031Y015199D02*
X010635Y015199D01*
X010635Y015121D02*
X006701Y015121D01*
X006701Y015513D02*
X006880Y015513D01*
X006880Y015592D02*
X006675Y015592D01*
X006691Y015749D02*
X006880Y015749D01*
X006880Y015670D02*
X005847Y015670D01*
X005847Y015749D02*
X006078Y015749D01*
X006094Y015592D02*
X006032Y015592D01*
X006056Y015513D02*
X006068Y015513D01*
X006056Y015435D02*
X006068Y015435D01*
X006056Y015356D02*
X006068Y015356D01*
X006056Y015278D02*
X006068Y015278D01*
X006056Y015199D02*
X006068Y015199D01*
X006056Y015121D02*
X006068Y015121D01*
X006047Y015042D02*
X006115Y015042D01*
X006235Y014964D02*
X005181Y014964D01*
X005181Y015042D02*
X005472Y015042D01*
X005463Y015121D02*
X005181Y015121D01*
X005181Y015199D02*
X005463Y015199D01*
X005463Y015278D02*
X005181Y015278D01*
X005181Y015356D02*
X005463Y015356D01*
X005463Y015435D02*
X005168Y015435D01*
X005181Y014885D02*
X005463Y014885D01*
X005463Y014807D02*
X005181Y014807D01*
X005463Y014728D02*
X004574Y014728D01*
X003837Y014257D02*
X005921Y014257D01*
X005921Y014179D02*
X003837Y014179D01*
X004470Y013237D02*
X004550Y013237D01*
X004550Y013158D02*
X004470Y013158D01*
X004470Y013080D02*
X004550Y013080D01*
X004846Y013080D02*
X005134Y013080D01*
X005105Y013001D02*
X004846Y013001D01*
X004173Y012844D02*
X003837Y012844D01*
X003837Y012766D02*
X004173Y012766D01*
X004176Y012687D02*
X003837Y012687D01*
X003837Y012609D02*
X004224Y012609D01*
X004220Y012530D02*
X003837Y012530D01*
X003837Y012452D02*
X004213Y012452D01*
X004213Y012373D02*
X003837Y012373D01*
X003837Y012295D02*
X004213Y012295D01*
X004213Y012216D02*
X003837Y012216D01*
X003837Y012138D02*
X004213Y012138D01*
X004213Y012059D02*
X003837Y012059D01*
X003837Y011981D02*
X004239Y011981D01*
X005678Y013472D02*
X005716Y013472D01*
X005716Y013551D02*
X005678Y013551D01*
X005678Y013629D02*
X005716Y013629D01*
X005716Y013708D02*
X005678Y013708D01*
X005678Y013865D02*
X005716Y013865D01*
X005716Y013943D02*
X005678Y013943D01*
X005678Y014022D02*
X005716Y014022D01*
X005716Y014100D02*
X005678Y014100D01*
X006221Y014179D02*
X006494Y014179D01*
X006496Y014184D02*
X006486Y014148D01*
X006486Y013894D01*
X006783Y013894D01*
X006783Y013814D01*
X006863Y013814D01*
X006863Y013439D01*
X007038Y013439D01*
X007074Y013448D01*
X007106Y013467D01*
X007132Y013493D01*
X007150Y013525D01*
X007160Y013560D01*
X007160Y013814D01*
X006863Y013814D01*
X006863Y013894D01*
X007160Y013894D01*
X007160Y014148D01*
X007150Y014184D01*
X007132Y014216D01*
X007106Y014242D01*
X007074Y014260D01*
X007038Y014270D01*
X006863Y014270D01*
X006863Y013894D01*
X006783Y013894D01*
X006783Y014270D01*
X006608Y014270D01*
X006572Y014260D01*
X006540Y014242D01*
X006514Y014216D01*
X006496Y014184D01*
X006486Y014100D02*
X006268Y014100D01*
X006289Y014022D02*
X006486Y014022D01*
X006486Y013943D02*
X006289Y013943D01*
X006289Y013865D02*
X006783Y013865D01*
X006783Y013814D02*
X006486Y013814D01*
X006486Y013560D01*
X006496Y013525D01*
X006514Y013493D01*
X006540Y013467D01*
X006572Y013448D01*
X006608Y013439D01*
X006783Y013439D01*
X006783Y013814D01*
X006783Y013786D02*
X006863Y013786D01*
X006863Y013708D02*
X006783Y013708D01*
X006783Y013629D02*
X006863Y013629D01*
X006863Y013551D02*
X006783Y013551D01*
X006783Y013472D02*
X006863Y013472D01*
X007112Y013472D02*
X010635Y013472D01*
X010635Y013551D02*
X007868Y013551D01*
X007868Y013537D02*
X007868Y013680D01*
X007918Y013630D01*
X008101Y013630D01*
X008230Y013759D01*
X008230Y013941D01*
X008101Y014070D01*
X007918Y014070D01*
X007868Y014019D01*
X007868Y014171D01*
X007809Y014230D01*
X007333Y014230D01*
X007274Y014171D01*
X007274Y013537D01*
X007333Y013479D01*
X007809Y013479D01*
X007868Y013537D01*
X007868Y013629D02*
X010635Y013629D01*
X010635Y013708D02*
X008179Y013708D01*
X008230Y013786D02*
X010635Y013786D01*
X010635Y013865D02*
X008230Y013865D01*
X008227Y013943D02*
X010635Y013943D01*
X010635Y014022D02*
X008149Y014022D01*
X007870Y014022D02*
X007868Y014022D01*
X007868Y014100D02*
X010635Y014100D01*
X010635Y014179D02*
X007860Y014179D01*
X007282Y014179D02*
X007152Y014179D01*
X007160Y014100D02*
X007274Y014100D01*
X007274Y014022D02*
X007160Y014022D01*
X007160Y013943D02*
X007274Y013943D01*
X007274Y013865D02*
X006863Y013865D01*
X006863Y013943D02*
X006783Y013943D01*
X006783Y014022D02*
X006863Y014022D01*
X006863Y014100D02*
X006783Y014100D01*
X006783Y014179D02*
X006863Y014179D01*
X006863Y014257D02*
X006783Y014257D01*
X006567Y014257D02*
X006221Y014257D01*
X006289Y013786D02*
X006486Y013786D01*
X006486Y013708D02*
X006289Y013708D01*
X006289Y013629D02*
X006486Y013629D01*
X006489Y013551D02*
X006289Y013551D01*
X006238Y013472D02*
X006534Y013472D01*
X007157Y013551D02*
X007274Y013551D01*
X007274Y013629D02*
X007160Y013629D01*
X007160Y013708D02*
X007274Y013708D01*
X007274Y013786D02*
X007160Y013786D01*
X007079Y014257D02*
X010635Y014257D01*
X010635Y015278D02*
X007109Y015278D01*
X006208Y014885D02*
X006056Y014885D01*
X006056Y014807D02*
X006129Y014807D01*
X006701Y015827D02*
X006892Y015827D01*
X006926Y015920D02*
X006962Y015910D01*
X007157Y015910D01*
X007157Y016207D01*
X006840Y016207D01*
X006840Y016032D01*
X006850Y015996D01*
X006868Y015964D01*
X006895Y015938D01*
X006926Y015920D01*
X006857Y015984D02*
X006701Y015984D01*
X006701Y015906D02*
X007718Y015906D01*
X007714Y015984D02*
X007537Y015984D01*
X007554Y016063D02*
X007714Y016063D01*
X007714Y016141D02*
X007554Y016141D01*
X007714Y016220D02*
X007237Y016220D01*
X007237Y016298D02*
X007157Y016298D01*
X007157Y016220D02*
X006701Y016220D01*
X006701Y016141D02*
X006840Y016141D01*
X006840Y016063D02*
X006701Y016063D01*
X006840Y016298D02*
X005544Y016298D01*
X005555Y016220D02*
X006068Y016220D01*
X005807Y016141D02*
X005555Y016141D01*
X004962Y016141D02*
X004847Y016141D01*
X004847Y016063D02*
X004962Y016063D01*
X004962Y016220D02*
X004847Y016220D01*
X004838Y016298D02*
X004973Y016298D01*
X004383Y016848D02*
X006413Y016848D01*
X006335Y016926D02*
X004519Y016926D01*
X004655Y017005D02*
X006256Y017005D01*
X006207Y017083D02*
X004773Y017083D01*
X004852Y017162D02*
X006174Y017162D01*
X006142Y017240D02*
X004930Y017240D01*
X005009Y017319D02*
X006116Y017319D01*
X006116Y017397D02*
X005080Y017397D01*
X005069Y017379D02*
X005069Y017379D01*
X005125Y017476D02*
X006116Y017476D01*
X006116Y017554D02*
X005170Y017554D01*
X005216Y017633D02*
X006133Y017633D01*
X006165Y017711D02*
X005261Y017711D01*
X005300Y017790D02*
X006198Y017790D01*
X006234Y017868D02*
X005321Y017868D01*
X005342Y017947D02*
X006313Y017947D01*
X006391Y018025D02*
X005363Y018025D01*
X005384Y018104D02*
X006522Y018104D01*
X007437Y017005D02*
X007782Y017005D01*
X007720Y016926D02*
X007358Y016926D01*
X007280Y016848D02*
X007714Y016848D01*
X008129Y016848D02*
X008209Y016848D01*
X008209Y016926D02*
X008129Y016926D01*
X008129Y017005D02*
X008209Y017005D01*
X008209Y016769D02*
X008129Y016769D01*
X008129Y016691D02*
X008209Y016691D01*
X008209Y016612D02*
X008129Y016612D01*
X008129Y016534D02*
X008209Y016534D01*
X007237Y016534D02*
X007157Y016534D01*
X007157Y016455D02*
X007237Y016455D01*
X007237Y016377D02*
X007157Y016377D01*
X007157Y016141D02*
X007237Y016141D01*
X007237Y016063D02*
X007157Y016063D01*
X007157Y015984D02*
X007237Y015984D01*
X006575Y016769D02*
X004117Y016769D01*
X007566Y013080D02*
X007646Y013080D01*
X007646Y013001D02*
X007566Y013001D01*
X007566Y012923D02*
X007646Y012923D01*
X007646Y012844D02*
X007566Y012844D01*
X007566Y012766D02*
X007646Y012766D01*
X007646Y012687D02*
X007566Y012687D01*
X007566Y012609D02*
X007646Y012609D01*
X007646Y012373D02*
X007566Y012373D01*
X007566Y012295D02*
X007646Y012295D01*
X007646Y012216D02*
X007566Y012216D01*
X007566Y012138D02*
X007646Y012138D01*
X007646Y012059D02*
X007566Y012059D01*
X007566Y011981D02*
X007646Y011981D01*
X008035Y011981D02*
X008415Y011981D01*
X008373Y012059D02*
X008061Y012059D01*
X008061Y012138D02*
X008373Y012138D01*
X008373Y012216D02*
X008061Y012216D01*
X008061Y012295D02*
X008373Y012295D01*
X008373Y012373D02*
X008061Y012373D01*
X008540Y011902D02*
X006991Y011902D01*
X006991Y011862D02*
X006991Y012038D01*
X006675Y012038D01*
X006675Y011741D01*
X006869Y011741D01*
X006905Y011750D01*
X006937Y011769D01*
X006963Y011795D01*
X006982Y011827D01*
X006991Y011862D01*
X006980Y011824D02*
X008540Y011824D01*
X008553Y011745D02*
X006886Y011745D01*
X006675Y011745D02*
X006595Y011745D01*
X006595Y011824D02*
X006675Y011824D01*
X006675Y011902D02*
X006595Y011902D01*
X006595Y011981D02*
X006675Y011981D01*
X006675Y012059D02*
X007152Y012059D01*
X007152Y012138D02*
X006991Y012138D01*
X006991Y012216D02*
X007152Y012216D01*
X007152Y012295D02*
X006991Y012295D01*
X006950Y012373D02*
X007152Y012373D01*
X007152Y012452D02*
X006894Y012452D01*
X006675Y012373D02*
X006595Y012373D01*
X006595Y012295D02*
X006675Y012295D01*
X006675Y012216D02*
X006595Y012216D01*
X006595Y012138D02*
X006675Y012138D01*
X006595Y012059D02*
X006221Y012059D01*
X006221Y011981D02*
X006278Y011981D01*
X006278Y011902D02*
X006232Y011902D01*
X006221Y012138D02*
X006278Y012138D01*
X006278Y012216D02*
X006221Y012216D01*
X006221Y012295D02*
X006278Y012295D01*
X006319Y012373D02*
X006221Y012373D01*
X006245Y012452D02*
X006375Y012452D01*
X006318Y012530D02*
X006289Y012530D01*
X006991Y011981D02*
X007178Y011981D01*
X006410Y011667D02*
X008631Y011667D01*
X007135Y009155D02*
X006410Y009155D01*
X006410Y009076D02*
X007135Y009076D01*
X006902Y008998D02*
X006822Y008998D01*
X006822Y008919D02*
X006902Y008919D01*
X006902Y008841D02*
X006822Y008841D01*
X006822Y008762D02*
X006410Y008762D01*
X006410Y008684D02*
X006506Y008684D01*
X006506Y008605D02*
X006466Y008605D01*
X006506Y008841D02*
X006410Y008841D01*
X006410Y008919D02*
X006506Y008919D01*
X006528Y008998D02*
X006410Y008998D01*
X006822Y008685D02*
X006902Y008685D01*
X006902Y008388D01*
X007097Y008388D01*
X007133Y008398D01*
X007135Y008399D01*
X007135Y008312D01*
X006759Y008312D01*
X006683Y008388D01*
X006822Y008388D01*
X006822Y008685D01*
X006822Y008684D02*
X006902Y008684D01*
X006902Y008605D02*
X006822Y008605D01*
X006822Y008527D02*
X006902Y008527D01*
X006902Y008448D02*
X006822Y008448D01*
X006702Y008370D02*
X007135Y008370D01*
X006343Y007742D02*
X006110Y007742D01*
X006110Y007820D02*
X006264Y007820D01*
X006785Y007506D02*
X006828Y007506D01*
X006805Y007428D02*
X007135Y007428D01*
X007135Y007349D02*
X006855Y007349D01*
X006855Y007271D02*
X007135Y007271D01*
X007135Y007192D02*
X006851Y007192D01*
X006772Y007114D02*
X007135Y007114D01*
X007135Y006721D02*
X003837Y006721D01*
X003837Y006643D02*
X004353Y006643D01*
X004349Y006640D02*
X004331Y006608D01*
X004321Y006572D01*
X004321Y006144D01*
X004846Y006144D01*
X004846Y006064D01*
X004321Y006064D01*
X004321Y005635D01*
X004331Y005600D01*
X004349Y005568D01*
X004376Y005542D01*
X004407Y005523D01*
X004443Y005514D01*
X004846Y005514D01*
X004846Y006064D01*
X004926Y006064D01*
X004926Y005514D01*
X005330Y005514D01*
X005366Y005523D01*
X005397Y005542D01*
X005424Y005568D01*
X005442Y005600D01*
X005451Y005635D01*
X005451Y006064D01*
X004926Y006064D01*
X004926Y006144D01*
X004846Y006144D01*
X004846Y006694D01*
X004443Y006694D01*
X004407Y006684D01*
X004376Y006666D01*
X004349Y006640D01*
X004321Y006564D02*
X003837Y006564D01*
X003837Y006486D02*
X004321Y006486D01*
X004321Y006407D02*
X003837Y006407D01*
X003837Y006329D02*
X004321Y006329D01*
X004321Y006250D02*
X003837Y006250D01*
X003837Y006172D02*
X004321Y006172D01*
X004321Y006015D02*
X003837Y006015D01*
X003837Y006093D02*
X004846Y006093D01*
X004846Y006015D02*
X004926Y006015D01*
X004926Y006093D02*
X005983Y006093D01*
X005983Y006015D02*
X005451Y006015D01*
X005451Y005936D02*
X005983Y005936D01*
X005983Y005858D02*
X005451Y005858D01*
X005451Y005779D02*
X005983Y005779D01*
X005983Y005701D02*
X005451Y005701D01*
X005448Y005622D02*
X005983Y005622D01*
X005400Y005544D02*
X006855Y005544D01*
X006934Y005465D02*
X003837Y005465D01*
X003837Y005387D02*
X007012Y005387D01*
X007123Y005701D02*
X007904Y005701D01*
X007927Y005779D02*
X007044Y005779D01*
X007033Y005858D02*
X008385Y005858D01*
X008385Y005936D02*
X007033Y005936D01*
X007033Y006015D02*
X007135Y006015D01*
X007135Y006093D02*
X007033Y006093D01*
X007033Y006172D02*
X007135Y006172D01*
X007135Y006250D02*
X007033Y006250D01*
X007033Y006329D02*
X007135Y006329D01*
X007135Y006407D02*
X007033Y006407D01*
X007033Y006486D02*
X007135Y006486D01*
X007135Y006564D02*
X007033Y006564D01*
X006985Y006643D02*
X007135Y006643D01*
X006030Y006643D02*
X005420Y006643D01*
X005424Y006640D02*
X005397Y006666D01*
X005366Y006684D01*
X005330Y006694D01*
X004926Y006694D01*
X004926Y006144D01*
X005451Y006144D01*
X005451Y006572D01*
X005442Y006608D01*
X005424Y006640D01*
X005451Y006564D02*
X005983Y006564D01*
X005983Y006486D02*
X005451Y006486D01*
X005451Y006407D02*
X005983Y006407D01*
X005983Y006329D02*
X005451Y006329D01*
X005451Y006250D02*
X005983Y006250D01*
X005983Y006172D02*
X005451Y006172D01*
X004926Y006172D02*
X004846Y006172D01*
X004846Y006250D02*
X004926Y006250D01*
X004926Y006329D02*
X004846Y006329D01*
X004846Y006407D02*
X004926Y006407D01*
X004926Y006486D02*
X004846Y006486D01*
X004846Y006564D02*
X004926Y006564D01*
X004926Y006643D02*
X004846Y006643D01*
X004910Y007271D02*
X003837Y007271D01*
X003837Y007349D02*
X004910Y007349D01*
X004910Y007428D02*
X003837Y007428D01*
X003837Y007506D02*
X004910Y007506D01*
X004926Y005936D02*
X004846Y005936D01*
X004846Y005858D02*
X004926Y005858D01*
X004926Y005779D02*
X004846Y005779D01*
X004846Y005701D02*
X004926Y005701D01*
X004926Y005622D02*
X004846Y005622D01*
X004846Y005544D02*
X004926Y005544D01*
X004373Y005544D02*
X003837Y005544D01*
X003837Y005622D02*
X004325Y005622D01*
X004321Y005701D02*
X003837Y005701D01*
X003837Y005779D02*
X004321Y005779D01*
X004321Y005858D02*
X003837Y005858D01*
X003837Y005936D02*
X004321Y005936D01*
X003837Y005308D02*
X007904Y005308D01*
X007954Y005230D02*
X003837Y005230D01*
X003837Y005151D02*
X008297Y005151D01*
X008297Y005073D02*
X003837Y005073D01*
X003837Y004994D02*
X008297Y004994D01*
X008297Y004916D02*
X003837Y004916D01*
X003837Y004837D02*
X007426Y004837D01*
X007383Y004759D02*
X003837Y004759D01*
X003837Y004680D02*
X007381Y004680D01*
X007381Y004602D02*
X003837Y004602D01*
X003837Y004523D02*
X007697Y004523D01*
X007697Y004445D02*
X007777Y004445D01*
X007777Y004366D02*
X007697Y004366D01*
X007697Y004288D02*
X007777Y004288D01*
X007777Y004209D02*
X007697Y004209D01*
X007469Y004209D02*
X007033Y004209D01*
X007033Y004131D02*
X008860Y004131D01*
X008860Y004209D02*
X008005Y004209D01*
X008085Y004288D02*
X008101Y004288D01*
X007777Y004602D02*
X007697Y004602D01*
X007697Y004680D02*
X007777Y004680D01*
X007777Y004759D02*
X007697Y004759D01*
X007697Y004837D02*
X007777Y004837D01*
X008049Y004837D02*
X008297Y004837D01*
X008597Y004837D02*
X008860Y004837D01*
X008860Y004759D02*
X008723Y004759D01*
X008723Y004680D02*
X008860Y004680D01*
X008860Y004602D02*
X008723Y004602D01*
X008723Y004523D02*
X008860Y004523D01*
X008860Y004445D02*
X008723Y004445D01*
X008723Y004366D02*
X008860Y004366D01*
X008860Y004288D02*
X008712Y004288D01*
X008860Y004052D02*
X007033Y004052D01*
X007033Y003974D02*
X008860Y003974D01*
X008860Y003895D02*
X007033Y003895D01*
X007033Y003817D02*
X008860Y003817D01*
X008811Y003738D02*
X007033Y003738D01*
X007024Y003346D02*
X007985Y003346D01*
X007850Y003267D02*
X003837Y003267D01*
X003837Y003189D02*
X007838Y003189D01*
X007838Y003110D02*
X003837Y003110D01*
X003837Y003032D02*
X007838Y003032D01*
X007838Y002953D02*
X003837Y002953D01*
X003837Y002875D02*
X007838Y002875D01*
X007838Y002796D02*
X007059Y002796D01*
X006992Y002824D02*
X006701Y002824D01*
X006433Y002713D01*
X006227Y002507D01*
X006116Y002239D01*
X006116Y001948D01*
X006227Y001680D01*
X006433Y001474D01*
X006701Y001363D01*
X006992Y001363D01*
X007260Y001474D01*
X007466Y001680D01*
X007577Y001948D01*
X007577Y002239D01*
X007466Y002507D01*
X007260Y002713D01*
X006992Y002824D01*
X007248Y002718D02*
X007859Y002718D01*
X007835Y002639D02*
X007334Y002639D01*
X007412Y002561D02*
X007798Y002561D01*
X007798Y002482D02*
X007476Y002482D01*
X007509Y002404D02*
X007798Y002404D01*
X007798Y002247D02*
X007574Y002247D01*
X007577Y002168D02*
X007798Y002168D01*
X007798Y002090D02*
X007577Y002090D01*
X007577Y002011D02*
X007839Y002011D01*
X008095Y002011D02*
X008175Y002011D01*
X008175Y002090D02*
X008095Y002090D01*
X008095Y002168D02*
X008175Y002168D01*
X008175Y002247D02*
X008095Y002247D01*
X008095Y002325D02*
X007541Y002325D01*
X007571Y001933D02*
X009776Y001933D01*
X009776Y001854D02*
X007538Y001854D01*
X007506Y001776D02*
X009776Y001776D01*
X009776Y001697D02*
X007473Y001697D01*
X007405Y001619D02*
X009776Y001619D01*
X009776Y001540D02*
X007327Y001540D01*
X007231Y001462D02*
X012566Y001462D01*
X012566Y001540D02*
X011118Y001540D01*
X011118Y001619D02*
X011195Y001619D01*
X011138Y001697D02*
X011118Y001697D01*
X010524Y001697D02*
X010370Y001697D01*
X010370Y001619D02*
X010524Y001619D01*
X010524Y001540D02*
X010370Y001540D01*
X010370Y001776D02*
X010524Y001776D01*
X010524Y001854D02*
X010370Y001854D01*
X010370Y001933D02*
X010524Y001933D01*
X010524Y002011D02*
X010442Y002011D01*
X010521Y002090D02*
X010524Y002090D01*
X010332Y002325D02*
X010035Y002325D01*
X010035Y002247D02*
X010253Y002247D01*
X010150Y002404D02*
X010035Y002404D01*
X010035Y002482D02*
X010150Y002482D01*
X010150Y002561D02*
X010035Y002561D01*
X010035Y002639D02*
X010150Y002639D01*
X010150Y002718D02*
X010035Y002718D01*
X010035Y002796D02*
X010150Y002796D01*
X010150Y002875D02*
X010035Y002875D01*
X010035Y002953D02*
X010150Y002953D01*
X010150Y003032D02*
X010035Y003032D01*
X010035Y003110D02*
X012254Y003110D01*
X012254Y003032D02*
X010744Y003032D01*
X010744Y002953D02*
X011192Y002953D01*
X011138Y002875D02*
X010744Y002875D01*
X010469Y003189D02*
X010175Y003189D01*
X010201Y003267D02*
X010443Y003267D01*
X010443Y003346D02*
X010201Y003346D01*
X010201Y003424D02*
X010443Y003424D01*
X010443Y003503D02*
X010201Y003503D01*
X010201Y003581D02*
X010443Y003581D01*
X010443Y003660D02*
X010201Y003660D01*
X010154Y003738D02*
X010490Y003738D01*
X010443Y003895D02*
X010201Y003895D01*
X010201Y004272D02*
X010201Y004360D01*
X010142Y004419D01*
X009627Y004419D01*
X009568Y004360D01*
X009568Y004272D01*
X009160Y004272D01*
X009160Y004912D01*
X010635Y004912D01*
X010635Y005537D01*
X011815Y005537D01*
X011815Y005055D01*
X011392Y004632D01*
X011293Y004632D01*
X011165Y004504D01*
X011165Y004321D01*
X011293Y004192D01*
X011476Y004192D01*
X011605Y004321D01*
X011605Y004420D01*
X012027Y004843D01*
X012115Y004930D01*
X012115Y005537D01*
X013172Y005537D01*
X013010Y005375D01*
X012858Y005375D01*
X012788Y005445D01*
X012606Y005445D01*
X012477Y005316D01*
X012477Y005134D01*
X012606Y005005D01*
X012788Y005005D01*
X012858Y005075D01*
X013134Y005075D01*
X013222Y005163D01*
X013597Y005537D01*
X015447Y005537D01*
X015447Y004711D01*
X015438Y004720D01*
X015406Y004739D01*
X015370Y004748D01*
X015116Y004748D01*
X015116Y004451D01*
X015447Y004451D01*
X015447Y004371D01*
X015116Y004371D01*
X015116Y004075D01*
X015370Y004075D01*
X015406Y004084D01*
X015438Y004103D01*
X015447Y004112D01*
X015447Y003963D01*
X015438Y003972D01*
X015406Y003991D01*
X015370Y004000D01*
X015116Y004000D01*
X015116Y003703D01*
X015036Y003703D01*
X015036Y003623D01*
X015116Y003623D01*
X015116Y003327D01*
X015370Y003327D01*
X015406Y003336D01*
X015438Y003355D01*
X015447Y003364D01*
X015447Y002437D01*
X014721Y002437D01*
X014792Y002509D01*
X014792Y002691D01*
X014722Y002761D01*
X014722Y002975D01*
X014491Y003206D01*
X014448Y003249D01*
X014447Y003249D01*
X014447Y003250D01*
X014385Y003250D01*
X014056Y003252D01*
X014056Y003421D01*
X013998Y003480D01*
X013855Y003480D01*
X013970Y003595D01*
X014372Y003595D01*
X014430Y003653D01*
X014430Y004287D01*
X014372Y004346D01*
X013895Y004346D01*
X013837Y004287D01*
X013837Y003886D01*
X013682Y003731D01*
X013682Y004287D01*
X013624Y004346D01*
X013575Y004346D01*
X013575Y004408D01*
X013663Y004408D01*
X013722Y004467D01*
X013722Y004983D01*
X013663Y005041D01*
X013187Y005041D01*
X013128Y004983D01*
X013128Y004467D01*
X013187Y004408D01*
X013275Y004408D01*
X013275Y004346D01*
X013147Y004346D01*
X013089Y004287D01*
X013089Y004120D01*
X013006Y004120D01*
X013006Y004212D01*
X012947Y004271D01*
X012313Y004271D01*
X012254Y004212D01*
X012254Y003750D01*
X012140Y003750D01*
X012140Y003838D01*
X012081Y003897D01*
X011447Y003897D01*
X011417Y003867D01*
X011417Y003941D01*
X011288Y004070D01*
X011106Y004070D01*
X011076Y004040D01*
X011076Y004360D01*
X011017Y004419D01*
X010502Y004419D01*
X010443Y004360D01*
X010443Y004272D01*
X010201Y004272D01*
X010201Y004288D02*
X010443Y004288D01*
X010449Y004366D02*
X010195Y004366D01*
X009574Y004366D02*
X009160Y004366D01*
X009160Y004288D02*
X009568Y004288D01*
X009160Y004445D02*
X011165Y004445D01*
X011165Y004366D02*
X011070Y004366D01*
X011076Y004288D02*
X011198Y004288D01*
X011276Y004209D02*
X011076Y004209D01*
X011076Y004131D02*
X012254Y004131D01*
X012254Y004209D02*
X011493Y004209D01*
X011571Y004288D02*
X013089Y004288D01*
X013089Y004209D02*
X013006Y004209D01*
X013006Y004131D02*
X013089Y004131D01*
X013275Y004366D02*
X011605Y004366D01*
X011629Y004445D02*
X013150Y004445D01*
X013128Y004523D02*
X011708Y004523D01*
X011786Y004602D02*
X013128Y004602D01*
X013128Y004680D02*
X011865Y004680D01*
X011943Y004759D02*
X013128Y004759D01*
X013128Y004837D02*
X012022Y004837D01*
X012100Y004916D02*
X013128Y004916D01*
X013140Y004994D02*
X012115Y004994D01*
X012115Y005073D02*
X012538Y005073D01*
X012477Y005151D02*
X012115Y005151D01*
X012115Y005230D02*
X012477Y005230D01*
X012477Y005308D02*
X012115Y005308D01*
X012115Y005387D02*
X012548Y005387D01*
X012846Y005387D02*
X013022Y005387D01*
X013100Y005465D02*
X012115Y005465D01*
X011815Y005465D02*
X010635Y005465D01*
X010635Y005387D02*
X011815Y005387D01*
X011815Y005308D02*
X010635Y005308D01*
X010635Y005230D02*
X011815Y005230D01*
X011815Y005151D02*
X010635Y005151D01*
X010635Y005073D02*
X011815Y005073D01*
X011754Y004994D02*
X010635Y004994D01*
X010635Y004916D02*
X011676Y004916D01*
X011597Y004837D02*
X009160Y004837D01*
X009160Y004759D02*
X011519Y004759D01*
X011440Y004680D02*
X009160Y004680D01*
X009160Y004602D02*
X011263Y004602D01*
X011184Y004523D02*
X009160Y004523D01*
X009160Y003895D02*
X009568Y003895D01*
X009615Y003738D02*
X009160Y003738D01*
X009157Y003660D02*
X009568Y003660D01*
X009160Y003817D02*
X010853Y003817D01*
X011076Y004052D02*
X011088Y004052D01*
X011306Y004052D02*
X012254Y004052D01*
X012254Y003974D02*
X011384Y003974D01*
X011417Y003895D02*
X011446Y003895D01*
X012082Y003895D02*
X012254Y003895D01*
X012254Y003817D02*
X012140Y003817D01*
X012140Y003424D02*
X012254Y003424D01*
X012254Y003346D02*
X012124Y003346D01*
X012254Y003267D02*
X011076Y003267D01*
X011076Y003346D02*
X011404Y003346D01*
X011050Y003189D02*
X012254Y003189D01*
X012289Y002953D02*
X011836Y002953D01*
X011890Y002875D02*
X013463Y002875D01*
X013463Y002953D02*
X012971Y002953D01*
X013006Y003032D02*
X013463Y003032D01*
X013463Y002796D02*
X012963Y002796D01*
X013041Y002718D02*
X014379Y002718D01*
X014352Y002639D02*
X013120Y002639D01*
X013198Y002561D02*
X014352Y002561D01*
X014378Y002482D02*
X013277Y002482D01*
X013009Y002325D02*
X012756Y002325D01*
X012756Y002247D02*
X013088Y002247D01*
X013166Y002168D02*
X012756Y002168D01*
X012756Y002090D02*
X015447Y002090D01*
X015447Y002011D02*
X012718Y002011D01*
X012741Y001933D02*
X015447Y001933D01*
X015447Y001854D02*
X014191Y001854D01*
X014163Y001882D02*
X013981Y001882D01*
X013852Y001754D01*
X013852Y001750D01*
X013829Y001750D01*
X013829Y001858D01*
X013770Y001916D01*
X013293Y001916D01*
X013235Y001858D01*
X013235Y001342D01*
X013293Y001283D01*
X013770Y001283D01*
X013829Y001342D01*
X013829Y001450D01*
X013973Y001450D01*
X013981Y001442D01*
X014163Y001442D01*
X014292Y001571D01*
X014292Y001754D01*
X014163Y001882D01*
X014270Y001776D02*
X015447Y001776D01*
X015447Y001697D02*
X014292Y001697D01*
X014292Y001619D02*
X015447Y001619D01*
X015447Y001540D02*
X014261Y001540D01*
X014183Y001462D02*
X015447Y001462D01*
X015447Y001383D02*
X013829Y001383D01*
X013791Y001305D02*
X015447Y001305D01*
X015447Y001226D02*
X005412Y001226D01*
X005412Y001148D02*
X015447Y001148D01*
X015447Y001069D02*
X005412Y001069D01*
X005412Y001305D02*
X012603Y001305D01*
X012566Y001383D02*
X007041Y001383D01*
X006652Y001383D02*
X005399Y001383D01*
X005378Y001462D02*
X006462Y001462D01*
X006367Y001540D02*
X005357Y001540D01*
X005336Y001619D02*
X006288Y001619D01*
X006220Y001697D02*
X005315Y001697D01*
X005292Y001776D02*
X006187Y001776D01*
X006155Y001854D02*
X005247Y001854D01*
X005202Y001933D02*
X006122Y001933D01*
X006116Y002011D02*
X005156Y002011D01*
X005111Y002090D02*
X006116Y002090D01*
X006116Y002168D02*
X005063Y002168D01*
X004984Y002247D02*
X006119Y002247D01*
X006152Y002325D02*
X004906Y002325D01*
X004827Y002404D02*
X006184Y002404D01*
X006217Y002482D02*
X004748Y002482D01*
X004612Y002561D02*
X006281Y002561D01*
X006359Y002639D02*
X004476Y002639D01*
X004319Y002718D02*
X006445Y002718D01*
X006635Y002796D02*
X004026Y002796D01*
X003837Y003346D02*
X004370Y003346D01*
X004361Y003424D02*
X003837Y003424D01*
X003837Y003503D02*
X004361Y003503D01*
X004361Y003581D02*
X003837Y003581D01*
X003837Y003660D02*
X004361Y003660D01*
X004361Y003738D02*
X003837Y003738D01*
X003837Y003817D02*
X004361Y003817D01*
X004361Y003895D02*
X003837Y003895D01*
X003837Y003974D02*
X004361Y003974D01*
X004361Y004052D02*
X003837Y004052D01*
X003837Y004131D02*
X004361Y004131D01*
X004361Y004209D02*
X003837Y004209D01*
X003837Y004288D02*
X004361Y004288D01*
X004391Y004366D02*
X003837Y004366D01*
X003837Y004445D02*
X007381Y004445D01*
X007381Y004366D02*
X007004Y004366D01*
X007033Y004288D02*
X007390Y004288D01*
X008250Y005230D02*
X008250Y005230D01*
X008250Y005308D02*
X008250Y005308D01*
X008250Y005387D02*
X008250Y005387D01*
X008250Y005465D02*
X008250Y005465D01*
X008250Y005544D02*
X008250Y005544D01*
X008250Y005622D02*
X008250Y005622D01*
X008250Y005701D02*
X008250Y005701D01*
X008250Y005779D02*
X008250Y005779D01*
X006012Y004366D02*
X005382Y004366D01*
X005411Y004288D02*
X005983Y004288D01*
X005983Y004209D02*
X005411Y004209D01*
X005411Y004131D02*
X005983Y004131D01*
X005983Y004052D02*
X005411Y004052D01*
X005411Y003660D02*
X005983Y003660D01*
X005983Y003581D02*
X005411Y003581D01*
X005411Y003503D02*
X005983Y003503D01*
X005983Y003424D02*
X005411Y003424D01*
X005403Y003346D02*
X005991Y003346D01*
X008285Y003346D02*
X009040Y003346D01*
X009040Y003424D02*
X008921Y003424D01*
X009000Y003503D02*
X009040Y003503D01*
X009078Y003581D02*
X009117Y003581D01*
X009093Y003267D02*
X008419Y003267D01*
X008431Y003189D02*
X009594Y003189D01*
X009568Y003267D02*
X009426Y003267D01*
X009735Y003110D02*
X008431Y003110D01*
X008431Y003032D02*
X009735Y003032D01*
X009735Y002953D02*
X008431Y002953D01*
X008431Y002875D02*
X009735Y002875D01*
X009735Y002796D02*
X008431Y002796D01*
X008410Y002718D02*
X009735Y002718D01*
X009735Y002639D02*
X008434Y002639D01*
X008471Y002561D02*
X009735Y002561D01*
X009735Y002482D02*
X008471Y002482D01*
X008471Y002404D02*
X009735Y002404D01*
X009735Y002325D02*
X008175Y002325D01*
X008471Y002247D02*
X009735Y002247D01*
X009735Y002168D02*
X008471Y002168D01*
X008471Y002090D02*
X009735Y002090D01*
X009735Y002011D02*
X008430Y002011D01*
X011833Y001619D02*
X012566Y001619D01*
X012553Y001697D02*
X011890Y001697D01*
X012756Y002404D02*
X012931Y002404D01*
X012852Y002482D02*
X012756Y002482D01*
X012774Y002561D02*
X012720Y002561D01*
X013159Y001854D02*
X013235Y001854D01*
X013235Y001776D02*
X013159Y001776D01*
X013159Y001697D02*
X013235Y001697D01*
X013235Y001619D02*
X013159Y001619D01*
X013159Y001540D02*
X013235Y001540D01*
X013235Y001462D02*
X013159Y001462D01*
X013159Y001383D02*
X013235Y001383D01*
X013272Y001305D02*
X013122Y001305D01*
X013829Y001776D02*
X013874Y001776D01*
X013829Y001854D02*
X013953Y001854D01*
X014766Y002482D02*
X015447Y002482D01*
X015447Y002561D02*
X014792Y002561D01*
X014792Y002639D02*
X015447Y002639D01*
X015447Y002718D02*
X014765Y002718D01*
X014722Y002796D02*
X015447Y002796D01*
X015447Y002875D02*
X014722Y002875D01*
X014722Y002953D02*
X015447Y002953D01*
X015447Y003032D02*
X014665Y003032D01*
X014586Y003110D02*
X015447Y003110D01*
X015447Y003189D02*
X014508Y003189D01*
X014689Y003381D02*
X014715Y003355D01*
X014747Y003336D01*
X014782Y003327D01*
X015036Y003327D01*
X015036Y003623D01*
X014661Y003623D01*
X014661Y003448D01*
X014670Y003412D01*
X014689Y003381D01*
X014667Y003424D02*
X014053Y003424D01*
X014056Y003346D02*
X014730Y003346D01*
X014661Y003503D02*
X013878Y003503D01*
X013957Y003581D02*
X014661Y003581D01*
X014661Y003703D02*
X015036Y003703D01*
X015036Y004000D01*
X014782Y004000D01*
X014747Y003991D01*
X014715Y003972D01*
X014689Y003946D01*
X014670Y003914D01*
X014661Y003879D01*
X014661Y003703D01*
X014661Y003738D02*
X014430Y003738D01*
X014430Y003660D02*
X015036Y003660D01*
X015036Y003738D02*
X015116Y003738D01*
X015116Y003817D02*
X015036Y003817D01*
X015036Y003895D02*
X015116Y003895D01*
X015116Y003974D02*
X015036Y003974D01*
X015036Y004075D02*
X014782Y004075D01*
X014747Y004084D01*
X014715Y004103D01*
X014689Y004129D01*
X014670Y004161D01*
X014661Y004196D01*
X014661Y004371D01*
X015036Y004371D01*
X015116Y004371D01*
X015116Y004451D01*
X015036Y004451D01*
X015036Y004371D01*
X015036Y004075D01*
X015036Y004131D02*
X015116Y004131D01*
X015116Y004209D02*
X015036Y004209D01*
X015036Y004288D02*
X015116Y004288D01*
X015116Y004366D02*
X015036Y004366D01*
X015036Y004445D02*
X014369Y004445D01*
X014391Y004467D02*
X014391Y004983D01*
X014332Y005041D01*
X014285Y005041D01*
X014285Y005126D01*
X014355Y005196D01*
X014355Y005379D01*
X014226Y005507D01*
X014043Y005507D01*
X013915Y005379D01*
X013915Y005196D01*
X013985Y005126D01*
X013985Y005041D01*
X013856Y005041D01*
X013797Y004983D01*
X013797Y004467D01*
X013856Y004408D01*
X014332Y004408D01*
X014391Y004467D01*
X014391Y004523D02*
X014661Y004523D01*
X014661Y004451D02*
X014661Y004627D01*
X014670Y004662D01*
X014689Y004694D01*
X014715Y004720D01*
X014747Y004739D01*
X014782Y004748D01*
X015036Y004748D01*
X015036Y004451D01*
X014661Y004451D01*
X014661Y004366D02*
X013575Y004366D01*
X013682Y004288D02*
X013837Y004288D01*
X013837Y004209D02*
X013682Y004209D01*
X013682Y004131D02*
X013837Y004131D01*
X013837Y004052D02*
X013682Y004052D01*
X013682Y003974D02*
X013837Y003974D01*
X013837Y003895D02*
X013682Y003895D01*
X013682Y003817D02*
X013768Y003817D01*
X013689Y003738D02*
X013682Y003738D01*
X014056Y003267D02*
X015447Y003267D01*
X015447Y003346D02*
X015423Y003346D01*
X015116Y003346D02*
X015036Y003346D01*
X015036Y003424D02*
X015116Y003424D01*
X015116Y003503D02*
X015036Y003503D01*
X015036Y003581D02*
X015116Y003581D01*
X015435Y003974D02*
X015447Y003974D01*
X015447Y004052D02*
X014430Y004052D01*
X014430Y003974D02*
X014718Y003974D01*
X014665Y003895D02*
X014430Y003895D01*
X014430Y003817D02*
X014661Y003817D01*
X014687Y004131D02*
X014430Y004131D01*
X014430Y004209D02*
X014661Y004209D01*
X014661Y004288D02*
X014430Y004288D01*
X014391Y004602D02*
X014661Y004602D01*
X014681Y004680D02*
X014391Y004680D01*
X014391Y004759D02*
X015447Y004759D01*
X015447Y004837D02*
X014391Y004837D01*
X014391Y004916D02*
X015447Y004916D01*
X015447Y004994D02*
X014379Y004994D01*
X014285Y005073D02*
X015447Y005073D01*
X015447Y005151D02*
X014310Y005151D01*
X014355Y005230D02*
X015447Y005230D01*
X015447Y005308D02*
X014355Y005308D01*
X014346Y005387D02*
X015447Y005387D01*
X015447Y005465D02*
X014268Y005465D01*
X014001Y005465D02*
X013525Y005465D01*
X013446Y005387D02*
X013923Y005387D01*
X013915Y005308D02*
X013368Y005308D01*
X013289Y005230D02*
X013915Y005230D01*
X013959Y005151D02*
X013211Y005151D01*
X012856Y005073D02*
X013985Y005073D01*
X013809Y004994D02*
X013710Y004994D01*
X013722Y004916D02*
X013797Y004916D01*
X013797Y004837D02*
X013722Y004837D01*
X013722Y004759D02*
X013797Y004759D01*
X013797Y004680D02*
X013722Y004680D01*
X013722Y004602D02*
X013797Y004602D01*
X013797Y004523D02*
X013722Y004523D01*
X013700Y004445D02*
X013819Y004445D01*
X015036Y004523D02*
X015116Y004523D01*
X015116Y004445D02*
X015447Y004445D01*
X015116Y004602D02*
X015036Y004602D01*
X015036Y004680D02*
X015116Y004680D01*
X014397Y002875D02*
X014056Y002875D01*
X014056Y002796D02*
X014422Y002796D01*
D27*
X014572Y002600D03*
X014072Y001662D03*
X014822Y001537D03*
X016260Y001662D03*
X016197Y002662D03*
X016635Y004100D03*
X015072Y004412D03*
X014135Y005287D03*
X012697Y005225D03*
X011385Y004412D03*
X011197Y003850D03*
X010697Y003475D03*
X009260Y003412D03*
X009072Y001912D03*
X005697Y004787D03*
X004072Y006975D03*
X005760Y007162D03*
X006635Y007287D03*
X007885Y007600D03*
X008260Y007600D03*
X008385Y007975D03*
X007822Y008975D03*
X009572Y007600D03*
X009572Y006725D03*
X008635Y006412D03*
X010885Y005912D03*
X013822Y006787D03*
X014697Y006850D03*
X016135Y006662D03*
X017260Y007287D03*
X017510Y006975D03*
X016635Y009037D03*
X015947Y009537D03*
X016760Y009850D03*
X018385Y009912D03*
X018760Y009287D03*
X021135Y008225D03*
X020697Y007225D03*
X021697Y007162D03*
X024822Y007162D03*
X028072Y007162D03*
X028072Y004537D03*
X024822Y004537D03*
X021697Y004537D03*
X021697Y001725D03*
X024822Y001725D03*
X024322Y009350D03*
X022635Y009787D03*
X021885Y009725D03*
X024822Y010725D03*
X024322Y012162D03*
X024822Y012787D03*
X022572Y012412D03*
X020822Y012287D03*
X019572Y012537D03*
X017885Y011287D03*
X018635Y011225D03*
X016510Y011662D03*
X015260Y013225D03*
X017947Y015475D03*
X018135Y016912D03*
X020135Y016912D03*
X022447Y016912D03*
X024822Y016912D03*
X024822Y014725D03*
X027760Y014725D03*
X027760Y012787D03*
X021322Y014412D03*
X014572Y010100D03*
X013322Y010162D03*
X012010Y010100D03*
X012260Y009037D03*
X009197Y011162D03*
X008947Y010537D03*
X008760Y011850D03*
X008010Y013850D03*
X007197Y014787D03*
X005947Y015970D03*
X005572Y016912D03*
X004447Y014912D03*
X004697Y013787D03*
X005322Y012287D03*
X004260Y010225D03*
X004260Y009350D03*
X011947Y011287D03*
X009322Y016600D03*
X009572Y017725D03*
D28*
X010885Y017756D02*
X025858Y017756D01*
X025899Y017854D02*
X010885Y017854D01*
X010885Y017953D02*
X025989Y017953D01*
X025904Y017867D02*
X025791Y017595D01*
X025791Y017301D01*
X025904Y017028D01*
X026112Y016820D01*
X026384Y016707D01*
X026679Y016707D01*
X026951Y016820D01*
X027159Y017028D01*
X027272Y017301D01*
X027272Y017595D01*
X027159Y017867D01*
X026951Y018076D01*
X026679Y018188D01*
X026384Y018188D01*
X026112Y018076D01*
X025904Y017867D01*
X025817Y017657D02*
X010885Y017657D01*
X010885Y017559D02*
X025791Y017559D01*
X025791Y017460D02*
X010885Y017460D01*
X010885Y017362D02*
X025791Y017362D01*
X025806Y017263D02*
X010885Y017263D01*
X010885Y017165D02*
X025847Y017165D01*
X025888Y017066D02*
X010885Y017066D01*
X010885Y016968D02*
X025964Y016968D01*
X026063Y016869D02*
X010885Y016869D01*
X010885Y016771D02*
X026231Y016771D01*
X026833Y016771D02*
X029217Y016771D01*
X029016Y016825D02*
X029454Y016707D01*
X029531Y016707D01*
X029531Y011190D01*
X029515Y011217D01*
X029461Y011288D01*
X029399Y011350D01*
X029329Y011404D01*
X029252Y011448D01*
X029170Y011482D01*
X029085Y011505D01*
X029003Y011516D01*
X029003Y010892D01*
X028903Y010892D01*
X028903Y011516D01*
X028821Y011505D01*
X028735Y011482D01*
X028654Y011448D01*
X028577Y011404D01*
X028507Y011350D01*
X028444Y011288D01*
X028390Y011217D01*
X028346Y011141D01*
X028312Y011059D01*
X028289Y010973D01*
X028279Y010891D01*
X028903Y010891D01*
X028903Y010791D01*
X029003Y010791D01*
X029003Y010167D01*
X029085Y010178D01*
X029170Y010201D01*
X029252Y010235D01*
X029329Y010279D01*
X029399Y010333D01*
X029461Y010395D01*
X029515Y010466D01*
X029531Y010493D01*
X029531Y009182D01*
X029515Y009210D01*
X029461Y009280D01*
X029399Y009342D01*
X029329Y009396D01*
X029252Y009440D01*
X029170Y009474D01*
X029085Y009497D01*
X029003Y009508D01*
X029003Y008884D01*
X028903Y008884D01*
X028903Y009508D01*
X028821Y009497D01*
X028735Y009474D01*
X028654Y009440D01*
X028577Y009396D01*
X028507Y009342D01*
X028444Y009280D01*
X028390Y009210D01*
X028346Y009133D01*
X028312Y009051D01*
X028289Y008966D01*
X028279Y008884D01*
X028903Y008884D01*
X028903Y008784D01*
X028279Y008784D01*
X028289Y008702D01*
X028312Y008616D01*
X028346Y008535D01*
X028390Y008458D01*
X028444Y008388D01*
X028507Y008325D01*
X028577Y008271D01*
X028654Y008227D01*
X028735Y008193D01*
X028821Y008170D01*
X028903Y008159D01*
X028903Y008784D01*
X029003Y008784D01*
X029003Y008159D01*
X029085Y008170D01*
X029170Y008193D01*
X029252Y008227D01*
X029329Y008271D01*
X029399Y008325D01*
X029461Y008388D01*
X029515Y008458D01*
X029531Y008485D01*
X029531Y002825D01*
X029432Y002820D01*
X028976Y002668D01*
X028575Y002404D01*
X028575Y002404D01*
X028255Y002044D01*
X028040Y001615D01*
X028040Y001615D01*
X027943Y001144D01*
X027947Y001062D01*
X015635Y001062D01*
X015635Y002127D01*
X015888Y002127D01*
X016193Y002432D01*
X016292Y002432D01*
X016427Y002567D01*
X016427Y002758D01*
X016292Y002892D01*
X016102Y002892D01*
X015967Y002758D01*
X015967Y002659D01*
X015756Y002447D01*
X015635Y002447D01*
X015635Y003694D01*
X015647Y003691D01*
X015894Y003691D01*
X015894Y003989D01*
X015991Y003989D01*
X015991Y004086D01*
X015894Y004086D01*
X015894Y004384D01*
X015647Y004384D01*
X015635Y004381D01*
X015635Y005725D01*
X013798Y005725D01*
X014693Y006620D01*
X014792Y006620D01*
X014927Y006755D01*
X014927Y006945D01*
X014792Y007080D01*
X014602Y007080D01*
X014467Y006945D01*
X014467Y006846D01*
X013346Y005725D01*
X012125Y005725D01*
X012125Y006101D01*
X012144Y006120D01*
X012144Y006190D01*
X012243Y006190D01*
X012243Y006088D01*
X012307Y006023D01*
X012792Y006023D01*
X012857Y006088D01*
X012857Y006612D01*
X012792Y006676D01*
X012307Y006676D01*
X012243Y006612D01*
X012243Y006510D01*
X012144Y006510D01*
X012144Y006566D01*
X012079Y006630D01*
X011869Y006630D01*
X011869Y006795D01*
X011951Y006877D01*
X012243Y006877D01*
X012243Y006775D01*
X012307Y006711D01*
X012792Y006711D01*
X012857Y006775D01*
X012857Y007252D01*
X012912Y007252D01*
X012912Y006775D01*
X012977Y006711D01*
X013059Y006711D01*
X013059Y006676D01*
X012977Y006676D01*
X012912Y006612D01*
X012912Y006088D01*
X012977Y006023D01*
X013462Y006023D01*
X013526Y006088D01*
X013526Y006612D01*
X013462Y006676D01*
X013379Y006676D01*
X013379Y006711D01*
X013462Y006711D01*
X013526Y006775D01*
X013526Y006857D01*
X013592Y006791D01*
X013592Y006692D01*
X013727Y006557D01*
X013917Y006557D01*
X014052Y006692D01*
X014052Y006883D01*
X013917Y007017D01*
X013818Y007017D01*
X013638Y007197D01*
X013526Y007197D01*
X013526Y007252D01*
X016388Y007252D01*
X016874Y007738D01*
X016967Y007831D01*
X016967Y007959D01*
X017159Y007959D01*
X017159Y007851D01*
X016834Y007526D01*
X016787Y007479D01*
X016787Y007479D01*
X016787Y007479D01*
X016787Y007413D01*
X016784Y006544D01*
X016784Y006478D01*
X016784Y006412D01*
X016784Y006412D01*
X016784Y006412D01*
X016831Y006365D01*
X016877Y006318D01*
X016878Y006318D01*
X016975Y006221D01*
X017068Y006127D01*
X019826Y006127D01*
X020693Y006995D01*
X020792Y006995D01*
X020927Y007130D01*
X020927Y007320D01*
X020792Y007455D01*
X020602Y007455D01*
X020467Y007320D01*
X020467Y007221D01*
X019693Y006447D01*
X018521Y006447D01*
X018670Y006596D01*
X018670Y007541D01*
X018576Y007635D01*
X018503Y007708D01*
X018503Y007923D01*
X018519Y007919D01*
X018599Y007919D01*
X018678Y007919D01*
X018716Y007929D01*
X018751Y007949D01*
X018761Y007959D01*
X018960Y007959D01*
X019024Y008023D01*
X019024Y008104D01*
X019165Y008104D01*
X019205Y008064D01*
X019689Y008064D01*
X019754Y008128D01*
X019754Y008652D01*
X019703Y008704D01*
X019736Y008723D01*
X019764Y008751D01*
X019784Y008785D01*
X019794Y008823D01*
X019794Y009011D01*
X019495Y009011D01*
X019495Y009108D01*
X019399Y009108D01*
X019399Y009426D01*
X019249Y009426D01*
X019326Y009502D01*
X019693Y009502D01*
X019975Y009221D01*
X019975Y008721D01*
X020068Y008627D01*
X020631Y008065D01*
X020969Y008065D01*
X021039Y007995D01*
X021230Y007995D01*
X021365Y008130D01*
X021365Y008320D01*
X021230Y008455D01*
X021039Y008455D01*
X020969Y008385D01*
X020763Y008385D01*
X020295Y008854D01*
X020295Y009354D01*
X019920Y009729D01*
X019826Y009822D01*
X019193Y009822D01*
X019006Y009635D01*
X018920Y009549D01*
X018920Y010104D01*
X018826Y010197D01*
X018807Y010216D01*
X018854Y010216D01*
X018854Y010561D01*
X018854Y010561D01*
X018854Y010906D01*
X018775Y010906D01*
X018759Y010902D01*
X018759Y011024D01*
X018865Y011130D01*
X018865Y011320D01*
X018730Y011455D01*
X018539Y011455D01*
X018405Y011320D01*
X018405Y011130D01*
X018439Y011096D01*
X018439Y010866D01*
X018237Y010866D01*
X018215Y010844D01*
X018192Y010866D01*
X017991Y010866D01*
X017991Y011068D01*
X018115Y011192D01*
X018115Y011383D01*
X018107Y011390D01*
X018107Y015310D01*
X018177Y015380D01*
X018177Y015570D01*
X018042Y015705D01*
X017852Y015705D01*
X017717Y015570D01*
X017717Y015380D01*
X017787Y015310D01*
X017787Y011515D01*
X017719Y011447D01*
X016620Y011447D01*
X016740Y011567D01*
X016740Y011758D01*
X016670Y011828D01*
X016670Y012916D01*
X016576Y013010D01*
X016201Y013385D01*
X015425Y013385D01*
X015355Y013455D01*
X015164Y013455D01*
X015030Y013320D01*
X015030Y013130D01*
X015164Y012995D01*
X015355Y012995D01*
X015425Y013065D01*
X016068Y013065D01*
X016350Y012784D01*
X016350Y011828D01*
X016280Y011758D01*
X016280Y011567D01*
X016399Y011447D01*
X012881Y011447D01*
X012787Y011354D01*
X012787Y011354D01*
X012193Y010760D01*
X012100Y010666D01*
X012100Y010330D01*
X011914Y010330D01*
X011844Y010260D01*
X011443Y010260D01*
X011350Y010166D01*
X011101Y009918D01*
X011101Y010840D01*
X011388Y011127D01*
X011782Y011127D01*
X011852Y011057D01*
X012042Y011057D01*
X012177Y011192D01*
X012177Y011383D01*
X012042Y011517D01*
X011852Y011517D01*
X011782Y011447D01*
X011256Y011447D01*
X011162Y011354D01*
X010885Y011076D01*
X010885Y018479D01*
X027956Y018479D01*
X027956Y018205D01*
X028074Y017766D01*
X028301Y017373D01*
X028622Y017052D01*
X028622Y017052D01*
X029016Y016825D01*
X029016Y016825D01*
X028938Y016869D02*
X027001Y016869D01*
X027099Y016968D02*
X028768Y016968D01*
X028608Y017066D02*
X027175Y017066D01*
X027216Y017165D02*
X028509Y017165D01*
X028411Y017263D02*
X027257Y017263D01*
X027272Y017362D02*
X028312Y017362D01*
X028301Y017373D02*
X028301Y017373D01*
X028251Y017460D02*
X027272Y017460D01*
X027272Y017559D02*
X028194Y017559D01*
X028137Y017657D02*
X027246Y017657D01*
X027206Y017756D02*
X028080Y017756D01*
X028074Y017766D02*
X028074Y017766D01*
X028050Y017854D02*
X027165Y017854D01*
X027074Y017953D02*
X028024Y017953D01*
X027998Y018051D02*
X026975Y018051D01*
X026772Y018150D02*
X027971Y018150D01*
X027956Y018248D02*
X010885Y018248D01*
X010885Y018150D02*
X026292Y018150D01*
X026088Y018051D02*
X010885Y018051D01*
X010885Y018347D02*
X027956Y018347D01*
X027956Y018445D02*
X010885Y018445D01*
X010885Y016672D02*
X029531Y016672D01*
X029531Y016574D02*
X010885Y016574D01*
X010885Y016475D02*
X029531Y016475D01*
X029531Y016377D02*
X010885Y016377D01*
X010885Y016278D02*
X029531Y016278D01*
X029531Y016180D02*
X010885Y016180D01*
X010885Y016081D02*
X029531Y016081D01*
X029531Y015983D02*
X010885Y015983D01*
X010885Y015884D02*
X029531Y015884D01*
X029531Y015786D02*
X010885Y015786D01*
X010885Y015687D02*
X017834Y015687D01*
X017736Y015589D02*
X010885Y015589D01*
X010885Y015490D02*
X017717Y015490D01*
X017717Y015392D02*
X010885Y015392D01*
X010885Y015293D02*
X017787Y015293D01*
X017787Y015195D02*
X010885Y015195D01*
X010885Y015096D02*
X017787Y015096D01*
X017787Y014998D02*
X010885Y014998D01*
X010885Y014899D02*
X017787Y014899D01*
X017787Y014801D02*
X010885Y014801D01*
X010885Y014702D02*
X017787Y014702D01*
X017787Y014604D02*
X010885Y014604D01*
X010885Y014505D02*
X017787Y014505D01*
X017787Y014407D02*
X010885Y014407D01*
X010885Y014308D02*
X017787Y014308D01*
X017787Y014210D02*
X010885Y014210D01*
X010885Y014111D02*
X017787Y014111D01*
X017787Y014013D02*
X010885Y014013D01*
X010885Y013914D02*
X017787Y013914D01*
X017787Y013816D02*
X010885Y013816D01*
X010885Y013717D02*
X017787Y013717D01*
X017787Y013619D02*
X010885Y013619D01*
X010885Y013520D02*
X017787Y013520D01*
X017787Y013422D02*
X015388Y013422D01*
X015260Y013225D02*
X016135Y013225D01*
X016510Y012850D01*
X016510Y011662D01*
X016740Y011649D02*
X017787Y011649D01*
X017787Y011747D02*
X016740Y011747D01*
X016670Y011846D02*
X017787Y011846D01*
X017787Y011944D02*
X016670Y011944D01*
X016670Y012043D02*
X017787Y012043D01*
X017787Y012141D02*
X016670Y012141D01*
X016670Y012240D02*
X017787Y012240D01*
X017787Y012338D02*
X016670Y012338D01*
X016670Y012437D02*
X017787Y012437D01*
X017787Y012535D02*
X016670Y012535D01*
X016670Y012634D02*
X017787Y012634D01*
X017787Y012732D02*
X016670Y012732D01*
X016670Y012831D02*
X017787Y012831D01*
X017787Y012929D02*
X016656Y012929D01*
X016558Y013028D02*
X017787Y013028D01*
X017787Y013126D02*
X016459Y013126D01*
X016361Y013225D02*
X017787Y013225D01*
X017787Y013323D02*
X016262Y013323D01*
X016105Y013028D02*
X015388Y013028D01*
X015131Y013028D02*
X010885Y013028D01*
X010885Y013126D02*
X015033Y013126D01*
X015030Y013225D02*
X010885Y013225D01*
X010885Y013323D02*
X015033Y013323D01*
X015131Y013422D02*
X010885Y013422D01*
X010885Y012929D02*
X016204Y012929D01*
X016302Y012831D02*
X010885Y012831D01*
X010885Y012732D02*
X016350Y012732D01*
X016350Y012634D02*
X010885Y012634D01*
X010885Y012535D02*
X016350Y012535D01*
X016350Y012437D02*
X010885Y012437D01*
X010885Y012338D02*
X016350Y012338D01*
X016350Y012240D02*
X010885Y012240D01*
X010885Y012141D02*
X016350Y012141D01*
X016350Y012043D02*
X010885Y012043D01*
X010885Y011944D02*
X016350Y011944D01*
X016350Y011846D02*
X010885Y011846D01*
X010885Y011747D02*
X016280Y011747D01*
X016280Y011649D02*
X010885Y011649D01*
X010885Y011550D02*
X016296Y011550D01*
X016395Y011452D02*
X012108Y011452D01*
X012177Y011353D02*
X012787Y011353D01*
X012688Y011255D02*
X012177Y011255D01*
X012141Y011156D02*
X012590Y011156D01*
X012491Y011058D02*
X012043Y011058D01*
X011851Y011058D02*
X011319Y011058D01*
X011220Y010959D02*
X012393Y010959D01*
X012294Y010861D02*
X011122Y010861D01*
X011101Y010762D02*
X012196Y010762D01*
X012193Y010760D02*
X012193Y010760D01*
X012100Y010664D02*
X011101Y010664D01*
X011101Y010565D02*
X012100Y010565D01*
X012100Y010467D02*
X011101Y010467D01*
X011101Y010368D02*
X012100Y010368D01*
X011854Y010270D02*
X011101Y010270D01*
X011101Y010171D02*
X011355Y010171D01*
X011256Y010073D02*
X011101Y010073D01*
X011101Y009974D02*
X011158Y009974D01*
X011197Y009787D02*
X011510Y010100D01*
X012010Y010100D01*
X012260Y009975D02*
X012010Y009725D01*
X011697Y009725D01*
X011453Y009481D01*
X011453Y008607D01*
X011709Y008607D02*
X011709Y008934D01*
X011709Y008607D01*
X011709Y008607D01*
X011709Y008280D01*
X011797Y008280D01*
X011836Y008290D01*
X011870Y008310D01*
X011880Y008320D01*
X012079Y008320D01*
X012144Y008384D01*
X012144Y008695D01*
X012256Y008807D01*
X012355Y008807D01*
X012412Y008865D01*
X012412Y008541D01*
X012068Y008197D01*
X011193Y008197D01*
X011100Y008104D01*
X010781Y007785D01*
X010781Y006992D01*
X010751Y007022D01*
X010431Y007342D01*
X009000Y007342D01*
X009000Y007424D01*
X008935Y007489D01*
X008795Y007489D01*
X008785Y007499D01*
X008751Y007518D01*
X008713Y007529D01*
X008670Y007529D01*
X008670Y007916D01*
X008615Y007971D01*
X008615Y008070D01*
X008480Y008205D01*
X008289Y008205D01*
X008155Y008070D01*
X008155Y007931D01*
X007763Y008322D01*
X007322Y008322D01*
X007322Y008418D01*
X007794Y008418D01*
X007858Y008482D01*
X007858Y008745D01*
X007917Y008745D01*
X008052Y008880D01*
X008052Y009037D01*
X010781Y009037D01*
X010781Y008894D01*
X010571Y008894D01*
X010557Y008880D01*
X010544Y008894D01*
X010315Y008894D01*
X010250Y008830D01*
X010250Y008384D01*
X010315Y008320D01*
X010544Y008320D01*
X010557Y008333D01*
X010571Y008320D01*
X010800Y008320D01*
X010813Y008333D01*
X010827Y008320D01*
X011056Y008320D01*
X011069Y008333D01*
X011083Y008320D01*
X011311Y008320D01*
X011325Y008333D01*
X011338Y008320D01*
X011538Y008320D01*
X011548Y008310D01*
X011582Y008290D01*
X011620Y008280D01*
X011709Y008280D01*
X011709Y008607D01*
X011709Y008607D01*
X011709Y008595D02*
X011709Y008595D01*
X011709Y008497D02*
X011709Y008497D01*
X011709Y008398D02*
X011709Y008398D01*
X011709Y008300D02*
X011709Y008300D01*
X011853Y008300D02*
X012171Y008300D01*
X012144Y008398D02*
X012269Y008398D01*
X012368Y008497D02*
X012144Y008497D01*
X012144Y008595D02*
X012412Y008595D01*
X012412Y008694D02*
X012144Y008694D01*
X012241Y008792D02*
X012412Y008792D01*
X012732Y008792D02*
X014100Y008792D01*
X014100Y008729D02*
X013193Y007822D01*
X011443Y007822D01*
X011350Y007729D01*
X011101Y007480D01*
X011101Y007653D01*
X011326Y007877D01*
X012201Y007877D01*
X012638Y008315D01*
X012732Y008409D01*
X012732Y009721D01*
X012951Y009940D01*
X013219Y009940D01*
X013227Y009932D01*
X013417Y009932D01*
X013552Y010067D01*
X013552Y010258D01*
X013417Y010392D01*
X013227Y010392D01*
X013094Y010260D01*
X012818Y010260D01*
X012725Y010166D01*
X012412Y009854D01*
X012412Y009210D01*
X012355Y009267D01*
X012164Y009267D01*
X012030Y009133D01*
X012030Y009034D01*
X011890Y008894D01*
X011880Y008894D01*
X011870Y008904D01*
X011836Y008924D01*
X011797Y008934D01*
X011709Y008934D01*
X011620Y008934D01*
X011613Y008932D01*
X011613Y009415D01*
X011763Y009565D01*
X012076Y009565D01*
X012326Y009815D01*
X012420Y009909D01*
X012420Y010534D01*
X013013Y011127D01*
X017671Y011127D01*
X017671Y010902D01*
X017655Y010906D01*
X017575Y010906D01*
X017575Y010561D01*
X017575Y010216D01*
X017655Y010216D01*
X017693Y010226D01*
X017727Y010246D01*
X017737Y010256D01*
X017936Y010256D01*
X017959Y010279D01*
X017981Y010256D01*
X018183Y010256D01*
X018183Y010036D01*
X018155Y010008D01*
X018155Y009817D01*
X018289Y009682D01*
X018480Y009682D01*
X018600Y009802D01*
X018600Y009453D01*
X018530Y009383D01*
X016519Y009383D01*
X016482Y009346D02*
X016756Y009620D01*
X016855Y009620D01*
X016990Y009755D01*
X016990Y009945D01*
X016855Y010080D01*
X016664Y010080D01*
X016530Y009945D01*
X016530Y009846D01*
X016162Y009479D01*
X016162Y008721D01*
X016256Y008627D01*
X016381Y008502D01*
X016381Y008023D01*
X016446Y007959D01*
X016642Y007959D01*
X016256Y007572D01*
X013396Y007572D01*
X014326Y008502D01*
X014420Y008596D01*
X014420Y009721D01*
X014568Y009870D01*
X014667Y009870D01*
X014802Y010005D01*
X014802Y010195D01*
X014667Y010330D01*
X014477Y010330D01*
X014342Y010195D01*
X014342Y010096D01*
X014100Y009854D01*
X014100Y008729D01*
X014065Y008694D02*
X012732Y008694D01*
X012732Y008595D02*
X013966Y008595D01*
X013868Y008497D02*
X012732Y008497D01*
X012722Y008398D02*
X013769Y008398D01*
X013671Y008300D02*
X012623Y008300D01*
X012525Y008201D02*
X013572Y008201D01*
X013474Y008103D02*
X012426Y008103D01*
X012328Y008004D02*
X013375Y008004D01*
X013277Y007906D02*
X012229Y007906D01*
X012135Y008037D02*
X012572Y008475D01*
X012572Y009787D01*
X012885Y010100D01*
X013260Y010100D01*
X013322Y010162D01*
X013552Y010171D02*
X014342Y010171D01*
X014319Y010073D02*
X013552Y010073D01*
X013459Y009974D02*
X014220Y009974D01*
X014122Y009876D02*
X012887Y009876D01*
X012788Y009777D02*
X014100Y009777D01*
X014100Y009679D02*
X012732Y009679D01*
X012732Y009580D02*
X014100Y009580D01*
X014100Y009482D02*
X012732Y009482D01*
X012732Y009383D02*
X014100Y009383D01*
X014100Y009285D02*
X012732Y009285D01*
X012732Y009186D02*
X014100Y009186D01*
X014100Y009088D02*
X012732Y009088D01*
X012732Y008989D02*
X014100Y008989D01*
X014100Y008891D02*
X012732Y008891D01*
X012260Y009037D02*
X011965Y008743D01*
X011965Y008607D01*
X011709Y008694D02*
X011709Y008694D01*
X011709Y008792D02*
X011709Y008792D01*
X011709Y008891D02*
X011709Y008891D01*
X011613Y008989D02*
X011985Y008989D01*
X012030Y009088D02*
X011613Y009088D01*
X011613Y009186D02*
X012083Y009186D01*
X012412Y009285D02*
X011613Y009285D01*
X011613Y009383D02*
X012412Y009383D01*
X012412Y009482D02*
X011680Y009482D01*
X011197Y009787D02*
X011197Y008607D01*
X010941Y008607D02*
X010941Y010906D01*
X011322Y011287D01*
X011947Y011287D01*
X011786Y011452D02*
X010885Y011452D01*
X010885Y011353D02*
X011162Y011353D01*
X011063Y011255D02*
X010885Y011255D01*
X010885Y011156D02*
X010965Y011156D01*
X012260Y010600D02*
X012947Y011287D01*
X017885Y011287D01*
X017947Y011350D01*
X017947Y015475D01*
X018177Y015490D02*
X029531Y015490D01*
X029531Y015392D02*
X018177Y015392D01*
X018107Y015293D02*
X029531Y015293D01*
X029531Y015195D02*
X018107Y015195D01*
X018107Y015096D02*
X029531Y015096D01*
X029531Y014998D02*
X018107Y014998D01*
X018107Y014899D02*
X029531Y014899D01*
X029531Y014801D02*
X018107Y014801D01*
X018107Y014702D02*
X029531Y014702D01*
X029531Y014604D02*
X021456Y014604D01*
X021417Y014642D02*
X021227Y014642D01*
X021092Y014508D01*
X021092Y014317D01*
X021162Y014247D01*
X021162Y013719D01*
X021082Y013719D01*
X021031Y013668D01*
X021011Y013701D01*
X020984Y013729D01*
X020949Y013749D01*
X020911Y013759D01*
X020723Y013759D01*
X020723Y013461D01*
X020626Y013461D01*
X020626Y013364D01*
X020308Y013364D01*
X020308Y013196D01*
X020319Y013158D01*
X020338Y013123D01*
X020366Y013096D01*
X020400Y013076D01*
X020439Y013066D01*
X020626Y013066D01*
X020626Y013364D01*
X020723Y013364D01*
X020723Y013066D01*
X020911Y013066D01*
X020949Y013076D01*
X020984Y013096D01*
X021011Y013123D01*
X021031Y013157D01*
X021082Y013106D01*
X021146Y013106D01*
X021146Y012985D01*
X021064Y012985D01*
X020999Y012920D01*
X020999Y012700D01*
X019735Y012700D01*
X019667Y012767D01*
X019477Y012767D01*
X019342Y012633D01*
X019342Y012442D01*
X019477Y012307D01*
X019667Y012307D01*
X019740Y012380D01*
X020592Y012380D01*
X020592Y012192D01*
X020727Y012057D01*
X020917Y012057D01*
X020959Y012099D01*
X020959Y012028D01*
X020959Y011930D01*
X020969Y011892D01*
X020989Y011857D01*
X021017Y011829D01*
X021051Y011810D01*
X021089Y011799D01*
X021306Y011799D01*
X021306Y012028D01*
X021306Y012028D01*
X020959Y012028D01*
X021306Y012028D01*
X021306Y012028D01*
X021306Y011799D01*
X021523Y011799D01*
X021561Y011810D01*
X021595Y011829D01*
X021623Y011857D01*
X021643Y011892D01*
X021653Y011930D01*
X021653Y012028D01*
X021306Y012028D01*
X021306Y012028D01*
X021653Y012028D01*
X021653Y012127D01*
X021643Y012165D01*
X021623Y012199D01*
X021613Y012209D01*
X021613Y012408D01*
X021609Y012412D01*
X021613Y012416D01*
X021613Y012636D01*
X021685Y012636D01*
X021850Y012471D01*
X021850Y011041D01*
X021693Y010885D01*
X021671Y010885D01*
X021671Y010967D01*
X021606Y011032D01*
X021082Y011032D01*
X021031Y010980D01*
X021011Y011014D01*
X020984Y011042D01*
X020949Y011062D01*
X020911Y011072D01*
X020723Y011072D01*
X020723Y010773D01*
X020626Y010773D01*
X020626Y010676D01*
X020723Y010676D01*
X020723Y010378D01*
X020911Y010378D01*
X020949Y010388D01*
X020984Y010408D01*
X021011Y010436D01*
X021031Y010469D01*
X021082Y010418D01*
X021184Y010418D01*
X021184Y010235D01*
X021126Y010235D01*
X021062Y010170D01*
X021062Y009971D01*
X021052Y009961D01*
X021032Y009927D01*
X021022Y009888D01*
X021022Y009790D01*
X021369Y009790D01*
X021022Y009790D01*
X021022Y009691D01*
X021032Y009653D01*
X021052Y009619D01*
X021062Y009609D01*
X021062Y009459D01*
X021052Y009449D01*
X021032Y009415D01*
X021022Y009377D01*
X021022Y009278D01*
X021022Y009180D01*
X021032Y009142D01*
X021052Y009107D01*
X021080Y009079D01*
X021114Y009060D01*
X021152Y009049D01*
X021369Y009049D01*
X021585Y009049D01*
X021623Y009060D01*
X021658Y009079D01*
X021685Y009107D01*
X021705Y009142D01*
X021715Y009180D01*
X021715Y009278D01*
X021369Y009278D01*
X021369Y009278D01*
X021715Y009278D01*
X021715Y009374D01*
X021760Y009374D01*
X021881Y009495D01*
X021980Y009495D01*
X022115Y009630D01*
X022115Y009820D01*
X021980Y009955D01*
X021789Y009955D01*
X021715Y009881D01*
X021715Y009888D01*
X021705Y009927D01*
X021685Y009961D01*
X021675Y009971D01*
X021675Y010170D01*
X021611Y010235D01*
X021504Y010235D01*
X021504Y010418D01*
X021606Y010418D01*
X021671Y010482D01*
X021671Y010565D01*
X021826Y010565D01*
X021920Y010659D01*
X022170Y010909D01*
X022170Y012604D01*
X022076Y012697D01*
X021817Y012956D01*
X021577Y012956D01*
X021548Y012985D01*
X021466Y012985D01*
X021466Y013106D01*
X021606Y013106D01*
X021671Y013170D01*
X021671Y013655D01*
X021606Y013719D01*
X021482Y013719D01*
X021482Y014247D01*
X021552Y014317D01*
X021552Y014508D01*
X021417Y014642D01*
X021552Y014505D02*
X029531Y014505D01*
X029531Y014407D02*
X021552Y014407D01*
X021543Y014308D02*
X029531Y014308D01*
X029531Y014210D02*
X021482Y014210D01*
X021482Y014111D02*
X029531Y014111D01*
X029531Y014013D02*
X021482Y014013D01*
X021482Y013914D02*
X029531Y013914D01*
X029531Y013816D02*
X021482Y013816D01*
X021608Y013717D02*
X029531Y013717D01*
X029531Y013619D02*
X021671Y013619D01*
X021671Y013520D02*
X029531Y013520D01*
X029531Y013422D02*
X021671Y013422D01*
X021671Y013323D02*
X029531Y013323D01*
X029531Y013225D02*
X024083Y013225D01*
X024077Y013228D02*
X024039Y013239D01*
X023870Y013239D01*
X023870Y012920D01*
X023774Y012920D01*
X023774Y012824D01*
X023475Y012824D01*
X023475Y012636D01*
X023485Y012598D01*
X023505Y012563D01*
X023533Y012535D01*
X023394Y012535D01*
X023394Y012615D02*
X023404Y012625D01*
X023424Y012659D01*
X023434Y012697D01*
X023434Y012796D01*
X023434Y012894D01*
X023424Y012933D01*
X023404Y012967D01*
X023377Y012995D01*
X023342Y013014D01*
X023304Y013025D01*
X023088Y013025D01*
X023088Y012796D01*
X023434Y012796D01*
X023088Y012796D01*
X023088Y012796D01*
X023088Y012796D01*
X023088Y013025D01*
X022871Y013025D01*
X022833Y013014D01*
X022799Y012995D01*
X022771Y012967D01*
X022751Y012933D01*
X022741Y012894D01*
X022741Y012796D01*
X023088Y012796D01*
X023088Y012796D01*
X022741Y012796D01*
X022741Y012700D01*
X022633Y012700D01*
X022576Y012642D01*
X022477Y012642D01*
X022342Y012508D01*
X022342Y012317D01*
X022477Y012182D01*
X022667Y012182D01*
X022781Y012296D01*
X022781Y012160D01*
X022784Y012156D01*
X022781Y012152D01*
X022781Y011904D01*
X022845Y011839D01*
X023330Y011839D01*
X023394Y011904D01*
X023394Y012124D01*
X023515Y012124D01*
X023515Y011941D01*
X023580Y011876D01*
X024064Y011876D01*
X024129Y011941D01*
X024129Y012002D01*
X024157Y012002D01*
X024227Y011932D01*
X024417Y011932D01*
X024552Y012067D01*
X024552Y012258D01*
X024417Y012392D01*
X024227Y012392D01*
X024157Y012322D01*
X024129Y012322D01*
X024129Y012465D01*
X024078Y012516D01*
X024111Y012535D01*
X029531Y012535D01*
X029531Y012437D02*
X024129Y012437D01*
X024129Y012338D02*
X024173Y012338D01*
X024111Y012535D02*
X024139Y012563D01*
X024159Y012598D01*
X024169Y012636D01*
X024169Y012824D01*
X023870Y012824D01*
X023870Y012920D01*
X024169Y012920D01*
X024169Y013108D01*
X024159Y013146D01*
X024139Y013181D01*
X024111Y013209D01*
X024077Y013228D01*
X024164Y013126D02*
X029531Y013126D01*
X029531Y013028D02*
X024169Y013028D01*
X024169Y012929D02*
X029531Y012929D01*
X029531Y012831D02*
X023870Y012831D01*
X023774Y012831D02*
X023434Y012831D01*
X023475Y012920D02*
X023774Y012920D01*
X023774Y013239D01*
X023605Y013239D01*
X023567Y013228D01*
X023533Y013209D01*
X023505Y013181D01*
X023485Y013146D01*
X023475Y013108D01*
X023475Y012920D01*
X023475Y012929D02*
X023425Y012929D01*
X023475Y013028D02*
X021466Y013028D01*
X021627Y013126D02*
X023480Y013126D01*
X023561Y013225D02*
X021671Y013225D01*
X021844Y012929D02*
X022750Y012929D01*
X022741Y012831D02*
X021942Y012831D01*
X022041Y012732D02*
X022741Y012732D01*
X022700Y012540D02*
X022572Y012412D01*
X022700Y012540D02*
X023088Y012540D01*
X023088Y012284D02*
X023741Y012284D01*
X023822Y012203D01*
X023822Y012162D01*
X024322Y012162D01*
X024552Y012141D02*
X029531Y012141D01*
X029531Y012043D02*
X024528Y012043D01*
X024429Y011944D02*
X029531Y011944D01*
X029531Y011846D02*
X023336Y011846D01*
X023394Y011944D02*
X023515Y011944D01*
X023515Y012043D02*
X023394Y012043D01*
X023394Y012444D02*
X023394Y012615D01*
X023410Y012634D02*
X023476Y012634D01*
X023475Y012732D02*
X023434Y012732D01*
X023533Y012535D02*
X023566Y012516D01*
X023515Y012465D01*
X023515Y012444D01*
X023394Y012444D01*
X023088Y012831D02*
X023088Y012831D01*
X023088Y012929D02*
X023088Y012929D01*
X023774Y012929D02*
X023870Y012929D01*
X023870Y013028D02*
X023774Y013028D01*
X023774Y013126D02*
X023870Y013126D01*
X023870Y013225D02*
X023774Y013225D01*
X024169Y012732D02*
X029531Y012732D01*
X029531Y012634D02*
X024168Y012634D01*
X024471Y012338D02*
X029531Y012338D01*
X029531Y012240D02*
X024552Y012240D01*
X024215Y011944D02*
X024129Y011944D01*
X022839Y011846D02*
X022170Y011846D01*
X022170Y011944D02*
X022781Y011944D01*
X022781Y012043D02*
X022170Y012043D01*
X022170Y012141D02*
X022781Y012141D01*
X022781Y012240D02*
X022725Y012240D01*
X022419Y012240D02*
X022170Y012240D01*
X022170Y012338D02*
X022342Y012338D01*
X022342Y012437D02*
X022170Y012437D01*
X022170Y012535D02*
X022370Y012535D01*
X022468Y012634D02*
X022139Y012634D01*
X022010Y012537D02*
X022010Y010975D01*
X021760Y010725D01*
X021344Y010725D01*
X021344Y010070D01*
X021369Y010046D01*
X021369Y009790D02*
X021369Y009790D01*
X021369Y009534D02*
X021694Y009534D01*
X021885Y009725D01*
X022059Y009876D02*
X022405Y009876D01*
X022405Y009883D02*
X022405Y009692D01*
X022539Y009557D01*
X022730Y009557D01*
X022802Y009630D01*
X022843Y009630D01*
X022843Y009410D01*
X022847Y009406D01*
X022843Y009402D01*
X022843Y009154D01*
X022908Y009089D01*
X023392Y009089D01*
X023457Y009154D01*
X023457Y009374D01*
X023515Y009374D01*
X023515Y009110D01*
X023566Y009059D01*
X023533Y009039D01*
X023505Y009011D01*
X023485Y008977D01*
X023475Y008939D01*
X023475Y008751D01*
X023774Y008751D01*
X023774Y008654D01*
X023870Y008654D01*
X023870Y008336D01*
X024039Y008336D01*
X024077Y008346D01*
X024111Y008366D01*
X024139Y008394D01*
X024159Y008428D01*
X024169Y008466D01*
X024169Y008654D01*
X023870Y008654D01*
X023870Y008751D01*
X024169Y008751D01*
X024169Y008939D01*
X024159Y008977D01*
X024139Y009011D01*
X024111Y009039D01*
X024078Y009059D01*
X024129Y009110D01*
X024129Y009190D01*
X024157Y009190D01*
X024227Y009120D01*
X024417Y009120D01*
X024552Y009255D01*
X024552Y009445D01*
X024417Y009580D01*
X024227Y009580D01*
X024157Y009510D01*
X024129Y009510D01*
X024129Y009630D01*
X027510Y009630D01*
X027538Y009563D01*
X027674Y009426D01*
X027853Y009353D01*
X028045Y009353D01*
X028224Y009426D01*
X028360Y009563D01*
X028434Y009741D01*
X028434Y009934D01*
X028360Y010112D01*
X028224Y010249D01*
X028045Y010323D01*
X027853Y010323D01*
X027674Y010249D01*
X027538Y010112D01*
X027471Y009950D01*
X023497Y009950D01*
X023497Y010046D01*
X023497Y010144D01*
X023487Y010183D01*
X023467Y010217D01*
X023439Y010245D01*
X023405Y010264D01*
X023367Y010275D01*
X023150Y010275D01*
X022933Y010275D01*
X022895Y010264D01*
X022861Y010245D01*
X022833Y010217D01*
X022813Y010183D01*
X022803Y010144D01*
X022803Y010046D01*
X023150Y010046D01*
X023150Y010275D01*
X023150Y010046D01*
X023150Y010046D01*
X023150Y010046D01*
X022803Y010046D01*
X022803Y009950D01*
X022797Y009950D01*
X022730Y010017D01*
X022539Y010017D01*
X022405Y009883D01*
X022405Y009777D02*
X022115Y009777D01*
X022115Y009679D02*
X022418Y009679D01*
X022516Y009580D02*
X022065Y009580D01*
X021868Y009482D02*
X022843Y009482D01*
X022843Y009580D02*
X022753Y009580D01*
X022843Y009383D02*
X021769Y009383D01*
X021715Y009285D02*
X022843Y009285D01*
X022843Y009186D02*
X021715Y009186D01*
X021666Y009088D02*
X023537Y009088D01*
X023515Y009186D02*
X023457Y009186D01*
X023457Y009285D02*
X023515Y009285D01*
X023822Y009372D02*
X023844Y009350D01*
X024322Y009350D01*
X024160Y009186D02*
X024129Y009186D01*
X024107Y009088D02*
X026320Y009088D01*
X026305Y009051D02*
X026282Y008966D01*
X026271Y008884D01*
X026895Y008884D01*
X026895Y009508D01*
X026813Y009497D01*
X026728Y009474D01*
X026646Y009440D01*
X026569Y009396D01*
X026499Y009342D01*
X026437Y009280D01*
X026383Y009210D01*
X026338Y009133D01*
X026305Y009051D01*
X026288Y008989D02*
X024152Y008989D01*
X024169Y008891D02*
X026272Y008891D01*
X026271Y008784D02*
X026282Y008702D01*
X026305Y008616D01*
X026338Y008535D01*
X026383Y008458D01*
X026437Y008388D01*
X026499Y008325D01*
X026569Y008271D01*
X026646Y008227D01*
X026728Y008193D01*
X026813Y008170D01*
X026895Y008159D01*
X026895Y008784D01*
X026271Y008784D01*
X026284Y008694D02*
X023870Y008694D01*
X023774Y008694D02*
X020454Y008694D01*
X020356Y008792D02*
X023475Y008792D01*
X023475Y008891D02*
X020295Y008891D01*
X020295Y008989D02*
X023492Y008989D01*
X023475Y008654D02*
X023475Y008466D01*
X023485Y008428D01*
X023505Y008394D01*
X023533Y008366D01*
X023567Y008346D01*
X023605Y008336D01*
X023774Y008336D01*
X023774Y008654D01*
X023475Y008654D01*
X023475Y008595D02*
X020553Y008595D01*
X020651Y008497D02*
X023475Y008497D01*
X023503Y008398D02*
X021286Y008398D01*
X021365Y008300D02*
X026532Y008300D01*
X026428Y008398D02*
X024141Y008398D01*
X024169Y008497D02*
X026360Y008497D01*
X026313Y008595D02*
X024169Y008595D01*
X024169Y008792D02*
X026895Y008792D01*
X026895Y008784D02*
X026895Y008884D01*
X026995Y008884D01*
X026995Y009508D01*
X027077Y009497D01*
X027163Y009474D01*
X027244Y009440D01*
X027321Y009396D01*
X027391Y009342D01*
X027454Y009280D01*
X027508Y009210D01*
X027552Y009133D01*
X027586Y009051D01*
X027609Y008966D01*
X027619Y008884D01*
X026995Y008884D01*
X026995Y008784D01*
X027619Y008784D01*
X027609Y008702D01*
X027586Y008616D01*
X027552Y008535D01*
X027508Y008458D01*
X027454Y008388D01*
X027391Y008325D01*
X027321Y008271D01*
X027244Y008227D01*
X027163Y008193D01*
X027077Y008170D01*
X026995Y008159D01*
X026995Y008784D01*
X026895Y008784D01*
X026895Y008694D02*
X026995Y008694D01*
X026995Y008792D02*
X028903Y008792D01*
X028903Y008694D02*
X029003Y008694D01*
X029003Y008595D02*
X028903Y008595D01*
X028903Y008497D02*
X029003Y008497D01*
X029003Y008398D02*
X028903Y008398D01*
X028903Y008300D02*
X029003Y008300D01*
X029003Y008201D02*
X028903Y008201D01*
X028715Y008201D02*
X027182Y008201D01*
X026995Y008201D02*
X026895Y008201D01*
X026895Y008300D02*
X026995Y008300D01*
X026995Y008398D02*
X026895Y008398D01*
X026895Y008497D02*
X026995Y008497D01*
X026995Y008595D02*
X026895Y008595D01*
X026895Y008891D02*
X026995Y008891D01*
X026995Y008989D02*
X026895Y008989D01*
X026895Y009088D02*
X026995Y009088D01*
X026995Y009186D02*
X026895Y009186D01*
X026895Y009285D02*
X026995Y009285D01*
X026995Y009383D02*
X026895Y009383D01*
X026895Y009482D02*
X026995Y009482D01*
X027134Y009482D02*
X027619Y009482D01*
X027531Y009580D02*
X024129Y009580D01*
X023822Y009534D02*
X023822Y009372D01*
X023822Y009534D02*
X023150Y009534D01*
X023150Y009790D02*
X022697Y009790D01*
X022635Y009787D01*
X022773Y009974D02*
X022803Y009974D01*
X022803Y010073D02*
X021675Y010073D01*
X021674Y010171D02*
X022810Y010171D01*
X022916Y010270D02*
X021504Y010270D01*
X021504Y010368D02*
X026464Y010368D01*
X026437Y010395D02*
X026499Y010333D01*
X026569Y010279D01*
X026646Y010235D01*
X026728Y010201D01*
X026813Y010178D01*
X026895Y010167D01*
X026895Y010791D01*
X026995Y010791D01*
X026995Y010167D01*
X027077Y010178D01*
X027163Y010201D01*
X027244Y010235D01*
X027321Y010279D01*
X027391Y010333D01*
X027454Y010395D01*
X027508Y010466D01*
X027552Y010542D01*
X027586Y010624D01*
X027609Y010710D01*
X027619Y010791D01*
X026995Y010791D01*
X026995Y010891D01*
X027619Y010891D01*
X027609Y010973D01*
X027586Y011059D01*
X027552Y011141D01*
X027508Y011217D01*
X027454Y011288D01*
X027391Y011350D01*
X027321Y011404D01*
X027244Y011448D01*
X027163Y011482D01*
X027077Y011505D01*
X026995Y011516D01*
X026995Y010892D01*
X026895Y010892D01*
X026895Y011516D01*
X026813Y011505D01*
X026728Y011482D01*
X026646Y011448D01*
X026569Y011404D01*
X026499Y011350D01*
X026437Y011288D01*
X026383Y011217D01*
X026338Y011141D01*
X026305Y011059D01*
X026282Y010973D01*
X026271Y010891D01*
X026895Y010891D01*
X026895Y010791D01*
X026271Y010791D01*
X026282Y010710D01*
X026305Y010624D01*
X026338Y010542D01*
X026383Y010466D01*
X026437Y010395D01*
X026382Y010467D02*
X021655Y010467D01*
X021826Y010565D02*
X026329Y010565D01*
X026294Y010664D02*
X021925Y010664D01*
X022023Y010762D02*
X026275Y010762D01*
X026280Y010959D02*
X022170Y010959D01*
X022170Y011058D02*
X026304Y011058D01*
X026347Y011156D02*
X022170Y011156D01*
X022170Y011255D02*
X026412Y011255D01*
X026503Y011353D02*
X022170Y011353D01*
X022170Y011452D02*
X026655Y011452D01*
X026895Y011452D02*
X026995Y011452D01*
X026995Y011353D02*
X026895Y011353D01*
X026895Y011255D02*
X026995Y011255D01*
X026995Y011156D02*
X026895Y011156D01*
X026895Y011058D02*
X026995Y011058D01*
X026995Y010959D02*
X026895Y010959D01*
X026895Y010861D02*
X022122Y010861D01*
X021850Y011058D02*
X020956Y011058D01*
X020723Y011058D02*
X020626Y011058D01*
X020626Y011072D02*
X020439Y011072D01*
X020400Y011062D01*
X020366Y011042D01*
X020338Y011014D01*
X020319Y010980D01*
X020308Y010941D01*
X020308Y010773D01*
X020626Y010773D01*
X020626Y011072D01*
X020626Y010959D02*
X020723Y010959D01*
X020723Y010861D02*
X020626Y010861D01*
X020626Y010762D02*
X019064Y010762D01*
X019064Y010776D02*
X019054Y010814D01*
X019035Y010848D01*
X019007Y010876D01*
X018972Y010896D01*
X018934Y010906D01*
X018854Y010906D01*
X018854Y010561D01*
X018854Y010561D01*
X018854Y010216D01*
X018934Y010216D01*
X018972Y010226D01*
X019007Y010246D01*
X019035Y010274D01*
X019054Y010308D01*
X019064Y010346D01*
X019064Y010561D01*
X018855Y010561D01*
X018855Y010561D01*
X019064Y010561D01*
X019064Y010776D01*
X019022Y010861D02*
X020308Y010861D01*
X020313Y010959D02*
X018759Y010959D01*
X018793Y011058D02*
X020394Y011058D01*
X020308Y010676D02*
X020308Y010508D01*
X020319Y010470D01*
X020338Y010436D01*
X020366Y010408D01*
X020400Y010388D01*
X020439Y010378D01*
X020626Y010378D01*
X020626Y010676D01*
X020308Y010676D01*
X020308Y010664D02*
X019064Y010664D01*
X019064Y010565D02*
X020308Y010565D01*
X020320Y010467D02*
X019064Y010467D01*
X019064Y010368D02*
X021184Y010368D01*
X021184Y010270D02*
X019030Y010270D01*
X018854Y010270D02*
X018854Y010270D01*
X018854Y010368D02*
X018854Y010368D01*
X018854Y010467D02*
X018854Y010467D01*
X018854Y010565D02*
X018854Y010565D01*
X018854Y010664D02*
X018854Y010664D01*
X018854Y010762D02*
X018854Y010762D01*
X018854Y010861D02*
X018854Y010861D01*
X018865Y011156D02*
X021850Y011156D01*
X021850Y011255D02*
X018865Y011255D01*
X018831Y011353D02*
X021850Y011353D01*
X021850Y011452D02*
X018733Y011452D01*
X018536Y011452D02*
X018107Y011452D01*
X018107Y011550D02*
X021850Y011550D01*
X021850Y011649D02*
X018107Y011649D01*
X018107Y011747D02*
X021850Y011747D01*
X021850Y011846D02*
X021612Y011846D01*
X021653Y011944D02*
X021850Y011944D01*
X021850Y012043D02*
X021653Y012043D01*
X021649Y012141D02*
X021850Y012141D01*
X021850Y012240D02*
X021613Y012240D01*
X021613Y012338D02*
X021850Y012338D01*
X021850Y012437D02*
X021613Y012437D01*
X021613Y012535D02*
X021785Y012535D01*
X021687Y012634D02*
X021613Y012634D01*
X021751Y012796D02*
X022010Y012537D01*
X021751Y012796D02*
X021306Y012796D01*
X021306Y013374D01*
X021344Y013412D01*
X021322Y013435D01*
X021322Y014412D01*
X021092Y014407D02*
X018107Y014407D01*
X018107Y014505D02*
X021092Y014505D01*
X021188Y014604D02*
X018107Y014604D01*
X018107Y014308D02*
X021101Y014308D01*
X021162Y014210D02*
X018107Y014210D01*
X018107Y014111D02*
X021162Y014111D01*
X021162Y014013D02*
X018107Y014013D01*
X018107Y013914D02*
X021162Y013914D01*
X021162Y013816D02*
X018107Y013816D01*
X018107Y013717D02*
X020354Y013717D01*
X020366Y013729D02*
X020338Y013701D01*
X020319Y013667D01*
X020308Y013629D01*
X020308Y013461D01*
X020626Y013461D01*
X020626Y013759D01*
X020439Y013759D01*
X020400Y013749D01*
X020366Y013729D01*
X020308Y013619D02*
X018107Y013619D01*
X018107Y013520D02*
X020308Y013520D01*
X020308Y013323D02*
X018107Y013323D01*
X018107Y013225D02*
X020308Y013225D01*
X020337Y013126D02*
X018107Y013126D01*
X018107Y013028D02*
X021146Y013028D01*
X021061Y013126D02*
X021013Y013126D01*
X021008Y012929D02*
X018107Y012929D01*
X018107Y012831D02*
X020999Y012831D01*
X020999Y012732D02*
X019702Y012732D01*
X019575Y012540D02*
X021306Y012540D01*
X021306Y012284D02*
X020825Y012284D01*
X020822Y012287D01*
X020643Y012141D02*
X018107Y012141D01*
X018107Y012043D02*
X020959Y012043D01*
X020959Y011944D02*
X018107Y011944D01*
X018107Y011846D02*
X021001Y011846D01*
X021306Y011846D02*
X021306Y011846D01*
X021306Y011944D02*
X021306Y011944D01*
X020592Y012240D02*
X018107Y012240D01*
X018107Y012338D02*
X019446Y012338D01*
X019347Y012437D02*
X018107Y012437D01*
X018107Y012535D02*
X019342Y012535D01*
X019343Y012634D02*
X018107Y012634D01*
X018107Y012732D02*
X019442Y012732D01*
X019575Y012540D02*
X019572Y012537D01*
X019698Y012338D02*
X020592Y012338D01*
X020626Y013126D02*
X020723Y013126D01*
X020723Y013225D02*
X020626Y013225D01*
X020626Y013323D02*
X020723Y013323D01*
X020626Y013422D02*
X018107Y013422D01*
X017787Y011550D02*
X016723Y011550D01*
X016624Y011452D02*
X017724Y011452D01*
X017885Y011287D02*
X017831Y011225D01*
X017831Y010561D01*
X018087Y010561D01*
X018343Y010561D02*
X018343Y009954D01*
X018385Y009912D01*
X018575Y009777D02*
X018600Y009777D01*
X018600Y009679D02*
X016914Y009679D01*
X016990Y009777D02*
X018194Y009777D01*
X018155Y009876D02*
X016990Y009876D01*
X016960Y009974D02*
X018155Y009974D01*
X018183Y010073D02*
X016862Y010073D01*
X016913Y010256D02*
X016935Y010279D01*
X016958Y010256D01*
X017157Y010256D01*
X017167Y010246D01*
X017201Y010226D01*
X017239Y010216D01*
X017319Y010216D01*
X017319Y010561D01*
X017319Y010561D01*
X017319Y010216D01*
X017399Y010216D01*
X017437Y010226D01*
X017447Y010232D01*
X017457Y010226D01*
X017495Y010216D01*
X017575Y010216D01*
X017575Y010561D01*
X017575Y010561D01*
X017365Y010561D01*
X017319Y010561D01*
X017319Y010561D01*
X017319Y010906D01*
X017239Y010906D01*
X017201Y010896D01*
X017167Y010876D01*
X017157Y010866D01*
X016958Y010866D01*
X016935Y010844D01*
X016913Y010866D01*
X016702Y010866D01*
X016679Y010844D01*
X016657Y010866D01*
X016446Y010866D01*
X016381Y010802D01*
X016381Y010321D01*
X016446Y010256D01*
X016657Y010256D01*
X016679Y010279D01*
X016702Y010256D01*
X016913Y010256D01*
X016927Y010270D02*
X016944Y010270D01*
X016688Y010270D02*
X016671Y010270D01*
X016657Y010073D02*
X014802Y010073D01*
X014802Y010171D02*
X018183Y010171D01*
X017967Y010270D02*
X017950Y010270D01*
X017575Y010270D02*
X017575Y010270D01*
X017575Y010368D02*
X017575Y010368D01*
X017575Y010467D02*
X017575Y010467D01*
X017575Y010561D02*
X017575Y010561D01*
X017319Y010561D01*
X017319Y010561D01*
X017319Y010906D01*
X017399Y010906D01*
X017437Y010896D01*
X017447Y010890D01*
X017457Y010896D01*
X017495Y010906D01*
X017575Y010906D01*
X017575Y010561D01*
X017575Y010561D01*
X017575Y010565D02*
X017575Y010565D01*
X017575Y010664D02*
X017575Y010664D01*
X017575Y010762D02*
X017575Y010762D01*
X017575Y010861D02*
X017575Y010861D01*
X017671Y010959D02*
X012845Y010959D01*
X012747Y010861D02*
X016441Y010861D01*
X016381Y010762D02*
X012648Y010762D01*
X012550Y010664D02*
X016381Y010664D01*
X016381Y010565D02*
X012451Y010565D01*
X012420Y010467D02*
X016381Y010467D01*
X016381Y010368D02*
X013441Y010368D01*
X013540Y010270D02*
X014417Y010270D01*
X014572Y010100D02*
X014260Y009787D01*
X014260Y008662D01*
X013260Y007662D01*
X011510Y007662D01*
X011197Y007350D01*
X011197Y006343D01*
X010941Y006343D02*
X010941Y007719D01*
X011260Y008037D01*
X012135Y008037D01*
X012072Y008201D02*
X008483Y008201D01*
X008582Y008103D02*
X011099Y008103D01*
X011000Y008004D02*
X008615Y008004D01*
X008670Y007906D02*
X010902Y007906D01*
X010803Y007807D02*
X008670Y007807D01*
X008670Y007709D02*
X010781Y007709D01*
X010781Y007610D02*
X008670Y007610D01*
X008762Y007512D02*
X010781Y007512D01*
X010781Y007413D02*
X009000Y007413D01*
X008841Y007182D02*
X010365Y007182D01*
X010685Y006862D01*
X010685Y006343D01*
X010525Y006630D02*
X010315Y006630D01*
X010250Y006566D01*
X010250Y006120D01*
X010315Y006056D01*
X010544Y006056D01*
X010557Y006069D01*
X010571Y006056D01*
X010703Y006056D01*
X010655Y006008D01*
X010655Y005817D01*
X010747Y005725D01*
X010452Y005725D01*
X010450Y005730D01*
X010431Y005764D01*
X010403Y005792D01*
X010369Y005812D01*
X010330Y005822D01*
X010143Y005822D01*
X010143Y005523D01*
X010046Y005523D01*
X010046Y005822D01*
X009858Y005822D01*
X009820Y005812D01*
X009786Y005792D01*
X009758Y005764D01*
X009738Y005730D01*
X009687Y005782D01*
X009163Y005782D01*
X009098Y005717D01*
X009098Y005678D01*
X009000Y005678D01*
X009000Y005760D01*
X008935Y005825D01*
X008804Y005825D01*
X008804Y006256D01*
X008865Y006317D01*
X008865Y006508D01*
X008730Y006642D01*
X008539Y006642D01*
X008405Y006508D01*
X008405Y006317D01*
X008484Y006238D01*
X008484Y006162D01*
X007322Y006162D01*
X007322Y007440D01*
X007719Y007440D01*
X007789Y007370D01*
X007888Y007370D01*
X007893Y007365D01*
X007893Y007116D01*
X007894Y007115D01*
X007894Y006939D01*
X007959Y006875D01*
X008148Y006875D01*
X008152Y006879D01*
X008155Y006875D01*
X008345Y006875D01*
X008349Y006879D01*
X008352Y006875D01*
X008493Y006875D01*
X008503Y006865D01*
X008537Y006845D01*
X008575Y006835D01*
X008644Y006835D01*
X008713Y006835D01*
X008751Y006845D01*
X008785Y006865D01*
X008795Y006875D01*
X008935Y006875D01*
X009000Y006939D01*
X009000Y007022D01*
X010299Y007022D01*
X010525Y006795D01*
X010525Y006630D01*
X010525Y006724D02*
X007322Y006724D01*
X007322Y006822D02*
X010498Y006822D01*
X010400Y006921D02*
X008981Y006921D01*
X009000Y007019D02*
X010301Y007019D01*
X010557Y007216D02*
X010781Y007216D01*
X010781Y007118D02*
X010655Y007118D01*
X010751Y007022D02*
X010751Y007022D01*
X010754Y007019D02*
X010781Y007019D01*
X010781Y007315D02*
X010458Y007315D01*
X011101Y007512D02*
X011133Y007512D01*
X011101Y007610D02*
X011231Y007610D01*
X011157Y007709D02*
X011330Y007709D01*
X011256Y007807D02*
X011428Y007807D01*
X011697Y007412D02*
X016322Y007412D01*
X016807Y007898D01*
X016807Y008264D01*
X016807Y008865D01*
X016635Y009037D01*
X016865Y009034D02*
X016865Y009133D01*
X016730Y009267D01*
X016539Y009267D01*
X016482Y009210D01*
X016482Y009346D01*
X016482Y009285D02*
X018530Y009285D01*
X018530Y009192D02*
X018530Y009383D01*
X018600Y009482D02*
X016618Y009482D01*
X016716Y009580D02*
X018600Y009580D01*
X018920Y009580D02*
X018951Y009580D01*
X018920Y009679D02*
X019050Y009679D01*
X019148Y009777D02*
X018920Y009777D01*
X018920Y009876D02*
X021022Y009876D01*
X021022Y009777D02*
X019871Y009777D01*
X019969Y009679D02*
X021025Y009679D01*
X021062Y009580D02*
X020068Y009580D01*
X020166Y009482D02*
X021062Y009482D01*
X021024Y009383D02*
X020265Y009383D01*
X020295Y009285D02*
X021022Y009285D01*
X021022Y009278D02*
X021369Y009278D01*
X021369Y009049D01*
X021369Y009278D01*
X021369Y009278D01*
X021022Y009278D01*
X021022Y009186D02*
X020295Y009186D01*
X020295Y009088D02*
X021071Y009088D01*
X021369Y009088D02*
X021369Y009088D01*
X021369Y009186D02*
X021369Y009186D01*
X021369Y009278D02*
X021369Y009278D01*
X021675Y009974D02*
X022496Y009974D01*
X023150Y010046D02*
X023150Y010046D01*
X023497Y010046D01*
X023150Y010046D01*
X023150Y010073D02*
X023150Y010073D01*
X023150Y010171D02*
X023150Y010171D01*
X023150Y010270D02*
X023150Y010270D01*
X023384Y010270D02*
X026585Y010270D01*
X026863Y010171D02*
X023490Y010171D01*
X023497Y010073D02*
X027521Y010073D01*
X027481Y009974D02*
X023497Y009974D01*
X023150Y009790D02*
X027949Y009790D01*
X027949Y009838D01*
X028279Y009482D02*
X028764Y009482D01*
X028903Y009482D02*
X029003Y009482D01*
X029003Y009383D02*
X028903Y009383D01*
X028903Y009285D02*
X029003Y009285D01*
X029003Y009186D02*
X028903Y009186D01*
X028903Y009088D02*
X029003Y009088D01*
X029003Y008989D02*
X028903Y008989D01*
X028903Y008891D02*
X029003Y008891D01*
X029345Y009383D02*
X029531Y009383D01*
X029531Y009285D02*
X029456Y009285D01*
X029529Y009186D02*
X029531Y009186D01*
X029531Y009482D02*
X029142Y009482D01*
X029531Y009580D02*
X028367Y009580D01*
X028408Y009679D02*
X029531Y009679D01*
X029531Y009777D02*
X028434Y009777D01*
X028434Y009876D02*
X029531Y009876D01*
X029531Y009974D02*
X028417Y009974D01*
X028376Y010073D02*
X029531Y010073D01*
X029531Y010171D02*
X029035Y010171D01*
X029003Y010171D02*
X028903Y010171D01*
X028903Y010167D02*
X028903Y010791D01*
X028279Y010791D01*
X028289Y010710D01*
X028312Y010624D01*
X028346Y010542D01*
X028390Y010466D01*
X028444Y010395D01*
X028507Y010333D01*
X028577Y010279D01*
X028654Y010235D01*
X028735Y010201D01*
X028821Y010178D01*
X028903Y010167D01*
X028871Y010171D02*
X028301Y010171D01*
X028173Y010270D02*
X028593Y010270D01*
X028471Y010368D02*
X027427Y010368D01*
X027508Y010467D02*
X028390Y010467D01*
X028337Y010565D02*
X027561Y010565D01*
X027596Y010664D02*
X028302Y010664D01*
X028282Y010762D02*
X027615Y010762D01*
X027610Y010959D02*
X028288Y010959D01*
X028312Y011058D02*
X027586Y011058D01*
X027543Y011156D02*
X028355Y011156D01*
X028419Y011255D02*
X027479Y011255D01*
X027387Y011353D02*
X028511Y011353D01*
X028663Y011452D02*
X027235Y011452D01*
X026995Y010861D02*
X028903Y010861D01*
X028903Y010959D02*
X029003Y010959D01*
X029003Y011058D02*
X028903Y011058D01*
X028903Y011156D02*
X029003Y011156D01*
X029003Y011255D02*
X028903Y011255D01*
X028903Y011353D02*
X029003Y011353D01*
X029003Y011452D02*
X028903Y011452D01*
X029243Y011452D02*
X029531Y011452D01*
X029531Y011550D02*
X022170Y011550D01*
X022170Y011649D02*
X029531Y011649D01*
X029531Y011747D02*
X022170Y011747D01*
X021768Y010959D02*
X021671Y010959D01*
X021033Y010467D02*
X021029Y010467D01*
X021063Y010171D02*
X018852Y010171D01*
X018920Y010073D02*
X021062Y010073D01*
X021062Y009974D02*
X018920Y009974D01*
X018760Y010037D02*
X018760Y009287D01*
X018634Y009088D02*
X016865Y009088D01*
X016865Y009034D02*
X016874Y009025D01*
X016967Y008931D01*
X016967Y008721D01*
X016975Y008729D01*
X017068Y008822D01*
X017826Y008822D01*
X017888Y008760D01*
X017927Y008721D01*
X017927Y008806D01*
X018021Y008900D01*
X018021Y008900D01*
X018193Y009072D01*
X018326Y009072D01*
X018649Y009072D01*
X018530Y009192D01*
X018535Y009186D02*
X016811Y009186D01*
X016909Y008989D02*
X018110Y008989D01*
X018012Y008891D02*
X016967Y008891D01*
X016967Y008792D02*
X017038Y008792D01*
X017135Y008662D02*
X017760Y008662D01*
X017822Y008600D01*
X017822Y008273D01*
X017831Y008264D01*
X017831Y007693D01*
X017947Y007685D01*
X018254Y007504D02*
X018350Y007409D01*
X018350Y006729D01*
X018256Y006635D01*
X017513Y006635D01*
X017420Y006729D01*
X017420Y007122D01*
X017490Y007192D01*
X017490Y007291D01*
X017640Y007442D01*
X017640Y007422D01*
X017691Y007371D01*
X017658Y007352D01*
X017630Y007324D01*
X017610Y007290D01*
X017600Y007252D01*
X017600Y007064D01*
X017899Y007064D01*
X017899Y006967D01*
X017995Y006967D01*
X017995Y006649D01*
X018164Y006649D01*
X018202Y006659D01*
X018236Y006679D01*
X018264Y006707D01*
X018284Y006741D01*
X018294Y006779D01*
X018294Y006967D01*
X017995Y006967D01*
X017995Y007064D01*
X018294Y007064D01*
X018294Y007252D01*
X018284Y007290D01*
X018264Y007324D01*
X018236Y007352D01*
X018203Y007371D01*
X018254Y007422D01*
X018254Y007504D01*
X018245Y007413D02*
X018345Y007413D01*
X018350Y007315D02*
X018269Y007315D01*
X018294Y007216D02*
X018350Y007216D01*
X018350Y007118D02*
X018294Y007118D01*
X018350Y007019D02*
X017995Y007019D01*
X017899Y007019D02*
X017420Y007019D01*
X017420Y006921D02*
X017600Y006921D01*
X017600Y006967D02*
X017600Y006779D01*
X017610Y006741D01*
X017630Y006707D01*
X017658Y006679D01*
X017692Y006659D01*
X017730Y006649D01*
X017899Y006649D01*
X017899Y006967D01*
X017600Y006967D01*
X017600Y006822D02*
X017420Y006822D01*
X017424Y006724D02*
X017620Y006724D01*
X017899Y006724D02*
X017995Y006724D01*
X017995Y006822D02*
X017899Y006822D01*
X017899Y006921D02*
X017995Y006921D01*
X018294Y006921D02*
X018350Y006921D01*
X018350Y006822D02*
X018294Y006822D01*
X018274Y006724D02*
X018345Y006724D01*
X018510Y006662D02*
X018322Y006475D01*
X017447Y006475D01*
X017260Y006662D01*
X017260Y007287D01*
X017575Y007603D01*
X017575Y008264D01*
X017319Y008264D02*
X017319Y007784D01*
X016947Y007412D01*
X016944Y006478D01*
X017135Y006287D01*
X019760Y006287D01*
X020697Y007225D01*
X020927Y007216D02*
X029531Y007216D01*
X029531Y007118D02*
X020915Y007118D01*
X020817Y007019D02*
X029531Y007019D01*
X029531Y006921D02*
X020619Y006921D01*
X020521Y006822D02*
X029531Y006822D01*
X029531Y006724D02*
X020422Y006724D01*
X020324Y006625D02*
X029531Y006625D01*
X029531Y006527D02*
X020225Y006527D01*
X020127Y006428D02*
X029531Y006428D01*
X029531Y006330D02*
X020028Y006330D01*
X019930Y006231D02*
X029531Y006231D01*
X029531Y006133D02*
X019831Y006133D01*
X019773Y006527D02*
X018600Y006527D01*
X018670Y006625D02*
X019871Y006625D01*
X019970Y006724D02*
X018670Y006724D01*
X018670Y006822D02*
X020068Y006822D01*
X020167Y006921D02*
X018670Y006921D01*
X018670Y007019D02*
X020265Y007019D01*
X020364Y007118D02*
X018670Y007118D01*
X018670Y007216D02*
X020462Y007216D01*
X020467Y007315D02*
X018670Y007315D01*
X018670Y007413D02*
X020560Y007413D01*
X020834Y007413D02*
X029531Y007413D01*
X029531Y007315D02*
X020927Y007315D01*
X021030Y008004D02*
X019006Y008004D01*
X019024Y008103D02*
X019165Y008103D01*
X019320Y008264D02*
X018854Y008264D01*
X018854Y008567D01*
X018760Y008662D01*
X018447Y008662D01*
X018343Y008558D01*
X018343Y008264D01*
X018343Y007642D01*
X018510Y007475D01*
X018510Y006662D01*
X017600Y007118D02*
X017420Y007118D01*
X017490Y007216D02*
X017600Y007216D01*
X017625Y007315D02*
X017513Y007315D01*
X017612Y007413D02*
X017649Y007413D01*
X017116Y007807D02*
X016943Y007807D01*
X016967Y007906D02*
X017159Y007906D01*
X017017Y007709D02*
X016845Y007709D01*
X016919Y007610D02*
X016746Y007610D01*
X016820Y007512D02*
X016648Y007512D01*
X016549Y007413D02*
X016787Y007413D01*
X016787Y007315D02*
X016451Y007315D01*
X016294Y007610D02*
X013434Y007610D01*
X013532Y007709D02*
X016392Y007709D01*
X016491Y007807D02*
X013631Y007807D01*
X013729Y007906D02*
X016589Y007906D01*
X016400Y008004D02*
X013828Y008004D01*
X013926Y008103D02*
X016381Y008103D01*
X016381Y008201D02*
X014025Y008201D01*
X014123Y008300D02*
X016381Y008300D01*
X016381Y008398D02*
X014222Y008398D01*
X014320Y008497D02*
X016381Y008497D01*
X016288Y008595D02*
X014419Y008595D01*
X014420Y008694D02*
X016189Y008694D01*
X016162Y008792D02*
X014420Y008792D01*
X014420Y008891D02*
X016162Y008891D01*
X016162Y008989D02*
X014420Y008989D01*
X014420Y009088D02*
X016162Y009088D01*
X016162Y009186D02*
X014420Y009186D01*
X014420Y009285D02*
X016162Y009285D01*
X016162Y009383D02*
X014420Y009383D01*
X014420Y009482D02*
X016165Y009482D01*
X016264Y009580D02*
X014420Y009580D01*
X014420Y009679D02*
X016362Y009679D01*
X016461Y009777D02*
X014476Y009777D01*
X014673Y009876D02*
X016530Y009876D01*
X016559Y009974D02*
X014772Y009974D01*
X014727Y010270D02*
X016432Y010270D01*
X016551Y010561D02*
X016807Y010561D01*
X017063Y010561D01*
X017319Y010565D02*
X017319Y010565D01*
X017319Y010467D02*
X017319Y010467D01*
X017319Y010368D02*
X017319Y010368D01*
X017319Y010270D02*
X017319Y010270D01*
X017319Y010664D02*
X017319Y010664D01*
X017319Y010762D02*
X017319Y010762D01*
X017319Y010861D02*
X017319Y010861D01*
X017671Y011058D02*
X012944Y011058D01*
X012260Y010600D02*
X012260Y009975D01*
X012420Y009974D02*
X012533Y009974D01*
X012434Y009876D02*
X012387Y009876D01*
X012412Y009777D02*
X012288Y009777D01*
X012190Y009679D02*
X012412Y009679D01*
X012412Y009580D02*
X012091Y009580D01*
X012420Y010073D02*
X012631Y010073D01*
X012730Y010171D02*
X012420Y010171D01*
X012420Y010270D02*
X013104Y010270D01*
X013203Y010368D02*
X012420Y010368D01*
X010781Y008989D02*
X008052Y008989D01*
X008052Y008891D02*
X010312Y008891D01*
X010250Y008792D02*
X007965Y008792D01*
X007858Y008694D02*
X010250Y008694D01*
X010250Y008595D02*
X007858Y008595D01*
X007858Y008497D02*
X010250Y008497D01*
X010250Y008398D02*
X007322Y008398D01*
X007532Y008725D02*
X007572Y008725D01*
X007822Y008975D01*
X007822Y009662D01*
X007325Y010160D01*
X005887Y010160D01*
X005660Y010387D01*
X005660Y010975D01*
X005322Y011312D01*
X005322Y012287D01*
X005300Y012265D01*
X004510Y012265D01*
X005322Y012287D02*
X005323Y012288D01*
X005323Y012773D01*
X006071Y012773D02*
X006097Y012747D01*
X006635Y012747D01*
X006071Y012773D02*
X006071Y011851D01*
X006260Y011662D01*
X006260Y010975D01*
X006860Y010975D02*
X008510Y010975D01*
X008947Y010537D01*
X008760Y011850D02*
X008760Y012509D01*
X008788Y012537D01*
X008010Y013850D02*
X008005Y013854D01*
X007571Y013854D01*
X007197Y014720D02*
X007197Y014787D01*
X006947Y015328D02*
X007197Y015578D01*
X006947Y015328D02*
X006385Y015328D01*
X006385Y014850D01*
X006175Y014640D01*
X006072Y014640D01*
X006071Y014639D01*
X006071Y013802D01*
X005323Y013802D02*
X004711Y013802D01*
X004697Y013787D01*
X005760Y014640D02*
X006072Y014640D01*
X005760Y015310D02*
X005697Y015310D01*
X005697Y015970D01*
X005947Y015970D01*
X006385Y015970D01*
X006385Y015997D01*
X005697Y015970D02*
X005259Y015970D01*
X004885Y015104D02*
X004885Y014912D01*
X004447Y014912D01*
X009350Y016412D02*
X009350Y016572D01*
X009322Y016600D01*
X016662Y010861D02*
X016696Y010861D01*
X016918Y010861D02*
X016952Y010861D01*
X017991Y010959D02*
X018439Y010959D01*
X018439Y011058D02*
X017991Y011058D01*
X018079Y011156D02*
X018405Y011156D01*
X018405Y011255D02*
X018115Y011255D01*
X018115Y011353D02*
X018438Y011353D01*
X018599Y011189D02*
X018635Y011225D01*
X018599Y011189D02*
X018599Y010561D01*
X018599Y010198D01*
X018760Y010037D01*
X019260Y009662D02*
X019072Y009475D01*
X019072Y009162D01*
X018822Y008912D01*
X018260Y008912D01*
X018087Y008740D01*
X018087Y008264D01*
X018599Y008264D02*
X018599Y007919D01*
X018599Y008264D01*
X018599Y008264D01*
X018599Y008201D02*
X018599Y008201D01*
X018599Y008103D02*
X018599Y008103D01*
X018599Y008004D02*
X018599Y008004D01*
X018503Y007906D02*
X029531Y007906D01*
X029531Y008004D02*
X021239Y008004D01*
X021338Y008103D02*
X029531Y008103D01*
X029531Y008201D02*
X029190Y008201D01*
X029366Y008300D02*
X029531Y008300D01*
X029531Y008398D02*
X029470Y008398D01*
X029531Y007807D02*
X018503Y007807D01*
X018503Y007709D02*
X029531Y007709D01*
X029531Y007610D02*
X018600Y007610D01*
X018670Y007512D02*
X029531Y007512D01*
X028540Y008300D02*
X027358Y008300D01*
X027462Y008398D02*
X028436Y008398D01*
X028368Y008497D02*
X027530Y008497D01*
X027577Y008595D02*
X028321Y008595D01*
X028292Y008694D02*
X027606Y008694D01*
X027618Y008891D02*
X028280Y008891D01*
X028296Y008989D02*
X027602Y008989D01*
X027570Y009088D02*
X028328Y009088D01*
X028377Y009186D02*
X027521Y009186D01*
X027448Y009285D02*
X028450Y009285D01*
X028560Y009383D02*
X028120Y009383D01*
X027778Y009383D02*
X027337Y009383D01*
X026756Y009482D02*
X024515Y009482D01*
X024552Y009383D02*
X026553Y009383D01*
X026442Y009285D02*
X024552Y009285D01*
X024484Y009186D02*
X026369Y009186D01*
X026708Y008201D02*
X021365Y008201D01*
X021135Y008225D02*
X020697Y008225D01*
X020135Y008787D01*
X020135Y009287D01*
X019760Y009662D01*
X019260Y009662D01*
X019305Y009482D02*
X019714Y009482D01*
X019702Y009416D02*
X019664Y009426D01*
X019495Y009426D01*
X019495Y009108D01*
X019794Y009108D01*
X019794Y009296D01*
X019784Y009334D01*
X019764Y009368D01*
X019736Y009396D01*
X019702Y009416D01*
X019749Y009383D02*
X019812Y009383D01*
X019794Y009285D02*
X019911Y009285D01*
X019975Y009186D02*
X019794Y009186D01*
X019794Y008989D02*
X019975Y008989D01*
X019975Y008891D02*
X019794Y008891D01*
X019786Y008792D02*
X019975Y008792D01*
X020002Y008694D02*
X019712Y008694D01*
X019754Y008595D02*
X020100Y008595D01*
X020199Y008497D02*
X019754Y008497D01*
X019754Y008398D02*
X020297Y008398D01*
X020396Y008300D02*
X019754Y008300D01*
X019754Y008201D02*
X020494Y008201D01*
X020593Y008103D02*
X019729Y008103D01*
X019447Y008390D02*
X019320Y008264D01*
X019495Y009088D02*
X019975Y009088D01*
X019495Y009186D02*
X019399Y009186D01*
X019399Y009285D02*
X019495Y009285D01*
X019495Y009383D02*
X019399Y009383D01*
X020750Y008398D02*
X020983Y008398D01*
X023774Y008398D02*
X023870Y008398D01*
X023870Y008497D02*
X023774Y008497D01*
X023774Y008595D02*
X023870Y008595D01*
X026895Y010171D02*
X026995Y010171D01*
X027027Y010171D02*
X027597Y010171D01*
X027725Y010270D02*
X027305Y010270D01*
X026995Y010270D02*
X026895Y010270D01*
X026895Y010368D02*
X026995Y010368D01*
X026995Y010467D02*
X026895Y010467D01*
X026895Y010565D02*
X026995Y010565D01*
X026995Y010664D02*
X026895Y010664D01*
X026895Y010762D02*
X026995Y010762D01*
X028903Y010762D02*
X029003Y010762D01*
X029003Y010664D02*
X028903Y010664D01*
X028903Y010565D02*
X029003Y010565D01*
X029003Y010467D02*
X028903Y010467D01*
X028903Y010368D02*
X029003Y010368D01*
X029003Y010270D02*
X028903Y010270D01*
X029313Y010270D02*
X029531Y010270D01*
X029531Y010368D02*
X029434Y010368D01*
X029516Y010467D02*
X029531Y010467D01*
X029531Y011255D02*
X029486Y011255D01*
X029531Y011353D02*
X029395Y011353D01*
X029531Y015589D02*
X018158Y015589D01*
X018060Y015687D02*
X029531Y015687D01*
X021080Y013717D02*
X020995Y013717D01*
X020723Y013717D02*
X020626Y013717D01*
X020626Y013619D02*
X020723Y013619D01*
X020723Y013520D02*
X020626Y013520D01*
X018232Y010861D02*
X018198Y010861D01*
X016760Y009850D02*
X016322Y009412D01*
X016322Y008787D01*
X016551Y008558D01*
X016551Y008264D01*
X016807Y008264D02*
X017063Y008264D01*
X017063Y008591D01*
X017135Y008662D01*
X017856Y008792D02*
X017927Y008792D01*
X016786Y007216D02*
X013526Y007216D01*
X013572Y007037D02*
X013219Y007037D01*
X013219Y006350D01*
X012912Y006330D02*
X012857Y006330D01*
X012857Y006428D02*
X012912Y006428D01*
X012912Y006527D02*
X012857Y006527D01*
X012843Y006625D02*
X012926Y006625D01*
X012964Y006724D02*
X012805Y006724D01*
X012857Y006822D02*
X012912Y006822D01*
X012912Y006921D02*
X012857Y006921D01*
X012857Y007019D02*
X012912Y007019D01*
X012912Y007118D02*
X012857Y007118D01*
X012857Y007216D02*
X012912Y007216D01*
X012550Y007037D02*
X011885Y007037D01*
X011709Y006862D01*
X011709Y006343D01*
X011709Y005987D01*
X011635Y005912D01*
X010885Y005912D01*
X010733Y005739D02*
X010445Y005739D01*
X010655Y005837D02*
X008804Y005837D01*
X008804Y005936D02*
X010655Y005936D01*
X010681Y006034D02*
X008804Y006034D01*
X008804Y006133D02*
X010250Y006133D01*
X010250Y006231D02*
X008804Y006231D01*
X008865Y006330D02*
X010250Y006330D01*
X010250Y006428D02*
X008865Y006428D01*
X008845Y006527D02*
X010250Y006527D01*
X010310Y006625D02*
X008747Y006625D01*
X008522Y006625D02*
X007322Y006625D01*
X007322Y006527D02*
X008424Y006527D01*
X008405Y006428D02*
X007322Y006428D01*
X007322Y006330D02*
X008405Y006330D01*
X008484Y006231D02*
X007322Y006231D01*
X007322Y006921D02*
X007913Y006921D01*
X007894Y007019D02*
X007322Y007019D01*
X007322Y007118D02*
X007893Y007118D01*
X007893Y007216D02*
X007322Y007216D01*
X007322Y007315D02*
X007893Y007315D01*
X007746Y007413D02*
X007322Y007413D01*
X006947Y007600D02*
X007885Y007600D01*
X008053Y007431D01*
X008053Y007182D01*
X008250Y007182D02*
X008250Y007591D01*
X008260Y007600D01*
X007697Y008162D01*
X006697Y008162D01*
X006260Y008600D01*
X006260Y009162D01*
X005947Y009475D01*
X005510Y009475D01*
X005510Y008725D02*
X005822Y008725D01*
X006947Y007600D01*
X006635Y007662D02*
X006635Y007287D01*
X006635Y007662D02*
X006322Y007975D01*
X005510Y007975D01*
X005510Y007225D02*
X005697Y007225D01*
X005760Y007162D01*
X006508Y006104D02*
X007093Y005518D01*
X008053Y005518D01*
X008447Y005518D02*
X008447Y004703D01*
X008407Y004537D01*
X009010Y004912D02*
X009010Y004122D01*
X009885Y004122D01*
X010760Y004122D01*
X011032Y003850D01*
X011197Y003850D01*
X010760Y003537D02*
X011701Y003537D01*
X011764Y003600D01*
X013010Y003600D01*
X013072Y003537D01*
X013700Y003537D01*
X014134Y003970D01*
X013425Y004010D02*
X013385Y003970D01*
X012634Y003970D01*
X012630Y003974D01*
X012630Y003226D02*
X013638Y003226D01*
X013760Y003104D01*
X014385Y003100D01*
X014572Y002912D01*
X014572Y002600D01*
X015635Y002587D02*
X015895Y002587D01*
X015967Y002685D02*
X015635Y002685D01*
X015635Y002784D02*
X015993Y002784D01*
X016092Y002882D02*
X015635Y002882D01*
X015635Y002981D02*
X029531Y002981D01*
X029531Y003079D02*
X015635Y003079D01*
X015635Y003178D02*
X029531Y003178D01*
X029531Y003276D02*
X015635Y003276D01*
X015635Y003375D02*
X029531Y003375D01*
X029531Y003473D02*
X015635Y003473D01*
X015635Y003572D02*
X029531Y003572D01*
X029531Y003670D02*
X015635Y003670D01*
X015894Y003769D02*
X015991Y003769D01*
X015991Y003691D02*
X016238Y003691D01*
X016276Y003701D01*
X016310Y003721D01*
X016338Y003748D01*
X016358Y003783D01*
X016368Y003821D01*
X016368Y003989D01*
X015991Y003989D01*
X015991Y003691D01*
X015991Y003867D02*
X015894Y003867D01*
X015894Y003966D02*
X015991Y003966D01*
X015991Y004064D02*
X029531Y004064D01*
X029531Y003966D02*
X016368Y003966D01*
X016368Y003867D02*
X029531Y003867D01*
X029531Y003769D02*
X016350Y003769D01*
X016368Y004086D02*
X015991Y004086D01*
X015991Y004384D01*
X016238Y004384D01*
X016276Y004374D01*
X016310Y004354D01*
X016338Y004326D01*
X016358Y004292D01*
X016368Y004254D01*
X016368Y004086D01*
X016368Y004163D02*
X029531Y004163D01*
X029531Y004261D02*
X016366Y004261D01*
X016301Y004360D02*
X029531Y004360D01*
X029531Y004458D02*
X015635Y004458D01*
X015635Y004557D02*
X029531Y004557D01*
X029531Y004655D02*
X015635Y004655D01*
X015635Y004754D02*
X029531Y004754D01*
X029531Y004852D02*
X015635Y004852D01*
X015635Y004951D02*
X029531Y004951D01*
X029531Y005049D02*
X015635Y005049D01*
X015635Y005148D02*
X029531Y005148D01*
X029531Y005246D02*
X015635Y005246D01*
X015635Y005345D02*
X029531Y005345D01*
X029531Y005443D02*
X015635Y005443D01*
X015635Y005542D02*
X029531Y005542D01*
X029531Y005640D02*
X015635Y005640D01*
X014600Y006527D02*
X016784Y006527D01*
X016784Y006544D02*
X016784Y006544D01*
X016785Y006625D02*
X014798Y006625D01*
X014896Y006724D02*
X016785Y006724D01*
X016785Y006822D02*
X014927Y006822D01*
X014927Y006921D02*
X016785Y006921D01*
X016786Y007019D02*
X014853Y007019D01*
X014697Y006850D02*
X013072Y005225D01*
X012697Y005225D01*
X011965Y004993D02*
X011965Y006343D01*
X011965Y006350D01*
X012550Y006350D01*
X012857Y006231D02*
X012912Y006231D01*
X012912Y006133D02*
X012857Y006133D01*
X012803Y006034D02*
X012966Y006034D01*
X013360Y005739D02*
X012125Y005739D01*
X012125Y005837D02*
X013458Y005837D01*
X013557Y005936D02*
X012125Y005936D01*
X012125Y006034D02*
X012296Y006034D01*
X012243Y006133D02*
X012144Y006133D01*
X012144Y006527D02*
X012243Y006527D01*
X012256Y006625D02*
X012084Y006625D01*
X012294Y006724D02*
X011869Y006724D01*
X011896Y006822D02*
X012243Y006822D01*
X011697Y007412D02*
X011453Y007168D01*
X011453Y006343D01*
X010143Y005739D02*
X010046Y005739D01*
X010046Y005640D02*
X010143Y005640D01*
X010143Y005542D02*
X010046Y005542D01*
X010046Y005426D02*
X010143Y005426D01*
X010143Y005128D01*
X010330Y005128D01*
X010369Y005138D01*
X010403Y005158D01*
X010431Y005186D01*
X010447Y005214D01*
X010447Y005100D01*
X009048Y005100D01*
X008936Y005212D01*
X009000Y005276D01*
X009000Y005358D01*
X009098Y005358D01*
X009098Y005232D01*
X009163Y005168D01*
X009687Y005168D01*
X009738Y005219D01*
X009758Y005186D01*
X009786Y005158D01*
X009820Y005138D01*
X009858Y005128D01*
X010046Y005128D01*
X010046Y005426D01*
X010046Y005345D02*
X010143Y005345D01*
X010143Y005246D02*
X010046Y005246D01*
X010046Y005148D02*
X010143Y005148D01*
X010385Y005148D02*
X010447Y005148D01*
X009803Y005148D02*
X009000Y005148D01*
X008971Y005246D02*
X009098Y005246D01*
X009098Y005345D02*
X009000Y005345D01*
X008841Y005518D02*
X009382Y005518D01*
X009425Y005475D01*
X009730Y005739D02*
X009743Y005739D01*
X009120Y005739D02*
X009000Y005739D01*
X008644Y005518D02*
X008644Y006403D01*
X008635Y006412D01*
X008644Y006835D02*
X008644Y007182D01*
X008644Y006835D01*
X008644Y006921D02*
X008644Y006921D01*
X008644Y007019D02*
X008644Y007019D01*
X008644Y007118D02*
X008644Y007118D01*
X008644Y007182D02*
X008644Y007182D01*
X008447Y007182D02*
X008447Y007412D01*
X008510Y007475D01*
X008510Y007850D01*
X008385Y007975D01*
X008155Y008004D02*
X008081Y008004D01*
X007983Y008103D02*
X008187Y008103D01*
X008286Y008201D02*
X007884Y008201D01*
X007786Y008300D02*
X011565Y008300D01*
X010568Y008891D02*
X010547Y008891D01*
X013572Y007037D02*
X013822Y006787D01*
X013659Y006625D02*
X013513Y006625D01*
X013526Y006527D02*
X014148Y006527D01*
X014246Y006625D02*
X013985Y006625D01*
X014052Y006724D02*
X014345Y006724D01*
X014443Y006822D02*
X014052Y006822D01*
X014014Y006921D02*
X014467Y006921D01*
X014541Y007019D02*
X013816Y007019D01*
X013718Y007118D02*
X016786Y007118D01*
X016784Y006428D02*
X014502Y006428D01*
X014403Y006330D02*
X016866Y006330D01*
X016964Y006231D02*
X014305Y006231D01*
X014206Y006133D02*
X017063Y006133D01*
X015991Y004360D02*
X015894Y004360D01*
X015894Y004261D02*
X015991Y004261D01*
X015991Y004163D02*
X015894Y004163D01*
X014135Y004765D02*
X014135Y005287D01*
X014135Y004765D02*
X014094Y004725D01*
X013425Y004725D02*
X013425Y004010D01*
X012826Y002720D02*
X013260Y002287D01*
X015822Y002287D01*
X016197Y002662D01*
X016348Y002488D02*
X025894Y002488D01*
X025904Y002513D02*
X025791Y002241D01*
X025791Y001946D01*
X025904Y001674D01*
X026112Y001466D01*
X026384Y001353D01*
X026679Y001353D01*
X026951Y001466D01*
X027159Y001674D01*
X027272Y001946D01*
X027272Y002241D01*
X027159Y002513D01*
X026951Y002721D01*
X026679Y002834D01*
X026384Y002834D01*
X026112Y002721D01*
X025904Y002513D01*
X025978Y002587D02*
X016427Y002587D01*
X016427Y002685D02*
X026076Y002685D01*
X026263Y002784D02*
X016401Y002784D01*
X016302Y002882D02*
X029531Y002882D01*
X029432Y002820D02*
X029432Y002820D01*
X029325Y002784D02*
X026800Y002784D01*
X026987Y002685D02*
X029028Y002685D01*
X028976Y002668D02*
X028976Y002668D01*
X028853Y002587D02*
X027086Y002587D01*
X027170Y002488D02*
X028703Y002488D01*
X028562Y002390D02*
X027210Y002390D01*
X027251Y002291D02*
X028475Y002291D01*
X028387Y002193D02*
X027272Y002193D01*
X027272Y002094D02*
X028300Y002094D01*
X028255Y002044D02*
X028255Y002044D01*
X028231Y001996D02*
X027272Y001996D01*
X027252Y001897D02*
X028181Y001897D01*
X028132Y001799D02*
X027211Y001799D01*
X027170Y001700D02*
X028083Y001700D01*
X028037Y001602D02*
X027087Y001602D01*
X026989Y001503D02*
X028017Y001503D01*
X027996Y001405D02*
X026804Y001405D01*
X026259Y001405D02*
X015635Y001405D01*
X015635Y001503D02*
X026074Y001503D01*
X025976Y001602D02*
X015635Y001602D01*
X015635Y001700D02*
X025893Y001700D01*
X025852Y001799D02*
X015635Y001799D01*
X015635Y001897D02*
X025811Y001897D01*
X025791Y001996D02*
X015635Y001996D01*
X015635Y002094D02*
X025791Y002094D01*
X025791Y002193D02*
X015954Y002193D01*
X016052Y002291D02*
X025812Y002291D01*
X025853Y002390D02*
X016151Y002390D01*
X015797Y002488D02*
X015635Y002488D01*
X014072Y001662D02*
X014010Y001600D01*
X013532Y001600D01*
X012862Y001600D02*
X012549Y001913D01*
X011514Y001913D01*
X011455Y001854D01*
X010821Y001854D01*
X010506Y002287D02*
X010073Y001854D01*
X009885Y002043D01*
X009885Y003453D01*
X009300Y003453D01*
X009260Y003412D01*
X009010Y003725D02*
X008822Y003537D01*
X008135Y003537D01*
X008135Y002997D01*
X008135Y003537D02*
X006816Y003537D01*
X006508Y003846D01*
X004886Y003846D01*
X008644Y005278D02*
X009010Y004912D01*
X008644Y005278D02*
X008644Y005518D01*
X009010Y004122D02*
X009010Y003725D01*
X010447Y002720D02*
X011455Y002720D01*
X012826Y002720D01*
X012380Y002287D02*
X010506Y002287D01*
X011455Y002720D02*
X011514Y002661D01*
X010760Y003453D02*
X010737Y003475D01*
X010697Y003475D01*
X010760Y003453D02*
X010760Y003537D01*
X011385Y004412D02*
X011965Y004993D01*
X013473Y006034D02*
X013655Y006034D01*
X013754Y006133D02*
X013526Y006133D01*
X013526Y006231D02*
X013852Y006231D01*
X013951Y006330D02*
X013526Y006330D01*
X013526Y006428D02*
X014049Y006428D01*
X014108Y006034D02*
X029531Y006034D01*
X029531Y005936D02*
X014009Y005936D01*
X013911Y005837D02*
X029531Y005837D01*
X029531Y005739D02*
X013812Y005739D01*
X013592Y006724D02*
X013475Y006724D01*
X013526Y006822D02*
X013561Y006822D01*
X020626Y010467D02*
X020723Y010467D01*
X020723Y010565D02*
X020626Y010565D01*
X020626Y010664D02*
X020723Y010664D01*
X015635Y001306D02*
X027976Y001306D01*
X027956Y001208D02*
X015635Y001208D01*
X015635Y001109D02*
X027945Y001109D01*
X027943Y001144D02*
X027943Y001144D01*
M02*
