G75*
%MOIN*%
%OFA0B0*%
%FSLAX24Y24*%
%IPPOS*%
%LPD*%
%AMOC8*
5,1,8,0,0,1.08239X$1,22.5*
%
%ADD10C,0.0080*%
%ADD11C,0.0060*%
%ADD12C,0.0050*%
%ADD13C,0.0040*%
%ADD14C,0.0200*%
%ADD15C,0.0100*%
%ADD16C,0.0000*%
%ADD17R,0.0118X0.0059*%
%ADD18R,0.0118X0.0118*%
D10*
X002311Y003843D02*
X003388Y003843D01*
X004188Y004443D02*
X004188Y005132D01*
X003388Y005732D02*
X002311Y005732D01*
X001511Y005132D02*
X001511Y004443D01*
X004789Y006801D02*
X004789Y007024D01*
X007239Y009474D01*
X007461Y009474D01*
X009911Y007024D01*
X009911Y006801D01*
X007461Y004351D01*
X007239Y004351D01*
X004789Y006801D01*
X013202Y001835D02*
X013202Y001675D01*
X013363Y001515D01*
X013546Y001595D02*
X013626Y001515D01*
X013866Y001515D01*
X014062Y001515D02*
X014222Y001675D01*
X014222Y001835D01*
X014062Y001995D01*
X013866Y001835D02*
X013626Y001835D01*
X013546Y001755D01*
X013546Y001595D01*
X013202Y001835D02*
X013363Y001995D01*
X014406Y001915D02*
X014486Y001995D01*
X014646Y001995D01*
X014726Y001915D01*
X014726Y001835D01*
X014406Y001515D01*
X014726Y001515D01*
X014921Y001595D02*
X015241Y001915D01*
X015241Y001595D01*
X015161Y001515D01*
X015001Y001515D01*
X014921Y001595D01*
X014921Y001915D01*
X015001Y001995D01*
X015161Y001995D01*
X015241Y001915D01*
X015437Y001835D02*
X015597Y001995D01*
X015597Y001515D01*
X015437Y001515D02*
X015757Y001515D01*
X015952Y001595D02*
X016033Y001515D01*
X016193Y001515D01*
X016273Y001595D01*
X016273Y001755D01*
X016193Y001835D01*
X016113Y001835D01*
X015952Y001755D01*
X015952Y001995D01*
X016273Y001995D01*
X016984Y001995D02*
X016984Y001515D01*
X016984Y001755D02*
X017304Y001755D01*
X017499Y001755D02*
X017579Y001835D01*
X017740Y001835D01*
X017820Y001755D01*
X017820Y001675D01*
X017499Y001675D01*
X017499Y001595D02*
X017499Y001755D01*
X017499Y001595D02*
X017579Y001515D01*
X017740Y001515D01*
X018015Y001515D02*
X018015Y001835D01*
X018255Y001835D01*
X018335Y001755D01*
X018335Y001515D01*
X018531Y001595D02*
X018531Y001755D01*
X018611Y001835D01*
X018851Y001835D01*
X018851Y001995D02*
X018851Y001515D01*
X018611Y001515D01*
X018531Y001595D01*
X019046Y001675D02*
X019206Y001835D01*
X019287Y001835D01*
X019476Y001835D02*
X019556Y001835D01*
X019556Y001515D01*
X019476Y001515D02*
X019636Y001515D01*
X019820Y001515D02*
X019820Y001995D01*
X019556Y001995D02*
X019556Y002075D01*
X019820Y001675D02*
X020060Y001835D01*
X019820Y001675D02*
X020060Y001515D01*
X020765Y001515D02*
X021085Y001515D01*
X021281Y001595D02*
X021361Y001515D01*
X021601Y001515D01*
X021601Y001835D01*
X021521Y001995D02*
X021521Y002075D01*
X021361Y002075D02*
X021361Y001995D01*
X021281Y001835D02*
X021281Y001595D01*
X021796Y001835D02*
X021957Y001835D01*
X021876Y001915D02*
X021876Y001595D01*
X021957Y001515D01*
X022140Y001515D02*
X022140Y001995D01*
X022220Y001835D02*
X022380Y001835D01*
X022460Y001755D01*
X022460Y001515D01*
X022140Y001755D02*
X022220Y001835D01*
X020765Y001995D02*
X020765Y001515D01*
X019046Y001515D02*
X019046Y001835D01*
X017304Y001995D02*
X017304Y001515D01*
X024731Y008578D02*
X025597Y008578D01*
X026857Y008696D02*
X028432Y008696D01*
X028432Y010979D01*
X028550Y011176D01*
X029377Y011176D01*
X029495Y010979D01*
X029495Y008696D01*
X029731Y008696D01*
X029731Y010979D01*
X029495Y010979D01*
X028432Y010979D02*
X026857Y010979D01*
X026424Y010271D02*
X026424Y009405D01*
X024495Y009838D02*
X024497Y009889D01*
X024503Y009940D01*
X024513Y009990D01*
X024526Y010040D01*
X024544Y010088D01*
X024564Y010135D01*
X024589Y010180D01*
X024617Y010223D01*
X024648Y010264D01*
X024682Y010302D01*
X024719Y010337D01*
X024758Y010370D01*
X024800Y010400D01*
X024844Y010426D01*
X024890Y010448D01*
X024938Y010468D01*
X024987Y010483D01*
X025037Y010495D01*
X025087Y010503D01*
X025138Y010507D01*
X025190Y010507D01*
X025241Y010503D01*
X025291Y010495D01*
X025341Y010483D01*
X025390Y010468D01*
X025438Y010448D01*
X025484Y010426D01*
X025528Y010400D01*
X025570Y010370D01*
X025609Y010337D01*
X025646Y010302D01*
X025680Y010264D01*
X025711Y010223D01*
X025739Y010180D01*
X025764Y010135D01*
X025784Y010088D01*
X025802Y010040D01*
X025815Y009990D01*
X025825Y009940D01*
X025831Y009889D01*
X025833Y009838D01*
X025831Y009787D01*
X025825Y009736D01*
X025815Y009686D01*
X025802Y009636D01*
X025784Y009588D01*
X025764Y009541D01*
X025739Y009496D01*
X025711Y009453D01*
X025680Y009412D01*
X025646Y009374D01*
X025609Y009339D01*
X025570Y009306D01*
X025528Y009276D01*
X025484Y009250D01*
X025438Y009228D01*
X025390Y009208D01*
X025341Y009193D01*
X025291Y009181D01*
X025241Y009173D01*
X025190Y009169D01*
X025138Y009169D01*
X025087Y009173D01*
X025037Y009181D01*
X024987Y009193D01*
X024938Y009208D01*
X024890Y009228D01*
X024844Y009250D01*
X024800Y009276D01*
X024758Y009306D01*
X024719Y009339D01*
X024682Y009374D01*
X024648Y009412D01*
X024617Y009453D01*
X024589Y009496D01*
X024564Y009541D01*
X024544Y009588D01*
X024526Y009636D01*
X024513Y009686D01*
X024503Y009736D01*
X024497Y009787D01*
X024495Y009838D01*
X023905Y009405D02*
X023905Y010271D01*
X024731Y011097D02*
X025597Y011097D01*
X028432Y008696D02*
X028550Y008499D01*
X029377Y008499D01*
X029495Y008696D01*
X010737Y015372D02*
X010737Y017953D01*
X009337Y017953D01*
X009337Y015372D01*
X010737Y015372D01*
X010425Y015140D02*
X010425Y012560D01*
X009025Y012560D01*
X009025Y015140D01*
X010425Y015140D01*
D11*
X018067Y007075D02*
X018067Y006755D01*
X018281Y006755D01*
X018417Y006808D02*
X018471Y006862D01*
X018631Y006862D01*
X018631Y006915D02*
X018631Y006755D01*
X018471Y006755D01*
X018417Y006808D01*
X018471Y006968D02*
X018577Y006968D01*
X018631Y006915D01*
X018767Y006968D02*
X018927Y006968D01*
X018981Y006915D01*
X018981Y006808D01*
X018927Y006755D01*
X018767Y006755D01*
X018767Y007075D01*
X019117Y007022D02*
X019117Y006808D01*
X019170Y006755D01*
X019277Y006755D01*
X019331Y006808D01*
X019467Y006808D02*
X019467Y006915D01*
X019520Y006968D01*
X019627Y006968D01*
X019681Y006915D01*
X019681Y006808D01*
X019627Y006755D01*
X019520Y006755D01*
X019467Y006808D01*
X019331Y007022D02*
X019277Y007075D01*
X019170Y007075D01*
X019117Y007022D01*
X019817Y006968D02*
X019817Y006755D01*
X020030Y006755D02*
X020030Y006915D01*
X019977Y006968D01*
X019817Y006968D01*
X020167Y006968D02*
X020167Y006755D01*
X020380Y006755D02*
X020380Y006915D01*
X020327Y006968D01*
X020167Y006968D01*
X020517Y006915D02*
X020517Y006808D01*
X020570Y006755D01*
X020677Y006755D01*
X020730Y006862D02*
X020517Y006862D01*
X020517Y006915D02*
X020570Y006968D01*
X020677Y006968D01*
X020730Y006915D01*
X020730Y006862D01*
X020867Y006915D02*
X020867Y006808D01*
X020920Y006755D01*
X021080Y006755D01*
X021270Y006808D02*
X021270Y007022D01*
X021323Y006968D02*
X021216Y006968D01*
X021080Y006968D02*
X020920Y006968D01*
X020867Y006915D01*
X021270Y006808D02*
X021323Y006755D01*
X021800Y006808D02*
X021853Y006755D01*
X021960Y006755D01*
X022013Y006808D01*
X022013Y006862D01*
X021960Y006915D01*
X021853Y006915D01*
X021800Y006968D01*
X021800Y007022D01*
X021853Y007075D01*
X021960Y007075D01*
X022013Y007022D01*
X022150Y006968D02*
X022203Y006968D01*
X022203Y006755D01*
X022150Y006755D02*
X022256Y006755D01*
X022383Y006808D02*
X022436Y006755D01*
X022596Y006755D01*
X022596Y006702D02*
X022596Y006968D01*
X022436Y006968D01*
X022383Y006915D01*
X022383Y006808D01*
X022490Y006648D02*
X022543Y006648D01*
X022596Y006702D01*
X022733Y006755D02*
X022733Y006968D01*
X022893Y006968D01*
X022946Y006915D01*
X022946Y006755D01*
X023083Y006808D02*
X023136Y006862D01*
X023296Y006862D01*
X023296Y006915D02*
X023296Y006755D01*
X023136Y006755D01*
X023083Y006808D01*
X023136Y006968D02*
X023243Y006968D01*
X023296Y006915D01*
X023433Y006755D02*
X023539Y006755D01*
X023486Y006755D02*
X023486Y007075D01*
X023433Y007075D01*
X023666Y006915D02*
X023666Y006808D01*
X023719Y006755D01*
X023879Y006755D01*
X023879Y006702D02*
X023879Y006968D01*
X023719Y006968D01*
X023666Y006915D01*
X023773Y006648D02*
X023826Y006648D01*
X023879Y006702D01*
X024016Y006808D02*
X024016Y006915D01*
X024069Y006968D01*
X024176Y006968D01*
X024229Y006915D01*
X024229Y006862D01*
X024016Y006862D01*
X024016Y006808D02*
X024069Y006755D01*
X024176Y006755D01*
X024366Y006755D02*
X024366Y006968D01*
X024526Y006968D01*
X024579Y006915D01*
X024579Y006755D01*
X024715Y006808D02*
X024715Y006915D01*
X024769Y006968D01*
X024876Y006968D01*
X024929Y006915D01*
X024929Y006862D01*
X024715Y006862D01*
X024715Y006808D02*
X024769Y006755D01*
X024876Y006755D01*
X025065Y006755D02*
X025065Y006968D01*
X025065Y006862D02*
X025172Y006968D01*
X025225Y006968D01*
X025410Y006968D02*
X025517Y006968D01*
X025570Y006915D01*
X025570Y006755D01*
X025410Y006755D01*
X025357Y006808D01*
X025410Y006862D01*
X025570Y006862D01*
X025707Y006968D02*
X025814Y006968D01*
X025760Y007022D02*
X025760Y006808D01*
X025814Y006755D01*
X025940Y006808D02*
X025993Y006755D01*
X026100Y006755D01*
X026154Y006808D01*
X026154Y006915D01*
X026100Y006968D01*
X025993Y006968D01*
X025940Y006915D01*
X025940Y006808D01*
X026290Y006755D02*
X026290Y006968D01*
X026290Y006862D02*
X026397Y006968D01*
X026450Y006968D01*
X022203Y007075D02*
X022203Y007129D01*
X011147Y005785D02*
X010722Y006209D01*
X010723Y006209D02*
X010709Y006220D01*
X010694Y006229D01*
X010678Y006235D01*
X010661Y006238D01*
X010643Y006238D01*
X010626Y006235D01*
X010610Y006229D01*
X010595Y006220D01*
X010581Y006209D01*
X009803Y005431D01*
X009803Y005432D02*
X009792Y005418D01*
X009783Y005403D01*
X009777Y005387D01*
X009774Y005370D01*
X009774Y005352D01*
X009777Y005335D01*
X009783Y005319D01*
X009792Y005304D01*
X009803Y005290D01*
X010227Y004866D01*
X010227Y004865D02*
X010241Y004854D01*
X010256Y004845D01*
X010272Y004839D01*
X010289Y004836D01*
X010307Y004836D01*
X010324Y004839D01*
X010340Y004845D01*
X010355Y004854D01*
X010369Y004865D01*
X010369Y004866D02*
X011147Y005643D01*
X011158Y005657D01*
X011167Y005672D01*
X011173Y005688D01*
X011176Y005705D01*
X011176Y005723D01*
X011173Y005740D01*
X011167Y005756D01*
X011158Y005771D01*
X011147Y005785D01*
D12*
X017937Y006125D02*
X017937Y006435D01*
X017989Y006332D02*
X018093Y006332D01*
X018144Y006280D01*
X018144Y006125D01*
X018321Y006177D02*
X018321Y006383D01*
X018269Y006332D02*
X018372Y006332D01*
X018490Y006332D02*
X018593Y006332D01*
X018542Y006383D02*
X018542Y006177D01*
X018593Y006125D01*
X018711Y006125D02*
X018866Y006125D01*
X018918Y006177D01*
X018918Y006280D01*
X018866Y006332D01*
X018711Y006332D01*
X018711Y006021D01*
X019042Y006125D02*
X019197Y006125D01*
X019249Y006177D01*
X019197Y006228D01*
X019094Y006228D01*
X019042Y006280D01*
X019094Y006332D01*
X019249Y006332D01*
X019374Y006332D02*
X019374Y006280D01*
X019426Y006280D01*
X019426Y006332D01*
X019374Y006332D01*
X019374Y006177D02*
X019374Y006125D01*
X019426Y006125D01*
X019426Y006177D01*
X019374Y006177D01*
X019540Y006125D02*
X019746Y006435D01*
X020078Y006435D02*
X019871Y006125D01*
X020203Y006177D02*
X020203Y006280D01*
X020254Y006332D01*
X020409Y006332D01*
X020409Y006073D01*
X020358Y006021D01*
X020306Y006021D01*
X020254Y006125D02*
X020409Y006125D01*
X020534Y006125D02*
X020637Y006125D01*
X020586Y006125D02*
X020586Y006332D01*
X020534Y006332D01*
X020586Y006435D02*
X020586Y006487D01*
X020755Y006332D02*
X020858Y006332D01*
X020807Y006383D02*
X020807Y006177D01*
X020858Y006125D01*
X020976Y006125D02*
X020976Y006435D01*
X021028Y006332D02*
X021131Y006332D01*
X021183Y006280D01*
X021183Y006125D01*
X021307Y006177D02*
X021307Y006332D01*
X021307Y006177D02*
X021359Y006125D01*
X021514Y006125D01*
X021514Y006332D01*
X021639Y006332D02*
X021794Y006332D01*
X021846Y006280D01*
X021846Y006177D01*
X021794Y006125D01*
X021639Y006125D01*
X021639Y006435D01*
X021970Y006177D02*
X022022Y006177D01*
X022022Y006125D01*
X021970Y006125D01*
X021970Y006177D01*
X022136Y006177D02*
X022136Y006280D01*
X022188Y006332D01*
X022343Y006332D01*
X022468Y006280D02*
X022468Y006177D01*
X022519Y006125D01*
X022623Y006125D01*
X022675Y006177D01*
X022675Y006280D01*
X022623Y006332D01*
X022519Y006332D01*
X022468Y006280D01*
X022343Y006125D02*
X022188Y006125D01*
X022136Y006177D01*
X022799Y006125D02*
X022799Y006332D01*
X022851Y006332D01*
X022903Y006280D01*
X022954Y006332D01*
X023006Y006280D01*
X023006Y006125D01*
X022903Y006125D02*
X022903Y006280D01*
X023131Y006125D02*
X023337Y006435D01*
X023462Y006435D02*
X023462Y006125D01*
X023669Y006125D01*
X023794Y006177D02*
X023845Y006228D01*
X024000Y006228D01*
X024000Y006280D02*
X024000Y006125D01*
X023845Y006125D01*
X023794Y006177D01*
X023845Y006332D02*
X023949Y006332D01*
X024000Y006280D01*
X024125Y006332D02*
X024280Y006332D01*
X024332Y006280D01*
X024332Y006177D01*
X024280Y006125D01*
X024125Y006125D01*
X024125Y006435D01*
X024457Y006383D02*
X024457Y006177D01*
X024508Y006125D01*
X024612Y006125D01*
X024663Y006177D01*
X024788Y006177D02*
X024840Y006125D01*
X024943Y006125D01*
X024995Y006177D01*
X024995Y006280D01*
X024943Y006332D01*
X024840Y006332D01*
X024788Y006280D01*
X024788Y006177D01*
X024663Y006383D02*
X024612Y006435D01*
X024508Y006435D01*
X024457Y006383D01*
X025120Y006332D02*
X025120Y006125D01*
X025326Y006125D02*
X025326Y006280D01*
X025275Y006332D01*
X025120Y006332D01*
X025451Y006332D02*
X025451Y006125D01*
X025451Y006332D02*
X025606Y006332D01*
X025658Y006280D01*
X025658Y006125D01*
X025782Y006177D02*
X025782Y006280D01*
X025834Y006332D01*
X025938Y006332D01*
X025989Y006280D01*
X025989Y006228D01*
X025782Y006228D01*
X025782Y006177D02*
X025834Y006125D01*
X025938Y006125D01*
X026114Y006177D02*
X026114Y006280D01*
X026166Y006332D01*
X026321Y006332D01*
X026445Y006332D02*
X026549Y006332D01*
X026497Y006383D02*
X026497Y006177D01*
X026549Y006125D01*
X026321Y006125D02*
X026166Y006125D01*
X026114Y006177D01*
X021028Y006332D02*
X020976Y006280D01*
X020254Y006125D02*
X020203Y006177D01*
X018372Y006125D02*
X018321Y006177D01*
X017989Y006332D02*
X017937Y006280D01*
X003440Y012072D02*
X003440Y013253D01*
X002259Y013253D01*
X002259Y012072D01*
X003440Y012072D01*
X002338Y012662D02*
X002340Y012707D01*
X002346Y012751D01*
X002355Y012795D01*
X002369Y012837D01*
X002386Y012878D01*
X002407Y012918D01*
X002431Y012956D01*
X002458Y012991D01*
X002488Y013024D01*
X002521Y013054D01*
X002556Y013081D01*
X002594Y013105D01*
X002634Y013126D01*
X002675Y013143D01*
X002717Y013157D01*
X002761Y013166D01*
X002805Y013172D01*
X002850Y013174D01*
X002895Y013172D01*
X002939Y013166D01*
X002983Y013157D01*
X003025Y013143D01*
X003066Y013126D01*
X003106Y013105D01*
X003144Y013081D01*
X003179Y013054D01*
X003212Y013024D01*
X003242Y012991D01*
X003269Y012956D01*
X003293Y012918D01*
X003314Y012878D01*
X003331Y012837D01*
X003345Y012795D01*
X003354Y012751D01*
X003360Y012707D01*
X003362Y012662D01*
X003360Y012617D01*
X003354Y012573D01*
X003345Y012529D01*
X003331Y012487D01*
X003314Y012446D01*
X003293Y012406D01*
X003269Y012368D01*
X003242Y012333D01*
X003212Y012300D01*
X003179Y012270D01*
X003144Y012243D01*
X003106Y012219D01*
X003066Y012198D01*
X003025Y012181D01*
X002983Y012167D01*
X002939Y012158D01*
X002895Y012152D01*
X002850Y012150D01*
X002805Y012152D01*
X002761Y012158D01*
X002717Y012167D01*
X002675Y012181D01*
X002634Y012198D01*
X002594Y012219D01*
X002556Y012243D01*
X002521Y012270D01*
X002488Y012300D01*
X002458Y012333D01*
X002431Y012368D01*
X002407Y012406D01*
X002386Y012446D01*
X002369Y012487D01*
X002355Y012529D01*
X002346Y012573D01*
X002340Y012617D01*
X002338Y012662D01*
X002605Y011345D02*
X000361Y011345D01*
X000361Y008196D01*
X002605Y008196D01*
X002605Y011345D01*
D13*
X008425Y014760D02*
X008565Y014620D01*
X008565Y014807D01*
X008705Y014760D02*
X008425Y014760D01*
X011125Y014412D02*
X011171Y014459D01*
X011218Y014459D01*
X011265Y014412D01*
X011311Y014459D01*
X011358Y014459D01*
X011405Y014412D01*
X011405Y014318D01*
X011358Y014272D01*
X011265Y014365D02*
X011265Y014412D01*
X011125Y014412D02*
X011125Y014318D01*
X011171Y014272D01*
X011175Y013549D02*
X011128Y013502D01*
X011128Y013408D01*
X011175Y013362D01*
X011175Y013549D02*
X011222Y013549D01*
X011409Y013362D01*
X011409Y013549D01*
X011405Y012697D02*
X011405Y012511D01*
X011405Y012604D02*
X011125Y012604D01*
X011218Y012511D01*
D14*
X003950Y005087D03*
D15*
X007239Y009140D02*
X007241Y009160D01*
X007246Y009180D01*
X007256Y009198D01*
X007268Y009215D01*
X007283Y009229D01*
X007301Y009239D01*
X007320Y009247D01*
X007340Y009251D01*
X007360Y009251D01*
X007380Y009247D01*
X007399Y009239D01*
X007417Y009229D01*
X007432Y009215D01*
X007444Y009198D01*
X007454Y009180D01*
X007459Y009160D01*
X007461Y009140D01*
X007459Y009120D01*
X007454Y009100D01*
X007444Y009082D01*
X007432Y009065D01*
X007417Y009051D01*
X007399Y009041D01*
X007380Y009033D01*
X007360Y009029D01*
X007340Y009029D01*
X007320Y009033D01*
X007301Y009041D01*
X007283Y009051D01*
X007268Y009065D01*
X007256Y009082D01*
X007246Y009100D01*
X007241Y009120D01*
X007239Y009140D01*
X006657Y011132D02*
X006657Y011526D01*
X006657Y011132D02*
X007917Y011132D01*
X007917Y011211D01*
X007917Y011900D02*
X007917Y012175D01*
X007917Y012864D02*
X007917Y012943D01*
X006657Y012943D01*
X006657Y012549D01*
X006505Y015157D02*
X006427Y015157D01*
X006505Y015157D02*
X006505Y016417D01*
X006112Y016417D01*
X005088Y016417D02*
X004694Y016417D01*
X004694Y015157D01*
X004773Y015157D01*
X005462Y015157D02*
X005738Y015157D01*
X012007Y016720D02*
X012007Y017980D01*
X012086Y017980D01*
X012775Y017980D02*
X013050Y017980D01*
X013739Y017980D02*
X013818Y017980D01*
X013818Y016720D01*
X013424Y016720D01*
X012401Y016720D02*
X012007Y016720D01*
X016157Y007193D02*
X017417Y007193D01*
X017417Y007114D01*
X017417Y006425D02*
X017417Y006150D01*
X017417Y005461D02*
X017417Y005382D01*
X016157Y005382D01*
X016157Y005776D01*
X016157Y006799D02*
X016157Y007193D01*
X013505Y006230D02*
X013505Y004970D01*
X013112Y004970D01*
X012088Y004970D02*
X011694Y004970D01*
X011694Y006230D01*
X011773Y006230D01*
X012462Y006230D02*
X012738Y006230D01*
X013427Y006230D02*
X013505Y006230D01*
D16*
X002487Y001109D02*
X002485Y001186D01*
X002479Y001263D01*
X002470Y001340D01*
X002457Y001416D01*
X002440Y001492D01*
X002419Y001566D01*
X002395Y001640D01*
X002367Y001712D01*
X002336Y001782D01*
X002301Y001851D01*
X002263Y001919D01*
X002222Y001984D01*
X002177Y002047D01*
X002129Y002108D01*
X002079Y002167D01*
X002026Y002223D01*
X001970Y002276D01*
X001911Y002326D01*
X001850Y002374D01*
X001787Y002419D01*
X001722Y002460D01*
X001654Y002498D01*
X001585Y002533D01*
X001515Y002564D01*
X001443Y002592D01*
X001369Y002616D01*
X001295Y002637D01*
X001219Y002654D01*
X001143Y002667D01*
X001066Y002676D01*
X000989Y002682D01*
X000912Y002684D01*
X000912Y016857D01*
X000989Y016859D01*
X001066Y016865D01*
X001143Y016874D01*
X001219Y016887D01*
X001295Y016904D01*
X001369Y016925D01*
X001443Y016949D01*
X001515Y016977D01*
X001585Y017008D01*
X001654Y017043D01*
X001722Y017081D01*
X001787Y017122D01*
X001850Y017167D01*
X001911Y017215D01*
X001970Y017265D01*
X002026Y017318D01*
X002079Y017374D01*
X002129Y017433D01*
X002177Y017494D01*
X002222Y017557D01*
X002263Y017622D01*
X002301Y017690D01*
X002336Y017759D01*
X002367Y017829D01*
X002395Y017901D01*
X002419Y017975D01*
X002440Y018049D01*
X002457Y018125D01*
X002470Y018201D01*
X002479Y018278D01*
X002485Y018355D01*
X002487Y018432D01*
X002487Y018629D01*
X025322Y018629D01*
X025322Y018432D01*
X023156Y017448D02*
X023158Y017496D01*
X023164Y017544D01*
X023174Y017591D01*
X023187Y017637D01*
X023205Y017682D01*
X023225Y017726D01*
X023250Y017768D01*
X023278Y017807D01*
X023308Y017844D01*
X023342Y017878D01*
X023379Y017910D01*
X023417Y017939D01*
X023458Y017964D01*
X023501Y017986D01*
X023546Y018004D01*
X023592Y018018D01*
X023639Y018029D01*
X023687Y018036D01*
X023735Y018039D01*
X023783Y018038D01*
X023831Y018033D01*
X023879Y018024D01*
X023925Y018012D01*
X023970Y017995D01*
X024014Y017975D01*
X024056Y017952D01*
X024096Y017925D01*
X024134Y017895D01*
X024169Y017862D01*
X024201Y017826D01*
X024231Y017788D01*
X024257Y017747D01*
X024279Y017704D01*
X024299Y017660D01*
X024314Y017615D01*
X024326Y017568D01*
X024334Y017520D01*
X024338Y017472D01*
X024338Y017424D01*
X024334Y017376D01*
X024326Y017328D01*
X024314Y017281D01*
X024299Y017236D01*
X024279Y017192D01*
X024257Y017149D01*
X024231Y017108D01*
X024201Y017070D01*
X024169Y017034D01*
X024134Y017001D01*
X024096Y016971D01*
X024056Y016944D01*
X024014Y016921D01*
X023970Y016901D01*
X023925Y016884D01*
X023879Y016872D01*
X023831Y016863D01*
X023783Y016858D01*
X023735Y016857D01*
X023687Y016860D01*
X023639Y016867D01*
X023592Y016878D01*
X023546Y016892D01*
X023501Y016910D01*
X023458Y016932D01*
X023417Y016957D01*
X023379Y016986D01*
X023342Y017018D01*
X023308Y017052D01*
X023278Y017089D01*
X023250Y017128D01*
X023225Y017170D01*
X023205Y017214D01*
X023187Y017259D01*
X023174Y017305D01*
X023164Y017352D01*
X023158Y017400D01*
X023156Y017448D01*
X026897Y016857D02*
X026897Y002684D01*
X026817Y002678D01*
X026738Y002667D01*
X026659Y002653D01*
X026582Y002635D01*
X026505Y002614D01*
X026429Y002589D01*
X026355Y002560D01*
X026282Y002528D01*
X026210Y002492D01*
X026141Y002453D01*
X026073Y002411D01*
X026008Y002365D01*
X025944Y002317D01*
X025883Y002265D01*
X025825Y002211D01*
X025769Y002154D01*
X025716Y002094D01*
X025666Y002032D01*
X025619Y001968D01*
X025575Y001901D01*
X025534Y001833D01*
X025497Y001762D01*
X025463Y001690D01*
X025432Y001617D01*
X025405Y001541D01*
X025382Y001465D01*
X025362Y001388D01*
X025346Y001310D01*
X025334Y001231D01*
X025325Y001152D01*
X025320Y001072D01*
X025319Y000992D01*
X025322Y000913D01*
X025322Y000912D02*
X002487Y000912D01*
X002487Y001109D01*
X003471Y002094D02*
X003473Y002142D01*
X003479Y002190D01*
X003489Y002237D01*
X003502Y002283D01*
X003520Y002328D01*
X003540Y002372D01*
X003565Y002414D01*
X003593Y002453D01*
X003623Y002490D01*
X003657Y002524D01*
X003694Y002556D01*
X003732Y002585D01*
X003773Y002610D01*
X003816Y002632D01*
X003861Y002650D01*
X003907Y002664D01*
X003954Y002675D01*
X004002Y002682D01*
X004050Y002685D01*
X004098Y002684D01*
X004146Y002679D01*
X004194Y002670D01*
X004240Y002658D01*
X004285Y002641D01*
X004329Y002621D01*
X004371Y002598D01*
X004411Y002571D01*
X004449Y002541D01*
X004484Y002508D01*
X004516Y002472D01*
X004546Y002434D01*
X004572Y002393D01*
X004594Y002350D01*
X004614Y002306D01*
X004629Y002261D01*
X004641Y002214D01*
X004649Y002166D01*
X004653Y002118D01*
X004653Y002070D01*
X004649Y002022D01*
X004641Y001974D01*
X004629Y001927D01*
X004614Y001882D01*
X004594Y001838D01*
X004572Y001795D01*
X004546Y001754D01*
X004516Y001716D01*
X004484Y001680D01*
X004449Y001647D01*
X004411Y001617D01*
X004371Y001590D01*
X004329Y001567D01*
X004285Y001547D01*
X004240Y001530D01*
X004194Y001518D01*
X004146Y001509D01*
X004098Y001504D01*
X004050Y001503D01*
X004002Y001506D01*
X003954Y001513D01*
X003907Y001524D01*
X003861Y001538D01*
X003816Y001556D01*
X003773Y001578D01*
X003732Y001603D01*
X003694Y001632D01*
X003657Y001664D01*
X003623Y001698D01*
X003593Y001735D01*
X003565Y001774D01*
X003540Y001816D01*
X003520Y001860D01*
X003502Y001905D01*
X003489Y001951D01*
X003479Y001998D01*
X003473Y002046D01*
X003471Y002094D01*
X023156Y002094D02*
X023158Y002142D01*
X023164Y002190D01*
X023174Y002237D01*
X023187Y002283D01*
X023205Y002328D01*
X023225Y002372D01*
X023250Y002414D01*
X023278Y002453D01*
X023308Y002490D01*
X023342Y002524D01*
X023379Y002556D01*
X023417Y002585D01*
X023458Y002610D01*
X023501Y002632D01*
X023546Y002650D01*
X023592Y002664D01*
X023639Y002675D01*
X023687Y002682D01*
X023735Y002685D01*
X023783Y002684D01*
X023831Y002679D01*
X023879Y002670D01*
X023925Y002658D01*
X023970Y002641D01*
X024014Y002621D01*
X024056Y002598D01*
X024096Y002571D01*
X024134Y002541D01*
X024169Y002508D01*
X024201Y002472D01*
X024231Y002434D01*
X024257Y002393D01*
X024279Y002350D01*
X024299Y002306D01*
X024314Y002261D01*
X024326Y002214D01*
X024334Y002166D01*
X024338Y002118D01*
X024338Y002070D01*
X024334Y002022D01*
X024326Y001974D01*
X024314Y001927D01*
X024299Y001882D01*
X024279Y001838D01*
X024257Y001795D01*
X024231Y001754D01*
X024201Y001716D01*
X024169Y001680D01*
X024134Y001647D01*
X024096Y001617D01*
X024056Y001590D01*
X024014Y001567D01*
X023970Y001547D01*
X023925Y001530D01*
X023879Y001518D01*
X023831Y001509D01*
X023783Y001504D01*
X023735Y001503D01*
X023687Y001506D01*
X023639Y001513D01*
X023592Y001524D01*
X023546Y001538D01*
X023501Y001556D01*
X023458Y001578D01*
X023417Y001603D01*
X023379Y001632D01*
X023342Y001664D01*
X023308Y001698D01*
X023278Y001735D01*
X023250Y001774D01*
X023225Y001816D01*
X023205Y001860D01*
X023187Y001905D01*
X023174Y001951D01*
X023164Y001998D01*
X023158Y002046D01*
X023156Y002094D01*
X003471Y017448D02*
X003473Y017496D01*
X003479Y017544D01*
X003489Y017591D01*
X003502Y017637D01*
X003520Y017682D01*
X003540Y017726D01*
X003565Y017768D01*
X003593Y017807D01*
X003623Y017844D01*
X003657Y017878D01*
X003694Y017910D01*
X003732Y017939D01*
X003773Y017964D01*
X003816Y017986D01*
X003861Y018004D01*
X003907Y018018D01*
X003954Y018029D01*
X004002Y018036D01*
X004050Y018039D01*
X004098Y018038D01*
X004146Y018033D01*
X004194Y018024D01*
X004240Y018012D01*
X004285Y017995D01*
X004329Y017975D01*
X004371Y017952D01*
X004411Y017925D01*
X004449Y017895D01*
X004484Y017862D01*
X004516Y017826D01*
X004546Y017788D01*
X004572Y017747D01*
X004594Y017704D01*
X004614Y017660D01*
X004629Y017615D01*
X004641Y017568D01*
X004649Y017520D01*
X004653Y017472D01*
X004653Y017424D01*
X004649Y017376D01*
X004641Y017328D01*
X004629Y017281D01*
X004614Y017236D01*
X004594Y017192D01*
X004572Y017149D01*
X004546Y017108D01*
X004516Y017070D01*
X004484Y017034D01*
X004449Y017001D01*
X004411Y016971D01*
X004371Y016944D01*
X004329Y016921D01*
X004285Y016901D01*
X004240Y016884D01*
X004194Y016872D01*
X004146Y016863D01*
X004098Y016858D01*
X004050Y016857D01*
X004002Y016860D01*
X003954Y016867D01*
X003907Y016878D01*
X003861Y016892D01*
X003816Y016910D01*
X003773Y016932D01*
X003732Y016957D01*
X003694Y016986D01*
X003657Y017018D01*
X003623Y017052D01*
X003593Y017089D01*
X003565Y017128D01*
X003540Y017170D01*
X003520Y017214D01*
X003502Y017259D01*
X003489Y017305D01*
X003479Y017352D01*
X003473Y017400D01*
X003471Y017448D01*
X025322Y018432D02*
X025324Y018355D01*
X025330Y018278D01*
X025339Y018201D01*
X025352Y018125D01*
X025369Y018049D01*
X025390Y017975D01*
X025414Y017901D01*
X025442Y017829D01*
X025473Y017759D01*
X025508Y017690D01*
X025546Y017622D01*
X025587Y017557D01*
X025632Y017494D01*
X025680Y017433D01*
X025730Y017374D01*
X025783Y017318D01*
X025839Y017265D01*
X025898Y017215D01*
X025959Y017167D01*
X026022Y017122D01*
X026087Y017081D01*
X026155Y017043D01*
X026224Y017008D01*
X026294Y016977D01*
X026366Y016949D01*
X026440Y016925D01*
X026514Y016904D01*
X026590Y016887D01*
X026666Y016874D01*
X026743Y016865D01*
X026820Y016859D01*
X026897Y016857D01*
D17*
X005034Y010685D03*
X005034Y010390D03*
D18*
X005034Y010537D03*
M02*
