G75*
%MOIN*%
%OFA0B0*%
%FSLAX24Y24*%
%IPPOS*%
%LPD*%
%AMOC8*
5,1,8,0,0,1.08239X$1,22.5*
%
%ADD10R,0.0433X0.0394*%
%ADD11R,0.0394X0.0433*%
%ADD12R,0.0630X0.0945*%
%ADD13R,0.0394X0.0551*%
%ADD14R,0.0551X0.0394*%
%ADD15R,0.0354X0.0138*%
%ADD16R,0.0900X0.0850*%
%ADD17R,0.0460X0.0630*%
%ADD18R,0.0098X0.0394*%
%ADD19R,0.0236X0.0472*%
%ADD20R,0.0120X0.0390*%
%ADD21C,0.0750*%
%ADD22C,0.1050*%
%ADD23C,0.0000*%
%ADD24R,0.1000X0.0500*%
%ADD25R,0.0394X0.0157*%
%ADD26C,0.0100*%
%ADD27OC8,0.0240*%
D10*
X005225Y003453D03*
X005225Y004122D03*
X004560Y005037D03*
X003890Y005037D03*
X005912Y008328D03*
X006725Y008328D03*
X006725Y008997D03*
X005912Y008997D03*
X004747Y010912D03*
X004078Y010912D03*
X010037Y013515D03*
X010037Y014185D03*
X010037Y016703D03*
X010037Y017372D03*
X004787Y016310D03*
X004787Y015640D03*
X003912Y015328D03*
X003912Y015997D03*
X010203Y008850D03*
X010872Y008850D03*
X012037Y006747D03*
X012037Y006078D03*
X009850Y004310D03*
X009850Y003640D03*
X015475Y005828D03*
X015475Y006497D03*
X016662Y007390D03*
X016662Y008060D03*
X015850Y009453D03*
X015850Y010122D03*
X015850Y010703D03*
X015850Y011372D03*
X015100Y011390D03*
X015100Y012060D03*
X017725Y010810D03*
X017725Y010140D03*
D11*
X017310Y009412D03*
X016640Y009412D03*
X019912Y009828D03*
X019912Y010497D03*
X023100Y010328D03*
X023100Y010997D03*
X010872Y009912D03*
X010203Y009912D03*
X007475Y007122D03*
X007475Y006453D03*
X004497Y007287D03*
X003828Y007287D03*
X002037Y012265D03*
X002037Y012935D03*
X003287Y014640D03*
X003287Y015310D03*
X004203Y012725D03*
X004872Y012725D03*
D12*
X006134Y014287D03*
X007315Y014287D03*
X007315Y015475D03*
X006134Y015475D03*
D13*
X004662Y014595D03*
X004288Y013729D03*
X005036Y013729D03*
X002412Y015104D03*
X002038Y015970D03*
X002786Y015970D03*
X010537Y003595D03*
X010163Y002729D03*
X010911Y002729D03*
X009849Y001854D03*
X009101Y001854D03*
X009475Y002720D03*
D14*
X007595Y003412D03*
X006729Y003038D03*
X006720Y002349D03*
X005854Y001975D03*
X006720Y001601D03*
X006729Y003786D03*
X010104Y011476D03*
X010970Y011850D03*
X010104Y012224D03*
D15*
X012218Y012243D03*
X012218Y011987D03*
X012218Y011731D03*
X012218Y011475D03*
X012218Y011219D03*
X012218Y010963D03*
X012218Y010707D03*
X014482Y010707D03*
X014482Y010963D03*
X014482Y011219D03*
X014482Y011475D03*
X014482Y011731D03*
X014482Y011987D03*
X014482Y012243D03*
D16*
X010729Y007223D03*
X008471Y007223D03*
X008471Y005602D03*
X010729Y005602D03*
D17*
X004700Y011725D03*
X004100Y011725D03*
X003500Y011725D03*
D18*
X008706Y010557D03*
X008903Y010557D03*
X009100Y010557D03*
X009297Y010557D03*
X009494Y010557D03*
X009494Y008893D03*
X009297Y008893D03*
X009100Y008893D03*
X008903Y008893D03*
X008706Y008893D03*
D19*
X003599Y012773D03*
X002851Y012773D03*
X002851Y013802D03*
X003225Y013802D03*
X003599Y013802D03*
D20*
X018880Y008686D03*
X019136Y008686D03*
X019392Y008686D03*
X019648Y008686D03*
X019904Y008686D03*
X020159Y008686D03*
X020415Y008686D03*
X020671Y008686D03*
X020927Y008686D03*
X021183Y008686D03*
X021183Y006389D03*
X020927Y006389D03*
X020671Y006389D03*
X020415Y006389D03*
X020159Y006389D03*
X019904Y006389D03*
X019648Y006389D03*
X019392Y006389D03*
X019136Y006389D03*
X018880Y006389D03*
D21*
X025164Y009838D03*
D22*
X024160Y010841D03*
X026168Y010841D03*
X026168Y008834D03*
X024160Y008834D03*
D23*
X002487Y001109D02*
X002485Y001186D01*
X002479Y001263D01*
X002470Y001340D01*
X002457Y001416D01*
X002440Y001492D01*
X002419Y001566D01*
X002395Y001640D01*
X002367Y001712D01*
X002336Y001782D01*
X002301Y001851D01*
X002263Y001919D01*
X002222Y001984D01*
X002177Y002047D01*
X002129Y002108D01*
X002079Y002167D01*
X002026Y002223D01*
X001970Y002276D01*
X001911Y002326D01*
X001850Y002374D01*
X001787Y002419D01*
X001722Y002460D01*
X001654Y002498D01*
X001585Y002533D01*
X001515Y002564D01*
X001443Y002592D01*
X001369Y002616D01*
X001295Y002637D01*
X001219Y002654D01*
X001143Y002667D01*
X001066Y002676D01*
X000989Y002682D01*
X000912Y002684D01*
X000912Y016857D01*
X000989Y016859D01*
X001066Y016865D01*
X001143Y016874D01*
X001219Y016887D01*
X001295Y016904D01*
X001369Y016925D01*
X001443Y016949D01*
X001515Y016977D01*
X001585Y017008D01*
X001654Y017043D01*
X001722Y017081D01*
X001787Y017122D01*
X001850Y017167D01*
X001911Y017215D01*
X001970Y017265D01*
X002026Y017318D01*
X002079Y017374D01*
X002129Y017433D01*
X002177Y017494D01*
X002222Y017557D01*
X002263Y017622D01*
X002301Y017690D01*
X002336Y017759D01*
X002367Y017829D01*
X002395Y017901D01*
X002419Y017975D01*
X002440Y018049D01*
X002457Y018125D01*
X002470Y018201D01*
X002479Y018278D01*
X002485Y018355D01*
X002487Y018432D01*
X002487Y018629D01*
X025322Y018629D01*
X025322Y018432D01*
X023156Y017448D02*
X023158Y017496D01*
X023164Y017544D01*
X023174Y017591D01*
X023187Y017637D01*
X023205Y017682D01*
X023225Y017726D01*
X023250Y017768D01*
X023278Y017807D01*
X023308Y017844D01*
X023342Y017878D01*
X023379Y017910D01*
X023417Y017939D01*
X023458Y017964D01*
X023501Y017986D01*
X023546Y018004D01*
X023592Y018018D01*
X023639Y018029D01*
X023687Y018036D01*
X023735Y018039D01*
X023783Y018038D01*
X023831Y018033D01*
X023879Y018024D01*
X023925Y018012D01*
X023970Y017995D01*
X024014Y017975D01*
X024056Y017952D01*
X024096Y017925D01*
X024134Y017895D01*
X024169Y017862D01*
X024201Y017826D01*
X024231Y017788D01*
X024257Y017747D01*
X024279Y017704D01*
X024299Y017660D01*
X024314Y017615D01*
X024326Y017568D01*
X024334Y017520D01*
X024338Y017472D01*
X024338Y017424D01*
X024334Y017376D01*
X024326Y017328D01*
X024314Y017281D01*
X024299Y017236D01*
X024279Y017192D01*
X024257Y017149D01*
X024231Y017108D01*
X024201Y017070D01*
X024169Y017034D01*
X024134Y017001D01*
X024096Y016971D01*
X024056Y016944D01*
X024014Y016921D01*
X023970Y016901D01*
X023925Y016884D01*
X023879Y016872D01*
X023831Y016863D01*
X023783Y016858D01*
X023735Y016857D01*
X023687Y016860D01*
X023639Y016867D01*
X023592Y016878D01*
X023546Y016892D01*
X023501Y016910D01*
X023458Y016932D01*
X023417Y016957D01*
X023379Y016986D01*
X023342Y017018D01*
X023308Y017052D01*
X023278Y017089D01*
X023250Y017128D01*
X023225Y017170D01*
X023205Y017214D01*
X023187Y017259D01*
X023174Y017305D01*
X023164Y017352D01*
X023158Y017400D01*
X023156Y017448D01*
X026897Y016857D02*
X026897Y002684D01*
X026817Y002678D01*
X026738Y002667D01*
X026659Y002653D01*
X026582Y002635D01*
X026505Y002614D01*
X026429Y002589D01*
X026355Y002560D01*
X026282Y002528D01*
X026210Y002492D01*
X026141Y002453D01*
X026073Y002411D01*
X026008Y002365D01*
X025944Y002317D01*
X025883Y002265D01*
X025825Y002211D01*
X025769Y002154D01*
X025716Y002094D01*
X025666Y002032D01*
X025619Y001968D01*
X025575Y001901D01*
X025534Y001833D01*
X025497Y001762D01*
X025463Y001690D01*
X025432Y001617D01*
X025405Y001541D01*
X025382Y001465D01*
X025362Y001388D01*
X025346Y001310D01*
X025334Y001231D01*
X025325Y001152D01*
X025320Y001072D01*
X025319Y000992D01*
X025322Y000913D01*
X025322Y000912D02*
X002487Y000912D01*
X002487Y001109D01*
X003471Y002094D02*
X003473Y002142D01*
X003479Y002190D01*
X003489Y002237D01*
X003502Y002283D01*
X003520Y002328D01*
X003540Y002372D01*
X003565Y002414D01*
X003593Y002453D01*
X003623Y002490D01*
X003657Y002524D01*
X003694Y002556D01*
X003732Y002585D01*
X003773Y002610D01*
X003816Y002632D01*
X003861Y002650D01*
X003907Y002664D01*
X003954Y002675D01*
X004002Y002682D01*
X004050Y002685D01*
X004098Y002684D01*
X004146Y002679D01*
X004194Y002670D01*
X004240Y002658D01*
X004285Y002641D01*
X004329Y002621D01*
X004371Y002598D01*
X004411Y002571D01*
X004449Y002541D01*
X004484Y002508D01*
X004516Y002472D01*
X004546Y002434D01*
X004572Y002393D01*
X004594Y002350D01*
X004614Y002306D01*
X004629Y002261D01*
X004641Y002214D01*
X004649Y002166D01*
X004653Y002118D01*
X004653Y002070D01*
X004649Y002022D01*
X004641Y001974D01*
X004629Y001927D01*
X004614Y001882D01*
X004594Y001838D01*
X004572Y001795D01*
X004546Y001754D01*
X004516Y001716D01*
X004484Y001680D01*
X004449Y001647D01*
X004411Y001617D01*
X004371Y001590D01*
X004329Y001567D01*
X004285Y001547D01*
X004240Y001530D01*
X004194Y001518D01*
X004146Y001509D01*
X004098Y001504D01*
X004050Y001503D01*
X004002Y001506D01*
X003954Y001513D01*
X003907Y001524D01*
X003861Y001538D01*
X003816Y001556D01*
X003773Y001578D01*
X003732Y001603D01*
X003694Y001632D01*
X003657Y001664D01*
X003623Y001698D01*
X003593Y001735D01*
X003565Y001774D01*
X003540Y001816D01*
X003520Y001860D01*
X003502Y001905D01*
X003489Y001951D01*
X003479Y001998D01*
X003473Y002046D01*
X003471Y002094D01*
X023156Y002094D02*
X023158Y002142D01*
X023164Y002190D01*
X023174Y002237D01*
X023187Y002283D01*
X023205Y002328D01*
X023225Y002372D01*
X023250Y002414D01*
X023278Y002453D01*
X023308Y002490D01*
X023342Y002524D01*
X023379Y002556D01*
X023417Y002585D01*
X023458Y002610D01*
X023501Y002632D01*
X023546Y002650D01*
X023592Y002664D01*
X023639Y002675D01*
X023687Y002682D01*
X023735Y002685D01*
X023783Y002684D01*
X023831Y002679D01*
X023879Y002670D01*
X023925Y002658D01*
X023970Y002641D01*
X024014Y002621D01*
X024056Y002598D01*
X024096Y002571D01*
X024134Y002541D01*
X024169Y002508D01*
X024201Y002472D01*
X024231Y002434D01*
X024257Y002393D01*
X024279Y002350D01*
X024299Y002306D01*
X024314Y002261D01*
X024326Y002214D01*
X024334Y002166D01*
X024338Y002118D01*
X024338Y002070D01*
X024334Y002022D01*
X024326Y001974D01*
X024314Y001927D01*
X024299Y001882D01*
X024279Y001838D01*
X024257Y001795D01*
X024231Y001754D01*
X024201Y001716D01*
X024169Y001680D01*
X024134Y001647D01*
X024096Y001617D01*
X024056Y001590D01*
X024014Y001567D01*
X023970Y001547D01*
X023925Y001530D01*
X023879Y001518D01*
X023831Y001509D01*
X023783Y001504D01*
X023735Y001503D01*
X023687Y001506D01*
X023639Y001513D01*
X023592Y001524D01*
X023546Y001538D01*
X023501Y001556D01*
X023458Y001578D01*
X023417Y001603D01*
X023379Y001632D01*
X023342Y001664D01*
X023308Y001698D01*
X023278Y001735D01*
X023250Y001774D01*
X023225Y001816D01*
X023205Y001860D01*
X023187Y001905D01*
X023174Y001951D01*
X023164Y001998D01*
X023158Y002046D01*
X023156Y002094D01*
X003471Y017448D02*
X003473Y017496D01*
X003479Y017544D01*
X003489Y017591D01*
X003502Y017637D01*
X003520Y017682D01*
X003540Y017726D01*
X003565Y017768D01*
X003593Y017807D01*
X003623Y017844D01*
X003657Y017878D01*
X003694Y017910D01*
X003732Y017939D01*
X003773Y017964D01*
X003816Y017986D01*
X003861Y018004D01*
X003907Y018018D01*
X003954Y018029D01*
X004002Y018036D01*
X004050Y018039D01*
X004098Y018038D01*
X004146Y018033D01*
X004194Y018024D01*
X004240Y018012D01*
X004285Y017995D01*
X004329Y017975D01*
X004371Y017952D01*
X004411Y017925D01*
X004449Y017895D01*
X004484Y017862D01*
X004516Y017826D01*
X004546Y017788D01*
X004572Y017747D01*
X004594Y017704D01*
X004614Y017660D01*
X004629Y017615D01*
X004641Y017568D01*
X004649Y017520D01*
X004653Y017472D01*
X004653Y017424D01*
X004649Y017376D01*
X004641Y017328D01*
X004629Y017281D01*
X004614Y017236D01*
X004594Y017192D01*
X004572Y017149D01*
X004546Y017108D01*
X004516Y017070D01*
X004484Y017034D01*
X004449Y017001D01*
X004411Y016971D01*
X004371Y016944D01*
X004329Y016921D01*
X004285Y016901D01*
X004240Y016884D01*
X004194Y016872D01*
X004146Y016863D01*
X004098Y016858D01*
X004050Y016857D01*
X004002Y016860D01*
X003954Y016867D01*
X003907Y016878D01*
X003861Y016892D01*
X003816Y016910D01*
X003773Y016932D01*
X003732Y016957D01*
X003694Y016986D01*
X003657Y017018D01*
X003623Y017052D01*
X003593Y017089D01*
X003565Y017128D01*
X003540Y017170D01*
X003520Y017214D01*
X003502Y017259D01*
X003489Y017305D01*
X003479Y017352D01*
X003473Y017400D01*
X003471Y017448D01*
X025322Y018432D02*
X025324Y018355D01*
X025330Y018278D01*
X025339Y018201D01*
X025352Y018125D01*
X025369Y018049D01*
X025390Y017975D01*
X025414Y017901D01*
X025442Y017829D01*
X025473Y017759D01*
X025508Y017690D01*
X025546Y017622D01*
X025587Y017557D01*
X025632Y017494D01*
X025680Y017433D01*
X025730Y017374D01*
X025783Y017318D01*
X025839Y017265D01*
X025898Y017215D01*
X025959Y017167D01*
X026022Y017122D01*
X026087Y017081D01*
X026155Y017043D01*
X026224Y017008D01*
X026294Y016977D01*
X026366Y016949D01*
X026440Y016925D01*
X026514Y016904D01*
X026590Y016887D01*
X026666Y016874D01*
X026743Y016865D01*
X026820Y016859D01*
X026897Y016857D01*
D24*
X002475Y009412D03*
X002475Y008787D03*
X002475Y008100D03*
X002475Y007412D03*
D25*
X012771Y007653D03*
X012771Y007909D03*
X012771Y008165D03*
X012771Y008421D03*
X014553Y008421D03*
X014553Y008165D03*
X014553Y007909D03*
X014553Y007653D03*
X014803Y006734D03*
X014803Y006478D03*
X014803Y006222D03*
X014803Y005966D03*
X013022Y005966D03*
X013022Y006222D03*
X013022Y006478D03*
X013022Y006734D03*
D26*
X012050Y006734D01*
X012037Y006747D01*
X011711Y006724D02*
X011260Y006724D01*
X011289Y006752D02*
X011289Y007693D01*
X011224Y007758D01*
X010662Y007758D01*
X010662Y008503D01*
X010824Y008503D01*
X010824Y008801D01*
X010920Y008801D01*
X010920Y008503D01*
X011108Y008503D01*
X011146Y008513D01*
X011181Y008533D01*
X011209Y008561D01*
X011228Y008595D01*
X011239Y008633D01*
X011239Y008801D01*
X010920Y008801D01*
X010920Y008898D01*
X010824Y008898D01*
X010824Y009197D01*
X010662Y009197D01*
X010662Y009586D01*
X011114Y009586D01*
X011179Y009650D01*
X011179Y009752D01*
X011284Y009752D01*
X011502Y009534D01*
X011502Y008221D01*
X011877Y007846D01*
X011971Y007752D01*
X012425Y007752D01*
X012425Y007752D01*
X012425Y007653D01*
X012425Y007555D01*
X012435Y007517D01*
X012455Y007482D01*
X012483Y007454D01*
X012517Y007435D01*
X012555Y007424D01*
X012771Y007424D01*
X012771Y007653D01*
X012425Y007653D01*
X012771Y007653D01*
X012771Y007653D01*
X012771Y007653D01*
X012771Y007424D01*
X012988Y007424D01*
X013026Y007435D01*
X013060Y007454D01*
X013088Y007482D01*
X013108Y007517D01*
X013118Y007555D01*
X013118Y007653D01*
X012771Y007653D01*
X012771Y007653D01*
X013118Y007653D01*
X013118Y007749D01*
X013537Y007749D01*
X014159Y007127D01*
X014690Y007127D01*
X014690Y006923D01*
X014561Y006923D01*
X014496Y006858D01*
X014496Y006610D01*
X014500Y006606D01*
X014496Y006603D01*
X014496Y006403D01*
X014486Y006393D01*
X014467Y006359D01*
X014456Y006321D01*
X014456Y006222D01*
X014456Y006126D01*
X013702Y006126D01*
X013830Y006255D01*
X013830Y006445D01*
X013695Y006580D01*
X013596Y006580D01*
X013538Y006638D01*
X013329Y006638D01*
X013329Y006858D01*
X013264Y006923D01*
X012779Y006923D01*
X012751Y006894D01*
X012364Y006894D01*
X012364Y006989D01*
X012300Y007054D01*
X011775Y007054D01*
X011711Y006989D01*
X011711Y006505D01*
X011775Y006440D01*
X012300Y006440D01*
X012364Y006505D01*
X012364Y006574D01*
X012374Y006574D01*
X012370Y006570D01*
X012370Y006380D01*
X012505Y006245D01*
X012519Y006245D01*
X012440Y006166D01*
X012440Y005828D01*
X012370Y005758D01*
X012370Y005567D01*
X012505Y005432D01*
X012695Y005432D01*
X012830Y005567D01*
X012830Y005758D01*
X012810Y005778D01*
X012862Y005778D01*
X012862Y005026D01*
X012659Y004822D01*
X012523Y004822D01*
X012642Y004942D01*
X012642Y005133D01*
X012508Y005267D01*
X012409Y005267D01*
X012197Y005479D01*
X012197Y005771D01*
X012300Y005771D01*
X012364Y005835D01*
X012364Y006320D01*
X012300Y006385D01*
X011775Y006385D01*
X011711Y006320D01*
X011711Y005835D01*
X011775Y005771D01*
X011877Y005771D01*
X011877Y005346D01*
X011971Y005252D01*
X012182Y005041D01*
X012182Y004942D01*
X012302Y004822D01*
X011078Y004822D01*
X011010Y004890D01*
X011010Y005067D01*
X011224Y005067D01*
X011289Y005131D01*
X011289Y006072D01*
X011224Y006137D01*
X010889Y006137D01*
X010889Y006688D01*
X011224Y006688D01*
X011289Y006752D01*
X011289Y006822D02*
X011711Y006822D01*
X011711Y006921D02*
X011289Y006921D01*
X011289Y007019D02*
X011741Y007019D01*
X011711Y006625D02*
X010889Y006625D01*
X010889Y006527D02*
X011711Y006527D01*
X011721Y006330D02*
X010889Y006330D01*
X010889Y006428D02*
X012370Y006428D01*
X012364Y006527D02*
X012370Y006527D01*
X012354Y006330D02*
X012420Y006330D01*
X012364Y006231D02*
X012505Y006231D01*
X012440Y006133D02*
X012364Y006133D01*
X012364Y006034D02*
X012440Y006034D01*
X012440Y005936D02*
X012364Y005936D01*
X012364Y005837D02*
X012440Y005837D01*
X012370Y005739D02*
X012197Y005739D01*
X012197Y005640D02*
X012370Y005640D01*
X012395Y005542D02*
X012197Y005542D01*
X012233Y005443D02*
X012494Y005443D01*
X012331Y005345D02*
X012862Y005345D01*
X012862Y005443D02*
X012706Y005443D01*
X012805Y005542D02*
X012862Y005542D01*
X012862Y005640D02*
X012830Y005640D01*
X012830Y005739D02*
X012862Y005739D01*
X012600Y005662D02*
X012600Y006100D01*
X012722Y006222D01*
X013022Y006222D01*
X013022Y005966D02*
X013022Y004959D01*
X012725Y004662D01*
X010912Y004662D01*
X010850Y004725D01*
X010435Y004310D01*
X009850Y004310D01*
X009523Y004261D02*
X007852Y004261D01*
X007951Y004163D02*
X009523Y004163D01*
X009523Y004067D02*
X009588Y004003D01*
X010112Y004003D01*
X010176Y004067D01*
X010176Y004150D01*
X010475Y004150D01*
X010475Y004037D01*
X014162Y004037D01*
X014162Y001062D01*
X002637Y001062D01*
X002637Y001336D01*
X002520Y001775D01*
X002293Y002168D01*
X001971Y002489D01*
X001578Y002717D01*
X001139Y002834D01*
X001062Y002834D01*
X001062Y016707D01*
X001139Y016707D01*
X001578Y016825D01*
X001971Y017052D01*
X001971Y017052D01*
X002293Y017373D01*
X002520Y017766D01*
X002520Y017766D01*
X002637Y018205D01*
X002637Y018479D01*
X010475Y018479D01*
X010475Y016822D01*
X010364Y016822D01*
X010364Y016945D01*
X010300Y017010D01*
X009775Y017010D01*
X009711Y016945D01*
X009711Y016460D01*
X009775Y016396D01*
X010300Y016396D01*
X010364Y016460D01*
X010364Y016502D01*
X010475Y016502D01*
X010475Y012538D01*
X010472Y012541D01*
X010438Y012561D01*
X010400Y012571D01*
X010153Y012571D01*
X010153Y012272D01*
X010056Y012272D01*
X010056Y012175D01*
X010153Y012175D01*
X010153Y011877D01*
X010400Y011877D01*
X010438Y011887D01*
X010472Y011907D01*
X010475Y011910D01*
X010475Y011790D01*
X010472Y011793D01*
X010438Y011813D01*
X010400Y011823D01*
X010153Y011823D01*
X010153Y011524D01*
X010056Y011524D01*
X010056Y011427D01*
X009679Y011427D01*
X009679Y011259D01*
X009689Y011221D01*
X009709Y011187D01*
X009737Y011159D01*
X009771Y011139D01*
X009787Y011135D01*
X009346Y011135D01*
X009252Y011041D01*
X009137Y010926D01*
X009137Y010864D01*
X009063Y010864D01*
X009063Y010926D01*
X008947Y011041D01*
X008854Y011135D01*
X007534Y011135D01*
X006846Y010447D01*
X006752Y010354D01*
X006752Y009979D01*
X006409Y009635D01*
X006034Y009635D01*
X005846Y009447D01*
X005752Y009354D01*
X005752Y009304D01*
X005650Y009304D01*
X005586Y009239D01*
X005586Y008822D01*
X005096Y008822D01*
X005041Y008767D01*
X004942Y008767D01*
X004807Y008633D01*
X004807Y008442D01*
X004942Y008307D01*
X005133Y008307D01*
X005267Y008442D01*
X005267Y008502D01*
X005586Y008502D01*
X005586Y008085D01*
X005650Y008021D01*
X005752Y008021D01*
X005752Y007916D01*
X005541Y007705D01*
X005534Y007705D01*
X003760Y009479D01*
X003666Y009572D01*
X003085Y009572D01*
X003085Y009708D01*
X003020Y009772D01*
X001929Y009772D01*
X001865Y009708D01*
X001865Y009117D01*
X001882Y009100D01*
X001865Y009083D01*
X001865Y008492D01*
X001913Y008444D01*
X001865Y008395D01*
X001865Y007804D01*
X001913Y007756D01*
X001865Y007708D01*
X001865Y007117D01*
X001929Y007052D01*
X003020Y007052D01*
X003085Y007117D01*
X003085Y007252D01*
X003521Y007252D01*
X003521Y007025D01*
X003585Y006961D01*
X003700Y006961D01*
X003784Y006877D01*
X003807Y006854D01*
X003807Y006755D01*
X003942Y006620D01*
X004133Y006620D01*
X004267Y006755D01*
X004267Y006945D01*
X004135Y007078D01*
X004135Y007550D01*
X004127Y007557D01*
X004198Y007557D01*
X004190Y007550D01*
X004190Y007025D01*
X004255Y006961D01*
X004377Y006961D01*
X004377Y005765D01*
X004372Y005760D01*
X002479Y005760D01*
X001822Y006416D01*
X001822Y010096D01*
X002479Y010752D01*
X003247Y010752D01*
X003317Y010682D01*
X003508Y010682D01*
X003578Y010752D01*
X003751Y010752D01*
X003751Y010670D01*
X003816Y010606D01*
X004340Y010606D01*
X004391Y010657D01*
X004410Y010623D01*
X004438Y010596D01*
X004473Y010576D01*
X004511Y010566D01*
X004699Y010566D01*
X004699Y010864D01*
X004795Y010864D01*
X004795Y010566D01*
X004983Y010566D01*
X005021Y010576D01*
X005056Y010596D01*
X005084Y010623D01*
X005103Y010658D01*
X005114Y010696D01*
X005114Y010864D01*
X004795Y010864D01*
X004795Y010961D01*
X004699Y010961D01*
X004699Y011259D01*
X004511Y011259D01*
X004473Y011249D01*
X004438Y011229D01*
X004410Y011201D01*
X004391Y011168D01*
X004340Y011219D01*
X003816Y011219D01*
X003751Y011155D01*
X003751Y011072D01*
X003578Y011072D01*
X003508Y011142D01*
X003317Y011142D01*
X003247Y011072D01*
X002346Y011072D01*
X001596Y010322D01*
X001502Y010229D01*
X001502Y006284D01*
X002252Y005534D01*
X002346Y005440D01*
X004372Y005440D01*
X004377Y005435D01*
X004377Y005344D01*
X004297Y005344D01*
X004246Y005293D01*
X004227Y005326D01*
X004199Y005354D01*
X004165Y005374D01*
X004127Y005384D01*
X003939Y005384D01*
X003939Y005086D01*
X003842Y005086D01*
X003842Y005384D01*
X003654Y005384D01*
X003616Y005374D01*
X003582Y005354D01*
X003554Y005326D01*
X003534Y005292D01*
X003524Y005254D01*
X003524Y005086D01*
X003842Y005086D01*
X003842Y004989D01*
X003939Y004989D01*
X003939Y004691D01*
X004127Y004691D01*
X004165Y004701D01*
X004199Y004721D01*
X004227Y004748D01*
X004246Y004782D01*
X004297Y004731D01*
X004377Y004731D01*
X004377Y004409D01*
X004471Y004315D01*
X004824Y003962D01*
X004898Y003962D01*
X004898Y003880D01*
X004963Y003815D01*
X005487Y003815D01*
X005551Y003880D01*
X005551Y004170D01*
X005935Y003786D01*
X005788Y003639D01*
X005551Y003639D01*
X005551Y003695D01*
X005487Y003760D01*
X004963Y003760D01*
X004898Y003695D01*
X004898Y003210D01*
X004963Y003146D01*
X005487Y003146D01*
X005551Y003210D01*
X005551Y003319D01*
X005694Y003319D01*
X005694Y002282D01*
X005533Y002282D01*
X005469Y002217D01*
X005469Y001732D01*
X005533Y001668D01*
X006175Y001668D01*
X006240Y001732D01*
X006240Y002217D01*
X006175Y002282D01*
X006014Y002282D01*
X006014Y003413D01*
X006228Y003626D01*
X006344Y003626D01*
X006344Y003544D01*
X006408Y003480D01*
X007050Y003480D01*
X007115Y003544D01*
X007115Y004029D01*
X007050Y004093D01*
X006408Y004093D01*
X006344Y004029D01*
X006344Y003946D01*
X006228Y003946D01*
X005822Y004352D01*
X005822Y004372D01*
X005892Y004442D01*
X005892Y004633D01*
X005758Y004767D01*
X005567Y004767D01*
X005432Y004633D01*
X005432Y004442D01*
X005446Y004429D01*
X004963Y004429D01*
X004898Y004364D01*
X004898Y004340D01*
X004697Y004541D01*
X004697Y004731D01*
X004822Y004731D01*
X004886Y004795D01*
X004886Y005280D01*
X004822Y005344D01*
X004697Y005344D01*
X004697Y005435D01*
X004767Y005505D01*
X004767Y005695D01*
X004697Y005765D01*
X004697Y006961D01*
X004739Y006961D01*
X004804Y007025D01*
X004804Y007420D01*
X004995Y007229D01*
X004995Y007130D01*
X005130Y006995D01*
X005320Y006995D01*
X005390Y007065D01*
X006416Y007065D01*
X006510Y007159D01*
X006885Y007534D01*
X006885Y008021D01*
X006987Y008021D01*
X007051Y008085D01*
X007051Y008502D01*
X007604Y008502D01*
X007697Y008596D01*
X009260Y010159D01*
X009260Y010250D01*
X009392Y010250D01*
X009395Y010254D01*
X009399Y010250D01*
X009588Y010250D01*
X009653Y010314D01*
X009653Y010397D01*
X009889Y010397D01*
X010043Y010243D01*
X010043Y010239D01*
X009960Y010239D01*
X009896Y010175D01*
X009896Y009650D01*
X009960Y009586D01*
X010445Y009586D01*
X010475Y009616D01*
X010475Y009147D01*
X010465Y009157D01*
X009941Y009157D01*
X009876Y009092D01*
X009876Y009010D01*
X009653Y009010D01*
X009653Y009135D01*
X009588Y009200D01*
X009457Y009200D01*
X009457Y009407D01*
X009267Y009596D01*
X009267Y009695D01*
X009133Y009830D01*
X008942Y009830D01*
X008807Y009695D01*
X008807Y009505D01*
X008942Y009370D01*
X009041Y009370D01*
X009137Y009274D01*
X009137Y009200D01*
X009054Y009200D01*
X009044Y009210D01*
X009010Y009230D01*
X008972Y009240D01*
X008903Y009240D01*
X008834Y009240D01*
X008796Y009230D01*
X008762Y009210D01*
X008752Y009200D01*
X008611Y009200D01*
X008547Y009135D01*
X008547Y008960D01*
X008546Y008959D01*
X008546Y007758D01*
X007975Y007758D01*
X007911Y007693D01*
X007911Y006752D01*
X007975Y006688D01*
X008899Y006688D01*
X008824Y006613D01*
X007782Y006613D01*
X007782Y006715D01*
X007730Y006766D01*
X007764Y006785D01*
X007792Y006813D01*
X007812Y006848D01*
X007822Y006886D01*
X007822Y007074D01*
X007523Y007074D01*
X007523Y007170D01*
X007822Y007170D01*
X007822Y007358D01*
X007812Y007396D01*
X007792Y007431D01*
X007764Y007459D01*
X007730Y007478D01*
X007691Y007489D01*
X007523Y007489D01*
X007523Y007170D01*
X007426Y007170D01*
X007426Y007074D01*
X007128Y007074D01*
X007128Y006886D01*
X007138Y006848D01*
X007158Y006813D01*
X007186Y006785D01*
X007219Y006766D01*
X007168Y006715D01*
X007168Y006191D01*
X007232Y006126D01*
X007717Y006126D01*
X007782Y006191D01*
X007782Y006293D01*
X008957Y006293D01*
X009166Y006502D01*
X009260Y006596D01*
X009260Y007964D01*
X010067Y007157D01*
X010161Y007063D01*
X010169Y007063D01*
X010169Y006752D01*
X010233Y006688D01*
X010475Y006688D01*
X010475Y006137D01*
X010233Y006137D01*
X010169Y006072D01*
X010169Y005131D01*
X010233Y005067D01*
X010475Y005067D01*
X010475Y004576D01*
X010368Y004470D01*
X010176Y004470D01*
X010176Y004552D01*
X010112Y004616D01*
X009588Y004616D01*
X009523Y004552D01*
X009523Y004067D01*
X009526Y004064D02*
X008049Y004064D01*
X008148Y003966D02*
X010280Y003966D01*
X010295Y003981D02*
X010231Y003917D01*
X010231Y003800D01*
X010176Y003800D01*
X010176Y003883D01*
X010112Y003947D01*
X009588Y003947D01*
X009523Y003883D01*
X009523Y003760D01*
X009221Y003760D01*
X009035Y003573D01*
X008540Y003573D01*
X006892Y005221D01*
X006892Y005320D01*
X006758Y005455D01*
X006567Y005455D01*
X006432Y005320D01*
X006432Y005130D01*
X006567Y004995D01*
X006666Y004995D01*
X008314Y003347D01*
X008408Y003253D01*
X008941Y003253D01*
X008941Y002240D01*
X008858Y002240D01*
X008794Y002175D01*
X008794Y001533D01*
X008858Y001469D01*
X009343Y001469D01*
X009408Y001533D01*
X009408Y002175D01*
X009343Y002240D01*
X009261Y002240D01*
X009261Y002335D01*
X009717Y002335D01*
X009782Y002399D01*
X009782Y002560D01*
X009857Y002560D01*
X009857Y002408D01*
X009921Y002344D01*
X010406Y002344D01*
X010470Y002408D01*
X010470Y003050D01*
X010406Y003115D01*
X009921Y003115D01*
X009857Y003050D01*
X009857Y002880D01*
X009782Y002880D01*
X009782Y003042D01*
X009717Y003106D01*
X009261Y003106D01*
X009261Y003347D01*
X009354Y003440D01*
X009523Y003440D01*
X009523Y003398D01*
X009588Y003333D01*
X010112Y003333D01*
X010176Y003398D01*
X010176Y003480D01*
X010231Y003480D01*
X010231Y003274D01*
X010295Y003210D01*
X010780Y003210D01*
X010844Y003274D01*
X010844Y003917D01*
X010780Y003981D01*
X010295Y003981D01*
X010231Y003867D02*
X010176Y003867D01*
X010174Y004064D02*
X010475Y004064D01*
X010795Y003966D02*
X014162Y003966D01*
X014162Y003867D02*
X010844Y003867D01*
X010844Y003769D02*
X014162Y003769D01*
X014162Y003670D02*
X010844Y003670D01*
X010844Y003572D02*
X014162Y003572D01*
X014162Y003473D02*
X010844Y003473D01*
X010844Y003375D02*
X014162Y003375D01*
X014162Y003276D02*
X010844Y003276D01*
X010669Y003115D02*
X010605Y003050D01*
X010605Y002408D01*
X010669Y002344D01*
X010742Y002344D01*
X010413Y002014D01*
X010156Y002014D01*
X010156Y002175D01*
X010091Y002240D01*
X009607Y002240D01*
X009542Y002175D01*
X009542Y001533D01*
X009607Y001469D01*
X010091Y001469D01*
X010156Y001533D01*
X010156Y001694D01*
X010546Y001694D01*
X010979Y002127D01*
X011072Y002221D01*
X011072Y002344D01*
X011154Y002344D01*
X011218Y002408D01*
X011218Y002569D01*
X011618Y002569D01*
X011692Y002495D01*
X011883Y002495D01*
X012017Y002630D01*
X012017Y002820D01*
X011883Y002955D01*
X011692Y002955D01*
X011627Y002889D01*
X011218Y002889D01*
X011218Y003050D01*
X011154Y003115D01*
X010669Y003115D01*
X010633Y003079D02*
X010441Y003079D01*
X010470Y002981D02*
X010605Y002981D01*
X010605Y002882D02*
X010470Y002882D01*
X010470Y002784D02*
X010605Y002784D01*
X010605Y002685D02*
X010470Y002685D01*
X010470Y002587D02*
X010605Y002587D01*
X010605Y002488D02*
X010470Y002488D01*
X010452Y002390D02*
X010623Y002390D01*
X010690Y002291D02*
X009261Y002291D01*
X009390Y002193D02*
X009559Y002193D01*
X009542Y002094D02*
X009408Y002094D01*
X009408Y001996D02*
X009542Y001996D01*
X009542Y001897D02*
X009408Y001897D01*
X009408Y001799D02*
X009542Y001799D01*
X009542Y001700D02*
X009408Y001700D01*
X009408Y001602D02*
X009542Y001602D01*
X009572Y001503D02*
X009378Y001503D01*
X009101Y001854D02*
X009101Y003413D01*
X008474Y003413D01*
X006662Y005225D01*
X006513Y005049D02*
X004886Y005049D01*
X004886Y004951D02*
X006710Y004951D01*
X006809Y004852D02*
X004886Y004852D01*
X004845Y004754D02*
X005554Y004754D01*
X005455Y004655D02*
X004697Y004655D01*
X004697Y004557D02*
X005432Y004557D01*
X005432Y004458D02*
X004780Y004458D01*
X004879Y004360D02*
X004898Y004360D01*
X004890Y004122D02*
X004537Y004475D01*
X004537Y005015D01*
X004560Y005037D01*
X004537Y005060D01*
X004537Y005600D01*
X002412Y005600D01*
X001662Y006350D01*
X001662Y010162D01*
X002412Y010912D01*
X003412Y010912D01*
X004078Y010912D01*
X003757Y010664D02*
X002390Y010664D01*
X002292Y010565D02*
X006315Y010565D01*
X006315Y010467D02*
X002193Y010467D01*
X002095Y010368D02*
X006315Y010368D01*
X006315Y010270D02*
X001996Y010270D01*
X001898Y010171D02*
X006284Y010171D01*
X006315Y010203D02*
X006245Y010133D01*
X006245Y009942D01*
X006380Y009807D01*
X006570Y009807D01*
X006705Y009942D01*
X006705Y010133D01*
X006635Y010203D01*
X006635Y011416D01*
X006541Y011510D01*
X006166Y011885D01*
X005040Y011885D01*
X005040Y012085D01*
X004975Y012150D01*
X004424Y012150D01*
X004400Y012125D01*
X004375Y012150D01*
X004260Y012150D01*
X004260Y012398D01*
X004445Y012398D01*
X004510Y012463D01*
X004510Y012987D01*
X004445Y013051D01*
X003960Y013051D01*
X003896Y012987D01*
X003896Y012885D01*
X003827Y012885D01*
X003827Y013055D01*
X003763Y013119D01*
X003435Y013119D01*
X003371Y013055D01*
X003371Y012491D01*
X003435Y012427D01*
X003763Y012427D01*
X003827Y012491D01*
X003827Y012565D01*
X003896Y012565D01*
X003896Y012463D01*
X003940Y012419D01*
X003940Y012150D01*
X003824Y012150D01*
X003800Y012125D01*
X003775Y012150D01*
X003301Y012150D01*
X003026Y012425D01*
X003011Y012425D01*
X003011Y012427D01*
X003015Y012427D01*
X003079Y012491D01*
X003079Y013055D01*
X003015Y013119D01*
X002687Y013119D01*
X002623Y013055D01*
X002623Y012491D01*
X002656Y012459D01*
X002622Y012425D01*
X002344Y012425D01*
X002344Y012527D01*
X002293Y012579D01*
X002326Y012598D01*
X002354Y012626D01*
X002374Y012660D01*
X002384Y012698D01*
X002384Y012886D01*
X002086Y012886D01*
X002086Y012983D01*
X002384Y012983D01*
X002384Y013171D01*
X002374Y013209D01*
X002354Y013243D01*
X002326Y013271D01*
X002292Y013291D01*
X002254Y013301D01*
X002086Y013301D01*
X002086Y012983D01*
X001989Y012983D01*
X001989Y013301D01*
X001821Y013301D01*
X001783Y013291D01*
X001748Y013271D01*
X001721Y013243D01*
X001701Y013209D01*
X001691Y013171D01*
X001691Y012983D01*
X001989Y012983D01*
X001989Y012886D01*
X001691Y012886D01*
X001691Y012698D01*
X001701Y012660D01*
X001721Y012626D01*
X001748Y012598D01*
X001782Y012579D01*
X001731Y012527D01*
X001731Y012003D01*
X001795Y011939D01*
X002280Y011939D01*
X002344Y012003D01*
X002344Y012105D01*
X002622Y012105D01*
X002692Y012035D01*
X002883Y012035D01*
X002923Y012076D01*
X003160Y011839D01*
X003160Y011364D01*
X003224Y011300D01*
X003775Y011300D01*
X003800Y011324D01*
X003824Y011300D01*
X004375Y011300D01*
X004400Y011324D01*
X004424Y011300D01*
X004975Y011300D01*
X005040Y011364D01*
X005040Y011565D01*
X006034Y011565D01*
X006315Y011284D01*
X006315Y010203D01*
X006245Y010073D02*
X001822Y010073D01*
X001822Y009974D02*
X006245Y009974D01*
X006311Y009876D02*
X001822Y009876D01*
X001822Y009777D02*
X006551Y009777D01*
X006639Y009876D02*
X006650Y009876D01*
X006705Y009974D02*
X006748Y009974D01*
X006752Y010073D02*
X006705Y010073D01*
X006666Y010171D02*
X006752Y010171D01*
X006752Y010270D02*
X006635Y010270D01*
X006635Y010368D02*
X006767Y010368D01*
X006866Y010467D02*
X006635Y010467D01*
X006635Y010565D02*
X006964Y010565D01*
X007063Y010664D02*
X006635Y010664D01*
X006635Y010762D02*
X007161Y010762D01*
X007260Y010861D02*
X006635Y010861D01*
X006635Y010959D02*
X007358Y010959D01*
X007457Y011058D02*
X006635Y011058D01*
X006635Y011156D02*
X009741Y011156D01*
X009680Y011255D02*
X006635Y011255D01*
X006635Y011353D02*
X009679Y011353D01*
X009679Y011524D02*
X010056Y011524D01*
X010056Y011823D01*
X009809Y011823D01*
X009771Y011813D01*
X009737Y011793D01*
X009709Y011765D01*
X009689Y011731D01*
X009679Y011692D01*
X009679Y011524D01*
X009679Y011550D02*
X006501Y011550D01*
X006599Y011452D02*
X010056Y011452D01*
X010056Y011550D02*
X010153Y011550D01*
X010153Y011649D02*
X010056Y011649D01*
X010056Y011747D02*
X010153Y011747D01*
X010056Y011877D02*
X010056Y012175D01*
X009679Y012175D01*
X009679Y012007D01*
X009689Y011969D01*
X009709Y011935D01*
X009737Y011907D01*
X009771Y011887D01*
X009809Y011877D01*
X010056Y011877D01*
X010056Y011944D02*
X010153Y011944D01*
X010153Y012043D02*
X010056Y012043D01*
X010056Y012141D02*
X010153Y012141D01*
X010056Y012240D02*
X004260Y012240D01*
X004260Y012338D02*
X009679Y012338D01*
X009679Y012272D02*
X009679Y012441D01*
X009689Y012479D01*
X009709Y012513D01*
X009737Y012541D01*
X009771Y012561D01*
X009809Y012571D01*
X010056Y012571D01*
X010056Y012272D01*
X009679Y012272D01*
X009679Y012141D02*
X004984Y012141D01*
X005040Y012043D02*
X009679Y012043D01*
X009703Y011944D02*
X005040Y011944D01*
X004700Y011725D02*
X006100Y011725D01*
X006475Y011350D01*
X006475Y010037D01*
X006453Y009679D02*
X003085Y009679D01*
X003085Y009580D02*
X005979Y009580D01*
X005881Y009482D02*
X003757Y009482D01*
X003855Y009383D02*
X005782Y009383D01*
X005912Y009287D02*
X005912Y008997D01*
X005912Y009287D02*
X006100Y009475D01*
X006475Y009475D01*
X006912Y009912D01*
X006912Y010287D01*
X007600Y010975D01*
X008787Y010975D01*
X008903Y010859D01*
X008903Y010557D01*
X008706Y010557D02*
X008057Y010557D01*
X007850Y010350D01*
X007850Y009787D01*
X007600Y009537D01*
X006912Y009537D01*
X006725Y009350D01*
X006725Y008997D01*
X007051Y008989D02*
X007638Y008989D01*
X007540Y008891D02*
X007051Y008891D01*
X007051Y008822D02*
X007051Y009239D01*
X006987Y009304D01*
X006905Y009304D01*
X006979Y009377D01*
X007666Y009377D01*
X008010Y009721D01*
X008010Y010284D01*
X008123Y010397D01*
X008547Y010397D01*
X008547Y010314D01*
X008611Y010250D01*
X008801Y010250D01*
X008805Y010254D01*
X008808Y010250D01*
X008899Y010250D01*
X007471Y008822D01*
X007051Y008822D01*
X007051Y009088D02*
X007737Y009088D01*
X007835Y009186D02*
X007051Y009186D01*
X007006Y009285D02*
X007934Y009285D01*
X008032Y009383D02*
X007672Y009383D01*
X007771Y009482D02*
X008131Y009482D01*
X008229Y009580D02*
X007869Y009580D01*
X007968Y009679D02*
X008328Y009679D01*
X008426Y009777D02*
X008010Y009777D01*
X008010Y009876D02*
X008525Y009876D01*
X008623Y009974D02*
X008010Y009974D01*
X008010Y010073D02*
X008722Y010073D01*
X008820Y010171D02*
X008010Y010171D01*
X008010Y010270D02*
X008591Y010270D01*
X008547Y010368D02*
X008095Y010368D01*
X007897Y010623D02*
X007690Y010416D01*
X007690Y009854D01*
X007534Y009697D01*
X006924Y009697D01*
X007072Y009846D01*
X007072Y009979D01*
X007072Y010221D01*
X007666Y010815D01*
X008563Y010815D01*
X008547Y010799D01*
X008547Y010717D01*
X007991Y010717D01*
X007897Y010623D01*
X007897Y010623D01*
X007938Y010664D02*
X007515Y010664D01*
X007417Y010565D02*
X007839Y010565D01*
X007741Y010467D02*
X007318Y010467D01*
X007220Y010368D02*
X007690Y010368D01*
X007690Y010270D02*
X007121Y010270D01*
X007072Y010171D02*
X007690Y010171D01*
X007690Y010073D02*
X007072Y010073D01*
X007072Y009974D02*
X007690Y009974D01*
X007690Y009876D02*
X007072Y009876D01*
X007004Y009777D02*
X007614Y009777D01*
X008288Y009186D02*
X008598Y009186D01*
X008547Y009088D02*
X008189Y009088D01*
X008091Y008989D02*
X008547Y008989D01*
X008546Y008891D02*
X007992Y008891D01*
X007894Y008792D02*
X008546Y008792D01*
X008546Y008694D02*
X007795Y008694D01*
X007697Y008595D02*
X008546Y008595D01*
X008546Y008497D02*
X007051Y008497D01*
X007051Y008398D02*
X008546Y008398D01*
X008546Y008300D02*
X007051Y008300D01*
X007051Y008201D02*
X008546Y008201D01*
X008546Y008103D02*
X007051Y008103D01*
X006885Y008004D02*
X008546Y008004D01*
X008546Y007906D02*
X006885Y007906D01*
X006885Y007807D02*
X008546Y007807D01*
X008866Y007807D02*
X008940Y007807D01*
X008940Y007758D02*
X008866Y007758D01*
X008866Y008546D01*
X008903Y008546D01*
X008903Y008893D01*
X008903Y009240D01*
X008903Y008893D01*
X008903Y008893D01*
X008903Y008893D01*
X008903Y008546D01*
X008940Y008546D01*
X008940Y007758D01*
X008940Y007906D02*
X008866Y007906D01*
X008866Y008004D02*
X008940Y008004D01*
X008940Y008103D02*
X008866Y008103D01*
X008866Y008201D02*
X008940Y008201D01*
X008940Y008300D02*
X008866Y008300D01*
X008866Y008398D02*
X008940Y008398D01*
X008940Y008497D02*
X008866Y008497D01*
X008903Y008595D02*
X008903Y008595D01*
X008903Y008694D02*
X008903Y008694D01*
X008903Y008792D02*
X008903Y008792D01*
X008903Y008891D02*
X008903Y008891D01*
X008903Y008989D02*
X008903Y008989D01*
X008903Y009088D02*
X008903Y009088D01*
X008903Y009186D02*
X008903Y009186D01*
X008929Y009383D02*
X008485Y009383D01*
X008386Y009285D02*
X009126Y009285D01*
X009297Y009341D02*
X009037Y009600D01*
X008807Y009580D02*
X008682Y009580D01*
X008583Y009482D02*
X008830Y009482D01*
X008807Y009679D02*
X008780Y009679D01*
X008879Y009777D02*
X008890Y009777D01*
X008977Y009876D02*
X009896Y009876D01*
X009896Y009974D02*
X009076Y009974D01*
X009174Y010073D02*
X009896Y010073D01*
X009896Y010171D02*
X009260Y010171D01*
X009100Y010225D02*
X007537Y008662D01*
X005162Y008662D01*
X005037Y008537D01*
X004869Y008694D02*
X004545Y008694D01*
X004643Y008595D02*
X004807Y008595D01*
X004807Y008497D02*
X004742Y008497D01*
X004840Y008398D02*
X004851Y008398D01*
X004939Y008300D02*
X005586Y008300D01*
X005586Y008398D02*
X005224Y008398D01*
X005267Y008497D02*
X005586Y008497D01*
X005912Y008328D02*
X005912Y007850D01*
X005537Y007475D01*
X003600Y009412D01*
X002475Y009412D01*
X001865Y009383D02*
X001822Y009383D01*
X001822Y009285D02*
X001865Y009285D01*
X001865Y009186D02*
X001822Y009186D01*
X001822Y009088D02*
X001870Y009088D01*
X001865Y008989D02*
X001822Y008989D01*
X001822Y008891D02*
X001865Y008891D01*
X001865Y008792D02*
X001822Y008792D01*
X001822Y008694D02*
X001865Y008694D01*
X001865Y008595D02*
X001822Y008595D01*
X001822Y008497D02*
X001865Y008497D01*
X001868Y008398D02*
X001822Y008398D01*
X001822Y008300D02*
X001865Y008300D01*
X001865Y008201D02*
X001822Y008201D01*
X001822Y008103D02*
X001865Y008103D01*
X001865Y008004D02*
X001822Y008004D01*
X001822Y007906D02*
X001865Y007906D01*
X001865Y007807D02*
X001822Y007807D01*
X001822Y007709D02*
X001866Y007709D01*
X001865Y007610D02*
X001822Y007610D01*
X001822Y007512D02*
X001865Y007512D01*
X001865Y007413D02*
X001822Y007413D01*
X001822Y007315D02*
X001865Y007315D01*
X001865Y007216D02*
X001822Y007216D01*
X001822Y007118D02*
X001865Y007118D01*
X001822Y007019D02*
X003527Y007019D01*
X003521Y007118D02*
X003085Y007118D01*
X003085Y007216D02*
X003521Y007216D01*
X003703Y007412D02*
X003828Y007287D01*
X003850Y007265D01*
X003850Y007037D01*
X004037Y006850D01*
X004193Y007019D02*
X004196Y007019D01*
X004190Y007118D02*
X004135Y007118D01*
X004135Y007216D02*
X004190Y007216D01*
X004190Y007315D02*
X004135Y007315D01*
X004135Y007413D02*
X004190Y007413D01*
X004190Y007512D02*
X004135Y007512D01*
X004162Y007787D02*
X003725Y008225D01*
X003225Y008225D01*
X003100Y008100D01*
X002475Y008100D01*
X002475Y008787D02*
X003662Y008787D01*
X005225Y007225D01*
X006350Y007225D01*
X006725Y007600D01*
X006725Y008328D01*
X006398Y008300D02*
X006239Y008300D01*
X006239Y008398D02*
X006398Y008398D01*
X006398Y008497D02*
X006239Y008497D01*
X006239Y008502D02*
X006398Y008502D01*
X006398Y008085D01*
X006463Y008021D01*
X006565Y008021D01*
X006565Y007666D01*
X006284Y007385D01*
X005767Y007385D01*
X005767Y007479D01*
X005979Y007690D01*
X006072Y007784D01*
X006072Y008021D01*
X006175Y008021D01*
X006239Y008085D01*
X006239Y008502D01*
X006239Y008201D02*
X006398Y008201D01*
X006398Y008103D02*
X006239Y008103D01*
X006072Y008004D02*
X006565Y008004D01*
X006565Y007906D02*
X006072Y007906D01*
X006072Y007807D02*
X006565Y007807D01*
X006565Y007709D02*
X005998Y007709D01*
X005979Y007690D02*
X005979Y007690D01*
X005899Y007610D02*
X006509Y007610D01*
X006411Y007512D02*
X005801Y007512D01*
X005767Y007413D02*
X006312Y007413D01*
X006568Y007216D02*
X007128Y007216D01*
X007128Y007170D02*
X007426Y007170D01*
X007426Y007489D01*
X007258Y007489D01*
X007220Y007478D01*
X007186Y007459D01*
X007158Y007431D01*
X007138Y007396D01*
X007128Y007358D01*
X007128Y007170D01*
X007128Y007315D02*
X006666Y007315D01*
X006765Y007413D02*
X007148Y007413D01*
X007426Y007413D02*
X007523Y007413D01*
X007523Y007315D02*
X007426Y007315D01*
X007426Y007216D02*
X007523Y007216D01*
X007523Y007118D02*
X007911Y007118D01*
X007911Y007216D02*
X007822Y007216D01*
X007822Y007315D02*
X007911Y007315D01*
X007911Y007413D02*
X007802Y007413D01*
X007911Y007512D02*
X006863Y007512D01*
X006885Y007610D02*
X007911Y007610D01*
X007926Y007709D02*
X006885Y007709D01*
X006469Y007118D02*
X007426Y007118D01*
X007128Y007019D02*
X005345Y007019D01*
X005105Y007019D02*
X004798Y007019D01*
X004804Y007118D02*
X005007Y007118D01*
X004995Y007216D02*
X004804Y007216D01*
X004804Y007315D02*
X004909Y007315D01*
X004810Y007413D02*
X004804Y007413D01*
X004537Y007247D02*
X004537Y005600D01*
X004706Y005443D02*
X006556Y005443D01*
X006457Y005345D02*
X004697Y005345D01*
X004767Y005542D02*
X007871Y005542D01*
X007871Y005552D02*
X007871Y005157D01*
X007881Y005119D01*
X007901Y005085D01*
X007929Y005057D01*
X007963Y005037D01*
X008001Y005027D01*
X008421Y005027D01*
X008421Y005552D01*
X007871Y005552D01*
X007871Y005652D02*
X007871Y006047D01*
X007881Y006085D01*
X007901Y006119D01*
X007929Y006147D01*
X007963Y006167D01*
X008001Y006177D01*
X008421Y006177D01*
X008421Y005652D01*
X008521Y005652D01*
X008521Y006177D01*
X008941Y006177D01*
X008979Y006167D01*
X009013Y006147D01*
X009041Y006119D01*
X009061Y006085D01*
X009071Y006047D01*
X009071Y005652D01*
X008521Y005652D01*
X008521Y005552D01*
X009071Y005552D01*
X009071Y005157D01*
X009061Y005119D01*
X009041Y005085D01*
X009013Y005057D01*
X008979Y005037D01*
X008941Y005027D01*
X008521Y005027D01*
X008521Y005552D01*
X008421Y005552D01*
X008421Y005652D01*
X007871Y005652D01*
X007871Y005739D02*
X004724Y005739D01*
X004697Y005837D02*
X007871Y005837D01*
X007871Y005936D02*
X004697Y005936D01*
X004697Y006034D02*
X007871Y006034D01*
X007915Y006133D02*
X007724Y006133D01*
X007782Y006231D02*
X010475Y006231D01*
X010475Y006330D02*
X008994Y006330D01*
X009092Y006428D02*
X010475Y006428D01*
X010475Y006527D02*
X009191Y006527D01*
X009260Y006625D02*
X010475Y006625D01*
X010197Y006724D02*
X009260Y006724D01*
X009260Y006822D02*
X010169Y006822D01*
X010169Y006921D02*
X009260Y006921D01*
X009260Y007019D02*
X010169Y007019D01*
X010106Y007118D02*
X009260Y007118D01*
X009260Y007216D02*
X010007Y007216D01*
X009909Y007315D02*
X009260Y007315D01*
X009260Y007413D02*
X009810Y007413D01*
X009712Y007512D02*
X009260Y007512D01*
X009260Y007610D02*
X009613Y007610D01*
X009515Y007709D02*
X009260Y007709D01*
X009260Y007807D02*
X009416Y007807D01*
X009318Y007906D02*
X009260Y007906D01*
X009297Y008153D02*
X010227Y007223D01*
X010729Y007223D01*
X010727Y007098D01*
X010725Y007100D01*
X010729Y007223D02*
X010729Y005602D01*
X010850Y005481D01*
X010850Y004725D01*
X010846Y004495D02*
X010945Y004495D01*
X010953Y004502D01*
X012791Y004502D01*
X012885Y004596D01*
X013182Y004893D01*
X013182Y005778D01*
X013264Y005778D01*
X013293Y005806D01*
X013370Y005806D01*
X013370Y005630D01*
X013440Y005560D01*
X013440Y005284D01*
X013534Y005190D01*
X013784Y004940D01*
X016666Y004940D01*
X016760Y005034D01*
X016947Y005221D01*
X016947Y006560D01*
X017017Y006630D01*
X017017Y006820D01*
X016883Y006955D01*
X016692Y006955D01*
X016557Y006820D01*
X016557Y006630D01*
X016627Y006560D01*
X016627Y005354D01*
X016534Y005260D01*
X013916Y005260D01*
X013760Y005416D01*
X013760Y005560D01*
X013830Y005630D01*
X013830Y005806D01*
X014532Y005806D01*
X014561Y005778D01*
X015046Y005778D01*
X015110Y005842D01*
X015110Y006041D01*
X015120Y006051D01*
X015140Y006086D01*
X015150Y006124D01*
X015150Y006222D01*
X014803Y006222D01*
X014456Y006222D01*
X014803Y006222D01*
X014803Y006222D01*
X014803Y006222D01*
X015150Y006222D01*
X015150Y006253D01*
X015213Y006190D01*
X015737Y006190D01*
X015801Y006255D01*
X015801Y006739D01*
X015737Y006804D01*
X015213Y006804D01*
X015148Y006739D01*
X015148Y006638D01*
X015110Y006638D01*
X015110Y006858D01*
X015046Y006923D01*
X015010Y006923D01*
X015010Y007127D01*
X016356Y007127D01*
X016400Y007083D01*
X016925Y007083D01*
X016989Y007148D01*
X016989Y007565D01*
X018604Y007565D01*
X019041Y008002D01*
X019744Y008002D01*
X019744Y006694D01*
X019542Y006694D01*
X019520Y006671D01*
X019497Y006694D01*
X019286Y006694D01*
X019264Y006671D01*
X019241Y006694D01*
X019042Y006694D01*
X019032Y006704D01*
X018998Y006723D01*
X018960Y006734D01*
X018880Y006734D01*
X018880Y006389D01*
X018880Y006389D01*
X018880Y006734D01*
X018800Y006734D01*
X018762Y006723D01*
X018728Y006704D01*
X018700Y006676D01*
X018680Y006642D01*
X018670Y006603D01*
X018670Y006389D01*
X018880Y006389D01*
X018880Y006389D01*
X018670Y006389D01*
X018670Y006174D01*
X018680Y006136D01*
X018700Y006102D01*
X018728Y006074D01*
X018762Y006054D01*
X018800Y006044D01*
X018880Y006044D01*
X018960Y006044D01*
X018976Y006048D01*
X018976Y005676D01*
X018870Y005570D01*
X018870Y005380D01*
X019005Y005245D01*
X019195Y005245D01*
X019232Y005281D01*
X019232Y004958D01*
X019159Y004885D01*
X018578Y004885D01*
X018508Y004955D01*
X018317Y004955D01*
X018182Y004820D01*
X018182Y004630D01*
X018317Y004495D01*
X018508Y004495D01*
X018578Y004565D01*
X019291Y004565D01*
X019458Y004732D01*
X019552Y004825D01*
X019552Y006084D01*
X019744Y006084D01*
X019744Y005444D01*
X019682Y005383D01*
X019682Y005192D01*
X019817Y005057D01*
X020008Y005057D01*
X020142Y005192D01*
X020142Y005383D01*
X020064Y005462D01*
X020064Y006048D01*
X020080Y006044D01*
X020159Y006044D01*
X020159Y006389D01*
X020159Y006734D01*
X020080Y006734D01*
X020064Y006729D01*
X020064Y008002D01*
X020104Y008002D01*
X020229Y008127D01*
X020255Y008154D01*
X020255Y008143D01*
X020245Y008133D01*
X020245Y007942D01*
X020380Y007807D01*
X020570Y007807D01*
X020705Y007942D01*
X020705Y008133D01*
X020575Y008262D01*
X020575Y008381D01*
X020777Y008381D01*
X020799Y008404D01*
X020822Y008381D01*
X021033Y008381D01*
X021055Y008404D01*
X021078Y008381D01*
X021289Y008381D01*
X021353Y008446D01*
X021353Y008927D01*
X021343Y008937D01*
X021343Y011708D01*
X020635Y012416D01*
X020541Y012510D01*
X019541Y012510D01*
X019330Y012721D01*
X019330Y012820D01*
X019195Y012955D01*
X019005Y012955D01*
X018870Y012820D01*
X018870Y012630D01*
X019005Y012495D01*
X019104Y012495D01*
X019409Y012190D01*
X020409Y012190D01*
X021023Y011575D01*
X021023Y008991D01*
X020831Y008991D01*
X020831Y009657D01*
X020595Y009894D01*
X020501Y009988D01*
X020219Y009988D01*
X020219Y010090D01*
X020168Y010141D01*
X020201Y010160D01*
X020229Y010188D01*
X020249Y010223D01*
X020259Y010261D01*
X020259Y010449D01*
X019961Y010449D01*
X019961Y010545D01*
X020259Y010545D01*
X020259Y010733D01*
X020249Y010771D01*
X020229Y010806D01*
X020201Y010834D01*
X020167Y010853D01*
X020129Y010864D01*
X019961Y010864D01*
X019961Y010545D01*
X019864Y010545D01*
X019864Y010449D01*
X019566Y010449D01*
X019566Y010261D01*
X019576Y010223D01*
X019596Y010188D01*
X019623Y010160D01*
X019657Y010141D01*
X019606Y010090D01*
X019606Y010010D01*
X019096Y010010D01*
X019002Y009916D01*
X018627Y009541D01*
X018627Y009453D01*
X018557Y009383D01*
X018557Y009192D01*
X018692Y009057D01*
X018883Y009057D01*
X019017Y009192D01*
X019017Y009383D01*
X018969Y009431D01*
X019120Y009581D01*
X019120Y009442D01*
X019190Y009372D01*
X019190Y009159D01*
X019284Y009065D01*
X019357Y008991D01*
X019298Y008991D01*
X019288Y009001D01*
X019254Y009021D01*
X019216Y009031D01*
X019136Y009031D01*
X019136Y008686D01*
X019136Y008341D01*
X019216Y008341D01*
X019232Y008345D01*
X019232Y008322D01*
X019041Y008322D01*
X019040Y008324D01*
X019040Y008345D01*
X019056Y008341D01*
X019136Y008341D01*
X019136Y008686D01*
X019136Y008686D01*
X019136Y008686D01*
X019136Y009031D01*
X019056Y009031D01*
X019018Y009021D01*
X018984Y009001D01*
X018974Y008991D01*
X018774Y008991D01*
X018710Y008927D01*
X018710Y008446D01*
X018720Y008436D01*
X018720Y008191D01*
X018749Y008162D01*
X018471Y007885D01*
X018398Y007885D01*
X018517Y008005D01*
X018517Y008195D01*
X018447Y008265D01*
X018447Y009409D01*
X018885Y009846D01*
X018885Y011560D01*
X018955Y011630D01*
X018955Y011820D01*
X018820Y011955D01*
X018630Y011955D01*
X018495Y011820D01*
X018495Y011630D01*
X018565Y011560D01*
X018565Y009979D01*
X018221Y009635D01*
X018127Y009541D01*
X018127Y008265D01*
X018057Y008195D01*
X018057Y008005D01*
X018177Y007885D01*
X016989Y007885D01*
X016989Y008302D01*
X016925Y008366D01*
X016822Y008366D01*
X016822Y009086D01*
X016883Y009086D01*
X016947Y009150D01*
X016947Y009675D01*
X016883Y009739D01*
X016398Y009739D01*
X016333Y009675D01*
X016333Y009613D01*
X016176Y009613D01*
X016176Y009695D01*
X016112Y009760D01*
X015588Y009760D01*
X015523Y009695D01*
X015523Y009689D01*
X015508Y009705D01*
X015322Y009705D01*
X015322Y010791D01*
X015229Y010885D01*
X015030Y011083D01*
X015362Y011083D01*
X015426Y011148D01*
X015426Y011507D01*
X015523Y011410D01*
X015523Y011130D01*
X015588Y011065D01*
X016112Y011065D01*
X016176Y011130D01*
X016176Y011614D01*
X016112Y011679D01*
X015707Y011679D01*
X015426Y011959D01*
X015426Y012302D01*
X015362Y012366D01*
X014838Y012366D01*
X014773Y012302D01*
X014773Y011817D01*
X014838Y011753D01*
X015180Y011753D01*
X015236Y011697D01*
X014838Y011697D01*
X014776Y011635D01*
X014769Y011635D01*
X014769Y011845D01*
X014755Y011859D01*
X014769Y011872D01*
X014769Y012101D01*
X014755Y012115D01*
X014769Y012128D01*
X014769Y012357D01*
X014705Y012422D01*
X014372Y012422D01*
X014390Y012440D01*
X016159Y012440D01*
X016877Y011721D01*
X016877Y011335D01*
X016758Y011455D01*
X016567Y011455D01*
X016432Y011320D01*
X016432Y011130D01*
X016502Y011060D01*
X016502Y010979D01*
X016409Y010885D01*
X016176Y010885D01*
X016176Y010945D01*
X016112Y011010D01*
X015588Y011010D01*
X015523Y010945D01*
X015523Y010460D01*
X015571Y010412D01*
X015523Y010364D01*
X015523Y009880D01*
X015588Y009815D01*
X016112Y009815D01*
X016176Y009880D01*
X016176Y010364D01*
X016128Y010412D01*
X016176Y010460D01*
X016176Y010565D01*
X016541Y010565D01*
X016635Y010659D01*
X016822Y010846D01*
X016822Y011060D01*
X016877Y011115D01*
X016877Y010203D01*
X016745Y010070D01*
X016745Y009880D01*
X016880Y009745D01*
X017070Y009745D01*
X017150Y009824D01*
X017150Y009739D01*
X017067Y009739D01*
X017003Y009675D01*
X017003Y009150D01*
X017067Y009086D01*
X017552Y009086D01*
X017616Y009150D01*
X017616Y009675D01*
X017552Y009739D01*
X017470Y009739D01*
X017470Y009833D01*
X017987Y009833D01*
X018051Y009898D01*
X018051Y010002D01*
X018229Y010002D01*
X018322Y010096D01*
X018447Y010221D01*
X018447Y011541D01*
X018354Y011635D01*
X017916Y012072D01*
X017291Y012072D01*
X016994Y012370D01*
X017133Y012370D01*
X017267Y012505D01*
X017267Y012695D01*
X017197Y012765D01*
X017197Y016247D01*
X017267Y016317D01*
X017267Y016508D01*
X017133Y016642D01*
X016942Y016642D01*
X016807Y016508D01*
X016807Y016317D01*
X016877Y016247D01*
X016877Y012765D01*
X016807Y012695D01*
X016807Y012556D01*
X016354Y013010D01*
X015799Y013010D01*
X015822Y013034D01*
X016385Y013596D01*
X016385Y014435D01*
X016455Y014505D01*
X016455Y014695D01*
X016320Y014830D01*
X016130Y014830D01*
X015995Y014695D01*
X015995Y014505D01*
X016065Y014435D01*
X016065Y013729D01*
X015596Y013260D01*
X013221Y013260D01*
X012721Y012760D01*
X012627Y012666D01*
X012627Y012229D01*
X012545Y012147D01*
X012505Y012147D01*
X012505Y012357D01*
X012441Y012422D01*
X011995Y012422D01*
X011931Y012357D01*
X011931Y012128D01*
X011944Y012115D01*
X011931Y012101D01*
X011931Y011872D01*
X011944Y011859D01*
X011931Y011845D01*
X011931Y011635D01*
X011409Y011635D01*
X011392Y011618D01*
X011396Y011633D01*
X011396Y011801D01*
X011019Y011801D01*
X011019Y011503D01*
X011266Y011503D01*
X011281Y011507D01*
X011065Y011291D01*
X011065Y011159D01*
X011065Y010721D01*
X011159Y010627D01*
X011471Y010315D01*
X012096Y010315D01*
X012471Y009940D01*
X013034Y009940D01*
X013065Y009909D01*
X013065Y008971D01*
X013159Y008877D01*
X014031Y008005D01*
X014246Y008005D01*
X014246Y007785D01*
X014250Y007781D01*
X014246Y007777D01*
X014246Y007529D01*
X014311Y007464D01*
X014795Y007464D01*
X014860Y007529D01*
X014860Y007749D01*
X015162Y007749D01*
X015245Y007666D01*
X015245Y007567D01*
X015365Y007447D01*
X014291Y007447D01*
X013763Y007975D01*
X013670Y008069D01*
X013118Y008069D01*
X013118Y008165D01*
X013118Y008263D01*
X013108Y008302D01*
X013088Y008336D01*
X013078Y008346D01*
X013078Y008545D01*
X013014Y008610D01*
X012529Y008610D01*
X012517Y008597D01*
X012407Y008707D01*
X012455Y008755D01*
X012455Y008945D01*
X012320Y009080D01*
X012130Y009080D01*
X011995Y008945D01*
X011995Y008755D01*
X012065Y008685D01*
X012065Y008596D01*
X012159Y008502D01*
X012400Y008261D01*
X012425Y008261D01*
X012425Y008165D01*
X012425Y008072D01*
X012104Y008072D01*
X011822Y008354D01*
X011822Y009666D01*
X011729Y009760D01*
X011416Y010072D01*
X011179Y010072D01*
X011179Y010175D01*
X011114Y010239D01*
X010662Y010239D01*
X010662Y011506D01*
X010675Y011503D01*
X010922Y011503D01*
X010922Y011801D01*
X011019Y011801D01*
X011019Y011898D01*
X011396Y011898D01*
X011396Y012066D01*
X011386Y012105D01*
X011366Y012139D01*
X011338Y012167D01*
X011304Y012187D01*
X011266Y012197D01*
X011019Y012197D01*
X011019Y011898D01*
X010922Y011898D01*
X010922Y012197D01*
X010675Y012197D01*
X010662Y012193D01*
X010662Y016502D01*
X010872Y016502D01*
X010942Y016432D01*
X011133Y016432D01*
X011203Y016502D01*
X013159Y016502D01*
X013502Y016159D01*
X013502Y015015D01*
X013432Y014945D01*
X013432Y014755D01*
X013567Y014620D01*
X013758Y014620D01*
X013892Y014755D01*
X013892Y014945D01*
X013822Y015015D01*
X013822Y016291D01*
X013385Y016729D01*
X013291Y016822D01*
X011203Y016822D01*
X011133Y016892D01*
X010942Y016892D01*
X010872Y016822D01*
X010662Y016822D01*
X010662Y018479D01*
X025172Y018479D01*
X025172Y018205D01*
X025289Y017766D01*
X025516Y017373D01*
X025838Y017052D01*
X026231Y016825D01*
X026670Y016707D01*
X026747Y016707D01*
X026747Y011190D01*
X026731Y011217D01*
X026677Y011288D01*
X026614Y011350D01*
X026544Y011404D01*
X026467Y011448D01*
X026386Y011482D01*
X026300Y011505D01*
X026218Y011516D01*
X026218Y010892D01*
X026118Y010892D01*
X026118Y011516D01*
X026036Y011505D01*
X025951Y011482D01*
X025869Y011448D01*
X025792Y011404D01*
X025722Y011350D01*
X025660Y011288D01*
X025606Y011217D01*
X025562Y011141D01*
X025528Y011059D01*
X025505Y010973D01*
X025494Y010891D01*
X026118Y010891D01*
X026118Y010791D01*
X026218Y010791D01*
X026218Y010167D01*
X026300Y010178D01*
X026386Y010201D01*
X026467Y010235D01*
X026544Y010279D01*
X026614Y010333D01*
X026677Y010395D01*
X026731Y010466D01*
X026747Y010493D01*
X026747Y009182D01*
X026731Y009210D01*
X026677Y009280D01*
X026614Y009342D01*
X026544Y009396D01*
X026467Y009440D01*
X026386Y009474D01*
X026300Y009497D01*
X026218Y009508D01*
X026218Y008884D01*
X026118Y008884D01*
X026118Y009508D01*
X026036Y009497D01*
X025951Y009474D01*
X025869Y009440D01*
X025792Y009396D01*
X025722Y009342D01*
X025660Y009280D01*
X025606Y009210D01*
X025562Y009133D01*
X025528Y009051D01*
X025505Y008966D01*
X025494Y008884D01*
X026118Y008884D01*
X026118Y008784D01*
X025494Y008784D01*
X025505Y008702D01*
X025528Y008616D01*
X025562Y008535D01*
X025606Y008458D01*
X025660Y008388D01*
X025722Y008325D01*
X025792Y008271D01*
X025869Y008227D01*
X025951Y008193D01*
X026036Y008170D01*
X026118Y008159D01*
X026118Y008784D01*
X026218Y008784D01*
X026218Y008159D01*
X026300Y008170D01*
X026386Y008193D01*
X026467Y008227D01*
X026544Y008271D01*
X026614Y008325D01*
X026677Y008388D01*
X026731Y008458D01*
X026747Y008485D01*
X026747Y002825D01*
X026648Y002820D01*
X026648Y002820D01*
X026192Y002668D01*
X025790Y002404D01*
X025790Y002404D01*
X025470Y002044D01*
X025255Y001615D01*
X025255Y001615D01*
X025158Y001144D01*
X025158Y001144D01*
X025163Y001062D01*
X014350Y001062D01*
X014350Y004350D01*
X010701Y004350D01*
X010846Y004495D01*
X010810Y004458D02*
X026747Y004458D01*
X026747Y004360D02*
X010711Y004360D01*
X010456Y004557D02*
X010171Y004557D01*
X010475Y004655D02*
X007458Y004655D01*
X007557Y004557D02*
X009528Y004557D01*
X009523Y004458D02*
X007655Y004458D01*
X007754Y004360D02*
X009523Y004360D01*
X009523Y003867D02*
X008246Y003867D01*
X008345Y003769D02*
X009523Y003769D01*
X009287Y003600D02*
X009810Y003600D01*
X009850Y003640D01*
X010493Y003640D01*
X010537Y003595D01*
X010231Y003473D02*
X010176Y003473D01*
X010154Y003375D02*
X010231Y003375D01*
X010231Y003276D02*
X009261Y003276D01*
X009261Y003178D02*
X014162Y003178D01*
X014162Y003079D02*
X011189Y003079D01*
X011218Y002981D02*
X014162Y002981D01*
X014162Y002882D02*
X011955Y002882D01*
X012017Y002784D02*
X014162Y002784D01*
X014162Y002685D02*
X012017Y002685D01*
X011975Y002587D02*
X014162Y002587D01*
X014162Y002488D02*
X011218Y002488D01*
X011200Y002390D02*
X014162Y002390D01*
X014162Y002291D02*
X011072Y002291D01*
X011044Y002193D02*
X014162Y002193D01*
X014162Y002094D02*
X010946Y002094D01*
X010847Y001996D02*
X014162Y001996D01*
X014162Y001897D02*
X010749Y001897D01*
X010650Y001799D02*
X014162Y001799D01*
X014162Y001700D02*
X010552Y001700D01*
X010479Y001854D02*
X010912Y002287D01*
X010912Y002728D01*
X010911Y002729D01*
X011787Y002729D01*
X011787Y002725D01*
X010592Y002193D02*
X010138Y002193D01*
X010156Y002094D02*
X010493Y002094D01*
X010479Y001854D02*
X009849Y001854D01*
X010156Y001602D02*
X014162Y001602D01*
X014162Y001503D02*
X010126Y001503D01*
X008824Y001503D02*
X007417Y001503D01*
X007355Y001441D02*
X007666Y001752D01*
X007760Y001846D01*
X007760Y003106D01*
X007917Y003106D01*
X007981Y003170D01*
X007981Y003655D01*
X007917Y003719D01*
X007274Y003719D01*
X007210Y003655D01*
X007210Y003170D01*
X007274Y003106D01*
X007440Y003106D01*
X007440Y001979D01*
X007222Y001761D01*
X007106Y001761D01*
X007106Y001843D01*
X007042Y001908D01*
X006399Y001908D01*
X006335Y001843D01*
X006335Y001358D01*
X006399Y001294D01*
X007042Y001294D01*
X007106Y001358D01*
X007106Y001441D01*
X007355Y001441D01*
X007288Y001601D02*
X007600Y001912D01*
X007600Y003408D01*
X007604Y003412D01*
X007725Y003412D01*
X007600Y003408D02*
X007595Y003412D01*
X007210Y003375D02*
X006014Y003375D01*
X006014Y003276D02*
X006344Y003276D01*
X006344Y003281D02*
X006344Y002796D01*
X006408Y002732D01*
X006560Y002732D01*
X006560Y002656D01*
X006399Y002656D01*
X006335Y002591D01*
X006335Y002107D01*
X006399Y002042D01*
X007042Y002042D01*
X007106Y002107D01*
X007106Y002591D01*
X007042Y002656D01*
X006880Y002656D01*
X006880Y002732D01*
X007050Y002732D01*
X007115Y002796D01*
X007115Y003281D01*
X007050Y003345D01*
X006408Y003345D01*
X006344Y003281D01*
X006344Y003178D02*
X006014Y003178D01*
X006014Y003079D02*
X006344Y003079D01*
X006344Y002981D02*
X006014Y002981D01*
X006014Y002882D02*
X006344Y002882D01*
X006356Y002784D02*
X006014Y002784D01*
X006014Y002685D02*
X006560Y002685D01*
X006335Y002587D02*
X006014Y002587D01*
X006014Y002488D02*
X006335Y002488D01*
X006335Y002390D02*
X006014Y002390D01*
X006014Y002291D02*
X006335Y002291D01*
X006335Y002193D02*
X006240Y002193D01*
X006240Y002094D02*
X006347Y002094D01*
X006240Y001996D02*
X007440Y001996D01*
X007440Y002094D02*
X007094Y002094D01*
X007106Y002193D02*
X007440Y002193D01*
X007440Y002291D02*
X007106Y002291D01*
X007106Y002390D02*
X007440Y002390D01*
X007440Y002488D02*
X007106Y002488D01*
X007106Y002587D02*
X007440Y002587D01*
X007440Y002685D02*
X006880Y002685D01*
X007103Y002784D02*
X007440Y002784D01*
X007440Y002882D02*
X007115Y002882D01*
X007115Y002981D02*
X007440Y002981D01*
X007440Y003079D02*
X007115Y003079D01*
X007115Y003178D02*
X007210Y003178D01*
X007210Y003276D02*
X007115Y003276D01*
X007210Y003473D02*
X006075Y003473D01*
X006173Y003572D02*
X006344Y003572D01*
X006161Y003786D02*
X005662Y004285D01*
X005662Y004537D01*
X005892Y004557D02*
X007104Y004557D01*
X007006Y004655D02*
X005870Y004655D01*
X005771Y004754D02*
X006907Y004754D01*
X007163Y004951D02*
X010475Y004951D01*
X010475Y005049D02*
X009000Y005049D01*
X009068Y005148D02*
X010169Y005148D01*
X010169Y005246D02*
X009071Y005246D01*
X009071Y005345D02*
X010169Y005345D01*
X010169Y005443D02*
X009071Y005443D01*
X009071Y005542D02*
X010169Y005542D01*
X010169Y005640D02*
X008521Y005640D01*
X008521Y005542D02*
X008421Y005542D01*
X008421Y005640D02*
X004767Y005640D01*
X004377Y005837D02*
X002401Y005837D01*
X002303Y005936D02*
X004377Y005936D01*
X004377Y006034D02*
X002204Y006034D01*
X002106Y006133D02*
X004377Y006133D01*
X004377Y006231D02*
X002007Y006231D01*
X001909Y006330D02*
X004377Y006330D01*
X004377Y006428D02*
X001822Y006428D01*
X001822Y006527D02*
X004377Y006527D01*
X004377Y006625D02*
X004138Y006625D01*
X004237Y006724D02*
X004377Y006724D01*
X004377Y006822D02*
X004267Y006822D01*
X004267Y006921D02*
X004377Y006921D01*
X004697Y006921D02*
X007128Y006921D01*
X007153Y006822D02*
X004697Y006822D01*
X004697Y006724D02*
X007177Y006724D01*
X007168Y006625D02*
X004697Y006625D01*
X004697Y006527D02*
X007168Y006527D01*
X007168Y006428D02*
X004697Y006428D01*
X004697Y006330D02*
X007168Y006330D01*
X007168Y006231D02*
X004697Y006231D01*
X004697Y006133D02*
X007226Y006133D01*
X007475Y006453D02*
X008890Y006453D01*
X009100Y006662D01*
X009100Y008893D01*
X009297Y008893D02*
X009297Y009341D01*
X009382Y009482D02*
X010475Y009482D01*
X010475Y009580D02*
X009283Y009580D01*
X009267Y009679D02*
X009896Y009679D01*
X009896Y009777D02*
X009185Y009777D01*
X009100Y010225D02*
X009100Y010557D01*
X009297Y010557D02*
X009297Y010859D01*
X009412Y010975D01*
X010725Y010975D01*
X010975Y011225D01*
X010975Y011845D01*
X010970Y011850D01*
X011019Y011846D02*
X011932Y011846D01*
X011931Y011944D02*
X011396Y011944D01*
X011396Y012043D02*
X011931Y012043D01*
X011931Y012141D02*
X011364Y012141D01*
X011931Y012240D02*
X010662Y012240D01*
X010662Y012338D02*
X011931Y012338D01*
X012218Y011987D02*
X012612Y011987D01*
X012787Y012162D01*
X012787Y012600D01*
X013287Y013100D01*
X015662Y013100D01*
X016225Y013662D01*
X016225Y014600D01*
X016455Y014604D02*
X016877Y014604D01*
X016877Y014702D02*
X016448Y014702D01*
X016349Y014801D02*
X016877Y014801D01*
X016877Y014899D02*
X013892Y014899D01*
X013892Y014801D02*
X016101Y014801D01*
X016002Y014702D02*
X013840Y014702D01*
X013662Y014850D02*
X013662Y016225D01*
X013225Y016662D01*
X011037Y016662D01*
X010078Y016662D01*
X010037Y016703D01*
X009711Y016672D02*
X001062Y016672D01*
X001062Y016574D02*
X003999Y016574D01*
X003932Y016508D02*
X003932Y016409D01*
X003828Y016304D01*
X003650Y016304D01*
X003586Y016239D01*
X003586Y016130D01*
X003517Y016130D01*
X003517Y016133D01*
X003383Y016267D01*
X003192Y016267D01*
X003093Y016169D01*
X003093Y016292D01*
X003029Y016356D01*
X002544Y016356D01*
X002480Y016292D01*
X002480Y015649D01*
X002544Y015585D01*
X002994Y015585D01*
X002981Y015572D01*
X002981Y015047D01*
X003045Y014983D01*
X003530Y014983D01*
X003594Y015047D01*
X003594Y015077D01*
X003650Y015021D01*
X003752Y015021D01*
X003752Y014916D01*
X003636Y014800D01*
X003594Y014800D01*
X003594Y014902D01*
X003530Y014967D01*
X003045Y014967D01*
X002981Y014902D01*
X002981Y014378D01*
X003045Y014314D01*
X003388Y014314D01*
X003439Y014262D01*
X003439Y014154D01*
X003435Y014158D01*
X003401Y014178D01*
X003363Y014188D01*
X003234Y014188D01*
X003234Y013811D01*
X003216Y013811D01*
X003216Y014188D01*
X003087Y014188D01*
X003049Y014178D01*
X003015Y014158D01*
X003005Y014148D01*
X002687Y014148D01*
X002623Y014083D01*
X002623Y013947D01*
X002328Y013947D01*
X002258Y014017D01*
X002067Y014017D01*
X001932Y013883D01*
X001932Y013692D01*
X002067Y013557D01*
X002258Y013557D01*
X002328Y013627D01*
X002623Y013627D01*
X002623Y013520D01*
X002687Y013455D01*
X003005Y013455D01*
X003015Y013445D01*
X003049Y013426D01*
X003087Y013415D01*
X003216Y013415D01*
X003216Y013793D01*
X003234Y013793D01*
X003234Y013415D01*
X003363Y013415D01*
X003401Y013426D01*
X003435Y013445D01*
X003445Y013455D01*
X003763Y013455D01*
X003827Y013520D01*
X003827Y014083D01*
X003763Y014148D01*
X003759Y014148D01*
X003759Y014395D01*
X003674Y014480D01*
X003769Y014480D01*
X003979Y014690D01*
X004072Y014784D01*
X004072Y015021D01*
X004175Y015021D01*
X004239Y015085D01*
X004239Y015168D01*
X004243Y015168D01*
X004377Y015034D01*
X004430Y014981D01*
X004420Y014981D01*
X004356Y014917D01*
X004356Y014830D01*
X004192Y014830D01*
X004057Y014695D01*
X004057Y014505D01*
X004192Y014370D01*
X004356Y014370D01*
X004356Y014274D01*
X004420Y014210D01*
X003759Y014210D01*
X003759Y014308D02*
X004356Y014308D01*
X004420Y014210D02*
X004905Y014210D01*
X005669Y014210D01*
X005669Y014237D02*
X005669Y013795D01*
X005680Y013757D01*
X005699Y013723D01*
X005727Y013695D01*
X005761Y013675D01*
X005800Y013665D01*
X006084Y013665D01*
X006084Y014237D01*
X006184Y014237D01*
X006184Y013665D01*
X006469Y013665D01*
X006507Y013675D01*
X006541Y013695D01*
X006569Y013723D01*
X006589Y013757D01*
X006599Y013795D01*
X006599Y014237D01*
X006184Y014237D01*
X006184Y014337D01*
X006599Y014337D01*
X006599Y014780D01*
X006589Y014818D01*
X006569Y014852D01*
X006541Y014880D01*
X006539Y014881D01*
X006541Y014882D01*
X006569Y014910D01*
X006589Y014945D01*
X006599Y014983D01*
X006599Y015425D01*
X006184Y015425D01*
X006184Y014337D01*
X006084Y014337D01*
X006084Y014237D01*
X005669Y014237D01*
X005669Y014337D02*
X006084Y014337D01*
X006084Y014910D01*
X006084Y015425D01*
X005669Y015425D01*
X005669Y014983D01*
X005680Y014945D01*
X005699Y014910D01*
X005727Y014882D01*
X005730Y014881D01*
X005727Y014880D01*
X005699Y014852D01*
X005680Y014818D01*
X005669Y014780D01*
X005669Y014337D01*
X005669Y014407D02*
X004969Y014407D01*
X004969Y014505D02*
X005669Y014505D01*
X005669Y014604D02*
X004969Y014604D01*
X004969Y014702D02*
X005669Y014702D01*
X005675Y014801D02*
X004969Y014801D01*
X004969Y014870D02*
X005133Y014870D01*
X005267Y015005D01*
X005267Y015195D01*
X005669Y015195D01*
X005669Y015293D02*
X005169Y015293D01*
X005133Y015330D02*
X005103Y015330D01*
X005124Y015351D01*
X005144Y015386D01*
X005154Y015424D01*
X005154Y015592D01*
X004836Y015592D01*
X004836Y015689D01*
X004739Y015689D01*
X004739Y015987D01*
X004551Y015987D01*
X004513Y015977D01*
X004479Y015957D01*
X004451Y015929D01*
X004431Y015895D01*
X004421Y015857D01*
X004421Y015689D01*
X004739Y015689D01*
X004739Y015592D01*
X004421Y015592D01*
X004421Y015443D01*
X004376Y015488D01*
X004239Y015488D01*
X004239Y015570D01*
X004175Y015635D01*
X003650Y015635D01*
X003591Y015575D01*
X003530Y015636D01*
X003447Y015636D01*
X003447Y015810D01*
X003586Y015810D01*
X003586Y015755D01*
X003650Y015690D01*
X004175Y015690D01*
X004239Y015755D01*
X004239Y016182D01*
X004258Y016182D01*
X004392Y016317D01*
X004392Y016508D01*
X004258Y016642D01*
X004067Y016642D01*
X003932Y016508D01*
X003932Y016475D02*
X001062Y016475D01*
X001062Y016377D02*
X001768Y016377D01*
X001784Y016386D02*
X001749Y016366D01*
X001722Y016338D01*
X001702Y016304D01*
X001692Y016266D01*
X001692Y016019D01*
X001990Y016019D01*
X001990Y016396D01*
X001822Y016396D01*
X001784Y016386D01*
X001695Y016278D02*
X001062Y016278D01*
X001062Y016180D02*
X001692Y016180D01*
X001692Y016081D02*
X001062Y016081D01*
X001062Y015983D02*
X001990Y015983D01*
X001990Y016019D02*
X001990Y015922D01*
X002087Y015922D01*
X002087Y016019D01*
X002385Y016019D01*
X002385Y016266D01*
X002375Y016304D01*
X002355Y016338D01*
X002327Y016366D01*
X002293Y016386D01*
X002255Y016396D01*
X002087Y016396D01*
X002087Y016019D01*
X001990Y016019D01*
X001990Y016081D02*
X002087Y016081D01*
X002087Y015983D02*
X002480Y015983D01*
X002480Y016081D02*
X002385Y016081D01*
X002385Y016180D02*
X002480Y016180D01*
X002480Y016278D02*
X002382Y016278D01*
X002309Y016377D02*
X003901Y016377D01*
X003912Y016162D02*
X004162Y016412D01*
X004326Y016574D02*
X004483Y016574D01*
X004461Y016552D02*
X004525Y016616D01*
X005050Y016616D01*
X005114Y016552D01*
X005114Y016510D01*
X005185Y016510D01*
X005255Y016580D01*
X005445Y016580D01*
X005580Y016445D01*
X005580Y016255D01*
X005445Y016120D01*
X005255Y016120D01*
X005185Y016190D01*
X005114Y016190D01*
X005114Y016067D01*
X005050Y016003D01*
X004525Y016003D01*
X004461Y016067D01*
X004461Y016552D01*
X004461Y016475D02*
X004392Y016475D01*
X004392Y016377D02*
X004461Y016377D01*
X004461Y016278D02*
X004354Y016278D01*
X004461Y016180D02*
X004239Y016180D01*
X004239Y016081D02*
X004461Y016081D01*
X004536Y015983D02*
X004239Y015983D01*
X004239Y015884D02*
X004428Y015884D01*
X004421Y015786D02*
X004239Y015786D01*
X004220Y015589D02*
X004421Y015589D01*
X004421Y015490D02*
X004239Y015490D01*
X004310Y015328D02*
X003912Y015328D01*
X003912Y014850D01*
X003703Y014640D01*
X003287Y014640D01*
X003599Y014329D01*
X003599Y013802D01*
X003827Y013816D02*
X003942Y013816D01*
X003942Y013778D02*
X004240Y013778D01*
X004240Y014155D01*
X004072Y014155D01*
X004034Y014145D01*
X003999Y014125D01*
X003972Y014097D01*
X003952Y014063D01*
X003942Y014025D01*
X003942Y013778D01*
X003942Y013681D02*
X003942Y013434D01*
X003952Y013396D01*
X003972Y013362D01*
X003999Y013334D01*
X004034Y013314D01*
X004072Y013304D01*
X004240Y013304D01*
X004240Y013681D01*
X003942Y013681D01*
X003942Y013619D02*
X003827Y013619D01*
X003827Y013717D02*
X004240Y013717D01*
X004240Y013681D02*
X004240Y013778D01*
X004337Y013778D01*
X004337Y014155D01*
X004505Y014155D01*
X004543Y014145D01*
X004577Y014125D01*
X004605Y014097D01*
X004625Y014063D01*
X004635Y014025D01*
X004635Y013778D01*
X004337Y013778D01*
X004337Y013681D01*
X004635Y013681D01*
X004635Y013434D01*
X004625Y013396D01*
X004605Y013362D01*
X004577Y013334D01*
X004543Y013314D01*
X004505Y013304D01*
X004337Y013304D01*
X004337Y013681D01*
X004240Y013681D01*
X004240Y013619D02*
X004337Y013619D01*
X004337Y013717D02*
X004730Y013717D01*
X004730Y013619D02*
X004635Y013619D01*
X004635Y013520D02*
X004730Y013520D01*
X004730Y013422D02*
X004632Y013422D01*
X004730Y013408D02*
X004794Y013344D01*
X005279Y013344D01*
X005343Y013408D01*
X005343Y014050D01*
X005279Y014115D01*
X004794Y014115D01*
X004730Y014050D01*
X004730Y013408D01*
X004560Y013323D02*
X009711Y013323D01*
X009711Y013273D02*
X009775Y013208D01*
X009877Y013208D01*
X009877Y013140D01*
X009807Y013070D01*
X009807Y012880D01*
X009942Y012745D01*
X010133Y012745D01*
X010267Y012880D01*
X010267Y013070D01*
X010197Y013140D01*
X010197Y013208D01*
X010300Y013208D01*
X010364Y013273D01*
X010364Y013758D01*
X010300Y013822D01*
X009775Y013822D01*
X009711Y013758D01*
X009711Y013273D01*
X009759Y013225D02*
X002365Y013225D01*
X002384Y013126D02*
X009864Y013126D01*
X009807Y013028D02*
X005192Y013028D01*
X005189Y013034D02*
X005161Y013061D01*
X005127Y013081D01*
X005089Y013091D01*
X004920Y013091D01*
X004920Y012773D01*
X004824Y012773D01*
X004824Y012676D01*
X004920Y012676D01*
X004920Y012358D01*
X005089Y012358D01*
X005127Y012369D01*
X005161Y012388D01*
X005189Y012416D01*
X005209Y012450D01*
X005219Y012489D01*
X005219Y012676D01*
X004920Y012676D01*
X004920Y012773D01*
X005219Y012773D01*
X005219Y012961D01*
X005209Y012999D01*
X005189Y013034D01*
X005219Y012929D02*
X009807Y012929D01*
X009856Y012831D02*
X005219Y012831D01*
X005219Y012634D02*
X010475Y012634D01*
X010475Y012732D02*
X004920Y012732D01*
X004824Y012732D02*
X004510Y012732D01*
X004525Y012773D02*
X004824Y012773D01*
X004824Y013091D01*
X004655Y013091D01*
X004617Y013081D01*
X004583Y013061D01*
X004555Y013034D01*
X004535Y012999D01*
X004525Y012961D01*
X004525Y012773D01*
X004525Y012831D02*
X004510Y012831D01*
X004510Y012929D02*
X004525Y012929D01*
X004552Y013028D02*
X004469Y013028D01*
X004203Y012725D02*
X003647Y012725D01*
X003599Y012773D01*
X003371Y012732D02*
X003079Y012732D01*
X003079Y012634D02*
X003371Y012634D01*
X003371Y012535D02*
X003079Y012535D01*
X003024Y012437D02*
X003425Y012437D01*
X003211Y012240D02*
X003940Y012240D01*
X003940Y012338D02*
X003113Y012338D01*
X002960Y012265D02*
X003500Y011725D01*
X003160Y011747D02*
X001062Y011747D01*
X001062Y011649D02*
X003160Y011649D01*
X003160Y011550D02*
X001062Y011550D01*
X001062Y011452D02*
X003160Y011452D01*
X003171Y011353D02*
X001062Y011353D01*
X001062Y011255D02*
X004495Y011255D01*
X004699Y011255D02*
X004795Y011255D01*
X004795Y011259D02*
X004795Y010961D01*
X005114Y010961D01*
X005114Y011129D01*
X005103Y011167D01*
X005084Y011201D01*
X005056Y011229D01*
X005021Y011249D01*
X004983Y011259D01*
X004795Y011259D01*
X004795Y011156D02*
X004699Y011156D01*
X004699Y011058D02*
X004795Y011058D01*
X004795Y010959D02*
X006315Y010959D01*
X006315Y010861D02*
X005114Y010861D01*
X005114Y010762D02*
X006315Y010762D01*
X006315Y010664D02*
X005105Y010664D01*
X004795Y010664D02*
X004699Y010664D01*
X004699Y010762D02*
X004795Y010762D01*
X004795Y010861D02*
X004699Y010861D01*
X005114Y011058D02*
X006315Y011058D01*
X006315Y011156D02*
X005106Y011156D01*
X004999Y011255D02*
X006315Y011255D01*
X006245Y011353D02*
X005029Y011353D01*
X005040Y011452D02*
X006147Y011452D01*
X006048Y011550D02*
X005040Y011550D01*
X004416Y012141D02*
X004384Y012141D01*
X004484Y012437D02*
X004543Y012437D01*
X004535Y012450D02*
X004555Y012416D01*
X004583Y012388D01*
X004617Y012369D01*
X004655Y012358D01*
X004824Y012358D01*
X004824Y012676D01*
X004525Y012676D01*
X004525Y012489D01*
X004535Y012450D01*
X004525Y012535D02*
X004510Y012535D01*
X004510Y012634D02*
X004525Y012634D01*
X004824Y012634D02*
X004920Y012634D01*
X004920Y012535D02*
X004824Y012535D01*
X004824Y012437D02*
X004920Y012437D01*
X005201Y012437D02*
X009679Y012437D01*
X009731Y012535D02*
X005219Y012535D01*
X004920Y012831D02*
X004824Y012831D01*
X004824Y012929D02*
X004920Y012929D01*
X004920Y013028D02*
X004824Y013028D01*
X004337Y013323D02*
X004240Y013323D01*
X004240Y013422D02*
X004337Y013422D01*
X004337Y013520D02*
X004240Y013520D01*
X004240Y013816D02*
X004337Y013816D01*
X004337Y013914D02*
X004240Y013914D01*
X004240Y014013D02*
X004337Y014013D01*
X004337Y014111D02*
X004240Y014111D01*
X003986Y014111D02*
X003799Y014111D01*
X003827Y014013D02*
X003942Y014013D01*
X003942Y013914D02*
X003827Y013914D01*
X003439Y014210D02*
X001062Y014210D01*
X001062Y014308D02*
X003393Y014308D01*
X003234Y014111D02*
X003216Y014111D01*
X003216Y014013D02*
X003234Y014013D01*
X003234Y013914D02*
X003216Y013914D01*
X003216Y013816D02*
X003234Y013816D01*
X003234Y013717D02*
X003216Y013717D01*
X003216Y013619D02*
X003234Y013619D01*
X003234Y013520D02*
X003216Y013520D01*
X003216Y013422D02*
X003234Y013422D01*
X003387Y013422D02*
X003945Y013422D01*
X003942Y013520D02*
X003827Y013520D01*
X004017Y013323D02*
X001062Y013323D01*
X001062Y013225D02*
X001710Y013225D01*
X001691Y013126D02*
X001062Y013126D01*
X001062Y013028D02*
X001691Y013028D01*
X001691Y012831D02*
X001062Y012831D01*
X001062Y012929D02*
X001989Y012929D01*
X002086Y012929D02*
X002623Y012929D01*
X002623Y012831D02*
X002384Y012831D01*
X002384Y012732D02*
X002623Y012732D01*
X002623Y012634D02*
X002359Y012634D01*
X002336Y012535D02*
X002623Y012535D01*
X002634Y012437D02*
X002344Y012437D01*
X002037Y012265D02*
X002787Y012265D01*
X002851Y012329D01*
X002851Y012773D01*
X003079Y012831D02*
X003371Y012831D01*
X003371Y012929D02*
X003079Y012929D01*
X003079Y013028D02*
X003371Y013028D01*
X003827Y013028D02*
X003937Y013028D01*
X003896Y012929D02*
X003827Y012929D01*
X003827Y012535D02*
X003896Y012535D01*
X003922Y012437D02*
X003773Y012437D01*
X003784Y012141D02*
X003816Y012141D01*
X004100Y011725D02*
X004100Y012622D01*
X004203Y012725D01*
X005343Y013422D02*
X008328Y013422D01*
X008310Y013440D02*
X008380Y013370D01*
X008570Y013370D01*
X008705Y013505D01*
X008705Y013695D01*
X008570Y013830D01*
X008380Y013830D01*
X008310Y013760D01*
X007791Y013760D01*
X007740Y013811D01*
X007740Y014805D01*
X007676Y014870D01*
X006955Y014870D01*
X006890Y014805D01*
X006890Y013769D01*
X006955Y013705D01*
X007394Y013705D01*
X007565Y013534D01*
X007659Y013440D01*
X008310Y013440D01*
X008475Y013600D02*
X007725Y013600D01*
X007315Y014009D01*
X007315Y014287D01*
X006890Y014308D02*
X006184Y014308D01*
X006184Y014210D02*
X006084Y014210D01*
X006084Y014308D02*
X004969Y014308D01*
X004969Y014274D02*
X004969Y014870D01*
X005162Y014899D02*
X005710Y014899D01*
X005669Y014998D02*
X005261Y014998D01*
X005267Y015096D02*
X005669Y015096D01*
X005669Y015392D02*
X005145Y015392D01*
X005133Y015330D02*
X005267Y015195D01*
X005037Y015100D02*
X004537Y015100D01*
X004310Y015328D01*
X004315Y015096D02*
X004239Y015096D01*
X004072Y014998D02*
X004413Y014998D01*
X004356Y014899D02*
X004072Y014899D01*
X004072Y014801D02*
X004163Y014801D01*
X004065Y014702D02*
X003991Y014702D01*
X004057Y014604D02*
X003893Y014604D01*
X003794Y014505D02*
X004057Y014505D01*
X004155Y014407D02*
X003747Y014407D01*
X003637Y014801D02*
X003594Y014801D01*
X003594Y014899D02*
X003736Y014899D01*
X003752Y014998D02*
X003545Y014998D01*
X003030Y014998D02*
X002719Y014998D01*
X002719Y015096D02*
X002981Y015096D01*
X002981Y015195D02*
X002719Y015195D01*
X002719Y015293D02*
X002981Y015293D01*
X002981Y015392D02*
X002719Y015392D01*
X002719Y015425D02*
X002655Y015490D01*
X002170Y015490D01*
X002106Y015425D01*
X002106Y015142D01*
X002005Y015142D01*
X001870Y015008D01*
X001870Y014817D01*
X002005Y014682D01*
X002195Y014682D01*
X002232Y014719D01*
X002655Y014719D01*
X002719Y014783D01*
X002719Y015425D01*
X002540Y015589D02*
X002341Y015589D01*
X002327Y015575D02*
X002355Y015603D01*
X002375Y015637D01*
X002385Y015675D01*
X002385Y015922D01*
X002087Y015922D01*
X002087Y015545D01*
X002255Y015545D01*
X002293Y015555D01*
X002327Y015575D01*
X002385Y015687D02*
X002480Y015687D01*
X002480Y015786D02*
X002385Y015786D01*
X002385Y015884D02*
X002480Y015884D01*
X002786Y015970D02*
X003287Y015970D01*
X003287Y016037D01*
X003287Y015970D02*
X003287Y015310D01*
X003577Y015589D02*
X003605Y015589D01*
X003447Y015687D02*
X004739Y015687D01*
X004739Y015592D02*
X004836Y015592D01*
X004836Y015293D01*
X004906Y015293D01*
X004872Y015260D01*
X004604Y015260D01*
X004570Y015293D01*
X004739Y015293D01*
X004739Y015592D01*
X004739Y015589D02*
X004836Y015589D01*
X004836Y015687D02*
X005669Y015687D01*
X005669Y015589D02*
X005154Y015589D01*
X005154Y015490D02*
X006084Y015490D01*
X006084Y015525D02*
X006084Y015425D01*
X006184Y015425D01*
X006184Y015525D01*
X006084Y015525D01*
X005669Y015525D01*
X005669Y015967D01*
X005680Y016005D01*
X005699Y016039D01*
X005727Y016067D01*
X005761Y016087D01*
X005800Y016097D01*
X006084Y016097D01*
X006084Y015525D01*
X006084Y015589D02*
X006184Y015589D01*
X006184Y015525D02*
X006184Y016097D01*
X006469Y016097D01*
X006507Y016087D01*
X006541Y016067D01*
X006569Y016039D01*
X006589Y016005D01*
X006599Y015967D01*
X006599Y015525D01*
X006184Y015525D01*
X006184Y015490D02*
X006890Y015490D01*
X006890Y015392D02*
X006599Y015392D01*
X006599Y015293D02*
X006890Y015293D01*
X006890Y015195D02*
X006599Y015195D01*
X006599Y015096D02*
X006890Y015096D01*
X006890Y014998D02*
X006599Y014998D01*
X006558Y014899D02*
X006948Y014899D01*
X006955Y014892D02*
X007676Y014892D01*
X007740Y014957D01*
X007740Y015456D01*
X007842Y015456D01*
X007977Y015590D01*
X007977Y015781D01*
X007842Y015916D01*
X007740Y015916D01*
X007740Y015993D01*
X007676Y016057D01*
X006955Y016057D01*
X006890Y015993D01*
X006890Y014957D01*
X006955Y014892D01*
X006890Y014801D02*
X006594Y014801D01*
X006599Y014702D02*
X006890Y014702D01*
X006890Y014604D02*
X006599Y014604D01*
X006599Y014505D02*
X006890Y014505D01*
X006890Y014407D02*
X006599Y014407D01*
X006599Y014210D02*
X006890Y014210D01*
X006890Y014111D02*
X006599Y014111D01*
X006599Y014013D02*
X006890Y014013D01*
X006890Y013914D02*
X006599Y013914D01*
X006599Y013816D02*
X006890Y013816D01*
X006942Y013717D02*
X006564Y013717D01*
X006184Y013717D02*
X006084Y013717D01*
X006084Y013816D02*
X006184Y013816D01*
X006184Y013914D02*
X006084Y013914D01*
X006084Y014013D02*
X006184Y014013D01*
X006184Y014111D02*
X006084Y014111D01*
X006084Y014407D02*
X006184Y014407D01*
X006184Y014505D02*
X006084Y014505D01*
X006084Y014604D02*
X006184Y014604D01*
X006184Y014702D02*
X006084Y014702D01*
X006084Y014801D02*
X006184Y014801D01*
X006184Y014899D02*
X006084Y014899D01*
X006084Y014998D02*
X006184Y014998D01*
X006184Y015096D02*
X006084Y015096D01*
X006084Y015195D02*
X006184Y015195D01*
X006184Y015293D02*
X006084Y015293D01*
X006084Y015392D02*
X006184Y015392D01*
X006184Y015687D02*
X006084Y015687D01*
X006084Y015786D02*
X006184Y015786D01*
X006184Y015884D02*
X006084Y015884D01*
X006084Y015983D02*
X006184Y015983D01*
X006184Y016081D02*
X006084Y016081D01*
X005752Y016081D02*
X005114Y016081D01*
X005114Y016180D02*
X005195Y016180D01*
X005350Y016350D02*
X004828Y016350D01*
X004787Y016310D01*
X005092Y016574D02*
X005249Y016574D01*
X005451Y016574D02*
X009711Y016574D01*
X009711Y016475D02*
X005550Y016475D01*
X005580Y016377D02*
X010475Y016377D01*
X010475Y016475D02*
X010364Y016475D01*
X010475Y016278D02*
X005580Y016278D01*
X005505Y016180D02*
X010475Y016180D01*
X010475Y016081D02*
X006517Y016081D01*
X006595Y015983D02*
X006890Y015983D01*
X006890Y015884D02*
X006599Y015884D01*
X006599Y015786D02*
X006890Y015786D01*
X006890Y015687D02*
X006599Y015687D01*
X006599Y015589D02*
X006890Y015589D01*
X007315Y015686D02*
X007315Y015475D01*
X007315Y015686D02*
X007747Y015686D01*
X007977Y015687D02*
X010475Y015687D01*
X010475Y015589D02*
X007976Y015589D01*
X007877Y015490D02*
X010475Y015490D01*
X010475Y015392D02*
X007740Y015392D01*
X007740Y015293D02*
X010475Y015293D01*
X010475Y015195D02*
X007740Y015195D01*
X007740Y015096D02*
X010475Y015096D01*
X010475Y014998D02*
X007740Y014998D01*
X007683Y014899D02*
X010475Y014899D01*
X010475Y014801D02*
X010224Y014801D01*
X010267Y014758D02*
X010133Y014892D01*
X009942Y014892D01*
X009807Y014758D01*
X009807Y014567D01*
X009877Y014497D01*
X009877Y014491D01*
X009775Y014491D01*
X009711Y014427D01*
X009711Y013942D01*
X009775Y013878D01*
X010300Y013878D01*
X010364Y013942D01*
X010364Y014427D01*
X010300Y014491D01*
X010197Y014491D01*
X010197Y014497D01*
X010267Y014567D01*
X010267Y014758D01*
X010267Y014702D02*
X010475Y014702D01*
X010475Y014604D02*
X010267Y014604D01*
X010206Y014505D02*
X010475Y014505D01*
X010475Y014407D02*
X010364Y014407D01*
X010364Y014308D02*
X010475Y014308D01*
X010475Y014210D02*
X010364Y014210D01*
X010364Y014111D02*
X010475Y014111D01*
X010475Y014013D02*
X010364Y014013D01*
X010336Y013914D02*
X010475Y013914D01*
X010475Y013816D02*
X010306Y013816D01*
X010364Y013717D02*
X010475Y013717D01*
X010475Y013619D02*
X010364Y013619D01*
X010364Y013520D02*
X010475Y013520D01*
X010475Y013422D02*
X010364Y013422D01*
X010364Y013323D02*
X010475Y013323D01*
X010475Y013225D02*
X010316Y013225D01*
X010211Y013126D02*
X010475Y013126D01*
X010475Y013028D02*
X010267Y013028D01*
X010267Y012929D02*
X010475Y012929D01*
X010475Y012831D02*
X010219Y012831D01*
X010037Y012975D02*
X010037Y013515D01*
X009711Y013520D02*
X008705Y013520D01*
X008705Y013619D02*
X009711Y013619D01*
X009711Y013717D02*
X008683Y013717D01*
X008584Y013816D02*
X009769Y013816D01*
X009739Y013914D02*
X007740Y013914D01*
X007740Y013816D02*
X008366Y013816D01*
X008622Y013422D02*
X009711Y013422D01*
X009711Y014013D02*
X007740Y014013D01*
X007740Y014111D02*
X009711Y014111D01*
X009711Y014210D02*
X007740Y014210D01*
X007740Y014308D02*
X009711Y014308D01*
X009711Y014407D02*
X007740Y014407D01*
X007740Y014505D02*
X009869Y014505D01*
X009807Y014604D02*
X007740Y014604D01*
X007740Y014702D02*
X009807Y014702D01*
X009851Y014801D02*
X007740Y014801D01*
X007972Y015786D02*
X010475Y015786D01*
X010475Y015884D02*
X007873Y015884D01*
X007740Y015983D02*
X010475Y015983D01*
X010662Y015983D02*
X013502Y015983D01*
X013502Y016081D02*
X010662Y016081D01*
X010662Y016180D02*
X013481Y016180D01*
X013383Y016278D02*
X010662Y016278D01*
X010662Y016377D02*
X013284Y016377D01*
X013186Y016475D02*
X011176Y016475D01*
X010899Y016475D02*
X010662Y016475D01*
X010662Y016869D02*
X010919Y016869D01*
X011156Y016869D02*
X023278Y016869D01*
X023328Y016820D02*
X023119Y017028D01*
X023006Y017301D01*
X023006Y017595D01*
X023119Y017867D01*
X023328Y018076D01*
X023600Y018188D01*
X023894Y018188D01*
X024167Y018076D01*
X024375Y017867D01*
X024488Y017595D01*
X024488Y017301D01*
X024375Y017028D01*
X024167Y016820D01*
X023894Y016707D01*
X023600Y016707D01*
X023328Y016820D01*
X023446Y016771D02*
X013343Y016771D01*
X013441Y016672D02*
X026747Y016672D01*
X026747Y016574D02*
X017201Y016574D01*
X017267Y016475D02*
X026747Y016475D01*
X026747Y016377D02*
X017267Y016377D01*
X017229Y016278D02*
X026747Y016278D01*
X026747Y016180D02*
X017197Y016180D01*
X017197Y016081D02*
X026747Y016081D01*
X026747Y015983D02*
X017197Y015983D01*
X017197Y015884D02*
X026747Y015884D01*
X026747Y015786D02*
X017197Y015786D01*
X017197Y015687D02*
X026747Y015687D01*
X026747Y015589D02*
X017197Y015589D01*
X017197Y015490D02*
X026747Y015490D01*
X026747Y015392D02*
X017197Y015392D01*
X017197Y015293D02*
X026747Y015293D01*
X026747Y015195D02*
X017197Y015195D01*
X017197Y015096D02*
X026747Y015096D01*
X026747Y014998D02*
X017197Y014998D01*
X017197Y014899D02*
X026747Y014899D01*
X026747Y014801D02*
X017197Y014801D01*
X017197Y014702D02*
X026747Y014702D01*
X026747Y014604D02*
X017197Y014604D01*
X017197Y014505D02*
X026747Y014505D01*
X026747Y014407D02*
X017197Y014407D01*
X017197Y014308D02*
X026747Y014308D01*
X026747Y014210D02*
X017197Y014210D01*
X017197Y014111D02*
X026747Y014111D01*
X026747Y014013D02*
X017197Y014013D01*
X017197Y013914D02*
X026747Y013914D01*
X026747Y013816D02*
X017197Y013816D01*
X017197Y013717D02*
X026747Y013717D01*
X026747Y013619D02*
X017197Y013619D01*
X017197Y013520D02*
X026747Y013520D01*
X026747Y013422D02*
X017197Y013422D01*
X017197Y013323D02*
X026747Y013323D01*
X026747Y013225D02*
X017197Y013225D01*
X017197Y013126D02*
X026747Y013126D01*
X026747Y013028D02*
X017197Y013028D01*
X017197Y012929D02*
X018979Y012929D01*
X018881Y012831D02*
X017197Y012831D01*
X017230Y012732D02*
X018870Y012732D01*
X018870Y012634D02*
X017267Y012634D01*
X017267Y012535D02*
X018964Y012535D01*
X019162Y012437D02*
X017200Y012437D01*
X017025Y012338D02*
X019260Y012338D01*
X019359Y012240D02*
X017124Y012240D01*
X017222Y012141D02*
X020457Y012141D01*
X020556Y012043D02*
X017946Y012043D01*
X018044Y011944D02*
X018619Y011944D01*
X018521Y011846D02*
X018143Y011846D01*
X018241Y011747D02*
X018495Y011747D01*
X018495Y011649D02*
X018340Y011649D01*
X018438Y011550D02*
X018565Y011550D01*
X018565Y011452D02*
X018447Y011452D01*
X018447Y011353D02*
X018565Y011353D01*
X018565Y011255D02*
X018447Y011255D01*
X018447Y011156D02*
X018565Y011156D01*
X018565Y011058D02*
X018447Y011058D01*
X018447Y010959D02*
X018565Y010959D01*
X018565Y010861D02*
X018447Y010861D01*
X018447Y010762D02*
X018565Y010762D01*
X018565Y010664D02*
X018447Y010664D01*
X018447Y010565D02*
X018565Y010565D01*
X018565Y010467D02*
X018447Y010467D01*
X018447Y010368D02*
X018565Y010368D01*
X018565Y010270D02*
X018447Y010270D01*
X018398Y010171D02*
X018565Y010171D01*
X018565Y010073D02*
X018299Y010073D01*
X018162Y010162D02*
X017747Y010162D01*
X017725Y010140D01*
X017810Y010225D01*
X017787Y010225D01*
X017684Y010447D02*
X017470Y010447D01*
X017470Y010493D01*
X017479Y010503D01*
X017622Y010503D01*
X017630Y010495D01*
X017820Y010495D01*
X017828Y010503D01*
X017987Y010503D01*
X018051Y010567D01*
X018051Y011052D01*
X017987Y011116D01*
X017463Y011116D01*
X017398Y011052D01*
X017398Y010875D01*
X017315Y010791D01*
X017197Y010674D01*
X017197Y011752D01*
X017784Y011752D01*
X018127Y011409D01*
X018127Y010354D01*
X018096Y010322D01*
X018051Y010322D01*
X018051Y010383D01*
X017987Y010447D01*
X017890Y010447D01*
X017883Y010455D01*
X017692Y010455D01*
X017684Y010447D01*
X017470Y010467D02*
X018127Y010467D01*
X018127Y010565D02*
X018050Y010565D01*
X018051Y010664D02*
X018127Y010664D01*
X018127Y010762D02*
X018051Y010762D01*
X018051Y010861D02*
X018127Y010861D01*
X018127Y010959D02*
X018051Y010959D01*
X018045Y011058D02*
X018127Y011058D01*
X018127Y011156D02*
X017197Y011156D01*
X017197Y011058D02*
X017404Y011058D01*
X017398Y010959D02*
X017197Y010959D01*
X017197Y010861D02*
X017385Y010861D01*
X017286Y010762D02*
X017197Y010762D01*
X017310Y010560D02*
X017475Y010725D01*
X017725Y010725D01*
X017725Y010810D01*
X017310Y010560D02*
X017310Y009412D01*
X017616Y009383D02*
X018127Y009383D01*
X018127Y009285D02*
X017616Y009285D01*
X017616Y009186D02*
X018127Y009186D01*
X018127Y009088D02*
X017554Y009088D01*
X017065Y009088D02*
X016885Y009088D01*
X016947Y009186D02*
X017003Y009186D01*
X017003Y009285D02*
X016947Y009285D01*
X016947Y009383D02*
X017003Y009383D01*
X017003Y009482D02*
X016947Y009482D01*
X016947Y009580D02*
X017003Y009580D01*
X017007Y009679D02*
X016943Y009679D01*
X016847Y009777D02*
X015322Y009777D01*
X015322Y009876D02*
X015527Y009876D01*
X015523Y009974D02*
X015322Y009974D01*
X015322Y010073D02*
X015523Y010073D01*
X015523Y010171D02*
X015322Y010171D01*
X015322Y010270D02*
X015523Y010270D01*
X015527Y010368D02*
X015322Y010368D01*
X015322Y010467D02*
X015523Y010467D01*
X015523Y010565D02*
X015322Y010565D01*
X015322Y010664D02*
X015523Y010664D01*
X015523Y010762D02*
X015322Y010762D01*
X015253Y010861D02*
X015523Y010861D01*
X015538Y010959D02*
X015154Y010959D01*
X015056Y011058D02*
X016502Y011058D01*
X016483Y010959D02*
X016162Y010959D01*
X016176Y011156D02*
X016432Y011156D01*
X016432Y011255D02*
X016176Y011255D01*
X016176Y011353D02*
X016466Y011353D01*
X016564Y011452D02*
X016176Y011452D01*
X016176Y011550D02*
X016877Y011550D01*
X016877Y011452D02*
X016761Y011452D01*
X016859Y011353D02*
X016877Y011353D01*
X016662Y011225D02*
X016662Y010912D01*
X016475Y010725D01*
X015810Y010725D01*
X015850Y010703D01*
X015850Y010122D01*
X016176Y010073D02*
X016748Y010073D01*
X016745Y009974D02*
X016176Y009974D01*
X016173Y009876D02*
X016749Y009876D01*
X016975Y009975D02*
X017037Y010037D01*
X017037Y011787D01*
X016225Y012600D01*
X014225Y012600D01*
X014387Y012437D02*
X016162Y012437D01*
X016260Y012338D02*
X015390Y012338D01*
X015426Y012240D02*
X016359Y012240D01*
X016457Y012141D02*
X015426Y012141D01*
X015426Y012043D02*
X016556Y012043D01*
X016654Y011944D02*
X015441Y011944D01*
X015540Y011846D02*
X016753Y011846D01*
X016851Y011747D02*
X015638Y011747D01*
X015481Y011452D02*
X015426Y011452D01*
X015426Y011353D02*
X015523Y011353D01*
X015523Y011255D02*
X015426Y011255D01*
X015426Y011156D02*
X015523Y011156D01*
X015787Y011372D02*
X015850Y011372D01*
X015787Y011372D02*
X015100Y012060D01*
X015186Y011747D02*
X014769Y011747D01*
X014769Y011649D02*
X014790Y011649D01*
X014773Y011846D02*
X014768Y011846D01*
X014769Y011944D02*
X014773Y011944D01*
X014769Y012043D02*
X014773Y012043D01*
X014769Y012141D02*
X014773Y012141D01*
X014769Y012240D02*
X014773Y012240D01*
X014769Y012338D02*
X014810Y012338D01*
X015817Y013028D02*
X016877Y013028D01*
X016877Y013126D02*
X015915Y013126D01*
X016014Y013225D02*
X016877Y013225D01*
X016877Y013323D02*
X016112Y013323D01*
X016211Y013422D02*
X016877Y013422D01*
X016877Y013520D02*
X016309Y013520D01*
X016385Y013619D02*
X016877Y013619D01*
X016877Y013717D02*
X016385Y013717D01*
X016385Y013816D02*
X016877Y013816D01*
X016877Y013914D02*
X016385Y013914D01*
X016385Y014013D02*
X016877Y014013D01*
X016877Y014111D02*
X016385Y014111D01*
X016385Y014210D02*
X016877Y014210D01*
X016877Y014308D02*
X016385Y014308D01*
X016385Y014407D02*
X016877Y014407D01*
X016877Y014505D02*
X016455Y014505D01*
X016065Y014407D02*
X010662Y014407D01*
X010662Y014505D02*
X015995Y014505D01*
X015995Y014604D02*
X010662Y014604D01*
X010662Y014702D02*
X013485Y014702D01*
X013432Y014801D02*
X010662Y014801D01*
X010662Y014899D02*
X013432Y014899D01*
X013485Y014998D02*
X010662Y014998D01*
X010662Y015096D02*
X013502Y015096D01*
X013502Y015195D02*
X010662Y015195D01*
X010662Y015293D02*
X013502Y015293D01*
X013502Y015392D02*
X010662Y015392D01*
X010662Y015490D02*
X013502Y015490D01*
X013502Y015589D02*
X010662Y015589D01*
X010662Y015687D02*
X013502Y015687D01*
X013502Y015786D02*
X010662Y015786D01*
X010662Y015884D02*
X013502Y015884D01*
X013822Y015884D02*
X016877Y015884D01*
X016877Y015786D02*
X013822Y015786D01*
X013822Y015687D02*
X016877Y015687D01*
X016877Y015589D02*
X013822Y015589D01*
X013822Y015490D02*
X016877Y015490D01*
X016877Y015392D02*
X013822Y015392D01*
X013822Y015293D02*
X016877Y015293D01*
X016877Y015195D02*
X013822Y015195D01*
X013822Y015096D02*
X016877Y015096D01*
X016877Y014998D02*
X013840Y014998D01*
X013822Y015983D02*
X016877Y015983D01*
X016877Y016081D02*
X013822Y016081D01*
X013822Y016180D02*
X016877Y016180D01*
X016846Y016278D02*
X013822Y016278D01*
X013737Y016377D02*
X016807Y016377D01*
X016807Y016475D02*
X013638Y016475D01*
X013540Y016574D02*
X016874Y016574D01*
X017037Y016412D02*
X017037Y012600D01*
X016807Y012634D02*
X016730Y012634D01*
X016631Y012732D02*
X016845Y012732D01*
X016877Y012831D02*
X016533Y012831D01*
X016434Y012929D02*
X016877Y012929D01*
X016287Y012850D02*
X017225Y011912D01*
X017850Y011912D01*
X018287Y011475D01*
X018287Y010287D01*
X018162Y010162D01*
X018127Y010368D02*
X018051Y010368D01*
X018051Y009974D02*
X018561Y009974D01*
X018462Y009876D02*
X018030Y009876D01*
X018265Y009679D02*
X017612Y009679D01*
X017616Y009580D02*
X018167Y009580D01*
X018127Y009482D02*
X017616Y009482D01*
X017470Y009777D02*
X018364Y009777D01*
X018287Y009475D02*
X018725Y009912D01*
X018725Y011725D01*
X018955Y011747D02*
X020851Y011747D01*
X020950Y011649D02*
X018955Y011649D01*
X018885Y011550D02*
X021023Y011550D01*
X021023Y011452D02*
X018885Y011452D01*
X018885Y011353D02*
X021023Y011353D01*
X021023Y011255D02*
X018885Y011255D01*
X018885Y011156D02*
X021023Y011156D01*
X021023Y011058D02*
X018885Y011058D01*
X018885Y010959D02*
X021023Y010959D01*
X021023Y010861D02*
X020139Y010861D01*
X020251Y010762D02*
X021023Y010762D01*
X021023Y010664D02*
X020259Y010664D01*
X020259Y010565D02*
X021023Y010565D01*
X021023Y010467D02*
X019961Y010467D01*
X019864Y010467D02*
X018885Y010467D01*
X018885Y010565D02*
X019566Y010565D01*
X019566Y010545D02*
X019566Y010733D01*
X019576Y010771D01*
X019596Y010806D01*
X019623Y010834D01*
X019658Y010853D01*
X019696Y010864D01*
X019864Y010864D01*
X019864Y010545D01*
X019566Y010545D01*
X019566Y010664D02*
X018885Y010664D01*
X018885Y010762D02*
X019573Y010762D01*
X019686Y010861D02*
X018885Y010861D01*
X018885Y010368D02*
X019566Y010368D01*
X019566Y010270D02*
X018885Y010270D01*
X018885Y010171D02*
X019613Y010171D01*
X019606Y010073D02*
X018885Y010073D01*
X018885Y009974D02*
X019061Y009974D01*
X018962Y009876D02*
X018885Y009876D01*
X018864Y009777D02*
X018816Y009777D01*
X018765Y009679D02*
X018718Y009679D01*
X018667Y009580D02*
X018619Y009580D01*
X018627Y009482D02*
X018521Y009482D01*
X018558Y009383D02*
X018447Y009383D01*
X018447Y009285D02*
X018557Y009285D01*
X018563Y009186D02*
X018447Y009186D01*
X018447Y009088D02*
X018662Y009088D01*
X018773Y008989D02*
X018447Y008989D01*
X018447Y008891D02*
X018710Y008891D01*
X018710Y008792D02*
X018447Y008792D01*
X018447Y008694D02*
X018710Y008694D01*
X018710Y008595D02*
X018447Y008595D01*
X018447Y008497D02*
X018710Y008497D01*
X018720Y008398D02*
X018447Y008398D01*
X018447Y008300D02*
X018720Y008300D01*
X018720Y008201D02*
X018511Y008201D01*
X018517Y008103D02*
X018689Y008103D01*
X018591Y008004D02*
X018517Y008004D01*
X018492Y007906D02*
X018419Y007906D01*
X018537Y007725D02*
X018975Y008162D01*
X019392Y008162D01*
X019392Y008686D01*
X019648Y008686D02*
X019648Y008927D01*
X019350Y009225D01*
X019350Y009537D01*
X019179Y009383D02*
X019017Y009383D01*
X019017Y009285D02*
X019190Y009285D01*
X019190Y009186D02*
X019012Y009186D01*
X018913Y009088D02*
X019261Y009088D01*
X019136Y008989D02*
X019136Y008989D01*
X019136Y008891D02*
X019136Y008891D01*
X019136Y008792D02*
X019136Y008792D01*
X019136Y008694D02*
X019136Y008694D01*
X019136Y008595D02*
X019136Y008595D01*
X019136Y008497D02*
X019136Y008497D01*
X019136Y008398D02*
X019136Y008398D01*
X018975Y008162D02*
X018880Y008257D01*
X018880Y008686D01*
X018787Y009287D02*
X018787Y009475D01*
X019162Y009850D01*
X019912Y009850D01*
X019912Y009828D01*
X020435Y009828D01*
X020671Y009591D01*
X020671Y008686D01*
X020927Y008686D01*
X021183Y008686D02*
X021183Y011642D01*
X020475Y012350D01*
X019475Y012350D01*
X019100Y012725D01*
X019330Y012732D02*
X026747Y012732D01*
X026747Y012634D02*
X019417Y012634D01*
X019516Y012535D02*
X026747Y012535D01*
X026747Y012437D02*
X020614Y012437D01*
X020713Y012338D02*
X026747Y012338D01*
X026747Y012240D02*
X020811Y012240D01*
X020910Y012141D02*
X026747Y012141D01*
X026747Y012043D02*
X021008Y012043D01*
X021107Y011944D02*
X026747Y011944D01*
X026747Y011846D02*
X021205Y011846D01*
X021304Y011747D02*
X026747Y011747D01*
X026747Y011649D02*
X021343Y011649D01*
X021343Y011550D02*
X026747Y011550D01*
X026747Y011452D02*
X026458Y011452D01*
X026610Y011353D02*
X026747Y011353D01*
X026747Y011255D02*
X026702Y011255D01*
X026218Y011255D02*
X026118Y011255D01*
X026118Y011353D02*
X026218Y011353D01*
X026218Y011452D02*
X026118Y011452D01*
X025878Y011452D02*
X024451Y011452D01*
X024460Y011448D02*
X024378Y011482D01*
X024292Y011505D01*
X024210Y011516D01*
X024210Y010892D01*
X024110Y010892D01*
X024110Y011516D01*
X024029Y011505D01*
X023943Y011482D01*
X023861Y011448D01*
X023785Y011404D01*
X023714Y011350D01*
X023652Y011288D01*
X023598Y011217D01*
X023554Y011141D01*
X023520Y011059D01*
X023497Y010973D01*
X023486Y010891D01*
X024110Y010891D01*
X024110Y010791D01*
X024210Y010791D01*
X024210Y010167D01*
X024292Y010178D01*
X024378Y010201D01*
X024460Y010235D01*
X024536Y010279D01*
X024606Y010333D01*
X024669Y010395D01*
X024723Y010466D01*
X024767Y010542D01*
X024801Y010624D01*
X024824Y010710D01*
X024835Y010791D01*
X024210Y010791D01*
X024210Y010891D01*
X024835Y010891D01*
X024824Y010973D01*
X024801Y011059D01*
X024767Y011141D01*
X024723Y011217D01*
X024669Y011288D01*
X024606Y011350D01*
X024536Y011404D01*
X024460Y011448D01*
X024602Y011353D02*
X025727Y011353D01*
X025635Y011255D02*
X024694Y011255D01*
X024758Y011156D02*
X025571Y011156D01*
X025527Y011058D02*
X024801Y011058D01*
X024826Y010959D02*
X025503Y010959D01*
X025494Y010791D02*
X025505Y010710D01*
X025528Y010624D01*
X025562Y010542D01*
X025606Y010466D01*
X025660Y010395D01*
X025722Y010333D01*
X025792Y010279D01*
X025869Y010235D01*
X025951Y010201D01*
X026036Y010178D01*
X026118Y010167D01*
X026118Y010791D01*
X025494Y010791D01*
X025498Y010762D02*
X024831Y010762D01*
X024812Y010664D02*
X025517Y010664D01*
X025552Y010565D02*
X024777Y010565D01*
X024724Y010467D02*
X025605Y010467D01*
X025687Y010368D02*
X024642Y010368D01*
X024520Y010270D02*
X024941Y010270D01*
X024890Y010249D02*
X024753Y010112D01*
X024679Y009934D01*
X024679Y009741D01*
X024753Y009563D01*
X024890Y009426D01*
X025068Y009353D01*
X025261Y009353D01*
X025439Y009426D01*
X025576Y009563D01*
X025649Y009741D01*
X025649Y009934D01*
X025576Y010112D01*
X025439Y010249D01*
X025261Y010323D01*
X025068Y010323D01*
X024890Y010249D01*
X024812Y010171D02*
X024242Y010171D01*
X024210Y010171D02*
X024110Y010171D01*
X024110Y010167D02*
X024110Y010791D01*
X023486Y010791D01*
X023497Y010710D01*
X023520Y010624D01*
X023554Y010542D01*
X023598Y010466D01*
X023652Y010395D01*
X023714Y010333D01*
X023785Y010279D01*
X023861Y010235D01*
X023943Y010201D01*
X024029Y010178D01*
X024110Y010167D01*
X024079Y010171D02*
X023407Y010171D01*
X023407Y010073D02*
X024737Y010073D01*
X024696Y009974D02*
X021343Y009974D01*
X021343Y009876D02*
X024679Y009876D01*
X024679Y009777D02*
X021343Y009777D01*
X021343Y009679D02*
X024705Y009679D01*
X024746Y009580D02*
X021343Y009580D01*
X021343Y009482D02*
X023972Y009482D01*
X023943Y009474D02*
X023861Y009440D01*
X023785Y009396D01*
X023714Y009342D01*
X023652Y009280D01*
X023598Y009210D01*
X023554Y009133D01*
X023520Y009051D01*
X023497Y008966D01*
X023486Y008884D01*
X024110Y008884D01*
X024110Y008784D01*
X023486Y008784D01*
X023497Y008702D01*
X023520Y008616D01*
X023554Y008535D01*
X023598Y008458D01*
X023652Y008388D01*
X023714Y008325D01*
X023785Y008271D01*
X023861Y008227D01*
X023943Y008193D01*
X024029Y008170D01*
X024110Y008159D01*
X024110Y008784D01*
X024210Y008784D01*
X024210Y008159D01*
X024292Y008170D01*
X024378Y008193D01*
X024460Y008227D01*
X024536Y008271D01*
X024606Y008325D01*
X024669Y008388D01*
X024723Y008458D01*
X024767Y008535D01*
X024801Y008616D01*
X024824Y008702D01*
X024835Y008784D01*
X024210Y008784D01*
X024210Y008884D01*
X024110Y008884D01*
X024110Y009508D01*
X024029Y009497D01*
X023943Y009474D01*
X024110Y009482D02*
X024210Y009482D01*
X024210Y009508D02*
X024292Y009497D01*
X024378Y009474D01*
X024460Y009440D01*
X024536Y009396D01*
X024606Y009342D01*
X024669Y009280D01*
X024723Y009210D01*
X024767Y009133D01*
X024801Y009051D01*
X024824Y008966D01*
X024835Y008884D01*
X024210Y008884D01*
X024210Y009508D01*
X024210Y009383D02*
X024110Y009383D01*
X024110Y009285D02*
X024210Y009285D01*
X024210Y009186D02*
X024110Y009186D01*
X024110Y009088D02*
X024210Y009088D01*
X024210Y008989D02*
X024110Y008989D01*
X024110Y008891D02*
X024210Y008891D01*
X024210Y008792D02*
X026118Y008792D01*
X026118Y008694D02*
X026218Y008694D01*
X026218Y008595D02*
X026118Y008595D01*
X026118Y008497D02*
X026218Y008497D01*
X026218Y008398D02*
X026118Y008398D01*
X026118Y008300D02*
X026218Y008300D01*
X026218Y008201D02*
X026118Y008201D01*
X025931Y008201D02*
X024398Y008201D01*
X024210Y008201D02*
X024110Y008201D01*
X024110Y008300D02*
X024210Y008300D01*
X024210Y008398D02*
X024110Y008398D01*
X024110Y008497D02*
X024210Y008497D01*
X024210Y008595D02*
X024110Y008595D01*
X024110Y008694D02*
X024210Y008694D01*
X024110Y008792D02*
X021353Y008792D01*
X021353Y008694D02*
X023499Y008694D01*
X023529Y008595D02*
X021353Y008595D01*
X021353Y008497D02*
X023575Y008497D01*
X023644Y008398D02*
X021306Y008398D01*
X021060Y008398D02*
X021050Y008398D01*
X020804Y008398D02*
X020794Y008398D01*
X020575Y008300D02*
X023747Y008300D01*
X023923Y008201D02*
X020636Y008201D01*
X020705Y008103D02*
X026747Y008103D01*
X026747Y008201D02*
X026406Y008201D01*
X026581Y008300D02*
X026747Y008300D01*
X026747Y008398D02*
X026685Y008398D01*
X026747Y008004D02*
X020705Y008004D01*
X020669Y007906D02*
X026747Y007906D01*
X026747Y007807D02*
X020570Y007807D01*
X020380Y007807D02*
X020064Y007807D01*
X020064Y007709D02*
X026747Y007709D01*
X026747Y007610D02*
X020064Y007610D01*
X020064Y007512D02*
X026747Y007512D01*
X026747Y007413D02*
X020064Y007413D01*
X020064Y007315D02*
X026747Y007315D01*
X026747Y007216D02*
X020064Y007216D01*
X020064Y007118D02*
X026747Y007118D01*
X026747Y007019D02*
X020064Y007019D01*
X020064Y006921D02*
X026747Y006921D01*
X026747Y006822D02*
X020064Y006822D01*
X020159Y006734D02*
X020159Y006389D01*
X020159Y006389D01*
X020159Y006389D01*
X020369Y006389D01*
X020415Y006389D01*
X020415Y006734D01*
X020336Y006734D01*
X020297Y006723D01*
X020287Y006718D01*
X020277Y006723D01*
X020239Y006734D01*
X020159Y006734D01*
X020159Y006724D02*
X020159Y006724D01*
X020159Y006625D02*
X020159Y006625D01*
X020159Y006527D02*
X020159Y006527D01*
X020159Y006428D02*
X020159Y006428D01*
X020159Y006389D02*
X020159Y006389D01*
X020159Y006044D01*
X020239Y006044D01*
X020277Y006054D01*
X020287Y006060D01*
X020297Y006054D01*
X020336Y006044D01*
X020415Y006044D01*
X020415Y006389D01*
X020415Y006389D01*
X020415Y006389D01*
X020159Y006389D01*
X020159Y006330D02*
X020159Y006330D01*
X020159Y006231D02*
X020159Y006231D01*
X020159Y006133D02*
X020159Y006133D01*
X020064Y006034D02*
X026747Y006034D01*
X026747Y005936D02*
X020064Y005936D01*
X020064Y005837D02*
X026747Y005837D01*
X026747Y005739D02*
X020064Y005739D01*
X020064Y005640D02*
X026747Y005640D01*
X026747Y005542D02*
X020064Y005542D01*
X020082Y005443D02*
X026747Y005443D01*
X026747Y005345D02*
X020142Y005345D01*
X020142Y005246D02*
X026747Y005246D01*
X026747Y005148D02*
X020098Y005148D01*
X019912Y005287D02*
X019904Y005296D01*
X019904Y006389D01*
X019904Y008154D01*
X019912Y008162D01*
X020037Y008162D01*
X020162Y008287D01*
X020162Y008683D01*
X020159Y008686D01*
X019904Y008686D02*
X019904Y009819D01*
X019912Y009828D01*
X020219Y010073D02*
X021023Y010073D01*
X021023Y010171D02*
X020212Y010171D01*
X020259Y010270D02*
X021023Y010270D01*
X021023Y010368D02*
X020259Y010368D01*
X019961Y010565D02*
X019864Y010565D01*
X019864Y010664D02*
X019961Y010664D01*
X019961Y010762D02*
X019864Y010762D01*
X019864Y010861D02*
X019961Y010861D01*
X020514Y009974D02*
X021023Y009974D01*
X021023Y009876D02*
X020613Y009876D01*
X020711Y009777D02*
X021023Y009777D01*
X021023Y009679D02*
X020810Y009679D01*
X020831Y009580D02*
X021023Y009580D01*
X021023Y009482D02*
X020831Y009482D01*
X020831Y009383D02*
X021023Y009383D01*
X021023Y009285D02*
X020831Y009285D01*
X020831Y009186D02*
X021023Y009186D01*
X021023Y009088D02*
X020831Y009088D01*
X021343Y009088D02*
X023535Y009088D01*
X023503Y008989D02*
X021343Y008989D01*
X021353Y008891D02*
X023487Y008891D01*
X023585Y009186D02*
X021343Y009186D01*
X021343Y009285D02*
X023657Y009285D01*
X023768Y009383D02*
X021343Y009383D01*
X021343Y010073D02*
X022427Y010073D01*
X022442Y010057D02*
X022633Y010057D01*
X022703Y010127D01*
X022793Y010127D01*
X022793Y010066D01*
X022857Y010001D01*
X023342Y010001D01*
X023407Y010066D01*
X023407Y010590D01*
X023355Y010641D01*
X023389Y010660D01*
X023417Y010688D01*
X023437Y010723D01*
X023447Y010761D01*
X023447Y010949D01*
X023148Y010949D01*
X023148Y011045D01*
X023447Y011045D01*
X023447Y011233D01*
X023437Y011271D01*
X023417Y011306D01*
X023389Y011334D01*
X023355Y011353D01*
X023316Y011364D01*
X023148Y011364D01*
X023148Y011045D01*
X023051Y011045D01*
X023051Y010949D01*
X022753Y010949D01*
X022753Y010761D01*
X022763Y010723D01*
X022783Y010688D01*
X022811Y010660D01*
X022844Y010641D01*
X022793Y010590D01*
X022793Y010447D01*
X022703Y010447D01*
X022633Y010517D01*
X022442Y010517D01*
X022307Y010383D01*
X022307Y010192D01*
X022442Y010057D01*
X022328Y010171D02*
X021343Y010171D01*
X021343Y010270D02*
X022307Y010270D01*
X022307Y010368D02*
X021343Y010368D01*
X021343Y010467D02*
X022392Y010467D01*
X022537Y010287D02*
X023060Y010287D01*
X023100Y010328D01*
X023407Y010368D02*
X023679Y010368D01*
X023597Y010467D02*
X023407Y010467D01*
X023407Y010565D02*
X023544Y010565D01*
X023509Y010664D02*
X023392Y010664D01*
X023447Y010762D02*
X023490Y010762D01*
X023447Y010861D02*
X024110Y010861D01*
X024110Y010959D02*
X024210Y010959D01*
X024210Y010861D02*
X026118Y010861D01*
X026118Y010959D02*
X026218Y010959D01*
X026218Y011058D02*
X026118Y011058D01*
X026118Y011156D02*
X026218Y011156D01*
X026218Y010762D02*
X026118Y010762D01*
X026118Y010664D02*
X026218Y010664D01*
X026218Y010565D02*
X026118Y010565D01*
X026118Y010467D02*
X026218Y010467D01*
X026218Y010368D02*
X026118Y010368D01*
X026118Y010270D02*
X026218Y010270D01*
X026218Y010171D02*
X026118Y010171D01*
X026087Y010171D02*
X025516Y010171D01*
X025592Y010073D02*
X026747Y010073D01*
X026747Y010171D02*
X026250Y010171D01*
X026528Y010270D02*
X026747Y010270D01*
X026747Y010368D02*
X026650Y010368D01*
X026731Y010467D02*
X026747Y010467D01*
X026747Y009974D02*
X025633Y009974D01*
X025649Y009876D02*
X026747Y009876D01*
X026747Y009777D02*
X025649Y009777D01*
X025624Y009679D02*
X026747Y009679D01*
X026747Y009580D02*
X025583Y009580D01*
X025495Y009482D02*
X025979Y009482D01*
X026118Y009482D02*
X026218Y009482D01*
X026218Y009383D02*
X026118Y009383D01*
X026118Y009285D02*
X026218Y009285D01*
X026218Y009186D02*
X026118Y009186D01*
X026118Y009088D02*
X026218Y009088D01*
X026218Y008989D02*
X026118Y008989D01*
X026118Y008891D02*
X026218Y008891D01*
X026672Y009285D02*
X026747Y009285D01*
X026747Y009383D02*
X026561Y009383D01*
X026747Y009482D02*
X026357Y009482D01*
X026744Y009186D02*
X026747Y009186D01*
X025776Y009383D02*
X025335Y009383D01*
X025592Y009186D02*
X024736Y009186D01*
X024786Y009088D02*
X025543Y009088D01*
X025511Y008989D02*
X024818Y008989D01*
X024834Y008891D02*
X025495Y008891D01*
X025507Y008694D02*
X024822Y008694D01*
X024792Y008595D02*
X025536Y008595D01*
X025583Y008497D02*
X024745Y008497D01*
X024677Y008398D02*
X025651Y008398D01*
X025755Y008300D02*
X024574Y008300D01*
X024664Y009285D02*
X025665Y009285D01*
X024993Y009383D02*
X024553Y009383D01*
X024349Y009482D02*
X024834Y009482D01*
X025388Y010270D02*
X025808Y010270D01*
X024210Y010270D02*
X024110Y010270D01*
X024110Y010368D02*
X024210Y010368D01*
X024210Y010467D02*
X024110Y010467D01*
X024110Y010565D02*
X024210Y010565D01*
X024210Y010664D02*
X024110Y010664D01*
X024110Y010762D02*
X024210Y010762D01*
X024210Y011058D02*
X024110Y011058D01*
X024110Y011156D02*
X024210Y011156D01*
X024210Y011255D02*
X024110Y011255D01*
X024110Y011353D02*
X024210Y011353D01*
X024210Y011452D02*
X024110Y011452D01*
X023870Y011452D02*
X021343Y011452D01*
X021343Y011353D02*
X022845Y011353D01*
X022811Y011334D01*
X022783Y011306D01*
X022763Y011271D01*
X022753Y011233D01*
X022753Y011045D01*
X023051Y011045D01*
X023051Y011364D01*
X022883Y011364D01*
X022845Y011353D01*
X022759Y011255D02*
X021343Y011255D01*
X021343Y011156D02*
X022753Y011156D01*
X022753Y011058D02*
X021343Y011058D01*
X021343Y010959D02*
X023051Y010959D01*
X023148Y010959D02*
X023495Y010959D01*
X023520Y011058D02*
X023447Y011058D01*
X023447Y011156D02*
X023563Y011156D01*
X023627Y011255D02*
X023441Y011255D01*
X023354Y011353D02*
X023719Y011353D01*
X023148Y011353D02*
X023051Y011353D01*
X023051Y011255D02*
X023148Y011255D01*
X023148Y011156D02*
X023051Y011156D01*
X023051Y011058D02*
X023148Y011058D01*
X022753Y010861D02*
X021343Y010861D01*
X021343Y010762D02*
X022753Y010762D01*
X022808Y010664D02*
X021343Y010664D01*
X021343Y010565D02*
X022793Y010565D01*
X022793Y010467D02*
X022683Y010467D01*
X022648Y010073D02*
X022793Y010073D01*
X023407Y010270D02*
X023800Y010270D01*
X020753Y011846D02*
X018929Y011846D01*
X018831Y011944D02*
X020654Y011944D01*
X019319Y012831D02*
X026747Y012831D01*
X026747Y012929D02*
X019221Y012929D01*
X017789Y011747D02*
X017197Y011747D01*
X017197Y011649D02*
X017887Y011649D01*
X017986Y011550D02*
X017197Y011550D01*
X017197Y011452D02*
X018084Y011452D01*
X018127Y011353D02*
X017197Y011353D01*
X017197Y011255D02*
X018127Y011255D01*
X016877Y011058D02*
X016822Y011058D01*
X016822Y010959D02*
X016877Y010959D01*
X016877Y010861D02*
X016822Y010861D01*
X016877Y010762D02*
X016739Y010762D01*
X016640Y010664D02*
X016877Y010664D01*
X016877Y010565D02*
X016542Y010565D01*
X016877Y010467D02*
X016176Y010467D01*
X016172Y010368D02*
X016877Y010368D01*
X016877Y010270D02*
X016176Y010270D01*
X016176Y010171D02*
X016846Y010171D01*
X017103Y009777D02*
X017150Y009777D01*
X016662Y009390D02*
X016662Y008060D01*
X016989Y008103D02*
X018057Y008103D01*
X018058Y008004D02*
X016989Y008004D01*
X016989Y007906D02*
X018156Y007906D01*
X018287Y008100D02*
X018287Y009475D01*
X018127Y008989D02*
X016822Y008989D01*
X016822Y008891D02*
X018127Y008891D01*
X018127Y008792D02*
X016822Y008792D01*
X016822Y008694D02*
X018127Y008694D01*
X018127Y008595D02*
X016822Y008595D01*
X016822Y008497D02*
X018127Y008497D01*
X018127Y008398D02*
X016822Y008398D01*
X016989Y008300D02*
X018127Y008300D01*
X018064Y008201D02*
X016989Y008201D01*
X016350Y007725D02*
X018537Y007725D01*
X018649Y007610D02*
X019744Y007610D01*
X019744Y007512D02*
X016989Y007512D01*
X016989Y007413D02*
X019744Y007413D01*
X019744Y007315D02*
X016989Y007315D01*
X016989Y007216D02*
X019744Y007216D01*
X019744Y007118D02*
X016959Y007118D01*
X016917Y006921D02*
X019744Y006921D01*
X019744Y007019D02*
X015010Y007019D01*
X015010Y007118D02*
X016366Y007118D01*
X016560Y007287D02*
X014850Y007287D01*
X014850Y006781D01*
X014803Y006734D01*
X014803Y006478D02*
X015456Y006478D01*
X015475Y006497D01*
X015801Y006527D02*
X016627Y006527D01*
X016627Y006428D02*
X015801Y006428D01*
X015801Y006330D02*
X016627Y006330D01*
X016627Y006231D02*
X016419Y006231D01*
X016455Y006195D02*
X016320Y006330D01*
X016130Y006330D01*
X015995Y006195D01*
X015995Y006096D01*
X015886Y005988D01*
X015801Y005988D01*
X015801Y006070D01*
X015737Y006135D01*
X015213Y006135D01*
X015148Y006070D01*
X015148Y005585D01*
X015213Y005521D01*
X015737Y005521D01*
X015801Y005585D01*
X015801Y005668D01*
X016019Y005668D01*
X016221Y005870D01*
X016320Y005870D01*
X016455Y006005D01*
X016455Y006195D01*
X016455Y006133D02*
X016627Y006133D01*
X016627Y006034D02*
X016455Y006034D01*
X016386Y005936D02*
X016627Y005936D01*
X016627Y005837D02*
X016189Y005837D01*
X016090Y005739D02*
X016627Y005739D01*
X016627Y005640D02*
X015801Y005640D01*
X015758Y005542D02*
X016627Y005542D01*
X016627Y005443D02*
X013760Y005443D01*
X013760Y005542D02*
X015192Y005542D01*
X015148Y005640D02*
X013830Y005640D01*
X013830Y005739D02*
X015148Y005739D01*
X015148Y005837D02*
X015105Y005837D01*
X015110Y005936D02*
X015148Y005936D01*
X015148Y006034D02*
X015110Y006034D01*
X015150Y006133D02*
X015211Y006133D01*
X015172Y006231D02*
X015150Y006231D01*
X014803Y005966D02*
X013022Y005966D01*
X013182Y005739D02*
X013370Y005739D01*
X013370Y005640D02*
X013182Y005640D01*
X013182Y005542D02*
X013440Y005542D01*
X013440Y005443D02*
X013182Y005443D01*
X013182Y005345D02*
X013440Y005345D01*
X013477Y005246D02*
X013182Y005246D01*
X013182Y005148D02*
X013576Y005148D01*
X013674Y005049D02*
X013182Y005049D01*
X013182Y004951D02*
X013773Y004951D01*
X013850Y005100D02*
X013600Y005350D01*
X013600Y005725D01*
X013708Y006133D02*
X014456Y006133D01*
X014456Y006231D02*
X013807Y006231D01*
X013830Y006330D02*
X014459Y006330D01*
X014496Y006428D02*
X013830Y006428D01*
X013748Y006527D02*
X014496Y006527D01*
X014496Y006625D02*
X013551Y006625D01*
X013472Y006478D02*
X013022Y006478D01*
X012603Y006478D01*
X012600Y006475D01*
X012777Y006921D02*
X012364Y006921D01*
X012334Y007019D02*
X014690Y007019D01*
X014690Y007118D02*
X011289Y007118D01*
X011289Y007216D02*
X014070Y007216D01*
X013971Y007315D02*
X011289Y007315D01*
X011289Y007413D02*
X013873Y007413D01*
X013774Y007512D02*
X013105Y007512D01*
X013118Y007610D02*
X013676Y007610D01*
X013577Y007709D02*
X013118Y007709D01*
X012771Y007610D02*
X012771Y007610D01*
X012771Y007512D02*
X012771Y007512D01*
X012437Y007512D02*
X011289Y007512D01*
X011289Y007610D02*
X012425Y007610D01*
X012425Y007709D02*
X011273Y007709D01*
X011621Y008103D02*
X010662Y008103D01*
X010662Y008201D02*
X011522Y008201D01*
X011502Y008300D02*
X010662Y008300D01*
X010662Y008398D02*
X011502Y008398D01*
X011502Y008497D02*
X010662Y008497D01*
X010475Y008497D02*
X009457Y008497D01*
X009457Y008586D02*
X009588Y008586D01*
X009653Y008651D01*
X009653Y008690D01*
X009876Y008690D01*
X009876Y008607D01*
X009941Y008543D01*
X010465Y008543D01*
X010475Y008553D01*
X010475Y007758D01*
X010233Y007758D01*
X010169Y007693D01*
X010169Y007507D01*
X009457Y008219D01*
X009457Y008586D01*
X009598Y008595D02*
X009888Y008595D01*
X010203Y008850D02*
X009494Y008850D01*
X009494Y008893D01*
X009297Y008893D02*
X009297Y008153D01*
X009475Y008201D02*
X010475Y008201D01*
X010475Y008103D02*
X009573Y008103D01*
X009672Y008004D02*
X010475Y008004D01*
X010475Y007906D02*
X009770Y007906D01*
X009869Y007807D02*
X010475Y007807D01*
X010662Y007807D02*
X011916Y007807D01*
X011818Y007906D02*
X010662Y007906D01*
X010662Y008004D02*
X011719Y008004D01*
X011662Y008287D02*
X012037Y007912D01*
X012768Y007912D01*
X012771Y007909D01*
X013603Y007909D01*
X014225Y007287D01*
X014850Y007287D01*
X014843Y007512D02*
X015300Y007512D01*
X015245Y007610D02*
X014860Y007610D01*
X014860Y007709D02*
X015202Y007709D01*
X015228Y007909D02*
X015475Y007662D01*
X015228Y007909D02*
X014553Y007909D01*
X014553Y008165D02*
X014097Y008165D01*
X013225Y009037D01*
X013225Y009975D01*
X013100Y010100D01*
X012537Y010100D01*
X012162Y010475D01*
X011537Y010475D01*
X011225Y010787D01*
X011225Y011225D01*
X011475Y011475D01*
X012218Y011475D01*
X012218Y011219D02*
X012719Y011219D01*
X012850Y011350D01*
X013080Y011353D02*
X013683Y011353D01*
X013596Y011440D02*
X013977Y011059D01*
X014157Y011059D01*
X014155Y011052D01*
X014155Y010963D01*
X014155Y010874D01*
X014165Y010836D01*
X014185Y010802D01*
X014195Y010792D01*
X014195Y010593D01*
X014259Y010528D01*
X014377Y010528D01*
X014377Y010078D01*
X014307Y010008D01*
X014307Y009817D01*
X014442Y009682D01*
X014633Y009682D01*
X014767Y009817D01*
X014767Y010008D01*
X014697Y010078D01*
X014697Y010528D01*
X014705Y010528D01*
X014769Y010593D01*
X014769Y010792D01*
X014779Y010802D01*
X014799Y010836D01*
X014804Y010857D01*
X015002Y010659D01*
X015002Y008846D01*
X015456Y008392D01*
X015317Y008392D01*
X015250Y008325D01*
X014900Y008325D01*
X014900Y008421D01*
X014900Y008519D01*
X014890Y008558D01*
X014870Y008592D01*
X014842Y008620D01*
X014808Y008639D01*
X014770Y008650D01*
X014553Y008650D01*
X014553Y008421D01*
X014553Y008421D01*
X014553Y008650D01*
X014336Y008650D01*
X014298Y008639D01*
X014264Y008620D01*
X014236Y008592D01*
X014216Y008558D01*
X014206Y008519D01*
X014206Y008421D01*
X014553Y008421D01*
X014900Y008421D01*
X014553Y008421D01*
X014553Y008421D01*
X014553Y008421D01*
X014206Y008421D01*
X014206Y008325D01*
X014164Y008325D01*
X013385Y009104D01*
X013385Y009339D01*
X013721Y009002D01*
X014247Y009002D01*
X014317Y008932D01*
X014508Y008932D01*
X014642Y009067D01*
X014642Y009258D01*
X014508Y009392D01*
X014317Y009392D01*
X014247Y009322D01*
X013854Y009322D01*
X013572Y009604D01*
X013572Y010791D01*
X013334Y011029D01*
X013240Y011123D01*
X012948Y011123D01*
X013080Y011255D01*
X013781Y011255D01*
X013880Y011156D02*
X012982Y011156D01*
X013080Y011255D02*
X013080Y011445D01*
X012945Y011580D01*
X012869Y011580D01*
X013229Y011940D01*
X013322Y012034D01*
X013322Y012409D01*
X013432Y012519D01*
X013432Y012442D01*
X013502Y012372D01*
X013502Y011534D01*
X013596Y011440D01*
X013584Y011452D02*
X013073Y011452D01*
X012975Y011550D02*
X013502Y011550D01*
X013502Y011649D02*
X012938Y011649D01*
X013036Y011747D02*
X013502Y011747D01*
X013502Y011846D02*
X013135Y011846D01*
X013233Y011944D02*
X013502Y011944D01*
X013502Y012043D02*
X013322Y012043D01*
X013322Y012141D02*
X013502Y012141D01*
X013502Y012240D02*
X013322Y012240D01*
X013322Y012338D02*
X013502Y012338D01*
X013438Y012437D02*
X013351Y012437D01*
X013162Y012475D02*
X013537Y012850D01*
X016287Y012850D01*
X015758Y013422D02*
X010662Y013422D01*
X010662Y013520D02*
X015857Y013520D01*
X015955Y013619D02*
X010662Y013619D01*
X010662Y013717D02*
X016054Y013717D01*
X016065Y013816D02*
X010662Y013816D01*
X010662Y013914D02*
X016065Y013914D01*
X016065Y014013D02*
X010662Y014013D01*
X010662Y014111D02*
X016065Y014111D01*
X016065Y014210D02*
X010662Y014210D01*
X010662Y014308D02*
X016065Y014308D01*
X015660Y013323D02*
X010662Y013323D01*
X010662Y013225D02*
X013186Y013225D01*
X013088Y013126D02*
X010662Y013126D01*
X010662Y013028D02*
X012989Y013028D01*
X012891Y012929D02*
X010662Y012929D01*
X010662Y012831D02*
X012792Y012831D01*
X012694Y012732D02*
X010662Y012732D01*
X010662Y012634D02*
X012627Y012634D01*
X012627Y012535D02*
X010662Y012535D01*
X010662Y012437D02*
X012627Y012437D01*
X012627Y012338D02*
X012505Y012338D01*
X012505Y012240D02*
X012627Y012240D01*
X012793Y011731D02*
X012218Y011731D01*
X011931Y011747D02*
X011396Y011747D01*
X011396Y011649D02*
X011931Y011649D01*
X011226Y011452D02*
X010662Y011452D01*
X010662Y011353D02*
X011127Y011353D01*
X011065Y011255D02*
X010662Y011255D01*
X010662Y011156D02*
X011065Y011156D01*
X011065Y011058D02*
X010662Y011058D01*
X010662Y010959D02*
X011065Y010959D01*
X011065Y010861D02*
X010662Y010861D01*
X010662Y010762D02*
X011065Y010762D01*
X011122Y010664D02*
X010662Y010664D01*
X010662Y010565D02*
X011221Y010565D01*
X011319Y010467D02*
X010662Y010467D01*
X010662Y010368D02*
X011418Y010368D01*
X011179Y010171D02*
X012240Y010171D01*
X012338Y010073D02*
X011179Y010073D01*
X011350Y009912D02*
X010872Y009912D01*
X011179Y009679D02*
X011357Y009679D01*
X011456Y009580D02*
X010662Y009580D01*
X010662Y009482D02*
X011502Y009482D01*
X011502Y009383D02*
X010662Y009383D01*
X010662Y009285D02*
X011502Y009285D01*
X011502Y009186D02*
X011147Y009186D01*
X011146Y009187D02*
X011108Y009197D01*
X010920Y009197D01*
X010920Y008898D01*
X011239Y008898D01*
X011239Y009066D01*
X011228Y009105D01*
X011209Y009139D01*
X011181Y009167D01*
X011146Y009187D01*
X011233Y009088D02*
X011502Y009088D01*
X011502Y008989D02*
X011239Y008989D01*
X011239Y008792D02*
X011502Y008792D01*
X011502Y008694D02*
X011239Y008694D01*
X011228Y008595D02*
X011502Y008595D01*
X011822Y008595D02*
X012066Y008595D01*
X012056Y008694D02*
X011822Y008694D01*
X011822Y008792D02*
X011995Y008792D01*
X011995Y008891D02*
X011822Y008891D01*
X011822Y008989D02*
X012039Y008989D01*
X012225Y008850D02*
X012225Y008662D01*
X012466Y008421D01*
X012771Y008421D01*
X013078Y008398D02*
X013638Y008398D01*
X013736Y008300D02*
X013109Y008300D01*
X013118Y008201D02*
X013835Y008201D01*
X013933Y008103D02*
X013118Y008103D01*
X013118Y008165D02*
X012771Y008165D01*
X012771Y008165D01*
X012425Y008165D01*
X012771Y008165D01*
X013118Y008165D01*
X012771Y008165D02*
X012771Y008165D01*
X012425Y008201D02*
X011975Y008201D01*
X012073Y008103D02*
X012425Y008103D01*
X012361Y008300D02*
X011876Y008300D01*
X011822Y008398D02*
X012263Y008398D01*
X012164Y008497D02*
X011822Y008497D01*
X011662Y008287D02*
X011662Y009600D01*
X011350Y009912D01*
X011514Y009974D02*
X012437Y009974D01*
X012141Y010270D02*
X010662Y010270D01*
X010203Y010310D02*
X010203Y009912D01*
X010203Y010310D02*
X009955Y010557D01*
X009494Y010557D01*
X009653Y010368D02*
X009918Y010368D01*
X010016Y010270D02*
X009608Y010270D01*
X009171Y010959D02*
X009029Y010959D01*
X008931Y011058D02*
X009269Y011058D01*
X009679Y011649D02*
X006402Y011649D01*
X006304Y011747D02*
X009699Y011747D01*
X010056Y012338D02*
X010153Y012338D01*
X010153Y012437D02*
X010056Y012437D01*
X010056Y012535D02*
X010153Y012535D01*
X010922Y012141D02*
X011019Y012141D01*
X011019Y012043D02*
X010922Y012043D01*
X010922Y011944D02*
X011019Y011944D01*
X011019Y011747D02*
X010922Y011747D01*
X010922Y011649D02*
X011019Y011649D01*
X011019Y011550D02*
X010922Y011550D01*
X010475Y011846D02*
X006205Y011846D01*
X007614Y010762D02*
X008547Y010762D01*
X009457Y009383D02*
X010475Y009383D01*
X010475Y009285D02*
X009457Y009285D01*
X009602Y009186D02*
X010475Y009186D01*
X010824Y009186D02*
X010920Y009186D01*
X010920Y009088D02*
X010824Y009088D01*
X010824Y008989D02*
X010920Y008989D01*
X010920Y008891D02*
X011502Y008891D01*
X011822Y009088D02*
X013065Y009088D01*
X013065Y009186D02*
X011822Y009186D01*
X011822Y009285D02*
X013065Y009285D01*
X013065Y009383D02*
X011822Y009383D01*
X011822Y009482D02*
X013065Y009482D01*
X013065Y009580D02*
X011822Y009580D01*
X011810Y009679D02*
X013065Y009679D01*
X013065Y009777D02*
X011711Y009777D01*
X011613Y009876D02*
X013065Y009876D01*
X013412Y009537D02*
X013412Y010725D01*
X013174Y010963D01*
X012218Y010963D01*
X011725Y010963D01*
X011600Y010975D01*
X012218Y010707D02*
X012493Y010707D01*
X012787Y010412D01*
X013572Y010368D02*
X014377Y010368D01*
X014377Y010270D02*
X013572Y010270D01*
X013572Y010171D02*
X014377Y010171D01*
X014373Y010073D02*
X013572Y010073D01*
X013572Y009974D02*
X014307Y009974D01*
X014307Y009876D02*
X013572Y009876D01*
X013572Y009777D02*
X014347Y009777D01*
X014537Y009912D02*
X014537Y010652D01*
X014482Y010707D01*
X014377Y010467D02*
X013572Y010467D01*
X013572Y010565D02*
X014222Y010565D01*
X014195Y010664D02*
X013572Y010664D01*
X013572Y010762D02*
X014195Y010762D01*
X014158Y010861D02*
X013503Y010861D01*
X013404Y010959D02*
X014155Y010959D01*
X014155Y010963D02*
X014482Y010963D01*
X014482Y010963D01*
X014155Y010963D01*
X014156Y011058D02*
X013306Y011058D01*
X013662Y011600D02*
X013662Y012537D01*
X013162Y012475D02*
X013162Y012100D01*
X012793Y011731D01*
X013662Y011600D02*
X014043Y011219D01*
X014482Y011219D01*
X014668Y011219D01*
X015162Y010725D01*
X015162Y008912D01*
X016350Y007725D01*
X016662Y007390D02*
X016560Y007287D01*
X016658Y006921D02*
X015048Y006921D01*
X015110Y006822D02*
X016560Y006822D01*
X016557Y006724D02*
X015801Y006724D01*
X015801Y006625D02*
X016562Y006625D01*
X016787Y006725D02*
X016787Y005287D01*
X016600Y005100D01*
X013850Y005100D01*
X013831Y005345D02*
X016619Y005345D01*
X016874Y005148D02*
X019232Y005148D01*
X019232Y005246D02*
X019197Y005246D01*
X019003Y005246D02*
X016947Y005246D01*
X016947Y005345D02*
X018905Y005345D01*
X018870Y005443D02*
X016947Y005443D01*
X016947Y005542D02*
X018870Y005542D01*
X018940Y005640D02*
X016947Y005640D01*
X016947Y005739D02*
X018976Y005739D01*
X018976Y005837D02*
X016947Y005837D01*
X016947Y005936D02*
X018976Y005936D01*
X018976Y006034D02*
X016947Y006034D01*
X016947Y006133D02*
X018682Y006133D01*
X018670Y006231D02*
X016947Y006231D01*
X016947Y006330D02*
X018670Y006330D01*
X018670Y006428D02*
X016947Y006428D01*
X016947Y006527D02*
X018670Y006527D01*
X018676Y006625D02*
X017013Y006625D01*
X017017Y006724D02*
X018764Y006724D01*
X018880Y006724D02*
X018880Y006724D01*
X018880Y006625D02*
X018880Y006625D01*
X018880Y006527D02*
X018880Y006527D01*
X018880Y006428D02*
X018880Y006428D01*
X018880Y006389D02*
X018880Y006044D01*
X018880Y006389D01*
X018880Y006389D01*
X018880Y006330D02*
X018880Y006330D01*
X018880Y006231D02*
X018880Y006231D01*
X018880Y006133D02*
X018880Y006133D01*
X019136Y006389D02*
X019136Y005511D01*
X019100Y005475D01*
X019552Y005443D02*
X019743Y005443D01*
X019744Y005542D02*
X019552Y005542D01*
X019552Y005640D02*
X019744Y005640D01*
X019744Y005739D02*
X019552Y005739D01*
X019552Y005837D02*
X019744Y005837D01*
X019744Y005936D02*
X019552Y005936D01*
X019552Y006034D02*
X019744Y006034D01*
X019648Y006389D02*
X019904Y006389D01*
X019744Y006724D02*
X018996Y006724D01*
X019392Y006389D02*
X019392Y004892D01*
X019225Y004725D01*
X018412Y004725D01*
X018255Y004557D02*
X012846Y004557D01*
X012944Y004655D02*
X018182Y004655D01*
X018182Y004754D02*
X013043Y004754D01*
X013141Y004852D02*
X018215Y004852D01*
X018313Y004951D02*
X016677Y004951D01*
X016776Y005049D02*
X019232Y005049D01*
X019225Y004951D02*
X018512Y004951D01*
X018570Y004557D02*
X026747Y004557D01*
X026747Y004655D02*
X019382Y004655D01*
X019480Y004754D02*
X026747Y004754D01*
X026747Y004852D02*
X019552Y004852D01*
X019552Y004951D02*
X026747Y004951D01*
X026747Y005049D02*
X019552Y005049D01*
X019552Y005148D02*
X019727Y005148D01*
X019682Y005246D02*
X019552Y005246D01*
X019552Y005345D02*
X019682Y005345D01*
X020415Y006044D02*
X020495Y006044D01*
X020533Y006054D01*
X020567Y006074D01*
X020577Y006084D01*
X020777Y006084D01*
X020799Y006106D01*
X020822Y006084D01*
X021033Y006084D01*
X021055Y006106D01*
X021078Y006084D01*
X021289Y006084D01*
X021353Y006148D01*
X021353Y006629D01*
X021289Y006694D01*
X021078Y006694D01*
X021055Y006671D01*
X021033Y006694D01*
X020822Y006694D01*
X020799Y006671D01*
X020777Y006694D01*
X020577Y006694D01*
X020567Y006704D01*
X020533Y006723D01*
X020495Y006734D01*
X020415Y006734D01*
X020415Y006389D01*
X020415Y006389D01*
X020415Y006044D01*
X020415Y006133D02*
X020415Y006133D01*
X020415Y006231D02*
X020415Y006231D01*
X020415Y006330D02*
X020415Y006330D01*
X020415Y006428D02*
X020415Y006428D01*
X020415Y006527D02*
X020415Y006527D01*
X020415Y006625D02*
X020415Y006625D01*
X020415Y006724D02*
X020415Y006724D01*
X020299Y006724D02*
X020276Y006724D01*
X020531Y006724D02*
X026747Y006724D01*
X026747Y006625D02*
X021353Y006625D01*
X021353Y006527D02*
X026747Y006527D01*
X026747Y006428D02*
X021353Y006428D01*
X021353Y006330D02*
X026747Y006330D01*
X026747Y006231D02*
X021353Y006231D01*
X021338Y006133D02*
X026747Y006133D01*
X026747Y004261D02*
X014350Y004261D01*
X014350Y004163D02*
X026747Y004163D01*
X026747Y004064D02*
X014350Y004064D01*
X014350Y003966D02*
X026747Y003966D01*
X026747Y003867D02*
X014350Y003867D01*
X014350Y003769D02*
X026747Y003769D01*
X026747Y003670D02*
X014350Y003670D01*
X014350Y003572D02*
X026747Y003572D01*
X026747Y003473D02*
X014350Y003473D01*
X014350Y003375D02*
X026747Y003375D01*
X026747Y003276D02*
X014350Y003276D01*
X014350Y003178D02*
X026747Y003178D01*
X026747Y003079D02*
X014350Y003079D01*
X014350Y002981D02*
X026747Y002981D01*
X026747Y002882D02*
X014350Y002882D01*
X014350Y002784D02*
X023479Y002784D01*
X023600Y002834D02*
X023328Y002721D01*
X023119Y002513D01*
X023006Y002241D01*
X023006Y001946D01*
X023119Y001674D01*
X023328Y001466D01*
X023600Y001353D01*
X023894Y001353D01*
X024167Y001466D01*
X024375Y001674D01*
X024488Y001946D01*
X024488Y002241D01*
X024375Y002513D01*
X024167Y002721D01*
X023894Y002834D01*
X023600Y002834D01*
X024015Y002784D02*
X026540Y002784D01*
X026243Y002685D02*
X024202Y002685D01*
X024301Y002587D02*
X026068Y002587D01*
X026192Y002668D02*
X026192Y002668D01*
X025919Y002488D02*
X024385Y002488D01*
X024426Y002390D02*
X025778Y002390D01*
X025690Y002291D02*
X024467Y002291D01*
X024488Y002193D02*
X025603Y002193D01*
X025515Y002094D02*
X024488Y002094D01*
X024488Y001996D02*
X025446Y001996D01*
X025470Y002044D02*
X025470Y002044D01*
X025397Y001897D02*
X024467Y001897D01*
X024427Y001799D02*
X025347Y001799D01*
X025298Y001700D02*
X024386Y001700D01*
X024303Y001602D02*
X025252Y001602D01*
X025232Y001503D02*
X024204Y001503D01*
X024020Y001405D02*
X025212Y001405D01*
X025192Y001306D02*
X014350Y001306D01*
X014350Y001208D02*
X025171Y001208D01*
X025160Y001109D02*
X014350Y001109D01*
X014162Y001109D02*
X002637Y001109D01*
X002637Y001208D02*
X014162Y001208D01*
X014162Y001306D02*
X007054Y001306D01*
X007106Y001405D02*
X014162Y001405D01*
X014350Y001405D02*
X023474Y001405D01*
X023290Y001503D02*
X014350Y001503D01*
X014350Y001602D02*
X023191Y001602D01*
X023108Y001700D02*
X014350Y001700D01*
X014350Y001799D02*
X023068Y001799D01*
X023027Y001897D02*
X014350Y001897D01*
X014350Y001996D02*
X023006Y001996D01*
X023006Y002094D02*
X014350Y002094D01*
X014350Y002193D02*
X023006Y002193D01*
X023027Y002291D02*
X014350Y002291D01*
X014350Y002390D02*
X023068Y002390D01*
X023109Y002488D02*
X014350Y002488D01*
X014350Y002587D02*
X023193Y002587D01*
X023292Y002685D02*
X014350Y002685D01*
X012689Y004852D02*
X012553Y004852D01*
X012642Y004951D02*
X012787Y004951D01*
X012862Y005049D02*
X012642Y005049D01*
X012627Y005148D02*
X012862Y005148D01*
X012862Y005246D02*
X012529Y005246D01*
X012412Y005037D02*
X012037Y005412D01*
X012037Y006078D01*
X011711Y006034D02*
X011289Y006034D01*
X011289Y005936D02*
X011711Y005936D01*
X011711Y005837D02*
X011289Y005837D01*
X011289Y005739D02*
X011877Y005739D01*
X011877Y005640D02*
X011289Y005640D01*
X011289Y005542D02*
X011877Y005542D01*
X011877Y005443D02*
X011289Y005443D01*
X011289Y005345D02*
X011879Y005345D01*
X011977Y005246D02*
X011289Y005246D01*
X011289Y005148D02*
X012076Y005148D01*
X012174Y005049D02*
X011010Y005049D01*
X011010Y004951D02*
X012182Y004951D01*
X012272Y004852D02*
X011048Y004852D01*
X010475Y004852D02*
X007261Y004852D01*
X007360Y004754D02*
X010475Y004754D01*
X010169Y005739D02*
X009071Y005739D01*
X009071Y005837D02*
X010169Y005837D01*
X010169Y005936D02*
X009071Y005936D01*
X009071Y006034D02*
X010169Y006034D01*
X010229Y006133D02*
X009027Y006133D01*
X008521Y006133D02*
X008421Y006133D01*
X008421Y006034D02*
X008521Y006034D01*
X008521Y005936D02*
X008421Y005936D01*
X008421Y005837D02*
X008521Y005837D01*
X008521Y005739D02*
X008421Y005739D01*
X008421Y005443D02*
X008521Y005443D01*
X008521Y005345D02*
X008421Y005345D01*
X008421Y005246D02*
X008521Y005246D01*
X008521Y005148D02*
X008421Y005148D01*
X008421Y005049D02*
X008521Y005049D01*
X007942Y005049D02*
X007064Y005049D01*
X006966Y005148D02*
X007873Y005148D01*
X007871Y005246D02*
X006892Y005246D01*
X006868Y005345D02*
X007871Y005345D01*
X007871Y005443D02*
X006769Y005443D01*
X006432Y005246D02*
X004886Y005246D01*
X004886Y005148D02*
X006432Y005148D01*
X005892Y004458D02*
X007203Y004458D01*
X007301Y004360D02*
X005822Y004360D01*
X005913Y004261D02*
X007400Y004261D01*
X007498Y004163D02*
X006011Y004163D01*
X006110Y004064D02*
X006379Y004064D01*
X006344Y003966D02*
X006208Y003966D01*
X006161Y003786D02*
X005854Y003479D01*
X005251Y003479D01*
X005225Y003453D01*
X004898Y003473D02*
X001062Y003473D01*
X001062Y003375D02*
X004898Y003375D01*
X004898Y003276D02*
X001062Y003276D01*
X001062Y003178D02*
X004931Y003178D01*
X004898Y003572D02*
X001062Y003572D01*
X001062Y003670D02*
X004898Y003670D01*
X004911Y003867D02*
X001062Y003867D01*
X001062Y003769D02*
X005918Y003769D01*
X005854Y003867D02*
X005539Y003867D01*
X005551Y003966D02*
X005756Y003966D01*
X005657Y004064D02*
X005551Y004064D01*
X005551Y004163D02*
X005559Y004163D01*
X005225Y004122D02*
X004890Y004122D01*
X004820Y003966D02*
X001062Y003966D01*
X001062Y004064D02*
X004722Y004064D01*
X004623Y004163D02*
X001062Y004163D01*
X001062Y004261D02*
X004525Y004261D01*
X004426Y004360D02*
X001062Y004360D01*
X001062Y004458D02*
X004377Y004458D01*
X004377Y004557D02*
X001062Y004557D01*
X001062Y004655D02*
X004377Y004655D01*
X004274Y004754D02*
X004230Y004754D01*
X003939Y004754D02*
X003842Y004754D01*
X003842Y004691D02*
X003842Y004989D01*
X003524Y004989D01*
X003524Y004821D01*
X003534Y004783D01*
X003554Y004748D01*
X003582Y004721D01*
X003616Y004701D01*
X003654Y004691D01*
X003842Y004691D01*
X003842Y004852D02*
X003939Y004852D01*
X003939Y004951D02*
X003842Y004951D01*
X003842Y005049D02*
X001062Y005049D01*
X001062Y004951D02*
X003524Y004951D01*
X003524Y004852D02*
X001062Y004852D01*
X001062Y004754D02*
X003551Y004754D01*
X003524Y005148D02*
X001062Y005148D01*
X001062Y005246D02*
X003524Y005246D01*
X003572Y005345D02*
X001062Y005345D01*
X001062Y005443D02*
X002343Y005443D01*
X002244Y005542D02*
X001062Y005542D01*
X001062Y005640D02*
X002146Y005640D01*
X002047Y005739D02*
X001062Y005739D01*
X001062Y005837D02*
X001949Y005837D01*
X001850Y005936D02*
X001062Y005936D01*
X001062Y006034D02*
X001752Y006034D01*
X001653Y006133D02*
X001062Y006133D01*
X001062Y006231D02*
X001555Y006231D01*
X001502Y006330D02*
X001062Y006330D01*
X001062Y006428D02*
X001502Y006428D01*
X001502Y006527D02*
X001062Y006527D01*
X001062Y006625D02*
X001502Y006625D01*
X001502Y006724D02*
X001062Y006724D01*
X001062Y006822D02*
X001502Y006822D01*
X001502Y006921D02*
X001062Y006921D01*
X001062Y007019D02*
X001502Y007019D01*
X001502Y007118D02*
X001062Y007118D01*
X001062Y007216D02*
X001502Y007216D01*
X001502Y007315D02*
X001062Y007315D01*
X001062Y007413D02*
X001502Y007413D01*
X001502Y007512D02*
X001062Y007512D01*
X001062Y007610D02*
X001502Y007610D01*
X001502Y007709D02*
X001062Y007709D01*
X001062Y007807D02*
X001502Y007807D01*
X001502Y007906D02*
X001062Y007906D01*
X001062Y008004D02*
X001502Y008004D01*
X001502Y008103D02*
X001062Y008103D01*
X001062Y008201D02*
X001502Y008201D01*
X001502Y008300D02*
X001062Y008300D01*
X001062Y008398D02*
X001502Y008398D01*
X001502Y008497D02*
X001062Y008497D01*
X001062Y008595D02*
X001502Y008595D01*
X001502Y008694D02*
X001062Y008694D01*
X001062Y008792D02*
X001502Y008792D01*
X001502Y008891D02*
X001062Y008891D01*
X001062Y008989D02*
X001502Y008989D01*
X001502Y009088D02*
X001062Y009088D01*
X001062Y009186D02*
X001502Y009186D01*
X001502Y009285D02*
X001062Y009285D01*
X001062Y009383D02*
X001502Y009383D01*
X001502Y009482D02*
X001062Y009482D01*
X001062Y009580D02*
X001502Y009580D01*
X001502Y009679D02*
X001062Y009679D01*
X001062Y009777D02*
X001502Y009777D01*
X001502Y009876D02*
X001062Y009876D01*
X001062Y009974D02*
X001502Y009974D01*
X001502Y010073D02*
X001062Y010073D01*
X001062Y010171D02*
X001502Y010171D01*
X001544Y010270D02*
X001062Y010270D01*
X001062Y010368D02*
X001642Y010368D01*
X001741Y010467D02*
X001062Y010467D01*
X001062Y010565D02*
X001839Y010565D01*
X001938Y010664D02*
X001062Y010664D01*
X001062Y010762D02*
X002036Y010762D01*
X002135Y010861D02*
X001062Y010861D01*
X001062Y010959D02*
X002233Y010959D01*
X002332Y011058D02*
X001062Y011058D01*
X001062Y011156D02*
X003753Y011156D01*
X003153Y011846D02*
X001062Y011846D01*
X001062Y011944D02*
X001789Y011944D01*
X001731Y012043D02*
X001062Y012043D01*
X001062Y012141D02*
X001731Y012141D01*
X001731Y012240D02*
X001062Y012240D01*
X001062Y012338D02*
X001731Y012338D01*
X001731Y012437D02*
X001062Y012437D01*
X001062Y012535D02*
X001739Y012535D01*
X001716Y012634D02*
X001062Y012634D01*
X001062Y012732D02*
X001691Y012732D01*
X001989Y013028D02*
X002086Y013028D01*
X002086Y013126D02*
X001989Y013126D01*
X001989Y013225D02*
X002086Y013225D01*
X002384Y013028D02*
X002623Y013028D01*
X003062Y013422D02*
X001062Y013422D01*
X001062Y013520D02*
X002623Y013520D01*
X002623Y013619D02*
X002319Y013619D01*
X002162Y013787D02*
X002837Y013787D01*
X002851Y013802D01*
X002623Y014013D02*
X002262Y014013D01*
X002063Y014013D02*
X001062Y014013D01*
X001062Y014111D02*
X002651Y014111D01*
X002981Y014407D02*
X001062Y014407D01*
X001062Y014505D02*
X002981Y014505D01*
X002981Y014604D02*
X001062Y014604D01*
X001062Y014702D02*
X001985Y014702D01*
X001886Y014801D02*
X001062Y014801D01*
X001062Y014899D02*
X001870Y014899D01*
X001870Y014998D02*
X001062Y014998D01*
X001062Y015096D02*
X001959Y015096D01*
X002106Y015195D02*
X001062Y015195D01*
X001062Y015293D02*
X002106Y015293D01*
X002106Y015392D02*
X001062Y015392D01*
X001062Y015490D02*
X002981Y015490D01*
X003447Y015786D02*
X003586Y015786D01*
X003287Y015970D02*
X003886Y015970D01*
X003894Y015971D01*
X003902Y015975D01*
X003908Y015981D01*
X003912Y015989D01*
X003913Y015997D01*
X003912Y015997D02*
X003912Y016162D01*
X003625Y016278D02*
X003093Y016278D01*
X003093Y016180D02*
X003105Y016180D01*
X003470Y016180D02*
X003586Y016180D01*
X003761Y016771D02*
X001377Y016771D01*
X001578Y016825D02*
X001578Y016825D01*
X001655Y016869D02*
X003593Y016869D01*
X003643Y016820D02*
X003915Y016707D01*
X004209Y016707D01*
X004481Y016820D01*
X004690Y017028D01*
X004803Y017301D01*
X004803Y017595D01*
X004690Y017867D01*
X004481Y018076D01*
X004209Y018188D01*
X003915Y018188D01*
X003643Y018076D01*
X003434Y017867D01*
X003321Y017595D01*
X003321Y017301D01*
X003434Y017028D01*
X003643Y016820D01*
X003495Y016968D02*
X001826Y016968D01*
X001986Y017066D02*
X003418Y017066D01*
X003378Y017165D02*
X002084Y017165D01*
X002183Y017263D02*
X003337Y017263D01*
X003321Y017362D02*
X002281Y017362D01*
X002293Y017373D02*
X002293Y017373D01*
X002343Y017460D02*
X003321Y017460D01*
X003321Y017559D02*
X002400Y017559D01*
X002457Y017657D02*
X003347Y017657D01*
X003388Y017756D02*
X002514Y017756D01*
X002543Y017854D02*
X003429Y017854D01*
X003520Y017953D02*
X002570Y017953D01*
X002596Y018051D02*
X003618Y018051D01*
X003822Y018150D02*
X002622Y018150D01*
X002637Y018248D02*
X010475Y018248D01*
X010475Y018150D02*
X004302Y018150D01*
X004506Y018051D02*
X010475Y018051D01*
X010475Y017953D02*
X004604Y017953D01*
X004695Y017854D02*
X010475Y017854D01*
X010475Y017756D02*
X009082Y017756D01*
X009070Y017767D02*
X008880Y017767D01*
X008745Y017633D01*
X008745Y017442D01*
X008880Y017307D01*
X008979Y017307D01*
X008980Y017306D01*
X009074Y017212D01*
X009711Y017212D01*
X009711Y017130D01*
X009775Y017065D01*
X010300Y017065D01*
X010364Y017130D01*
X010364Y017614D01*
X010300Y017679D01*
X009775Y017679D01*
X009711Y017614D01*
X009711Y017532D01*
X009207Y017532D01*
X009205Y017534D01*
X009205Y017633D01*
X009070Y017767D01*
X009180Y017657D02*
X009754Y017657D01*
X009711Y017559D02*
X009205Y017559D01*
X009140Y017372D02*
X008975Y017537D01*
X008825Y017362D02*
X004803Y017362D01*
X004803Y017460D02*
X008745Y017460D01*
X008745Y017559D02*
X004803Y017559D01*
X004777Y017657D02*
X008770Y017657D01*
X008868Y017756D02*
X004736Y017756D01*
X004787Y017263D02*
X009023Y017263D01*
X009140Y017372D02*
X010037Y017372D01*
X010364Y017362D02*
X010475Y017362D01*
X010475Y017460D02*
X010364Y017460D01*
X010364Y017559D02*
X010475Y017559D01*
X010475Y017657D02*
X010321Y017657D01*
X010662Y017657D02*
X023032Y017657D01*
X023006Y017559D02*
X010662Y017559D01*
X010662Y017460D02*
X023006Y017460D01*
X023006Y017362D02*
X010662Y017362D01*
X010662Y017263D02*
X023022Y017263D01*
X023063Y017165D02*
X010662Y017165D01*
X010662Y017066D02*
X023103Y017066D01*
X023180Y016968D02*
X010662Y016968D01*
X010475Y016968D02*
X010341Y016968D01*
X010364Y016869D02*
X010475Y016869D01*
X010475Y017066D02*
X010301Y017066D01*
X010364Y017165D02*
X010475Y017165D01*
X010475Y017263D02*
X010364Y017263D01*
X010662Y017756D02*
X023073Y017756D01*
X023114Y017854D02*
X010662Y017854D01*
X010662Y017953D02*
X023205Y017953D01*
X023303Y018051D02*
X010662Y018051D01*
X010662Y018150D02*
X023507Y018150D01*
X023987Y018150D02*
X025187Y018150D01*
X025172Y018248D02*
X010662Y018248D01*
X010662Y018347D02*
X025172Y018347D01*
X025172Y018445D02*
X010662Y018445D01*
X010475Y018445D02*
X002637Y018445D01*
X002637Y018347D02*
X010475Y018347D01*
X009711Y017165D02*
X004746Y017165D01*
X004706Y017066D02*
X009774Y017066D01*
X009734Y016968D02*
X004629Y016968D01*
X004531Y016869D02*
X009711Y016869D01*
X009711Y016771D02*
X004363Y016771D01*
X004739Y015983D02*
X004836Y015983D01*
X004836Y015987D02*
X004836Y015689D01*
X005154Y015689D01*
X005154Y015857D01*
X005144Y015895D01*
X005124Y015929D01*
X005096Y015957D01*
X005062Y015977D01*
X005024Y015987D01*
X004836Y015987D01*
X004836Y015884D02*
X004739Y015884D01*
X004739Y015786D02*
X004836Y015786D01*
X005039Y015983D02*
X005674Y015983D01*
X005669Y015884D02*
X005147Y015884D01*
X005154Y015786D02*
X005669Y015786D01*
X004836Y015490D02*
X004739Y015490D01*
X004739Y015392D02*
X004836Y015392D01*
X004836Y015293D02*
X004739Y015293D01*
X004658Y014600D02*
X004287Y014600D01*
X004658Y014600D02*
X004662Y014595D01*
X004969Y014274D02*
X004905Y014210D01*
X004791Y014111D02*
X004591Y014111D01*
X004635Y014013D02*
X004730Y014013D01*
X004730Y013914D02*
X004635Y013914D01*
X004635Y013816D02*
X004730Y013816D01*
X005036Y013729D02*
X005036Y013725D01*
X005037Y013662D01*
X005343Y013619D02*
X007480Y013619D01*
X007578Y013520D02*
X005343Y013520D01*
X005343Y013717D02*
X005705Y013717D01*
X005669Y013816D02*
X005343Y013816D01*
X005343Y013914D02*
X005669Y013914D01*
X005669Y014013D02*
X005343Y014013D01*
X005282Y014111D02*
X005669Y014111D01*
X002981Y014702D02*
X002215Y014702D01*
X002283Y014912D02*
X002100Y014912D01*
X002283Y014913D02*
X002280Y014936D01*
X002281Y014959D01*
X002285Y014982D01*
X002292Y015005D01*
X002302Y015026D01*
X002315Y015045D01*
X002331Y015063D01*
X002349Y015077D01*
X002369Y015090D01*
X002390Y015099D01*
X002413Y015105D01*
X002719Y014899D02*
X002981Y014899D01*
X002981Y014801D02*
X002719Y014801D01*
X002087Y015589D02*
X001990Y015589D01*
X001990Y015545D02*
X001990Y015922D01*
X001692Y015922D01*
X001692Y015675D01*
X001702Y015637D01*
X001722Y015603D01*
X001749Y015575D01*
X001784Y015555D01*
X001822Y015545D01*
X001990Y015545D01*
X001990Y015687D02*
X002087Y015687D01*
X002087Y015786D02*
X001990Y015786D01*
X001990Y015884D02*
X002087Y015884D01*
X002087Y016180D02*
X001990Y016180D01*
X001990Y016278D02*
X002087Y016278D01*
X002087Y016377D02*
X001990Y016377D01*
X001692Y015884D02*
X001062Y015884D01*
X001062Y015786D02*
X001692Y015786D01*
X001692Y015687D02*
X001062Y015687D01*
X001062Y015589D02*
X001735Y015589D01*
X001964Y013914D02*
X001062Y013914D01*
X001062Y013816D02*
X001932Y013816D01*
X001932Y013717D02*
X001062Y013717D01*
X001062Y013619D02*
X002006Y013619D01*
X002787Y012265D02*
X002960Y012265D01*
X002956Y012043D02*
X002890Y012043D01*
X003054Y011944D02*
X002286Y011944D01*
X002344Y012043D02*
X002684Y012043D01*
X001865Y009679D02*
X001822Y009679D01*
X001822Y009580D02*
X001865Y009580D01*
X001865Y009482D02*
X001822Y009482D01*
X003954Y009285D02*
X005631Y009285D01*
X005586Y009186D02*
X004052Y009186D01*
X004151Y009088D02*
X005586Y009088D01*
X005586Y008989D02*
X004249Y008989D01*
X004348Y008891D02*
X005586Y008891D01*
X005066Y008792D02*
X004446Y008792D01*
X005037Y008201D02*
X005586Y008201D01*
X005586Y008103D02*
X005136Y008103D01*
X005234Y008004D02*
X005752Y008004D01*
X005742Y007906D02*
X005333Y007906D01*
X005431Y007807D02*
X005644Y007807D01*
X005545Y007709D02*
X005530Y007709D01*
X004537Y007247D02*
X004497Y007287D01*
X003703Y007412D02*
X002475Y007412D01*
X001822Y006921D02*
X003740Y006921D01*
X003807Y006822D02*
X001822Y006822D01*
X001822Y006724D02*
X003838Y006724D01*
X003937Y006625D02*
X001822Y006625D01*
X003842Y005345D02*
X003939Y005345D01*
X003939Y005246D02*
X003842Y005246D01*
X003842Y005148D02*
X003939Y005148D01*
X004208Y005345D02*
X004377Y005345D01*
X006161Y003786D02*
X006729Y003786D01*
X007115Y003769D02*
X007892Y003769D01*
X007965Y003670D02*
X007991Y003670D01*
X007981Y003572D02*
X008089Y003572D01*
X008188Y003473D02*
X007981Y003473D01*
X007981Y003375D02*
X008286Y003375D01*
X008385Y003276D02*
X007981Y003276D01*
X007981Y003178D02*
X008941Y003178D01*
X008941Y003079D02*
X007760Y003079D01*
X007760Y002981D02*
X008941Y002981D01*
X008941Y002882D02*
X007760Y002882D01*
X007760Y002784D02*
X008941Y002784D01*
X008941Y002685D02*
X007760Y002685D01*
X007760Y002587D02*
X008941Y002587D01*
X008941Y002488D02*
X007760Y002488D01*
X007760Y002390D02*
X008941Y002390D01*
X008941Y002291D02*
X007760Y002291D01*
X007760Y002193D02*
X008811Y002193D01*
X008794Y002094D02*
X007760Y002094D01*
X007760Y001996D02*
X008794Y001996D01*
X008794Y001897D02*
X007760Y001897D01*
X007713Y001799D02*
X008794Y001799D01*
X008794Y001700D02*
X007614Y001700D01*
X007516Y001602D02*
X008794Y001602D01*
X009772Y002390D02*
X009875Y002390D01*
X009857Y002488D02*
X009782Y002488D01*
X009475Y002720D02*
X010155Y002720D01*
X010163Y002729D01*
X010167Y002729D01*
X010225Y002787D01*
X009885Y003079D02*
X009744Y003079D01*
X009782Y002981D02*
X009857Y002981D01*
X009857Y002882D02*
X009782Y002882D01*
X009546Y003375D02*
X009289Y003375D01*
X009101Y003413D02*
X009287Y003600D01*
X009132Y003670D02*
X008443Y003670D01*
X007794Y003867D02*
X007115Y003867D01*
X007115Y003966D02*
X007695Y003966D01*
X007597Y004064D02*
X007079Y004064D01*
X007115Y003670D02*
X007225Y003670D01*
X007210Y003572D02*
X007115Y003572D01*
X006729Y003038D02*
X006725Y003038D01*
X006725Y003037D01*
X006729Y003038D02*
X006720Y003030D01*
X006720Y002349D01*
X006389Y001897D02*
X006240Y001897D01*
X006240Y001799D02*
X006335Y001799D01*
X006335Y001700D02*
X006208Y001700D01*
X006335Y001602D02*
X004618Y001602D01*
X004690Y001674D02*
X004803Y001946D01*
X004803Y002241D01*
X004690Y002513D01*
X004481Y002721D01*
X004209Y002834D01*
X003915Y002834D01*
X003643Y002721D01*
X003434Y002513D01*
X003321Y002241D01*
X003321Y001946D01*
X003434Y001674D01*
X003643Y001466D01*
X003915Y001353D01*
X004209Y001353D01*
X004481Y001466D01*
X004690Y001674D01*
X004701Y001700D02*
X005501Y001700D01*
X005469Y001799D02*
X004742Y001799D01*
X004782Y001897D02*
X005469Y001897D01*
X005469Y001996D02*
X004803Y001996D01*
X004803Y002094D02*
X005469Y002094D01*
X005469Y002193D02*
X004803Y002193D01*
X004782Y002291D02*
X005694Y002291D01*
X005694Y002390D02*
X004741Y002390D01*
X004700Y002488D02*
X005694Y002488D01*
X005694Y002587D02*
X004616Y002587D01*
X004517Y002685D02*
X005694Y002685D01*
X005694Y002784D02*
X004330Y002784D01*
X003794Y002784D02*
X001327Y002784D01*
X001578Y002717D02*
X001578Y002717D01*
X001632Y002685D02*
X003607Y002685D01*
X003508Y002587D02*
X001803Y002587D01*
X001971Y002489D02*
X001971Y002489D01*
X001971Y002489D01*
X001972Y002488D02*
X003424Y002488D01*
X003383Y002390D02*
X002071Y002390D01*
X002169Y002291D02*
X003342Y002291D01*
X003321Y002193D02*
X002268Y002193D01*
X002335Y002094D02*
X003321Y002094D01*
X003321Y001996D02*
X002392Y001996D01*
X002449Y001897D02*
X003342Y001897D01*
X003382Y001799D02*
X002506Y001799D01*
X002540Y001700D02*
X003423Y001700D01*
X003506Y001602D02*
X002566Y001602D01*
X002592Y001503D02*
X003605Y001503D01*
X003789Y001405D02*
X002619Y001405D01*
X002637Y001306D02*
X006387Y001306D01*
X006335Y001405D02*
X004335Y001405D01*
X004519Y001503D02*
X006335Y001503D01*
X006720Y001601D02*
X007288Y001601D01*
X007260Y001799D02*
X007106Y001799D01*
X007052Y001897D02*
X007359Y001897D01*
X005854Y001975D02*
X005854Y003479D01*
X005819Y003670D02*
X005551Y003670D01*
X005551Y003276D02*
X005694Y003276D01*
X005694Y003178D02*
X005519Y003178D01*
X005694Y003079D02*
X001062Y003079D01*
X001062Y002981D02*
X005694Y002981D01*
X005694Y002882D02*
X001062Y002882D01*
X007782Y006625D02*
X008837Y006625D01*
X008471Y007223D02*
X008706Y007458D01*
X008706Y008893D01*
X009457Y008398D02*
X010475Y008398D01*
X010475Y008300D02*
X009457Y008300D01*
X009967Y007709D02*
X010184Y007709D01*
X010169Y007610D02*
X010066Y007610D01*
X010164Y007512D02*
X010169Y007512D01*
X010824Y008595D02*
X010920Y008595D01*
X010920Y008694D02*
X010824Y008694D01*
X010824Y008792D02*
X010920Y008792D01*
X009876Y009088D02*
X009653Y009088D01*
X012411Y008989D02*
X013065Y008989D01*
X013145Y008891D02*
X012455Y008891D01*
X012455Y008792D02*
X013244Y008792D01*
X013342Y008694D02*
X012420Y008694D01*
X013028Y008595D02*
X013441Y008595D01*
X013539Y008497D02*
X013078Y008497D01*
X013598Y008891D02*
X015002Y008891D01*
X015002Y008989D02*
X014565Y008989D01*
X014642Y009088D02*
X015002Y009088D01*
X015002Y009186D02*
X014642Y009186D01*
X014615Y009285D02*
X015002Y009285D01*
X015002Y009383D02*
X014517Y009383D01*
X014308Y009383D02*
X013793Y009383D01*
X013694Y009482D02*
X015002Y009482D01*
X015002Y009580D02*
X013596Y009580D01*
X013572Y009679D02*
X015002Y009679D01*
X015002Y009777D02*
X014728Y009777D01*
X014767Y009876D02*
X015002Y009876D01*
X015002Y009974D02*
X014767Y009974D01*
X014702Y010073D02*
X015002Y010073D01*
X015002Y010171D02*
X014697Y010171D01*
X014697Y010270D02*
X015002Y010270D01*
X015002Y010368D02*
X014697Y010368D01*
X014697Y010467D02*
X015002Y010467D01*
X015002Y010565D02*
X014742Y010565D01*
X014769Y010664D02*
X014997Y010664D01*
X014899Y010762D02*
X014769Y010762D01*
X015100Y011350D02*
X015100Y011390D01*
X014997Y011475D01*
X014482Y011475D01*
X016142Y011649D02*
X016877Y011649D01*
X016338Y009679D02*
X016176Y009679D01*
X015850Y009453D02*
X015765Y009475D01*
X015412Y009475D01*
X015850Y009453D02*
X016600Y009453D01*
X016640Y009412D01*
X016662Y009390D01*
X015352Y008497D02*
X014900Y008497D01*
X014900Y008398D02*
X015450Y008398D01*
X015410Y008165D02*
X014553Y008165D01*
X014246Y008004D02*
X013734Y008004D01*
X013833Y007906D02*
X014246Y007906D01*
X014246Y007807D02*
X013931Y007807D01*
X014030Y007709D02*
X014246Y007709D01*
X014246Y007610D02*
X014128Y007610D01*
X014227Y007512D02*
X014263Y007512D01*
X014559Y006921D02*
X013266Y006921D01*
X013329Y006822D02*
X014496Y006822D01*
X014496Y006724D02*
X013329Y006724D01*
X013472Y006478D02*
X013600Y006350D01*
X015110Y006724D02*
X015148Y006724D01*
X015778Y006231D02*
X016031Y006231D01*
X015995Y006133D02*
X015739Y006133D01*
X015801Y006034D02*
X015933Y006034D01*
X015953Y005828D02*
X016225Y006100D01*
X015953Y005828D02*
X015475Y005828D01*
X017015Y006822D02*
X019744Y006822D01*
X020671Y006389D02*
X020927Y006389D01*
X021183Y006389D01*
X019744Y007709D02*
X018748Y007709D01*
X018846Y007807D02*
X019744Y007807D01*
X019744Y007906D02*
X018945Y007906D01*
X019392Y008162D02*
X019912Y008162D01*
X020106Y008004D02*
X020245Y008004D01*
X020245Y008103D02*
X020204Y008103D01*
X020415Y008097D02*
X020475Y008037D01*
X020415Y008097D02*
X020415Y008686D01*
X020281Y007906D02*
X020064Y007906D01*
X019120Y009482D02*
X019021Y009482D01*
X019119Y009580D02*
X019120Y009580D01*
X015412Y008162D02*
X015410Y008165D01*
X015253Y008595D02*
X014866Y008595D01*
X015056Y008792D02*
X013696Y008792D01*
X013795Y008694D02*
X015155Y008694D01*
X014553Y008595D02*
X014553Y008595D01*
X014553Y008497D02*
X014553Y008497D01*
X014240Y008595D02*
X013893Y008595D01*
X013992Y008497D02*
X014206Y008497D01*
X014206Y008398D02*
X014090Y008398D01*
X014260Y008989D02*
X013499Y008989D01*
X013401Y009088D02*
X013636Y009088D01*
X013537Y009186D02*
X013385Y009186D01*
X013385Y009285D02*
X013439Y009285D01*
X013412Y009537D02*
X013787Y009162D01*
X014412Y009162D01*
X011711Y006231D02*
X010889Y006231D01*
X011228Y006133D02*
X011711Y006133D01*
X007939Y006724D02*
X007773Y006724D01*
X007797Y006822D02*
X007911Y006822D01*
X007911Y006921D02*
X007822Y006921D01*
X007822Y007019D02*
X007911Y007019D01*
X010037Y014185D02*
X010037Y014662D01*
X024048Y016771D02*
X026432Y016771D01*
X026231Y016825D02*
X026231Y016825D01*
X026154Y016869D02*
X024216Y016869D01*
X024314Y016968D02*
X025983Y016968D01*
X025838Y017052D02*
X025838Y017052D01*
X025823Y017066D02*
X024391Y017066D01*
X024431Y017165D02*
X025725Y017165D01*
X025626Y017263D02*
X024472Y017263D01*
X024488Y017362D02*
X025528Y017362D01*
X025516Y017373D02*
X025516Y017373D01*
X025466Y017460D02*
X024488Y017460D01*
X024488Y017559D02*
X025409Y017559D01*
X025352Y017657D02*
X024462Y017657D01*
X024421Y017756D02*
X025295Y017756D01*
X025289Y017766D02*
X025289Y017766D01*
X025266Y017854D02*
X024380Y017854D01*
X024289Y017953D02*
X025239Y017953D01*
X025213Y018051D02*
X024191Y018051D01*
D27*
X021412Y017537D03*
X019287Y017537D03*
X017287Y017537D03*
X017037Y016412D03*
X016037Y015725D03*
X016225Y014600D03*
X015287Y014162D03*
X014225Y014162D03*
X013662Y014850D03*
X013100Y014850D03*
X013225Y013412D03*
X012287Y012912D03*
X013662Y012537D03*
X014225Y012600D03*
X015100Y011350D03*
X016662Y011225D03*
X017475Y011225D03*
X017725Y010725D03*
X017787Y010225D03*
X016975Y009975D03*
X015412Y009475D03*
X014537Y009912D03*
X014412Y009162D03*
X013912Y008787D03*
X012912Y009162D03*
X012225Y008850D03*
X012912Y009850D03*
X012787Y010412D03*
X011600Y010975D03*
X012850Y011350D03*
X010037Y012975D03*
X008912Y012100D03*
X009287Y011350D03*
X007662Y010600D03*
X008287Y010100D03*
X009037Y009600D03*
X010162Y008287D03*
X010725Y007100D03*
X012600Y006475D03*
X013600Y006350D03*
X013600Y005725D03*
X012600Y005662D03*
X012412Y005037D03*
X010850Y004725D03*
X010225Y002787D03*
X011787Y002725D03*
X012100Y002287D03*
X011537Y001412D03*
X013225Y002287D03*
X013475Y001412D03*
X017225Y003787D03*
X018412Y004725D03*
X019100Y005475D03*
X019912Y005287D03*
X022037Y006225D03*
X023662Y006162D03*
X025475Y006162D03*
X025600Y004100D03*
X023600Y004100D03*
X022037Y004100D03*
X022037Y001975D03*
X016225Y006100D03*
X016787Y006725D03*
X015475Y007662D03*
X015412Y008162D03*
X013662Y007162D03*
X018287Y008100D03*
X018787Y009287D03*
X019350Y009537D03*
X020475Y008037D03*
X022537Y010287D03*
X023100Y012537D03*
X020787Y013100D03*
X019100Y012725D03*
X018725Y011725D03*
X017037Y012600D03*
X019350Y015662D03*
X023100Y016100D03*
X025600Y016100D03*
X025600Y014287D03*
X023100Y014350D03*
X025600Y012537D03*
X015350Y017537D03*
X011037Y016662D03*
X008975Y017537D03*
X007747Y015686D03*
X005350Y016350D03*
X004162Y016412D03*
X003287Y016037D03*
X005037Y015100D03*
X004287Y014600D03*
X005037Y013662D03*
X002787Y012265D03*
X003412Y010912D03*
X005537Y011225D03*
X006475Y010037D03*
X005037Y008537D03*
X004162Y007787D03*
X004037Y006850D03*
X005225Y006787D03*
X005225Y007225D03*
X005537Y007475D03*
X006350Y007600D03*
X006725Y006850D03*
X006350Y006475D03*
X006725Y006100D03*
X006350Y005725D03*
X005975Y006100D03*
X007225Y005662D03*
X006662Y005225D03*
X005662Y004537D03*
X004537Y005600D03*
X002850Y005162D03*
X002850Y004100D03*
X004037Y003287D03*
X005100Y002662D03*
X005100Y001600D03*
X006725Y003037D03*
X007725Y003412D03*
X008100Y001475D03*
X001975Y006600D03*
X001350Y006600D03*
X007287Y007850D03*
X007662Y008162D03*
X008225Y008162D03*
X008475Y013600D03*
X010037Y014662D03*
X002162Y013787D03*
X001350Y013600D03*
X001412Y014850D03*
X002100Y014912D03*
X001412Y016037D03*
M02*
