G75*
%MOIN*%
%OFA0B0*%
%FSLAX24Y24*%
%IPPOS*%
%LPD*%
%AMOC8*
5,1,8,0,0,1.08239X$1,22.5*
%
%ADD10R,0.0433X0.0394*%
%ADD11R,0.0551X0.0630*%
%ADD12R,0.0630X0.0551*%
%ADD13R,0.0394X0.0433*%
%ADD14R,0.0787X0.0591*%
%ADD15R,0.0787X0.1496*%
%ADD16R,0.0866X0.0236*%
%ADD17R,0.0880X0.0480*%
%ADD18R,0.0866X0.1417*%
%ADD19R,0.1063X0.0394*%
%ADD20R,0.0512X0.0591*%
%ADD21R,0.0591X0.0512*%
%ADD22R,0.0630X0.0591*%
%ADD23R,0.0460X0.0630*%
%ADD24R,0.0591X0.0197*%
%ADD25R,0.0197X0.0591*%
%ADD26C,0.0750*%
%ADD27C,0.1050*%
%ADD28C,0.0000*%
%ADD29R,0.0748X0.0748*%
%ADD30R,0.0551X0.0157*%
%ADD31R,0.0315X0.0315*%
%ADD32R,0.0630X0.0512*%
%ADD33R,0.0630X0.0787*%
%ADD34R,0.0512X0.0630*%
%ADD35R,0.0787X0.0630*%
%ADD36C,0.0100*%
%ADD37OC8,0.0240*%
D10*
X001828Y003287D03*
X002497Y003287D03*
X002515Y006412D03*
X003185Y006412D03*
G36*
X007412Y009821D02*
X007107Y010126D01*
X007386Y010405D01*
X007691Y010100D01*
X007412Y009821D01*
G37*
G36*
X006939Y010295D02*
X006634Y010600D01*
X006913Y010879D01*
X007218Y010574D01*
X006939Y010295D01*
G37*
G36*
X008759Y009600D02*
X009064Y009905D01*
X009343Y009626D01*
X009038Y009321D01*
X008759Y009600D01*
G37*
G36*
X009232Y010074D02*
X009537Y010379D01*
X009816Y010100D01*
X009511Y009795D01*
X009232Y010074D01*
G37*
X005685Y012287D03*
X005015Y012287D03*
X005140Y014350D03*
X005810Y014350D03*
X007078Y015100D03*
X007747Y015100D03*
X006997Y017912D03*
X006328Y017912D03*
X017890Y012287D03*
X018560Y012287D03*
X019350Y010247D03*
X019350Y009578D03*
X019515Y008600D03*
X020185Y008600D03*
X019100Y005435D03*
X019100Y004765D03*
X021578Y015100D03*
X022247Y015100D03*
D11*
X004037Y013690D03*
X004037Y012509D03*
X002100Y013759D03*
X002100Y014940D03*
D12*
X002947Y014787D03*
X004128Y014787D03*
X003440Y015975D03*
X002259Y015975D03*
G36*
X003913Y008364D02*
X004358Y008809D01*
X004747Y008420D01*
X004302Y007975D01*
X003913Y008364D01*
G37*
G36*
X003912Y007585D02*
X003467Y007140D01*
X003078Y007529D01*
X003523Y007974D01*
X003912Y007585D01*
G37*
D13*
X004015Y009287D03*
X004685Y009287D03*
X004685Y009912D03*
X004015Y009912D03*
X004060Y010537D03*
X003390Y010537D03*
X007350Y013328D03*
X007350Y013997D03*
X007850Y016515D03*
X007850Y017185D03*
X011515Y012225D03*
X012185Y012225D03*
X011560Y010975D03*
X010890Y010975D03*
X011515Y010225D03*
X012185Y010225D03*
X012185Y009537D03*
X011515Y009537D03*
X011287Y007060D03*
X011287Y006390D03*
G36*
X010982Y005225D02*
X011261Y005504D01*
X011566Y005199D01*
X011287Y004920D01*
X010982Y005225D01*
G37*
G36*
X010509Y004751D02*
X010788Y005030D01*
X011093Y004725D01*
X010814Y004446D01*
X010509Y004751D01*
G37*
X008725Y003435D03*
X008725Y002765D03*
X015912Y008828D03*
X015912Y009497D03*
X020390Y011850D03*
X021060Y011850D03*
X019747Y013225D03*
X019078Y013225D03*
X017412Y013453D03*
X017412Y014122D03*
X020828Y008537D03*
X021497Y008537D03*
X022078Y008537D03*
X022747Y008537D03*
X019912Y004747D03*
X019912Y004078D03*
X019122Y004100D03*
X019122Y003475D03*
X018453Y003475D03*
X018453Y004100D03*
X018453Y002787D03*
X019122Y002787D03*
D14*
X008797Y015757D03*
X008797Y016662D03*
X008797Y017568D03*
D15*
X011278Y016662D03*
D16*
X018326Y015600D03*
X018326Y015100D03*
X018326Y014600D03*
X018326Y014100D03*
X020374Y014100D03*
X020374Y014600D03*
X020374Y015100D03*
X020374Y015600D03*
X017936Y011725D03*
X017936Y011225D03*
X017936Y010725D03*
X017936Y010225D03*
X015889Y010225D03*
X015889Y010725D03*
X015889Y011225D03*
X015889Y011725D03*
X020264Y010787D03*
X020264Y010287D03*
X020264Y009787D03*
X020264Y009287D03*
X022311Y009287D03*
X022311Y009787D03*
X022311Y010287D03*
X022311Y010787D03*
D17*
X010945Y012940D03*
X010945Y013850D03*
X010945Y014760D03*
D18*
X008505Y013850D03*
D19*
X002850Y013095D03*
X002850Y012229D03*
D20*
X007038Y015725D03*
X007786Y015725D03*
X006224Y017225D03*
X005476Y017225D03*
D21*
X007037Y017224D03*
X007037Y016476D03*
X006600Y014411D03*
X006600Y013663D03*
X005787Y013661D03*
X005787Y012913D03*
X004975Y012913D03*
X004975Y013661D03*
D22*
X003854Y005535D03*
X001846Y005535D03*
X001846Y004039D03*
X003854Y004039D03*
D23*
G36*
X010648Y005265D02*
X010323Y004940D01*
X009878Y005385D01*
X010203Y005710D01*
X010648Y005265D01*
G37*
G36*
X011072Y005690D02*
X010747Y005365D01*
X010302Y005810D01*
X010627Y006135D01*
X011072Y005690D01*
G37*
D24*
G36*
X010217Y006134D02*
X009801Y006550D01*
X009939Y006688D01*
X010355Y006272D01*
X010217Y006134D01*
G37*
G36*
X009994Y005912D02*
X009578Y006328D01*
X009716Y006466D01*
X010132Y006050D01*
X009994Y005912D01*
G37*
G36*
X009772Y005689D02*
X009356Y006105D01*
X009494Y006243D01*
X009910Y005827D01*
X009772Y005689D01*
G37*
G36*
X009549Y005466D02*
X009133Y005882D01*
X009271Y006020D01*
X009687Y005604D01*
X009549Y005466D01*
G37*
G36*
X009326Y005243D02*
X008910Y005659D01*
X009048Y005797D01*
X009464Y005381D01*
X009326Y005243D01*
G37*
G36*
X009104Y005021D02*
X008688Y005437D01*
X008826Y005575D01*
X009242Y005159D01*
X009104Y005021D01*
G37*
G36*
X008881Y004798D02*
X008465Y005214D01*
X008603Y005352D01*
X009019Y004936D01*
X008881Y004798D01*
G37*
G36*
X008658Y004575D02*
X008242Y004991D01*
X008380Y005129D01*
X008796Y004713D01*
X008658Y004575D01*
G37*
G36*
X008435Y004353D02*
X008019Y004769D01*
X008157Y004907D01*
X008573Y004491D01*
X008435Y004353D01*
G37*
G36*
X008213Y004130D02*
X007797Y004546D01*
X007935Y004684D01*
X008351Y004268D01*
X008213Y004130D01*
G37*
G36*
X007990Y003907D02*
X007574Y004323D01*
X007712Y004461D01*
X008128Y004045D01*
X007990Y003907D01*
G37*
G36*
X004761Y007137D02*
X004345Y007553D01*
X004483Y007691D01*
X004899Y007275D01*
X004761Y007137D01*
G37*
G36*
X004983Y007359D02*
X004567Y007775D01*
X004705Y007913D01*
X005121Y007497D01*
X004983Y007359D01*
G37*
G36*
X005206Y007582D02*
X004790Y007998D01*
X004928Y008136D01*
X005344Y007720D01*
X005206Y007582D01*
G37*
G36*
X005429Y007805D02*
X005013Y008221D01*
X005151Y008359D01*
X005567Y007943D01*
X005429Y007805D01*
G37*
G36*
X005652Y008027D02*
X005236Y008443D01*
X005374Y008581D01*
X005790Y008165D01*
X005652Y008027D01*
G37*
G36*
X005874Y008250D02*
X005458Y008666D01*
X005596Y008804D01*
X006012Y008388D01*
X005874Y008250D01*
G37*
G36*
X006097Y008473D02*
X005681Y008889D01*
X005819Y009027D01*
X006235Y008611D01*
X006097Y008473D01*
G37*
G36*
X006320Y008695D02*
X005904Y009111D01*
X006042Y009249D01*
X006458Y008833D01*
X006320Y008695D01*
G37*
G36*
X006542Y008918D02*
X006126Y009334D01*
X006264Y009472D01*
X006680Y009056D01*
X006542Y008918D01*
G37*
G36*
X006765Y009141D02*
X006349Y009557D01*
X006487Y009695D01*
X006903Y009279D01*
X006765Y009141D01*
G37*
G36*
X006988Y009364D02*
X006572Y009780D01*
X006710Y009918D01*
X007126Y009502D01*
X006988Y009364D01*
G37*
D25*
G36*
X007712Y009364D02*
X007574Y009502D01*
X007990Y009918D01*
X008128Y009780D01*
X007712Y009364D01*
G37*
G36*
X007935Y009141D02*
X007797Y009279D01*
X008213Y009695D01*
X008351Y009557D01*
X007935Y009141D01*
G37*
G36*
X008157Y008918D02*
X008019Y009056D01*
X008435Y009472D01*
X008573Y009334D01*
X008157Y008918D01*
G37*
G36*
X008380Y008695D02*
X008242Y008833D01*
X008658Y009249D01*
X008796Y009111D01*
X008380Y008695D01*
G37*
G36*
X008603Y008473D02*
X008465Y008611D01*
X008881Y009027D01*
X009019Y008889D01*
X008603Y008473D01*
G37*
G36*
X008826Y008250D02*
X008688Y008388D01*
X009104Y008804D01*
X009242Y008666D01*
X008826Y008250D01*
G37*
G36*
X009048Y008027D02*
X008910Y008165D01*
X009326Y008581D01*
X009464Y008443D01*
X009048Y008027D01*
G37*
G36*
X009271Y007805D02*
X009133Y007943D01*
X009549Y008359D01*
X009687Y008221D01*
X009271Y007805D01*
G37*
G36*
X009494Y007582D02*
X009356Y007720D01*
X009772Y008136D01*
X009910Y007998D01*
X009494Y007582D01*
G37*
G36*
X009716Y007359D02*
X009578Y007497D01*
X009994Y007913D01*
X010132Y007775D01*
X009716Y007359D01*
G37*
G36*
X009939Y007137D02*
X009801Y007275D01*
X010217Y007691D01*
X010355Y007553D01*
X009939Y007137D01*
G37*
G36*
X006264Y004353D02*
X006126Y004491D01*
X006542Y004907D01*
X006680Y004769D01*
X006264Y004353D01*
G37*
G36*
X006487Y004130D02*
X006349Y004268D01*
X006765Y004684D01*
X006903Y004546D01*
X006487Y004130D01*
G37*
G36*
X006710Y003907D02*
X006572Y004045D01*
X006988Y004461D01*
X007126Y004323D01*
X006710Y003907D01*
G37*
G36*
X006042Y004575D02*
X005904Y004713D01*
X006320Y005129D01*
X006458Y004991D01*
X006042Y004575D01*
G37*
G36*
X005819Y004798D02*
X005681Y004936D01*
X006097Y005352D01*
X006235Y005214D01*
X005819Y004798D01*
G37*
G36*
X005596Y005021D02*
X005458Y005159D01*
X005874Y005575D01*
X006012Y005437D01*
X005596Y005021D01*
G37*
G36*
X005374Y005243D02*
X005236Y005381D01*
X005652Y005797D01*
X005790Y005659D01*
X005374Y005243D01*
G37*
G36*
X005151Y005466D02*
X005013Y005604D01*
X005429Y006020D01*
X005567Y005882D01*
X005151Y005466D01*
G37*
G36*
X004928Y005689D02*
X004790Y005827D01*
X005206Y006243D01*
X005344Y006105D01*
X004928Y005689D01*
G37*
G36*
X004705Y005912D02*
X004567Y006050D01*
X004983Y006466D01*
X005121Y006328D01*
X004705Y005912D01*
G37*
G36*
X004483Y006134D02*
X004345Y006272D01*
X004761Y006688D01*
X004899Y006550D01*
X004483Y006134D01*
G37*
D26*
X025164Y009838D03*
D27*
X024160Y010841D03*
X026168Y010841D03*
X026168Y008834D03*
X024160Y008834D03*
D28*
X002487Y001109D02*
X002485Y001186D01*
X002479Y001263D01*
X002470Y001340D01*
X002457Y001416D01*
X002440Y001492D01*
X002419Y001566D01*
X002395Y001640D01*
X002367Y001712D01*
X002336Y001782D01*
X002301Y001851D01*
X002263Y001919D01*
X002222Y001984D01*
X002177Y002047D01*
X002129Y002108D01*
X002079Y002167D01*
X002026Y002223D01*
X001970Y002276D01*
X001911Y002326D01*
X001850Y002374D01*
X001787Y002419D01*
X001722Y002460D01*
X001654Y002498D01*
X001585Y002533D01*
X001515Y002564D01*
X001443Y002592D01*
X001369Y002616D01*
X001295Y002637D01*
X001219Y002654D01*
X001143Y002667D01*
X001066Y002676D01*
X000989Y002682D01*
X000912Y002684D01*
X000912Y016857D01*
X000989Y016859D01*
X001066Y016865D01*
X001143Y016874D01*
X001219Y016887D01*
X001295Y016904D01*
X001369Y016925D01*
X001443Y016949D01*
X001515Y016977D01*
X001585Y017008D01*
X001654Y017043D01*
X001722Y017081D01*
X001787Y017122D01*
X001850Y017167D01*
X001911Y017215D01*
X001970Y017265D01*
X002026Y017318D01*
X002079Y017374D01*
X002129Y017433D01*
X002177Y017494D01*
X002222Y017557D01*
X002263Y017622D01*
X002301Y017690D01*
X002336Y017759D01*
X002367Y017829D01*
X002395Y017901D01*
X002419Y017975D01*
X002440Y018049D01*
X002457Y018125D01*
X002470Y018201D01*
X002479Y018278D01*
X002485Y018355D01*
X002487Y018432D01*
X002487Y018629D01*
X025322Y018629D01*
X025322Y018432D01*
X023156Y017448D02*
X023158Y017496D01*
X023164Y017544D01*
X023174Y017591D01*
X023187Y017637D01*
X023205Y017682D01*
X023225Y017726D01*
X023250Y017768D01*
X023278Y017807D01*
X023308Y017844D01*
X023342Y017878D01*
X023379Y017910D01*
X023417Y017939D01*
X023458Y017964D01*
X023501Y017986D01*
X023546Y018004D01*
X023592Y018018D01*
X023639Y018029D01*
X023687Y018036D01*
X023735Y018039D01*
X023783Y018038D01*
X023831Y018033D01*
X023879Y018024D01*
X023925Y018012D01*
X023970Y017995D01*
X024014Y017975D01*
X024056Y017952D01*
X024096Y017925D01*
X024134Y017895D01*
X024169Y017862D01*
X024201Y017826D01*
X024231Y017788D01*
X024257Y017747D01*
X024279Y017704D01*
X024299Y017660D01*
X024314Y017615D01*
X024326Y017568D01*
X024334Y017520D01*
X024338Y017472D01*
X024338Y017424D01*
X024334Y017376D01*
X024326Y017328D01*
X024314Y017281D01*
X024299Y017236D01*
X024279Y017192D01*
X024257Y017149D01*
X024231Y017108D01*
X024201Y017070D01*
X024169Y017034D01*
X024134Y017001D01*
X024096Y016971D01*
X024056Y016944D01*
X024014Y016921D01*
X023970Y016901D01*
X023925Y016884D01*
X023879Y016872D01*
X023831Y016863D01*
X023783Y016858D01*
X023735Y016857D01*
X023687Y016860D01*
X023639Y016867D01*
X023592Y016878D01*
X023546Y016892D01*
X023501Y016910D01*
X023458Y016932D01*
X023417Y016957D01*
X023379Y016986D01*
X023342Y017018D01*
X023308Y017052D01*
X023278Y017089D01*
X023250Y017128D01*
X023225Y017170D01*
X023205Y017214D01*
X023187Y017259D01*
X023174Y017305D01*
X023164Y017352D01*
X023158Y017400D01*
X023156Y017448D01*
X026897Y016857D02*
X026897Y002684D01*
X026817Y002678D01*
X026738Y002667D01*
X026659Y002653D01*
X026582Y002635D01*
X026505Y002614D01*
X026429Y002589D01*
X026355Y002560D01*
X026282Y002528D01*
X026210Y002492D01*
X026141Y002453D01*
X026073Y002411D01*
X026008Y002365D01*
X025944Y002317D01*
X025883Y002265D01*
X025825Y002211D01*
X025769Y002154D01*
X025716Y002094D01*
X025666Y002032D01*
X025619Y001968D01*
X025575Y001901D01*
X025534Y001833D01*
X025497Y001762D01*
X025463Y001690D01*
X025432Y001617D01*
X025405Y001541D01*
X025382Y001465D01*
X025362Y001388D01*
X025346Y001310D01*
X025334Y001231D01*
X025325Y001152D01*
X025320Y001072D01*
X025319Y000992D01*
X025322Y000913D01*
X025322Y000912D02*
X002487Y000912D01*
X002487Y001109D01*
X003471Y002094D02*
X003473Y002142D01*
X003479Y002190D01*
X003489Y002237D01*
X003502Y002283D01*
X003520Y002328D01*
X003540Y002372D01*
X003565Y002414D01*
X003593Y002453D01*
X003623Y002490D01*
X003657Y002524D01*
X003694Y002556D01*
X003732Y002585D01*
X003773Y002610D01*
X003816Y002632D01*
X003861Y002650D01*
X003907Y002664D01*
X003954Y002675D01*
X004002Y002682D01*
X004050Y002685D01*
X004098Y002684D01*
X004146Y002679D01*
X004194Y002670D01*
X004240Y002658D01*
X004285Y002641D01*
X004329Y002621D01*
X004371Y002598D01*
X004411Y002571D01*
X004449Y002541D01*
X004484Y002508D01*
X004516Y002472D01*
X004546Y002434D01*
X004572Y002393D01*
X004594Y002350D01*
X004614Y002306D01*
X004629Y002261D01*
X004641Y002214D01*
X004649Y002166D01*
X004653Y002118D01*
X004653Y002070D01*
X004649Y002022D01*
X004641Y001974D01*
X004629Y001927D01*
X004614Y001882D01*
X004594Y001838D01*
X004572Y001795D01*
X004546Y001754D01*
X004516Y001716D01*
X004484Y001680D01*
X004449Y001647D01*
X004411Y001617D01*
X004371Y001590D01*
X004329Y001567D01*
X004285Y001547D01*
X004240Y001530D01*
X004194Y001518D01*
X004146Y001509D01*
X004098Y001504D01*
X004050Y001503D01*
X004002Y001506D01*
X003954Y001513D01*
X003907Y001524D01*
X003861Y001538D01*
X003816Y001556D01*
X003773Y001578D01*
X003732Y001603D01*
X003694Y001632D01*
X003657Y001664D01*
X003623Y001698D01*
X003593Y001735D01*
X003565Y001774D01*
X003540Y001816D01*
X003520Y001860D01*
X003502Y001905D01*
X003489Y001951D01*
X003479Y001998D01*
X003473Y002046D01*
X003471Y002094D01*
X023156Y002094D02*
X023158Y002142D01*
X023164Y002190D01*
X023174Y002237D01*
X023187Y002283D01*
X023205Y002328D01*
X023225Y002372D01*
X023250Y002414D01*
X023278Y002453D01*
X023308Y002490D01*
X023342Y002524D01*
X023379Y002556D01*
X023417Y002585D01*
X023458Y002610D01*
X023501Y002632D01*
X023546Y002650D01*
X023592Y002664D01*
X023639Y002675D01*
X023687Y002682D01*
X023735Y002685D01*
X023783Y002684D01*
X023831Y002679D01*
X023879Y002670D01*
X023925Y002658D01*
X023970Y002641D01*
X024014Y002621D01*
X024056Y002598D01*
X024096Y002571D01*
X024134Y002541D01*
X024169Y002508D01*
X024201Y002472D01*
X024231Y002434D01*
X024257Y002393D01*
X024279Y002350D01*
X024299Y002306D01*
X024314Y002261D01*
X024326Y002214D01*
X024334Y002166D01*
X024338Y002118D01*
X024338Y002070D01*
X024334Y002022D01*
X024326Y001974D01*
X024314Y001927D01*
X024299Y001882D01*
X024279Y001838D01*
X024257Y001795D01*
X024231Y001754D01*
X024201Y001716D01*
X024169Y001680D01*
X024134Y001647D01*
X024096Y001617D01*
X024056Y001590D01*
X024014Y001567D01*
X023970Y001547D01*
X023925Y001530D01*
X023879Y001518D01*
X023831Y001509D01*
X023783Y001504D01*
X023735Y001503D01*
X023687Y001506D01*
X023639Y001513D01*
X023592Y001524D01*
X023546Y001538D01*
X023501Y001556D01*
X023458Y001578D01*
X023417Y001603D01*
X023379Y001632D01*
X023342Y001664D01*
X023308Y001698D01*
X023278Y001735D01*
X023250Y001774D01*
X023225Y001816D01*
X023205Y001860D01*
X023187Y001905D01*
X023174Y001951D01*
X023164Y001998D01*
X023158Y002046D01*
X023156Y002094D01*
X003471Y017448D02*
X003473Y017496D01*
X003479Y017544D01*
X003489Y017591D01*
X003502Y017637D01*
X003520Y017682D01*
X003540Y017726D01*
X003565Y017768D01*
X003593Y017807D01*
X003623Y017844D01*
X003657Y017878D01*
X003694Y017910D01*
X003732Y017939D01*
X003773Y017964D01*
X003816Y017986D01*
X003861Y018004D01*
X003907Y018018D01*
X003954Y018029D01*
X004002Y018036D01*
X004050Y018039D01*
X004098Y018038D01*
X004146Y018033D01*
X004194Y018024D01*
X004240Y018012D01*
X004285Y017995D01*
X004329Y017975D01*
X004371Y017952D01*
X004411Y017925D01*
X004449Y017895D01*
X004484Y017862D01*
X004516Y017826D01*
X004546Y017788D01*
X004572Y017747D01*
X004594Y017704D01*
X004614Y017660D01*
X004629Y017615D01*
X004641Y017568D01*
X004649Y017520D01*
X004653Y017472D01*
X004653Y017424D01*
X004649Y017376D01*
X004641Y017328D01*
X004629Y017281D01*
X004614Y017236D01*
X004594Y017192D01*
X004572Y017149D01*
X004546Y017108D01*
X004516Y017070D01*
X004484Y017034D01*
X004449Y017001D01*
X004411Y016971D01*
X004371Y016944D01*
X004329Y016921D01*
X004285Y016901D01*
X004240Y016884D01*
X004194Y016872D01*
X004146Y016863D01*
X004098Y016858D01*
X004050Y016857D01*
X004002Y016860D01*
X003954Y016867D01*
X003907Y016878D01*
X003861Y016892D01*
X003816Y016910D01*
X003773Y016932D01*
X003732Y016957D01*
X003694Y016986D01*
X003657Y017018D01*
X003623Y017052D01*
X003593Y017089D01*
X003565Y017128D01*
X003540Y017170D01*
X003520Y017214D01*
X003502Y017259D01*
X003489Y017305D01*
X003479Y017352D01*
X003473Y017400D01*
X003471Y017448D01*
X025322Y018432D02*
X025324Y018355D01*
X025330Y018278D01*
X025339Y018201D01*
X025352Y018125D01*
X025369Y018049D01*
X025390Y017975D01*
X025414Y017901D01*
X025442Y017829D01*
X025473Y017759D01*
X025508Y017690D01*
X025546Y017622D01*
X025587Y017557D01*
X025632Y017494D01*
X025680Y017433D01*
X025730Y017374D01*
X025783Y017318D01*
X025839Y017265D01*
X025898Y017215D01*
X025959Y017167D01*
X026022Y017122D01*
X026087Y017081D01*
X026155Y017043D01*
X026224Y017008D01*
X026294Y016977D01*
X026366Y016949D01*
X026440Y016925D01*
X026514Y016904D01*
X026590Y016887D01*
X026666Y016874D01*
X026743Y016865D01*
X026820Y016859D01*
X026897Y016857D01*
D29*
X001483Y011286D03*
X001483Y010243D03*
X001483Y009298D03*
X001483Y008176D03*
D30*
X002566Y009259D03*
X002566Y009515D03*
X002566Y009771D03*
X002566Y010027D03*
X002566Y010282D03*
D31*
X004680Y010537D03*
X005270Y010537D03*
D32*
X007858Y011545D03*
X007858Y012530D03*
X017358Y006780D03*
X017358Y005795D03*
D33*
X016217Y006287D03*
X006717Y012037D03*
D34*
X006092Y015217D03*
X005108Y015217D03*
X012420Y017921D03*
X013405Y017921D03*
X013092Y006171D03*
X012108Y006171D03*
D35*
X012600Y005029D03*
X005600Y016358D03*
X012912Y016779D03*
D36*
X012862Y016771D02*
X011781Y016771D01*
X011781Y016869D02*
X012369Y016869D01*
X012369Y016829D02*
X012862Y016829D01*
X012862Y016729D01*
X012369Y016729D01*
X012369Y016444D01*
X012379Y016406D01*
X012399Y016372D01*
X012427Y016344D01*
X012461Y016324D01*
X012499Y016314D01*
X012862Y016314D01*
X012862Y016729D01*
X012962Y016729D01*
X012962Y016314D01*
X013326Y016314D01*
X013364Y016324D01*
X013398Y016344D01*
X013426Y016372D01*
X013446Y016406D01*
X013456Y016444D01*
X013456Y016729D01*
X012962Y016729D01*
X012962Y016829D01*
X012862Y016829D01*
X012862Y017244D01*
X012499Y017244D01*
X012461Y017234D01*
X012427Y017214D01*
X012399Y017186D01*
X012379Y017152D01*
X012369Y017114D01*
X012369Y016829D01*
X012369Y016968D02*
X011781Y016968D01*
X011781Y017066D02*
X012369Y017066D01*
X012386Y017165D02*
X011781Y017165D01*
X011781Y017263D02*
X014162Y017263D01*
X014162Y017165D02*
X013438Y017165D01*
X013446Y017152D02*
X013426Y017186D01*
X013398Y017214D01*
X013364Y017234D01*
X013326Y017244D01*
X012962Y017244D01*
X012962Y016829D01*
X013456Y016829D01*
X013456Y017114D01*
X013446Y017152D01*
X013456Y017066D02*
X014162Y017066D01*
X014162Y016968D02*
X013456Y016968D01*
X013456Y016869D02*
X014162Y016869D01*
X014162Y016771D02*
X012962Y016771D01*
X012962Y016869D02*
X012862Y016869D01*
X012862Y016968D02*
X012962Y016968D01*
X012962Y017066D02*
X012862Y017066D01*
X012862Y017165D02*
X012962Y017165D01*
X013091Y017466D02*
X013129Y017456D01*
X013355Y017456D01*
X013355Y017871D01*
X013455Y017871D01*
X013455Y017971D01*
X013810Y017971D01*
X013810Y018255D01*
X013800Y018294D01*
X013780Y018328D01*
X013753Y018356D01*
X013718Y018376D01*
X013680Y018386D01*
X013455Y018386D01*
X013455Y017971D01*
X013355Y017971D01*
X013355Y018386D01*
X013129Y018386D01*
X013091Y018376D01*
X013057Y018356D01*
X013029Y018328D01*
X013009Y018294D01*
X012999Y018255D01*
X012999Y017971D01*
X013355Y017971D01*
X013355Y017871D01*
X012999Y017871D01*
X012999Y017586D01*
X013009Y017548D01*
X013029Y017514D01*
X013057Y017486D01*
X013091Y017466D01*
X013112Y017460D02*
X011777Y017460D01*
X011781Y017456D02*
X011717Y017520D01*
X010838Y017520D01*
X010774Y017456D01*
X010774Y015869D01*
X010838Y015804D01*
X011717Y015804D01*
X011781Y015869D01*
X011781Y017456D01*
X011781Y017362D02*
X014162Y017362D01*
X014162Y017460D02*
X013697Y017460D01*
X013680Y017456D02*
X013718Y017466D01*
X013753Y017486D01*
X013780Y017514D01*
X013800Y017548D01*
X013810Y017586D01*
X013810Y017871D01*
X013455Y017871D01*
X013455Y017456D01*
X013680Y017456D01*
X013803Y017559D02*
X014162Y017559D01*
X014162Y017657D02*
X013810Y017657D01*
X013810Y017756D02*
X014162Y017756D01*
X014162Y017854D02*
X013810Y017854D01*
X013810Y018051D02*
X014162Y018051D01*
X014162Y017953D02*
X013455Y017953D01*
X013455Y018051D02*
X013355Y018051D01*
X013355Y017953D02*
X012786Y017953D01*
X012786Y018051D02*
X012999Y018051D01*
X012999Y018150D02*
X012786Y018150D01*
X012786Y018248D02*
X012999Y018248D01*
X013048Y018347D02*
X002637Y018347D01*
X002637Y018445D02*
X014162Y018445D01*
X014162Y018479D02*
X014162Y015760D01*
X009301Y015760D01*
X009301Y016098D01*
X009237Y016162D01*
X008358Y016162D01*
X008294Y016098D01*
X008294Y015917D01*
X008152Y015917D01*
X008152Y016066D01*
X008088Y016130D01*
X007485Y016130D01*
X007421Y016066D01*
X007421Y015384D01*
X007441Y015363D01*
X007434Y015355D01*
X007414Y015389D01*
X007404Y015399D01*
X007404Y016066D01*
X007360Y016110D01*
X007378Y016110D01*
X007443Y016174D01*
X007443Y016316D01*
X007543Y016316D01*
X007543Y016253D01*
X007607Y016189D01*
X008092Y016189D01*
X008157Y016253D01*
X008157Y016777D01*
X008105Y016829D01*
X008139Y016848D01*
X008167Y016876D01*
X008187Y016910D01*
X008197Y016948D01*
X008197Y017136D01*
X007898Y017136D01*
X007898Y017233D01*
X007801Y017233D01*
X007801Y017136D01*
X007503Y017136D01*
X007503Y016948D01*
X007513Y016910D01*
X007533Y016876D01*
X007561Y016848D01*
X007594Y016829D01*
X007543Y016777D01*
X007543Y016636D01*
X007443Y016636D01*
X007443Y016777D01*
X007378Y016842D01*
X006697Y016842D01*
X006632Y016777D01*
X006632Y016174D01*
X006697Y016110D01*
X006717Y016110D01*
X006672Y016066D01*
X006672Y015384D01*
X006717Y015339D01*
X006711Y015316D01*
X006711Y015148D01*
X007029Y015148D01*
X007029Y015051D01*
X007126Y015051D01*
X007126Y014753D01*
X007314Y014753D01*
X007352Y014763D01*
X007386Y014783D01*
X007414Y014811D01*
X007434Y014844D01*
X007485Y014793D01*
X008009Y014793D01*
X008074Y014857D01*
X008074Y015320D01*
X008088Y015320D01*
X008152Y015384D01*
X008152Y015597D01*
X008294Y015597D01*
X008294Y015416D01*
X008358Y015352D01*
X009237Y015352D01*
X009301Y015416D01*
X009301Y015440D01*
X009714Y015440D01*
X009627Y015354D01*
X009627Y015354D01*
X008942Y014669D01*
X008026Y014669D01*
X007962Y014604D01*
X007005Y014604D01*
X007005Y014572D02*
X007005Y014713D01*
X006965Y014753D01*
X007029Y014753D01*
X007029Y015051D01*
X006711Y015051D01*
X006711Y014883D01*
X006721Y014845D01*
X006741Y014811D01*
X006769Y014783D01*
X006779Y014777D01*
X006259Y014777D01*
X006195Y014713D01*
X006195Y014110D01*
X006259Y014046D01*
X006941Y014046D01*
X007005Y014110D01*
X007005Y014252D01*
X007043Y014252D01*
X007043Y013735D01*
X007094Y013684D01*
X007061Y013664D01*
X007033Y013636D01*
X007013Y013602D01*
X007005Y013572D01*
X007005Y013965D01*
X006941Y014029D01*
X006259Y014029D01*
X006195Y013965D01*
X006195Y013821D01*
X006193Y013821D01*
X006193Y013963D01*
X006128Y014027D01*
X005970Y014027D01*
X005970Y014043D01*
X006072Y014043D01*
X006136Y014107D01*
X006136Y014592D01*
X006072Y014657D01*
X005547Y014657D01*
X005496Y014605D01*
X005477Y014639D01*
X005449Y014667D01*
X005415Y014687D01*
X005377Y014697D01*
X005189Y014697D01*
X005189Y014398D01*
X005092Y014398D01*
X005092Y014301D01*
X004774Y014301D01*
X004774Y014133D01*
X004784Y014095D01*
X004804Y014061D01*
X004832Y014033D01*
X004841Y014027D01*
X004634Y014027D01*
X004570Y013963D01*
X004570Y013850D01*
X004423Y013850D01*
X004423Y014051D01*
X004359Y014115D01*
X003716Y014115D01*
X003652Y014051D01*
X003652Y013330D01*
X003716Y013265D01*
X004359Y013265D01*
X004423Y013330D01*
X004423Y013530D01*
X004570Y013530D01*
X004570Y013360D01*
X004634Y013296D01*
X005316Y013296D01*
X005380Y013360D01*
X005380Y013963D01*
X005340Y014003D01*
X005377Y014003D01*
X005415Y014013D01*
X005449Y014033D01*
X005477Y014061D01*
X005496Y014094D01*
X005547Y014043D01*
X005650Y014043D01*
X005650Y014027D01*
X005447Y014027D01*
X005382Y013963D01*
X005382Y013360D01*
X005447Y013296D01*
X006128Y013296D01*
X006193Y013360D01*
X006193Y013501D01*
X006195Y013501D01*
X006195Y013362D01*
X006259Y013297D01*
X006941Y013297D01*
X007005Y013362D01*
X007005Y013376D01*
X007301Y013376D01*
X007301Y013279D01*
X007003Y013279D01*
X007003Y013091D01*
X007013Y013053D01*
X007033Y013019D01*
X007061Y012991D01*
X007095Y012971D01*
X007133Y012961D01*
X007301Y012961D01*
X007301Y013279D01*
X007398Y013279D01*
X007398Y012961D01*
X007566Y012961D01*
X007605Y012971D01*
X007639Y012991D01*
X007667Y013019D01*
X007687Y013053D01*
X007697Y013091D01*
X007697Y013279D01*
X007398Y013279D01*
X007398Y013376D01*
X007697Y013376D01*
X007697Y013440D01*
X007962Y013440D01*
X007962Y013096D01*
X008026Y013031D01*
X008983Y013031D01*
X009048Y013096D01*
X009048Y013252D01*
X010422Y013252D01*
X010395Y013225D01*
X009048Y013225D01*
X009048Y013126D02*
X009864Y013126D01*
X009807Y013070D02*
X009942Y013205D01*
X010133Y013205D01*
X010267Y013070D01*
X010267Y012880D01*
X010197Y012810D01*
X010197Y012690D01*
X010395Y012690D01*
X010395Y013225D01*
X010395Y013126D02*
X010211Y013126D01*
X010267Y013028D02*
X010395Y013028D01*
X010395Y012929D02*
X010267Y012929D01*
X010219Y012831D02*
X010395Y012831D01*
X010395Y012732D02*
X010197Y012732D01*
X010037Y012530D02*
X009537Y012530D01*
X007858Y012530D01*
X008283Y012690D02*
X008283Y012831D01*
X008219Y012895D01*
X007498Y012895D01*
X007433Y012831D01*
X007433Y012228D01*
X007498Y012164D01*
X008219Y012164D01*
X008283Y012228D01*
X008283Y012370D01*
X010601Y012370D01*
X010821Y012590D01*
X011293Y012590D01*
X011261Y012581D01*
X011226Y012561D01*
X011198Y012534D01*
X011179Y012499D01*
X011168Y012461D01*
X011168Y012273D01*
X011467Y012273D01*
X011467Y012176D01*
X011168Y012176D01*
X011168Y011989D01*
X011179Y011950D01*
X011198Y011916D01*
X011226Y011888D01*
X011232Y011885D01*
X008971Y011885D01*
X008659Y011572D01*
X008565Y011479D01*
X008565Y010846D01*
X008940Y010471D01*
X009034Y010377D01*
X009324Y010377D01*
X009313Y010366D01*
X009524Y010155D01*
X009456Y010087D01*
X009245Y010298D01*
X009112Y010165D01*
X009092Y010131D01*
X009082Y010092D01*
X009082Y010053D01*
X009092Y010016D01*
X009019Y010016D01*
X008763Y009760D01*
X008635Y009760D01*
X008541Y009666D01*
X008491Y009616D01*
X008472Y009649D01*
X008389Y009733D01*
X008074Y009418D01*
X008074Y009418D01*
X008389Y009733D01*
X008305Y009816D01*
X008271Y009836D01*
X008233Y009846D01*
X008218Y009846D01*
X008036Y010029D01*
X007945Y010029D01*
X007817Y009901D01*
X007733Y009985D01*
X007801Y010054D01*
X007801Y010145D01*
X007431Y010516D01*
X007358Y010516D01*
X007368Y010553D01*
X007368Y010592D01*
X007358Y010631D01*
X007338Y010665D01*
X007205Y010798D01*
X006994Y010587D01*
X006926Y010655D01*
X007137Y010866D01*
X007004Y010999D01*
X006970Y011019D01*
X006932Y011029D01*
X006892Y011029D01*
X006854Y011019D01*
X006820Y010999D01*
X006701Y010880D01*
X006926Y010655D01*
X006857Y010587D01*
X006632Y010811D01*
X006513Y010693D01*
X006494Y010658D01*
X006483Y010620D01*
X006483Y010581D01*
X006494Y010543D01*
X006513Y010508D01*
X006646Y010376D01*
X006857Y010587D01*
X006926Y010518D01*
X006715Y010307D01*
X006848Y010174D01*
X006882Y010154D01*
X006920Y010144D01*
X006959Y010144D01*
X006997Y010154D01*
X006997Y010082D01*
X007367Y009711D01*
X007459Y009711D01*
X007506Y009759D01*
X007590Y009675D01*
X007463Y009547D01*
X007463Y009478D01*
X007244Y009260D01*
X007041Y009260D01*
X007237Y009456D01*
X007237Y009547D01*
X006755Y010029D01*
X006705Y010029D01*
X006705Y010133D01*
X006570Y010267D01*
X006380Y010267D01*
X006245Y010133D01*
X006245Y009942D01*
X006380Y009807D01*
X006456Y009807D01*
X006457Y009806D01*
X006441Y009806D01*
X006238Y009603D01*
X006238Y009587D01*
X005846Y009979D01*
X005752Y010072D01*
X004991Y010072D01*
X004991Y010175D01*
X004927Y010239D01*
X004442Y010239D01*
X004378Y010175D01*
X004378Y009650D01*
X004428Y009600D01*
X004378Y009550D01*
X004378Y009025D01*
X004442Y008961D01*
X004927Y008961D01*
X004991Y009025D01*
X004991Y009127D01*
X005706Y009127D01*
X005643Y009065D01*
X005958Y008750D01*
X005958Y008750D01*
X005643Y009065D01*
X005560Y008981D01*
X005540Y008947D01*
X004721Y008947D01*
X004549Y008775D01*
X004403Y008920D01*
X004312Y008920D01*
X003802Y008410D01*
X003802Y008319D01*
X004104Y008017D01*
X004067Y008017D01*
X003932Y007883D01*
X003932Y007777D01*
X003859Y007851D01*
X003566Y007557D01*
X003831Y007292D01*
X004032Y007493D01*
X004052Y007527D01*
X004062Y007563D01*
X004067Y007557D01*
X004233Y007557D01*
X004233Y007507D01*
X004715Y007025D01*
X004806Y007025D01*
X004995Y007214D01*
X004995Y007130D01*
X005130Y006995D01*
X005320Y006995D01*
X005455Y007130D01*
X005455Y007245D01*
X005633Y007245D01*
X005767Y007380D01*
X005767Y007570D01*
X005633Y007705D01*
X005486Y007705D01*
X005678Y007897D01*
X005678Y007912D01*
X005869Y007721D01*
X005877Y007713D01*
X005877Y007002D01*
X005233Y006358D01*
X005233Y006373D01*
X005029Y006577D01*
X005010Y006577D01*
X005010Y006596D01*
X004806Y006800D01*
X004715Y006800D01*
X004260Y006344D01*
X004260Y006747D01*
X004267Y006755D01*
X004267Y006945D01*
X004133Y007080D01*
X003942Y007080D01*
X003807Y006945D01*
X003807Y006755D01*
X003940Y006622D01*
X003940Y006096D01*
X004034Y006002D01*
X004095Y005941D01*
X003675Y005941D01*
X003478Y006137D01*
X003511Y006170D01*
X003511Y006655D01*
X003447Y006719D01*
X002922Y006719D01*
X002871Y006668D01*
X002852Y006701D01*
X002824Y006729D01*
X002790Y006749D01*
X002752Y006759D01*
X002564Y006759D01*
X002564Y006461D01*
X002467Y006461D01*
X002467Y006759D01*
X002279Y006759D01*
X002241Y006749D01*
X002207Y006729D01*
X002179Y006701D01*
X002159Y006667D01*
X002149Y006629D01*
X002149Y006461D01*
X002467Y006461D01*
X002467Y006364D01*
X002564Y006364D01*
X002564Y006066D01*
X002752Y006066D01*
X002790Y006076D01*
X002824Y006096D01*
X002852Y006123D01*
X002871Y006157D01*
X002922Y006106D01*
X003057Y006106D01*
X003118Y006045D01*
X003118Y006045D01*
X003429Y005734D01*
X003429Y005195D01*
X003493Y005130D01*
X003968Y005130D01*
X004276Y004822D01*
X002403Y004822D01*
X002025Y004445D01*
X001485Y004445D01*
X001421Y004380D01*
X001421Y003699D01*
X001485Y003634D01*
X001668Y003634D01*
X001668Y003594D01*
X001566Y003594D01*
X001501Y003530D01*
X001501Y003045D01*
X001566Y002981D01*
X002090Y002981D01*
X002178Y002981D01*
X002188Y002971D02*
X002223Y002951D01*
X002261Y002941D01*
X002449Y002941D01*
X002449Y003239D01*
X002545Y003239D01*
X002545Y002941D01*
X002733Y002941D01*
X002771Y002951D01*
X002806Y002971D01*
X002834Y002998D01*
X002853Y003033D01*
X002864Y003071D01*
X002864Y003239D01*
X002545Y003239D01*
X002545Y003336D01*
X002449Y003336D01*
X002449Y003634D01*
X002261Y003634D01*
X002223Y003624D01*
X002188Y003604D01*
X002160Y003576D01*
X002141Y003543D01*
X002090Y003594D01*
X001988Y003594D01*
X001988Y003634D01*
X002206Y003634D01*
X002271Y003699D01*
X002271Y004238D01*
X002535Y004502D01*
X005166Y004502D01*
X005260Y004596D01*
X005502Y004839D01*
X005502Y004703D01*
X005432Y004633D01*
X005432Y004442D01*
X005567Y004307D01*
X005758Y004307D01*
X005892Y004442D01*
X005892Y004567D01*
X005996Y004464D01*
X006015Y004464D01*
X006015Y004445D01*
X006219Y004241D01*
X006238Y004241D01*
X006238Y004222D01*
X006441Y004019D01*
X006460Y004019D01*
X006460Y003999D01*
X006664Y003796D01*
X006755Y003796D01*
X007237Y004278D01*
X007237Y004369D01*
X007034Y004573D01*
X007014Y004573D01*
X007014Y004592D01*
X006811Y004795D01*
X006792Y004795D01*
X006792Y004814D01*
X006611Y004995D01*
X006758Y004995D01*
X006892Y005130D01*
X006892Y005320D01*
X006758Y005455D01*
X006567Y005455D01*
X006497Y005385D01*
X006487Y005385D01*
X006393Y005291D01*
X006346Y005244D01*
X006346Y005260D01*
X006143Y005463D01*
X006124Y005463D01*
X006124Y005483D01*
X005920Y005686D01*
X005901Y005686D01*
X005901Y005705D01*
X005718Y005888D01*
X005718Y005902D01*
X005708Y005940D01*
X005688Y005974D01*
X005605Y006058D01*
X005290Y005743D01*
X005290Y005743D01*
X004975Y005428D01*
X005059Y005345D01*
X005092Y005326D01*
X004901Y005135D01*
X004416Y005135D01*
X004279Y005272D01*
X004279Y005757D01*
X004284Y005752D01*
X004365Y005752D01*
X004307Y005695D01*
X004307Y005505D01*
X004442Y005370D01*
X004633Y005370D01*
X004703Y005440D01*
X004767Y005440D01*
X004861Y005534D01*
X004872Y005545D01*
X004891Y005512D01*
X004975Y005428D01*
X005290Y005743D01*
X005290Y005743D01*
X005605Y006058D01*
X005521Y006142D01*
X005488Y006161D01*
X006104Y006776D01*
X006197Y006870D01*
X006197Y007627D01*
X006229Y007627D01*
X006322Y007721D01*
X007010Y008409D01*
X007104Y008503D01*
X007104Y008940D01*
X007284Y008940D01*
X007596Y008627D01*
X007955Y008627D01*
X008049Y008721D01*
X008131Y008803D01*
X008131Y008788D01*
X008334Y008584D01*
X008353Y008584D01*
X008353Y008565D01*
X008557Y008361D01*
X008576Y008361D01*
X008576Y008342D01*
X008780Y008139D01*
X008799Y008139D01*
X008799Y008120D01*
X009003Y007916D01*
X009022Y007916D01*
X009022Y007897D01*
X009225Y007693D01*
X009244Y007693D01*
X009244Y007674D01*
X009427Y007491D01*
X009427Y007477D01*
X009437Y007439D01*
X009457Y007405D01*
X009541Y007321D01*
X009624Y007238D01*
X009657Y007219D01*
X007721Y005283D01*
X007627Y005189D01*
X007627Y004659D01*
X007677Y004609D01*
X007654Y004602D01*
X007620Y004583D01*
X007536Y004499D01*
X007453Y004415D01*
X007433Y004381D01*
X007423Y004343D01*
X007423Y004304D01*
X007433Y004265D01*
X007453Y004231D01*
X007675Y004009D01*
X007851Y004184D01*
X007851Y004184D01*
X008166Y003869D01*
X008082Y003786D01*
X008048Y003766D01*
X008010Y003756D01*
X007970Y003756D01*
X007932Y003766D01*
X007898Y003786D01*
X007675Y004009D01*
X007851Y004184D01*
X007851Y004184D01*
X008166Y003869D01*
X008249Y003953D01*
X008268Y003986D01*
X008493Y003761D01*
X008482Y003761D01*
X008418Y003697D01*
X008418Y003172D01*
X008469Y003121D01*
X008436Y003102D01*
X008408Y003074D01*
X008388Y003040D01*
X008378Y003002D01*
X008378Y002814D01*
X008676Y002814D01*
X008676Y002717D01*
X008378Y002717D01*
X008378Y002529D01*
X008388Y002491D01*
X008408Y002457D01*
X008417Y002447D01*
X008354Y002447D01*
X008135Y002666D01*
X008135Y003229D01*
X008041Y003322D01*
X007955Y003409D01*
X007955Y003508D01*
X007820Y003642D01*
X007630Y003642D01*
X007495Y003508D01*
X007495Y003317D01*
X007630Y003182D01*
X007729Y003182D01*
X007815Y003096D01*
X007815Y002534D01*
X008127Y002221D01*
X008221Y002127D01*
X010729Y002127D01*
X011604Y003002D01*
X014041Y003002D01*
X014135Y003096D01*
X014162Y003124D01*
X014162Y002885D01*
X011953Y002885D01*
X011883Y002955D01*
X011692Y002955D01*
X011557Y002820D01*
X011557Y002630D01*
X011692Y002495D01*
X011883Y002495D01*
X011953Y002565D01*
X014162Y002565D01*
X014162Y002010D01*
X007979Y002010D01*
X006955Y003034D01*
X006955Y003133D01*
X006820Y003267D01*
X006630Y003267D01*
X006495Y003133D01*
X006495Y002942D01*
X006630Y002807D01*
X006729Y002807D01*
X007752Y001784D01*
X007846Y001690D01*
X014162Y001690D01*
X014162Y001062D01*
X002637Y001062D01*
X002637Y001336D01*
X002520Y001775D01*
X002293Y002168D01*
X001971Y002489D01*
X001578Y002717D01*
X001139Y002834D01*
X001062Y002834D01*
X001062Y007659D01*
X001090Y007652D01*
X001433Y007652D01*
X001433Y008126D01*
X001533Y008126D01*
X001533Y007652D01*
X001877Y007652D01*
X001915Y007662D01*
X001949Y007682D01*
X001977Y007710D01*
X001997Y007744D01*
X002007Y007782D01*
X002007Y008126D01*
X001533Y008126D01*
X001533Y008226D01*
X001433Y008226D01*
X001433Y008700D01*
X001090Y008700D01*
X001062Y008693D01*
X001062Y008781D01*
X001090Y008774D01*
X001433Y008774D01*
X001433Y009248D01*
X001533Y009248D01*
X001533Y008774D01*
X001877Y008774D01*
X001915Y008784D01*
X001949Y008804D01*
X001977Y008832D01*
X001997Y008866D01*
X002007Y008904D01*
X002007Y009248D01*
X001533Y009248D01*
X001533Y009348D01*
X001433Y009348D01*
X001433Y010193D01*
X001533Y010193D01*
X001533Y009719D01*
X001533Y009348D01*
X002007Y009348D01*
X002007Y009692D01*
X001997Y009730D01*
X001977Y009764D01*
X001971Y009771D01*
X001977Y009777D01*
X001997Y009811D01*
X002007Y009849D01*
X002007Y010193D01*
X001533Y010193D01*
X001533Y010293D01*
X001433Y010293D01*
X001433Y011236D01*
X001533Y011236D01*
X001533Y010762D01*
X001533Y010293D01*
X002007Y010293D01*
X002007Y010637D01*
X001997Y010675D01*
X001977Y010709D01*
X001949Y010737D01*
X001915Y010757D01*
X001886Y010765D01*
X001915Y010773D01*
X001949Y010792D01*
X001977Y010820D01*
X001997Y010855D01*
X002007Y010893D01*
X002007Y011236D01*
X001533Y011236D01*
X001533Y011336D01*
X002007Y011336D01*
X002007Y011680D01*
X001997Y011718D01*
X001977Y011753D01*
X001949Y011780D01*
X001915Y011800D01*
X001877Y011810D01*
X001533Y011810D01*
X001533Y011336D01*
X001433Y011336D01*
X001433Y011810D01*
X001090Y011810D01*
X001062Y011803D01*
X001062Y016707D01*
X001139Y016707D01*
X001578Y016825D01*
X001971Y017052D01*
X001971Y017052D01*
X002293Y017373D01*
X002520Y017766D01*
X002520Y017766D01*
X002637Y018205D01*
X002637Y018479D01*
X014162Y018479D01*
X014162Y018347D02*
X013761Y018347D01*
X013810Y018248D02*
X014162Y018248D01*
X014162Y018150D02*
X013810Y018150D01*
X013455Y018150D02*
X013355Y018150D01*
X013355Y018248D02*
X013455Y018248D01*
X013455Y018347D02*
X013355Y018347D01*
X013355Y017854D02*
X013455Y017854D01*
X013455Y017756D02*
X013355Y017756D01*
X013355Y017657D02*
X013455Y017657D01*
X013455Y017559D02*
X013355Y017559D01*
X013355Y017460D02*
X013455Y017460D01*
X013006Y017559D02*
X012785Y017559D01*
X012786Y017560D02*
X012786Y018281D01*
X012722Y018346D01*
X012119Y018346D01*
X012054Y018281D01*
X012054Y018081D01*
X009292Y018081D01*
X009184Y017973D01*
X008358Y017973D01*
X008294Y017909D01*
X008294Y017227D01*
X008358Y017163D01*
X009237Y017163D01*
X009301Y017227D01*
X009301Y017637D01*
X009425Y017761D01*
X012054Y017761D01*
X012054Y017560D01*
X012119Y017496D01*
X012722Y017496D01*
X012786Y017560D01*
X012786Y017657D02*
X012999Y017657D01*
X012999Y017756D02*
X012786Y017756D01*
X012786Y017854D02*
X012999Y017854D01*
X012420Y017921D02*
X009358Y017921D01*
X008975Y017537D01*
X008944Y017568D01*
X008797Y017568D01*
X008294Y017559D02*
X007409Y017559D01*
X007378Y017590D02*
X007443Y017525D01*
X007443Y016922D01*
X007378Y016858D01*
X006697Y016858D01*
X006632Y016922D01*
X006632Y017065D01*
X006590Y017065D01*
X006590Y016884D01*
X006525Y016820D01*
X005922Y016820D01*
X005858Y016884D01*
X005858Y017566D01*
X005922Y017630D01*
X005987Y017630D01*
X005971Y017658D01*
X005961Y017696D01*
X005961Y017864D01*
X006279Y017864D01*
X006279Y017961D01*
X005961Y017961D01*
X005961Y018129D01*
X005971Y018167D01*
X005991Y018201D01*
X006019Y018229D01*
X006053Y018249D01*
X006091Y018259D01*
X006279Y018259D01*
X006279Y017961D01*
X006376Y017961D01*
X006376Y018259D01*
X006564Y018259D01*
X006602Y018249D01*
X006636Y018229D01*
X006664Y018201D01*
X006684Y018168D01*
X006735Y018219D01*
X007259Y018219D01*
X007324Y018155D01*
X007324Y017670D01*
X007259Y017606D01*
X007157Y017606D01*
X007157Y017590D01*
X007378Y017590D01*
X007311Y017657D02*
X008294Y017657D01*
X008294Y017756D02*
X007324Y017756D01*
X007324Y017854D02*
X008294Y017854D01*
X008338Y017953D02*
X007324Y017953D01*
X007324Y018051D02*
X009263Y018051D01*
X009420Y017756D02*
X012054Y017756D01*
X012054Y017657D02*
X009321Y017657D01*
X009301Y017559D02*
X012056Y017559D01*
X012054Y018150D02*
X007324Y018150D01*
X006997Y017912D02*
X006997Y017264D01*
X007037Y017224D01*
X007036Y017225D01*
X006224Y017225D01*
X005858Y017263D02*
X005842Y017263D01*
X005842Y017165D02*
X005858Y017165D01*
X005858Y017066D02*
X005842Y017066D01*
X005842Y016968D02*
X005858Y016968D01*
X005842Y016884D02*
X005777Y016820D01*
X005174Y016820D01*
X005110Y016884D01*
X004479Y016252D01*
X004328Y016252D01*
X004258Y016182D01*
X004067Y016182D01*
X003932Y016317D01*
X003932Y016508D01*
X004067Y016642D01*
X004258Y016642D01*
X004328Y016572D01*
X004346Y016572D01*
X005002Y017229D01*
X005096Y017322D01*
X005110Y017322D01*
X005110Y017566D01*
X005174Y017630D01*
X005777Y017630D01*
X005842Y017566D01*
X005842Y016884D01*
X005827Y016869D02*
X005873Y016869D01*
X006039Y016783D02*
X005161Y016783D01*
X005096Y016719D01*
X005096Y015998D01*
X005161Y015933D01*
X005799Y015933D01*
X005932Y015800D01*
X005932Y015641D01*
X005791Y015641D01*
X005726Y015577D01*
X005726Y014856D01*
X005791Y014792D01*
X006393Y014792D01*
X006458Y014856D01*
X006458Y015577D01*
X006393Y015641D01*
X006252Y015641D01*
X006252Y015932D01*
X006104Y016081D01*
X006104Y016719D01*
X006039Y016783D01*
X006051Y016771D02*
X006632Y016771D01*
X006632Y016672D02*
X006104Y016672D01*
X006104Y016574D02*
X006632Y016574D01*
X006632Y016475D02*
X006104Y016475D01*
X006104Y016377D02*
X006632Y016377D01*
X006632Y016278D02*
X006104Y016278D01*
X006104Y016180D02*
X006632Y016180D01*
X006688Y016081D02*
X006104Y016081D01*
X006202Y015983D02*
X006672Y015983D01*
X006672Y015884D02*
X006252Y015884D01*
X006252Y015786D02*
X006672Y015786D01*
X006672Y015687D02*
X006252Y015687D01*
X006446Y015589D02*
X006672Y015589D01*
X006672Y015490D02*
X006458Y015490D01*
X006458Y015392D02*
X006672Y015392D01*
X006711Y015293D02*
X006458Y015293D01*
X006458Y015195D02*
X006711Y015195D01*
X006711Y014998D02*
X006458Y014998D01*
X006458Y015096D02*
X007029Y015096D01*
X007029Y014998D02*
X007126Y014998D01*
X007126Y014899D02*
X007029Y014899D01*
X007029Y014801D02*
X007126Y014801D01*
X007005Y014702D02*
X008976Y014702D01*
X009075Y014801D02*
X008017Y014801D01*
X008074Y014899D02*
X009173Y014899D01*
X009272Y014998D02*
X008074Y014998D01*
X008074Y015096D02*
X009370Y015096D01*
X009469Y015195D02*
X008074Y015195D01*
X008074Y015293D02*
X009567Y015293D01*
X009666Y015392D02*
X009277Y015392D01*
X009787Y015287D02*
X014600Y015287D01*
X015787Y014100D01*
X017247Y014100D01*
X017412Y014122D01*
X017435Y014100D01*
X018326Y014100D01*
X018287Y014061D01*
X018287Y013225D01*
X017890Y012828D01*
X017890Y012287D01*
X017890Y011771D01*
X017936Y011725D01*
X018725Y011725D01*
X018560Y011885D02*
X018479Y011885D01*
X018479Y011889D01*
X018427Y011941D01*
X018511Y011941D01*
X018511Y012239D01*
X018608Y012239D01*
X018608Y012336D01*
X018511Y012336D01*
X018511Y012634D01*
X018608Y012634D01*
X018608Y012336D01*
X018926Y012336D01*
X018926Y012504D01*
X018916Y012542D01*
X018896Y012576D01*
X018868Y012604D01*
X018834Y012624D01*
X018796Y012634D01*
X018608Y012634D01*
X018511Y012634D02*
X018323Y012634D01*
X018285Y012624D01*
X018251Y012604D01*
X018223Y012576D01*
X018204Y012543D01*
X018152Y012594D01*
X018050Y012594D01*
X018050Y012761D01*
X018354Y013065D01*
X018447Y013159D01*
X018447Y013872D01*
X018805Y013872D01*
X018869Y013936D01*
X018869Y014264D01*
X018805Y014328D01*
X017848Y014328D01*
X017783Y014264D01*
X017783Y014260D01*
X017719Y014260D01*
X017719Y014384D01*
X017663Y014440D01*
X017783Y014440D01*
X017783Y014436D01*
X017848Y014372D01*
X018805Y014372D01*
X018869Y014436D01*
X018869Y014764D01*
X018805Y014828D01*
X017848Y014828D01*
X017783Y014764D01*
X017783Y014760D01*
X016390Y014760D01*
X016320Y014830D01*
X016130Y014830D01*
X015995Y014695D01*
X015995Y014505D01*
X016130Y014370D01*
X016320Y014370D01*
X016390Y014440D01*
X017161Y014440D01*
X017106Y014384D01*
X017106Y014260D01*
X015854Y014260D01*
X014666Y015447D01*
X014611Y015447D01*
X015416Y016252D01*
X016872Y016252D01*
X016942Y016182D01*
X017133Y016182D01*
X017203Y016252D01*
X020909Y016252D01*
X021418Y015743D01*
X021418Y015407D01*
X021316Y015407D01*
X021251Y015342D01*
X021251Y015260D01*
X020917Y015260D01*
X020917Y015264D01*
X020852Y015328D01*
X019895Y015328D01*
X019830Y015264D01*
X019830Y014936D01*
X019895Y014872D01*
X020852Y014872D01*
X020917Y014936D01*
X020917Y014940D01*
X021251Y014940D01*
X021251Y014857D01*
X021316Y014793D01*
X021440Y014793D01*
X021440Y010409D01*
X021534Y010315D01*
X021721Y010127D01*
X021768Y010127D01*
X021768Y010124D01*
X021832Y010059D01*
X022440Y010059D01*
X022442Y010057D01*
X022633Y010057D01*
X022635Y010059D01*
X022790Y010059D01*
X022854Y010124D01*
X022854Y010451D01*
X022790Y010516D01*
X022635Y010516D01*
X022633Y010517D01*
X022442Y010517D01*
X022440Y010516D01*
X021832Y010516D01*
X021809Y010492D01*
X021760Y010541D01*
X021760Y014793D01*
X021840Y014793D01*
X021891Y014844D01*
X021910Y014811D01*
X021938Y014783D01*
X021973Y014763D01*
X022011Y014753D01*
X022199Y014753D01*
X022199Y015051D01*
X022295Y015051D01*
X022295Y014753D01*
X022483Y014753D01*
X022521Y014763D01*
X022556Y014783D01*
X022584Y014811D01*
X022603Y014845D01*
X022614Y014883D01*
X022614Y015051D01*
X022295Y015051D01*
X022295Y015148D01*
X022199Y015148D01*
X022199Y015447D01*
X022011Y015447D01*
X021973Y015437D01*
X021938Y015417D01*
X021910Y015389D01*
X021891Y015355D01*
X021840Y015407D01*
X021738Y015407D01*
X021738Y015876D01*
X021644Y015970D01*
X021041Y016572D01*
X017203Y016572D01*
X017133Y016642D01*
X016942Y016642D01*
X016872Y016572D01*
X015284Y016572D01*
X015190Y016479D01*
X014471Y015760D01*
X014350Y015760D01*
X014350Y018479D01*
X025172Y018479D01*
X025172Y018205D01*
X025289Y017766D01*
X025516Y017373D01*
X025838Y017052D01*
X026231Y016825D01*
X026670Y016707D01*
X026747Y016707D01*
X026747Y011190D01*
X026731Y011217D01*
X026677Y011288D01*
X026614Y011350D01*
X026544Y011404D01*
X026467Y011448D01*
X026386Y011482D01*
X026300Y011505D01*
X026218Y011516D01*
X026218Y010892D01*
X026118Y010892D01*
X026118Y011516D01*
X026036Y011505D01*
X025951Y011482D01*
X025869Y011448D01*
X025792Y011404D01*
X025722Y011350D01*
X025660Y011288D01*
X025606Y011217D01*
X025562Y011141D01*
X025528Y011059D01*
X025505Y010973D01*
X025494Y010891D01*
X026118Y010891D01*
X026118Y010791D01*
X026218Y010791D01*
X026218Y010167D01*
X026300Y010178D01*
X026386Y010201D01*
X026467Y010235D01*
X026544Y010279D01*
X026614Y010333D01*
X026677Y010395D01*
X026731Y010466D01*
X026747Y010493D01*
X026747Y009182D01*
X026731Y009210D01*
X026677Y009280D01*
X026614Y009342D01*
X026544Y009396D01*
X026467Y009440D01*
X026386Y009474D01*
X026300Y009497D01*
X026218Y009508D01*
X026218Y008884D01*
X026118Y008884D01*
X026118Y009508D01*
X026036Y009497D01*
X025951Y009474D01*
X025869Y009440D01*
X025792Y009396D01*
X025722Y009342D01*
X025660Y009280D01*
X025606Y009210D01*
X025562Y009133D01*
X025528Y009051D01*
X025505Y008966D01*
X025494Y008884D01*
X026118Y008884D01*
X026118Y008784D01*
X025494Y008784D01*
X025505Y008702D01*
X025528Y008616D01*
X025562Y008535D01*
X025606Y008458D01*
X025660Y008388D01*
X025722Y008325D01*
X025792Y008271D01*
X025869Y008227D01*
X025951Y008193D01*
X026036Y008170D01*
X026118Y008159D01*
X026118Y008784D01*
X026218Y008784D01*
X026218Y008159D01*
X026300Y008170D01*
X026386Y008193D01*
X026467Y008227D01*
X026544Y008271D01*
X026614Y008325D01*
X026677Y008388D01*
X026731Y008458D01*
X026747Y008485D01*
X026747Y002825D01*
X026648Y002820D01*
X026648Y002820D01*
X026192Y002668D01*
X025790Y002404D01*
X025790Y002404D01*
X025470Y002044D01*
X025255Y001615D01*
X025255Y001615D01*
X025158Y001144D01*
X025158Y001144D01*
X025163Y001062D01*
X014350Y001062D01*
X014350Y001690D01*
X014666Y001690D01*
X015604Y002627D01*
X018146Y002627D01*
X018146Y002525D01*
X018210Y002461D01*
X018695Y002461D01*
X018760Y002525D01*
X018760Y003050D01*
X018695Y003114D01*
X018210Y003114D01*
X018146Y003050D01*
X018146Y002947D01*
X015471Y002947D01*
X015377Y002854D01*
X014534Y002010D01*
X014350Y002010D01*
X014350Y002565D01*
X014541Y002565D01*
X015291Y003315D01*
X018146Y003315D01*
X018146Y003213D01*
X018210Y003148D01*
X018695Y003148D01*
X018760Y003213D01*
X018760Y003737D01*
X018709Y003787D01*
X018760Y003838D01*
X018760Y004362D01*
X018695Y004426D01*
X018572Y004426D01*
X018572Y004560D01*
X018642Y004630D01*
X018642Y004820D01*
X018508Y004955D01*
X018317Y004955D01*
X018182Y004820D01*
X018182Y004630D01*
X018252Y004560D01*
X018252Y004426D01*
X018210Y004426D01*
X018146Y004362D01*
X018146Y004260D01*
X014846Y004260D01*
X014752Y004166D01*
X014350Y003764D01*
X014350Y004124D01*
X014666Y004440D01*
X017354Y004440D01*
X018166Y005252D01*
X018773Y005252D01*
X018773Y005192D01*
X018838Y005128D01*
X019362Y005128D01*
X019426Y005192D01*
X019426Y005677D01*
X019362Y005741D01*
X018838Y005741D01*
X018773Y005677D01*
X018773Y005572D01*
X018034Y005572D01*
X017940Y005479D01*
X017221Y004760D01*
X014549Y004760D01*
X015041Y005252D01*
X015135Y005346D01*
X015135Y010166D01*
X014885Y010416D01*
X014791Y010510D01*
X013284Y010510D01*
X013159Y010385D01*
X013017Y010385D01*
X013017Y010508D01*
X012883Y010642D01*
X012692Y010642D01*
X012557Y010508D01*
X012557Y010385D01*
X012491Y010385D01*
X012491Y010487D01*
X012427Y010551D01*
X011942Y010551D01*
X011912Y010522D01*
X011912Y011749D01*
X011916Y011752D01*
X012010Y011846D01*
X012010Y011858D01*
X012136Y011858D01*
X012136Y012176D01*
X012233Y012176D01*
X012233Y011858D01*
X012401Y011858D01*
X012439Y011869D01*
X012473Y011888D01*
X012501Y011916D01*
X012521Y011950D01*
X012531Y011989D01*
X012531Y012176D01*
X012233Y012176D01*
X012233Y012273D01*
X012531Y012273D01*
X012531Y012461D01*
X012521Y012499D01*
X012501Y012534D01*
X012473Y012561D01*
X012439Y012581D01*
X012401Y012591D01*
X012233Y012591D01*
X012233Y012273D01*
X012136Y012273D01*
X012136Y012591D01*
X012010Y012591D01*
X012010Y013291D01*
X011912Y013389D01*
X011912Y014565D01*
X011971Y014565D01*
X012690Y013846D01*
X012690Y011515D01*
X012620Y011445D01*
X012620Y011255D01*
X011912Y011255D01*
X011912Y011353D02*
X012620Y011353D01*
X012620Y011255D02*
X012755Y011120D01*
X012945Y011120D01*
X013015Y011190D01*
X013291Y011190D01*
X013541Y011440D01*
X013635Y011534D01*
X013635Y011784D01*
X014221Y012370D01*
X014320Y012370D01*
X014455Y012505D01*
X014455Y012695D01*
X014320Y012830D01*
X014130Y012830D01*
X013995Y012695D01*
X013995Y012596D01*
X013892Y012494D01*
X013892Y012633D01*
X013822Y012703D01*
X013822Y014685D01*
X013892Y014755D01*
X013892Y014945D01*
X013758Y015080D01*
X013567Y015080D01*
X013432Y014945D01*
X013432Y014755D01*
X013502Y014685D01*
X013502Y012703D01*
X013432Y012633D01*
X013432Y012442D01*
X013567Y012307D01*
X013706Y012307D01*
X013315Y011916D01*
X013315Y011666D01*
X013159Y011510D01*
X013015Y011510D01*
X013010Y011515D01*
X013010Y013979D01*
X012197Y014791D01*
X012104Y014885D01*
X011912Y014885D01*
X011912Y015127D01*
X014534Y015127D01*
X015627Y014034D01*
X015627Y014034D01*
X015721Y013940D01*
X017106Y013940D01*
X017106Y013860D01*
X017157Y013809D01*
X017123Y013789D01*
X017096Y013761D01*
X017076Y013727D01*
X017066Y013689D01*
X017066Y013501D01*
X017364Y013501D01*
X017364Y013404D01*
X017461Y013404D01*
X017461Y013086D01*
X017629Y013086D01*
X017667Y013096D01*
X017701Y013116D01*
X017729Y013144D01*
X017749Y013178D01*
X017759Y013216D01*
X017759Y013404D01*
X017461Y013404D01*
X017461Y013501D01*
X017759Y013501D01*
X017759Y013689D01*
X017749Y013727D01*
X017729Y013761D01*
X017701Y013789D01*
X017668Y013809D01*
X017719Y013860D01*
X017719Y013940D01*
X017783Y013940D01*
X017783Y013936D01*
X017848Y013872D01*
X018127Y013872D01*
X018127Y013291D01*
X017730Y012894D01*
X017730Y012594D01*
X017628Y012594D01*
X017564Y012530D01*
X017564Y012045D01*
X017628Y011981D01*
X017730Y011981D01*
X017730Y011953D01*
X017457Y011953D01*
X017393Y011889D01*
X017393Y011561D01*
X017457Y011497D01*
X018415Y011497D01*
X018479Y011561D01*
X018479Y011565D01*
X018560Y011565D01*
X018630Y011495D01*
X018820Y011495D01*
X018955Y011630D01*
X018955Y011820D01*
X018826Y011949D01*
X018834Y011951D01*
X018868Y011971D01*
X018896Y011998D01*
X018916Y012033D01*
X018926Y012071D01*
X018926Y012239D01*
X018608Y012239D01*
X018608Y011941D01*
X018615Y011941D01*
X018560Y011885D01*
X018511Y011944D02*
X018608Y011944D01*
X018608Y012043D02*
X018511Y012043D01*
X018511Y012141D02*
X018608Y012141D01*
X018608Y012240D02*
X019587Y012240D01*
X019587Y012338D02*
X018926Y012338D01*
X018926Y012437D02*
X019587Y012437D01*
X019587Y012535D02*
X019236Y012535D01*
X019195Y012495D02*
X019330Y012630D01*
X019330Y012820D01*
X019260Y012890D01*
X019260Y012898D01*
X019320Y012898D01*
X019385Y012963D01*
X019385Y013487D01*
X019320Y013551D01*
X019260Y013551D01*
X019260Y014916D01*
X019166Y015010D01*
X018916Y015260D01*
X018869Y015260D01*
X018869Y015264D01*
X018805Y015328D01*
X017848Y015328D01*
X017783Y015264D01*
X017783Y014936D01*
X017848Y014872D01*
X018805Y014872D01*
X018828Y014895D01*
X018940Y014784D01*
X018940Y013551D01*
X018835Y013551D01*
X018771Y013487D01*
X018771Y012963D01*
X018835Y012898D01*
X018940Y012898D01*
X018940Y012890D01*
X018870Y012820D01*
X018870Y012630D01*
X019005Y012495D01*
X019195Y012495D01*
X019330Y012634D02*
X019587Y012634D01*
X019587Y012732D02*
X019330Y012732D01*
X019319Y012831D02*
X019587Y012831D01*
X019587Y012898D02*
X019587Y012011D01*
X019815Y011784D01*
X019909Y011690D01*
X020083Y011690D01*
X020083Y011588D01*
X020148Y011523D01*
X020633Y011523D01*
X020697Y011588D01*
X020697Y012112D01*
X020633Y012176D01*
X020148Y012176D01*
X020083Y012112D01*
X020083Y012010D01*
X020041Y012010D01*
X019907Y012144D01*
X019907Y012898D01*
X019989Y012898D01*
X020054Y012963D01*
X020054Y013487D01*
X019989Y013551D01*
X019885Y013551D01*
X019885Y013841D01*
X019921Y013832D01*
X020364Y013832D01*
X020364Y014091D01*
X020383Y014091D01*
X020383Y014109D01*
X020957Y014109D01*
X020957Y014238D01*
X020946Y014276D01*
X020927Y014310D01*
X020899Y014338D01*
X020864Y014358D01*
X020826Y014368D01*
X020383Y014368D01*
X020383Y014109D01*
X020364Y014109D01*
X020364Y014368D01*
X019921Y014368D01*
X019885Y014358D01*
X019885Y014382D01*
X019895Y014372D01*
X020852Y014372D01*
X020917Y014436D01*
X020917Y014764D01*
X020852Y014828D01*
X019895Y014828D01*
X019830Y014764D01*
X019830Y014760D01*
X019784Y014760D01*
X019659Y014635D01*
X019565Y014541D01*
X019565Y013551D01*
X019505Y013551D01*
X019440Y013487D01*
X019440Y012963D01*
X019505Y012898D01*
X019587Y012898D01*
X019474Y012929D02*
X019351Y012929D01*
X019385Y013028D02*
X019440Y013028D01*
X019440Y013126D02*
X019385Y013126D01*
X019385Y013225D02*
X019440Y013225D01*
X019440Y013323D02*
X019385Y013323D01*
X019385Y013422D02*
X019440Y013422D01*
X019474Y013520D02*
X019351Y013520D01*
X019260Y013619D02*
X019565Y013619D01*
X019565Y013717D02*
X019260Y013717D01*
X019260Y013816D02*
X019565Y013816D01*
X019565Y013914D02*
X019260Y013914D01*
X019260Y014013D02*
X019565Y014013D01*
X019565Y014111D02*
X019260Y014111D01*
X019260Y014210D02*
X019565Y014210D01*
X019565Y014308D02*
X019260Y014308D01*
X019260Y014407D02*
X019565Y014407D01*
X019565Y014505D02*
X019260Y014505D01*
X019260Y014604D02*
X019628Y014604D01*
X019726Y014702D02*
X019260Y014702D01*
X019260Y014801D02*
X019868Y014801D01*
X019867Y014899D02*
X019260Y014899D01*
X019178Y014998D02*
X019830Y014998D01*
X019830Y015096D02*
X019080Y015096D01*
X018981Y015195D02*
X019830Y015195D01*
X019860Y015293D02*
X018839Y015293D01*
X018817Y015342D02*
X018851Y015362D01*
X018879Y015390D01*
X018899Y015424D01*
X018909Y015462D01*
X018909Y015591D01*
X018335Y015591D01*
X018335Y015332D01*
X018779Y015332D01*
X018817Y015342D01*
X018881Y015392D02*
X019875Y015392D01*
X019895Y015372D02*
X019830Y015436D01*
X019830Y015764D01*
X019895Y015828D01*
X020852Y015828D01*
X020917Y015764D01*
X020917Y015436D01*
X020852Y015372D01*
X019895Y015372D01*
X019830Y015490D02*
X018909Y015490D01*
X018909Y015589D02*
X019830Y015589D01*
X019830Y015687D02*
X018909Y015687D01*
X018909Y015738D02*
X018899Y015776D01*
X018879Y015810D01*
X018851Y015838D01*
X018817Y015858D01*
X018779Y015868D01*
X018335Y015868D01*
X018335Y015609D01*
X018317Y015609D01*
X018317Y015591D01*
X017743Y015591D01*
X017743Y015462D01*
X017753Y015424D01*
X017773Y015390D01*
X017801Y015362D01*
X017835Y015342D01*
X017873Y015332D01*
X018317Y015332D01*
X018317Y015591D01*
X018335Y015591D01*
X018335Y015609D01*
X018909Y015609D01*
X018909Y015738D01*
X018893Y015786D02*
X019853Y015786D01*
X020374Y015100D02*
X021578Y015100D01*
X021578Y015810D01*
X020975Y016412D01*
X017037Y016412D01*
X015350Y016412D01*
X014537Y015600D01*
X008954Y015600D01*
X008797Y015757D01*
X007818Y015757D01*
X007786Y015725D01*
X007747Y015686D01*
X007747Y015100D01*
X007421Y015392D02*
X007411Y015392D01*
X007404Y015490D02*
X007421Y015490D01*
X007421Y015589D02*
X007404Y015589D01*
X007404Y015687D02*
X007421Y015687D01*
X007421Y015786D02*
X007404Y015786D01*
X007404Y015884D02*
X007421Y015884D01*
X007421Y015983D02*
X007404Y015983D01*
X007389Y016081D02*
X007436Y016081D01*
X007443Y016180D02*
X010774Y016180D01*
X010774Y016278D02*
X009258Y016278D01*
X009237Y016257D02*
X009301Y016322D01*
X009301Y017003D01*
X009237Y017068D01*
X008358Y017068D01*
X008294Y017003D01*
X008294Y016322D01*
X008358Y016257D01*
X009237Y016257D01*
X009301Y016377D02*
X010774Y016377D01*
X010774Y016475D02*
X009301Y016475D01*
X009301Y016574D02*
X010774Y016574D01*
X010774Y016672D02*
X009301Y016672D01*
X009301Y016771D02*
X010774Y016771D01*
X010774Y016869D02*
X009301Y016869D01*
X009301Y016968D02*
X010774Y016968D01*
X010774Y017066D02*
X009238Y017066D01*
X009239Y017165D02*
X010774Y017165D01*
X010774Y017263D02*
X009301Y017263D01*
X009301Y017362D02*
X010774Y017362D01*
X010778Y017460D02*
X009301Y017460D01*
X008356Y017165D02*
X007898Y017165D01*
X007898Y017233D02*
X008197Y017233D01*
X008197Y017421D01*
X008187Y017459D01*
X008167Y017493D01*
X008139Y017521D01*
X008105Y017541D01*
X008066Y017551D01*
X007898Y017551D01*
X007898Y017233D01*
X007898Y017263D02*
X007801Y017263D01*
X007801Y017233D02*
X007801Y017551D01*
X007633Y017551D01*
X007595Y017541D01*
X007561Y017521D01*
X007533Y017493D01*
X007513Y017459D01*
X007503Y017421D01*
X007503Y017233D01*
X007801Y017233D01*
X007801Y017165D02*
X007443Y017165D01*
X007443Y017263D02*
X007503Y017263D01*
X007503Y017362D02*
X007443Y017362D01*
X007443Y017460D02*
X007514Y017460D01*
X007801Y017460D02*
X007898Y017460D01*
X007898Y017362D02*
X007801Y017362D01*
X008197Y017362D02*
X008294Y017362D01*
X008294Y017460D02*
X008186Y017460D01*
X008197Y017263D02*
X008294Y017263D01*
X008357Y017066D02*
X008197Y017066D01*
X008197Y016968D02*
X008294Y016968D01*
X008294Y016869D02*
X008160Y016869D01*
X008157Y016771D02*
X008294Y016771D01*
X008294Y016672D02*
X008157Y016672D01*
X008157Y016574D02*
X008294Y016574D01*
X008294Y016475D02*
X008157Y016475D01*
X008157Y016377D02*
X008294Y016377D01*
X008337Y016278D02*
X008157Y016278D01*
X008137Y016081D02*
X008294Y016081D01*
X008294Y015983D02*
X008152Y015983D01*
X008152Y015589D02*
X008294Y015589D01*
X008294Y015490D02*
X008152Y015490D01*
X008152Y015392D02*
X008318Y015392D01*
X007477Y014801D02*
X007404Y014801D01*
X007229Y014572D02*
X007005Y014572D01*
X007229Y014572D02*
X007322Y014479D01*
X007477Y014324D01*
X007592Y014324D01*
X007657Y014259D01*
X007657Y013916D01*
X007813Y013760D01*
X007962Y013760D01*
X007962Y014604D01*
X007962Y014505D02*
X007296Y014505D01*
X007394Y014407D02*
X007962Y014407D01*
X007962Y014308D02*
X007607Y014308D01*
X007657Y014210D02*
X007962Y014210D01*
X007962Y014111D02*
X007657Y014111D01*
X007657Y014013D02*
X007962Y014013D01*
X007962Y013914D02*
X007659Y013914D01*
X007757Y013816D02*
X007962Y013816D01*
X008162Y013850D02*
X008505Y013850D01*
X008505Y014005D01*
X009787Y015287D01*
X009301Y015786D02*
X014162Y015786D01*
X014162Y015884D02*
X011781Y015884D01*
X011781Y015983D02*
X014162Y015983D01*
X014162Y016081D02*
X011781Y016081D01*
X011781Y016180D02*
X014162Y016180D01*
X014162Y016278D02*
X011781Y016278D01*
X011781Y016377D02*
X012396Y016377D01*
X012369Y016475D02*
X011781Y016475D01*
X011781Y016574D02*
X012369Y016574D01*
X012369Y016672D02*
X011781Y016672D01*
X011278Y016662D02*
X011037Y016662D01*
X010774Y016081D02*
X009301Y016081D01*
X009301Y015983D02*
X010774Y015983D01*
X010774Y015884D02*
X009301Y015884D01*
X007850Y016515D02*
X007811Y016476D01*
X007037Y016476D01*
X007038Y016475D01*
X007038Y015725D01*
X007443Y016278D02*
X007543Y016278D01*
X007543Y016672D02*
X007443Y016672D01*
X007443Y016771D02*
X007543Y016771D01*
X007539Y016869D02*
X007390Y016869D01*
X007443Y016968D02*
X007503Y016968D01*
X007503Y017066D02*
X007443Y017066D01*
X006685Y016869D02*
X006575Y016869D01*
X006590Y016968D02*
X006632Y016968D01*
X005858Y017362D02*
X005842Y017362D01*
X005842Y017460D02*
X005858Y017460D01*
X005858Y017559D02*
X005842Y017559D01*
X005972Y017657D02*
X004777Y017657D01*
X004803Y017595D02*
X004690Y017867D01*
X004481Y018076D01*
X004209Y018188D01*
X003915Y018188D01*
X003643Y018076D01*
X003434Y017867D01*
X003321Y017595D01*
X003321Y017301D01*
X003434Y017028D01*
X003643Y016820D01*
X003915Y016707D01*
X004209Y016707D01*
X004481Y016820D01*
X004690Y017028D01*
X004803Y017301D01*
X004803Y017595D01*
X004803Y017559D02*
X005110Y017559D01*
X005110Y017460D02*
X004803Y017460D01*
X004803Y017362D02*
X005110Y017362D01*
X005037Y017263D02*
X004787Y017263D01*
X004746Y017165D02*
X004939Y017165D01*
X004840Y017066D02*
X004706Y017066D01*
X004742Y016968D02*
X004629Y016968D01*
X004643Y016869D02*
X004531Y016869D01*
X004545Y016771D02*
X004363Y016771D01*
X004446Y016672D02*
X001062Y016672D01*
X001062Y016574D02*
X003999Y016574D01*
X003932Y016475D02*
X001062Y016475D01*
X001062Y016377D02*
X001863Y016377D01*
X001852Y016371D02*
X001824Y016343D01*
X001805Y016308D01*
X001794Y016270D01*
X001794Y016025D01*
X002209Y016025D01*
X002209Y015925D01*
X001794Y015925D01*
X001794Y015680D01*
X001805Y015641D01*
X001824Y015607D01*
X001852Y015579D01*
X001886Y015560D01*
X001925Y015549D01*
X002209Y015549D01*
X002209Y015925D01*
X002309Y015925D01*
X002309Y015549D01*
X002594Y015549D01*
X002632Y015560D01*
X002666Y015579D01*
X002694Y015607D01*
X002714Y015641D01*
X002724Y015680D01*
X002724Y015925D01*
X002309Y015925D01*
X002309Y016025D01*
X002209Y016025D01*
X002209Y016400D01*
X001925Y016400D01*
X001886Y016390D01*
X001852Y016371D01*
X001797Y016278D02*
X001062Y016278D01*
X001062Y016180D02*
X001794Y016180D01*
X001794Y016081D02*
X001062Y016081D01*
X001062Y015983D02*
X002209Y015983D01*
X002209Y016081D02*
X002309Y016081D01*
X002309Y016025D02*
X002309Y016400D01*
X002594Y016400D01*
X002632Y016390D01*
X002666Y016371D01*
X002694Y016343D01*
X002714Y016308D01*
X002724Y016270D01*
X002724Y016025D01*
X002309Y016025D01*
X002309Y015983D02*
X003015Y015983D01*
X003015Y016081D02*
X002724Y016081D01*
X002724Y016180D02*
X003015Y016180D01*
X003015Y016278D02*
X002722Y016278D01*
X002655Y016377D02*
X003932Y016377D01*
X003865Y016296D02*
X003801Y016360D01*
X003080Y016360D01*
X003015Y016296D01*
X003015Y015654D01*
X003080Y015589D01*
X003801Y015589D01*
X003865Y015654D01*
X003865Y016296D01*
X003865Y016278D02*
X003971Y016278D01*
X003865Y016180D02*
X005096Y016180D01*
X005096Y016278D02*
X004505Y016278D01*
X004603Y016377D02*
X005096Y016377D01*
X005096Y016475D02*
X004702Y016475D01*
X004800Y016574D02*
X005096Y016574D01*
X005096Y016672D02*
X004899Y016672D01*
X004997Y016771D02*
X005148Y016771D01*
X005125Y016869D02*
X005096Y016869D01*
X005162Y017162D02*
X005413Y017162D01*
X005476Y017225D01*
X005162Y017162D02*
X004412Y016412D01*
X004162Y016412D01*
X004326Y016574D02*
X004348Y016574D01*
X003761Y016771D02*
X001377Y016771D01*
X001578Y016825D02*
X001578Y016825D01*
X001655Y016869D02*
X003593Y016869D01*
X003495Y016968D02*
X001826Y016968D01*
X001986Y017066D02*
X003418Y017066D01*
X003378Y017165D02*
X002084Y017165D01*
X002183Y017263D02*
X003337Y017263D01*
X003321Y017362D02*
X002281Y017362D01*
X002293Y017373D02*
X002293Y017373D01*
X002343Y017460D02*
X003321Y017460D01*
X003321Y017559D02*
X002400Y017559D01*
X002457Y017657D02*
X003347Y017657D01*
X003388Y017756D02*
X002514Y017756D01*
X002543Y017854D02*
X003429Y017854D01*
X003520Y017953D02*
X002570Y017953D01*
X002596Y018051D02*
X003618Y018051D01*
X003822Y018150D02*
X002622Y018150D01*
X002637Y018248D02*
X006052Y018248D01*
X005967Y018150D02*
X004302Y018150D01*
X004506Y018051D02*
X005961Y018051D01*
X005961Y017854D02*
X004695Y017854D01*
X004736Y017756D02*
X005961Y017756D01*
X006279Y017953D02*
X004604Y017953D01*
X006279Y018051D02*
X006376Y018051D01*
X006376Y018150D02*
X006279Y018150D01*
X006279Y018248D02*
X006376Y018248D01*
X006603Y018248D02*
X012054Y018248D01*
X012862Y016672D02*
X012962Y016672D01*
X012962Y016574D02*
X012862Y016574D01*
X012862Y016475D02*
X012962Y016475D01*
X012962Y016377D02*
X012862Y016377D01*
X013429Y016377D02*
X014162Y016377D01*
X014162Y016475D02*
X013456Y016475D01*
X013456Y016574D02*
X014162Y016574D01*
X014162Y016672D02*
X013456Y016672D01*
X014350Y016672D02*
X026747Y016672D01*
X026747Y016574D02*
X017201Y016574D01*
X016874Y016574D02*
X014350Y016574D01*
X014350Y016475D02*
X015187Y016475D01*
X015088Y016377D02*
X014350Y016377D01*
X014350Y016278D02*
X014990Y016278D01*
X014891Y016180D02*
X014350Y016180D01*
X014350Y016081D02*
X014793Y016081D01*
X014694Y015983D02*
X014350Y015983D01*
X014350Y015884D02*
X014596Y015884D01*
X014497Y015786D02*
X014350Y015786D01*
X014654Y015490D02*
X017743Y015490D01*
X017743Y015589D02*
X014753Y015589D01*
X014851Y015687D02*
X017743Y015687D01*
X017743Y015738D02*
X017743Y015609D01*
X018317Y015609D01*
X018317Y015868D01*
X017873Y015868D01*
X017835Y015858D01*
X017801Y015838D01*
X017773Y015810D01*
X017753Y015776D01*
X017743Y015738D01*
X017759Y015786D02*
X014950Y015786D01*
X015048Y015884D02*
X021277Y015884D01*
X021375Y015786D02*
X020894Y015786D01*
X020917Y015687D02*
X021418Y015687D01*
X021418Y015589D02*
X020917Y015589D01*
X020917Y015490D02*
X021418Y015490D01*
X021301Y015392D02*
X020872Y015392D01*
X020887Y015293D02*
X021251Y015293D01*
X021578Y015100D02*
X021586Y015098D01*
X021594Y015094D01*
X021598Y015086D01*
X021600Y015078D01*
X021600Y010475D01*
X021787Y010287D01*
X022311Y010287D01*
X022537Y010287D01*
X022854Y010270D02*
X023800Y010270D01*
X023785Y010279D02*
X023861Y010235D01*
X023943Y010201D01*
X024029Y010178D01*
X024110Y010167D01*
X024110Y010791D01*
X024210Y010791D01*
X024210Y010167D01*
X024292Y010178D01*
X024378Y010201D01*
X024460Y010235D01*
X024536Y010279D01*
X024606Y010333D01*
X024669Y010395D01*
X024723Y010466D01*
X024767Y010542D01*
X024801Y010624D01*
X024824Y010710D01*
X024835Y010791D01*
X024210Y010791D01*
X024210Y010891D01*
X024835Y010891D01*
X024824Y010973D01*
X024801Y011059D01*
X024767Y011141D01*
X024723Y011217D01*
X024669Y011288D01*
X024606Y011350D01*
X024536Y011404D01*
X024460Y011448D01*
X024378Y011482D01*
X024292Y011505D01*
X024210Y011516D01*
X024210Y010892D01*
X024110Y010892D01*
X024110Y011516D01*
X024029Y011505D01*
X023943Y011482D01*
X023861Y011448D01*
X023785Y011404D01*
X023714Y011350D01*
X023652Y011288D01*
X023598Y011217D01*
X023554Y011141D01*
X023520Y011059D01*
X023497Y010973D01*
X023486Y010891D01*
X024110Y010891D01*
X024110Y010791D01*
X023486Y010791D01*
X023497Y010710D01*
X023520Y010624D01*
X023554Y010542D01*
X023598Y010466D01*
X023652Y010395D01*
X023714Y010333D01*
X023785Y010279D01*
X023679Y010368D02*
X022854Y010368D01*
X022838Y010467D02*
X023597Y010467D01*
X023544Y010565D02*
X022796Y010565D01*
X022790Y010559D02*
X022854Y010624D01*
X022854Y010951D01*
X022790Y011016D01*
X021832Y011016D01*
X021768Y010951D01*
X021768Y010624D01*
X021832Y010559D01*
X022790Y010559D01*
X022854Y010664D02*
X023509Y010664D01*
X023490Y010762D02*
X022854Y010762D01*
X022854Y010861D02*
X024110Y010861D01*
X024110Y010959D02*
X024210Y010959D01*
X024210Y010861D02*
X026118Y010861D01*
X026118Y010791D02*
X025494Y010791D01*
X025505Y010710D01*
X025528Y010624D01*
X025562Y010542D01*
X025606Y010466D01*
X025660Y010395D01*
X025722Y010333D01*
X025792Y010279D01*
X025869Y010235D01*
X025951Y010201D01*
X026036Y010178D01*
X026118Y010167D01*
X026118Y010791D01*
X026118Y010762D02*
X026218Y010762D01*
X026218Y010664D02*
X026118Y010664D01*
X026118Y010565D02*
X026218Y010565D01*
X026218Y010467D02*
X026118Y010467D01*
X026118Y010368D02*
X026218Y010368D01*
X026218Y010270D02*
X026118Y010270D01*
X026118Y010171D02*
X026218Y010171D01*
X026250Y010171D02*
X026747Y010171D01*
X026747Y010073D02*
X025592Y010073D01*
X025576Y010112D02*
X025439Y010249D01*
X025261Y010323D01*
X025068Y010323D01*
X024890Y010249D01*
X024753Y010112D01*
X024706Y009998D01*
X022808Y009998D01*
X022790Y010016D01*
X021832Y010016D01*
X021768Y009951D01*
X021768Y009624D01*
X021832Y009559D01*
X022790Y009559D01*
X022854Y009624D01*
X022854Y009678D01*
X023065Y009678D01*
X023065Y009082D01*
X022847Y008864D01*
X022505Y008864D01*
X022440Y008800D01*
X022440Y008275D01*
X022505Y008211D01*
X022989Y008211D01*
X023054Y008275D01*
X023054Y008618D01*
X023291Y008855D01*
X023385Y008949D01*
X023385Y009678D01*
X024706Y009678D01*
X024753Y009563D01*
X024890Y009426D01*
X025068Y009353D01*
X025261Y009353D01*
X025439Y009426D01*
X025576Y009563D01*
X025649Y009741D01*
X025649Y009934D01*
X025576Y010112D01*
X025516Y010171D02*
X026087Y010171D01*
X025808Y010270D02*
X025388Y010270D01*
X025605Y010467D02*
X024724Y010467D01*
X024777Y010565D02*
X025552Y010565D01*
X025517Y010664D02*
X024812Y010664D01*
X024831Y010762D02*
X025498Y010762D01*
X025503Y010959D02*
X024826Y010959D01*
X024801Y011058D02*
X025527Y011058D01*
X025571Y011156D02*
X024758Y011156D01*
X024694Y011255D02*
X025635Y011255D01*
X025727Y011353D02*
X024602Y011353D01*
X024451Y011452D02*
X025878Y011452D01*
X026118Y011452D02*
X026218Y011452D01*
X026218Y011353D02*
X026118Y011353D01*
X026118Y011255D02*
X026218Y011255D01*
X026218Y011156D02*
X026118Y011156D01*
X026118Y011058D02*
X026218Y011058D01*
X026218Y010959D02*
X026118Y010959D01*
X026458Y011452D02*
X026747Y011452D01*
X026747Y011550D02*
X021760Y011550D01*
X021760Y011452D02*
X023870Y011452D01*
X023719Y011353D02*
X021760Y011353D01*
X021760Y011255D02*
X023627Y011255D01*
X023563Y011156D02*
X021760Y011156D01*
X021760Y011058D02*
X023520Y011058D01*
X023495Y010959D02*
X022846Y010959D01*
X021826Y010565D02*
X021760Y010565D01*
X021760Y010664D02*
X021768Y010664D01*
X021760Y010762D02*
X021768Y010762D01*
X021760Y010861D02*
X021768Y010861D01*
X021760Y010959D02*
X021776Y010959D01*
X021440Y010959D02*
X021220Y010959D01*
X021220Y010861D02*
X021440Y010861D01*
X021440Y010762D02*
X021220Y010762D01*
X021220Y010664D02*
X021440Y010664D01*
X021440Y010565D02*
X021220Y010565D01*
X021220Y010467D02*
X021440Y010467D01*
X021480Y010368D02*
X021220Y010368D01*
X021220Y011523D01*
X021302Y011523D01*
X021366Y011588D01*
X021366Y012112D01*
X021302Y012176D01*
X020817Y012176D01*
X020753Y012112D01*
X020753Y011588D01*
X020817Y011523D01*
X020900Y011523D01*
X020900Y010501D01*
X020846Y010447D01*
X020807Y010447D01*
X020807Y010451D01*
X020742Y010516D01*
X019785Y010516D01*
X019721Y010451D01*
X019721Y010407D01*
X019676Y010407D01*
X019676Y010489D01*
X019612Y010554D01*
X019088Y010554D01*
X019023Y010489D01*
X019023Y010005D01*
X019088Y009940D01*
X019612Y009940D01*
X019676Y010005D01*
X019676Y010087D01*
X019757Y010087D01*
X019785Y010059D01*
X020742Y010059D01*
X020807Y010124D01*
X020807Y010127D01*
X020846Y010127D01*
X021337Y009636D01*
X021337Y008864D01*
X021255Y008864D01*
X021190Y008800D01*
X021190Y008275D01*
X021255Y008211D01*
X021739Y008211D01*
X021787Y008259D01*
X021835Y008211D01*
X022320Y008211D01*
X022385Y008275D01*
X022385Y008800D01*
X022320Y008864D01*
X021835Y008864D01*
X021787Y008816D01*
X021739Y008864D01*
X021657Y008864D01*
X021657Y009769D01*
X021139Y010287D01*
X021220Y010368D01*
X021156Y010270D02*
X021579Y010270D01*
X021677Y010171D02*
X021255Y010171D01*
X021353Y010073D02*
X021819Y010073D01*
X021791Y009974D02*
X021452Y009974D01*
X021550Y009876D02*
X021768Y009876D01*
X021768Y009777D02*
X021649Y009777D01*
X021657Y009679D02*
X021768Y009679D01*
X021811Y009580D02*
X021657Y009580D01*
X021657Y009482D02*
X021749Y009482D01*
X021758Y009498D02*
X021738Y009463D01*
X021728Y009425D01*
X021728Y009296D01*
X022302Y009296D01*
X022302Y009278D01*
X022320Y009278D01*
X022320Y009019D01*
X022764Y009019D01*
X022802Y009030D01*
X022836Y009049D01*
X022864Y009077D01*
X022884Y009111D01*
X022894Y009150D01*
X022894Y009278D01*
X022320Y009278D01*
X022320Y009296D01*
X022894Y009296D01*
X022894Y009425D01*
X022884Y009463D01*
X022864Y009498D01*
X022836Y009526D01*
X022802Y009545D01*
X022764Y009556D01*
X022320Y009556D01*
X022320Y009296D01*
X022302Y009296D01*
X022302Y009556D01*
X021858Y009556D01*
X021820Y009545D01*
X021786Y009526D01*
X021758Y009498D01*
X021728Y009383D02*
X021657Y009383D01*
X021657Y009285D02*
X022302Y009285D01*
X022302Y009278D02*
X021728Y009278D01*
X021728Y009150D01*
X021738Y009111D01*
X021758Y009077D01*
X021786Y009049D01*
X021820Y009030D01*
X021858Y009019D01*
X022302Y009019D01*
X022302Y009278D01*
X022320Y009285D02*
X023065Y009285D01*
X023065Y009383D02*
X022894Y009383D01*
X022873Y009482D02*
X023065Y009482D01*
X023065Y009580D02*
X022811Y009580D01*
X023225Y009838D02*
X023225Y009015D01*
X022747Y008537D01*
X022440Y008497D02*
X022385Y008497D01*
X022385Y008595D02*
X022440Y008595D01*
X022440Y008694D02*
X022385Y008694D01*
X022385Y008792D02*
X022440Y008792D01*
X022874Y008891D02*
X021657Y008891D01*
X021657Y008989D02*
X022973Y008989D01*
X023065Y009088D02*
X022870Y009088D01*
X022894Y009186D02*
X023065Y009186D01*
X023385Y009186D02*
X023585Y009186D01*
X023598Y009210D02*
X023554Y009133D01*
X023520Y009051D01*
X023497Y008966D01*
X023486Y008884D01*
X024110Y008884D01*
X024110Y008784D01*
X023486Y008784D01*
X023497Y008702D01*
X023520Y008616D01*
X023554Y008535D01*
X023598Y008458D01*
X023652Y008388D01*
X023714Y008325D01*
X023785Y008271D01*
X023861Y008227D01*
X023943Y008193D01*
X024029Y008170D01*
X024110Y008159D01*
X024110Y008784D01*
X024210Y008784D01*
X024210Y008159D01*
X024292Y008170D01*
X024378Y008193D01*
X024460Y008227D01*
X024536Y008271D01*
X024606Y008325D01*
X024669Y008388D01*
X024723Y008458D01*
X024767Y008535D01*
X024801Y008616D01*
X024824Y008702D01*
X024835Y008784D01*
X024210Y008784D01*
X024210Y008884D01*
X024110Y008884D01*
X024110Y009508D01*
X024029Y009497D01*
X023943Y009474D01*
X023861Y009440D01*
X023785Y009396D01*
X023714Y009342D01*
X023652Y009280D01*
X023598Y009210D01*
X023657Y009285D02*
X023385Y009285D01*
X023385Y009383D02*
X023768Y009383D01*
X023972Y009482D02*
X023385Y009482D01*
X023385Y009580D02*
X024746Y009580D01*
X024834Y009482D02*
X024349Y009482D01*
X024378Y009474D02*
X024292Y009497D01*
X024210Y009508D01*
X024210Y008884D01*
X024835Y008884D01*
X024824Y008966D01*
X024801Y009051D01*
X024767Y009133D01*
X024723Y009210D01*
X024669Y009280D01*
X024606Y009342D01*
X024536Y009396D01*
X024460Y009440D01*
X024378Y009474D01*
X024210Y009482D02*
X024110Y009482D01*
X024110Y009383D02*
X024210Y009383D01*
X024210Y009285D02*
X024110Y009285D01*
X024110Y009186D02*
X024210Y009186D01*
X024210Y009088D02*
X024110Y009088D01*
X024110Y008989D02*
X024210Y008989D01*
X024210Y008891D02*
X024110Y008891D01*
X024110Y008792D02*
X023228Y008792D01*
X023130Y008694D02*
X023499Y008694D01*
X023529Y008595D02*
X023054Y008595D01*
X023054Y008497D02*
X023575Y008497D01*
X023644Y008398D02*
X023054Y008398D01*
X023054Y008300D02*
X023747Y008300D01*
X023923Y008201D02*
X020947Y008201D01*
X020947Y008211D02*
X020947Y008034D01*
X020854Y007940D01*
X020791Y007877D01*
X020640Y007877D01*
X020570Y007807D01*
X020380Y007807D01*
X020322Y007865D01*
X020322Y007846D01*
X020229Y007752D01*
X020041Y007565D01*
X018409Y007565D01*
X018315Y007659D01*
X018127Y007846D01*
X018127Y007935D01*
X018057Y008005D01*
X018057Y008195D01*
X018192Y008330D01*
X018383Y008330D01*
X018517Y008195D01*
X018517Y008005D01*
X018469Y007957D01*
X018541Y007885D01*
X019909Y007885D01*
X020002Y007979D01*
X020002Y008293D01*
X019922Y008293D01*
X019871Y008344D01*
X019852Y008311D01*
X019824Y008283D01*
X019790Y008263D01*
X019752Y008253D01*
X019564Y008253D01*
X019564Y008551D01*
X019467Y008551D01*
X019467Y008253D01*
X019279Y008253D01*
X019241Y008263D01*
X019207Y008283D01*
X019179Y008311D01*
X019159Y008345D01*
X019149Y008383D01*
X019149Y008551D01*
X019467Y008551D01*
X019467Y008648D01*
X019149Y008648D01*
X019149Y008816D01*
X019159Y008855D01*
X019179Y008889D01*
X019207Y008917D01*
X019241Y008937D01*
X019279Y008947D01*
X019467Y008947D01*
X019467Y008648D01*
X019564Y008648D01*
X019564Y008947D01*
X019752Y008947D01*
X019790Y008937D01*
X019824Y008917D01*
X019852Y008889D01*
X019871Y008855D01*
X019922Y008907D01*
X020104Y008907D01*
X020104Y009059D01*
X019785Y009059D01*
X019721Y009124D01*
X019721Y009451D01*
X019785Y009516D01*
X020742Y009516D01*
X020807Y009451D01*
X020807Y009124D01*
X020742Y009059D01*
X020424Y009059D01*
X020424Y008907D01*
X020447Y008907D01*
X020511Y008842D01*
X020511Y008357D01*
X020447Y008293D01*
X020322Y008293D01*
X020322Y008210D01*
X020380Y008267D01*
X020529Y008267D01*
X020521Y008275D01*
X020521Y008800D01*
X020585Y008864D01*
X021070Y008864D01*
X021135Y008800D01*
X021135Y008275D01*
X021070Y008211D01*
X020947Y008211D01*
X020947Y008103D02*
X026747Y008103D01*
X026747Y008201D02*
X026406Y008201D01*
X026218Y008201D02*
X026118Y008201D01*
X026118Y008300D02*
X026218Y008300D01*
X026218Y008398D02*
X026118Y008398D01*
X026118Y008497D02*
X026218Y008497D01*
X026218Y008595D02*
X026118Y008595D01*
X026118Y008694D02*
X026218Y008694D01*
X026118Y008792D02*
X024210Y008792D01*
X024210Y008694D02*
X024110Y008694D01*
X024110Y008595D02*
X024210Y008595D01*
X024210Y008497D02*
X024110Y008497D01*
X024110Y008398D02*
X024210Y008398D01*
X024210Y008300D02*
X024110Y008300D01*
X024110Y008201D02*
X024210Y008201D01*
X024398Y008201D02*
X025931Y008201D01*
X025755Y008300D02*
X024574Y008300D01*
X024677Y008398D02*
X025651Y008398D01*
X025583Y008497D02*
X024745Y008497D01*
X024792Y008595D02*
X025536Y008595D01*
X025507Y008694D02*
X024822Y008694D01*
X024834Y008891D02*
X025495Y008891D01*
X025511Y008989D02*
X024818Y008989D01*
X024786Y009088D02*
X025543Y009088D01*
X025592Y009186D02*
X024736Y009186D01*
X024664Y009285D02*
X025665Y009285D01*
X025776Y009383D02*
X025335Y009383D01*
X025495Y009482D02*
X025979Y009482D01*
X026118Y009482D02*
X026218Y009482D01*
X026218Y009383D02*
X026118Y009383D01*
X026118Y009285D02*
X026218Y009285D01*
X026218Y009186D02*
X026118Y009186D01*
X026118Y009088D02*
X026218Y009088D01*
X026218Y008989D02*
X026118Y008989D01*
X026118Y008891D02*
X026218Y008891D01*
X026672Y009285D02*
X026747Y009285D01*
X026747Y009383D02*
X026561Y009383D01*
X026747Y009482D02*
X026357Y009482D01*
X026747Y009580D02*
X025583Y009580D01*
X025624Y009679D02*
X026747Y009679D01*
X026747Y009777D02*
X025649Y009777D01*
X025649Y009876D02*
X026747Y009876D01*
X026747Y009974D02*
X025633Y009974D01*
X025164Y009838D02*
X023225Y009838D01*
X022361Y009838D01*
X022311Y009787D01*
X022302Y009482D02*
X022320Y009482D01*
X022320Y009383D02*
X022302Y009383D01*
X022302Y009186D02*
X022320Y009186D01*
X022320Y009088D02*
X022302Y009088D01*
X021752Y009088D02*
X021657Y009088D01*
X021657Y009186D02*
X021728Y009186D01*
X021337Y009186D02*
X020807Y009186D01*
X020807Y009285D02*
X021337Y009285D01*
X021337Y009383D02*
X020807Y009383D01*
X020776Y009482D02*
X021337Y009482D01*
X021337Y009580D02*
X020819Y009580D01*
X020817Y009577D02*
X020837Y009611D01*
X020847Y009650D01*
X020847Y009778D01*
X020273Y009778D01*
X020273Y009519D01*
X020717Y009519D01*
X020755Y009530D01*
X020789Y009549D01*
X020817Y009577D01*
X020847Y009679D02*
X021295Y009679D01*
X021196Y009777D02*
X020847Y009777D01*
X020847Y009796D02*
X020847Y009925D01*
X020837Y009963D01*
X020817Y009998D01*
X020789Y010026D01*
X020755Y010045D01*
X020717Y010056D01*
X020273Y010056D01*
X020273Y009796D01*
X020847Y009796D01*
X020847Y009876D02*
X021098Y009876D01*
X020999Y009974D02*
X020830Y009974D01*
X020901Y010073D02*
X020756Y010073D01*
X020912Y010287D02*
X021497Y009703D01*
X021497Y008537D01*
X022078Y008537D01*
X022385Y008398D02*
X022440Y008398D01*
X022440Y008300D02*
X022385Y008300D01*
X021337Y008891D02*
X020462Y008891D01*
X020424Y008989D02*
X021337Y008989D01*
X021337Y009088D02*
X020771Y009088D01*
X020521Y008792D02*
X020511Y008792D01*
X020511Y008694D02*
X020521Y008694D01*
X020511Y008595D02*
X020521Y008595D01*
X020511Y008497D02*
X020521Y008497D01*
X020511Y008398D02*
X020521Y008398D01*
X020521Y008300D02*
X020454Y008300D01*
X020475Y008037D02*
X020725Y008037D01*
X020787Y008100D01*
X020787Y008497D01*
X020828Y008537D01*
X021135Y008497D02*
X021190Y008497D01*
X021190Y008595D02*
X021135Y008595D01*
X021135Y008694D02*
X021190Y008694D01*
X021190Y008792D02*
X021135Y008792D01*
X021135Y008398D02*
X021190Y008398D01*
X021190Y008300D02*
X021135Y008300D01*
X020918Y008004D02*
X026747Y008004D01*
X026747Y007906D02*
X020820Y007906D01*
X020570Y007807D02*
X026747Y007807D01*
X026747Y007709D02*
X020185Y007709D01*
X020087Y007610D02*
X026747Y007610D01*
X026747Y007512D02*
X017518Y007512D01*
X017518Y007610D02*
X018363Y007610D01*
X018265Y007709D02*
X017518Y007709D01*
X017518Y007807D02*
X018166Y007807D01*
X018127Y007906D02*
X017518Y007906D01*
X017518Y008004D02*
X018058Y008004D01*
X018057Y008103D02*
X017518Y008103D01*
X017518Y008201D02*
X018064Y008201D01*
X018162Y008300D02*
X017518Y008300D01*
X017518Y008398D02*
X019149Y008398D01*
X019149Y008497D02*
X017518Y008497D01*
X017518Y008595D02*
X019467Y008595D01*
X019467Y008497D02*
X019564Y008497D01*
X019564Y008398D02*
X019467Y008398D01*
X019467Y008300D02*
X019564Y008300D01*
X019841Y008300D02*
X019916Y008300D01*
X020002Y008201D02*
X018511Y008201D01*
X018517Y008103D02*
X020002Y008103D01*
X020002Y008004D02*
X018517Y008004D01*
X018520Y007906D02*
X019930Y007906D01*
X019975Y007725D02*
X020162Y007912D01*
X020162Y008578D01*
X020185Y008600D01*
X020264Y008679D01*
X020264Y009287D01*
X020255Y009519D02*
X019811Y009519D01*
X019773Y009530D01*
X019739Y009549D01*
X019711Y009577D01*
X019691Y009611D01*
X019681Y009650D01*
X019681Y009778D01*
X020255Y009778D01*
X020273Y009778D01*
X020273Y009796D01*
X020255Y009796D01*
X020255Y009778D01*
X020255Y009519D01*
X020255Y009580D02*
X020273Y009580D01*
X020273Y009679D02*
X020255Y009679D01*
X020255Y009777D02*
X020273Y009777D01*
X020255Y009796D02*
X019681Y009796D01*
X019681Y009925D01*
X019691Y009963D01*
X019711Y009998D01*
X019739Y010026D01*
X019773Y010045D01*
X019811Y010056D01*
X020255Y010056D01*
X020255Y009796D01*
X020255Y009876D02*
X020273Y009876D01*
X020273Y009974D02*
X020255Y009974D01*
X020223Y010247D02*
X020264Y010287D01*
X020912Y010287D01*
X021060Y010435D01*
X021060Y011850D01*
X021366Y011846D02*
X021440Y011846D01*
X021440Y011944D02*
X021366Y011944D01*
X021366Y012043D02*
X021440Y012043D01*
X021440Y012141D02*
X021337Y012141D01*
X021440Y012240D02*
X019907Y012240D01*
X019907Y012338D02*
X021440Y012338D01*
X021440Y012437D02*
X019907Y012437D01*
X019907Y012535D02*
X021440Y012535D01*
X021440Y012634D02*
X019907Y012634D01*
X019907Y012732D02*
X021440Y012732D01*
X021440Y012831D02*
X019907Y012831D01*
X020021Y012929D02*
X021440Y012929D01*
X021440Y013028D02*
X020054Y013028D01*
X020054Y013126D02*
X021440Y013126D01*
X021440Y013225D02*
X020054Y013225D01*
X020054Y013323D02*
X021440Y013323D01*
X021440Y013422D02*
X020054Y013422D01*
X020020Y013520D02*
X021440Y013520D01*
X021440Y013619D02*
X019885Y013619D01*
X019885Y013717D02*
X021440Y013717D01*
X021440Y013816D02*
X019885Y013816D01*
X020364Y013914D02*
X020383Y013914D01*
X020383Y013832D02*
X020826Y013832D01*
X020864Y013842D01*
X020899Y013862D01*
X020927Y013890D01*
X020946Y013924D01*
X020957Y013962D01*
X020957Y014091D01*
X020383Y014091D01*
X020383Y013832D01*
X020364Y014013D02*
X020383Y014013D01*
X020383Y014111D02*
X020364Y014111D01*
X020364Y014210D02*
X020383Y014210D01*
X020383Y014308D02*
X020364Y014308D01*
X020374Y014600D02*
X019850Y014600D01*
X019725Y014475D01*
X019725Y013247D01*
X019747Y013225D01*
X019747Y012078D01*
X019975Y011850D01*
X020390Y011850D01*
X020697Y011846D02*
X020753Y011846D01*
X020753Y011944D02*
X020697Y011944D01*
X020697Y012043D02*
X020753Y012043D01*
X020782Y012141D02*
X020668Y012141D01*
X020697Y011747D02*
X020753Y011747D01*
X020753Y011649D02*
X020697Y011649D01*
X020660Y011550D02*
X020790Y011550D01*
X020900Y011452D02*
X018472Y011452D01*
X018461Y011463D02*
X018427Y011483D01*
X018389Y011493D01*
X017945Y011493D01*
X017945Y011234D01*
X017927Y011234D01*
X017927Y011493D01*
X017483Y011493D01*
X017445Y011483D01*
X017411Y011463D01*
X017383Y011435D01*
X017363Y011401D01*
X017353Y011363D01*
X017353Y011234D01*
X017927Y011234D01*
X017927Y011216D01*
X017353Y011216D01*
X017353Y011087D01*
X017363Y011049D01*
X017383Y011015D01*
X017411Y010987D01*
X017445Y010967D01*
X017483Y010957D01*
X017927Y010957D01*
X017927Y011216D01*
X017945Y011216D01*
X017945Y011234D01*
X018519Y011234D01*
X018519Y011363D01*
X018509Y011401D01*
X018489Y011435D01*
X018461Y011463D01*
X018468Y011550D02*
X018574Y011550D01*
X018519Y011353D02*
X020900Y011353D01*
X020900Y011255D02*
X018519Y011255D01*
X018519Y011216D02*
X017945Y011216D01*
X017945Y010957D01*
X018389Y010957D01*
X018427Y010967D01*
X018461Y010987D01*
X018489Y011015D01*
X018509Y011049D01*
X018519Y011087D01*
X018519Y011216D01*
X018519Y011156D02*
X020900Y011156D01*
X020900Y011058D02*
X018511Y011058D01*
X018415Y010953D02*
X018479Y010889D01*
X018479Y010561D01*
X018415Y010497D01*
X017822Y010497D01*
X017820Y010495D01*
X017630Y010495D01*
X017628Y010497D01*
X017457Y010497D01*
X017393Y010561D01*
X017393Y010889D01*
X017457Y010953D01*
X017628Y010953D01*
X017630Y010955D01*
X017820Y010955D01*
X017822Y010953D01*
X018415Y010953D01*
X018399Y010959D02*
X019690Y010959D01*
X019691Y010963D02*
X019681Y010925D01*
X019681Y010796D01*
X020255Y010796D01*
X020255Y010778D01*
X020273Y010778D01*
X020273Y010519D01*
X020717Y010519D01*
X020755Y010530D01*
X020789Y010549D01*
X020817Y010577D01*
X020837Y010611D01*
X020847Y010650D01*
X020847Y010778D01*
X020273Y010778D01*
X020273Y010796D01*
X020847Y010796D01*
X020847Y010925D01*
X020837Y010963D01*
X020817Y010998D01*
X020789Y011026D01*
X020755Y011045D01*
X020717Y011056D01*
X020273Y011056D01*
X020273Y010796D01*
X020255Y010796D01*
X020255Y011056D01*
X019811Y011056D01*
X019773Y011045D01*
X019739Y011026D01*
X019711Y010998D01*
X019691Y010963D01*
X019681Y010861D02*
X018479Y010861D01*
X018479Y010762D02*
X019681Y010762D01*
X019681Y010778D02*
X019681Y010650D01*
X019691Y010611D01*
X019711Y010577D01*
X019739Y010549D01*
X019773Y010530D01*
X019811Y010519D01*
X020255Y010519D01*
X020255Y010778D01*
X019681Y010778D01*
X019681Y010664D02*
X018479Y010664D01*
X018479Y010565D02*
X019722Y010565D01*
X019737Y010467D02*
X019676Y010467D01*
X019350Y010247D02*
X020223Y010247D01*
X019772Y010073D02*
X019676Y010073D01*
X019697Y009974D02*
X019646Y009974D01*
X019612Y009885D02*
X019088Y009885D01*
X019023Y009820D01*
X019023Y009335D01*
X019088Y009271D01*
X019612Y009271D01*
X019676Y009335D01*
X019676Y009820D01*
X019612Y009885D01*
X019621Y009876D02*
X019681Y009876D01*
X019676Y009777D02*
X019681Y009777D01*
X019676Y009679D02*
X019681Y009679D01*
X019676Y009580D02*
X019709Y009580D01*
X019676Y009482D02*
X019752Y009482D01*
X019721Y009383D02*
X019676Y009383D01*
X019721Y009285D02*
X019626Y009285D01*
X019721Y009186D02*
X019012Y009186D01*
X019017Y009192D02*
X019017Y009383D01*
X018947Y009453D01*
X018947Y009604D01*
X018854Y009697D01*
X018729Y009822D01*
X017354Y009822D01*
X017205Y009971D01*
X017205Y010070D01*
X017070Y010205D01*
X016880Y010205D01*
X016745Y010070D01*
X016745Y009880D01*
X016880Y009745D01*
X016979Y009745D01*
X017127Y009596D01*
X017198Y009525D01*
X017198Y007145D01*
X016998Y007145D01*
X016933Y007081D01*
X016933Y006940D01*
X016898Y006940D01*
X016883Y006955D01*
X016692Y006955D01*
X016557Y006820D01*
X016557Y006791D01*
X015856Y006791D01*
X015792Y006727D01*
X015792Y005848D01*
X015856Y005784D01*
X016577Y005784D01*
X016641Y005848D01*
X016641Y006546D01*
X016692Y006495D01*
X016883Y006495D01*
X016933Y006546D01*
X016933Y006478D01*
X016998Y006414D01*
X017719Y006414D01*
X017783Y006478D01*
X017783Y007081D01*
X017719Y007145D01*
X017518Y007145D01*
X017518Y009502D01*
X018596Y009502D01*
X018627Y009471D01*
X018627Y009453D01*
X018557Y009383D01*
X018557Y009192D01*
X018692Y009057D01*
X018883Y009057D01*
X019017Y009192D01*
X019017Y009285D02*
X019074Y009285D01*
X019023Y009383D02*
X019017Y009383D01*
X019023Y009482D02*
X018947Y009482D01*
X018947Y009580D02*
X019023Y009580D01*
X019023Y009679D02*
X018872Y009679D01*
X018774Y009777D02*
X019023Y009777D01*
X019079Y009876D02*
X017300Y009876D01*
X017205Y009974D02*
X019054Y009974D01*
X019023Y010073D02*
X018479Y010073D01*
X018479Y010061D02*
X018479Y010389D01*
X018415Y010453D01*
X017885Y010453D01*
X017883Y010455D01*
X017692Y010455D01*
X017690Y010453D01*
X017457Y010453D01*
X017393Y010389D01*
X017393Y010061D01*
X017457Y009997D01*
X017690Y009997D01*
X017692Y009995D01*
X017883Y009995D01*
X017885Y009997D01*
X018415Y009997D01*
X018479Y010061D01*
X018479Y010171D02*
X019023Y010171D01*
X019023Y010270D02*
X018479Y010270D01*
X018479Y010368D02*
X019023Y010368D01*
X019023Y010467D02*
X017131Y010467D01*
X017104Y010440D02*
X017197Y010534D01*
X017197Y012435D01*
X017267Y012505D01*
X017267Y012695D01*
X017133Y012830D01*
X016942Y012830D01*
X016807Y012695D01*
X016807Y012505D01*
X016877Y012435D01*
X016877Y011335D01*
X016758Y011455D01*
X016567Y011455D01*
X016497Y011385D01*
X016432Y011385D01*
X016432Y011389D01*
X016367Y011453D01*
X015410Y011453D01*
X015346Y011389D01*
X015346Y011061D01*
X015410Y010997D01*
X016367Y010997D01*
X016432Y011061D01*
X016432Y011065D01*
X016497Y011065D01*
X016567Y010995D01*
X016758Y010995D01*
X016877Y011115D01*
X016877Y010666D01*
X016596Y010385D01*
X016432Y010385D01*
X016432Y010389D01*
X016367Y010453D01*
X015410Y010453D01*
X015346Y010389D01*
X015346Y010061D01*
X015410Y009997D01*
X015729Y009997D01*
X015729Y009824D01*
X015670Y009824D01*
X015606Y009759D01*
X015606Y009607D01*
X015508Y009705D01*
X015317Y009705D01*
X015182Y009570D01*
X015182Y009380D01*
X015252Y009310D01*
X015252Y008328D01*
X015182Y008258D01*
X015182Y008067D01*
X015317Y007932D01*
X015508Y007932D01*
X015642Y008067D01*
X015642Y008258D01*
X015572Y008328D01*
X015572Y008566D01*
X015576Y008553D01*
X015596Y008519D01*
X015623Y008491D01*
X015658Y008471D01*
X015696Y008461D01*
X015864Y008461D01*
X015864Y008779D01*
X015961Y008779D01*
X015961Y008461D01*
X016129Y008461D01*
X016167Y008471D01*
X016201Y008491D01*
X016229Y008519D01*
X016249Y008553D01*
X016259Y008591D01*
X016259Y008779D01*
X015961Y008779D01*
X015961Y008876D01*
X016259Y008876D01*
X016259Y009064D01*
X016249Y009102D01*
X016229Y009136D01*
X016201Y009164D01*
X016168Y009184D01*
X016219Y009235D01*
X016219Y009337D01*
X016449Y009337D01*
X016502Y009284D01*
X016502Y008104D01*
X016221Y007822D01*
X015640Y007822D01*
X015570Y007892D01*
X015380Y007892D01*
X015245Y007758D01*
X015245Y007567D01*
X015380Y007432D01*
X015570Y007432D01*
X015640Y007502D01*
X016354Y007502D01*
X016729Y007877D01*
X016822Y007971D01*
X016822Y009416D01*
X016675Y009563D01*
X016582Y009657D01*
X016219Y009657D01*
X016219Y009759D01*
X016155Y009824D01*
X016049Y009824D01*
X016049Y009997D01*
X016367Y009997D01*
X016432Y010061D01*
X016432Y010065D01*
X016729Y010065D01*
X017104Y010440D01*
X017032Y010368D02*
X017393Y010368D01*
X017393Y010270D02*
X016934Y010270D01*
X016846Y010171D02*
X016835Y010171D01*
X016748Y010073D02*
X016737Y010073D01*
X016745Y009974D02*
X016049Y009974D01*
X016049Y009876D02*
X016749Y009876D01*
X016847Y009777D02*
X016201Y009777D01*
X016219Y009679D02*
X017045Y009679D01*
X017143Y009580D02*
X016658Y009580D01*
X016757Y009482D02*
X017198Y009482D01*
X017198Y009383D02*
X016822Y009383D01*
X016822Y009285D02*
X017198Y009285D01*
X017198Y009186D02*
X016822Y009186D01*
X016822Y009088D02*
X017198Y009088D01*
X017198Y008989D02*
X016822Y008989D01*
X016822Y008891D02*
X017198Y008891D01*
X017198Y008792D02*
X016822Y008792D01*
X016822Y008694D02*
X017198Y008694D01*
X017198Y008595D02*
X016822Y008595D01*
X016822Y008497D02*
X017198Y008497D01*
X017198Y008398D02*
X016822Y008398D01*
X016822Y008300D02*
X017198Y008300D01*
X017198Y008201D02*
X016822Y008201D01*
X016822Y008103D02*
X017198Y008103D01*
X017198Y008004D02*
X016822Y008004D01*
X016757Y007906D02*
X017198Y007906D01*
X017198Y007807D02*
X016659Y007807D01*
X016560Y007709D02*
X017198Y007709D01*
X017198Y007610D02*
X016462Y007610D01*
X016363Y007512D02*
X017198Y007512D01*
X017198Y007413D02*
X015135Y007413D01*
X015135Y007315D02*
X017198Y007315D01*
X017198Y007216D02*
X015135Y007216D01*
X015135Y007118D02*
X016970Y007118D01*
X016933Y007019D02*
X015135Y007019D01*
X015135Y006921D02*
X016658Y006921D01*
X016560Y006822D02*
X015135Y006822D01*
X015135Y006724D02*
X015792Y006724D01*
X015792Y006625D02*
X015135Y006625D01*
X015135Y006527D02*
X015792Y006527D01*
X015792Y006428D02*
X015135Y006428D01*
X015135Y006330D02*
X015792Y006330D01*
X015792Y006231D02*
X015135Y006231D01*
X015135Y006133D02*
X015792Y006133D01*
X015792Y006034D02*
X015135Y006034D01*
X015135Y005936D02*
X015792Y005936D01*
X015802Y005837D02*
X015135Y005837D01*
X015135Y005739D02*
X016893Y005739D01*
X016893Y005745D02*
X016893Y005520D01*
X016904Y005481D01*
X016923Y005447D01*
X016951Y005419D01*
X016985Y005400D01*
X017024Y005389D01*
X017308Y005389D01*
X017308Y005745D01*
X017408Y005745D01*
X017408Y005389D01*
X017693Y005389D01*
X017731Y005400D01*
X017765Y005419D01*
X017793Y005447D01*
X017813Y005481D01*
X017823Y005520D01*
X017823Y005745D01*
X017408Y005745D01*
X017408Y005845D01*
X017308Y005845D01*
X017308Y005745D01*
X016893Y005745D01*
X016893Y005845D02*
X016893Y006071D01*
X016904Y006109D01*
X016923Y006143D01*
X016951Y006171D01*
X016985Y006191D01*
X017024Y006201D01*
X017308Y006201D01*
X017308Y005845D01*
X016893Y005845D01*
X016893Y005936D02*
X016641Y005936D01*
X016641Y006034D02*
X016893Y006034D01*
X016917Y006133D02*
X016641Y006133D01*
X016641Y006231D02*
X026747Y006231D01*
X026747Y006133D02*
X017799Y006133D01*
X017793Y006143D02*
X017765Y006171D01*
X017731Y006191D01*
X017693Y006201D01*
X017408Y006201D01*
X017408Y005845D01*
X017823Y005845D01*
X017823Y006071D01*
X017813Y006109D01*
X017793Y006143D01*
X017823Y006034D02*
X026747Y006034D01*
X026747Y005936D02*
X017823Y005936D01*
X017823Y005739D02*
X018835Y005739D01*
X018773Y005640D02*
X017823Y005640D01*
X017823Y005542D02*
X018003Y005542D01*
X017905Y005443D02*
X017789Y005443D01*
X017806Y005345D02*
X015134Y005345D01*
X015135Y005443D02*
X016927Y005443D01*
X016893Y005542D02*
X015135Y005542D01*
X015135Y005640D02*
X016893Y005640D01*
X016631Y005837D02*
X017308Y005837D01*
X017308Y005739D02*
X017408Y005739D01*
X017408Y005837D02*
X026747Y005837D01*
X026747Y005739D02*
X019364Y005739D01*
X019426Y005640D02*
X026747Y005640D01*
X026747Y005542D02*
X019426Y005542D01*
X019426Y005443D02*
X019743Y005443D01*
X019682Y005383D02*
X019682Y005192D01*
X019752Y005122D01*
X019752Y005074D01*
X019670Y005074D01*
X019606Y005009D01*
X019606Y004925D01*
X019426Y004925D01*
X019426Y005008D01*
X019362Y005072D01*
X018838Y005072D01*
X018773Y005008D01*
X018773Y004523D01*
X018838Y004458D01*
X018940Y004458D01*
X018940Y004426D01*
X018880Y004426D01*
X018815Y004362D01*
X018815Y003838D01*
X018866Y003787D01*
X018815Y003737D01*
X018815Y003213D01*
X018880Y003148D01*
X018962Y003148D01*
X018962Y003114D01*
X018880Y003114D01*
X018815Y003050D01*
X018815Y002525D01*
X018880Y002461D01*
X019364Y002461D01*
X019429Y002525D01*
X019429Y003050D01*
X019364Y003114D01*
X019282Y003114D01*
X019282Y003148D01*
X019364Y003148D01*
X019429Y003213D01*
X019429Y003737D01*
X019378Y003787D01*
X019429Y003838D01*
X019429Y004362D01*
X019364Y004426D01*
X019260Y004426D01*
X019260Y004458D01*
X019362Y004458D01*
X019426Y004523D01*
X019426Y004605D01*
X019606Y004605D01*
X019606Y004485D01*
X019657Y004434D01*
X019623Y004414D01*
X019596Y004386D01*
X019576Y004352D01*
X019566Y004314D01*
X019566Y004126D01*
X019864Y004126D01*
X019864Y004029D01*
X019961Y004029D01*
X019961Y003711D01*
X020129Y003711D01*
X020167Y003721D01*
X020201Y003741D01*
X020229Y003769D01*
X026747Y003769D01*
X026747Y003867D02*
X020259Y003867D01*
X020259Y003841D02*
X020259Y004029D01*
X019961Y004029D01*
X019961Y004126D01*
X020259Y004126D01*
X020259Y004314D01*
X020249Y004352D01*
X020229Y004386D01*
X020201Y004414D01*
X020168Y004434D01*
X020219Y004485D01*
X020219Y005009D01*
X020155Y005074D01*
X020072Y005074D01*
X020072Y005122D01*
X020142Y005192D01*
X020142Y005383D01*
X020008Y005517D01*
X019817Y005517D01*
X019682Y005383D01*
X019682Y005345D02*
X019426Y005345D01*
X019426Y005246D02*
X019682Y005246D01*
X019727Y005148D02*
X019382Y005148D01*
X019385Y005049D02*
X019646Y005049D01*
X019606Y004951D02*
X019426Y004951D01*
X019100Y004765D02*
X019912Y004765D01*
X019912Y005287D01*
X020082Y005443D02*
X026747Y005443D01*
X026747Y005345D02*
X020142Y005345D01*
X020142Y005246D02*
X026747Y005246D01*
X026747Y005148D02*
X020098Y005148D01*
X020179Y005049D02*
X026747Y005049D01*
X026747Y004951D02*
X020219Y004951D01*
X020219Y004852D02*
X026747Y004852D01*
X026747Y004754D02*
X020219Y004754D01*
X020219Y004655D02*
X026747Y004655D01*
X026747Y004557D02*
X020219Y004557D01*
X020193Y004458D02*
X026747Y004458D01*
X026747Y004360D02*
X020245Y004360D01*
X020259Y004261D02*
X026747Y004261D01*
X026747Y004163D02*
X020259Y004163D01*
X020259Y003966D02*
X026747Y003966D01*
X026747Y004064D02*
X019961Y004064D01*
X019864Y004064D02*
X019429Y004064D01*
X019429Y003966D02*
X019566Y003966D01*
X019566Y004029D02*
X019566Y003841D01*
X019576Y003803D01*
X019596Y003769D01*
X019397Y003769D01*
X019429Y003867D02*
X019566Y003867D01*
X019596Y003769D02*
X019623Y003741D01*
X019658Y003721D01*
X019696Y003711D01*
X019864Y003711D01*
X019864Y004029D01*
X019566Y004029D01*
X019566Y004163D02*
X019429Y004163D01*
X019429Y004261D02*
X019566Y004261D01*
X019580Y004360D02*
X019429Y004360D01*
X019362Y004458D02*
X019632Y004458D01*
X019606Y004557D02*
X019426Y004557D01*
X019912Y004747D02*
X019912Y004765D01*
X019100Y004765D02*
X019100Y004100D01*
X019122Y004100D01*
X019122Y003475D01*
X019122Y002787D01*
X019429Y002784D02*
X023479Y002784D01*
X023600Y002834D02*
X023328Y002721D01*
X023119Y002513D01*
X023006Y002241D01*
X023006Y001946D01*
X023119Y001674D01*
X023328Y001466D01*
X023600Y001353D01*
X023894Y001353D01*
X024167Y001466D01*
X024375Y001674D01*
X024488Y001946D01*
X024488Y002241D01*
X024375Y002513D01*
X024167Y002721D01*
X023894Y002834D01*
X023600Y002834D01*
X024015Y002784D02*
X026540Y002784D01*
X026747Y002882D02*
X019429Y002882D01*
X019429Y002981D02*
X026747Y002981D01*
X026747Y003079D02*
X019399Y003079D01*
X019394Y003178D02*
X026747Y003178D01*
X026747Y003276D02*
X019429Y003276D01*
X019429Y003375D02*
X026747Y003375D01*
X026747Y003473D02*
X019429Y003473D01*
X019429Y003572D02*
X026747Y003572D01*
X026747Y003670D02*
X019429Y003670D01*
X019864Y003769D02*
X019961Y003769D01*
X019961Y003867D02*
X019864Y003867D01*
X019864Y003966D02*
X019961Y003966D01*
X020259Y003841D02*
X020249Y003803D01*
X020229Y003769D01*
X018847Y003769D02*
X018728Y003769D01*
X018760Y003867D02*
X018815Y003867D01*
X018815Y003966D02*
X018760Y003966D01*
X018760Y004064D02*
X018815Y004064D01*
X018815Y004163D02*
X018760Y004163D01*
X018760Y004261D02*
X018815Y004261D01*
X018815Y004360D02*
X018760Y004360D01*
X018838Y004458D02*
X018572Y004458D01*
X018572Y004557D02*
X018773Y004557D01*
X018773Y004655D02*
X018642Y004655D01*
X018642Y004754D02*
X018773Y004754D01*
X018773Y004852D02*
X018610Y004852D01*
X018512Y004951D02*
X018773Y004951D01*
X018815Y005049D02*
X017963Y005049D01*
X017865Y004951D02*
X018313Y004951D01*
X018215Y004852D02*
X017766Y004852D01*
X017668Y004754D02*
X018182Y004754D01*
X018182Y004655D02*
X017569Y004655D01*
X017471Y004557D02*
X018252Y004557D01*
X018252Y004458D02*
X017372Y004458D01*
X017287Y004600D02*
X018100Y005412D01*
X019078Y005412D01*
X019100Y005435D01*
X019100Y005475D01*
X018773Y005246D02*
X018160Y005246D01*
X018062Y005148D02*
X018818Y005148D01*
X018412Y004725D02*
X018412Y004140D01*
X018453Y004100D01*
X014912Y004100D01*
X013975Y003162D01*
X011537Y003162D01*
X010662Y002287D01*
X008287Y002287D01*
X007975Y002600D01*
X007975Y003162D01*
X007725Y003412D01*
X007891Y003572D02*
X008418Y003572D01*
X008418Y003670D02*
X004251Y003670D01*
X004279Y003699D02*
X004279Y004380D01*
X004214Y004445D01*
X003493Y004445D01*
X003429Y004380D01*
X003429Y003699D01*
X003493Y003634D01*
X004214Y003634D01*
X004279Y003699D01*
X004279Y003769D02*
X007927Y003769D01*
X008053Y003769D02*
X008485Y003769D01*
X008387Y003867D02*
X008164Y003867D01*
X008257Y003966D02*
X008288Y003966D01*
X008069Y003966D02*
X008069Y003966D01*
X007971Y004064D02*
X007971Y004064D01*
X007872Y004163D02*
X007872Y004163D01*
X007851Y004184D02*
X007536Y004499D01*
X007851Y004184D01*
X007851Y004184D01*
X007830Y004163D02*
X007830Y004163D01*
X007774Y004261D02*
X007774Y004261D01*
X007675Y004360D02*
X007675Y004360D01*
X007577Y004458D02*
X007577Y004458D01*
X007496Y004458D02*
X007148Y004458D01*
X007237Y004360D02*
X007427Y004360D01*
X007435Y004261D02*
X007221Y004261D01*
X007122Y004163D02*
X007521Y004163D01*
X007619Y004064D02*
X007024Y004064D01*
X006925Y003966D02*
X007718Y003966D01*
X007731Y004064D02*
X007731Y004064D01*
X007816Y003867D02*
X006827Y003867D01*
X006592Y003867D02*
X004279Y003867D01*
X004279Y003966D02*
X006494Y003966D01*
X006395Y004064D02*
X004279Y004064D01*
X004279Y004163D02*
X006297Y004163D01*
X006198Y004261D02*
X004279Y004261D01*
X004279Y004360D02*
X005515Y004360D01*
X005432Y004458D02*
X002491Y004458D01*
X002393Y004360D02*
X003429Y004360D01*
X003429Y004261D02*
X002294Y004261D01*
X002271Y004163D02*
X003429Y004163D01*
X003429Y004064D02*
X002271Y004064D01*
X002271Y003966D02*
X003429Y003966D01*
X003429Y003867D02*
X002271Y003867D01*
X002271Y003769D02*
X003429Y003769D01*
X003457Y003670D02*
X002243Y003670D01*
X002158Y003572D02*
X002112Y003572D01*
X002449Y003572D02*
X002545Y003572D01*
X002545Y003634D02*
X002545Y003336D01*
X002864Y003336D01*
X002864Y003504D01*
X002853Y003542D01*
X002834Y003576D01*
X002806Y003604D01*
X002771Y003624D01*
X002733Y003634D01*
X002545Y003634D01*
X002545Y003473D02*
X002449Y003473D01*
X002449Y003375D02*
X002545Y003375D01*
X002545Y003276D02*
X007536Y003276D01*
X007495Y003375D02*
X002864Y003375D01*
X002864Y003473D02*
X007495Y003473D01*
X007559Y003572D02*
X002836Y003572D01*
X002864Y003178D02*
X006540Y003178D01*
X006495Y003079D02*
X002864Y003079D01*
X002816Y002981D02*
X006495Y002981D01*
X006555Y002882D02*
X001062Y002882D01*
X001062Y002981D02*
X001565Y002981D01*
X001501Y003079D02*
X001062Y003079D01*
X001062Y003178D02*
X001501Y003178D01*
X001501Y003276D02*
X001062Y003276D01*
X001062Y003375D02*
X001501Y003375D01*
X001501Y003473D02*
X001062Y003473D01*
X001062Y003572D02*
X001543Y003572D01*
X001449Y003670D02*
X001062Y003670D01*
X001062Y003769D02*
X001421Y003769D01*
X001421Y003867D02*
X001062Y003867D01*
X001062Y003966D02*
X001421Y003966D01*
X001421Y004064D02*
X001062Y004064D01*
X001062Y004163D02*
X001421Y004163D01*
X001421Y004261D02*
X001062Y004261D01*
X001062Y004360D02*
X001421Y004360D01*
X001062Y004458D02*
X002039Y004458D01*
X002137Y004557D02*
X001062Y004557D01*
X001062Y004655D02*
X002236Y004655D01*
X002334Y004754D02*
X001062Y004754D01*
X001062Y004852D02*
X004246Y004852D01*
X004148Y004951D02*
X001062Y004951D01*
X001062Y005049D02*
X004049Y005049D01*
X004350Y004975D02*
X003854Y005471D01*
X003854Y005535D01*
X003185Y006205D01*
X003185Y006412D01*
X003511Y006428D02*
X003940Y006428D01*
X003940Y006330D02*
X003511Y006330D01*
X003511Y006231D02*
X003940Y006231D01*
X003940Y006133D02*
X003483Y006133D01*
X003581Y006034D02*
X004002Y006034D01*
X004100Y006162D02*
X004100Y006787D01*
X004037Y006850D01*
X003882Y007019D02*
X003559Y007019D01*
X003559Y007020D02*
X003760Y007221D01*
X003495Y007487D01*
X003566Y007557D01*
X003495Y007628D01*
X003788Y007921D01*
X003615Y008095D01*
X003581Y008115D01*
X003542Y008125D01*
X003503Y008125D01*
X003465Y008115D01*
X003431Y008095D01*
X003229Y007894D01*
X003495Y007628D01*
X003424Y007557D01*
X003495Y007487D01*
X003201Y007193D01*
X003375Y007020D01*
X003409Y007000D01*
X003447Y006990D01*
X003487Y006990D01*
X003525Y007000D01*
X003559Y007020D01*
X003657Y007118D02*
X004623Y007118D01*
X004524Y007216D02*
X003756Y007216D01*
X003808Y007315D02*
X003667Y007315D01*
X003709Y007413D02*
X003568Y007413D01*
X003611Y007512D02*
X003520Y007512D01*
X003470Y007512D02*
X003379Y007512D01*
X003424Y007557D02*
X003131Y007264D01*
X002957Y007437D01*
X002937Y007472D01*
X002927Y007510D01*
X002927Y007549D01*
X002937Y007587D01*
X002957Y007622D01*
X003159Y007823D01*
X003424Y007557D01*
X003371Y007610D02*
X003477Y007610D01*
X003512Y007610D02*
X003619Y007610D01*
X003576Y007709D02*
X003717Y007709D01*
X003674Y007807D02*
X003816Y007807D01*
X003902Y007807D02*
X003932Y007807D01*
X003956Y007906D02*
X003773Y007906D01*
X003705Y008004D02*
X004054Y008004D01*
X004019Y008103D02*
X003601Y008103D01*
X003444Y008103D02*
X002007Y008103D01*
X002007Y008004D02*
X003340Y008004D01*
X003242Y007906D02*
X002007Y007906D01*
X002007Y007807D02*
X003143Y007807D01*
X003174Y007807D02*
X003315Y007807D01*
X003273Y007709D02*
X003414Y007709D01*
X003045Y007709D02*
X001976Y007709D01*
X001533Y007709D02*
X001433Y007709D01*
X001433Y007807D02*
X001533Y007807D01*
X001533Y007906D02*
X001433Y007906D01*
X001433Y008004D02*
X001533Y008004D01*
X001533Y008103D02*
X001433Y008103D01*
X001533Y008201D02*
X003920Y008201D01*
X003822Y008300D02*
X002007Y008300D01*
X002007Y008226D02*
X002007Y008570D01*
X001997Y008608D01*
X001977Y008642D01*
X001949Y008670D01*
X001915Y008690D01*
X001877Y008700D01*
X001533Y008700D01*
X001533Y008226D01*
X002007Y008226D01*
X002007Y008398D02*
X003802Y008398D01*
X003889Y008497D02*
X002007Y008497D01*
X002000Y008595D02*
X003988Y008595D01*
X004086Y008694D02*
X001900Y008694D01*
X001929Y008792D02*
X004185Y008792D01*
X004283Y008891D02*
X002004Y008891D01*
X002007Y008989D02*
X003744Y008989D01*
X003773Y008961D02*
X004258Y008961D01*
X004322Y009025D01*
X004322Y009550D01*
X004272Y009600D01*
X004322Y009650D01*
X004322Y010175D01*
X004286Y010211D01*
X004302Y010211D01*
X004366Y010275D01*
X004366Y010377D01*
X004412Y010377D01*
X004412Y010334D01*
X004477Y010270D01*
X004883Y010270D01*
X005011Y010270D01*
X005021Y010260D02*
X005055Y010240D01*
X005093Y010230D01*
X005241Y010230D01*
X005241Y010509D01*
X004963Y010509D01*
X004963Y010360D01*
X004973Y010322D01*
X004993Y010288D01*
X005021Y010260D01*
X004991Y010171D02*
X006284Y010171D01*
X006245Y010073D02*
X004991Y010073D01*
X004883Y010270D02*
X004947Y010334D01*
X004947Y010740D01*
X004883Y010805D01*
X004477Y010805D01*
X004412Y010740D01*
X004412Y010697D01*
X004366Y010697D01*
X004366Y010800D01*
X004302Y010864D01*
X003817Y010864D01*
X003753Y010800D01*
X003753Y010275D01*
X003789Y010239D01*
X003773Y010239D01*
X003720Y010187D01*
X003266Y010187D01*
X003290Y010211D01*
X003633Y010211D01*
X003697Y010275D01*
X003697Y010800D01*
X003642Y010854D01*
X003642Y011008D01*
X003508Y011142D01*
X003317Y011142D01*
X003182Y011008D01*
X003182Y010864D01*
X003148Y010864D01*
X003083Y010800D01*
X003083Y010457D01*
X003069Y010442D01*
X002916Y010442D01*
X002887Y010471D01*
X002726Y010471D01*
X002726Y011922D01*
X003427Y011922D01*
X003491Y011987D01*
X003491Y012472D01*
X003427Y012536D01*
X002273Y012536D01*
X002208Y012472D01*
X002208Y011987D01*
X002273Y011922D01*
X002406Y011922D01*
X002406Y010471D01*
X002245Y010471D01*
X002180Y010407D01*
X002180Y010158D01*
X002184Y010155D01*
X002180Y010151D01*
X002180Y009902D01*
X002184Y009899D01*
X002180Y009895D01*
X002180Y009646D01*
X002184Y009643D01*
X002180Y009639D01*
X002180Y009440D01*
X002170Y009430D01*
X002151Y009395D01*
X002140Y009357D01*
X002140Y009259D01*
X002566Y009259D01*
X002992Y009259D01*
X002992Y009357D01*
X002981Y009395D01*
X002962Y009430D01*
X002952Y009440D01*
X002952Y009611D01*
X003050Y009611D01*
X003440Y009221D01*
X003534Y009127D01*
X003708Y009127D01*
X003708Y009025D01*
X003773Y008961D01*
X003708Y009088D02*
X002961Y009088D01*
X002962Y009088D02*
X002981Y009122D01*
X002992Y009160D01*
X002992Y009259D01*
X002566Y009259D01*
X002566Y009259D01*
X002566Y009259D01*
X002566Y009030D01*
X002861Y009030D01*
X002899Y009040D01*
X002934Y009060D01*
X002962Y009088D01*
X002992Y009186D02*
X003475Y009186D01*
X003440Y009221D02*
X003440Y009221D01*
X003376Y009285D02*
X002992Y009285D01*
X002985Y009383D02*
X003278Y009383D01*
X003179Y009482D02*
X002952Y009482D01*
X002952Y009580D02*
X003081Y009580D01*
X003117Y009771D02*
X003600Y009287D01*
X004015Y009287D01*
X004322Y009285D02*
X004378Y009285D01*
X004378Y009383D02*
X004322Y009383D01*
X004322Y009482D02*
X004378Y009482D01*
X004409Y009580D02*
X004291Y009580D01*
X004322Y009679D02*
X004378Y009679D01*
X004378Y009777D02*
X004322Y009777D01*
X004322Y009876D02*
X004378Y009876D01*
X004378Y009974D02*
X004322Y009974D01*
X004322Y010073D02*
X004378Y010073D01*
X004378Y010171D02*
X004322Y010171D01*
X004361Y010270D02*
X004477Y010270D01*
X004412Y010368D02*
X004366Y010368D01*
X004060Y010537D02*
X004680Y010537D01*
X004947Y010565D02*
X005241Y010565D01*
X005241Y010566D02*
X005241Y010509D01*
X005299Y010509D01*
X005299Y010566D01*
X005578Y010566D01*
X005578Y010715D01*
X005567Y010753D01*
X005548Y010787D01*
X005520Y010815D01*
X005486Y010835D01*
X005447Y010845D01*
X005299Y010845D01*
X005299Y010566D01*
X005241Y010566D01*
X004963Y010566D01*
X004963Y010715D01*
X004973Y010753D01*
X004993Y010787D01*
X005021Y010815D01*
X005055Y010835D01*
X005093Y010845D01*
X005241Y010845D01*
X005241Y010566D01*
X005299Y010565D02*
X006488Y010565D01*
X006497Y010664D02*
X005578Y010664D01*
X005562Y010762D02*
X006583Y010762D01*
X006681Y010762D02*
X006818Y010762D01*
X006780Y010664D02*
X006917Y010664D01*
X006935Y010664D02*
X007072Y010664D01*
X007033Y010762D02*
X007170Y010762D01*
X007240Y010762D02*
X008649Y010762D01*
X008565Y010861D02*
X007132Y010861D01*
X007043Y010959D02*
X008565Y010959D01*
X008565Y011058D02*
X003592Y011058D01*
X003642Y010959D02*
X006780Y010959D01*
X006720Y010861D02*
X004305Y010861D01*
X004366Y010762D02*
X004434Y010762D01*
X004925Y010762D02*
X004978Y010762D01*
X004963Y010664D02*
X004947Y010664D01*
X004947Y010467D02*
X004963Y010467D01*
X004963Y010368D02*
X004947Y010368D01*
X005241Y010368D02*
X005299Y010368D01*
X005299Y010270D02*
X005241Y010270D01*
X005299Y010230D02*
X005447Y010230D01*
X005486Y010240D01*
X005520Y010260D01*
X005548Y010288D01*
X005567Y010322D01*
X005578Y010360D01*
X005578Y010509D01*
X005299Y010509D01*
X005299Y010230D01*
X005530Y010270D02*
X006752Y010270D01*
X006776Y010368D02*
X005578Y010368D01*
X005578Y010467D02*
X006555Y010467D01*
X006738Y010467D02*
X006875Y010467D01*
X006878Y010565D02*
X006836Y010565D01*
X006852Y010171D02*
X006666Y010171D01*
X006705Y010073D02*
X007005Y010073D01*
X007104Y009974D02*
X006810Y009974D01*
X006908Y009876D02*
X007202Y009876D01*
X007301Y009777D02*
X007007Y009777D01*
X007105Y009679D02*
X007586Y009679D01*
X007496Y009580D02*
X007204Y009580D01*
X007237Y009482D02*
X007463Y009482D01*
X007368Y009383D02*
X007165Y009383D01*
X007066Y009285D02*
X007269Y009285D01*
X007310Y009100D02*
X006944Y009100D01*
X006944Y008569D01*
X006162Y007787D01*
X006037Y007787D01*
X006037Y006936D01*
X005067Y005966D01*
X004701Y005600D01*
X004537Y005600D01*
X004369Y005443D02*
X004279Y005443D01*
X004279Y005345D02*
X005058Y005345D01*
X005012Y005246D02*
X004305Y005246D01*
X004403Y005148D02*
X004914Y005148D01*
X004967Y004975D02*
X004350Y004975D01*
X004967Y004975D02*
X005513Y005520D01*
X005735Y005298D02*
X005100Y004662D01*
X002469Y004662D01*
X001846Y004039D01*
X001828Y003995D01*
X001828Y003287D01*
X002090Y002981D02*
X002141Y003032D01*
X002160Y002998D01*
X002188Y002971D01*
X002449Y002981D02*
X002545Y002981D01*
X002545Y003079D02*
X002449Y003079D01*
X002449Y003178D02*
X002545Y003178D01*
X001803Y002587D02*
X003508Y002587D01*
X003434Y002513D02*
X003321Y002241D01*
X003321Y001946D01*
X003434Y001674D01*
X003643Y001466D01*
X003915Y001353D01*
X004209Y001353D01*
X004481Y001466D01*
X004690Y001674D01*
X004803Y001946D01*
X004803Y002241D01*
X004690Y002513D01*
X004481Y002721D01*
X004209Y002834D01*
X003915Y002834D01*
X003643Y002721D01*
X003434Y002513D01*
X003424Y002488D02*
X001972Y002488D01*
X001971Y002489D02*
X001971Y002489D01*
X002071Y002390D02*
X003383Y002390D01*
X003342Y002291D02*
X002169Y002291D01*
X002268Y002193D02*
X003321Y002193D01*
X003321Y002094D02*
X002335Y002094D01*
X002293Y002168D02*
X002293Y002168D01*
X002392Y001996D02*
X003321Y001996D01*
X003342Y001897D02*
X002449Y001897D01*
X002506Y001799D02*
X003382Y001799D01*
X003423Y001700D02*
X002540Y001700D01*
X002520Y001775D02*
X002520Y001775D01*
X002566Y001602D02*
X003506Y001602D01*
X003605Y001503D02*
X002592Y001503D01*
X002619Y001405D02*
X003789Y001405D01*
X004335Y001405D02*
X014162Y001405D01*
X014162Y001503D02*
X004519Y001503D01*
X004618Y001602D02*
X014162Y001602D01*
X014350Y001602D02*
X023191Y001602D01*
X023108Y001700D02*
X014677Y001700D01*
X014775Y001799D02*
X023068Y001799D01*
X023027Y001897D02*
X014874Y001897D01*
X014972Y001996D02*
X023006Y001996D01*
X023006Y002094D02*
X015071Y002094D01*
X015169Y002193D02*
X023006Y002193D01*
X023027Y002291D02*
X015268Y002291D01*
X015366Y002390D02*
X023068Y002390D01*
X023109Y002488D02*
X019392Y002488D01*
X019429Y002587D02*
X023193Y002587D01*
X023292Y002685D02*
X019429Y002685D01*
X018852Y002488D02*
X018723Y002488D01*
X018760Y002587D02*
X018815Y002587D01*
X018815Y002685D02*
X018760Y002685D01*
X018760Y002784D02*
X018815Y002784D01*
X018815Y002882D02*
X018760Y002882D01*
X018760Y002981D02*
X018815Y002981D01*
X018845Y003079D02*
X018730Y003079D01*
X018725Y003178D02*
X018850Y003178D01*
X018815Y003276D02*
X018760Y003276D01*
X018760Y003375D02*
X018815Y003375D01*
X018815Y003473D02*
X018760Y003473D01*
X018760Y003572D02*
X018815Y003572D01*
X018815Y003670D02*
X018760Y003670D01*
X018453Y003475D02*
X015225Y003475D01*
X014475Y002725D01*
X011787Y002725D01*
X011620Y002882D02*
X011484Y002882D01*
X011557Y002784D02*
X011385Y002784D01*
X011287Y002685D02*
X011557Y002685D01*
X011600Y002587D02*
X011188Y002587D01*
X011090Y002488D02*
X014162Y002488D01*
X014162Y002390D02*
X010991Y002390D01*
X010893Y002291D02*
X014162Y002291D01*
X014162Y002193D02*
X010794Y002193D01*
X010596Y002447D02*
X011377Y003229D01*
X011464Y003315D01*
X011166Y003315D01*
X010479Y002627D01*
X010390Y002627D01*
X010320Y002557D01*
X010130Y002557D01*
X009995Y002692D01*
X009995Y002883D01*
X010130Y003017D01*
X010320Y003017D01*
X010368Y002969D01*
X010940Y003541D01*
X010940Y003541D01*
X010964Y003565D01*
X009135Y003565D01*
X009041Y003659D01*
X009032Y003668D01*
X009032Y003172D01*
X008980Y003121D01*
X009014Y003102D01*
X009042Y003074D01*
X009062Y003040D01*
X009072Y003002D01*
X009072Y002814D01*
X008773Y002814D01*
X008773Y002717D01*
X009072Y002717D01*
X009072Y002529D01*
X009062Y002491D01*
X009042Y002457D01*
X009033Y002447D01*
X010596Y002447D01*
X010637Y002488D02*
X009060Y002488D01*
X009072Y002587D02*
X010100Y002587D01*
X010002Y002685D02*
X009072Y002685D01*
X009072Y002882D02*
X009995Y002882D01*
X009995Y002784D02*
X008773Y002784D01*
X008676Y002784D02*
X008135Y002784D01*
X008135Y002882D02*
X008378Y002882D01*
X008378Y002981D02*
X008135Y002981D01*
X008135Y003079D02*
X008414Y003079D01*
X008418Y003178D02*
X008135Y003178D01*
X008087Y003276D02*
X008418Y003276D01*
X008418Y003375D02*
X007989Y003375D01*
X007955Y003473D02*
X008418Y003473D01*
X008725Y003435D02*
X008725Y003756D01*
X008074Y004407D01*
X008074Y004439D01*
X007787Y004725D01*
X007787Y005123D01*
X010078Y007414D01*
X010392Y007100D01*
X010725Y007100D01*
X011247Y007100D01*
X011287Y007060D01*
X011594Y007019D02*
X011725Y007019D01*
X011725Y006921D02*
X011594Y006921D01*
X011594Y006822D02*
X011725Y006822D01*
X011725Y006724D02*
X011579Y006724D01*
X011576Y006727D02*
X011543Y006746D01*
X011594Y006797D01*
X011594Y007322D01*
X011530Y007386D01*
X011045Y007386D01*
X010981Y007322D01*
X010981Y007260D01*
X010890Y007260D01*
X010820Y007330D01*
X010630Y007330D01*
X010560Y007260D01*
X010458Y007260D01*
X010339Y007379D01*
X010466Y007507D01*
X010466Y007598D01*
X010284Y007781D01*
X010284Y007795D01*
X010274Y007833D01*
X010254Y007868D01*
X010170Y007951D01*
X010087Y008035D01*
X010052Y008054D01*
X010014Y008065D01*
X010000Y008065D01*
X009817Y008247D01*
X009798Y008247D01*
X009798Y008266D01*
X009595Y008470D01*
X009579Y008470D01*
X009737Y008627D01*
X011596Y008627D01*
X011725Y008499D01*
X011725Y004475D01*
X013061Y004475D01*
X012971Y004385D01*
X010909Y004385D01*
X011203Y004679D01*
X011203Y004770D01*
X010832Y005141D01*
X010741Y005141D01*
X010398Y004798D01*
X010398Y004707D01*
X010720Y004385D01*
X009658Y004385D01*
X009134Y004909D01*
X009149Y004909D01*
X009353Y005113D01*
X009353Y005132D01*
X009372Y005132D01*
X009576Y005336D01*
X009576Y005355D01*
X009595Y005355D01*
X009798Y005558D01*
X009798Y005577D01*
X009817Y005577D01*
X010021Y005781D01*
X010021Y005800D01*
X010040Y005800D01*
X010225Y005985D01*
X010273Y005937D01*
X010197Y005861D01*
X010183Y005861D01*
X010145Y005850D01*
X010111Y005831D01*
X009969Y005689D01*
X010263Y005396D01*
X010192Y005325D01*
X010263Y005255D01*
X010333Y005325D01*
X010627Y005032D01*
X010768Y005173D01*
X010788Y005207D01*
X010798Y005245D01*
X010798Y005260D01*
X010899Y005360D01*
X010930Y005329D01*
X010872Y005271D01*
X010872Y005180D01*
X011242Y004809D01*
X011334Y004809D01*
X011676Y005152D01*
X011676Y005243D01*
X011306Y005614D01*
X011215Y005614D01*
X011156Y005556D01*
X011125Y005587D01*
X011182Y005644D01*
X011182Y005735D01*
X010672Y006245D01*
X010581Y006245D01*
X010500Y006163D01*
X010451Y006211D01*
X010466Y006227D01*
X010466Y006318D01*
X009984Y006800D01*
X009893Y006800D01*
X009690Y006596D01*
X009690Y006577D01*
X009671Y006577D01*
X009467Y006373D01*
X009467Y006354D01*
X009448Y006354D01*
X009244Y006151D01*
X009244Y006132D01*
X009225Y006132D01*
X009022Y005928D01*
X009022Y005909D01*
X009003Y005909D01*
X008799Y005705D01*
X008799Y005686D01*
X008780Y005686D01*
X008576Y005483D01*
X008576Y005463D01*
X008557Y005463D01*
X008353Y005260D01*
X008353Y005241D01*
X008334Y005241D01*
X008131Y005037D01*
X008131Y005018D01*
X008112Y005018D01*
X007947Y004854D01*
X007947Y005057D01*
X009916Y007025D01*
X009984Y007025D01*
X010112Y007153D01*
X010325Y006940D01*
X010560Y006940D01*
X010630Y006870D01*
X010820Y006870D01*
X010890Y006940D01*
X010981Y006940D01*
X010981Y006797D01*
X011032Y006746D01*
X010998Y006727D01*
X010971Y006699D01*
X010951Y006665D01*
X010941Y006627D01*
X010941Y006439D01*
X011239Y006439D01*
X011239Y006342D01*
X010941Y006342D01*
X010941Y006154D01*
X010951Y006116D01*
X010971Y006082D01*
X010998Y006054D01*
X011033Y006034D01*
X011071Y006024D01*
X011239Y006024D01*
X011239Y006342D01*
X011336Y006342D01*
X011336Y006439D01*
X011634Y006439D01*
X011634Y006627D01*
X011624Y006665D01*
X011604Y006699D01*
X011576Y006727D01*
X011634Y006625D02*
X011725Y006625D01*
X011725Y006527D02*
X011634Y006527D01*
X011725Y006428D02*
X011336Y006428D01*
X011336Y006342D02*
X011634Y006342D01*
X011634Y006154D01*
X011624Y006116D01*
X011604Y006082D01*
X011576Y006054D01*
X011542Y006034D01*
X011504Y006024D01*
X011336Y006024D01*
X011336Y006342D01*
X011336Y006330D02*
X011239Y006330D01*
X011239Y006428D02*
X010356Y006428D01*
X010454Y006330D02*
X010941Y006330D01*
X010941Y006231D02*
X010686Y006231D01*
X010568Y006231D02*
X010466Y006231D01*
X010784Y006133D02*
X010946Y006133D01*
X010883Y006034D02*
X011032Y006034D01*
X010981Y005936D02*
X011725Y005936D01*
X011725Y006034D02*
X011543Y006034D01*
X011629Y006133D02*
X011725Y006133D01*
X011725Y006231D02*
X011634Y006231D01*
X011634Y006330D02*
X011725Y006330D01*
X011912Y006596D02*
X011912Y008311D01*
X012440Y007784D01*
X012534Y007690D01*
X013596Y007690D01*
X014065Y007221D01*
X014065Y005854D01*
X013534Y005322D01*
X013479Y005322D01*
X013042Y005759D01*
X013042Y006121D01*
X012686Y006121D01*
X012686Y005892D01*
X012505Y005892D01*
X012474Y005861D01*
X012474Y006276D01*
X012505Y006245D01*
X012686Y006245D01*
X012686Y006221D01*
X013042Y006221D01*
X013042Y006636D01*
X012816Y006636D01*
X012778Y006626D01*
X012776Y006624D01*
X012695Y006705D01*
X012505Y006705D01*
X012435Y006635D01*
X012346Y006635D01*
X012306Y006596D01*
X011912Y006596D01*
X011912Y006625D02*
X012336Y006625D01*
X012412Y006475D02*
X012108Y006171D01*
X012474Y006133D02*
X013042Y006133D01*
X013042Y006121D02*
X013042Y006221D01*
X013142Y006221D01*
X013142Y006636D01*
X013368Y006636D01*
X013406Y006626D01*
X013440Y006606D01*
X013468Y006578D01*
X013481Y006556D01*
X013505Y006580D01*
X013695Y006580D01*
X013830Y006445D01*
X013830Y006255D01*
X013760Y006185D01*
X013760Y005890D01*
X013830Y005820D01*
X013830Y005630D01*
X013695Y005495D01*
X013505Y005495D01*
X013370Y005630D01*
X013370Y005706D01*
X013368Y005706D01*
X013142Y005706D01*
X013142Y006121D01*
X013042Y006121D01*
X013042Y006034D02*
X013142Y006034D01*
X013142Y005936D02*
X013042Y005936D01*
X013042Y005837D02*
X013142Y005837D01*
X013142Y005739D02*
X013062Y005739D01*
X013161Y005640D02*
X013370Y005640D01*
X013458Y005542D02*
X013259Y005542D01*
X013358Y005443D02*
X013655Y005443D01*
X013742Y005542D02*
X013753Y005542D01*
X013830Y005640D02*
X013852Y005640D01*
X013830Y005739D02*
X013950Y005739D01*
X014049Y005837D02*
X013813Y005837D01*
X013760Y005936D02*
X014065Y005936D01*
X014065Y006034D02*
X013760Y006034D01*
X013760Y006133D02*
X014065Y006133D01*
X014065Y006231D02*
X013807Y006231D01*
X013830Y006330D02*
X014065Y006330D01*
X014065Y006428D02*
X013830Y006428D01*
X013748Y006527D02*
X014065Y006527D01*
X014065Y006625D02*
X013406Y006625D01*
X013142Y006625D02*
X013042Y006625D01*
X013042Y006527D02*
X013142Y006527D01*
X013142Y006428D02*
X013042Y006428D01*
X013042Y006330D02*
X013142Y006330D01*
X013142Y006231D02*
X013042Y006231D01*
X012686Y006231D02*
X012474Y006231D01*
X012474Y006034D02*
X012686Y006034D01*
X012686Y005936D02*
X012474Y005936D01*
X012600Y005662D02*
X012912Y005662D01*
X013412Y005162D01*
X013600Y005162D01*
X014225Y005787D01*
X014225Y007287D01*
X013662Y007850D01*
X012600Y007850D01*
X011662Y008787D01*
X009670Y008787D01*
X009187Y008304D01*
X008816Y008103D02*
X006704Y008103D01*
X006606Y008004D02*
X008914Y008004D01*
X009022Y007906D02*
X006507Y007906D01*
X006409Y007807D02*
X009111Y007807D01*
X009210Y007709D02*
X006310Y007709D01*
X006197Y007610D02*
X009308Y007610D01*
X009407Y007512D02*
X006197Y007512D01*
X006197Y007413D02*
X009452Y007413D01*
X009541Y007321D02*
X009855Y007636D01*
X009855Y007636D01*
X009541Y007321D01*
X009547Y007315D02*
X006197Y007315D01*
X006197Y007216D02*
X009655Y007216D01*
X009556Y007118D02*
X006197Y007118D01*
X006197Y007019D02*
X009458Y007019D01*
X009359Y006921D02*
X006197Y006921D01*
X006150Y006822D02*
X009261Y006822D01*
X009162Y006724D02*
X006051Y006724D01*
X005953Y006625D02*
X009064Y006625D01*
X008965Y006527D02*
X005854Y006527D01*
X005756Y006428D02*
X008867Y006428D01*
X008768Y006330D02*
X005657Y006330D01*
X005559Y006231D02*
X008670Y006231D01*
X008571Y006133D02*
X005530Y006133D01*
X005581Y006034D02*
X005581Y006034D01*
X005628Y006034D02*
X008473Y006034D01*
X008374Y005936D02*
X005709Y005936D01*
X005769Y005837D02*
X008276Y005837D01*
X008177Y005739D02*
X005867Y005739D01*
X005966Y005640D02*
X008079Y005640D01*
X007980Y005542D02*
X006064Y005542D01*
X006163Y005443D02*
X006556Y005443D01*
X006447Y005345D02*
X006261Y005345D01*
X006346Y005246D02*
X006348Y005246D01*
X006553Y005225D02*
X006662Y005225D01*
X006553Y005225D02*
X006181Y004852D01*
X005958Y005075D02*
X005662Y004779D01*
X005662Y004537D01*
X005432Y004557D02*
X005221Y004557D01*
X005319Y004655D02*
X005455Y004655D01*
X005418Y004754D02*
X005502Y004754D01*
X005892Y004557D02*
X005903Y004557D01*
X005892Y004458D02*
X006015Y004458D01*
X006100Y004360D02*
X005810Y004360D01*
X006655Y004951D02*
X007627Y004951D01*
X007627Y005049D02*
X006812Y005049D01*
X006892Y005148D02*
X007627Y005148D01*
X007685Y005246D02*
X006892Y005246D01*
X006868Y005345D02*
X007783Y005345D01*
X007882Y005443D02*
X006769Y005443D01*
X006754Y004852D02*
X007627Y004852D01*
X007627Y004754D02*
X006852Y004754D01*
X006951Y004655D02*
X007631Y004655D01*
X007594Y004557D02*
X007049Y004557D01*
X007947Y004951D02*
X008045Y004951D01*
X007947Y005049D02*
X008143Y005049D01*
X008242Y005148D02*
X008039Y005148D01*
X008137Y005246D02*
X008353Y005246D01*
X008439Y005345D02*
X008236Y005345D01*
X008334Y005443D02*
X008537Y005443D01*
X008636Y005542D02*
X008433Y005542D01*
X008531Y005640D02*
X008734Y005640D01*
X008833Y005739D02*
X008630Y005739D01*
X008728Y005837D02*
X008931Y005837D01*
X009030Y005936D02*
X008827Y005936D01*
X008925Y006034D02*
X009128Y006034D01*
X009024Y006133D02*
X009244Y006133D01*
X009325Y006231D02*
X009122Y006231D01*
X009221Y006330D02*
X009424Y006330D01*
X009522Y006428D02*
X009319Y006428D01*
X009418Y006527D02*
X009621Y006527D01*
X009719Y006625D02*
X009516Y006625D01*
X009615Y006724D02*
X009818Y006724D01*
X009713Y006822D02*
X010981Y006822D01*
X010981Y006921D02*
X010871Y006921D01*
X010996Y006724D02*
X010060Y006724D01*
X010159Y006625D02*
X010941Y006625D01*
X010941Y006527D02*
X010257Y006527D01*
X010078Y006411D02*
X010078Y006358D01*
X010687Y005750D01*
X010736Y005750D01*
X011274Y005212D01*
X011476Y005443D02*
X011725Y005443D01*
X011725Y005345D02*
X011575Y005345D01*
X011673Y005246D02*
X011725Y005246D01*
X011725Y005148D02*
X011672Y005148D01*
X011725Y005049D02*
X011574Y005049D01*
X011475Y004951D02*
X011725Y004951D01*
X011725Y004852D02*
X011377Y004852D01*
X011199Y004852D02*
X011121Y004852D01*
X011101Y004951D02*
X011022Y004951D01*
X011002Y005049D02*
X010924Y005049D01*
X010904Y005148D02*
X010743Y005148D01*
X010798Y005246D02*
X010872Y005246D01*
X010883Y005345D02*
X010914Y005345D01*
X011179Y005640D02*
X011725Y005640D01*
X011725Y005542D02*
X011378Y005542D01*
X011178Y005739D02*
X011725Y005739D01*
X011725Y005837D02*
X011080Y005837D01*
X011239Y006034D02*
X011336Y006034D01*
X011336Y006133D02*
X011239Y006133D01*
X011239Y006231D02*
X011336Y006231D01*
X011912Y006724D02*
X014065Y006724D01*
X014065Y006822D02*
X011912Y006822D01*
X011912Y006921D02*
X014065Y006921D01*
X014065Y007019D02*
X011912Y007019D01*
X011912Y007118D02*
X014065Y007118D01*
X014065Y007216D02*
X011912Y007216D01*
X011912Y007315D02*
X013971Y007315D01*
X013873Y007413D02*
X011912Y007413D01*
X011912Y007512D02*
X013774Y007512D01*
X013676Y007610D02*
X011912Y007610D01*
X011912Y007709D02*
X012515Y007709D01*
X012416Y007807D02*
X011912Y007807D01*
X011912Y007906D02*
X012318Y007906D01*
X012219Y008004D02*
X011912Y008004D01*
X011912Y008103D02*
X012121Y008103D01*
X012022Y008201D02*
X011912Y008201D01*
X011912Y008300D02*
X011924Y008300D01*
X011725Y008300D02*
X009765Y008300D01*
X009863Y008201D02*
X011725Y008201D01*
X011725Y008103D02*
X009962Y008103D01*
X010117Y008004D02*
X011725Y008004D01*
X011725Y007906D02*
X010215Y007906D01*
X010170Y007951D02*
X009855Y007636D01*
X010170Y007951D01*
X010125Y007906D02*
X010125Y007906D01*
X010027Y007807D02*
X010027Y007807D01*
X009928Y007709D02*
X009928Y007709D01*
X009855Y007636D02*
X009855Y007636D01*
X009830Y007610D02*
X009830Y007610D01*
X009731Y007512D02*
X009731Y007512D01*
X009633Y007413D02*
X009633Y007413D01*
X010077Y007118D02*
X010147Y007118D01*
X010246Y007019D02*
X009910Y007019D01*
X009812Y006921D02*
X010579Y006921D01*
X010615Y007315D02*
X010403Y007315D01*
X010373Y007413D02*
X011725Y007413D01*
X011725Y007315D02*
X011594Y007315D01*
X011594Y007216D02*
X011725Y007216D01*
X011725Y007118D02*
X011594Y007118D01*
X011725Y007512D02*
X010466Y007512D01*
X010454Y007610D02*
X011725Y007610D01*
X011725Y007709D02*
X010356Y007709D01*
X010280Y007807D02*
X011725Y007807D01*
X012475Y008201D02*
X014252Y008201D01*
X014252Y008103D02*
X012573Y008103D01*
X012666Y008010D02*
X011912Y008764D01*
X011912Y008877D01*
X011971Y008877D01*
X011995Y008854D01*
X011995Y008755D01*
X012130Y008620D01*
X012320Y008620D01*
X012455Y008755D01*
X012455Y008945D01*
X012320Y009080D01*
X012221Y009080D01*
X012197Y009104D01*
X012104Y009197D01*
X011912Y009197D01*
X011912Y009241D01*
X011942Y009211D01*
X012427Y009211D01*
X012491Y009275D01*
X012491Y009377D01*
X014229Y009377D01*
X014534Y009682D01*
X014541Y009682D01*
X014565Y009659D01*
X014565Y009335D01*
X014508Y009392D01*
X014317Y009392D01*
X014182Y009258D01*
X014182Y009067D01*
X014252Y008997D01*
X014252Y007486D01*
X013822Y007916D01*
X013729Y008010D01*
X012666Y008010D01*
X012376Y008300D02*
X014252Y008300D01*
X014252Y008398D02*
X012278Y008398D01*
X012179Y008497D02*
X014252Y008497D01*
X014252Y008595D02*
X012081Y008595D01*
X012056Y008694D02*
X011982Y008694D01*
X011995Y008792D02*
X011912Y008792D01*
X012037Y009037D02*
X012225Y008850D01*
X012394Y008694D02*
X014252Y008694D01*
X014252Y008792D02*
X012455Y008792D01*
X012455Y008891D02*
X014252Y008891D01*
X014252Y008989D02*
X012411Y008989D01*
X012213Y009088D02*
X014182Y009088D01*
X014182Y009186D02*
X012115Y009186D01*
X012037Y009037D02*
X010912Y009037D01*
X010350Y009600D01*
X010350Y010287D01*
X010100Y010537D01*
X009100Y010537D01*
X008725Y010912D01*
X008725Y011412D01*
X009037Y011725D01*
X011662Y011725D01*
X011850Y011912D01*
X011850Y013225D01*
X011662Y013412D01*
X008662Y013412D01*
X008475Y013600D01*
X007747Y013600D01*
X007350Y013997D01*
X007350Y014225D01*
X007162Y014412D01*
X006601Y014412D01*
X006600Y014411D01*
X007005Y014210D02*
X007043Y014210D01*
X007043Y014111D02*
X007005Y014111D01*
X007043Y014013D02*
X006957Y014013D01*
X007005Y013914D02*
X007043Y013914D01*
X007043Y013816D02*
X007005Y013816D01*
X007005Y013717D02*
X007061Y013717D01*
X007023Y013619D02*
X007005Y013619D01*
X006967Y013323D02*
X007301Y013323D01*
X007398Y013323D02*
X007962Y013323D01*
X007962Y013225D02*
X007697Y013225D01*
X007697Y013126D02*
X007962Y013126D01*
X007962Y013422D02*
X007697Y013422D01*
X007398Y013225D02*
X007301Y013225D01*
X007301Y013126D02*
X007398Y013126D01*
X007398Y013028D02*
X007301Y013028D01*
X007433Y012831D02*
X006193Y012831D01*
X006193Y012929D02*
X009807Y012929D01*
X009807Y012880D02*
X009807Y013070D01*
X009807Y013028D02*
X007672Y013028D01*
X007433Y012732D02*
X006193Y012732D01*
X006193Y012634D02*
X007433Y012634D01*
X007433Y012535D02*
X007139Y012535D01*
X007152Y012523D02*
X007124Y012551D01*
X007089Y012571D01*
X007051Y012581D01*
X006767Y012581D01*
X006767Y012087D01*
X007181Y012087D01*
X007181Y012451D01*
X007171Y012489D01*
X007152Y012523D01*
X007181Y012437D02*
X007433Y012437D01*
X007433Y012338D02*
X007181Y012338D01*
X007181Y012240D02*
X007433Y012240D01*
X007181Y012141D02*
X011168Y012141D01*
X011168Y012043D02*
X006767Y012043D01*
X006767Y012087D02*
X006767Y011987D01*
X007181Y011987D01*
X007181Y011624D01*
X007171Y011586D01*
X007152Y011552D01*
X007124Y011524D01*
X007089Y011504D01*
X007051Y011494D01*
X006767Y011494D01*
X006767Y011987D01*
X006667Y011987D01*
X006667Y011494D01*
X006382Y011494D01*
X006344Y011504D01*
X006309Y011524D01*
X006282Y011552D01*
X006262Y011586D01*
X006252Y011624D01*
X006252Y011987D01*
X006667Y011987D01*
X006667Y012087D01*
X006667Y012581D01*
X006382Y012581D01*
X006344Y012571D01*
X006309Y012551D01*
X006282Y012523D01*
X006262Y012489D01*
X006252Y012451D01*
X006252Y012087D01*
X006667Y012087D01*
X006767Y012087D01*
X006767Y012141D02*
X006667Y012141D01*
X006667Y012043D02*
X006009Y012043D01*
X006011Y012045D02*
X006011Y012530D01*
X005993Y012547D01*
X006128Y012547D01*
X006193Y012612D01*
X006193Y013215D01*
X006128Y013279D01*
X005447Y013279D01*
X005382Y013215D01*
X005382Y013073D01*
X005380Y013073D01*
X005380Y013215D01*
X005316Y013279D01*
X004634Y013279D01*
X004570Y013215D01*
X004570Y012612D01*
X004634Y012547D01*
X004662Y012547D01*
X004659Y012542D01*
X004649Y012504D01*
X004649Y012336D01*
X004967Y012336D01*
X004967Y012239D01*
X005064Y012239D01*
X005064Y011941D01*
X005252Y011941D01*
X005290Y011951D01*
X005324Y011971D01*
X005352Y011998D01*
X005371Y012032D01*
X005422Y011981D01*
X005947Y011981D01*
X006011Y012045D01*
X006011Y012141D02*
X006252Y012141D01*
X006252Y012240D02*
X006011Y012240D01*
X006011Y012338D02*
X006252Y012338D01*
X006252Y012437D02*
X006011Y012437D01*
X006005Y012535D02*
X006294Y012535D01*
X006667Y012535D02*
X006767Y012535D01*
X006767Y012437D02*
X006667Y012437D01*
X006667Y012338D02*
X006767Y012338D01*
X006767Y012240D02*
X006667Y012240D01*
X006667Y011944D02*
X006767Y011944D01*
X006767Y011846D02*
X006667Y011846D01*
X006667Y011747D02*
X006767Y011747D01*
X006767Y011649D02*
X006667Y011649D01*
X006667Y011550D02*
X006767Y011550D01*
X007150Y011550D02*
X007808Y011550D01*
X007808Y011595D02*
X007808Y011495D01*
X007908Y011495D01*
X007908Y011139D01*
X008193Y011139D01*
X008231Y011150D01*
X008265Y011169D01*
X008293Y011197D01*
X008313Y011231D01*
X008323Y011270D01*
X008323Y011495D01*
X007908Y011495D01*
X007908Y011595D01*
X007808Y011595D01*
X007393Y011595D01*
X007393Y011821D01*
X007404Y011859D01*
X007423Y011893D01*
X007451Y011921D01*
X007485Y011941D01*
X007524Y011951D01*
X007808Y011951D01*
X007808Y011595D01*
X007808Y011649D02*
X007908Y011649D01*
X007908Y011595D02*
X007908Y011951D01*
X008193Y011951D01*
X008231Y011941D01*
X008265Y011921D01*
X008293Y011893D01*
X008313Y011859D01*
X008323Y011821D01*
X008323Y011595D01*
X007908Y011595D01*
X007908Y011550D02*
X008637Y011550D01*
X008565Y011452D02*
X008323Y011452D01*
X008323Y011353D02*
X008565Y011353D01*
X008565Y011255D02*
X008319Y011255D01*
X008243Y011156D02*
X008565Y011156D01*
X008885Y011156D02*
X010543Y011156D01*
X010543Y011211D02*
X010543Y011023D01*
X010842Y011023D01*
X010842Y010926D01*
X010939Y010926D01*
X010939Y010608D01*
X011107Y010608D01*
X011145Y010619D01*
X011179Y010638D01*
X011207Y010666D01*
X011227Y010700D01*
X011237Y010739D01*
X011237Y010926D01*
X010939Y010926D01*
X010939Y011023D01*
X011237Y011023D01*
X011237Y011211D01*
X011227Y011249D01*
X011207Y011284D01*
X011179Y011311D01*
X011145Y011331D01*
X011107Y011341D01*
X010939Y011341D01*
X010939Y011023D01*
X010842Y011023D01*
X010842Y011341D01*
X010674Y011341D01*
X010636Y011331D01*
X010601Y011311D01*
X010573Y011284D01*
X010554Y011249D01*
X010543Y011211D01*
X010557Y011255D02*
X008885Y011255D01*
X008885Y011346D02*
X008885Y010979D01*
X009166Y010697D01*
X010166Y010697D01*
X010416Y010447D01*
X010510Y010354D01*
X010510Y009666D01*
X010979Y009197D01*
X011232Y009197D01*
X011226Y009201D01*
X011198Y009229D01*
X011179Y009263D01*
X011168Y009301D01*
X011168Y009489D01*
X011467Y009489D01*
X011467Y009586D01*
X011467Y010176D01*
X011564Y010176D01*
X011564Y009858D01*
X011564Y009586D01*
X011467Y009586D01*
X011168Y009586D01*
X011168Y009774D01*
X011179Y009812D01*
X011198Y009846D01*
X011226Y009874D01*
X011239Y009881D01*
X011226Y009888D01*
X011198Y009916D01*
X011179Y009950D01*
X011168Y009989D01*
X011168Y010176D01*
X011467Y010176D01*
X011467Y010273D01*
X011168Y010273D01*
X011168Y010461D01*
X011179Y010499D01*
X011198Y010534D01*
X011226Y010561D01*
X011261Y010581D01*
X011299Y010591D01*
X011467Y010591D01*
X011467Y010273D01*
X011564Y010273D01*
X011564Y010591D01*
X011725Y010591D01*
X011725Y010648D01*
X011317Y010648D01*
X011253Y010713D01*
X011253Y011237D01*
X011317Y011301D01*
X011725Y011301D01*
X011725Y011565D01*
X009104Y011565D01*
X008885Y011346D01*
X008892Y011353D02*
X011725Y011353D01*
X011725Y011452D02*
X008991Y011452D01*
X009089Y011550D02*
X011725Y011550D01*
X011912Y011550D02*
X012690Y011550D01*
X012690Y011649D02*
X011912Y011649D01*
X011912Y011747D02*
X012690Y011747D01*
X012690Y011846D02*
X012010Y011846D01*
X012136Y011944D02*
X012233Y011944D01*
X012233Y012043D02*
X012136Y012043D01*
X012136Y012141D02*
X012233Y012141D01*
X012233Y012240D02*
X012690Y012240D01*
X012690Y012338D02*
X012531Y012338D01*
X012531Y012437D02*
X012690Y012437D01*
X012690Y012535D02*
X012500Y012535D01*
X012690Y012634D02*
X012010Y012634D01*
X012010Y012732D02*
X012690Y012732D01*
X012690Y012831D02*
X012010Y012831D01*
X012010Y012929D02*
X012690Y012929D01*
X012690Y013028D02*
X012010Y013028D01*
X012010Y013126D02*
X012690Y013126D01*
X012690Y013225D02*
X012010Y013225D01*
X011978Y013323D02*
X012690Y013323D01*
X012690Y013422D02*
X011912Y013422D01*
X011912Y013520D02*
X012690Y013520D01*
X012690Y013619D02*
X011912Y013619D01*
X011912Y013717D02*
X012690Y013717D01*
X012690Y013816D02*
X011912Y013816D01*
X011912Y013914D02*
X012622Y013914D01*
X012523Y014013D02*
X011912Y014013D01*
X011912Y014111D02*
X012425Y014111D01*
X012326Y014210D02*
X011912Y014210D01*
X011912Y014308D02*
X012228Y014308D01*
X012129Y014407D02*
X011912Y014407D01*
X011912Y014505D02*
X012031Y014505D01*
X012037Y014725D02*
X010980Y014725D01*
X010945Y014760D01*
X010135Y014760D01*
X010037Y014662D01*
X008505Y013850D02*
X008475Y013820D01*
X008475Y013600D01*
X007475Y013997D02*
X007350Y013997D01*
X006600Y013663D02*
X006598Y013661D01*
X005787Y013661D01*
X005810Y013684D01*
X005810Y014350D01*
X006136Y014308D02*
X006195Y014308D01*
X006195Y014210D02*
X006136Y014210D01*
X006136Y014111D02*
X006195Y014111D01*
X006243Y014013D02*
X006143Y014013D01*
X006193Y013914D02*
X006195Y013914D01*
X006195Y014407D02*
X006136Y014407D01*
X006136Y014505D02*
X006195Y014505D01*
X006195Y014604D02*
X006124Y014604D01*
X006195Y014702D02*
X004553Y014702D01*
X004553Y014604D02*
X004784Y014604D01*
X004784Y014605D02*
X004774Y014566D01*
X004774Y014398D01*
X005092Y014398D01*
X005092Y014697D01*
X004904Y014697D01*
X004866Y014687D01*
X004832Y014667D01*
X004804Y014639D01*
X004784Y014605D01*
X004774Y014505D02*
X004553Y014505D01*
X004553Y014466D02*
X004553Y015109D01*
X004488Y015173D01*
X003767Y015173D01*
X003703Y015109D01*
X003703Y014466D01*
X003767Y014402D01*
X004160Y014402D01*
X004192Y014370D01*
X004383Y014370D01*
X004415Y014402D01*
X004488Y014402D01*
X004553Y014466D01*
X004494Y014407D02*
X004774Y014407D01*
X004774Y014210D02*
X003107Y014210D01*
X003107Y014308D02*
X005092Y014308D01*
X005092Y014407D02*
X005189Y014407D01*
X005189Y014505D02*
X005092Y014505D01*
X005092Y014604D02*
X005189Y014604D01*
X005409Y014792D02*
X004806Y014792D01*
X004742Y014856D01*
X004742Y015577D01*
X004806Y015641D01*
X005409Y015641D01*
X005474Y015577D01*
X005474Y014856D01*
X005409Y014792D01*
X005419Y014801D02*
X005781Y014801D01*
X005726Y014899D02*
X005474Y014899D01*
X005474Y014998D02*
X005726Y014998D01*
X005726Y015096D02*
X005474Y015096D01*
X005474Y015195D02*
X005726Y015195D01*
X005726Y015293D02*
X005474Y015293D01*
X005474Y015392D02*
X005726Y015392D01*
X005726Y015490D02*
X005474Y015490D01*
X005462Y015589D02*
X005738Y015589D01*
X005932Y015687D02*
X003865Y015687D01*
X003865Y015786D02*
X005932Y015786D01*
X005847Y015884D02*
X003865Y015884D01*
X003865Y015983D02*
X005111Y015983D01*
X005096Y016081D02*
X003865Y016081D01*
X003440Y016037D02*
X003440Y015975D01*
X003440Y016037D02*
X003287Y016037D01*
X003015Y015884D02*
X002724Y015884D01*
X002724Y015786D02*
X003015Y015786D01*
X003015Y015687D02*
X002724Y015687D01*
X002676Y015589D02*
X004754Y015589D01*
X004742Y015490D02*
X001062Y015490D01*
X001062Y015392D02*
X004742Y015392D01*
X004742Y015293D02*
X002485Y015293D01*
X002485Y015301D02*
X002421Y015365D01*
X001779Y015365D01*
X001714Y015301D01*
X001714Y014580D01*
X001779Y014515D01*
X002421Y014515D01*
X002485Y014580D01*
X002485Y015301D01*
X002485Y015195D02*
X004742Y015195D01*
X004742Y015096D02*
X004553Y015096D01*
X004553Y014998D02*
X004742Y014998D01*
X004742Y014899D02*
X004553Y014899D01*
X004553Y014801D02*
X004797Y014801D01*
X004975Y015084D02*
X005108Y015217D01*
X005037Y015100D02*
X004975Y015084D01*
X004287Y014600D02*
X004128Y014697D01*
X004128Y014787D01*
X003703Y014801D02*
X003372Y014801D01*
X003372Y014899D02*
X003703Y014899D01*
X003703Y014998D02*
X003372Y014998D01*
X003372Y015096D02*
X003703Y015096D01*
X003372Y015109D02*
X003307Y015173D01*
X002586Y015173D01*
X002522Y015109D01*
X002522Y014466D01*
X002586Y014402D01*
X002787Y014402D01*
X002787Y013402D01*
X002485Y013402D01*
X002485Y014120D01*
X002421Y014184D01*
X001779Y014184D01*
X001714Y014120D01*
X001714Y013399D01*
X001779Y013334D01*
X001940Y013334D01*
X001940Y013221D01*
X002034Y013127D01*
X002208Y012953D01*
X002208Y012853D01*
X002273Y012789D01*
X003427Y012789D01*
X003491Y012853D01*
X003491Y013338D01*
X003427Y013402D01*
X003107Y013402D01*
X003107Y014402D01*
X003307Y014402D01*
X003372Y014466D01*
X003372Y015109D01*
X003372Y014702D02*
X003703Y014702D01*
X003703Y014604D02*
X003372Y014604D01*
X003372Y014505D02*
X003703Y014505D01*
X003762Y014407D02*
X003312Y014407D01*
X003107Y014111D02*
X003712Y014111D01*
X003652Y014013D02*
X003107Y014013D01*
X003107Y013914D02*
X003652Y013914D01*
X003652Y013816D02*
X003107Y013816D01*
X003107Y013717D02*
X003652Y013717D01*
X003652Y013619D02*
X003107Y013619D01*
X003107Y013520D02*
X003652Y013520D01*
X003652Y013422D02*
X003107Y013422D01*
X002947Y013192D02*
X002850Y013095D01*
X002292Y013095D01*
X002100Y013287D01*
X002100Y013759D01*
X002186Y013759D01*
X002162Y013787D02*
X002128Y013787D01*
X002119Y013786D01*
X002112Y013782D01*
X002105Y013775D01*
X002101Y013768D01*
X002100Y013759D01*
X002485Y013717D02*
X002787Y013717D01*
X002787Y013619D02*
X002485Y013619D01*
X002485Y013520D02*
X002787Y013520D01*
X002787Y013422D02*
X002485Y013422D01*
X002947Y013192D02*
X002947Y014787D01*
X002522Y014801D02*
X002485Y014801D01*
X002485Y014899D02*
X002522Y014899D01*
X002522Y014998D02*
X002485Y014998D01*
X002485Y015096D02*
X002522Y015096D01*
X002128Y014940D02*
X002100Y014940D01*
X002128Y014940D02*
X002119Y014939D01*
X002112Y014935D01*
X002105Y014928D01*
X002101Y014921D01*
X002100Y014912D01*
X002485Y014702D02*
X002522Y014702D01*
X002522Y014604D02*
X002485Y014604D01*
X002522Y014505D02*
X001062Y014505D01*
X001062Y014407D02*
X002581Y014407D01*
X002787Y014308D02*
X001062Y014308D01*
X001062Y014210D02*
X002787Y014210D01*
X002787Y014111D02*
X002485Y014111D01*
X002485Y014013D02*
X002787Y014013D01*
X002787Y013914D02*
X002485Y013914D01*
X002485Y013816D02*
X002787Y013816D01*
X003491Y013323D02*
X003658Y013323D01*
X003491Y013225D02*
X004580Y013225D01*
X004570Y013126D02*
X003491Y013126D01*
X003491Y013028D02*
X004570Y013028D01*
X004570Y012929D02*
X004420Y012929D01*
X004433Y012916D02*
X004405Y012944D01*
X004371Y012964D01*
X004333Y012974D01*
X004087Y012974D01*
X004087Y012559D01*
X003987Y012559D01*
X003987Y012459D01*
X003612Y012459D01*
X003612Y012175D01*
X003622Y012136D01*
X003642Y012102D01*
X003670Y012074D01*
X003704Y012055D01*
X003742Y012044D01*
X003987Y012044D01*
X003987Y012459D01*
X004087Y012459D01*
X004087Y012044D01*
X004333Y012044D01*
X004371Y012055D01*
X004405Y012074D01*
X004433Y012102D01*
X004453Y012136D01*
X004463Y012175D01*
X004463Y012459D01*
X004087Y012459D01*
X004087Y012559D01*
X004463Y012559D01*
X004463Y012844D01*
X004453Y012882D01*
X004433Y012916D01*
X004463Y012831D02*
X004570Y012831D01*
X004570Y012732D02*
X004463Y012732D01*
X004463Y012634D02*
X004570Y012634D01*
X004657Y012535D02*
X004087Y012535D01*
X004087Y012437D02*
X003987Y012437D01*
X003987Y012535D02*
X003428Y012535D01*
X003491Y012437D02*
X003612Y012437D01*
X003612Y012338D02*
X003491Y012338D01*
X003491Y012240D02*
X003612Y012240D01*
X003621Y012141D02*
X003491Y012141D01*
X003491Y012043D02*
X004656Y012043D01*
X004659Y012033D02*
X004679Y011998D01*
X004707Y011971D01*
X004741Y011951D01*
X004779Y011941D01*
X004967Y011941D01*
X004967Y012239D01*
X004649Y012239D01*
X004649Y012071D01*
X004659Y012033D01*
X004649Y012141D02*
X004454Y012141D01*
X004463Y012240D02*
X004967Y012240D01*
X004967Y012141D02*
X005064Y012141D01*
X005064Y012043D02*
X004967Y012043D01*
X004967Y011944D02*
X005064Y011944D01*
X005266Y011944D02*
X006252Y011944D01*
X006252Y011846D02*
X002726Y011846D01*
X002726Y011747D02*
X006252Y011747D01*
X006252Y011649D02*
X002726Y011649D01*
X002726Y011550D02*
X006283Y011550D01*
X007181Y011649D02*
X007393Y011649D01*
X007393Y011747D02*
X007181Y011747D01*
X007181Y011846D02*
X007400Y011846D01*
X007498Y011944D02*
X007181Y011944D01*
X007808Y011944D02*
X007908Y011944D01*
X007908Y011846D02*
X007808Y011846D01*
X007808Y011747D02*
X007908Y011747D01*
X008218Y011944D02*
X011182Y011944D01*
X011467Y012240D02*
X008283Y012240D01*
X008283Y012338D02*
X011168Y012338D01*
X011168Y012437D02*
X010668Y012437D01*
X010767Y012535D02*
X011200Y012535D01*
X011432Y012591D02*
X011495Y012654D01*
X011495Y013225D01*
X011624Y013225D01*
X011596Y013252D02*
X011690Y013159D01*
X011690Y012591D01*
X011564Y012591D01*
X011564Y012273D01*
X011467Y012273D01*
X011467Y012591D01*
X011432Y012591D01*
X011474Y012634D02*
X011690Y012634D01*
X011690Y012732D02*
X011495Y012732D01*
X011495Y012831D02*
X011690Y012831D01*
X011690Y012929D02*
X011495Y012929D01*
X011495Y013028D02*
X011690Y013028D01*
X011690Y013126D02*
X011495Y013126D01*
X011495Y013225D02*
X011468Y013252D01*
X011596Y013252D01*
X010945Y012940D02*
X010535Y012530D01*
X010037Y012530D01*
X010037Y012975D01*
X009877Y012810D02*
X009807Y012880D01*
X009856Y012831D02*
X008283Y012831D01*
X008283Y012732D02*
X009877Y012732D01*
X009877Y012690D02*
X009877Y012810D01*
X009877Y012690D02*
X008283Y012690D01*
X008317Y011846D02*
X008932Y011846D01*
X008834Y011747D02*
X008323Y011747D01*
X008323Y011649D02*
X008735Y011649D01*
X008885Y011058D02*
X010543Y011058D01*
X010543Y010926D02*
X010543Y010739D01*
X010554Y010700D01*
X010573Y010666D01*
X010601Y010638D01*
X010636Y010619D01*
X010674Y010608D01*
X010842Y010608D01*
X010842Y010926D01*
X010543Y010926D01*
X010543Y010861D02*
X009003Y010861D01*
X009101Y010762D02*
X010543Y010762D01*
X010576Y010664D02*
X010200Y010664D01*
X010298Y010565D02*
X011233Y010565D01*
X011205Y010664D02*
X011302Y010664D01*
X011253Y010762D02*
X011237Y010762D01*
X011237Y010861D02*
X011253Y010861D01*
X011253Y010959D02*
X010939Y010959D01*
X010842Y010959D02*
X008904Y010959D01*
X008747Y010664D02*
X007339Y010664D01*
X007368Y010565D02*
X008846Y010565D01*
X008944Y010467D02*
X007479Y010467D01*
X007578Y010368D02*
X009315Y010368D01*
X009272Y010270D02*
X009409Y010270D01*
X009371Y010171D02*
X009508Y010171D01*
X009524Y010155D02*
X009746Y010377D01*
X010034Y010377D01*
X010190Y010221D01*
X010190Y009534D01*
X010284Y009440D01*
X010776Y008947D01*
X009604Y008947D01*
X009510Y008854D01*
X009353Y008696D01*
X009353Y008712D01*
X009149Y008915D01*
X009130Y008915D01*
X009130Y008935D01*
X008927Y009138D01*
X008908Y009138D01*
X008908Y009157D01*
X008704Y009361D01*
X008688Y009361D01*
X008765Y009437D01*
X008991Y009211D01*
X009082Y009211D01*
X009453Y009582D01*
X009453Y009654D01*
X009490Y009644D01*
X009530Y009644D01*
X009568Y009654D01*
X009602Y009674D01*
X009735Y009807D01*
X009524Y010018D01*
X009593Y010087D01*
X009524Y010155D01*
X009540Y010171D02*
X009677Y010171D01*
X009639Y010270D02*
X009776Y010270D01*
X009817Y010311D02*
X009593Y010087D01*
X009804Y009876D01*
X010190Y009876D01*
X010190Y009974D02*
X009902Y009974D01*
X009936Y010008D02*
X009956Y010043D01*
X009966Y010081D01*
X009966Y010120D01*
X009956Y010158D01*
X009936Y010193D01*
X009817Y010311D01*
X009859Y010270D02*
X010141Y010270D01*
X010190Y010171D02*
X009949Y010171D01*
X009964Y010073D02*
X010190Y010073D01*
X009936Y010008D02*
X009804Y009876D01*
X009803Y009876D02*
X009666Y009876D01*
X009705Y009974D02*
X009568Y009974D01*
X009579Y010073D02*
X009606Y010073D01*
X009705Y009777D02*
X010190Y009777D01*
X010190Y009679D02*
X009607Y009679D01*
X009452Y009580D02*
X010190Y009580D01*
X010242Y009482D02*
X009353Y009482D01*
X009255Y009383D02*
X010340Y009383D01*
X010284Y009440D02*
X010284Y009440D01*
X010439Y009285D02*
X009156Y009285D01*
X008917Y009285D02*
X008780Y009285D01*
X008819Y009383D02*
X008711Y009383D01*
X008701Y009600D02*
X009037Y009600D01*
X009100Y009564D01*
X009051Y009613D01*
X008879Y009876D02*
X008189Y009876D01*
X008090Y009974D02*
X008978Y009974D01*
X009082Y010073D02*
X007801Y010073D01*
X007775Y010171D02*
X009118Y010171D01*
X009217Y010270D02*
X007676Y010270D01*
X007743Y009974D02*
X007890Y009974D01*
X008344Y009777D02*
X008781Y009777D01*
X008701Y009600D02*
X008296Y009195D01*
X007889Y008787D01*
X007662Y008787D01*
X007350Y009100D01*
X007310Y009100D01*
X007851Y009641D01*
X007399Y010093D01*
X007399Y010113D01*
X006849Y009641D02*
X006475Y010015D01*
X006475Y010037D01*
X006311Y009876D02*
X005949Y009876D01*
X006047Y009777D02*
X006412Y009777D01*
X006314Y009679D02*
X006146Y009679D01*
X005686Y009912D02*
X004685Y009912D01*
X004015Y009912D02*
X003901Y010027D01*
X002566Y010027D01*
X002566Y010282D02*
X002566Y012229D01*
X002850Y012229D01*
X002823Y012229D01*
X002787Y012265D01*
X002406Y011846D02*
X001062Y011846D01*
X001062Y011944D02*
X002251Y011944D01*
X002208Y012043D02*
X001062Y012043D01*
X001062Y012141D02*
X002208Y012141D01*
X002208Y012240D02*
X001062Y012240D01*
X001062Y012338D02*
X002208Y012338D01*
X002208Y012437D02*
X001062Y012437D01*
X001062Y012535D02*
X002272Y012535D01*
X002231Y012831D02*
X001062Y012831D01*
X001062Y012929D02*
X002208Y012929D01*
X002133Y013028D02*
X001062Y013028D01*
X001062Y013126D02*
X002035Y013126D01*
X001940Y013225D02*
X001062Y013225D01*
X001062Y013323D02*
X001940Y013323D01*
X001714Y013422D02*
X001062Y013422D01*
X001062Y013520D02*
X001714Y013520D01*
X001714Y013619D02*
X001062Y013619D01*
X001062Y013717D02*
X001714Y013717D01*
X001714Y013816D02*
X001062Y013816D01*
X001062Y013914D02*
X001714Y013914D01*
X001714Y014013D02*
X001062Y014013D01*
X001062Y014111D02*
X001714Y014111D01*
X001714Y014604D02*
X001062Y014604D01*
X001062Y014702D02*
X001714Y014702D01*
X001714Y014801D02*
X001062Y014801D01*
X001062Y014899D02*
X001714Y014899D01*
X001714Y014998D02*
X001062Y014998D01*
X001062Y015096D02*
X001714Y015096D01*
X001714Y015195D02*
X001062Y015195D01*
X001062Y015293D02*
X001714Y015293D01*
X001843Y015589D02*
X001062Y015589D01*
X001062Y015687D02*
X001794Y015687D01*
X001794Y015786D02*
X001062Y015786D01*
X001062Y015884D02*
X001794Y015884D01*
X002209Y015884D02*
X002309Y015884D01*
X002309Y015786D02*
X002209Y015786D01*
X002209Y015687D02*
X002309Y015687D01*
X002309Y015589D02*
X002209Y015589D01*
X002209Y016180D02*
X002309Y016180D01*
X002309Y016278D02*
X002209Y016278D01*
X002209Y016377D02*
X002309Y016377D01*
X005350Y016350D02*
X005358Y016358D01*
X005600Y016358D01*
X006092Y015866D01*
X006092Y015217D01*
X006458Y014899D02*
X006711Y014899D01*
X006751Y014801D02*
X006403Y014801D01*
X005432Y014013D02*
X005413Y014013D01*
X005382Y013914D02*
X005380Y013914D01*
X005380Y013816D02*
X005382Y013816D01*
X005380Y013717D02*
X005382Y013717D01*
X005380Y013619D02*
X005382Y013619D01*
X005380Y013520D02*
X005382Y013520D01*
X005380Y013422D02*
X005382Y013422D01*
X005419Y013323D02*
X005344Y013323D01*
X005370Y013225D02*
X005392Y013225D01*
X005380Y013126D02*
X005382Y013126D01*
X005685Y012811D02*
X005787Y012913D01*
X004975Y012913D01*
X004606Y013323D02*
X004416Y013323D01*
X004423Y013422D02*
X004570Y013422D01*
X004570Y013520D02*
X004423Y013520D01*
X004037Y013690D02*
X004975Y013690D01*
X004975Y013661D01*
X005037Y013662D01*
X004570Y013914D02*
X004423Y013914D01*
X004423Y014013D02*
X004620Y014013D01*
X004780Y014111D02*
X004363Y014111D01*
X003987Y012974D02*
X003742Y012974D01*
X003704Y012964D01*
X003670Y012944D01*
X003642Y012916D01*
X003622Y012882D01*
X003612Y012844D01*
X003612Y012559D01*
X003987Y012559D01*
X003987Y012974D01*
X003987Y012929D02*
X004087Y012929D01*
X004087Y012831D02*
X003987Y012831D01*
X003987Y012732D02*
X004087Y012732D01*
X004087Y012634D02*
X003987Y012634D01*
X003987Y012338D02*
X004087Y012338D01*
X004087Y012240D02*
X003987Y012240D01*
X003987Y012141D02*
X004087Y012141D01*
X004463Y012338D02*
X004649Y012338D01*
X004649Y012437D02*
X004463Y012437D01*
X004764Y011944D02*
X003449Y011944D01*
X003612Y012634D02*
X001062Y012634D01*
X001062Y012732D02*
X003612Y012732D01*
X003612Y012831D02*
X003469Y012831D01*
X003491Y012929D02*
X003655Y012929D01*
X002406Y011747D02*
X001980Y011747D01*
X002007Y011649D02*
X002406Y011649D01*
X002406Y011550D02*
X002007Y011550D01*
X002007Y011452D02*
X002406Y011452D01*
X002406Y011353D02*
X002007Y011353D01*
X002007Y011156D02*
X002406Y011156D01*
X002406Y011058D02*
X002007Y011058D01*
X002007Y010959D02*
X002406Y010959D01*
X002406Y010861D02*
X001999Y010861D01*
X001895Y010762D02*
X002406Y010762D01*
X002406Y010664D02*
X002000Y010664D01*
X002007Y010565D02*
X002406Y010565D01*
X002240Y010467D02*
X002007Y010467D01*
X002007Y010368D02*
X002180Y010368D01*
X002180Y010270D02*
X001533Y010270D01*
X001533Y010368D02*
X001433Y010368D01*
X001433Y010467D02*
X001533Y010467D01*
X001533Y010565D02*
X001433Y010565D01*
X001433Y010664D02*
X001533Y010664D01*
X001533Y010762D02*
X001433Y010762D01*
X001433Y010861D02*
X001533Y010861D01*
X001533Y010959D02*
X001433Y010959D01*
X001433Y011058D02*
X001533Y011058D01*
X001533Y011156D02*
X001433Y011156D01*
X001533Y011255D02*
X002406Y011255D01*
X002726Y011255D02*
X007397Y011255D01*
X007393Y011270D02*
X007404Y011231D01*
X007423Y011197D01*
X007451Y011169D01*
X007485Y011150D01*
X007524Y011139D01*
X007808Y011139D01*
X007808Y011495D01*
X007393Y011495D01*
X007393Y011270D01*
X007393Y011353D02*
X002726Y011353D01*
X002726Y011452D02*
X007393Y011452D01*
X007474Y011156D02*
X002726Y011156D01*
X002726Y011058D02*
X003233Y011058D01*
X003182Y010959D02*
X002726Y010959D01*
X002726Y010861D02*
X003145Y010861D01*
X003083Y010762D02*
X002726Y010762D01*
X002726Y010664D02*
X003083Y010664D01*
X003083Y010565D02*
X002726Y010565D01*
X002891Y010467D02*
X003083Y010467D01*
X003135Y010282D02*
X003390Y010537D01*
X003390Y010890D01*
X003412Y010912D01*
X003642Y010861D02*
X003814Y010861D01*
X003753Y010762D02*
X003697Y010762D01*
X003697Y010664D02*
X003753Y010664D01*
X003753Y010565D02*
X003697Y010565D01*
X003697Y010467D02*
X003753Y010467D01*
X003753Y010368D02*
X003697Y010368D01*
X003692Y010270D02*
X003758Y010270D01*
X003135Y010282D02*
X002566Y010282D01*
X002180Y010171D02*
X002007Y010171D01*
X002007Y010073D02*
X002180Y010073D01*
X002180Y009974D02*
X002007Y009974D01*
X002007Y009876D02*
X002180Y009876D01*
X002180Y009777D02*
X001978Y009777D01*
X002007Y009679D02*
X002180Y009679D01*
X002180Y009580D02*
X002007Y009580D01*
X002007Y009482D02*
X002180Y009482D01*
X002147Y009383D02*
X002007Y009383D01*
X002140Y009285D02*
X001533Y009285D01*
X001533Y009383D02*
X001433Y009383D01*
X001433Y009482D02*
X001533Y009482D01*
X001533Y009580D02*
X001433Y009580D01*
X001433Y009679D02*
X001533Y009679D01*
X001533Y009777D02*
X001433Y009777D01*
X001433Y009876D02*
X001533Y009876D01*
X001533Y009974D02*
X001433Y009974D01*
X001433Y010073D02*
X001533Y010073D01*
X001533Y010171D02*
X001433Y010171D01*
X002566Y009771D02*
X003117Y009771D01*
X002566Y009259D02*
X002566Y009259D01*
X002140Y009259D01*
X002140Y009160D01*
X002151Y009122D01*
X002170Y009088D01*
X002198Y009060D01*
X002232Y009040D01*
X002271Y009030D01*
X002566Y009030D01*
X002566Y009259D01*
X002566Y009186D02*
X002566Y009186D01*
X002566Y009088D02*
X002566Y009088D01*
X002170Y009088D02*
X002007Y009088D01*
X002007Y009186D02*
X002140Y009186D01*
X001533Y009186D02*
X001433Y009186D01*
X001433Y009088D02*
X001533Y009088D01*
X001533Y008989D02*
X001433Y008989D01*
X001433Y008891D02*
X001533Y008891D01*
X001533Y008792D02*
X001433Y008792D01*
X001433Y008694D02*
X001533Y008694D01*
X001533Y008595D02*
X001433Y008595D01*
X001433Y008497D02*
X001533Y008497D01*
X001533Y008398D02*
X001433Y008398D01*
X001433Y008300D02*
X001533Y008300D01*
X001066Y008694D02*
X001062Y008694D01*
X001062Y007610D02*
X002951Y007610D01*
X002927Y007512D02*
X001062Y007512D01*
X001062Y007413D02*
X002981Y007413D01*
X003080Y007315D02*
X001062Y007315D01*
X001062Y007216D02*
X003225Y007216D01*
X003182Y007315D02*
X003323Y007315D01*
X003280Y007413D02*
X003422Y007413D01*
X003277Y007118D02*
X001062Y007118D01*
X001062Y007019D02*
X003375Y007019D01*
X003807Y006921D02*
X001062Y006921D01*
X001062Y006822D02*
X003807Y006822D01*
X003838Y006724D02*
X002829Y006724D01*
X002564Y006724D02*
X002467Y006724D01*
X002467Y006625D02*
X002564Y006625D01*
X002564Y006527D02*
X002467Y006527D01*
X002467Y006428D02*
X001062Y006428D01*
X001062Y006330D02*
X002149Y006330D01*
X002149Y006364D02*
X002149Y006196D01*
X002159Y006158D01*
X002179Y006123D01*
X002207Y006096D01*
X002241Y006076D01*
X002279Y006066D01*
X002467Y006066D01*
X002467Y006364D01*
X002149Y006364D01*
X002149Y006231D02*
X001062Y006231D01*
X001062Y006133D02*
X002173Y006133D01*
X002206Y005941D02*
X001485Y005941D01*
X001421Y005876D01*
X001421Y005195D01*
X001485Y005130D01*
X002206Y005130D01*
X002271Y005195D01*
X002271Y005876D01*
X002206Y005941D01*
X002211Y005936D02*
X003227Y005936D01*
X003129Y006034D02*
X001062Y006034D01*
X001062Y005936D02*
X001481Y005936D01*
X001421Y005837D02*
X001062Y005837D01*
X001062Y005739D02*
X001421Y005739D01*
X001421Y005640D02*
X001062Y005640D01*
X001062Y005542D02*
X001421Y005542D01*
X001421Y005443D02*
X001062Y005443D01*
X001062Y005345D02*
X001421Y005345D01*
X001421Y005246D02*
X001062Y005246D01*
X001062Y005148D02*
X001468Y005148D01*
X002224Y005148D02*
X003476Y005148D01*
X003429Y005246D02*
X002271Y005246D01*
X002271Y005345D02*
X003429Y005345D01*
X003429Y005443D02*
X002271Y005443D01*
X002271Y005542D02*
X003429Y005542D01*
X003429Y005640D02*
X002271Y005640D01*
X002271Y005739D02*
X003424Y005739D01*
X003326Y005837D02*
X002271Y005837D01*
X002467Y006133D02*
X002564Y006133D01*
X002564Y006231D02*
X002467Y006231D01*
X002467Y006330D02*
X002564Y006330D01*
X002857Y006133D02*
X002895Y006133D01*
X003511Y006527D02*
X003940Y006527D01*
X003937Y006625D02*
X003511Y006625D01*
X004100Y006162D02*
X004350Y005912D01*
X004568Y005912D01*
X004844Y006189D01*
X005178Y006428D02*
X005303Y006428D01*
X005402Y006527D02*
X005079Y006527D01*
X004981Y006625D02*
X005500Y006625D01*
X005599Y006724D02*
X004882Y006724D01*
X004640Y006724D02*
X004260Y006724D01*
X004260Y006625D02*
X004541Y006625D01*
X004443Y006527D02*
X004260Y006527D01*
X004260Y006428D02*
X004344Y006428D01*
X004267Y006822D02*
X005697Y006822D01*
X005796Y006921D02*
X004267Y006921D01*
X004193Y007019D02*
X005105Y007019D01*
X005007Y007118D02*
X004899Y007118D01*
X005225Y007225D02*
X005225Y007256D01*
X004844Y007636D01*
X005067Y007859D02*
X005451Y007475D01*
X005537Y007475D01*
X005703Y007315D02*
X005877Y007315D01*
X005877Y007413D02*
X005767Y007413D01*
X005767Y007512D02*
X005877Y007512D01*
X005877Y007610D02*
X005727Y007610D01*
X005877Y007709D02*
X005490Y007709D01*
X005589Y007807D02*
X005783Y007807D01*
X005685Y007906D02*
X005678Y007906D01*
X005904Y008139D02*
X006096Y007947D01*
X006096Y007947D01*
X006784Y008635D01*
X006784Y009003D01*
X006588Y008807D01*
X006569Y008807D01*
X006569Y008788D01*
X006386Y008605D01*
X006386Y008591D01*
X006376Y008553D01*
X006356Y008518D01*
X006273Y008435D01*
X005958Y008750D01*
X005958Y008750D01*
X006273Y008435D01*
X006189Y008351D01*
X006155Y008332D01*
X006117Y008321D01*
X006103Y008321D01*
X005920Y008139D01*
X005904Y008139D01*
X005940Y008103D02*
X006252Y008103D01*
X006350Y008201D02*
X005983Y008201D01*
X006081Y008300D02*
X006449Y008300D01*
X006547Y008398D02*
X006236Y008398D01*
X006211Y008497D02*
X006211Y008497D01*
X006335Y008497D02*
X006646Y008497D01*
X006744Y008595D02*
X006386Y008595D01*
X006475Y008694D02*
X006784Y008694D01*
X006784Y008792D02*
X006569Y008792D01*
X006672Y008891D02*
X006784Y008891D01*
X006771Y008989D02*
X006784Y008989D01*
X006944Y009100D02*
X006626Y009418D01*
X006403Y009195D02*
X005686Y009912D01*
X005850Y009974D02*
X006245Y009974D01*
X005299Y010467D02*
X005241Y010467D01*
X005241Y010664D02*
X005299Y010664D01*
X005299Y010762D02*
X005241Y010762D01*
X005685Y012287D02*
X005685Y012811D01*
X006193Y013028D02*
X007028Y013028D01*
X007003Y013126D02*
X006193Y013126D01*
X006183Y013225D02*
X007003Y013225D01*
X006233Y013323D02*
X006156Y013323D01*
X006193Y013422D02*
X006195Y013422D01*
X007808Y011452D02*
X007908Y011452D01*
X007908Y011353D02*
X007808Y011353D01*
X007808Y011255D02*
X007908Y011255D01*
X007908Y011156D02*
X007808Y011156D01*
X009737Y010368D02*
X010043Y010368D01*
X010397Y010467D02*
X011170Y010467D01*
X011168Y010368D02*
X010495Y010368D01*
X010510Y010270D02*
X011467Y010270D01*
X011467Y010368D02*
X011564Y010368D01*
X011564Y010467D02*
X011467Y010467D01*
X011467Y010565D02*
X011564Y010565D01*
X011912Y010565D02*
X012615Y010565D01*
X012557Y010467D02*
X012491Y010467D01*
X012787Y010412D02*
X012787Y010225D01*
X012185Y010225D01*
X012491Y010065D02*
X012854Y010065D01*
X013159Y010065D01*
X013291Y010065D01*
X013416Y010190D01*
X014659Y010190D01*
X014815Y010034D01*
X014815Y009861D01*
X014767Y009909D01*
X014767Y010008D01*
X014633Y010142D01*
X014442Y010142D01*
X014307Y010008D01*
X014307Y009909D01*
X014096Y009697D01*
X012491Y009697D01*
X012491Y009800D01*
X012427Y009864D01*
X011942Y009864D01*
X011912Y009834D01*
X011912Y009928D01*
X011942Y009898D01*
X012427Y009898D01*
X012491Y009963D01*
X012491Y010065D01*
X012491Y009974D02*
X014307Y009974D01*
X014275Y009876D02*
X011912Y009876D01*
X011564Y009876D02*
X011467Y009876D01*
X011467Y009974D02*
X011564Y009974D01*
X011564Y010073D02*
X011467Y010073D01*
X011467Y010171D02*
X011564Y010171D01*
X011168Y010171D02*
X010510Y010171D01*
X010510Y010073D02*
X011168Y010073D01*
X011172Y009974D02*
X010510Y009974D01*
X010510Y009876D02*
X011230Y009876D01*
X011169Y009777D02*
X010510Y009777D01*
X010510Y009679D02*
X011168Y009679D01*
X011168Y009482D02*
X010694Y009482D01*
X010596Y009580D02*
X011467Y009580D01*
X011467Y009679D02*
X011564Y009679D01*
X011564Y009777D02*
X011467Y009777D01*
X011168Y009383D02*
X010793Y009383D01*
X010891Y009285D02*
X011173Y009285D01*
X010734Y008989D02*
X009075Y008989D01*
X009174Y008891D02*
X009548Y008891D01*
X009449Y008792D02*
X009272Y008792D01*
X009606Y008497D02*
X011725Y008497D01*
X011725Y008398D02*
X009666Y008398D01*
X009705Y008595D02*
X011628Y008595D01*
X010636Y009088D02*
X008977Y009088D01*
X008878Y009186D02*
X010537Y009186D01*
X012185Y009537D02*
X014162Y009537D01*
X014537Y009912D01*
X014725Y009725D01*
X014725Y005537D01*
X013162Y003975D01*
X009397Y003975D01*
X008519Y004852D01*
X008296Y004630D02*
X009201Y003725D01*
X013287Y003725D01*
X014975Y005412D01*
X014975Y010100D01*
X014725Y010350D01*
X013350Y010350D01*
X013225Y010225D01*
X012787Y010225D01*
X013017Y010467D02*
X013241Y010467D01*
X012960Y010565D02*
X015346Y010565D01*
X015346Y010561D01*
X015410Y010497D01*
X016367Y010497D01*
X016432Y010561D01*
X016432Y010889D01*
X016367Y010953D01*
X015411Y010953D01*
X015260Y011104D01*
X015260Y011185D01*
X015330Y011255D01*
X015346Y011255D01*
X015330Y011255D02*
X015330Y011445D01*
X015195Y011580D01*
X015005Y011580D01*
X014870Y011445D01*
X014870Y011255D01*
X013356Y011255D01*
X013455Y011353D02*
X014870Y011353D01*
X014870Y011255D02*
X014940Y011185D01*
X014940Y010971D01*
X015252Y010659D01*
X015346Y010565D01*
X015247Y010664D02*
X011912Y010664D01*
X011912Y010762D02*
X015149Y010762D01*
X015050Y010861D02*
X011912Y010861D01*
X011912Y010959D02*
X014952Y010959D01*
X014940Y011058D02*
X011912Y011058D01*
X011912Y011156D02*
X012718Y011156D01*
X012850Y011350D02*
X013225Y011350D01*
X013475Y011600D01*
X013475Y011850D01*
X014225Y012600D01*
X014387Y012437D02*
X016875Y012437D01*
X016877Y012338D02*
X014190Y012338D01*
X014091Y012240D02*
X016877Y012240D01*
X016877Y012141D02*
X013993Y012141D01*
X013894Y012043D02*
X016877Y012043D01*
X016877Y011944D02*
X016433Y011944D01*
X016442Y011935D02*
X016414Y011963D01*
X016380Y011983D01*
X016342Y011993D01*
X015898Y011993D01*
X015898Y011734D01*
X016472Y011734D01*
X016472Y011863D01*
X016462Y011901D01*
X016442Y011935D01*
X016472Y011846D02*
X016877Y011846D01*
X016877Y011747D02*
X016472Y011747D01*
X016472Y011716D02*
X015898Y011716D01*
X015898Y011734D01*
X015880Y011734D01*
X015880Y011993D01*
X015436Y011993D01*
X015398Y011983D01*
X015364Y011963D01*
X015336Y011935D01*
X015316Y011901D01*
X015306Y011863D01*
X015306Y011734D01*
X015880Y011734D01*
X015880Y011716D01*
X015898Y011716D01*
X015898Y011457D01*
X016342Y011457D01*
X016380Y011467D01*
X016414Y011487D01*
X016442Y011515D01*
X016462Y011549D01*
X016472Y011587D01*
X016472Y011716D01*
X016472Y011649D02*
X016877Y011649D01*
X016877Y011550D02*
X016462Y011550D01*
X016368Y011452D02*
X016564Y011452D01*
X016761Y011452D02*
X016877Y011452D01*
X016877Y011353D02*
X016859Y011353D01*
X016662Y011225D02*
X015889Y011225D01*
X015880Y011457D02*
X015880Y011716D01*
X015306Y011716D01*
X015306Y011587D01*
X015316Y011549D01*
X015336Y011515D01*
X015364Y011487D01*
X015398Y011467D01*
X015436Y011457D01*
X015880Y011457D01*
X015880Y011550D02*
X015898Y011550D01*
X015898Y011649D02*
X015880Y011649D01*
X015880Y011747D02*
X015898Y011747D01*
X015898Y011846D02*
X015880Y011846D01*
X015880Y011944D02*
X015898Y011944D01*
X015345Y011944D02*
X013796Y011944D01*
X013697Y011846D02*
X015306Y011846D01*
X015306Y011747D02*
X013635Y011747D01*
X013635Y011649D02*
X015306Y011649D01*
X015316Y011550D02*
X015225Y011550D01*
X015323Y011452D02*
X015409Y011452D01*
X015346Y011353D02*
X015330Y011353D01*
X015346Y011156D02*
X015260Y011156D01*
X015306Y011058D02*
X015349Y011058D01*
X015404Y010959D02*
X016877Y010959D01*
X016877Y010861D02*
X016432Y010861D01*
X016432Y010762D02*
X016877Y010762D01*
X016875Y010664D02*
X016432Y010664D01*
X016432Y010565D02*
X016777Y010565D01*
X016678Y010467D02*
X014834Y010467D01*
X014933Y010368D02*
X015346Y010368D01*
X015346Y010270D02*
X015031Y010270D01*
X015130Y010171D02*
X015346Y010171D01*
X015346Y010073D02*
X015135Y010073D01*
X015135Y009974D02*
X015729Y009974D01*
X015729Y009876D02*
X015135Y009876D01*
X015135Y009777D02*
X015624Y009777D01*
X015606Y009679D02*
X015534Y009679D01*
X015412Y009475D02*
X015412Y008162D01*
X015245Y008004D02*
X015135Y008004D01*
X015135Y007906D02*
X016305Y007906D01*
X016403Y008004D02*
X015580Y008004D01*
X015642Y008103D02*
X016502Y008103D01*
X016502Y008201D02*
X015642Y008201D01*
X015600Y008300D02*
X016502Y008300D01*
X016502Y008398D02*
X015572Y008398D01*
X015572Y008497D02*
X015618Y008497D01*
X015864Y008497D02*
X015961Y008497D01*
X015961Y008595D02*
X015864Y008595D01*
X015864Y008694D02*
X015961Y008694D01*
X015961Y008792D02*
X016502Y008792D01*
X016502Y008694D02*
X016259Y008694D01*
X016259Y008595D02*
X016502Y008595D01*
X016502Y008497D02*
X016207Y008497D01*
X016259Y008891D02*
X016502Y008891D01*
X016502Y008989D02*
X016259Y008989D01*
X016253Y009088D02*
X016502Y009088D01*
X016502Y009186D02*
X016171Y009186D01*
X016219Y009285D02*
X016501Y009285D01*
X016662Y009350D02*
X016515Y009497D01*
X015912Y009497D01*
X015889Y009536D01*
X015889Y010225D01*
X016662Y010225D01*
X017037Y010600D01*
X017037Y012600D01*
X017200Y012437D02*
X017564Y012437D01*
X017564Y012338D02*
X017197Y012338D01*
X017197Y012240D02*
X017564Y012240D01*
X017564Y012141D02*
X017197Y012141D01*
X017197Y012043D02*
X017566Y012043D01*
X017449Y011944D02*
X017197Y011944D01*
X017197Y011846D02*
X017393Y011846D01*
X017393Y011747D02*
X017197Y011747D01*
X017197Y011649D02*
X017393Y011649D01*
X017404Y011550D02*
X017197Y011550D01*
X017197Y011452D02*
X017400Y011452D01*
X017353Y011353D02*
X017197Y011353D01*
X017197Y011255D02*
X017353Y011255D01*
X017353Y011156D02*
X017197Y011156D01*
X017197Y011058D02*
X017361Y011058D01*
X017473Y010959D02*
X017197Y010959D01*
X017197Y010861D02*
X017393Y010861D01*
X017393Y010762D02*
X017197Y010762D01*
X017197Y010664D02*
X017393Y010664D01*
X017393Y010565D02*
X017197Y010565D01*
X017104Y010171D02*
X017393Y010171D01*
X017393Y010073D02*
X017202Y010073D01*
X016975Y009975D02*
X017287Y009662D01*
X017350Y009662D01*
X017358Y009654D01*
X017358Y006780D01*
X016842Y006780D01*
X016787Y006725D01*
X016660Y006527D02*
X016641Y006527D01*
X016641Y006428D02*
X016983Y006428D01*
X016933Y006527D02*
X016915Y006527D01*
X016641Y006330D02*
X026747Y006330D01*
X026747Y006428D02*
X017734Y006428D01*
X017783Y006527D02*
X026747Y006527D01*
X026747Y006625D02*
X017783Y006625D01*
X017783Y006724D02*
X026747Y006724D01*
X026747Y006822D02*
X017783Y006822D01*
X017783Y006921D02*
X026747Y006921D01*
X026747Y007019D02*
X017783Y007019D01*
X017746Y007118D02*
X026747Y007118D01*
X026747Y007216D02*
X017518Y007216D01*
X017518Y007315D02*
X026747Y007315D01*
X026747Y007413D02*
X017518Y007413D01*
X018287Y007912D02*
X018475Y007725D01*
X019975Y007725D01*
X020284Y007807D02*
X020380Y007807D01*
X019190Y008300D02*
X018413Y008300D01*
X018287Y008100D02*
X018287Y007912D01*
X017518Y008694D02*
X019149Y008694D01*
X019149Y008792D02*
X017518Y008792D01*
X017518Y008891D02*
X019181Y008891D01*
X019467Y008891D02*
X019564Y008891D01*
X019564Y008792D02*
X019467Y008792D01*
X019467Y008694D02*
X019564Y008694D01*
X019850Y008891D02*
X019907Y008891D01*
X020104Y008989D02*
X017518Y008989D01*
X017518Y009088D02*
X018662Y009088D01*
X018563Y009186D02*
X017518Y009186D01*
X017518Y009285D02*
X018557Y009285D01*
X018558Y009383D02*
X017518Y009383D01*
X017518Y009482D02*
X018617Y009482D01*
X018787Y009537D02*
X018787Y009287D01*
X018913Y009088D02*
X019757Y009088D01*
X019350Y009537D02*
X019350Y009578D01*
X018787Y009537D02*
X018662Y009662D01*
X017350Y009662D01*
X017787Y010225D02*
X017936Y010225D01*
X017936Y010725D02*
X017725Y010725D01*
X017927Y010959D02*
X017945Y010959D01*
X017945Y011058D02*
X017927Y011058D01*
X017927Y011156D02*
X017945Y011156D01*
X017945Y011255D02*
X017927Y011255D01*
X017927Y011353D02*
X017945Y011353D01*
X017945Y011452D02*
X017927Y011452D01*
X018876Y011550D02*
X020121Y011550D01*
X020083Y011649D02*
X018955Y011649D01*
X018955Y011747D02*
X019851Y011747D01*
X019753Y011846D02*
X018929Y011846D01*
X018831Y011944D02*
X019654Y011944D01*
X019587Y012043D02*
X018919Y012043D01*
X018926Y012141D02*
X019587Y012141D01*
X019910Y012141D02*
X020113Y012141D01*
X020083Y012043D02*
X020008Y012043D01*
X018964Y012535D02*
X018918Y012535D01*
X018870Y012634D02*
X018797Y012634D01*
X018870Y012732D02*
X018050Y012732D01*
X018050Y012634D02*
X018322Y012634D01*
X018511Y012535D02*
X018608Y012535D01*
X018608Y012437D02*
X018511Y012437D01*
X018511Y012338D02*
X018608Y012338D01*
X018881Y012831D02*
X018120Y012831D01*
X018218Y012929D02*
X018804Y012929D01*
X018771Y013028D02*
X018317Y013028D01*
X018415Y013126D02*
X018771Y013126D01*
X018771Y013225D02*
X018447Y013225D01*
X018447Y013323D02*
X018771Y013323D01*
X018771Y013422D02*
X018447Y013422D01*
X018447Y013520D02*
X018804Y013520D01*
X018940Y013619D02*
X018447Y013619D01*
X018447Y013717D02*
X018940Y013717D01*
X018940Y013816D02*
X018447Y013816D01*
X018127Y013816D02*
X017675Y013816D01*
X017719Y013914D02*
X017805Y013914D01*
X017752Y013717D02*
X018127Y013717D01*
X018127Y013619D02*
X017759Y013619D01*
X017759Y013520D02*
X018127Y013520D01*
X018127Y013422D02*
X017461Y013422D01*
X017364Y013422D02*
X013822Y013422D01*
X013822Y013520D02*
X017066Y013520D01*
X017066Y013619D02*
X013822Y013619D01*
X013822Y013717D02*
X017073Y013717D01*
X017150Y013816D02*
X013822Y013816D01*
X013822Y013914D02*
X017106Y013914D01*
X017106Y014308D02*
X015805Y014308D01*
X015707Y014407D02*
X016093Y014407D01*
X015995Y014505D02*
X015608Y014505D01*
X015510Y014604D02*
X015995Y014604D01*
X016002Y014702D02*
X015411Y014702D01*
X015313Y014801D02*
X016101Y014801D01*
X016225Y014600D02*
X018326Y014600D01*
X018869Y014604D02*
X018940Y014604D01*
X018940Y014702D02*
X018869Y014702D01*
X018832Y014801D02*
X018923Y014801D01*
X019100Y014850D02*
X019100Y013247D01*
X019078Y013225D01*
X019100Y013203D01*
X019100Y012725D01*
X018127Y013323D02*
X017759Y013323D01*
X017759Y013225D02*
X018061Y013225D01*
X017963Y013126D02*
X017712Y013126D01*
X017864Y013028D02*
X013822Y013028D01*
X013822Y013126D02*
X017113Y013126D01*
X017123Y013116D02*
X017158Y013096D01*
X017196Y013086D01*
X017364Y013086D01*
X017364Y013404D01*
X017066Y013404D01*
X017066Y013216D01*
X017076Y013178D01*
X017096Y013144D01*
X017123Y013116D01*
X017066Y013225D02*
X013822Y013225D01*
X013822Y013323D02*
X017066Y013323D01*
X017364Y013323D02*
X017461Y013323D01*
X017461Y013225D02*
X017364Y013225D01*
X017364Y013126D02*
X017461Y013126D01*
X017766Y012929D02*
X013822Y012929D01*
X013822Y012831D02*
X017730Y012831D01*
X017730Y012732D02*
X017230Y012732D01*
X017267Y012634D02*
X017730Y012634D01*
X017569Y012535D02*
X017267Y012535D01*
X016807Y012535D02*
X014455Y012535D01*
X014455Y012634D02*
X016807Y012634D01*
X016845Y012732D02*
X014418Y012732D01*
X014032Y012732D02*
X013822Y012732D01*
X013891Y012634D02*
X013995Y012634D01*
X013934Y012535D02*
X013892Y012535D01*
X013662Y012537D02*
X013662Y014850D01*
X013485Y014998D02*
X011912Y014998D01*
X011912Y015096D02*
X014565Y015096D01*
X014663Y014998D02*
X013840Y014998D01*
X013892Y014899D02*
X014762Y014899D01*
X014860Y014801D02*
X013892Y014801D01*
X013840Y014702D02*
X014959Y014702D01*
X015057Y014604D02*
X013822Y014604D01*
X013822Y014505D02*
X015156Y014505D01*
X015254Y014407D02*
X013822Y014407D01*
X013822Y014308D02*
X015353Y014308D01*
X015451Y014210D02*
X013822Y014210D01*
X013822Y014111D02*
X015550Y014111D01*
X015648Y014013D02*
X013822Y014013D01*
X013502Y014013D02*
X012976Y014013D01*
X013010Y013914D02*
X013502Y013914D01*
X013502Y013816D02*
X013010Y013816D01*
X013010Y013717D02*
X013502Y013717D01*
X013502Y013619D02*
X013010Y013619D01*
X013010Y013520D02*
X013502Y013520D01*
X013502Y013422D02*
X013010Y013422D01*
X013010Y013323D02*
X013502Y013323D01*
X013502Y013225D02*
X013010Y013225D01*
X013010Y013126D02*
X013502Y013126D01*
X013502Y013028D02*
X013010Y013028D01*
X013010Y012929D02*
X013502Y012929D01*
X013502Y012831D02*
X013010Y012831D01*
X013010Y012732D02*
X013502Y012732D01*
X013434Y012634D02*
X013010Y012634D01*
X013010Y012535D02*
X013432Y012535D01*
X013438Y012437D02*
X013010Y012437D01*
X013010Y012338D02*
X013536Y012338D01*
X013639Y012240D02*
X013010Y012240D01*
X013010Y012141D02*
X013540Y012141D01*
X013442Y012043D02*
X013010Y012043D01*
X013010Y011944D02*
X013343Y011944D01*
X013315Y011846D02*
X013010Y011846D01*
X013010Y011747D02*
X013315Y011747D01*
X013298Y011649D02*
X013010Y011649D01*
X013010Y011550D02*
X013199Y011550D01*
X013553Y011452D02*
X014877Y011452D01*
X014975Y011550D02*
X013635Y011550D01*
X012982Y011156D02*
X014940Y011156D01*
X015100Y011037D02*
X015412Y010725D01*
X015889Y010725D01*
X016429Y011058D02*
X016504Y011058D01*
X016821Y011058D02*
X016877Y011058D01*
X015100Y011037D02*
X015100Y011350D01*
X014677Y010171D02*
X013398Y010171D01*
X013299Y010073D02*
X014373Y010073D01*
X014702Y010073D02*
X014776Y010073D01*
X014767Y009974D02*
X014815Y009974D01*
X014815Y009876D02*
X014800Y009876D01*
X014545Y009679D02*
X014530Y009679D01*
X014565Y009580D02*
X014432Y009580D01*
X014333Y009482D02*
X014565Y009482D01*
X014565Y009383D02*
X014517Y009383D01*
X014308Y009383D02*
X014235Y009383D01*
X014210Y009285D02*
X012491Y009285D01*
X012491Y009777D02*
X014176Y009777D01*
X015135Y009679D02*
X015291Y009679D01*
X015193Y009580D02*
X015135Y009580D01*
X015135Y009482D02*
X015182Y009482D01*
X015182Y009383D02*
X015135Y009383D01*
X015135Y009285D02*
X015252Y009285D01*
X015252Y009186D02*
X015135Y009186D01*
X015135Y009088D02*
X015252Y009088D01*
X015252Y008989D02*
X015135Y008989D01*
X015135Y008891D02*
X015252Y008891D01*
X015252Y008792D02*
X015135Y008792D01*
X015135Y008694D02*
X015252Y008694D01*
X015252Y008595D02*
X015135Y008595D01*
X015135Y008497D02*
X015252Y008497D01*
X015252Y008398D02*
X015135Y008398D01*
X015135Y008300D02*
X015225Y008300D01*
X015182Y008201D02*
X015135Y008201D01*
X015135Y008103D02*
X015182Y008103D01*
X015135Y007807D02*
X015295Y007807D01*
X015245Y007709D02*
X015135Y007709D01*
X015135Y007610D02*
X015245Y007610D01*
X015300Y007512D02*
X015135Y007512D01*
X015475Y007662D02*
X016287Y007662D01*
X016662Y008037D01*
X016662Y009350D01*
X014412Y009162D02*
X014412Y005600D01*
X013037Y004225D01*
X009592Y004225D01*
X008742Y005075D01*
X009191Y004951D02*
X010100Y004951D01*
X010029Y005021D02*
X010231Y004820D01*
X010265Y004800D01*
X010303Y004790D01*
X010343Y004790D01*
X010381Y004800D01*
X010415Y004820D01*
X010556Y004961D01*
X010263Y005255D01*
X010029Y005021D01*
X010058Y005049D02*
X009289Y005049D01*
X009388Y005148D02*
X009903Y005148D01*
X009959Y005092D02*
X010192Y005325D01*
X009899Y005619D01*
X009757Y005477D01*
X009738Y005443D01*
X009727Y005405D01*
X009727Y005366D01*
X009738Y005327D01*
X009757Y005293D01*
X009959Y005092D01*
X010015Y005148D02*
X010156Y005148D01*
X010113Y005246D02*
X010255Y005246D01*
X010271Y005246D02*
X010412Y005246D01*
X010369Y005148D02*
X010511Y005148D01*
X010468Y005049D02*
X010609Y005049D01*
X010645Y005049D02*
X010650Y005049D01*
X010552Y004951D02*
X010546Y004951D01*
X010453Y004852D02*
X010448Y004852D01*
X010398Y004754D02*
X009289Y004754D01*
X009191Y004852D02*
X010198Y004852D01*
X010450Y004655D02*
X009388Y004655D01*
X009486Y004557D02*
X010548Y004557D01*
X010647Y004458D02*
X009585Y004458D01*
X009486Y005246D02*
X009804Y005246D01*
X009733Y005345D02*
X009576Y005345D01*
X009683Y005443D02*
X009738Y005443D01*
X009782Y005542D02*
X009822Y005542D01*
X009880Y005640D02*
X010018Y005640D01*
X010019Y005739D02*
X009979Y005739D01*
X010077Y005837D02*
X010122Y005837D01*
X010176Y005936D02*
X010272Y005936D01*
X010117Y005542D02*
X009975Y005542D01*
X010074Y005443D02*
X010215Y005443D01*
X010212Y005345D02*
X010172Y005345D01*
X010801Y004738D02*
X010837Y004738D01*
X010850Y004725D01*
X011081Y004557D02*
X011725Y004557D01*
X011725Y004655D02*
X011180Y004655D01*
X011203Y004754D02*
X011725Y004754D01*
X012412Y005037D02*
X012592Y005037D01*
X012600Y005029D01*
X013045Y004458D02*
X010983Y004458D01*
X011100Y003475D02*
X013475Y003475D01*
X014600Y004600D01*
X017287Y004600D01*
X017314Y004852D02*
X014641Y004852D01*
X014740Y004951D02*
X017412Y004951D01*
X017511Y005049D02*
X014838Y005049D01*
X014937Y005148D02*
X017609Y005148D01*
X017708Y005246D02*
X015035Y005246D01*
X014586Y004360D02*
X018146Y004360D01*
X018146Y004261D02*
X014488Y004261D01*
X014389Y004163D02*
X014749Y004163D01*
X014651Y004064D02*
X014350Y004064D01*
X014350Y003966D02*
X014552Y003966D01*
X014454Y003867D02*
X014350Y003867D01*
X014350Y003769D02*
X014355Y003769D01*
X014611Y003572D02*
X015096Y003572D01*
X015065Y003541D02*
X014409Y002885D01*
X014350Y002885D01*
X014350Y003311D01*
X014979Y003940D01*
X018146Y003940D01*
X018146Y003838D01*
X018196Y003787D01*
X018146Y003737D01*
X018146Y003635D01*
X015159Y003635D01*
X015065Y003541D01*
X014997Y003473D02*
X014512Y003473D01*
X014414Y003375D02*
X014899Y003375D01*
X014800Y003276D02*
X014350Y003276D01*
X014350Y003178D02*
X014702Y003178D01*
X014603Y003079D02*
X014350Y003079D01*
X014350Y002981D02*
X014505Y002981D01*
X014760Y002784D02*
X015308Y002784D01*
X015406Y002882D02*
X014859Y002882D01*
X014957Y002981D02*
X018146Y002981D01*
X018176Y003079D02*
X015056Y003079D01*
X015154Y003178D02*
X018181Y003178D01*
X018146Y003276D02*
X015253Y003276D01*
X015537Y002787D02*
X018453Y002787D01*
X018146Y002587D02*
X015563Y002587D01*
X015465Y002488D02*
X018183Y002488D01*
X018146Y003670D02*
X014709Y003670D01*
X014808Y003769D02*
X018178Y003769D01*
X018146Y003867D02*
X014906Y003867D01*
X014162Y003079D02*
X014118Y003079D01*
X014162Y002981D02*
X011582Y002981D01*
X011327Y003178D02*
X011029Y003178D01*
X010931Y003079D02*
X011228Y003079D01*
X011130Y002981D02*
X010832Y002981D01*
X010734Y002882D02*
X011031Y002882D01*
X010933Y002784D02*
X010635Y002784D01*
X010537Y002685D02*
X010834Y002685D01*
X010736Y002587D02*
X010350Y002587D01*
X010412Y002787D02*
X011100Y003475D01*
X011128Y003276D02*
X011425Y003276D01*
X010872Y003473D02*
X009032Y003473D01*
X009032Y003375D02*
X010774Y003375D01*
X010675Y003276D02*
X009032Y003276D01*
X009032Y003178D02*
X010577Y003178D01*
X010478Y003079D02*
X009036Y003079D01*
X009072Y002981D02*
X010093Y002981D01*
X010225Y002787D02*
X010412Y002787D01*
X010380Y002981D02*
X010357Y002981D01*
X009128Y003572D02*
X009032Y003572D01*
X007815Y003079D02*
X006955Y003079D01*
X006910Y003178D02*
X007733Y003178D01*
X007815Y002981D02*
X007008Y002981D01*
X007106Y002882D02*
X007815Y002882D01*
X007815Y002784D02*
X007205Y002784D01*
X007303Y002685D02*
X007815Y002685D01*
X007815Y002587D02*
X007402Y002587D01*
X007500Y002488D02*
X007860Y002488D01*
X007959Y002390D02*
X007599Y002390D01*
X007697Y002291D02*
X008057Y002291D01*
X008156Y002193D02*
X007796Y002193D01*
X007894Y002094D02*
X014162Y002094D01*
X014350Y002094D02*
X014618Y002094D01*
X014717Y002193D02*
X014350Y002193D01*
X014350Y002291D02*
X014815Y002291D01*
X014914Y002390D02*
X014350Y002390D01*
X014350Y002488D02*
X015012Y002488D01*
X015111Y002587D02*
X014563Y002587D01*
X014662Y002685D02*
X015209Y002685D01*
X015537Y002787D02*
X014600Y001850D01*
X007912Y001850D01*
X006725Y003037D01*
X006752Y002784D02*
X004330Y002784D01*
X004517Y002685D02*
X006851Y002685D01*
X006949Y002587D02*
X004616Y002587D01*
X004700Y002488D02*
X007048Y002488D01*
X007146Y002390D02*
X004741Y002390D01*
X004782Y002291D02*
X007245Y002291D01*
X007343Y002193D02*
X004803Y002193D01*
X004803Y002094D02*
X007442Y002094D01*
X007540Y001996D02*
X004803Y001996D01*
X004782Y001897D02*
X007639Y001897D01*
X007737Y001799D02*
X004742Y001799D01*
X004701Y001700D02*
X007836Y001700D01*
X008313Y002488D02*
X008390Y002488D01*
X008378Y002587D02*
X008214Y002587D01*
X008135Y002685D02*
X008378Y002685D01*
X004990Y005443D02*
X004990Y005443D01*
X004960Y005443D02*
X004771Y005443D01*
X004869Y005542D02*
X004874Y005542D01*
X005089Y005542D02*
X005089Y005542D01*
X005187Y005640D02*
X005187Y005640D01*
X005286Y005739D02*
X005286Y005739D01*
X005384Y005837D02*
X005384Y005837D01*
X005483Y005936D02*
X005483Y005936D01*
X004351Y005739D02*
X004279Y005739D01*
X004279Y005640D02*
X004307Y005640D01*
X004307Y005542D02*
X004279Y005542D01*
X005345Y007019D02*
X005877Y007019D01*
X005877Y007118D02*
X005443Y007118D01*
X005455Y007216D02*
X005877Y007216D01*
X006029Y007787D02*
X006037Y007787D01*
X006029Y007787D02*
X005513Y008304D01*
X005735Y008527D02*
X005475Y008787D01*
X004787Y008787D01*
X004392Y008392D01*
X004330Y008392D01*
X004531Y008792D02*
X004566Y008792D01*
X004665Y008891D02*
X004433Y008891D01*
X004414Y008989D02*
X004286Y008989D01*
X004322Y009088D02*
X004378Y009088D01*
X004378Y009186D02*
X004322Y009186D01*
X004685Y009287D02*
X005866Y009287D01*
X006181Y008972D01*
X005915Y008792D02*
X005915Y008792D01*
X006014Y008694D02*
X006014Y008694D01*
X006112Y008595D02*
X006112Y008595D01*
X005817Y008891D02*
X005817Y008891D01*
X005718Y008989D02*
X005718Y008989D01*
X005666Y009088D02*
X004991Y009088D01*
X004956Y008989D02*
X005568Y008989D01*
X005037Y008537D02*
X005037Y008334D01*
X005290Y008082D01*
X006039Y008004D02*
X006153Y008004D01*
X006803Y008201D02*
X008717Y008201D01*
X008619Y008300D02*
X006901Y008300D01*
X007000Y008398D02*
X008520Y008398D01*
X008422Y008497D02*
X007098Y008497D01*
X007104Y008595D02*
X008323Y008595D01*
X008225Y008694D02*
X008021Y008694D01*
X008120Y008792D02*
X008131Y008792D01*
X007875Y009000D02*
X007822Y008947D01*
X007729Y008947D01*
X007556Y009120D01*
X007656Y009220D01*
X007675Y009187D01*
X007759Y009103D01*
X007842Y009019D01*
X007875Y009000D01*
X007864Y008989D02*
X007687Y008989D01*
X007774Y009088D02*
X007588Y009088D01*
X007623Y009186D02*
X007675Y009186D01*
X007759Y009103D02*
X008074Y009418D01*
X007759Y009103D01*
X007842Y009186D02*
X007842Y009186D01*
X007941Y009285D02*
X007941Y009285D01*
X008039Y009383D02*
X008039Y009383D01*
X008074Y009418D02*
X008074Y009418D01*
X008138Y009482D02*
X008138Y009482D01*
X008236Y009580D02*
X008236Y009580D01*
X008335Y009679D02*
X008335Y009679D01*
X008442Y009679D02*
X008554Y009679D01*
X007333Y008891D02*
X007104Y008891D01*
X007104Y008792D02*
X007431Y008792D01*
X007530Y008694D02*
X007104Y008694D01*
X004622Y007414D02*
X004248Y007787D01*
X004162Y007787D01*
X004233Y007512D02*
X004043Y007512D01*
X003953Y007413D02*
X004327Y007413D01*
X004426Y007315D02*
X003854Y007315D01*
X002201Y006724D02*
X001062Y006724D01*
X001062Y006625D02*
X002149Y006625D01*
X002149Y006527D02*
X001062Y006527D01*
X001327Y002784D02*
X003794Y002784D01*
X003607Y002685D02*
X001632Y002685D01*
X001578Y002717D02*
X001578Y002717D01*
X002637Y001306D02*
X014162Y001306D01*
X014162Y001208D02*
X002637Y001208D01*
X002637Y001109D02*
X014162Y001109D01*
X014350Y001109D02*
X025160Y001109D01*
X025171Y001208D02*
X014350Y001208D01*
X014350Y001306D02*
X025192Y001306D01*
X025212Y001405D02*
X024020Y001405D01*
X024204Y001503D02*
X025232Y001503D01*
X025252Y001602D02*
X024303Y001602D01*
X024386Y001700D02*
X025298Y001700D01*
X025347Y001799D02*
X024427Y001799D01*
X024467Y001897D02*
X025397Y001897D01*
X025446Y001996D02*
X024488Y001996D01*
X024488Y002094D02*
X025515Y002094D01*
X025470Y002044D02*
X025470Y002044D01*
X025603Y002193D02*
X024488Y002193D01*
X024467Y002291D02*
X025690Y002291D01*
X025778Y002390D02*
X024426Y002390D01*
X024385Y002488D02*
X025919Y002488D01*
X026068Y002587D02*
X024301Y002587D01*
X024202Y002685D02*
X026243Y002685D01*
X026192Y002668D02*
X026192Y002668D01*
X023474Y001405D02*
X014350Y001405D01*
X014350Y001503D02*
X023290Y001503D01*
X017408Y005443D02*
X017308Y005443D01*
X017308Y005542D02*
X017408Y005542D01*
X017408Y005640D02*
X017308Y005640D01*
X017308Y005936D02*
X017408Y005936D01*
X017408Y006034D02*
X017308Y006034D01*
X017308Y006133D02*
X017408Y006133D01*
X016225Y006100D02*
X016225Y006279D01*
X016217Y006287D01*
X014252Y007512D02*
X014227Y007512D01*
X014252Y007610D02*
X014128Y007610D01*
X014030Y007709D02*
X014252Y007709D01*
X014252Y007807D02*
X013931Y007807D01*
X013833Y007906D02*
X014252Y007906D01*
X014252Y008004D02*
X013734Y008004D01*
X012778Y006625D02*
X012775Y006625D01*
X012600Y006475D02*
X012412Y006475D01*
X013600Y006350D02*
X013600Y005725D01*
X013556Y005345D02*
X013456Y005345D01*
X010981Y007315D02*
X010835Y007315D01*
X010842Y010664D02*
X010939Y010664D01*
X010939Y010762D02*
X010842Y010762D01*
X010842Y010861D02*
X010939Y010861D01*
X010939Y011058D02*
X010842Y011058D01*
X010842Y011156D02*
X010939Y011156D01*
X010939Y011255D02*
X010842Y011255D01*
X011224Y011255D02*
X011271Y011255D01*
X011253Y011156D02*
X011237Y011156D01*
X011237Y011058D02*
X011253Y011058D01*
X011560Y010975D02*
X011600Y010975D01*
X011912Y011452D02*
X012627Y011452D01*
X012850Y011350D02*
X012850Y013912D01*
X012037Y014725D01*
X012188Y014801D02*
X013432Y014801D01*
X013432Y014899D02*
X011912Y014899D01*
X012286Y014702D02*
X013485Y014702D01*
X013502Y014604D02*
X012385Y014604D01*
X012483Y014505D02*
X013502Y014505D01*
X013502Y014407D02*
X012582Y014407D01*
X012680Y014308D02*
X013502Y014308D01*
X013502Y014210D02*
X012779Y014210D01*
X012877Y014111D02*
X013502Y014111D01*
X014919Y015195D02*
X017783Y015195D01*
X017783Y015096D02*
X015017Y015096D01*
X015116Y014998D02*
X017783Y014998D01*
X017820Y014899D02*
X015214Y014899D01*
X014820Y015293D02*
X017813Y015293D01*
X017772Y015392D02*
X014722Y015392D01*
X015147Y015983D02*
X021178Y015983D01*
X021080Y016081D02*
X015245Y016081D01*
X015344Y016180D02*
X020981Y016180D01*
X021237Y016377D02*
X026747Y016377D01*
X026747Y016475D02*
X021138Y016475D01*
X021335Y016278D02*
X026747Y016278D01*
X026747Y016180D02*
X021434Y016180D01*
X021532Y016081D02*
X026747Y016081D01*
X026747Y015983D02*
X021631Y015983D01*
X021729Y015884D02*
X026747Y015884D01*
X026747Y015786D02*
X021738Y015786D01*
X021738Y015687D02*
X026747Y015687D01*
X026747Y015589D02*
X021738Y015589D01*
X021738Y015490D02*
X026747Y015490D01*
X026747Y015392D02*
X022581Y015392D01*
X022584Y015389D02*
X022556Y015417D01*
X022521Y015437D01*
X022483Y015447D01*
X022295Y015447D01*
X022295Y015148D01*
X022614Y015148D01*
X022614Y015316D01*
X022603Y015355D01*
X022584Y015389D01*
X022614Y015293D02*
X026747Y015293D01*
X026747Y015195D02*
X022614Y015195D01*
X022614Y014998D02*
X026747Y014998D01*
X026747Y015096D02*
X022295Y015096D01*
X022295Y014998D02*
X022199Y014998D01*
X022199Y014899D02*
X022295Y014899D01*
X022295Y014801D02*
X022199Y014801D01*
X021920Y014801D02*
X021848Y014801D01*
X021760Y014702D02*
X026747Y014702D01*
X026747Y014604D02*
X021760Y014604D01*
X021760Y014505D02*
X026747Y014505D01*
X026747Y014407D02*
X021760Y014407D01*
X021760Y014308D02*
X026747Y014308D01*
X026747Y014210D02*
X021760Y014210D01*
X021760Y014111D02*
X026747Y014111D01*
X026747Y014013D02*
X021760Y014013D01*
X021760Y013914D02*
X026747Y013914D01*
X026747Y013816D02*
X021760Y013816D01*
X021760Y013717D02*
X026747Y013717D01*
X026747Y013619D02*
X021760Y013619D01*
X021760Y013520D02*
X026747Y013520D01*
X026747Y013422D02*
X021760Y013422D01*
X021760Y013323D02*
X026747Y013323D01*
X026747Y013225D02*
X021760Y013225D01*
X021760Y013126D02*
X026747Y013126D01*
X026747Y013028D02*
X021760Y013028D01*
X021760Y012929D02*
X026747Y012929D01*
X026747Y012831D02*
X021760Y012831D01*
X021760Y012732D02*
X026747Y012732D01*
X026747Y012634D02*
X021760Y012634D01*
X021760Y012535D02*
X026747Y012535D01*
X026747Y012437D02*
X021760Y012437D01*
X021760Y012338D02*
X026747Y012338D01*
X026747Y012240D02*
X021760Y012240D01*
X021760Y012141D02*
X026747Y012141D01*
X026747Y012043D02*
X021760Y012043D01*
X021760Y011944D02*
X026747Y011944D01*
X026747Y011846D02*
X021760Y011846D01*
X021760Y011747D02*
X026747Y011747D01*
X026747Y011649D02*
X021760Y011649D01*
X021440Y011649D02*
X021366Y011649D01*
X021366Y011747D02*
X021440Y011747D01*
X021440Y011550D02*
X021329Y011550D01*
X021220Y011452D02*
X021440Y011452D01*
X021440Y011353D02*
X021220Y011353D01*
X021220Y011255D02*
X021440Y011255D01*
X021440Y011156D02*
X021220Y011156D01*
X021220Y011058D02*
X021440Y011058D01*
X020900Y010959D02*
X020838Y010959D01*
X020847Y010861D02*
X020900Y010861D01*
X020900Y010762D02*
X020847Y010762D01*
X020847Y010664D02*
X020900Y010664D01*
X020900Y010565D02*
X020805Y010565D01*
X020791Y010467D02*
X020866Y010467D01*
X020273Y010565D02*
X020255Y010565D01*
X020255Y010664D02*
X020273Y010664D01*
X020273Y010762D02*
X020255Y010762D01*
X020255Y010861D02*
X020273Y010861D01*
X020273Y010959D02*
X020255Y010959D01*
X022803Y010073D02*
X024737Y010073D01*
X024812Y010171D02*
X024242Y010171D01*
X024210Y010171D02*
X024110Y010171D01*
X024079Y010171D02*
X022854Y010171D01*
X024110Y010270D02*
X024210Y010270D01*
X024210Y010368D02*
X024110Y010368D01*
X024110Y010467D02*
X024210Y010467D01*
X024210Y010565D02*
X024110Y010565D01*
X024110Y010664D02*
X024210Y010664D01*
X024210Y010762D02*
X024110Y010762D01*
X024110Y011058D02*
X024210Y011058D01*
X024210Y011156D02*
X024110Y011156D01*
X024110Y011255D02*
X024210Y011255D01*
X024210Y011353D02*
X024110Y011353D01*
X024110Y011452D02*
X024210Y011452D01*
X024642Y010368D02*
X025687Y010368D01*
X024941Y010270D02*
X024520Y010270D01*
X024553Y009383D02*
X024993Y009383D01*
X023535Y009088D02*
X023385Y009088D01*
X023385Y008989D02*
X023503Y008989D01*
X023487Y008891D02*
X023327Y008891D01*
X026581Y008300D02*
X026747Y008300D01*
X026747Y008398D02*
X026685Y008398D01*
X026744Y009186D02*
X026747Y009186D01*
X026747Y010270D02*
X026528Y010270D01*
X026650Y010368D02*
X026747Y010368D01*
X026747Y010467D02*
X026731Y010467D01*
X026702Y011255D02*
X026747Y011255D01*
X026747Y011353D02*
X026610Y011353D01*
X026747Y014801D02*
X022574Y014801D01*
X022614Y014899D02*
X026747Y014899D01*
X026432Y016771D02*
X024048Y016771D01*
X024167Y016820D02*
X024375Y017028D01*
X024488Y017301D01*
X024488Y017595D01*
X024375Y017867D01*
X024167Y018076D01*
X023894Y018188D01*
X023600Y018188D01*
X023328Y018076D01*
X023119Y017867D01*
X023006Y017595D01*
X023006Y017301D01*
X023119Y017028D01*
X023328Y016820D01*
X023600Y016707D01*
X023894Y016707D01*
X024167Y016820D01*
X024216Y016869D02*
X026154Y016869D01*
X026231Y016825D02*
X026231Y016825D01*
X025983Y016968D02*
X024314Y016968D01*
X024391Y017066D02*
X025823Y017066D01*
X025838Y017052D02*
X025838Y017052D01*
X025725Y017165D02*
X024431Y017165D01*
X024472Y017263D02*
X025626Y017263D01*
X025528Y017362D02*
X024488Y017362D01*
X024488Y017460D02*
X025466Y017460D01*
X025516Y017373D02*
X025516Y017373D01*
X025409Y017559D02*
X024488Y017559D01*
X024462Y017657D02*
X025352Y017657D01*
X025295Y017756D02*
X024421Y017756D01*
X024380Y017854D02*
X025266Y017854D01*
X025289Y017766D02*
X025289Y017766D01*
X025239Y017953D02*
X024289Y017953D01*
X024191Y018051D02*
X025213Y018051D01*
X025187Y018150D02*
X023987Y018150D01*
X023507Y018150D02*
X014350Y018150D01*
X014350Y018248D02*
X025172Y018248D01*
X025172Y018347D02*
X014350Y018347D01*
X014350Y018445D02*
X025172Y018445D01*
X023303Y018051D02*
X014350Y018051D01*
X014350Y017953D02*
X023205Y017953D01*
X023114Y017854D02*
X014350Y017854D01*
X014350Y017756D02*
X023073Y017756D01*
X023032Y017657D02*
X014350Y017657D01*
X014350Y017559D02*
X023006Y017559D01*
X023006Y017460D02*
X014350Y017460D01*
X014350Y017362D02*
X023006Y017362D01*
X023022Y017263D02*
X014350Y017263D01*
X014350Y017165D02*
X023063Y017165D01*
X023103Y017066D02*
X014350Y017066D01*
X014350Y016968D02*
X023180Y016968D01*
X023278Y016869D02*
X014350Y016869D01*
X014350Y016771D02*
X023446Y016771D01*
X022295Y015392D02*
X022199Y015392D01*
X022199Y015293D02*
X022295Y015293D01*
X022295Y015195D02*
X022199Y015195D01*
X021914Y015392D02*
X021855Y015392D01*
X021251Y014899D02*
X020880Y014899D01*
X020879Y014801D02*
X021308Y014801D01*
X021440Y014702D02*
X020917Y014702D01*
X020917Y014604D02*
X021440Y014604D01*
X021440Y014505D02*
X020917Y014505D01*
X020887Y014407D02*
X021440Y014407D01*
X021440Y014308D02*
X020928Y014308D01*
X020957Y014210D02*
X021440Y014210D01*
X021440Y014111D02*
X020957Y014111D01*
X020957Y014013D02*
X021440Y014013D01*
X021440Y013914D02*
X020941Y013914D01*
X018940Y013914D02*
X018848Y013914D01*
X018869Y014013D02*
X018940Y014013D01*
X018940Y014111D02*
X018869Y014111D01*
X018869Y014210D02*
X018940Y014210D01*
X018940Y014308D02*
X018824Y014308D01*
X018840Y014407D02*
X018940Y014407D01*
X018940Y014505D02*
X018869Y014505D01*
X019100Y014850D02*
X018850Y015100D01*
X018326Y015100D01*
X018317Y015392D02*
X018335Y015392D01*
X018335Y015490D02*
X018317Y015490D01*
X018317Y015589D02*
X018335Y015589D01*
X018335Y015687D02*
X018317Y015687D01*
X018317Y015786D02*
X018335Y015786D01*
X017821Y014801D02*
X016349Y014801D01*
X016357Y014407D02*
X017128Y014407D01*
X017696Y014407D02*
X017813Y014407D01*
X017828Y014308D02*
X017719Y014308D01*
X012690Y012141D02*
X012531Y012141D01*
X012531Y012043D02*
X012690Y012043D01*
X012690Y011944D02*
X012518Y011944D01*
X012233Y012338D02*
X012136Y012338D01*
X012136Y012437D02*
X012233Y012437D01*
X012233Y012535D02*
X012136Y012535D01*
X011564Y012535D02*
X011467Y012535D01*
X011467Y012437D02*
X011564Y012437D01*
X011564Y012338D02*
X011467Y012338D01*
X001533Y011747D02*
X001433Y011747D01*
X001433Y011649D02*
X001533Y011649D01*
X001533Y011550D02*
X001433Y011550D01*
X001433Y011452D02*
X001533Y011452D01*
X001533Y011353D02*
X001433Y011353D01*
D37*
X002787Y012265D03*
X003412Y010912D03*
X005537Y011225D03*
X006475Y010037D03*
X007662Y010600D03*
X008287Y010100D03*
X009037Y009600D03*
X010162Y008287D03*
X010725Y007100D03*
X012600Y006475D03*
X013600Y006350D03*
X013600Y005725D03*
X012600Y005662D03*
X012412Y005037D03*
X010850Y004725D03*
X010225Y002787D03*
X011787Y002725D03*
X012100Y002287D03*
X011537Y001412D03*
X013225Y002287D03*
X013475Y001412D03*
X017225Y003787D03*
X018412Y004725D03*
X019100Y005475D03*
X019912Y005287D03*
X022037Y006225D03*
X023662Y006162D03*
X025475Y006162D03*
X025600Y004100D03*
X023600Y004100D03*
X022037Y004100D03*
X022037Y001975D03*
X016225Y006100D03*
X016787Y006725D03*
X015475Y007662D03*
X015412Y008162D03*
X014412Y009162D03*
X013912Y008787D03*
X012912Y009162D03*
X012225Y008850D03*
X012912Y009850D03*
X012787Y010412D03*
X011600Y010975D03*
X012850Y011350D03*
X013662Y012537D03*
X014225Y012600D03*
X013225Y013412D03*
X012287Y012912D03*
X014225Y014162D03*
X013662Y014850D03*
X013100Y014850D03*
X015287Y014162D03*
X016225Y014600D03*
X016037Y015725D03*
X017037Y016412D03*
X017287Y017537D03*
X015350Y017537D03*
X019287Y017537D03*
X021412Y017537D03*
X023100Y016100D03*
X025600Y016100D03*
X025600Y014287D03*
X023100Y014350D03*
X020787Y013100D03*
X019100Y012725D03*
X018725Y011725D03*
X017475Y011225D03*
X017725Y010725D03*
X017787Y010225D03*
X016975Y009975D03*
X015412Y009475D03*
X014537Y009912D03*
X016662Y011225D03*
X015100Y011350D03*
X017037Y012600D03*
X019350Y015662D03*
X023100Y012537D03*
X025600Y012537D03*
X022537Y010287D03*
X020475Y008037D03*
X018787Y009287D03*
X019350Y009537D03*
X018287Y008100D03*
X013662Y007162D03*
X008225Y008162D03*
X007662Y008162D03*
X007287Y007850D03*
X006350Y007600D03*
X005537Y007475D03*
X005225Y007225D03*
X005225Y006787D03*
X005975Y006100D03*
X006350Y006475D03*
X006725Y006850D03*
X006725Y006100D03*
X006350Y005725D03*
X006662Y005225D03*
X007225Y005662D03*
X005662Y004537D03*
X004537Y005600D03*
X002850Y005162D03*
X002850Y004100D03*
X004037Y003287D03*
X005100Y002662D03*
X005100Y001600D03*
X006725Y003037D03*
X007725Y003412D03*
X008100Y001475D03*
X001975Y006600D03*
X001350Y006600D03*
X004037Y006850D03*
X004162Y007787D03*
X005037Y008537D03*
X009287Y011350D03*
X008912Y012100D03*
X010037Y012975D03*
X008475Y013600D03*
X010037Y014662D03*
X007747Y015686D03*
X005350Y016350D03*
X004162Y016412D03*
X003287Y016037D03*
X005037Y015100D03*
X004287Y014600D03*
X005037Y013662D03*
X002162Y013787D03*
X001350Y013600D03*
X001412Y014850D03*
X002100Y014912D03*
X001412Y016037D03*
X008975Y017537D03*
X011037Y016662D03*
M02*
