G75*
%MOIN*%
%OFA0B0*%
%FSLAX24Y24*%
%IPPOS*%
%LPD*%
%AMOC8*
5,1,8,0,0,1.08239X$1,22.5*
%
%ADD10R,0.0473X0.0434*%
%ADD11R,0.0434X0.0473*%
%ADD12R,0.0670X0.0985*%
%ADD13R,0.0434X0.0591*%
%ADD14R,0.0591X0.0434*%
%ADD15R,0.0394X0.0178*%
%ADD16R,0.0940X0.0890*%
%ADD17R,0.0500X0.0670*%
%ADD18R,0.0138X0.0434*%
%ADD19R,0.0276X0.0512*%
%ADD20R,0.0160X0.0430*%
%ADD21C,0.0790*%
%ADD22C,0.1090*%
%ADD23C,0.0000*%
%ADD24C,0.1221*%
%ADD25R,0.1040X0.0540*%
%ADD26R,0.0434X0.0197*%
D10*
X005225Y003453D03*
X005225Y004122D03*
X004560Y005037D03*
X003890Y005037D03*
X005912Y008328D03*
X006725Y008328D03*
X006725Y008997D03*
X005912Y008997D03*
X004747Y010912D03*
X004078Y010912D03*
X010037Y013515D03*
X010037Y014185D03*
X010037Y016703D03*
X010037Y017372D03*
X004787Y016310D03*
X004787Y015640D03*
X003912Y015328D03*
X003912Y015997D03*
X010203Y008850D03*
X010872Y008850D03*
X012037Y006747D03*
X012037Y006078D03*
X009850Y004310D03*
X009850Y003640D03*
X015475Y005828D03*
X015475Y006497D03*
X016662Y007390D03*
X016662Y008060D03*
X015850Y009453D03*
X015850Y010122D03*
X015850Y010703D03*
X015850Y011372D03*
X015100Y011390D03*
X015100Y012060D03*
X017725Y010810D03*
X017725Y010140D03*
D11*
X017310Y009412D03*
X016640Y009412D03*
X019912Y009828D03*
X019912Y010497D03*
X023100Y010328D03*
X023100Y010997D03*
X010872Y009912D03*
X010203Y009912D03*
X007475Y007122D03*
X007475Y006453D03*
X004497Y007287D03*
X003828Y007287D03*
X002037Y012265D03*
X002037Y012935D03*
X003287Y014640D03*
X003287Y015310D03*
X004203Y012725D03*
X004872Y012725D03*
D12*
X006134Y014287D03*
X007315Y014287D03*
X007315Y015475D03*
X006134Y015475D03*
D13*
X004662Y014595D03*
X004288Y013729D03*
X005036Y013729D03*
X002412Y015104D03*
X002038Y015970D03*
X002786Y015970D03*
X010537Y003595D03*
X010163Y002729D03*
X010911Y002729D03*
X009849Y001854D03*
X009101Y001854D03*
X009475Y002720D03*
D14*
X007595Y003412D03*
X006729Y003038D03*
X006720Y002349D03*
X005854Y001975D03*
X006720Y001601D03*
X006729Y003786D03*
X010104Y011476D03*
X010970Y011850D03*
X010104Y012224D03*
D15*
X012218Y012243D03*
X012218Y011987D03*
X012218Y011731D03*
X012218Y011475D03*
X012218Y011219D03*
X012218Y010963D03*
X012218Y010707D03*
X014482Y010707D03*
X014482Y010963D03*
X014482Y011219D03*
X014482Y011475D03*
X014482Y011731D03*
X014482Y011987D03*
X014482Y012243D03*
D16*
X010729Y007223D03*
X008471Y007223D03*
X008471Y005602D03*
X010729Y005602D03*
D17*
X004700Y011725D03*
X004100Y011725D03*
X003500Y011725D03*
D18*
X008706Y010557D03*
X008903Y010557D03*
X009100Y010557D03*
X009297Y010557D03*
X009494Y010557D03*
X009494Y008893D03*
X009297Y008893D03*
X009100Y008893D03*
X008903Y008893D03*
X008706Y008893D03*
D19*
X003599Y012773D03*
X002851Y012773D03*
X002851Y013802D03*
X003225Y013802D03*
X003599Y013802D03*
D20*
X018880Y008686D03*
X019136Y008686D03*
X019392Y008686D03*
X019648Y008686D03*
X019904Y008686D03*
X020159Y008686D03*
X020415Y008686D03*
X020671Y008686D03*
X020927Y008686D03*
X021183Y008686D03*
X021183Y006389D03*
X020927Y006389D03*
X020671Y006389D03*
X020415Y006389D03*
X020159Y006389D03*
X019904Y006389D03*
X019648Y006389D03*
X019392Y006389D03*
X019136Y006389D03*
X018880Y006389D03*
D21*
X025164Y009838D03*
D22*
X024160Y010841D03*
X026168Y010841D03*
X026168Y008834D03*
X024160Y008834D03*
D23*
X002487Y001109D02*
X002485Y001186D01*
X002479Y001263D01*
X002470Y001340D01*
X002457Y001416D01*
X002440Y001492D01*
X002419Y001566D01*
X002395Y001640D01*
X002367Y001712D01*
X002336Y001782D01*
X002301Y001851D01*
X002263Y001919D01*
X002222Y001984D01*
X002177Y002047D01*
X002129Y002108D01*
X002079Y002167D01*
X002026Y002223D01*
X001970Y002276D01*
X001911Y002326D01*
X001850Y002374D01*
X001787Y002419D01*
X001722Y002460D01*
X001654Y002498D01*
X001585Y002533D01*
X001515Y002564D01*
X001443Y002592D01*
X001369Y002616D01*
X001295Y002637D01*
X001219Y002654D01*
X001143Y002667D01*
X001066Y002676D01*
X000989Y002682D01*
X000912Y002684D01*
X000912Y016857D01*
X000989Y016859D01*
X001066Y016865D01*
X001143Y016874D01*
X001219Y016887D01*
X001295Y016904D01*
X001369Y016925D01*
X001443Y016949D01*
X001515Y016977D01*
X001585Y017008D01*
X001654Y017043D01*
X001722Y017081D01*
X001787Y017122D01*
X001850Y017167D01*
X001911Y017215D01*
X001970Y017265D01*
X002026Y017318D01*
X002079Y017374D01*
X002129Y017433D01*
X002177Y017494D01*
X002222Y017557D01*
X002263Y017622D01*
X002301Y017690D01*
X002336Y017759D01*
X002367Y017829D01*
X002395Y017901D01*
X002419Y017975D01*
X002440Y018049D01*
X002457Y018125D01*
X002470Y018201D01*
X002479Y018278D01*
X002485Y018355D01*
X002487Y018432D01*
X002487Y018629D01*
X025322Y018629D01*
X025322Y018432D01*
X023156Y017448D02*
X023158Y017496D01*
X023164Y017544D01*
X023174Y017591D01*
X023187Y017637D01*
X023205Y017682D01*
X023225Y017726D01*
X023250Y017768D01*
X023278Y017807D01*
X023308Y017844D01*
X023342Y017878D01*
X023379Y017910D01*
X023417Y017939D01*
X023458Y017964D01*
X023501Y017986D01*
X023546Y018004D01*
X023592Y018018D01*
X023639Y018029D01*
X023687Y018036D01*
X023735Y018039D01*
X023783Y018038D01*
X023831Y018033D01*
X023879Y018024D01*
X023925Y018012D01*
X023970Y017995D01*
X024014Y017975D01*
X024056Y017952D01*
X024096Y017925D01*
X024134Y017895D01*
X024169Y017862D01*
X024201Y017826D01*
X024231Y017788D01*
X024257Y017747D01*
X024279Y017704D01*
X024299Y017660D01*
X024314Y017615D01*
X024326Y017568D01*
X024334Y017520D01*
X024338Y017472D01*
X024338Y017424D01*
X024334Y017376D01*
X024326Y017328D01*
X024314Y017281D01*
X024299Y017236D01*
X024279Y017192D01*
X024257Y017149D01*
X024231Y017108D01*
X024201Y017070D01*
X024169Y017034D01*
X024134Y017001D01*
X024096Y016971D01*
X024056Y016944D01*
X024014Y016921D01*
X023970Y016901D01*
X023925Y016884D01*
X023879Y016872D01*
X023831Y016863D01*
X023783Y016858D01*
X023735Y016857D01*
X023687Y016860D01*
X023639Y016867D01*
X023592Y016878D01*
X023546Y016892D01*
X023501Y016910D01*
X023458Y016932D01*
X023417Y016957D01*
X023379Y016986D01*
X023342Y017018D01*
X023308Y017052D01*
X023278Y017089D01*
X023250Y017128D01*
X023225Y017170D01*
X023205Y017214D01*
X023187Y017259D01*
X023174Y017305D01*
X023164Y017352D01*
X023158Y017400D01*
X023156Y017448D01*
X026897Y016857D02*
X026897Y002684D01*
X026817Y002678D01*
X026738Y002667D01*
X026659Y002653D01*
X026582Y002635D01*
X026505Y002614D01*
X026429Y002589D01*
X026355Y002560D01*
X026282Y002528D01*
X026210Y002492D01*
X026141Y002453D01*
X026073Y002411D01*
X026008Y002365D01*
X025944Y002317D01*
X025883Y002265D01*
X025825Y002211D01*
X025769Y002154D01*
X025716Y002094D01*
X025666Y002032D01*
X025619Y001968D01*
X025575Y001901D01*
X025534Y001833D01*
X025497Y001762D01*
X025463Y001690D01*
X025432Y001617D01*
X025405Y001541D01*
X025382Y001465D01*
X025362Y001388D01*
X025346Y001310D01*
X025334Y001231D01*
X025325Y001152D01*
X025320Y001072D01*
X025319Y000992D01*
X025322Y000913D01*
X025322Y000912D02*
X002487Y000912D01*
X002487Y001109D01*
X003471Y002094D02*
X003473Y002142D01*
X003479Y002190D01*
X003489Y002237D01*
X003502Y002283D01*
X003520Y002328D01*
X003540Y002372D01*
X003565Y002414D01*
X003593Y002453D01*
X003623Y002490D01*
X003657Y002524D01*
X003694Y002556D01*
X003732Y002585D01*
X003773Y002610D01*
X003816Y002632D01*
X003861Y002650D01*
X003907Y002664D01*
X003954Y002675D01*
X004002Y002682D01*
X004050Y002685D01*
X004098Y002684D01*
X004146Y002679D01*
X004194Y002670D01*
X004240Y002658D01*
X004285Y002641D01*
X004329Y002621D01*
X004371Y002598D01*
X004411Y002571D01*
X004449Y002541D01*
X004484Y002508D01*
X004516Y002472D01*
X004546Y002434D01*
X004572Y002393D01*
X004594Y002350D01*
X004614Y002306D01*
X004629Y002261D01*
X004641Y002214D01*
X004649Y002166D01*
X004653Y002118D01*
X004653Y002070D01*
X004649Y002022D01*
X004641Y001974D01*
X004629Y001927D01*
X004614Y001882D01*
X004594Y001838D01*
X004572Y001795D01*
X004546Y001754D01*
X004516Y001716D01*
X004484Y001680D01*
X004449Y001647D01*
X004411Y001617D01*
X004371Y001590D01*
X004329Y001567D01*
X004285Y001547D01*
X004240Y001530D01*
X004194Y001518D01*
X004146Y001509D01*
X004098Y001504D01*
X004050Y001503D01*
X004002Y001506D01*
X003954Y001513D01*
X003907Y001524D01*
X003861Y001538D01*
X003816Y001556D01*
X003773Y001578D01*
X003732Y001603D01*
X003694Y001632D01*
X003657Y001664D01*
X003623Y001698D01*
X003593Y001735D01*
X003565Y001774D01*
X003540Y001816D01*
X003520Y001860D01*
X003502Y001905D01*
X003489Y001951D01*
X003479Y001998D01*
X003473Y002046D01*
X003471Y002094D01*
X023156Y002094D02*
X023158Y002142D01*
X023164Y002190D01*
X023174Y002237D01*
X023187Y002283D01*
X023205Y002328D01*
X023225Y002372D01*
X023250Y002414D01*
X023278Y002453D01*
X023308Y002490D01*
X023342Y002524D01*
X023379Y002556D01*
X023417Y002585D01*
X023458Y002610D01*
X023501Y002632D01*
X023546Y002650D01*
X023592Y002664D01*
X023639Y002675D01*
X023687Y002682D01*
X023735Y002685D01*
X023783Y002684D01*
X023831Y002679D01*
X023879Y002670D01*
X023925Y002658D01*
X023970Y002641D01*
X024014Y002621D01*
X024056Y002598D01*
X024096Y002571D01*
X024134Y002541D01*
X024169Y002508D01*
X024201Y002472D01*
X024231Y002434D01*
X024257Y002393D01*
X024279Y002350D01*
X024299Y002306D01*
X024314Y002261D01*
X024326Y002214D01*
X024334Y002166D01*
X024338Y002118D01*
X024338Y002070D01*
X024334Y002022D01*
X024326Y001974D01*
X024314Y001927D01*
X024299Y001882D01*
X024279Y001838D01*
X024257Y001795D01*
X024231Y001754D01*
X024201Y001716D01*
X024169Y001680D01*
X024134Y001647D01*
X024096Y001617D01*
X024056Y001590D01*
X024014Y001567D01*
X023970Y001547D01*
X023925Y001530D01*
X023879Y001518D01*
X023831Y001509D01*
X023783Y001504D01*
X023735Y001503D01*
X023687Y001506D01*
X023639Y001513D01*
X023592Y001524D01*
X023546Y001538D01*
X023501Y001556D01*
X023458Y001578D01*
X023417Y001603D01*
X023379Y001632D01*
X023342Y001664D01*
X023308Y001698D01*
X023278Y001735D01*
X023250Y001774D01*
X023225Y001816D01*
X023205Y001860D01*
X023187Y001905D01*
X023174Y001951D01*
X023164Y001998D01*
X023158Y002046D01*
X023156Y002094D01*
X003471Y017448D02*
X003473Y017496D01*
X003479Y017544D01*
X003489Y017591D01*
X003502Y017637D01*
X003520Y017682D01*
X003540Y017726D01*
X003565Y017768D01*
X003593Y017807D01*
X003623Y017844D01*
X003657Y017878D01*
X003694Y017910D01*
X003732Y017939D01*
X003773Y017964D01*
X003816Y017986D01*
X003861Y018004D01*
X003907Y018018D01*
X003954Y018029D01*
X004002Y018036D01*
X004050Y018039D01*
X004098Y018038D01*
X004146Y018033D01*
X004194Y018024D01*
X004240Y018012D01*
X004285Y017995D01*
X004329Y017975D01*
X004371Y017952D01*
X004411Y017925D01*
X004449Y017895D01*
X004484Y017862D01*
X004516Y017826D01*
X004546Y017788D01*
X004572Y017747D01*
X004594Y017704D01*
X004614Y017660D01*
X004629Y017615D01*
X004641Y017568D01*
X004649Y017520D01*
X004653Y017472D01*
X004653Y017424D01*
X004649Y017376D01*
X004641Y017328D01*
X004629Y017281D01*
X004614Y017236D01*
X004594Y017192D01*
X004572Y017149D01*
X004546Y017108D01*
X004516Y017070D01*
X004484Y017034D01*
X004449Y017001D01*
X004411Y016971D01*
X004371Y016944D01*
X004329Y016921D01*
X004285Y016901D01*
X004240Y016884D01*
X004194Y016872D01*
X004146Y016863D01*
X004098Y016858D01*
X004050Y016857D01*
X004002Y016860D01*
X003954Y016867D01*
X003907Y016878D01*
X003861Y016892D01*
X003816Y016910D01*
X003773Y016932D01*
X003732Y016957D01*
X003694Y016986D01*
X003657Y017018D01*
X003623Y017052D01*
X003593Y017089D01*
X003565Y017128D01*
X003540Y017170D01*
X003520Y017214D01*
X003502Y017259D01*
X003489Y017305D01*
X003479Y017352D01*
X003473Y017400D01*
X003471Y017448D01*
X025322Y018432D02*
X025324Y018355D01*
X025330Y018278D01*
X025339Y018201D01*
X025352Y018125D01*
X025369Y018049D01*
X025390Y017975D01*
X025414Y017901D01*
X025442Y017829D01*
X025473Y017759D01*
X025508Y017690D01*
X025546Y017622D01*
X025587Y017557D01*
X025632Y017494D01*
X025680Y017433D01*
X025730Y017374D01*
X025783Y017318D01*
X025839Y017265D01*
X025898Y017215D01*
X025959Y017167D01*
X026022Y017122D01*
X026087Y017081D01*
X026155Y017043D01*
X026224Y017008D01*
X026294Y016977D01*
X026366Y016949D01*
X026440Y016925D01*
X026514Y016904D01*
X026590Y016887D01*
X026666Y016874D01*
X026743Y016865D01*
X026820Y016859D01*
X026897Y016857D01*
D24*
X023747Y017448D03*
X004062Y017448D03*
X004062Y002094D03*
X023747Y002094D03*
D25*
X002475Y007412D03*
X002475Y008100D03*
X002475Y008787D03*
X002475Y009412D03*
D26*
X012771Y008421D03*
X012771Y008165D03*
X012771Y007909D03*
X012771Y007653D03*
X013022Y006734D03*
X013022Y006478D03*
X013022Y006222D03*
X013022Y005966D03*
X014803Y005966D03*
X014803Y006222D03*
X014803Y006478D03*
X014803Y006734D03*
X014553Y007653D03*
X014553Y007909D03*
X014553Y008165D03*
X014553Y008421D03*
M02*
