G75*
%MOIN*%
%OFA0B0*%
%FSLAX24Y24*%
%IPPOS*%
%LPD*%
%AMOC8*
5,1,8,0,0,1.08239X$1,22.5*
%
%ADD10R,0.0473X0.0434*%
%ADD11R,0.0591X0.0670*%
%ADD12R,0.0670X0.0591*%
%ADD13R,0.0434X0.0473*%
%ADD14R,0.0827X0.0631*%
%ADD15R,0.0827X0.1536*%
%ADD16R,0.0906X0.0276*%
%ADD17R,0.0920X0.0520*%
%ADD18R,0.0906X0.1457*%
%ADD19R,0.1103X0.0434*%
%ADD20R,0.0552X0.0631*%
%ADD21R,0.0631X0.0552*%
%ADD22R,0.0670X0.0631*%
%ADD23R,0.0500X0.0670*%
%ADD24R,0.0060X0.0720*%
%ADD25R,0.0631X0.0237*%
%ADD26R,0.0237X0.0631*%
%ADD27C,0.0790*%
%ADD28C,0.1090*%
%ADD29C,0.0000*%
%ADD30C,0.1221*%
%ADD31R,0.0788X0.0788*%
%ADD32R,0.0591X0.0197*%
%ADD33R,0.0355X0.0355*%
%ADD34R,0.0670X0.0552*%
%ADD35R,0.0670X0.0827*%
%ADD36R,0.0552X0.0670*%
%ADD37R,0.0827X0.0670*%
D10*
X001828Y003287D03*
X002497Y003287D03*
X002515Y006412D03*
X003185Y006412D03*
G36*
X007412Y009793D02*
X007079Y010126D01*
X007386Y010433D01*
X007719Y010100D01*
X007412Y009793D01*
G37*
G36*
X006939Y010267D02*
X006606Y010600D01*
X006913Y010907D01*
X007246Y010574D01*
X006939Y010267D01*
G37*
G36*
X008731Y009600D02*
X009064Y009933D01*
X009371Y009626D01*
X009038Y009293D01*
X008731Y009600D01*
G37*
G36*
X009204Y010074D02*
X009537Y010407D01*
X009844Y010100D01*
X009511Y009767D01*
X009204Y010074D01*
G37*
X005685Y012287D03*
X005015Y012287D03*
X005140Y014350D03*
X005810Y014350D03*
X007078Y015100D03*
X007747Y015100D03*
X006997Y017912D03*
X006328Y017912D03*
X017890Y012287D03*
X018560Y012287D03*
X019350Y010247D03*
X019350Y009578D03*
X019515Y008600D03*
X020185Y008600D03*
X019100Y005435D03*
X019100Y004765D03*
X021578Y015100D03*
X022247Y015100D03*
D11*
X004037Y013690D03*
X004037Y012509D03*
X002100Y013759D03*
X002100Y014940D03*
D12*
X002947Y014787D03*
X004128Y014787D03*
X003440Y015975D03*
X002259Y015975D03*
G36*
X003885Y008364D02*
X004358Y008837D01*
X004775Y008420D01*
X004302Y007947D01*
X003885Y008364D01*
G37*
G36*
X003940Y007585D02*
X003467Y007112D01*
X003050Y007529D01*
X003523Y008002D01*
X003940Y007585D01*
G37*
D13*
X004015Y009287D03*
X004685Y009287D03*
X004685Y009912D03*
X004015Y009912D03*
X004060Y010537D03*
X003390Y010537D03*
X007350Y013328D03*
X007350Y013997D03*
X007850Y016515D03*
X007850Y017185D03*
X011515Y012225D03*
X012185Y012225D03*
X011560Y010975D03*
X010890Y010975D03*
X011515Y010225D03*
X012185Y010225D03*
X012185Y009537D03*
X011515Y009537D03*
X011287Y007060D03*
X011287Y006390D03*
G36*
X010954Y005225D02*
X011261Y005532D01*
X011594Y005199D01*
X011287Y004892D01*
X010954Y005225D01*
G37*
G36*
X010481Y004751D02*
X010788Y005058D01*
X011121Y004725D01*
X010814Y004418D01*
X010481Y004751D01*
G37*
X008725Y003435D03*
X008725Y002765D03*
X015912Y008828D03*
X015912Y009497D03*
X020390Y011850D03*
X021060Y011850D03*
X019747Y013225D03*
X019078Y013225D03*
X017412Y013453D03*
X017412Y014122D03*
X020828Y008537D03*
X021497Y008537D03*
X022078Y008537D03*
X022747Y008537D03*
X019912Y004747D03*
X019912Y004078D03*
X019122Y004100D03*
X019122Y003475D03*
X018453Y003475D03*
X018453Y004100D03*
X018453Y002787D03*
X019122Y002787D03*
D14*
X008797Y015757D03*
X008797Y016662D03*
X008797Y017568D03*
D15*
X011278Y016662D03*
D16*
X018326Y015600D03*
X018326Y015100D03*
X018326Y014600D03*
X018326Y014100D03*
X020374Y014100D03*
X020374Y014600D03*
X020374Y015100D03*
X020374Y015600D03*
X017936Y011725D03*
X017936Y011225D03*
X017936Y010725D03*
X017936Y010225D03*
X015889Y010225D03*
X015889Y010725D03*
X015889Y011225D03*
X015889Y011725D03*
X020264Y010787D03*
X020264Y010287D03*
X020264Y009787D03*
X020264Y009287D03*
X022311Y009287D03*
X022311Y009787D03*
X022311Y010287D03*
X022311Y010787D03*
D17*
X010945Y012940D03*
X010945Y013850D03*
X010945Y014760D03*
D18*
X008505Y013850D03*
D19*
X002850Y013095D03*
X002850Y012229D03*
D20*
X007038Y015725D03*
X007786Y015725D03*
X006224Y017225D03*
X005476Y017225D03*
D21*
X007037Y017224D03*
X007037Y016476D03*
X006600Y014411D03*
X006600Y013663D03*
X005787Y013661D03*
X005787Y012913D03*
X004975Y012913D03*
X004975Y013661D03*
D22*
X003854Y005535D03*
X001846Y005535D03*
X001846Y004039D03*
X003854Y004039D03*
D23*
G36*
X010676Y005265D02*
X010323Y004912D01*
X009850Y005385D01*
X010203Y005738D01*
X010676Y005265D01*
G37*
G36*
X011100Y005690D02*
X010747Y005337D01*
X010274Y005810D01*
X010627Y006163D01*
X011100Y005690D01*
G37*
D24*
G36*
X010750Y005304D02*
X010708Y005262D01*
X010200Y005770D01*
X010242Y005812D01*
X010750Y005304D01*
G37*
D25*
G36*
X009772Y005660D02*
X009327Y006105D01*
X009494Y006272D01*
X009939Y005827D01*
X009772Y005660D01*
G37*
G36*
X009549Y005437D02*
X009104Y005882D01*
X009271Y006049D01*
X009716Y005604D01*
X009549Y005437D01*
G37*
G36*
X009326Y005214D02*
X008881Y005659D01*
X009048Y005826D01*
X009493Y005381D01*
X009326Y005214D01*
G37*
G36*
X009104Y004992D02*
X008659Y005437D01*
X008826Y005604D01*
X009271Y005159D01*
X009104Y004992D01*
G37*
G36*
X008881Y004769D02*
X008436Y005214D01*
X008603Y005381D01*
X009048Y004936D01*
X008881Y004769D01*
G37*
G36*
X008658Y004546D02*
X008213Y004991D01*
X008380Y005158D01*
X008825Y004713D01*
X008658Y004546D01*
G37*
G36*
X008435Y004324D02*
X007990Y004769D01*
X008157Y004936D01*
X008602Y004491D01*
X008435Y004324D01*
G37*
G36*
X008213Y004101D02*
X007768Y004546D01*
X007935Y004713D01*
X008380Y004268D01*
X008213Y004101D01*
G37*
G36*
X007990Y003878D02*
X007545Y004323D01*
X007712Y004490D01*
X008157Y004045D01*
X007990Y003878D01*
G37*
G36*
X009994Y005883D02*
X009549Y006328D01*
X009716Y006495D01*
X010161Y006050D01*
X009994Y005883D01*
G37*
G36*
X010217Y006105D02*
X009772Y006550D01*
X009939Y006717D01*
X010384Y006272D01*
X010217Y006105D01*
G37*
G36*
X006320Y008666D02*
X005875Y009111D01*
X006042Y009278D01*
X006487Y008833D01*
X006320Y008666D01*
G37*
G36*
X006097Y008444D02*
X005652Y008889D01*
X005819Y009056D01*
X006264Y008611D01*
X006097Y008444D01*
G37*
G36*
X005874Y008221D02*
X005429Y008666D01*
X005596Y008833D01*
X006041Y008388D01*
X005874Y008221D01*
G37*
G36*
X005652Y007998D02*
X005207Y008443D01*
X005374Y008610D01*
X005819Y008165D01*
X005652Y007998D01*
G37*
G36*
X005429Y007776D02*
X004984Y008221D01*
X005151Y008388D01*
X005596Y007943D01*
X005429Y007776D01*
G37*
G36*
X005206Y007553D02*
X004761Y007998D01*
X004928Y008165D01*
X005373Y007720D01*
X005206Y007553D01*
G37*
G36*
X004983Y007330D02*
X004538Y007775D01*
X004705Y007942D01*
X005150Y007497D01*
X004983Y007330D01*
G37*
G36*
X004761Y007108D02*
X004316Y007553D01*
X004483Y007720D01*
X004928Y007275D01*
X004761Y007108D01*
G37*
G36*
X006542Y008889D02*
X006097Y009334D01*
X006264Y009501D01*
X006709Y009056D01*
X006542Y008889D01*
G37*
G36*
X006765Y009112D02*
X006320Y009557D01*
X006487Y009724D01*
X006932Y009279D01*
X006765Y009112D01*
G37*
G36*
X006988Y009335D02*
X006543Y009780D01*
X006710Y009947D01*
X007155Y009502D01*
X006988Y009335D01*
G37*
D26*
G36*
X007712Y009335D02*
X007545Y009502D01*
X007990Y009947D01*
X008157Y009780D01*
X007712Y009335D01*
G37*
G36*
X007935Y009112D02*
X007768Y009279D01*
X008213Y009724D01*
X008380Y009557D01*
X007935Y009112D01*
G37*
G36*
X008157Y008889D02*
X007990Y009056D01*
X008435Y009501D01*
X008602Y009334D01*
X008157Y008889D01*
G37*
G36*
X008380Y008666D02*
X008213Y008833D01*
X008658Y009278D01*
X008825Y009111D01*
X008380Y008666D01*
G37*
G36*
X008603Y008444D02*
X008436Y008611D01*
X008881Y009056D01*
X009048Y008889D01*
X008603Y008444D01*
G37*
G36*
X008826Y008221D02*
X008659Y008388D01*
X009104Y008833D01*
X009271Y008666D01*
X008826Y008221D01*
G37*
G36*
X009048Y007998D02*
X008881Y008165D01*
X009326Y008610D01*
X009493Y008443D01*
X009048Y007998D01*
G37*
G36*
X009271Y007776D02*
X009104Y007943D01*
X009549Y008388D01*
X009716Y008221D01*
X009271Y007776D01*
G37*
G36*
X009494Y007553D02*
X009327Y007720D01*
X009772Y008165D01*
X009939Y007998D01*
X009494Y007553D01*
G37*
G36*
X009716Y007330D02*
X009549Y007497D01*
X009994Y007942D01*
X010161Y007775D01*
X009716Y007330D01*
G37*
G36*
X009939Y007108D02*
X009772Y007275D01*
X010217Y007720D01*
X010384Y007553D01*
X009939Y007108D01*
G37*
G36*
X006264Y004324D02*
X006097Y004491D01*
X006542Y004936D01*
X006709Y004769D01*
X006264Y004324D01*
G37*
G36*
X006487Y004101D02*
X006320Y004268D01*
X006765Y004713D01*
X006932Y004546D01*
X006487Y004101D01*
G37*
G36*
X006710Y003878D02*
X006543Y004045D01*
X006988Y004490D01*
X007155Y004323D01*
X006710Y003878D01*
G37*
G36*
X006042Y004546D02*
X005875Y004713D01*
X006320Y005158D01*
X006487Y004991D01*
X006042Y004546D01*
G37*
G36*
X005819Y004769D02*
X005652Y004936D01*
X006097Y005381D01*
X006264Y005214D01*
X005819Y004769D01*
G37*
G36*
X005596Y004992D02*
X005429Y005159D01*
X005874Y005604D01*
X006041Y005437D01*
X005596Y004992D01*
G37*
G36*
X005374Y005214D02*
X005207Y005381D01*
X005652Y005826D01*
X005819Y005659D01*
X005374Y005214D01*
G37*
G36*
X005151Y005437D02*
X004984Y005604D01*
X005429Y006049D01*
X005596Y005882D01*
X005151Y005437D01*
G37*
G36*
X004928Y005660D02*
X004761Y005827D01*
X005206Y006272D01*
X005373Y006105D01*
X004928Y005660D01*
G37*
G36*
X004705Y005883D02*
X004538Y006050D01*
X004983Y006495D01*
X005150Y006328D01*
X004705Y005883D01*
G37*
G36*
X004483Y006105D02*
X004316Y006272D01*
X004761Y006717D01*
X004928Y006550D01*
X004483Y006105D01*
G37*
D27*
X025164Y009838D03*
D28*
X024160Y010841D03*
X026168Y010841D03*
X026168Y008834D03*
X024160Y008834D03*
D29*
X002487Y001109D02*
X002485Y001186D01*
X002479Y001263D01*
X002470Y001340D01*
X002457Y001416D01*
X002440Y001492D01*
X002419Y001566D01*
X002395Y001640D01*
X002367Y001712D01*
X002336Y001782D01*
X002301Y001851D01*
X002263Y001919D01*
X002222Y001984D01*
X002177Y002047D01*
X002129Y002108D01*
X002079Y002167D01*
X002026Y002223D01*
X001970Y002276D01*
X001911Y002326D01*
X001850Y002374D01*
X001787Y002419D01*
X001722Y002460D01*
X001654Y002498D01*
X001585Y002533D01*
X001515Y002564D01*
X001443Y002592D01*
X001369Y002616D01*
X001295Y002637D01*
X001219Y002654D01*
X001143Y002667D01*
X001066Y002676D01*
X000989Y002682D01*
X000912Y002684D01*
X000912Y016857D01*
X000989Y016859D01*
X001066Y016865D01*
X001143Y016874D01*
X001219Y016887D01*
X001295Y016904D01*
X001369Y016925D01*
X001443Y016949D01*
X001515Y016977D01*
X001585Y017008D01*
X001654Y017043D01*
X001722Y017081D01*
X001787Y017122D01*
X001850Y017167D01*
X001911Y017215D01*
X001970Y017265D01*
X002026Y017318D01*
X002079Y017374D01*
X002129Y017433D01*
X002177Y017494D01*
X002222Y017557D01*
X002263Y017622D01*
X002301Y017690D01*
X002336Y017759D01*
X002367Y017829D01*
X002395Y017901D01*
X002419Y017975D01*
X002440Y018049D01*
X002457Y018125D01*
X002470Y018201D01*
X002479Y018278D01*
X002485Y018355D01*
X002487Y018432D01*
X002487Y018629D01*
X025322Y018629D01*
X025322Y018432D01*
X023156Y017448D02*
X023158Y017496D01*
X023164Y017544D01*
X023174Y017591D01*
X023187Y017637D01*
X023205Y017682D01*
X023225Y017726D01*
X023250Y017768D01*
X023278Y017807D01*
X023308Y017844D01*
X023342Y017878D01*
X023379Y017910D01*
X023417Y017939D01*
X023458Y017964D01*
X023501Y017986D01*
X023546Y018004D01*
X023592Y018018D01*
X023639Y018029D01*
X023687Y018036D01*
X023735Y018039D01*
X023783Y018038D01*
X023831Y018033D01*
X023879Y018024D01*
X023925Y018012D01*
X023970Y017995D01*
X024014Y017975D01*
X024056Y017952D01*
X024096Y017925D01*
X024134Y017895D01*
X024169Y017862D01*
X024201Y017826D01*
X024231Y017788D01*
X024257Y017747D01*
X024279Y017704D01*
X024299Y017660D01*
X024314Y017615D01*
X024326Y017568D01*
X024334Y017520D01*
X024338Y017472D01*
X024338Y017424D01*
X024334Y017376D01*
X024326Y017328D01*
X024314Y017281D01*
X024299Y017236D01*
X024279Y017192D01*
X024257Y017149D01*
X024231Y017108D01*
X024201Y017070D01*
X024169Y017034D01*
X024134Y017001D01*
X024096Y016971D01*
X024056Y016944D01*
X024014Y016921D01*
X023970Y016901D01*
X023925Y016884D01*
X023879Y016872D01*
X023831Y016863D01*
X023783Y016858D01*
X023735Y016857D01*
X023687Y016860D01*
X023639Y016867D01*
X023592Y016878D01*
X023546Y016892D01*
X023501Y016910D01*
X023458Y016932D01*
X023417Y016957D01*
X023379Y016986D01*
X023342Y017018D01*
X023308Y017052D01*
X023278Y017089D01*
X023250Y017128D01*
X023225Y017170D01*
X023205Y017214D01*
X023187Y017259D01*
X023174Y017305D01*
X023164Y017352D01*
X023158Y017400D01*
X023156Y017448D01*
X026897Y016857D02*
X026897Y002684D01*
X026817Y002678D01*
X026738Y002667D01*
X026659Y002653D01*
X026582Y002635D01*
X026505Y002614D01*
X026429Y002589D01*
X026355Y002560D01*
X026282Y002528D01*
X026210Y002492D01*
X026141Y002453D01*
X026073Y002411D01*
X026008Y002365D01*
X025944Y002317D01*
X025883Y002265D01*
X025825Y002211D01*
X025769Y002154D01*
X025716Y002094D01*
X025666Y002032D01*
X025619Y001968D01*
X025575Y001901D01*
X025534Y001833D01*
X025497Y001762D01*
X025463Y001690D01*
X025432Y001617D01*
X025405Y001541D01*
X025382Y001465D01*
X025362Y001388D01*
X025346Y001310D01*
X025334Y001231D01*
X025325Y001152D01*
X025320Y001072D01*
X025319Y000992D01*
X025322Y000913D01*
X025322Y000912D02*
X002487Y000912D01*
X002487Y001109D01*
X003471Y002094D02*
X003473Y002142D01*
X003479Y002190D01*
X003489Y002237D01*
X003502Y002283D01*
X003520Y002328D01*
X003540Y002372D01*
X003565Y002414D01*
X003593Y002453D01*
X003623Y002490D01*
X003657Y002524D01*
X003694Y002556D01*
X003732Y002585D01*
X003773Y002610D01*
X003816Y002632D01*
X003861Y002650D01*
X003907Y002664D01*
X003954Y002675D01*
X004002Y002682D01*
X004050Y002685D01*
X004098Y002684D01*
X004146Y002679D01*
X004194Y002670D01*
X004240Y002658D01*
X004285Y002641D01*
X004329Y002621D01*
X004371Y002598D01*
X004411Y002571D01*
X004449Y002541D01*
X004484Y002508D01*
X004516Y002472D01*
X004546Y002434D01*
X004572Y002393D01*
X004594Y002350D01*
X004614Y002306D01*
X004629Y002261D01*
X004641Y002214D01*
X004649Y002166D01*
X004653Y002118D01*
X004653Y002070D01*
X004649Y002022D01*
X004641Y001974D01*
X004629Y001927D01*
X004614Y001882D01*
X004594Y001838D01*
X004572Y001795D01*
X004546Y001754D01*
X004516Y001716D01*
X004484Y001680D01*
X004449Y001647D01*
X004411Y001617D01*
X004371Y001590D01*
X004329Y001567D01*
X004285Y001547D01*
X004240Y001530D01*
X004194Y001518D01*
X004146Y001509D01*
X004098Y001504D01*
X004050Y001503D01*
X004002Y001506D01*
X003954Y001513D01*
X003907Y001524D01*
X003861Y001538D01*
X003816Y001556D01*
X003773Y001578D01*
X003732Y001603D01*
X003694Y001632D01*
X003657Y001664D01*
X003623Y001698D01*
X003593Y001735D01*
X003565Y001774D01*
X003540Y001816D01*
X003520Y001860D01*
X003502Y001905D01*
X003489Y001951D01*
X003479Y001998D01*
X003473Y002046D01*
X003471Y002094D01*
X023156Y002094D02*
X023158Y002142D01*
X023164Y002190D01*
X023174Y002237D01*
X023187Y002283D01*
X023205Y002328D01*
X023225Y002372D01*
X023250Y002414D01*
X023278Y002453D01*
X023308Y002490D01*
X023342Y002524D01*
X023379Y002556D01*
X023417Y002585D01*
X023458Y002610D01*
X023501Y002632D01*
X023546Y002650D01*
X023592Y002664D01*
X023639Y002675D01*
X023687Y002682D01*
X023735Y002685D01*
X023783Y002684D01*
X023831Y002679D01*
X023879Y002670D01*
X023925Y002658D01*
X023970Y002641D01*
X024014Y002621D01*
X024056Y002598D01*
X024096Y002571D01*
X024134Y002541D01*
X024169Y002508D01*
X024201Y002472D01*
X024231Y002434D01*
X024257Y002393D01*
X024279Y002350D01*
X024299Y002306D01*
X024314Y002261D01*
X024326Y002214D01*
X024334Y002166D01*
X024338Y002118D01*
X024338Y002070D01*
X024334Y002022D01*
X024326Y001974D01*
X024314Y001927D01*
X024299Y001882D01*
X024279Y001838D01*
X024257Y001795D01*
X024231Y001754D01*
X024201Y001716D01*
X024169Y001680D01*
X024134Y001647D01*
X024096Y001617D01*
X024056Y001590D01*
X024014Y001567D01*
X023970Y001547D01*
X023925Y001530D01*
X023879Y001518D01*
X023831Y001509D01*
X023783Y001504D01*
X023735Y001503D01*
X023687Y001506D01*
X023639Y001513D01*
X023592Y001524D01*
X023546Y001538D01*
X023501Y001556D01*
X023458Y001578D01*
X023417Y001603D01*
X023379Y001632D01*
X023342Y001664D01*
X023308Y001698D01*
X023278Y001735D01*
X023250Y001774D01*
X023225Y001816D01*
X023205Y001860D01*
X023187Y001905D01*
X023174Y001951D01*
X023164Y001998D01*
X023158Y002046D01*
X023156Y002094D01*
X003471Y017448D02*
X003473Y017496D01*
X003479Y017544D01*
X003489Y017591D01*
X003502Y017637D01*
X003520Y017682D01*
X003540Y017726D01*
X003565Y017768D01*
X003593Y017807D01*
X003623Y017844D01*
X003657Y017878D01*
X003694Y017910D01*
X003732Y017939D01*
X003773Y017964D01*
X003816Y017986D01*
X003861Y018004D01*
X003907Y018018D01*
X003954Y018029D01*
X004002Y018036D01*
X004050Y018039D01*
X004098Y018038D01*
X004146Y018033D01*
X004194Y018024D01*
X004240Y018012D01*
X004285Y017995D01*
X004329Y017975D01*
X004371Y017952D01*
X004411Y017925D01*
X004449Y017895D01*
X004484Y017862D01*
X004516Y017826D01*
X004546Y017788D01*
X004572Y017747D01*
X004594Y017704D01*
X004614Y017660D01*
X004629Y017615D01*
X004641Y017568D01*
X004649Y017520D01*
X004653Y017472D01*
X004653Y017424D01*
X004649Y017376D01*
X004641Y017328D01*
X004629Y017281D01*
X004614Y017236D01*
X004594Y017192D01*
X004572Y017149D01*
X004546Y017108D01*
X004516Y017070D01*
X004484Y017034D01*
X004449Y017001D01*
X004411Y016971D01*
X004371Y016944D01*
X004329Y016921D01*
X004285Y016901D01*
X004240Y016884D01*
X004194Y016872D01*
X004146Y016863D01*
X004098Y016858D01*
X004050Y016857D01*
X004002Y016860D01*
X003954Y016867D01*
X003907Y016878D01*
X003861Y016892D01*
X003816Y016910D01*
X003773Y016932D01*
X003732Y016957D01*
X003694Y016986D01*
X003657Y017018D01*
X003623Y017052D01*
X003593Y017089D01*
X003565Y017128D01*
X003540Y017170D01*
X003520Y017214D01*
X003502Y017259D01*
X003489Y017305D01*
X003479Y017352D01*
X003473Y017400D01*
X003471Y017448D01*
X025322Y018432D02*
X025324Y018355D01*
X025330Y018278D01*
X025339Y018201D01*
X025352Y018125D01*
X025369Y018049D01*
X025390Y017975D01*
X025414Y017901D01*
X025442Y017829D01*
X025473Y017759D01*
X025508Y017690D01*
X025546Y017622D01*
X025587Y017557D01*
X025632Y017494D01*
X025680Y017433D01*
X025730Y017374D01*
X025783Y017318D01*
X025839Y017265D01*
X025898Y017215D01*
X025959Y017167D01*
X026022Y017122D01*
X026087Y017081D01*
X026155Y017043D01*
X026224Y017008D01*
X026294Y016977D01*
X026366Y016949D01*
X026440Y016925D01*
X026514Y016904D01*
X026590Y016887D01*
X026666Y016874D01*
X026743Y016865D01*
X026820Y016859D01*
X026897Y016857D01*
D30*
X023747Y017448D03*
X004062Y017448D03*
X004062Y002094D03*
X023747Y002094D03*
D31*
X001483Y008176D03*
X001483Y009298D03*
X001483Y010243D03*
X001483Y011286D03*
D32*
X002566Y010282D03*
X002566Y010027D03*
X002566Y009771D03*
X002566Y009515D03*
X002566Y009259D03*
D33*
X004680Y010537D03*
X005270Y010537D03*
D34*
X007858Y011545D03*
X007858Y012530D03*
X017358Y006780D03*
X017358Y005795D03*
D35*
X016217Y006287D03*
X006717Y012037D03*
D36*
X006092Y015217D03*
X005108Y015217D03*
X012420Y017921D03*
X013405Y017921D03*
X013092Y006171D03*
X012108Y006171D03*
D37*
X012600Y005029D03*
X005600Y016358D03*
X012912Y016779D03*
M02*
