%
M48
M72
T01C0.0120
T02C0.0500
T03C0.0700
T04C0.1181
%
T01
X4037Y3287
X5100Y2662
X5100Y1600
X6725Y3037
X7725Y3412
X5662Y4537
X6662Y5225
X7225Y5662
X6725Y6100
X6350Y6475
X6725Y6850
X6350Y7600
X5537Y7475
X5225Y7225
X5225Y6787
X5975Y6100
X6350Y5725
X4537Y5600
X2850Y5162
X2850Y4100
X1975Y6600
X1350Y6600
X4037Y6850
X4162Y7787
X5037Y8537
X6475Y10037
X7662Y10600
X8287Y10100
X9037Y9600
X10162Y8287
X10725Y7100
X12600Y6475
X13600Y6350
X13600Y5725
X12600Y5662
X12412Y5037
X10850Y4725
X10225Y2787
X11787Y2725
X12100Y2287
X11537Y1412
X13225Y2287
X13475Y1412
X17225Y3787
X18412Y4725
X19100Y5475
X19912Y5287
X22037Y6225
X23662Y6162
X25475Y6162
X25600Y4100
X23600Y4100
X22037Y4100
X22037Y1975
X16225Y6100
X16787Y6725
X15475Y7662
X15412Y8162
X14412Y9162
X13912Y8787
X12912Y9162
X12225Y8850
X12912Y9850
X12787Y10412
X11600Y10975
X12850Y11350
X13662Y12537
X14225Y12600
X13225Y13412
X12287Y12912
X14225Y14162
X13662Y14850
X13100Y14850
X15287Y14162
X16225Y14600
X16037Y15725
X17037Y16412
X17287Y17537
X15350Y17537
X19287Y17537
X21412Y17537
X23100Y16100
X25600Y16100
X25600Y14287
X23100Y14350
X20787Y13100
X19100Y12725
X18725Y11725
X17475Y11225
X17725Y10725
X17787Y10225
X16975Y9975
X15412Y9475
X14537Y9912
X16662Y11225
X15100Y11350
X17037Y12600
X19350Y15662
X23100Y12537
X25600Y12537
X22537Y10287
X20475Y8037
X18787Y9287
X19350Y9537
X18287Y8100
X13662Y7162
X8225Y8162
X7662Y8162
X7287Y7850
X3412Y10912
X2787Y12265
X1350Y13600
X2162Y13787
X1412Y14850
X2100Y14912
X1412Y16037
X3287Y16037
X4162Y16412
X5350Y16350
X5037Y15100
X4287Y14600
X5037Y13662
X7747Y15686
X10037Y14662
X8475Y13600
X10037Y12975
X8912Y12100
X9287Y11350
X5537Y11225
X11037Y16662
X8975Y17537
X8100Y1475
T02
X25164Y9838
T03
X24160Y10841
X26168Y10841
X26168Y8834
X24160Y8834
T04
X4062Y2094
X23747Y2094
X23747Y17448
X4062Y17448
M30
