G75*
%MOIN*%
%OFA0B0*%
%FSLAX24Y24*%
%IPPOS*%
%LPD*%
%AMOC8*
5,1,8,0,0,1.08239X$1,22.5*
%
%ADD10R,0.0434X0.0473*%
%ADD11R,0.0473X0.0434*%
%ADD12R,0.0985X0.0670*%
%ADD13R,0.0591X0.0670*%
%ADD14R,0.0670X0.0591*%
%ADD15R,0.0827X0.0631*%
%ADD16R,0.0827X0.1536*%
%ADD17R,0.0920X0.0520*%
%ADD18R,0.0906X0.1457*%
%ADD19R,0.1103X0.0434*%
%ADD20R,0.0552X0.0631*%
%ADD21R,0.0631X0.0552*%
%ADD22R,0.0670X0.0631*%
%ADD23R,0.0500X0.0670*%
%ADD24R,0.0060X0.0720*%
%ADD25R,0.0631X0.0237*%
%ADD26R,0.0237X0.0631*%
%ADD27C,0.0790*%
%ADD28C,0.1090*%
%ADD29C,0.0000*%
%ADD30C,0.1221*%
%ADD31R,0.0788X0.0788*%
%ADD32R,0.0591X0.0197*%
%ADD33R,0.0355X0.0355*%
D10*
X005572Y002265D03*
X005572Y002935D03*
G36*
X007171Y005481D02*
X006864Y005788D01*
X007197Y006121D01*
X007504Y005814D01*
X007171Y005481D01*
G37*
G36*
X006697Y005954D02*
X006390Y006261D01*
X006723Y006594D01*
X007030Y006287D01*
X006697Y005954D01*
G37*
X011197Y003872D03*
X011197Y003203D03*
G36*
X013884Y008121D02*
X014191Y007814D01*
X013858Y007481D01*
X013551Y007788D01*
X013884Y008121D01*
G37*
G36*
X013411Y008594D02*
X013718Y008287D01*
X013385Y007954D01*
X013078Y008261D01*
X013411Y008594D01*
G37*
X010010Y011453D03*
X010010Y012122D03*
X007322Y012265D03*
X007322Y012935D03*
X009385Y014578D03*
X009385Y015247D03*
X010260Y015265D03*
X010260Y015935D03*
X008010Y016703D03*
X008010Y017372D03*
X014612Y017975D03*
X015282Y017975D03*
X014094Y012412D03*
X013425Y012412D03*
X017925Y011287D03*
X018594Y011287D03*
X018407Y009850D03*
X017737Y009850D03*
X021862Y012350D03*
X022532Y012350D03*
X022594Y009787D03*
X021925Y009787D03*
X006969Y009600D03*
X006300Y009600D03*
X006300Y010162D03*
X006300Y010787D03*
X006969Y010787D03*
X006969Y010162D03*
D11*
X007737Y010662D03*
X008407Y010662D03*
G36*
X009828Y010350D02*
X010161Y010683D01*
X010468Y010376D01*
X010135Y010043D01*
X009828Y010350D01*
G37*
G36*
X010301Y010824D02*
X010634Y011157D01*
X010941Y010850D01*
X010608Y010517D01*
X010301Y010824D01*
G37*
X012050Y009475D03*
X012719Y009475D03*
X013385Y013078D03*
X013385Y013747D03*
X014635Y016703D03*
X014635Y017372D03*
X008719Y014537D03*
X008050Y014537D03*
X005969Y005850D03*
X005300Y005850D03*
X011885Y004372D03*
X011885Y003703D03*
X020697Y009078D03*
X020697Y009747D03*
X021947Y008872D03*
X021947Y008203D03*
X022572Y010890D03*
X022572Y011560D03*
D12*
X014822Y011315D03*
X013510Y011315D03*
X012197Y011315D03*
X012197Y010134D03*
X013510Y010134D03*
X014822Y010134D03*
D13*
X006510Y012509D03*
X006510Y013690D03*
X004572Y013759D03*
X004572Y014940D03*
D14*
X005419Y014787D03*
X006600Y014787D03*
X005913Y015975D03*
X004731Y015975D03*
G36*
X006607Y008739D02*
X007080Y009212D01*
X007497Y008795D01*
X007024Y008322D01*
X006607Y008739D01*
G37*
G36*
X006662Y007960D02*
X006189Y007487D01*
X005772Y007904D01*
X006245Y008377D01*
X006662Y007960D01*
G37*
D15*
X011394Y015944D03*
X011394Y016850D03*
X011394Y017755D03*
D16*
X013875Y016850D03*
D17*
X012480Y014260D03*
X012480Y013350D03*
X012480Y012440D03*
D18*
X010039Y013350D03*
D19*
X005322Y013095D03*
X005322Y012229D03*
D20*
X008010Y011975D03*
X008759Y011975D03*
X008759Y012975D03*
X008010Y012975D03*
X008010Y013850D03*
X008759Y013850D03*
X008571Y015225D03*
X007823Y015225D03*
X007821Y015975D03*
X007073Y015975D03*
D21*
X008760Y016038D03*
X008760Y016786D03*
D22*
X006826Y005098D03*
X004818Y005098D03*
X004818Y003602D03*
X006826Y003602D03*
D23*
G36*
X013420Y007663D02*
X013773Y007310D01*
X013300Y006837D01*
X012947Y007190D01*
X013420Y007663D01*
G37*
G36*
X013844Y007238D02*
X014197Y006885D01*
X013724Y006412D01*
X013371Y006765D01*
X013844Y007238D01*
G37*
D24*
G36*
X013805Y007312D02*
X013847Y007270D01*
X013339Y006762D01*
X013297Y006804D01*
X013805Y007312D01*
G37*
D25*
G36*
X012877Y006418D02*
X012432Y006863D01*
X012599Y007030D01*
X013044Y006585D01*
X012877Y006418D01*
G37*
G36*
X012654Y006195D02*
X012209Y006640D01*
X012376Y006807D01*
X012821Y006362D01*
X012654Y006195D01*
G37*
G36*
X012431Y005972D02*
X011986Y006417D01*
X012153Y006584D01*
X012598Y006139D01*
X012431Y005972D01*
G37*
G36*
X012209Y005750D02*
X011764Y006195D01*
X011931Y006362D01*
X012376Y005917D01*
X012209Y005750D01*
G37*
G36*
X011986Y005527D02*
X011541Y005972D01*
X011708Y006139D01*
X012153Y005694D01*
X011986Y005527D01*
G37*
G36*
X011763Y005304D02*
X011318Y005749D01*
X011485Y005916D01*
X011930Y005471D01*
X011763Y005304D01*
G37*
G36*
X011540Y005082D02*
X011095Y005527D01*
X011262Y005694D01*
X011707Y005249D01*
X011540Y005082D01*
G37*
G36*
X011318Y004859D02*
X010873Y005304D01*
X011040Y005471D01*
X011485Y005026D01*
X011318Y004859D01*
G37*
G36*
X011095Y004636D02*
X010650Y005081D01*
X010817Y005248D01*
X011262Y004803D01*
X011095Y004636D01*
G37*
G36*
X010872Y004413D02*
X010427Y004858D01*
X010594Y005025D01*
X011039Y004580D01*
X010872Y004413D01*
G37*
G36*
X010650Y004191D02*
X010205Y004636D01*
X010372Y004803D01*
X010817Y004358D01*
X010650Y004191D01*
G37*
G36*
X007420Y007420D02*
X006975Y007865D01*
X007142Y008032D01*
X007587Y007587D01*
X007420Y007420D01*
G37*
G36*
X007643Y007643D02*
X007198Y008088D01*
X007365Y008255D01*
X007810Y007810D01*
X007643Y007643D01*
G37*
G36*
X007866Y007865D02*
X007421Y008310D01*
X007588Y008477D01*
X008033Y008032D01*
X007866Y007865D01*
G37*
G36*
X008088Y008088D02*
X007643Y008533D01*
X007810Y008700D01*
X008255Y008255D01*
X008088Y008088D01*
G37*
G36*
X008311Y008311D02*
X007866Y008756D01*
X008033Y008923D01*
X008478Y008478D01*
X008311Y008311D01*
G37*
G36*
X008534Y008534D02*
X008089Y008979D01*
X008256Y009146D01*
X008701Y008701D01*
X008534Y008534D01*
G37*
G36*
X008757Y008756D02*
X008312Y009201D01*
X008479Y009368D01*
X008924Y008923D01*
X008757Y008756D01*
G37*
G36*
X008979Y008979D02*
X008534Y009424D01*
X008701Y009591D01*
X009146Y009146D01*
X008979Y008979D01*
G37*
G36*
X009202Y009202D02*
X008757Y009647D01*
X008924Y009814D01*
X009369Y009369D01*
X009202Y009202D01*
G37*
G36*
X009425Y009424D02*
X008980Y009869D01*
X009147Y010036D01*
X009592Y009591D01*
X009425Y009424D01*
G37*
G36*
X009647Y009647D02*
X009202Y010092D01*
X009369Y010259D01*
X009814Y009814D01*
X009647Y009647D01*
G37*
D26*
G36*
X010372Y009647D02*
X010205Y009814D01*
X010650Y010259D01*
X010817Y010092D01*
X010372Y009647D01*
G37*
G36*
X010594Y009424D02*
X010427Y009591D01*
X010872Y010036D01*
X011039Y009869D01*
X010594Y009424D01*
G37*
G36*
X010817Y009202D02*
X010650Y009369D01*
X011095Y009814D01*
X011262Y009647D01*
X010817Y009202D01*
G37*
G36*
X011040Y008979D02*
X010873Y009146D01*
X011318Y009591D01*
X011485Y009424D01*
X011040Y008979D01*
G37*
G36*
X011262Y008756D02*
X011095Y008923D01*
X011540Y009368D01*
X011707Y009201D01*
X011262Y008756D01*
G37*
G36*
X011485Y008534D02*
X011318Y008701D01*
X011763Y009146D01*
X011930Y008979D01*
X011485Y008534D01*
G37*
G36*
X011708Y008311D02*
X011541Y008478D01*
X011986Y008923D01*
X012153Y008756D01*
X011708Y008311D01*
G37*
G36*
X011931Y008088D02*
X011764Y008255D01*
X012209Y008700D01*
X012376Y008533D01*
X011931Y008088D01*
G37*
G36*
X012153Y007865D02*
X011986Y008032D01*
X012431Y008477D01*
X012598Y008310D01*
X012153Y007865D01*
G37*
G36*
X012376Y007643D02*
X012209Y007810D01*
X012654Y008255D01*
X012821Y008088D01*
X012376Y007643D01*
G37*
G36*
X012599Y007420D02*
X012432Y007587D01*
X012877Y008032D01*
X013044Y007865D01*
X012599Y007420D01*
G37*
G36*
X008924Y004636D02*
X008757Y004803D01*
X009202Y005248D01*
X009369Y005081D01*
X008924Y004636D01*
G37*
G36*
X009147Y004413D02*
X008980Y004580D01*
X009425Y005025D01*
X009592Y004858D01*
X009147Y004413D01*
G37*
G36*
X009369Y004191D02*
X009202Y004358D01*
X009647Y004803D01*
X009814Y004636D01*
X009369Y004191D01*
G37*
G36*
X008701Y004859D02*
X008534Y005026D01*
X008979Y005471D01*
X009146Y005304D01*
X008701Y004859D01*
G37*
G36*
X008479Y005082D02*
X008312Y005249D01*
X008757Y005694D01*
X008924Y005527D01*
X008479Y005082D01*
G37*
G36*
X008256Y005304D02*
X008089Y005471D01*
X008534Y005916D01*
X008701Y005749D01*
X008256Y005304D01*
G37*
G36*
X008033Y005527D02*
X007866Y005694D01*
X008311Y006139D01*
X008478Y005972D01*
X008033Y005527D01*
G37*
G36*
X007810Y005750D02*
X007643Y005917D01*
X008088Y006362D01*
X008255Y006195D01*
X007810Y005750D01*
G37*
G36*
X007588Y005972D02*
X007421Y006139D01*
X007866Y006584D01*
X008033Y006417D01*
X007588Y005972D01*
G37*
G36*
X007365Y006195D02*
X007198Y006362D01*
X007643Y006807D01*
X007810Y006640D01*
X007365Y006195D01*
G37*
G36*
X007142Y006418D02*
X006975Y006585D01*
X007420Y007030D01*
X007587Y006863D01*
X007142Y006418D01*
G37*
D27*
X027949Y009838D03*
D28*
X028953Y008834D03*
X026945Y008834D03*
X026945Y010841D03*
X028953Y010841D03*
D29*
X005272Y001109D02*
X005270Y001186D01*
X005264Y001263D01*
X005255Y001340D01*
X005242Y001416D01*
X005225Y001492D01*
X005204Y001566D01*
X005180Y001640D01*
X005152Y001712D01*
X005121Y001782D01*
X005086Y001851D01*
X005048Y001919D01*
X005007Y001984D01*
X004962Y002047D01*
X004914Y002108D01*
X004864Y002167D01*
X004811Y002223D01*
X004755Y002276D01*
X004696Y002326D01*
X004635Y002374D01*
X004572Y002419D01*
X004507Y002460D01*
X004439Y002498D01*
X004370Y002533D01*
X004300Y002564D01*
X004228Y002592D01*
X004154Y002616D01*
X004080Y002637D01*
X004004Y002654D01*
X003928Y002667D01*
X003851Y002676D01*
X003774Y002682D01*
X003697Y002684D01*
X003697Y016857D01*
X003774Y016859D01*
X003851Y016865D01*
X003928Y016874D01*
X004004Y016887D01*
X004080Y016904D01*
X004154Y016925D01*
X004228Y016949D01*
X004300Y016977D01*
X004370Y017008D01*
X004439Y017043D01*
X004507Y017081D01*
X004572Y017122D01*
X004635Y017167D01*
X004696Y017215D01*
X004755Y017265D01*
X004811Y017318D01*
X004864Y017374D01*
X004914Y017433D01*
X004962Y017494D01*
X005007Y017557D01*
X005048Y017622D01*
X005086Y017690D01*
X005121Y017759D01*
X005152Y017829D01*
X005180Y017901D01*
X005204Y017975D01*
X005225Y018049D01*
X005242Y018125D01*
X005255Y018201D01*
X005264Y018278D01*
X005270Y018355D01*
X005272Y018432D01*
X005272Y018629D01*
X028106Y018629D01*
X028106Y018432D01*
X028108Y018355D01*
X028114Y018278D01*
X028123Y018201D01*
X028136Y018125D01*
X028153Y018049D01*
X028174Y017975D01*
X028198Y017901D01*
X028226Y017829D01*
X028257Y017759D01*
X028292Y017690D01*
X028330Y017622D01*
X028371Y017557D01*
X028416Y017494D01*
X028464Y017433D01*
X028514Y017374D01*
X028567Y017318D01*
X028623Y017265D01*
X028682Y017215D01*
X028743Y017167D01*
X028806Y017122D01*
X028871Y017081D01*
X028939Y017043D01*
X029008Y017008D01*
X029078Y016977D01*
X029150Y016949D01*
X029224Y016925D01*
X029298Y016904D01*
X029374Y016887D01*
X029450Y016874D01*
X029527Y016865D01*
X029604Y016859D01*
X029681Y016857D01*
X029681Y002684D01*
X029682Y002684D02*
X029602Y002678D01*
X029523Y002667D01*
X029444Y002653D01*
X029367Y002635D01*
X029290Y002614D01*
X029214Y002589D01*
X029140Y002560D01*
X029067Y002528D01*
X028995Y002492D01*
X028926Y002453D01*
X028858Y002411D01*
X028793Y002365D01*
X028729Y002317D01*
X028668Y002265D01*
X028610Y002211D01*
X028554Y002154D01*
X028501Y002094D01*
X028451Y002032D01*
X028404Y001968D01*
X028360Y001901D01*
X028319Y001833D01*
X028282Y001762D01*
X028248Y001690D01*
X028217Y001617D01*
X028190Y001541D01*
X028167Y001465D01*
X028147Y001388D01*
X028131Y001310D01*
X028119Y001231D01*
X028110Y001152D01*
X028105Y001072D01*
X028104Y000992D01*
X028107Y000913D01*
X028106Y000912D02*
X005272Y000912D01*
X005272Y001109D01*
X006256Y002094D02*
X006258Y002142D01*
X006264Y002190D01*
X006274Y002237D01*
X006287Y002283D01*
X006305Y002328D01*
X006325Y002372D01*
X006350Y002414D01*
X006378Y002453D01*
X006408Y002490D01*
X006442Y002524D01*
X006479Y002556D01*
X006517Y002585D01*
X006558Y002610D01*
X006601Y002632D01*
X006646Y002650D01*
X006692Y002664D01*
X006739Y002675D01*
X006787Y002682D01*
X006835Y002685D01*
X006883Y002684D01*
X006931Y002679D01*
X006979Y002670D01*
X007025Y002658D01*
X007070Y002641D01*
X007114Y002621D01*
X007156Y002598D01*
X007196Y002571D01*
X007234Y002541D01*
X007269Y002508D01*
X007301Y002472D01*
X007331Y002434D01*
X007357Y002393D01*
X007379Y002350D01*
X007399Y002306D01*
X007414Y002261D01*
X007426Y002214D01*
X007434Y002166D01*
X007438Y002118D01*
X007438Y002070D01*
X007434Y002022D01*
X007426Y001974D01*
X007414Y001927D01*
X007399Y001882D01*
X007379Y001838D01*
X007357Y001795D01*
X007331Y001754D01*
X007301Y001716D01*
X007269Y001680D01*
X007234Y001647D01*
X007196Y001617D01*
X007156Y001590D01*
X007114Y001567D01*
X007070Y001547D01*
X007025Y001530D01*
X006979Y001518D01*
X006931Y001509D01*
X006883Y001504D01*
X006835Y001503D01*
X006787Y001506D01*
X006739Y001513D01*
X006692Y001524D01*
X006646Y001538D01*
X006601Y001556D01*
X006558Y001578D01*
X006517Y001603D01*
X006479Y001632D01*
X006442Y001664D01*
X006408Y001698D01*
X006378Y001735D01*
X006350Y001774D01*
X006325Y001816D01*
X006305Y001860D01*
X006287Y001905D01*
X006274Y001951D01*
X006264Y001998D01*
X006258Y002046D01*
X006256Y002094D01*
X025941Y002094D02*
X025943Y002142D01*
X025949Y002190D01*
X025959Y002237D01*
X025972Y002283D01*
X025990Y002328D01*
X026010Y002372D01*
X026035Y002414D01*
X026063Y002453D01*
X026093Y002490D01*
X026127Y002524D01*
X026164Y002556D01*
X026202Y002585D01*
X026243Y002610D01*
X026286Y002632D01*
X026331Y002650D01*
X026377Y002664D01*
X026424Y002675D01*
X026472Y002682D01*
X026520Y002685D01*
X026568Y002684D01*
X026616Y002679D01*
X026664Y002670D01*
X026710Y002658D01*
X026755Y002641D01*
X026799Y002621D01*
X026841Y002598D01*
X026881Y002571D01*
X026919Y002541D01*
X026954Y002508D01*
X026986Y002472D01*
X027016Y002434D01*
X027042Y002393D01*
X027064Y002350D01*
X027084Y002306D01*
X027099Y002261D01*
X027111Y002214D01*
X027119Y002166D01*
X027123Y002118D01*
X027123Y002070D01*
X027119Y002022D01*
X027111Y001974D01*
X027099Y001927D01*
X027084Y001882D01*
X027064Y001838D01*
X027042Y001795D01*
X027016Y001754D01*
X026986Y001716D01*
X026954Y001680D01*
X026919Y001647D01*
X026881Y001617D01*
X026841Y001590D01*
X026799Y001567D01*
X026755Y001547D01*
X026710Y001530D01*
X026664Y001518D01*
X026616Y001509D01*
X026568Y001504D01*
X026520Y001503D01*
X026472Y001506D01*
X026424Y001513D01*
X026377Y001524D01*
X026331Y001538D01*
X026286Y001556D01*
X026243Y001578D01*
X026202Y001603D01*
X026164Y001632D01*
X026127Y001664D01*
X026093Y001698D01*
X026063Y001735D01*
X026035Y001774D01*
X026010Y001816D01*
X025990Y001860D01*
X025972Y001905D01*
X025959Y001951D01*
X025949Y001998D01*
X025943Y002046D01*
X025941Y002094D01*
X025941Y017448D02*
X025943Y017496D01*
X025949Y017544D01*
X025959Y017591D01*
X025972Y017637D01*
X025990Y017682D01*
X026010Y017726D01*
X026035Y017768D01*
X026063Y017807D01*
X026093Y017844D01*
X026127Y017878D01*
X026164Y017910D01*
X026202Y017939D01*
X026243Y017964D01*
X026286Y017986D01*
X026331Y018004D01*
X026377Y018018D01*
X026424Y018029D01*
X026472Y018036D01*
X026520Y018039D01*
X026568Y018038D01*
X026616Y018033D01*
X026664Y018024D01*
X026710Y018012D01*
X026755Y017995D01*
X026799Y017975D01*
X026841Y017952D01*
X026881Y017925D01*
X026919Y017895D01*
X026954Y017862D01*
X026986Y017826D01*
X027016Y017788D01*
X027042Y017747D01*
X027064Y017704D01*
X027084Y017660D01*
X027099Y017615D01*
X027111Y017568D01*
X027119Y017520D01*
X027123Y017472D01*
X027123Y017424D01*
X027119Y017376D01*
X027111Y017328D01*
X027099Y017281D01*
X027084Y017236D01*
X027064Y017192D01*
X027042Y017149D01*
X027016Y017108D01*
X026986Y017070D01*
X026954Y017034D01*
X026919Y017001D01*
X026881Y016971D01*
X026841Y016944D01*
X026799Y016921D01*
X026755Y016901D01*
X026710Y016884D01*
X026664Y016872D01*
X026616Y016863D01*
X026568Y016858D01*
X026520Y016857D01*
X026472Y016860D01*
X026424Y016867D01*
X026377Y016878D01*
X026331Y016892D01*
X026286Y016910D01*
X026243Y016932D01*
X026202Y016957D01*
X026164Y016986D01*
X026127Y017018D01*
X026093Y017052D01*
X026063Y017089D01*
X026035Y017128D01*
X026010Y017170D01*
X025990Y017214D01*
X025972Y017259D01*
X025959Y017305D01*
X025949Y017352D01*
X025943Y017400D01*
X025941Y017448D01*
X006256Y017448D02*
X006258Y017496D01*
X006264Y017544D01*
X006274Y017591D01*
X006287Y017637D01*
X006305Y017682D01*
X006325Y017726D01*
X006350Y017768D01*
X006378Y017807D01*
X006408Y017844D01*
X006442Y017878D01*
X006479Y017910D01*
X006517Y017939D01*
X006558Y017964D01*
X006601Y017986D01*
X006646Y018004D01*
X006692Y018018D01*
X006739Y018029D01*
X006787Y018036D01*
X006835Y018039D01*
X006883Y018038D01*
X006931Y018033D01*
X006979Y018024D01*
X007025Y018012D01*
X007070Y017995D01*
X007114Y017975D01*
X007156Y017952D01*
X007196Y017925D01*
X007234Y017895D01*
X007269Y017862D01*
X007301Y017826D01*
X007331Y017788D01*
X007357Y017747D01*
X007379Y017704D01*
X007399Y017660D01*
X007414Y017615D01*
X007426Y017568D01*
X007434Y017520D01*
X007438Y017472D01*
X007438Y017424D01*
X007434Y017376D01*
X007426Y017328D01*
X007414Y017281D01*
X007399Y017236D01*
X007379Y017192D01*
X007357Y017149D01*
X007331Y017108D01*
X007301Y017070D01*
X007269Y017034D01*
X007234Y017001D01*
X007196Y016971D01*
X007156Y016944D01*
X007114Y016921D01*
X007070Y016901D01*
X007025Y016884D01*
X006979Y016872D01*
X006931Y016863D01*
X006883Y016858D01*
X006835Y016857D01*
X006787Y016860D01*
X006739Y016867D01*
X006692Y016878D01*
X006646Y016892D01*
X006601Y016910D01*
X006558Y016932D01*
X006517Y016957D01*
X006479Y016986D01*
X006442Y017018D01*
X006408Y017052D01*
X006378Y017089D01*
X006350Y017128D01*
X006325Y017170D01*
X006305Y017214D01*
X006287Y017259D01*
X006274Y017305D01*
X006264Y017352D01*
X006258Y017400D01*
X006256Y017448D01*
D30*
X006847Y017448D03*
X026532Y017448D03*
X026532Y002094D03*
X006847Y002094D03*
D31*
X004268Y008176D03*
X004268Y009298D03*
X004268Y010243D03*
X004268Y011286D03*
D32*
X005351Y010282D03*
X005351Y010027D03*
X005351Y009771D03*
X005351Y009515D03*
X005351Y009259D03*
D33*
X006339Y011412D03*
X006930Y011412D03*
M02*
