%
M48
M72
T01C0.0120
T02C0.0500
T03C0.0700
T04C0.1181
%
T01
X5697Y4787
X4072Y6975
X5760Y7162
X6635Y7287
X7885Y7600
X8260Y7600
X8385Y7975
X7822Y8975
X9572Y7600
X9572Y6725
X8635Y6412
X10885Y5912
X12697Y5225
X11385Y4412
X11197Y3850
X10697Y3475
X9260Y3412
X9072Y1912
X14072Y1662
X14822Y1537
X16260Y1662
X16197Y2662
X14572Y2600
X16635Y4100
X15072Y4412
X14135Y5287
X16135Y6662
X17260Y7287
X17510Y6975
X14697Y6850
X13822Y6787
X12260Y9037
X12010Y10100
X13322Y10162
X14572Y10100
X15947Y9537
X16635Y9037
X16760Y9850
X18385Y9912
X18760Y9287
X21135Y8225
X20697Y7225
X21697Y7162
X24822Y7162
X28072Y7162
X28072Y4537
X24822Y4537
X21697Y4537
X21697Y1725
X24822Y1725
X24322Y9350
X22635Y9787
X21885Y9725
X24822Y10725
X24322Y12162
X24822Y12787
X22572Y12412
X20822Y12287
X19572Y12537
X17885Y11287
X18635Y11225
X16510Y11662
X15260Y13225
X17947Y15475
X18135Y16912
X20135Y16912
X22447Y16912
X24822Y16912
X24822Y14725
X27760Y14725
X27760Y12787
X21322Y14412
X11947Y11287
X9197Y11162
X8947Y10537
X8760Y11850
X8010Y13850
X7197Y14787
X5947Y15970
X5572Y16912
X4447Y14912
X4697Y13787
X5322Y12287
X4260Y10225
X4260Y9350
X9322Y16600
X9572Y17725
T02
X27949Y9838
T03
X28953Y8834
X26945Y8834
X26945Y10841
X28953Y10841
T04
X6847Y2094
X26532Y2094
X26532Y17448
X6847Y17448
M30
