G75*
%MOIN*%
%OFA0B0*%
%FSLAX24Y24*%
%IPPOS*%
%LPD*%
%AMOC8*
5,1,8,0,0,1.08239X$1,22.5*
%
%ADD10R,0.0394X0.0433*%
%ADD11R,0.0433X0.0394*%
%ADD12R,0.0945X0.0630*%
%ADD13R,0.0551X0.0630*%
%ADD14R,0.0630X0.0551*%
%ADD15R,0.0787X0.0591*%
%ADD16R,0.0787X0.1496*%
%ADD17R,0.0880X0.0480*%
%ADD18R,0.0866X0.1417*%
%ADD19R,0.1063X0.0394*%
%ADD20R,0.0512X0.0591*%
%ADD21R,0.0591X0.0512*%
%ADD22R,0.0630X0.0591*%
%ADD23R,0.0460X0.0630*%
%ADD24R,0.0591X0.0197*%
%ADD25R,0.0197X0.0591*%
%ADD26C,0.0750*%
%ADD27C,0.1050*%
%ADD28C,0.0000*%
%ADD29R,0.0748X0.0748*%
%ADD30R,0.0551X0.0157*%
%ADD31R,0.0315X0.0315*%
%ADD32C,0.0100*%
%ADD33C,0.0080*%
%ADD34OC8,0.0240*%
%ADD35C,0.0240*%
D10*
X005572Y002265D03*
X005572Y002935D03*
G36*
X007171Y005509D02*
X006892Y005788D01*
X007197Y006093D01*
X007476Y005814D01*
X007171Y005509D01*
G37*
G36*
X006697Y005982D02*
X006418Y006261D01*
X006723Y006566D01*
X007002Y006287D01*
X006697Y005982D01*
G37*
X011197Y003872D03*
X011197Y003203D03*
G36*
X013884Y008093D02*
X014163Y007814D01*
X013858Y007509D01*
X013579Y007788D01*
X013884Y008093D01*
G37*
G36*
X013411Y008566D02*
X013690Y008287D01*
X013385Y007982D01*
X013106Y008261D01*
X013411Y008566D01*
G37*
X010010Y011453D03*
X010010Y012122D03*
X007322Y012265D03*
X007322Y012935D03*
X009385Y014578D03*
X009385Y015247D03*
X010260Y015265D03*
X010260Y015935D03*
X008010Y016703D03*
X008010Y017372D03*
X014612Y017975D03*
X015282Y017975D03*
X014094Y012412D03*
X013425Y012412D03*
X017925Y011287D03*
X018594Y011287D03*
X018407Y009850D03*
X017737Y009850D03*
X021862Y012350D03*
X022532Y012350D03*
X022594Y009787D03*
X021925Y009787D03*
X006969Y009600D03*
X006300Y009600D03*
X006300Y010162D03*
X006300Y010787D03*
X006969Y010787D03*
X006969Y010162D03*
D11*
X007737Y010662D03*
X008407Y010662D03*
G36*
X009856Y010350D02*
X010161Y010655D01*
X010440Y010376D01*
X010135Y010071D01*
X009856Y010350D01*
G37*
G36*
X010329Y010824D02*
X010634Y011129D01*
X010913Y010850D01*
X010608Y010545D01*
X010329Y010824D01*
G37*
X012050Y009475D03*
X012719Y009475D03*
X013385Y013078D03*
X013385Y013747D03*
X014635Y016703D03*
X014635Y017372D03*
X008719Y014537D03*
X008050Y014537D03*
X005969Y005850D03*
X005300Y005850D03*
X011885Y004372D03*
X011885Y003703D03*
X020697Y009078D03*
X020697Y009747D03*
X021947Y008872D03*
X021947Y008203D03*
X022572Y010890D03*
X022572Y011560D03*
D12*
X014822Y011315D03*
X013510Y011315D03*
X012197Y011315D03*
X012197Y010134D03*
X013510Y010134D03*
X014822Y010134D03*
D13*
X006510Y012509D03*
X006510Y013690D03*
X004572Y013759D03*
X004572Y014940D03*
D14*
X005419Y014787D03*
X006600Y014787D03*
X005913Y015975D03*
X004731Y015975D03*
G36*
X006635Y008739D02*
X007080Y009184D01*
X007469Y008795D01*
X007024Y008350D01*
X006635Y008739D01*
G37*
G36*
X006634Y007960D02*
X006189Y007515D01*
X005800Y007904D01*
X006245Y008349D01*
X006634Y007960D01*
G37*
D15*
X011394Y015944D03*
X011394Y016850D03*
X011394Y017755D03*
D16*
X013875Y016850D03*
D17*
X012480Y014260D03*
X012480Y013350D03*
X012480Y012440D03*
D18*
X010039Y013350D03*
D19*
X005322Y013095D03*
X005322Y012229D03*
D20*
X008010Y011975D03*
X008759Y011975D03*
X008759Y012975D03*
X008010Y012975D03*
X008010Y013850D03*
X008759Y013850D03*
X008571Y015225D03*
X007823Y015225D03*
X007821Y015975D03*
X007073Y015975D03*
D21*
X008760Y016038D03*
X008760Y016786D03*
D22*
X006826Y005098D03*
X004818Y005098D03*
X004818Y003602D03*
X006826Y003602D03*
D23*
G36*
X013420Y007635D02*
X013745Y007310D01*
X013300Y006865D01*
X012975Y007190D01*
X013420Y007635D01*
G37*
G36*
X013844Y007210D02*
X014169Y006885D01*
X013724Y006440D01*
X013399Y006765D01*
X013844Y007210D01*
G37*
D24*
G36*
X012877Y006447D02*
X012461Y006863D01*
X012599Y007001D01*
X013015Y006585D01*
X012877Y006447D01*
G37*
G36*
X012654Y006224D02*
X012238Y006640D01*
X012376Y006778D01*
X012792Y006362D01*
X012654Y006224D01*
G37*
G36*
X012431Y006001D02*
X012015Y006417D01*
X012153Y006555D01*
X012569Y006139D01*
X012431Y006001D01*
G37*
G36*
X012209Y005779D02*
X011793Y006195D01*
X011931Y006333D01*
X012347Y005917D01*
X012209Y005779D01*
G37*
G36*
X011986Y005556D02*
X011570Y005972D01*
X011708Y006110D01*
X012124Y005694D01*
X011986Y005556D01*
G37*
G36*
X011763Y005333D02*
X011347Y005749D01*
X011485Y005887D01*
X011901Y005471D01*
X011763Y005333D01*
G37*
G36*
X011540Y005111D02*
X011124Y005527D01*
X011262Y005665D01*
X011678Y005249D01*
X011540Y005111D01*
G37*
G36*
X011318Y004888D02*
X010902Y005304D01*
X011040Y005442D01*
X011456Y005026D01*
X011318Y004888D01*
G37*
G36*
X011095Y004665D02*
X010679Y005081D01*
X010817Y005219D01*
X011233Y004803D01*
X011095Y004665D01*
G37*
G36*
X010872Y004442D02*
X010456Y004858D01*
X010594Y004996D01*
X011010Y004580D01*
X010872Y004442D01*
G37*
G36*
X010650Y004220D02*
X010234Y004636D01*
X010372Y004774D01*
X010788Y004358D01*
X010650Y004220D01*
G37*
G36*
X007420Y007449D02*
X007004Y007865D01*
X007142Y008003D01*
X007558Y007587D01*
X007420Y007449D01*
G37*
G36*
X007643Y007672D02*
X007227Y008088D01*
X007365Y008226D01*
X007781Y007810D01*
X007643Y007672D01*
G37*
G36*
X007866Y007894D02*
X007450Y008310D01*
X007588Y008448D01*
X008004Y008032D01*
X007866Y007894D01*
G37*
G36*
X008088Y008117D02*
X007672Y008533D01*
X007810Y008671D01*
X008226Y008255D01*
X008088Y008117D01*
G37*
G36*
X008311Y008340D02*
X007895Y008756D01*
X008033Y008894D01*
X008449Y008478D01*
X008311Y008340D01*
G37*
G36*
X008534Y008563D02*
X008118Y008979D01*
X008256Y009117D01*
X008672Y008701D01*
X008534Y008563D01*
G37*
G36*
X008757Y008785D02*
X008341Y009201D01*
X008479Y009339D01*
X008895Y008923D01*
X008757Y008785D01*
G37*
G36*
X008979Y009008D02*
X008563Y009424D01*
X008701Y009562D01*
X009117Y009146D01*
X008979Y009008D01*
G37*
G36*
X009202Y009231D02*
X008786Y009647D01*
X008924Y009785D01*
X009340Y009369D01*
X009202Y009231D01*
G37*
G36*
X009425Y009453D02*
X009009Y009869D01*
X009147Y010007D01*
X009563Y009591D01*
X009425Y009453D01*
G37*
G36*
X009647Y009676D02*
X009231Y010092D01*
X009369Y010230D01*
X009785Y009814D01*
X009647Y009676D01*
G37*
D25*
G36*
X010372Y009676D02*
X010234Y009814D01*
X010650Y010230D01*
X010788Y010092D01*
X010372Y009676D01*
G37*
G36*
X010594Y009453D02*
X010456Y009591D01*
X010872Y010007D01*
X011010Y009869D01*
X010594Y009453D01*
G37*
G36*
X010817Y009231D02*
X010679Y009369D01*
X011095Y009785D01*
X011233Y009647D01*
X010817Y009231D01*
G37*
G36*
X011040Y009008D02*
X010902Y009146D01*
X011318Y009562D01*
X011456Y009424D01*
X011040Y009008D01*
G37*
G36*
X011262Y008785D02*
X011124Y008923D01*
X011540Y009339D01*
X011678Y009201D01*
X011262Y008785D01*
G37*
G36*
X011485Y008563D02*
X011347Y008701D01*
X011763Y009117D01*
X011901Y008979D01*
X011485Y008563D01*
G37*
G36*
X011708Y008340D02*
X011570Y008478D01*
X011986Y008894D01*
X012124Y008756D01*
X011708Y008340D01*
G37*
G36*
X011931Y008117D02*
X011793Y008255D01*
X012209Y008671D01*
X012347Y008533D01*
X011931Y008117D01*
G37*
G36*
X012153Y007894D02*
X012015Y008032D01*
X012431Y008448D01*
X012569Y008310D01*
X012153Y007894D01*
G37*
G36*
X012376Y007672D02*
X012238Y007810D01*
X012654Y008226D01*
X012792Y008088D01*
X012376Y007672D01*
G37*
G36*
X012599Y007449D02*
X012461Y007587D01*
X012877Y008003D01*
X013015Y007865D01*
X012599Y007449D01*
G37*
G36*
X008701Y004888D02*
X008563Y005026D01*
X008979Y005442D01*
X009117Y005304D01*
X008701Y004888D01*
G37*
G36*
X008924Y004665D02*
X008786Y004803D01*
X009202Y005219D01*
X009340Y005081D01*
X008924Y004665D01*
G37*
G36*
X009147Y004442D02*
X009009Y004580D01*
X009425Y004996D01*
X009563Y004858D01*
X009147Y004442D01*
G37*
G36*
X009369Y004220D02*
X009231Y004358D01*
X009647Y004774D01*
X009785Y004636D01*
X009369Y004220D01*
G37*
G36*
X008479Y005111D02*
X008341Y005249D01*
X008757Y005665D01*
X008895Y005527D01*
X008479Y005111D01*
G37*
G36*
X008256Y005333D02*
X008118Y005471D01*
X008534Y005887D01*
X008672Y005749D01*
X008256Y005333D01*
G37*
G36*
X008033Y005556D02*
X007895Y005694D01*
X008311Y006110D01*
X008449Y005972D01*
X008033Y005556D01*
G37*
G36*
X007810Y005779D02*
X007672Y005917D01*
X008088Y006333D01*
X008226Y006195D01*
X007810Y005779D01*
G37*
G36*
X007588Y006001D02*
X007450Y006139D01*
X007866Y006555D01*
X008004Y006417D01*
X007588Y006001D01*
G37*
G36*
X007365Y006224D02*
X007227Y006362D01*
X007643Y006778D01*
X007781Y006640D01*
X007365Y006224D01*
G37*
G36*
X007142Y006447D02*
X007004Y006585D01*
X007420Y007001D01*
X007558Y006863D01*
X007142Y006447D01*
G37*
D26*
X027949Y009838D03*
D27*
X028953Y008834D03*
X026945Y008834D03*
X026945Y010841D03*
X028953Y010841D03*
D28*
X005272Y001109D02*
X005270Y001186D01*
X005264Y001263D01*
X005255Y001340D01*
X005242Y001416D01*
X005225Y001492D01*
X005204Y001566D01*
X005180Y001640D01*
X005152Y001712D01*
X005121Y001782D01*
X005086Y001851D01*
X005048Y001919D01*
X005007Y001984D01*
X004962Y002047D01*
X004914Y002108D01*
X004864Y002167D01*
X004811Y002223D01*
X004755Y002276D01*
X004696Y002326D01*
X004635Y002374D01*
X004572Y002419D01*
X004507Y002460D01*
X004439Y002498D01*
X004370Y002533D01*
X004300Y002564D01*
X004228Y002592D01*
X004154Y002616D01*
X004080Y002637D01*
X004004Y002654D01*
X003928Y002667D01*
X003851Y002676D01*
X003774Y002682D01*
X003697Y002684D01*
X003697Y016857D01*
X003774Y016859D01*
X003851Y016865D01*
X003928Y016874D01*
X004004Y016887D01*
X004080Y016904D01*
X004154Y016925D01*
X004228Y016949D01*
X004300Y016977D01*
X004370Y017008D01*
X004439Y017043D01*
X004507Y017081D01*
X004572Y017122D01*
X004635Y017167D01*
X004696Y017215D01*
X004755Y017265D01*
X004811Y017318D01*
X004864Y017374D01*
X004914Y017433D01*
X004962Y017494D01*
X005007Y017557D01*
X005048Y017622D01*
X005086Y017690D01*
X005121Y017759D01*
X005152Y017829D01*
X005180Y017901D01*
X005204Y017975D01*
X005225Y018049D01*
X005242Y018125D01*
X005255Y018201D01*
X005264Y018278D01*
X005270Y018355D01*
X005272Y018432D01*
X005272Y018629D01*
X028106Y018629D01*
X028106Y018432D01*
X028108Y018355D01*
X028114Y018278D01*
X028123Y018201D01*
X028136Y018125D01*
X028153Y018049D01*
X028174Y017975D01*
X028198Y017901D01*
X028226Y017829D01*
X028257Y017759D01*
X028292Y017690D01*
X028330Y017622D01*
X028371Y017557D01*
X028416Y017494D01*
X028464Y017433D01*
X028514Y017374D01*
X028567Y017318D01*
X028623Y017265D01*
X028682Y017215D01*
X028743Y017167D01*
X028806Y017122D01*
X028871Y017081D01*
X028939Y017043D01*
X029008Y017008D01*
X029078Y016977D01*
X029150Y016949D01*
X029224Y016925D01*
X029298Y016904D01*
X029374Y016887D01*
X029450Y016874D01*
X029527Y016865D01*
X029604Y016859D01*
X029681Y016857D01*
X029681Y002684D01*
X029682Y002684D02*
X029602Y002678D01*
X029523Y002667D01*
X029444Y002653D01*
X029367Y002635D01*
X029290Y002614D01*
X029214Y002589D01*
X029140Y002560D01*
X029067Y002528D01*
X028995Y002492D01*
X028926Y002453D01*
X028858Y002411D01*
X028793Y002365D01*
X028729Y002317D01*
X028668Y002265D01*
X028610Y002211D01*
X028554Y002154D01*
X028501Y002094D01*
X028451Y002032D01*
X028404Y001968D01*
X028360Y001901D01*
X028319Y001833D01*
X028282Y001762D01*
X028248Y001690D01*
X028217Y001617D01*
X028190Y001541D01*
X028167Y001465D01*
X028147Y001388D01*
X028131Y001310D01*
X028119Y001231D01*
X028110Y001152D01*
X028105Y001072D01*
X028104Y000992D01*
X028107Y000913D01*
X028106Y000912D02*
X005272Y000912D01*
X005272Y001109D01*
X006256Y002094D02*
X006258Y002142D01*
X006264Y002190D01*
X006274Y002237D01*
X006287Y002283D01*
X006305Y002328D01*
X006325Y002372D01*
X006350Y002414D01*
X006378Y002453D01*
X006408Y002490D01*
X006442Y002524D01*
X006479Y002556D01*
X006517Y002585D01*
X006558Y002610D01*
X006601Y002632D01*
X006646Y002650D01*
X006692Y002664D01*
X006739Y002675D01*
X006787Y002682D01*
X006835Y002685D01*
X006883Y002684D01*
X006931Y002679D01*
X006979Y002670D01*
X007025Y002658D01*
X007070Y002641D01*
X007114Y002621D01*
X007156Y002598D01*
X007196Y002571D01*
X007234Y002541D01*
X007269Y002508D01*
X007301Y002472D01*
X007331Y002434D01*
X007357Y002393D01*
X007379Y002350D01*
X007399Y002306D01*
X007414Y002261D01*
X007426Y002214D01*
X007434Y002166D01*
X007438Y002118D01*
X007438Y002070D01*
X007434Y002022D01*
X007426Y001974D01*
X007414Y001927D01*
X007399Y001882D01*
X007379Y001838D01*
X007357Y001795D01*
X007331Y001754D01*
X007301Y001716D01*
X007269Y001680D01*
X007234Y001647D01*
X007196Y001617D01*
X007156Y001590D01*
X007114Y001567D01*
X007070Y001547D01*
X007025Y001530D01*
X006979Y001518D01*
X006931Y001509D01*
X006883Y001504D01*
X006835Y001503D01*
X006787Y001506D01*
X006739Y001513D01*
X006692Y001524D01*
X006646Y001538D01*
X006601Y001556D01*
X006558Y001578D01*
X006517Y001603D01*
X006479Y001632D01*
X006442Y001664D01*
X006408Y001698D01*
X006378Y001735D01*
X006350Y001774D01*
X006325Y001816D01*
X006305Y001860D01*
X006287Y001905D01*
X006274Y001951D01*
X006264Y001998D01*
X006258Y002046D01*
X006256Y002094D01*
X025941Y002094D02*
X025943Y002142D01*
X025949Y002190D01*
X025959Y002237D01*
X025972Y002283D01*
X025990Y002328D01*
X026010Y002372D01*
X026035Y002414D01*
X026063Y002453D01*
X026093Y002490D01*
X026127Y002524D01*
X026164Y002556D01*
X026202Y002585D01*
X026243Y002610D01*
X026286Y002632D01*
X026331Y002650D01*
X026377Y002664D01*
X026424Y002675D01*
X026472Y002682D01*
X026520Y002685D01*
X026568Y002684D01*
X026616Y002679D01*
X026664Y002670D01*
X026710Y002658D01*
X026755Y002641D01*
X026799Y002621D01*
X026841Y002598D01*
X026881Y002571D01*
X026919Y002541D01*
X026954Y002508D01*
X026986Y002472D01*
X027016Y002434D01*
X027042Y002393D01*
X027064Y002350D01*
X027084Y002306D01*
X027099Y002261D01*
X027111Y002214D01*
X027119Y002166D01*
X027123Y002118D01*
X027123Y002070D01*
X027119Y002022D01*
X027111Y001974D01*
X027099Y001927D01*
X027084Y001882D01*
X027064Y001838D01*
X027042Y001795D01*
X027016Y001754D01*
X026986Y001716D01*
X026954Y001680D01*
X026919Y001647D01*
X026881Y001617D01*
X026841Y001590D01*
X026799Y001567D01*
X026755Y001547D01*
X026710Y001530D01*
X026664Y001518D01*
X026616Y001509D01*
X026568Y001504D01*
X026520Y001503D01*
X026472Y001506D01*
X026424Y001513D01*
X026377Y001524D01*
X026331Y001538D01*
X026286Y001556D01*
X026243Y001578D01*
X026202Y001603D01*
X026164Y001632D01*
X026127Y001664D01*
X026093Y001698D01*
X026063Y001735D01*
X026035Y001774D01*
X026010Y001816D01*
X025990Y001860D01*
X025972Y001905D01*
X025959Y001951D01*
X025949Y001998D01*
X025943Y002046D01*
X025941Y002094D01*
X025941Y017448D02*
X025943Y017496D01*
X025949Y017544D01*
X025959Y017591D01*
X025972Y017637D01*
X025990Y017682D01*
X026010Y017726D01*
X026035Y017768D01*
X026063Y017807D01*
X026093Y017844D01*
X026127Y017878D01*
X026164Y017910D01*
X026202Y017939D01*
X026243Y017964D01*
X026286Y017986D01*
X026331Y018004D01*
X026377Y018018D01*
X026424Y018029D01*
X026472Y018036D01*
X026520Y018039D01*
X026568Y018038D01*
X026616Y018033D01*
X026664Y018024D01*
X026710Y018012D01*
X026755Y017995D01*
X026799Y017975D01*
X026841Y017952D01*
X026881Y017925D01*
X026919Y017895D01*
X026954Y017862D01*
X026986Y017826D01*
X027016Y017788D01*
X027042Y017747D01*
X027064Y017704D01*
X027084Y017660D01*
X027099Y017615D01*
X027111Y017568D01*
X027119Y017520D01*
X027123Y017472D01*
X027123Y017424D01*
X027119Y017376D01*
X027111Y017328D01*
X027099Y017281D01*
X027084Y017236D01*
X027064Y017192D01*
X027042Y017149D01*
X027016Y017108D01*
X026986Y017070D01*
X026954Y017034D01*
X026919Y017001D01*
X026881Y016971D01*
X026841Y016944D01*
X026799Y016921D01*
X026755Y016901D01*
X026710Y016884D01*
X026664Y016872D01*
X026616Y016863D01*
X026568Y016858D01*
X026520Y016857D01*
X026472Y016860D01*
X026424Y016867D01*
X026377Y016878D01*
X026331Y016892D01*
X026286Y016910D01*
X026243Y016932D01*
X026202Y016957D01*
X026164Y016986D01*
X026127Y017018D01*
X026093Y017052D01*
X026063Y017089D01*
X026035Y017128D01*
X026010Y017170D01*
X025990Y017214D01*
X025972Y017259D01*
X025959Y017305D01*
X025949Y017352D01*
X025943Y017400D01*
X025941Y017448D01*
X006256Y017448D02*
X006258Y017496D01*
X006264Y017544D01*
X006274Y017591D01*
X006287Y017637D01*
X006305Y017682D01*
X006325Y017726D01*
X006350Y017768D01*
X006378Y017807D01*
X006408Y017844D01*
X006442Y017878D01*
X006479Y017910D01*
X006517Y017939D01*
X006558Y017964D01*
X006601Y017986D01*
X006646Y018004D01*
X006692Y018018D01*
X006739Y018029D01*
X006787Y018036D01*
X006835Y018039D01*
X006883Y018038D01*
X006931Y018033D01*
X006979Y018024D01*
X007025Y018012D01*
X007070Y017995D01*
X007114Y017975D01*
X007156Y017952D01*
X007196Y017925D01*
X007234Y017895D01*
X007269Y017862D01*
X007301Y017826D01*
X007331Y017788D01*
X007357Y017747D01*
X007379Y017704D01*
X007399Y017660D01*
X007414Y017615D01*
X007426Y017568D01*
X007434Y017520D01*
X007438Y017472D01*
X007438Y017424D01*
X007434Y017376D01*
X007426Y017328D01*
X007414Y017281D01*
X007399Y017236D01*
X007379Y017192D01*
X007357Y017149D01*
X007331Y017108D01*
X007301Y017070D01*
X007269Y017034D01*
X007234Y017001D01*
X007196Y016971D01*
X007156Y016944D01*
X007114Y016921D01*
X007070Y016901D01*
X007025Y016884D01*
X006979Y016872D01*
X006931Y016863D01*
X006883Y016858D01*
X006835Y016857D01*
X006787Y016860D01*
X006739Y016867D01*
X006692Y016878D01*
X006646Y016892D01*
X006601Y016910D01*
X006558Y016932D01*
X006517Y016957D01*
X006479Y016986D01*
X006442Y017018D01*
X006408Y017052D01*
X006378Y017089D01*
X006350Y017128D01*
X006325Y017170D01*
X006305Y017214D01*
X006287Y017259D01*
X006274Y017305D01*
X006264Y017352D01*
X006258Y017400D01*
X006256Y017448D01*
D29*
X004268Y011286D03*
X004268Y010243D03*
X004268Y009298D03*
X004268Y008176D03*
D30*
X005351Y009259D03*
X005351Y009515D03*
X005351Y009771D03*
X005351Y010027D03*
X005351Y010282D03*
D31*
X006339Y011412D03*
X006930Y011412D03*
D32*
X006930Y010827D01*
X006969Y010787D01*
X006969Y010162D02*
X008408Y010162D01*
X009063Y009508D01*
X009286Y009730D02*
X008407Y010609D01*
X008407Y010662D01*
X008947Y010537D02*
X008947Y010515D01*
X009508Y009953D01*
X010148Y010316D02*
X010148Y010363D01*
X010148Y010316D02*
X010511Y009953D01*
X010010Y009452D01*
X010010Y009350D01*
X010166Y009194D01*
X008885Y007912D01*
X008180Y008617D01*
X008172Y008617D01*
X007822Y008967D01*
X007822Y008975D01*
X008010Y009225D02*
X007510Y009225D01*
X007052Y008767D01*
X007727Y008171D02*
X008260Y007639D01*
X008260Y007600D01*
X007885Y007600D02*
X007853Y007600D01*
X007504Y007949D01*
X007281Y007726D02*
X006843Y007287D01*
X006635Y007287D01*
X005822Y007162D02*
X005760Y007162D01*
X005822Y007162D02*
X006710Y006274D01*
X007277Y006274D01*
X007504Y006501D01*
X007727Y006278D02*
X008216Y006768D01*
X008572Y006412D01*
X008635Y006412D01*
X008216Y006768D02*
X008885Y007436D01*
X008885Y007912D01*
X008385Y007975D02*
X008369Y007975D01*
X007949Y008394D01*
X008395Y008840D02*
X008010Y009225D01*
X008525Y009600D02*
X006969Y009600D01*
X006300Y009600D02*
X005947Y009600D01*
X005776Y009771D01*
X005351Y009771D01*
X005351Y010027D02*
X005811Y010027D01*
X005947Y010162D01*
X006300Y010162D01*
X006237Y010725D02*
X005322Y010725D01*
X005322Y012229D01*
X005322Y012287D01*
X005322Y013095D02*
X005014Y013095D01*
X004572Y013537D01*
X004572Y013759D01*
X004600Y013787D01*
X004697Y013787D01*
X004711Y013802D01*
X005072Y013802D01*
X005419Y014149D01*
X005419Y014787D01*
X004572Y014940D02*
X004447Y014912D01*
X005913Y015975D02*
X006010Y015975D01*
X005947Y015970D01*
X005951Y015975D01*
X007073Y015975D01*
X007821Y015975D02*
X007823Y015973D01*
X007823Y015225D01*
X007197Y014787D02*
X006600Y014787D01*
X006669Y013850D02*
X006510Y013690D01*
X006669Y013850D02*
X008010Y013850D01*
X008010Y013850D01*
X008719Y013889D02*
X008759Y013850D01*
X008759Y012975D01*
X008010Y012975D02*
X008010Y011975D01*
X008759Y011975D02*
X009862Y011975D01*
X010010Y012122D01*
X010039Y012152D01*
X010039Y013350D01*
X011664Y014975D01*
X016572Y014975D01*
X017135Y014412D01*
X021322Y014412D01*
X021157Y014252D02*
X021227Y014182D01*
X021417Y014182D01*
X021552Y014317D01*
X021552Y014508D01*
X021417Y014642D01*
X021227Y014642D01*
X021157Y014572D01*
X017201Y014572D01*
X016638Y015135D01*
X015635Y015135D01*
X015635Y015784D01*
X016536Y015784D01*
X017225Y015096D01*
X017318Y015002D01*
X023131Y015002D01*
X024162Y013971D01*
X024162Y012328D01*
X024092Y012258D01*
X024092Y012067D01*
X024162Y011997D01*
X024162Y009515D01*
X024092Y009445D01*
X024092Y009255D01*
X024227Y009120D01*
X024417Y009120D01*
X024552Y009255D01*
X024552Y009445D01*
X024482Y009515D01*
X024482Y011997D01*
X024552Y012067D01*
X024552Y012258D01*
X024482Y012328D01*
X024482Y014104D01*
X024388Y014197D01*
X023263Y015322D01*
X018120Y015322D01*
X018177Y015380D01*
X018177Y015570D01*
X018042Y015705D01*
X017943Y015705D01*
X016785Y016863D01*
X015635Y016863D01*
X015635Y018479D01*
X027956Y018479D01*
X027956Y018205D01*
X028074Y017766D01*
X028301Y017373D01*
X028622Y017052D01*
X028622Y017052D01*
X029016Y016825D01*
X029454Y016707D01*
X029531Y016707D01*
X029531Y011190D01*
X029515Y011217D01*
X029461Y011288D01*
X029399Y011350D01*
X029329Y011404D01*
X029252Y011448D01*
X029170Y011482D01*
X029085Y011505D01*
X029003Y011516D01*
X029003Y010892D01*
X028903Y010892D01*
X028903Y011516D01*
X028821Y011505D01*
X028735Y011482D01*
X028654Y011448D01*
X028577Y011404D01*
X028507Y011350D01*
X028444Y011288D01*
X028390Y011217D01*
X028346Y011141D01*
X028312Y011059D01*
X028289Y010973D01*
X028279Y010891D01*
X028903Y010891D01*
X028903Y010791D01*
X029003Y010791D01*
X029003Y010167D01*
X029085Y010178D01*
X029170Y010201D01*
X029252Y010235D01*
X029329Y010279D01*
X029399Y010333D01*
X029461Y010395D01*
X029515Y010466D01*
X029531Y010493D01*
X029531Y009182D01*
X029515Y009210D01*
X029461Y009280D01*
X029399Y009342D01*
X029329Y009396D01*
X029252Y009440D01*
X029170Y009474D01*
X029085Y009497D01*
X029003Y009508D01*
X029003Y008884D01*
X028903Y008884D01*
X028903Y009508D01*
X028821Y009497D01*
X028735Y009474D01*
X028654Y009440D01*
X028577Y009396D01*
X028507Y009342D01*
X028444Y009280D01*
X028390Y009210D01*
X028346Y009133D01*
X028312Y009051D01*
X028289Y008966D01*
X028279Y008884D01*
X028903Y008884D01*
X028903Y008784D01*
X028279Y008784D01*
X028289Y008702D01*
X028312Y008616D01*
X028346Y008535D01*
X028390Y008458D01*
X028444Y008388D01*
X028507Y008325D01*
X028577Y008271D01*
X028654Y008227D01*
X028735Y008193D01*
X028821Y008170D01*
X028903Y008159D01*
X028903Y008784D01*
X029003Y008784D01*
X029003Y008159D01*
X029085Y008170D01*
X029170Y008193D01*
X029252Y008227D01*
X029329Y008271D01*
X029399Y008325D01*
X029461Y008388D01*
X029515Y008458D01*
X029531Y008485D01*
X029531Y002825D01*
X029432Y002820D01*
X028976Y002668D01*
X028575Y002404D01*
X028575Y002404D01*
X028255Y002044D01*
X028040Y001615D01*
X028040Y001615D01*
X027943Y001144D01*
X027943Y001144D01*
X027947Y001062D01*
X015635Y001062D01*
X015635Y002127D01*
X016451Y002127D01*
X016545Y002221D01*
X018920Y004596D01*
X018920Y009122D01*
X018990Y009192D01*
X018990Y009383D01*
X018855Y009517D01*
X018664Y009517D01*
X018567Y009420D01*
X018567Y009523D01*
X018649Y009523D01*
X018714Y009588D01*
X018714Y010112D01*
X018649Y010176D01*
X018164Y010176D01*
X018100Y010112D01*
X018100Y009588D01*
X018164Y009523D01*
X018247Y009523D01*
X018247Y004938D01*
X016201Y002892D01*
X016102Y002892D01*
X015967Y002758D01*
X015967Y002567D01*
X016087Y002447D01*
X015635Y002447D01*
X015635Y005127D01*
X016638Y005127D01*
X017326Y005815D01*
X017420Y005909D01*
X017420Y007122D01*
X017490Y007192D01*
X017490Y007383D01*
X017420Y007453D01*
X017420Y009306D01*
X017637Y009523D01*
X017980Y009523D01*
X018044Y009588D01*
X018044Y010112D01*
X017980Y010176D01*
X017897Y010176D01*
X017897Y010961D01*
X018167Y010961D01*
X018232Y011025D01*
X018232Y011550D01*
X018167Y011614D01*
X017682Y011614D01*
X017618Y011550D01*
X017618Y011207D01*
X017577Y011166D01*
X017577Y010176D01*
X017495Y010176D01*
X017431Y010112D01*
X017431Y009769D01*
X017100Y009438D01*
X017100Y007453D01*
X017030Y007383D01*
X017030Y007192D01*
X017100Y007122D01*
X017100Y006041D01*
X016506Y005447D01*
X015635Y005447D01*
X015635Y011902D01*
X016110Y012377D01*
X019407Y012377D01*
X019462Y012322D01*
X017568Y012322D01*
X017475Y012229D01*
X016670Y011424D01*
X016670Y011497D01*
X016740Y011567D01*
X016740Y011758D01*
X016605Y011892D01*
X016414Y011892D01*
X016280Y011758D01*
X016280Y011567D01*
X016350Y011497D01*
X016350Y009096D01*
X016405Y009041D01*
X016405Y008942D01*
X016539Y008807D01*
X016730Y008807D01*
X016865Y008942D01*
X016865Y009133D01*
X016730Y009267D01*
X016670Y009267D01*
X016670Y009620D01*
X016855Y009620D01*
X016990Y009755D01*
X016990Y009945D01*
X016920Y010015D01*
X016920Y011221D01*
X017701Y012002D01*
X020763Y012002D01*
X020818Y012057D01*
X020917Y012057D01*
X020987Y012127D01*
X021556Y012127D01*
X021556Y012088D01*
X021620Y012023D01*
X022105Y012023D01*
X022169Y012088D01*
X022169Y012612D01*
X022105Y012676D01*
X021620Y012676D01*
X021556Y012612D01*
X021556Y012447D01*
X020987Y012447D01*
X020917Y012517D01*
X020727Y012517D01*
X020592Y012383D01*
X020592Y012322D01*
X019682Y012322D01*
X019802Y012442D01*
X019802Y012633D01*
X019667Y012767D01*
X019477Y012767D01*
X019407Y012697D01*
X015978Y012697D01*
X015884Y012604D01*
X015635Y012354D01*
X015635Y014815D01*
X016506Y014815D01*
X016975Y014346D01*
X017068Y014252D01*
X021157Y014252D01*
X021199Y014210D02*
X015635Y014210D01*
X015635Y014308D02*
X017012Y014308D01*
X016914Y014407D02*
X015635Y014407D01*
X015635Y014505D02*
X016815Y014505D01*
X016717Y014604D02*
X015635Y014604D01*
X015635Y014702D02*
X016618Y014702D01*
X016520Y014801D02*
X015635Y014801D01*
X015635Y015195D02*
X017126Y015195D01*
X017224Y015096D02*
X016677Y015096D01*
X016775Y014998D02*
X023135Y014998D01*
X023234Y014899D02*
X016874Y014899D01*
X016972Y014801D02*
X023332Y014801D01*
X023431Y014702D02*
X017071Y014702D01*
X017169Y014604D02*
X021188Y014604D01*
X021456Y014604D02*
X023529Y014604D01*
X023628Y014505D02*
X021552Y014505D01*
X021552Y014407D02*
X023726Y014407D01*
X023825Y014308D02*
X021543Y014308D01*
X021445Y014210D02*
X023923Y014210D01*
X024022Y014111D02*
X015635Y014111D01*
X015635Y014013D02*
X024120Y014013D01*
X024162Y013914D02*
X015635Y013914D01*
X015635Y013816D02*
X024162Y013816D01*
X024162Y013717D02*
X015635Y013717D01*
X015635Y013619D02*
X024162Y013619D01*
X024162Y013520D02*
X015635Y013520D01*
X015635Y013422D02*
X024162Y013422D01*
X024162Y013323D02*
X015635Y013323D01*
X015635Y013225D02*
X024162Y013225D01*
X024162Y013126D02*
X015635Y013126D01*
X015635Y013028D02*
X024162Y013028D01*
X024162Y012929D02*
X015635Y012929D01*
X015635Y012831D02*
X024162Y012831D01*
X024162Y012732D02*
X019702Y012732D01*
X019801Y012634D02*
X021577Y012634D01*
X021556Y012535D02*
X019802Y012535D01*
X019797Y012437D02*
X020646Y012437D01*
X020592Y012338D02*
X019698Y012338D01*
X019572Y012537D02*
X016044Y012537D01*
X014822Y011315D01*
X013510Y011315D01*
X012197Y011315D01*
X012169Y011287D01*
X011947Y011287D01*
X012507Y012412D02*
X013425Y012412D01*
X013425Y013037D01*
X013385Y013078D01*
X013385Y013747D02*
X014737Y013747D01*
X015260Y013225D01*
X015635Y012732D02*
X019442Y012732D01*
X019446Y012338D02*
X016071Y012338D01*
X015973Y012240D02*
X017486Y012240D01*
X017387Y012141D02*
X015874Y012141D01*
X015776Y012043D02*
X017289Y012043D01*
X017190Y011944D02*
X015677Y011944D01*
X015635Y011846D02*
X016368Y011846D01*
X016280Y011747D02*
X015635Y011747D01*
X015635Y011649D02*
X016280Y011649D01*
X016296Y011550D02*
X015635Y011550D01*
X015635Y011452D02*
X016350Y011452D01*
X016350Y011353D02*
X015635Y011353D01*
X015635Y011255D02*
X016350Y011255D01*
X016350Y011156D02*
X015635Y011156D01*
X015635Y011058D02*
X016350Y011058D01*
X016350Y010959D02*
X015635Y010959D01*
X015635Y010861D02*
X016350Y010861D01*
X016350Y010762D02*
X015635Y010762D01*
X015635Y010664D02*
X016350Y010664D01*
X016350Y010565D02*
X015635Y010565D01*
X015635Y010467D02*
X016350Y010467D01*
X016350Y010368D02*
X015635Y010368D01*
X015635Y010270D02*
X016350Y010270D01*
X016350Y010171D02*
X015635Y010171D01*
X015635Y010073D02*
X016350Y010073D01*
X016350Y009974D02*
X015635Y009974D01*
X015635Y009876D02*
X016350Y009876D01*
X016350Y009777D02*
X015635Y009777D01*
X015635Y009679D02*
X016350Y009679D01*
X016350Y009580D02*
X015635Y009580D01*
X015635Y009482D02*
X016350Y009482D01*
X016350Y009383D02*
X015635Y009383D01*
X015635Y009285D02*
X016350Y009285D01*
X016350Y009186D02*
X015635Y009186D01*
X015635Y009088D02*
X016358Y009088D01*
X016405Y008989D02*
X015635Y008989D01*
X015635Y008891D02*
X016456Y008891D01*
X016635Y009037D02*
X016510Y009162D01*
X016510Y011662D01*
X016740Y011649D02*
X016895Y011649D01*
X016993Y011747D02*
X016740Y011747D01*
X016651Y011846D02*
X017092Y011846D01*
X017347Y011649D02*
X022245Y011649D01*
X022245Y011747D02*
X017446Y011747D01*
X017544Y011846D02*
X022289Y011846D01*
X022310Y011866D02*
X022245Y011802D01*
X022245Y011317D01*
X022310Y011253D01*
X022834Y011253D01*
X022899Y011317D01*
X022899Y011802D01*
X022834Y011866D01*
X022732Y011866D01*
X022732Y012023D01*
X022774Y012023D01*
X022839Y012088D01*
X022839Y012612D01*
X022774Y012676D01*
X022289Y012676D01*
X022225Y012612D01*
X022225Y012088D01*
X022289Y012023D01*
X022412Y012023D01*
X022412Y011866D01*
X022310Y011866D01*
X022412Y011944D02*
X017643Y011944D01*
X017635Y012162D02*
X020697Y012162D01*
X020822Y012287D01*
X021800Y012287D01*
X021862Y012350D01*
X022169Y012338D02*
X022225Y012338D01*
X022225Y012240D02*
X022169Y012240D01*
X022169Y012141D02*
X022225Y012141D01*
X022270Y012043D02*
X022124Y012043D01*
X022532Y012350D02*
X022572Y012310D01*
X022572Y011560D01*
X022245Y011550D02*
X018900Y011550D01*
X018901Y011550D02*
X018837Y011614D01*
X018352Y011614D01*
X018287Y011550D01*
X018287Y011025D01*
X018352Y010961D01*
X018837Y010961D01*
X018901Y011025D01*
X018901Y011550D01*
X018901Y011452D02*
X022245Y011452D01*
X022245Y011353D02*
X018901Y011353D01*
X018901Y011255D02*
X022308Y011255D01*
X022310Y011197D02*
X022245Y011133D01*
X022245Y010790D01*
X021859Y010403D01*
X021859Y010403D01*
X021765Y010309D01*
X021765Y010114D01*
X021682Y010114D01*
X021618Y010050D01*
X021618Y009907D01*
X021024Y009907D01*
X021024Y009989D01*
X020959Y010054D01*
X020435Y010054D01*
X020370Y009989D01*
X020370Y009505D01*
X020435Y009440D01*
X020959Y009440D01*
X021024Y009505D01*
X021024Y009587D01*
X021618Y009587D01*
X021618Y009525D01*
X021682Y009461D01*
X021725Y009461D01*
X021725Y009179D01*
X021685Y009179D01*
X021620Y009114D01*
X021620Y008630D01*
X021685Y008565D01*
X022209Y008565D01*
X022274Y008630D01*
X022274Y009114D01*
X022209Y009179D01*
X022045Y009179D01*
X022045Y009461D01*
X022167Y009461D01*
X022232Y009525D01*
X022232Y010050D01*
X022167Y010114D01*
X022085Y010114D01*
X022085Y010177D01*
X022491Y010583D01*
X022834Y010583D01*
X022899Y010648D01*
X022899Y011133D01*
X022834Y011197D01*
X022310Y011197D01*
X022269Y011156D02*
X018901Y011156D01*
X018901Y011058D02*
X022245Y011058D01*
X022245Y010959D02*
X017897Y010959D01*
X017897Y010861D02*
X022245Y010861D01*
X022218Y010762D02*
X017897Y010762D01*
X017897Y010664D02*
X022119Y010664D01*
X022021Y010565D02*
X017897Y010565D01*
X017897Y010467D02*
X021922Y010467D01*
X021824Y010368D02*
X017897Y010368D01*
X017897Y010270D02*
X021765Y010270D01*
X021765Y010171D02*
X018654Y010171D01*
X018714Y010073D02*
X021641Y010073D01*
X021618Y009974D02*
X021024Y009974D01*
X020697Y009747D02*
X021885Y009747D01*
X021925Y009787D01*
X021925Y010243D01*
X022572Y010890D01*
X022899Y010861D02*
X024162Y010861D01*
X024162Y010959D02*
X022899Y010959D01*
X022899Y011058D02*
X024162Y011058D01*
X024162Y011156D02*
X022875Y011156D01*
X022836Y011255D02*
X024162Y011255D01*
X024162Y011353D02*
X022899Y011353D01*
X022899Y011452D02*
X024162Y011452D01*
X024162Y011550D02*
X022899Y011550D01*
X022899Y011649D02*
X024162Y011649D01*
X024162Y011747D02*
X022899Y011747D01*
X022855Y011846D02*
X024162Y011846D01*
X024162Y011944D02*
X022732Y011944D01*
X022794Y012043D02*
X024116Y012043D01*
X024092Y012141D02*
X022839Y012141D01*
X022839Y012240D02*
X024092Y012240D01*
X024162Y012338D02*
X022839Y012338D01*
X022839Y012437D02*
X024162Y012437D01*
X024162Y012535D02*
X022839Y012535D01*
X022817Y012634D02*
X024162Y012634D01*
X024482Y012634D02*
X029531Y012634D01*
X029531Y012732D02*
X024482Y012732D01*
X024482Y012831D02*
X029531Y012831D01*
X029531Y012929D02*
X024482Y012929D01*
X024482Y013028D02*
X029531Y013028D01*
X029531Y013126D02*
X024482Y013126D01*
X024482Y013225D02*
X029531Y013225D01*
X029531Y013323D02*
X024482Y013323D01*
X024482Y013422D02*
X029531Y013422D01*
X029531Y013520D02*
X024482Y013520D01*
X024482Y013619D02*
X029531Y013619D01*
X029531Y013717D02*
X024482Y013717D01*
X024482Y013816D02*
X029531Y013816D01*
X029531Y013914D02*
X024482Y013914D01*
X024482Y014013D02*
X029531Y014013D01*
X029531Y014111D02*
X024474Y014111D01*
X024376Y014210D02*
X029531Y014210D01*
X029531Y014308D02*
X024277Y014308D01*
X024179Y014407D02*
X029531Y014407D01*
X029531Y014505D02*
X024080Y014505D01*
X023982Y014604D02*
X029531Y014604D01*
X029531Y014702D02*
X023883Y014702D01*
X023785Y014801D02*
X029531Y014801D01*
X029531Y014899D02*
X023686Y014899D01*
X023588Y014998D02*
X029531Y014998D01*
X029531Y015096D02*
X023489Y015096D01*
X023391Y015195D02*
X029531Y015195D01*
X029531Y015293D02*
X023292Y015293D01*
X023197Y015162D02*
X024322Y014037D01*
X024322Y012162D01*
X024322Y009350D01*
X024160Y009186D02*
X022045Y009186D01*
X022045Y009285D02*
X024092Y009285D01*
X024092Y009383D02*
X022045Y009383D01*
X022188Y009482D02*
X022331Y009482D01*
X022352Y009461D02*
X022287Y009525D01*
X022287Y010050D01*
X022352Y010114D01*
X022837Y010114D01*
X022901Y010050D01*
X022901Y009525D01*
X022837Y009461D01*
X022352Y009461D01*
X022287Y009580D02*
X022232Y009580D01*
X022232Y009679D02*
X022287Y009679D01*
X022287Y009777D02*
X022232Y009777D01*
X022232Y009876D02*
X022287Y009876D01*
X022287Y009974D02*
X022232Y009974D01*
X022208Y010073D02*
X022311Y010073D01*
X022178Y010270D02*
X024162Y010270D01*
X024162Y010368D02*
X022276Y010368D01*
X022375Y010467D02*
X024162Y010467D01*
X024162Y010565D02*
X022473Y010565D01*
X022085Y010171D02*
X024162Y010171D01*
X024162Y010073D02*
X022878Y010073D01*
X022901Y009974D02*
X024162Y009974D01*
X024162Y009876D02*
X022901Y009876D01*
X022901Y009777D02*
X024162Y009777D01*
X024162Y009679D02*
X022901Y009679D01*
X022901Y009580D02*
X024162Y009580D01*
X024129Y009482D02*
X022858Y009482D01*
X022635Y009787D02*
X022594Y009787D01*
X021885Y009747D02*
X021885Y009725D01*
X021885Y008935D01*
X021947Y008872D01*
X021620Y008891D02*
X021024Y008891D01*
X021024Y008835D02*
X021024Y009320D01*
X020959Y009385D01*
X020435Y009385D01*
X020370Y009320D01*
X020370Y008835D01*
X020435Y008771D01*
X020537Y008771D01*
X020537Y007390D01*
X020467Y007320D01*
X020467Y007130D01*
X020602Y006995D01*
X020792Y006995D01*
X020927Y007130D01*
X020927Y007320D01*
X020857Y007390D01*
X020857Y008771D01*
X020959Y008771D01*
X021024Y008835D01*
X020981Y008792D02*
X021620Y008792D01*
X021620Y008694D02*
X020857Y008694D01*
X020857Y008595D02*
X021655Y008595D01*
X021685Y008510D02*
X021620Y008445D01*
X021620Y008363D01*
X021322Y008363D01*
X021230Y008455D01*
X021039Y008455D01*
X020905Y008320D01*
X020905Y008130D01*
X021039Y007995D01*
X021230Y007995D01*
X021278Y008043D01*
X021620Y008043D01*
X021620Y007960D01*
X021685Y007896D01*
X022209Y007896D01*
X022274Y007960D01*
X022274Y008445D01*
X022209Y008510D01*
X021685Y008510D01*
X021672Y008497D02*
X020857Y008497D01*
X020857Y008398D02*
X020983Y008398D01*
X020905Y008300D02*
X020857Y008300D01*
X020857Y008201D02*
X020905Y008201D01*
X020931Y008103D02*
X020857Y008103D01*
X020857Y008004D02*
X021030Y008004D01*
X020857Y007906D02*
X021675Y007906D01*
X021620Y008004D02*
X021239Y008004D01*
X021157Y008203D02*
X021135Y008225D01*
X021157Y008203D02*
X021947Y008203D01*
X022274Y008201D02*
X026708Y008201D01*
X026728Y008193D02*
X026813Y008170D01*
X026895Y008159D01*
X026895Y008784D01*
X026271Y008784D01*
X026282Y008702D01*
X026305Y008616D01*
X026338Y008535D01*
X026383Y008458D01*
X026437Y008388D01*
X026499Y008325D01*
X026569Y008271D01*
X026646Y008227D01*
X026728Y008193D01*
X026895Y008201D02*
X026995Y008201D01*
X026995Y008159D02*
X027077Y008170D01*
X027163Y008193D01*
X027244Y008227D01*
X027321Y008271D01*
X027391Y008325D01*
X027454Y008388D01*
X027508Y008458D01*
X027552Y008535D01*
X027586Y008616D01*
X027609Y008702D01*
X027619Y008784D01*
X026995Y008784D01*
X026995Y008884D01*
X026895Y008884D01*
X026895Y009508D01*
X026813Y009497D01*
X026728Y009474D01*
X026646Y009440D01*
X026569Y009396D01*
X026499Y009342D01*
X026437Y009280D01*
X026383Y009210D01*
X026338Y009133D01*
X026305Y009051D01*
X026282Y008966D01*
X026271Y008884D01*
X026895Y008884D01*
X026895Y008784D01*
X026995Y008784D01*
X026995Y008159D01*
X026995Y008300D02*
X026895Y008300D01*
X026895Y008398D02*
X026995Y008398D01*
X026995Y008497D02*
X026895Y008497D01*
X026895Y008595D02*
X026995Y008595D01*
X026995Y008694D02*
X026895Y008694D01*
X026895Y008792D02*
X022274Y008792D01*
X022274Y008694D02*
X026284Y008694D01*
X026313Y008595D02*
X022239Y008595D01*
X022222Y008497D02*
X026360Y008497D01*
X026428Y008398D02*
X022274Y008398D01*
X022274Y008300D02*
X026532Y008300D01*
X027182Y008201D02*
X028715Y008201D01*
X028903Y008201D02*
X029003Y008201D01*
X029003Y008300D02*
X028903Y008300D01*
X028903Y008398D02*
X029003Y008398D01*
X029003Y008497D02*
X028903Y008497D01*
X028903Y008595D02*
X029003Y008595D01*
X029003Y008694D02*
X028903Y008694D01*
X028903Y008792D02*
X026995Y008792D01*
X026995Y008884D02*
X027619Y008884D01*
X027609Y008966D01*
X027586Y009051D01*
X027552Y009133D01*
X027508Y009210D01*
X027454Y009280D01*
X027391Y009342D01*
X027321Y009396D01*
X027244Y009440D01*
X027163Y009474D01*
X027077Y009497D01*
X026995Y009508D01*
X026995Y008884D01*
X026995Y008891D02*
X026895Y008891D01*
X026895Y008989D02*
X026995Y008989D01*
X026995Y009088D02*
X026895Y009088D01*
X026895Y009186D02*
X026995Y009186D01*
X026995Y009285D02*
X026895Y009285D01*
X026895Y009383D02*
X026995Y009383D01*
X026995Y009482D02*
X026895Y009482D01*
X026756Y009482D02*
X024515Y009482D01*
X024482Y009580D02*
X027531Y009580D01*
X027538Y009563D02*
X027674Y009426D01*
X027853Y009353D01*
X028045Y009353D01*
X028224Y009426D01*
X028360Y009563D01*
X028434Y009741D01*
X028434Y009934D01*
X028360Y010112D01*
X028224Y010249D01*
X028045Y010323D01*
X027853Y010323D01*
X027674Y010249D01*
X027538Y010112D01*
X027464Y009934D01*
X027464Y009741D01*
X027538Y009563D01*
X027619Y009482D02*
X027134Y009482D01*
X027337Y009383D02*
X027778Y009383D01*
X027521Y009186D02*
X028377Y009186D01*
X028328Y009088D02*
X027570Y009088D01*
X027602Y008989D02*
X028296Y008989D01*
X028280Y008891D02*
X027618Y008891D01*
X027606Y008694D02*
X028292Y008694D01*
X028321Y008595D02*
X027577Y008595D01*
X027530Y008497D02*
X028368Y008497D01*
X028436Y008398D02*
X027462Y008398D01*
X027358Y008300D02*
X028540Y008300D01*
X029190Y008201D02*
X029531Y008201D01*
X029531Y008103D02*
X022274Y008103D01*
X022274Y008004D02*
X029531Y008004D01*
X029531Y007906D02*
X022219Y007906D01*
X021620Y008398D02*
X021286Y008398D01*
X021024Y008989D02*
X021620Y008989D01*
X021620Y009088D02*
X021024Y009088D01*
X021024Y009186D02*
X021725Y009186D01*
X021725Y009285D02*
X021024Y009285D01*
X020960Y009383D02*
X021725Y009383D01*
X021661Y009482D02*
X021001Y009482D01*
X021024Y009580D02*
X021618Y009580D01*
X022274Y009088D02*
X026320Y009088D01*
X026288Y008989D02*
X022274Y008989D01*
X022274Y008891D02*
X026272Y008891D01*
X026369Y009186D02*
X024484Y009186D01*
X024552Y009285D02*
X026442Y009285D01*
X026553Y009383D02*
X024552Y009383D01*
X024482Y009679D02*
X027490Y009679D01*
X027464Y009777D02*
X024482Y009777D01*
X024482Y009876D02*
X027464Y009876D01*
X027481Y009974D02*
X024482Y009974D01*
X024482Y010073D02*
X027521Y010073D01*
X027597Y010171D02*
X027027Y010171D01*
X026995Y010171D02*
X026895Y010171D01*
X026895Y010167D02*
X026895Y010791D01*
X026995Y010791D01*
X026995Y010167D01*
X027077Y010178D01*
X027163Y010201D01*
X027244Y010235D01*
X027321Y010279D01*
X027391Y010333D01*
X027454Y010395D01*
X027508Y010466D01*
X027552Y010542D01*
X027586Y010624D01*
X027609Y010710D01*
X027619Y010791D01*
X026995Y010791D01*
X026995Y010891D01*
X027619Y010891D01*
X027609Y010973D01*
X027586Y011059D01*
X027552Y011141D01*
X027508Y011217D01*
X027454Y011288D01*
X027391Y011350D01*
X027321Y011404D01*
X027244Y011448D01*
X027163Y011482D01*
X027077Y011505D01*
X026995Y011516D01*
X026995Y010892D01*
X026895Y010892D01*
X026895Y011516D01*
X026813Y011505D01*
X026728Y011482D01*
X026646Y011448D01*
X026569Y011404D01*
X026499Y011350D01*
X026437Y011288D01*
X026383Y011217D01*
X026338Y011141D01*
X026305Y011059D01*
X026282Y010973D01*
X026271Y010891D01*
X026895Y010891D01*
X026895Y010791D01*
X026271Y010791D01*
X026282Y010710D01*
X026305Y010624D01*
X026338Y010542D01*
X026383Y010466D01*
X026437Y010395D01*
X026499Y010333D01*
X026569Y010279D01*
X026646Y010235D01*
X026728Y010201D01*
X026813Y010178D01*
X026895Y010167D01*
X026863Y010171D02*
X024482Y010171D01*
X024482Y010270D02*
X026585Y010270D01*
X026464Y010368D02*
X024482Y010368D01*
X024482Y010467D02*
X026382Y010467D01*
X026329Y010565D02*
X024482Y010565D01*
X024482Y010664D02*
X026294Y010664D01*
X026275Y010762D02*
X024482Y010762D01*
X024482Y010861D02*
X026895Y010861D01*
X026895Y010959D02*
X026995Y010959D01*
X026995Y010861D02*
X028903Y010861D01*
X028903Y010791D02*
X028279Y010791D01*
X028289Y010710D01*
X028312Y010624D01*
X028346Y010542D01*
X028390Y010466D01*
X028444Y010395D01*
X028507Y010333D01*
X028577Y010279D01*
X028654Y010235D01*
X028735Y010201D01*
X028821Y010178D01*
X028903Y010167D01*
X028903Y010791D01*
X028903Y010762D02*
X029003Y010762D01*
X029003Y010664D02*
X028903Y010664D01*
X028903Y010565D02*
X029003Y010565D01*
X029003Y010467D02*
X028903Y010467D01*
X028903Y010368D02*
X029003Y010368D01*
X029003Y010270D02*
X028903Y010270D01*
X028903Y010171D02*
X029003Y010171D01*
X029035Y010171D02*
X029531Y010171D01*
X029531Y010073D02*
X028376Y010073D01*
X028417Y009974D02*
X029531Y009974D01*
X029531Y009876D02*
X028434Y009876D01*
X028434Y009777D02*
X029531Y009777D01*
X029531Y009679D02*
X028408Y009679D01*
X028367Y009580D02*
X029531Y009580D01*
X029531Y009482D02*
X029142Y009482D01*
X029003Y009482D02*
X028903Y009482D01*
X028903Y009383D02*
X029003Y009383D01*
X029003Y009285D02*
X028903Y009285D01*
X028903Y009186D02*
X029003Y009186D01*
X029003Y009088D02*
X028903Y009088D01*
X028903Y008989D02*
X029003Y008989D01*
X029003Y008891D02*
X028903Y008891D01*
X028560Y009383D02*
X028120Y009383D01*
X028279Y009482D02*
X028764Y009482D01*
X028450Y009285D02*
X027448Y009285D01*
X027305Y010270D02*
X027725Y010270D01*
X027508Y010467D02*
X028390Y010467D01*
X028337Y010565D02*
X027561Y010565D01*
X027596Y010664D02*
X028302Y010664D01*
X028282Y010762D02*
X027615Y010762D01*
X027610Y010959D02*
X028288Y010959D01*
X028312Y011058D02*
X027586Y011058D01*
X027543Y011156D02*
X028355Y011156D01*
X028419Y011255D02*
X027479Y011255D01*
X027387Y011353D02*
X028511Y011353D01*
X028663Y011452D02*
X027235Y011452D01*
X026995Y011452D02*
X026895Y011452D01*
X026895Y011353D02*
X026995Y011353D01*
X026995Y011255D02*
X026895Y011255D01*
X026895Y011156D02*
X026995Y011156D01*
X026995Y011058D02*
X026895Y011058D01*
X026655Y011452D02*
X024482Y011452D01*
X024482Y011550D02*
X029531Y011550D01*
X029531Y011452D02*
X029243Y011452D01*
X029395Y011353D02*
X029531Y011353D01*
X029531Y011255D02*
X029486Y011255D01*
X029531Y011649D02*
X024482Y011649D01*
X024482Y011747D02*
X029531Y011747D01*
X029531Y011846D02*
X024482Y011846D01*
X024482Y011944D02*
X029531Y011944D01*
X029531Y012043D02*
X024528Y012043D01*
X024552Y012141D02*
X029531Y012141D01*
X029531Y012240D02*
X024552Y012240D01*
X024482Y012338D02*
X029531Y012338D01*
X029531Y012437D02*
X024482Y012437D01*
X024482Y012535D02*
X029531Y012535D01*
X029003Y011452D02*
X028903Y011452D01*
X028903Y011353D02*
X029003Y011353D01*
X029003Y011255D02*
X028903Y011255D01*
X028903Y011156D02*
X029003Y011156D01*
X029003Y011058D02*
X028903Y011058D01*
X028903Y010959D02*
X029003Y010959D01*
X029516Y010467D02*
X029531Y010467D01*
X029531Y010368D02*
X029434Y010368D01*
X029531Y010270D02*
X029313Y010270D01*
X028871Y010171D02*
X028301Y010171D01*
X028173Y010270D02*
X028593Y010270D01*
X028471Y010368D02*
X027427Y010368D01*
X026995Y010368D02*
X026895Y010368D01*
X026895Y010270D02*
X026995Y010270D01*
X026995Y010467D02*
X026895Y010467D01*
X026895Y010565D02*
X026995Y010565D01*
X026995Y010664D02*
X026895Y010664D01*
X026895Y010762D02*
X026995Y010762D01*
X026280Y010959D02*
X024482Y010959D01*
X024482Y011058D02*
X026304Y011058D01*
X026347Y011156D02*
X024482Y011156D01*
X024482Y011255D02*
X026412Y011255D01*
X026503Y011353D02*
X024482Y011353D01*
X024162Y010762D02*
X022899Y010762D01*
X022899Y010664D02*
X024162Y010664D01*
X022532Y012350D02*
X022572Y012390D01*
X022572Y012412D01*
X022225Y012437D02*
X022169Y012437D01*
X022169Y012535D02*
X022225Y012535D01*
X022247Y012634D02*
X022147Y012634D01*
X021600Y012043D02*
X020804Y012043D01*
X018635Y011247D02*
X018594Y011287D01*
X018635Y011247D02*
X018635Y011225D01*
X018287Y011255D02*
X018232Y011255D01*
X018232Y011353D02*
X018287Y011353D01*
X018287Y011452D02*
X018232Y011452D01*
X018231Y011550D02*
X018288Y011550D01*
X018287Y011156D02*
X018232Y011156D01*
X018232Y011058D02*
X018287Y011058D01*
X017925Y011287D02*
X017885Y011287D01*
X017925Y011287D02*
X017737Y011100D01*
X017737Y009850D01*
X017260Y009372D01*
X017260Y007287D01*
X017260Y005975D01*
X016572Y005287D01*
X014135Y005287D01*
X014072Y005225D01*
X014072Y001662D01*
X014885Y002287D02*
X014572Y002600D01*
X014885Y002287D02*
X016385Y002287D01*
X018760Y004662D01*
X018760Y009287D01*
X018990Y009285D02*
X020370Y009285D01*
X020370Y009186D02*
X018984Y009186D01*
X018920Y009088D02*
X020370Y009088D01*
X020370Y008989D02*
X018920Y008989D01*
X018920Y008891D02*
X020370Y008891D01*
X020413Y008792D02*
X018920Y008792D01*
X018920Y008694D02*
X020537Y008694D01*
X020537Y008595D02*
X018920Y008595D01*
X018920Y008497D02*
X020537Y008497D01*
X020537Y008398D02*
X018920Y008398D01*
X018920Y008300D02*
X020537Y008300D01*
X020537Y008201D02*
X018920Y008201D01*
X018920Y008103D02*
X020537Y008103D01*
X020537Y008004D02*
X018920Y008004D01*
X018920Y007906D02*
X020537Y007906D01*
X020537Y007807D02*
X018920Y007807D01*
X018920Y007709D02*
X020537Y007709D01*
X020537Y007610D02*
X018920Y007610D01*
X018920Y007512D02*
X020537Y007512D01*
X020537Y007413D02*
X018920Y007413D01*
X018920Y007315D02*
X020467Y007315D01*
X020467Y007216D02*
X018920Y007216D01*
X018920Y007118D02*
X020479Y007118D01*
X020577Y007019D02*
X018920Y007019D01*
X018920Y006921D02*
X029531Y006921D01*
X029531Y007019D02*
X020817Y007019D01*
X020915Y007118D02*
X029531Y007118D01*
X029531Y007216D02*
X020927Y007216D01*
X020927Y007315D02*
X029531Y007315D01*
X029531Y007413D02*
X020857Y007413D01*
X020857Y007512D02*
X029531Y007512D01*
X029531Y007610D02*
X020857Y007610D01*
X020857Y007709D02*
X029531Y007709D01*
X029531Y007807D02*
X020857Y007807D01*
X020697Y007225D02*
X020697Y009078D01*
X020434Y009383D02*
X018989Y009383D01*
X018890Y009482D02*
X020393Y009482D01*
X020370Y009580D02*
X018706Y009580D01*
X018714Y009679D02*
X020370Y009679D01*
X020370Y009777D02*
X018714Y009777D01*
X018714Y009876D02*
X020370Y009876D01*
X020370Y009974D02*
X018714Y009974D01*
X018407Y009850D02*
X018385Y009872D01*
X018385Y009912D01*
X018407Y009850D02*
X018407Y004872D01*
X016197Y002662D01*
X016046Y002488D02*
X015635Y002488D01*
X015635Y002587D02*
X015967Y002587D01*
X015967Y002685D02*
X015635Y002685D01*
X015635Y002784D02*
X015993Y002784D01*
X016092Y002882D02*
X015635Y002882D01*
X015635Y002981D02*
X016289Y002981D01*
X016388Y003079D02*
X015635Y003079D01*
X015635Y003178D02*
X016486Y003178D01*
X016585Y003276D02*
X015635Y003276D01*
X015635Y003375D02*
X016683Y003375D01*
X016782Y003473D02*
X015635Y003473D01*
X015635Y003572D02*
X016880Y003572D01*
X016979Y003670D02*
X015635Y003670D01*
X015635Y003769D02*
X017077Y003769D01*
X017176Y003867D02*
X015635Y003867D01*
X015635Y003966D02*
X017274Y003966D01*
X017373Y004064D02*
X015635Y004064D01*
X015635Y004163D02*
X017471Y004163D01*
X017570Y004261D02*
X015635Y004261D01*
X015635Y004360D02*
X017668Y004360D01*
X017767Y004458D02*
X015635Y004458D01*
X015635Y004557D02*
X017865Y004557D01*
X017964Y004655D02*
X015635Y004655D01*
X015635Y004754D02*
X018062Y004754D01*
X018161Y004852D02*
X015635Y004852D01*
X015635Y004951D02*
X018247Y004951D01*
X018247Y005049D02*
X015635Y005049D01*
X015635Y005542D02*
X016600Y005542D01*
X016699Y005640D02*
X015635Y005640D01*
X015635Y005739D02*
X016797Y005739D01*
X016896Y005837D02*
X015635Y005837D01*
X015635Y005936D02*
X016994Y005936D01*
X017093Y006034D02*
X015635Y006034D01*
X015635Y006133D02*
X017100Y006133D01*
X017100Y006231D02*
X015635Y006231D01*
X015635Y006330D02*
X017100Y006330D01*
X017100Y006428D02*
X015635Y006428D01*
X015635Y006527D02*
X017100Y006527D01*
X017100Y006625D02*
X015635Y006625D01*
X015635Y006724D02*
X017100Y006724D01*
X017100Y006822D02*
X015635Y006822D01*
X015635Y006921D02*
X017100Y006921D01*
X017100Y007019D02*
X015635Y007019D01*
X015635Y007118D02*
X017100Y007118D01*
X017030Y007216D02*
X015635Y007216D01*
X015635Y007315D02*
X017030Y007315D01*
X017060Y007413D02*
X015635Y007413D01*
X015635Y007512D02*
X017100Y007512D01*
X017100Y007610D02*
X015635Y007610D01*
X015635Y007709D02*
X017100Y007709D01*
X017100Y007807D02*
X015635Y007807D01*
X015635Y007906D02*
X017100Y007906D01*
X017100Y008004D02*
X015635Y008004D01*
X015635Y008103D02*
X017100Y008103D01*
X017100Y008201D02*
X015635Y008201D01*
X015635Y008300D02*
X017100Y008300D01*
X017100Y008398D02*
X015635Y008398D01*
X015635Y008497D02*
X017100Y008497D01*
X017100Y008595D02*
X015635Y008595D01*
X015635Y008694D02*
X017100Y008694D01*
X017100Y008792D02*
X015635Y008792D01*
X016670Y009285D02*
X017100Y009285D01*
X017100Y009383D02*
X016670Y009383D01*
X016670Y009482D02*
X017143Y009482D01*
X017242Y009580D02*
X016670Y009580D01*
X016914Y009679D02*
X017340Y009679D01*
X017431Y009777D02*
X016990Y009777D01*
X016990Y009876D02*
X017431Y009876D01*
X017431Y009974D02*
X016960Y009974D01*
X016920Y010073D02*
X017431Y010073D01*
X017490Y010171D02*
X016920Y010171D01*
X016920Y010270D02*
X017577Y010270D01*
X017577Y010368D02*
X016920Y010368D01*
X016920Y010467D02*
X017577Y010467D01*
X017577Y010565D02*
X016920Y010565D01*
X016920Y010664D02*
X017577Y010664D01*
X017577Y010762D02*
X016920Y010762D01*
X016920Y010861D02*
X017577Y010861D01*
X017577Y010959D02*
X016920Y010959D01*
X016920Y011058D02*
X017577Y011058D01*
X017577Y011156D02*
X016920Y011156D01*
X016953Y011255D02*
X017618Y011255D01*
X017618Y011353D02*
X017052Y011353D01*
X017150Y011452D02*
X017618Y011452D01*
X017619Y011550D02*
X017249Y011550D01*
X016796Y011550D02*
X016723Y011550D01*
X016698Y011452D02*
X016670Y011452D01*
X016760Y011287D02*
X017635Y012162D01*
X016760Y011287D02*
X016760Y009850D01*
X017420Y009285D02*
X018247Y009285D01*
X018247Y009383D02*
X017497Y009383D01*
X017596Y009482D02*
X018247Y009482D01*
X018107Y009580D02*
X018037Y009580D01*
X018044Y009679D02*
X018100Y009679D01*
X018100Y009777D02*
X018044Y009777D01*
X018044Y009876D02*
X018100Y009876D01*
X018100Y009974D02*
X018044Y009974D01*
X018044Y010073D02*
X018100Y010073D01*
X018159Y010171D02*
X017985Y010171D01*
X018567Y009482D02*
X018629Y009482D01*
X018247Y009186D02*
X017420Y009186D01*
X017420Y009088D02*
X018247Y009088D01*
X018247Y008989D02*
X017420Y008989D01*
X017420Y008891D02*
X018247Y008891D01*
X018247Y008792D02*
X017420Y008792D01*
X017420Y008694D02*
X018247Y008694D01*
X018247Y008595D02*
X017420Y008595D01*
X017420Y008497D02*
X018247Y008497D01*
X018247Y008398D02*
X017420Y008398D01*
X017420Y008300D02*
X018247Y008300D01*
X018247Y008201D02*
X017420Y008201D01*
X017420Y008103D02*
X018247Y008103D01*
X018247Y008004D02*
X017420Y008004D01*
X017420Y007906D02*
X018247Y007906D01*
X018247Y007807D02*
X017420Y007807D01*
X017420Y007709D02*
X018247Y007709D01*
X018247Y007610D02*
X017420Y007610D01*
X017420Y007512D02*
X018247Y007512D01*
X018247Y007413D02*
X017459Y007413D01*
X017490Y007315D02*
X018247Y007315D01*
X018247Y007216D02*
X017490Y007216D01*
X017420Y007118D02*
X018247Y007118D01*
X018247Y007019D02*
X017420Y007019D01*
X017420Y006921D02*
X018247Y006921D01*
X018247Y006822D02*
X017420Y006822D01*
X017420Y006724D02*
X018247Y006724D01*
X018247Y006625D02*
X017420Y006625D01*
X017420Y006527D02*
X018247Y006527D01*
X018247Y006428D02*
X017420Y006428D01*
X017420Y006330D02*
X018247Y006330D01*
X018247Y006231D02*
X017420Y006231D01*
X017420Y006133D02*
X018247Y006133D01*
X018247Y006034D02*
X017420Y006034D01*
X017420Y005936D02*
X018247Y005936D01*
X018247Y005837D02*
X017348Y005837D01*
X017250Y005739D02*
X018247Y005739D01*
X018247Y005640D02*
X017151Y005640D01*
X017053Y005542D02*
X018247Y005542D01*
X018247Y005443D02*
X016954Y005443D01*
X016856Y005345D02*
X018247Y005345D01*
X018247Y005246D02*
X016757Y005246D01*
X016659Y005148D02*
X018247Y005148D01*
X018920Y005148D02*
X029531Y005148D01*
X029531Y005246D02*
X018920Y005246D01*
X018920Y005345D02*
X029531Y005345D01*
X029531Y005443D02*
X018920Y005443D01*
X018920Y005542D02*
X029531Y005542D01*
X029531Y005640D02*
X018920Y005640D01*
X018920Y005739D02*
X029531Y005739D01*
X029531Y005837D02*
X018920Y005837D01*
X018920Y005936D02*
X029531Y005936D01*
X029531Y006034D02*
X018920Y006034D01*
X018920Y006133D02*
X029531Y006133D01*
X029531Y006231D02*
X018920Y006231D01*
X018920Y006330D02*
X029531Y006330D01*
X029531Y006428D02*
X018920Y006428D01*
X018920Y006527D02*
X029531Y006527D01*
X029531Y006625D02*
X018920Y006625D01*
X018920Y006724D02*
X029531Y006724D01*
X029531Y006822D02*
X018920Y006822D01*
X018920Y005049D02*
X029531Y005049D01*
X029531Y004951D02*
X018920Y004951D01*
X018920Y004852D02*
X029531Y004852D01*
X029531Y004754D02*
X018920Y004754D01*
X018920Y004655D02*
X029531Y004655D01*
X029531Y004557D02*
X018880Y004557D01*
X018782Y004458D02*
X029531Y004458D01*
X029531Y004360D02*
X018683Y004360D01*
X018585Y004261D02*
X029531Y004261D01*
X029531Y004163D02*
X018486Y004163D01*
X018388Y004064D02*
X029531Y004064D01*
X029531Y003966D02*
X018289Y003966D01*
X018191Y003867D02*
X029531Y003867D01*
X029531Y003769D02*
X018092Y003769D01*
X017994Y003670D02*
X029531Y003670D01*
X029531Y003572D02*
X017895Y003572D01*
X017797Y003473D02*
X029531Y003473D01*
X029531Y003375D02*
X017698Y003375D01*
X017600Y003276D02*
X029531Y003276D01*
X029531Y003178D02*
X017501Y003178D01*
X017403Y003079D02*
X029531Y003079D01*
X029531Y002981D02*
X017304Y002981D01*
X017206Y002882D02*
X029531Y002882D01*
X029432Y002820D02*
X029432Y002820D01*
X029325Y002784D02*
X026800Y002784D01*
X026679Y002834D02*
X026951Y002721D01*
X027159Y002513D01*
X027272Y002241D01*
X027272Y001946D01*
X027159Y001674D01*
X026951Y001466D01*
X026679Y001353D01*
X026384Y001353D01*
X026112Y001466D01*
X025904Y001674D01*
X025791Y001946D01*
X025791Y002241D01*
X025904Y002513D01*
X026112Y002721D01*
X026384Y002834D01*
X026679Y002834D01*
X026987Y002685D02*
X029028Y002685D01*
X028976Y002668D02*
X028976Y002668D01*
X028853Y002587D02*
X027086Y002587D01*
X027170Y002488D02*
X028703Y002488D01*
X028562Y002390D02*
X027210Y002390D01*
X027251Y002291D02*
X028475Y002291D01*
X028387Y002193D02*
X027272Y002193D01*
X027272Y002094D02*
X028300Y002094D01*
X028255Y002044D02*
X028255Y002044D01*
X028231Y001996D02*
X027272Y001996D01*
X027252Y001897D02*
X028181Y001897D01*
X028132Y001799D02*
X027211Y001799D01*
X027170Y001700D02*
X028083Y001700D01*
X028037Y001602D02*
X027087Y001602D01*
X026989Y001503D02*
X028017Y001503D01*
X027996Y001405D02*
X026804Y001405D01*
X026259Y001405D02*
X015635Y001405D01*
X015635Y001503D02*
X026074Y001503D01*
X025976Y001602D02*
X015635Y001602D01*
X015635Y001700D02*
X025893Y001700D01*
X025852Y001799D02*
X015635Y001799D01*
X015635Y001897D02*
X025811Y001897D01*
X025791Y001996D02*
X015635Y001996D01*
X015635Y002094D02*
X025791Y002094D01*
X025791Y002193D02*
X016516Y002193D01*
X016615Y002291D02*
X025812Y002291D01*
X025853Y002390D02*
X016713Y002390D01*
X016812Y002488D02*
X025894Y002488D01*
X025978Y002587D02*
X016910Y002587D01*
X017009Y002685D02*
X026076Y002685D01*
X026263Y002784D02*
X017107Y002784D01*
X015635Y001306D02*
X027976Y001306D01*
X027956Y001208D02*
X015635Y001208D01*
X015635Y001109D02*
X027945Y001109D01*
X029366Y008300D02*
X029531Y008300D01*
X029531Y008398D02*
X029470Y008398D01*
X029529Y009186D02*
X029531Y009186D01*
X029531Y009285D02*
X029456Y009285D01*
X029531Y009383D02*
X029345Y009383D01*
X023197Y015162D02*
X017385Y015162D01*
X016603Y015944D01*
X011394Y015944D01*
X010269Y015944D01*
X010260Y015935D01*
X009594Y016600D01*
X009322Y016600D01*
X009135Y016786D01*
X008760Y016786D01*
X008010Y016703D02*
X007821Y016514D01*
X007821Y015975D01*
X008760Y016038D02*
X008760Y015413D01*
X008571Y015225D01*
X009362Y015225D01*
X009385Y015247D01*
X008719Y014537D02*
X008719Y013889D01*
X008010Y012975D02*
X007362Y012975D01*
X007322Y012935D01*
X008759Y012099D02*
X008760Y011850D01*
X008759Y011975D02*
X008759Y012099D01*
X006300Y010787D02*
X006237Y010725D01*
X005322Y010725D02*
X005322Y010311D01*
X005351Y010282D01*
X008525Y009600D02*
X008840Y009285D01*
X010166Y009194D02*
X010385Y008975D01*
X010917Y009508D01*
X010956Y009508D01*
X011236Y009787D01*
X011447Y009787D01*
X011760Y009475D01*
X012050Y009475D01*
X012260Y009037D02*
X013447Y009037D01*
X014697Y007787D01*
X014697Y006850D01*
X013871Y007761D02*
X013871Y007801D01*
X013871Y007761D02*
X013360Y007250D01*
X013263Y007250D01*
X012738Y006724D01*
X012362Y007350D02*
X012010Y007350D01*
X010385Y008975D01*
X012010Y010100D02*
X012163Y010100D01*
X012197Y010134D01*
X013322Y010162D02*
X013481Y010162D01*
X013510Y010134D01*
X014572Y010100D02*
X014788Y010100D01*
X014822Y010134D01*
X016811Y009186D02*
X017100Y009186D01*
X017100Y009088D02*
X016865Y009088D01*
X016865Y008989D02*
X017100Y008989D01*
X017100Y008891D02*
X016813Y008891D01*
X013398Y008274D02*
X013286Y008274D01*
X012738Y007726D01*
X012362Y007350D01*
X010885Y005912D02*
X010877Y005912D01*
X011401Y005388D01*
X011179Y005165D02*
X011885Y004459D01*
X011885Y004372D01*
X012407Y004372D01*
X012697Y004662D01*
X012697Y005225D01*
X011385Y004514D02*
X011385Y004412D01*
X011385Y004514D02*
X010956Y004942D01*
X010733Y004719D02*
X011197Y004256D01*
X011197Y003872D01*
X011237Y003872D01*
X011197Y003850D01*
X010697Y003475D02*
X010385Y003787D01*
X008947Y003787D01*
X008385Y004350D01*
X008385Y004709D01*
X008840Y005165D01*
X008618Y005388D02*
X008010Y004779D01*
X008010Y004162D01*
X008760Y003412D01*
X009260Y003412D01*
X008395Y005610D02*
X007010Y004225D01*
X005441Y004225D01*
X004818Y003602D01*
X005485Y002935D01*
X005572Y002935D01*
X006826Y005098D02*
X006094Y005830D01*
X005969Y005850D01*
X006826Y005098D02*
X007437Y005098D01*
X008172Y005833D01*
X007727Y006278D02*
X007249Y005801D01*
X007184Y005801D01*
X012507Y012412D02*
X012480Y012440D01*
X013385Y013747D02*
X012872Y014260D01*
X012480Y014260D01*
X015635Y015293D02*
X017027Y015293D01*
X016929Y015392D02*
X015635Y015392D01*
X015635Y015490D02*
X016830Y015490D01*
X016732Y015589D02*
X015635Y015589D01*
X015635Y015687D02*
X016633Y015687D01*
X017271Y016377D02*
X029531Y016377D01*
X029531Y016475D02*
X017173Y016475D01*
X017074Y016574D02*
X029531Y016574D01*
X029531Y016672D02*
X016976Y016672D01*
X016877Y016771D02*
X026231Y016771D01*
X026112Y016820D02*
X026384Y016707D01*
X026679Y016707D01*
X026951Y016820D01*
X027159Y017028D01*
X027272Y017301D01*
X027272Y017595D01*
X027159Y017867D01*
X026951Y018076D01*
X026679Y018188D01*
X026384Y018188D01*
X026112Y018076D01*
X025904Y017867D01*
X025791Y017595D01*
X025791Y017301D01*
X025904Y017028D01*
X026112Y016820D01*
X026063Y016869D02*
X015635Y016869D01*
X015635Y016968D02*
X025964Y016968D01*
X025888Y017066D02*
X015635Y017066D01*
X015635Y017165D02*
X025847Y017165D01*
X025806Y017263D02*
X015635Y017263D01*
X015635Y017362D02*
X025791Y017362D01*
X025791Y017460D02*
X015635Y017460D01*
X015635Y017559D02*
X025791Y017559D01*
X025817Y017657D02*
X015635Y017657D01*
X015635Y017756D02*
X025858Y017756D01*
X025899Y017854D02*
X015635Y017854D01*
X015635Y017953D02*
X025989Y017953D01*
X026088Y018051D02*
X015635Y018051D01*
X015635Y018150D02*
X026292Y018150D01*
X026772Y018150D02*
X027971Y018150D01*
X027956Y018248D02*
X015635Y018248D01*
X015635Y018347D02*
X027956Y018347D01*
X027956Y018445D02*
X015635Y018445D01*
X014612Y017975D02*
X011614Y017975D01*
X011394Y017755D01*
X013875Y016850D02*
X014022Y016703D01*
X014635Y016703D01*
X016719Y016703D01*
X017947Y015475D01*
X018177Y015490D02*
X029531Y015490D01*
X029531Y015392D02*
X018177Y015392D01*
X018158Y015589D02*
X029531Y015589D01*
X029531Y015687D02*
X018060Y015687D01*
X017862Y015786D02*
X029531Y015786D01*
X029531Y015884D02*
X017764Y015884D01*
X017665Y015983D02*
X029531Y015983D01*
X029531Y016081D02*
X017567Y016081D01*
X017468Y016180D02*
X029531Y016180D01*
X029531Y016278D02*
X017370Y016278D01*
X014635Y017372D02*
X014612Y017394D01*
X014612Y017975D01*
X015635Y012634D02*
X015914Y012634D01*
X015816Y012535D02*
X015635Y012535D01*
X015635Y012437D02*
X015717Y012437D01*
X026833Y016771D02*
X029217Y016771D01*
X029016Y016825D02*
X029016Y016825D01*
X028938Y016869D02*
X027001Y016869D01*
X027099Y016968D02*
X028768Y016968D01*
X028608Y017066D02*
X027175Y017066D01*
X027216Y017165D02*
X028509Y017165D01*
X028411Y017263D02*
X027257Y017263D01*
X027272Y017362D02*
X028312Y017362D01*
X028301Y017373D02*
X028301Y017373D01*
X028251Y017460D02*
X027272Y017460D01*
X027272Y017559D02*
X028194Y017559D01*
X028137Y017657D02*
X027246Y017657D01*
X027206Y017756D02*
X028080Y017756D01*
X028074Y017766D02*
X028074Y017766D01*
X028050Y017854D02*
X027165Y017854D01*
X027074Y017953D02*
X028024Y017953D01*
X027998Y018051D02*
X026975Y018051D01*
D33*
X015447Y018331D02*
X015322Y018331D01*
X015322Y018015D01*
X015242Y018015D01*
X015242Y018331D01*
X015066Y018331D01*
X015031Y018322D01*
X014999Y018303D01*
X014973Y018277D01*
X014954Y018245D01*
X014945Y018210D01*
X014945Y018015D01*
X015242Y018015D01*
X015242Y017935D01*
X015322Y017935D01*
X015322Y017618D01*
X015447Y017618D01*
X015447Y016853D01*
X014951Y016853D01*
X014951Y016941D01*
X014892Y017000D01*
X014377Y017000D01*
X014368Y016991D01*
X014368Y017083D01*
X014377Y017075D01*
X014892Y017075D01*
X014951Y017134D01*
X014951Y017610D01*
X014892Y017669D01*
X014861Y017669D01*
X014909Y017717D01*
X014909Y018233D01*
X014851Y018291D01*
X014374Y018291D01*
X014316Y018233D01*
X014316Y018125D01*
X011855Y018125D01*
X011829Y018151D01*
X010959Y018151D01*
X010901Y018092D01*
X010901Y017419D01*
X010959Y017360D01*
X011829Y017360D01*
X011888Y017419D01*
X011888Y017825D01*
X014316Y017825D01*
X014316Y017717D01*
X014370Y017662D01*
X014358Y017650D01*
X014310Y017698D01*
X013440Y017698D01*
X013381Y017639D01*
X013381Y016094D01*
X011888Y016094D01*
X011888Y016281D01*
X011829Y016340D01*
X010959Y016340D01*
X010901Y016281D01*
X010901Y016094D01*
X010556Y016094D01*
X010556Y016193D01*
X010498Y016251D01*
X010155Y016251D01*
X009744Y016662D01*
X009656Y016750D01*
X009483Y016750D01*
X009413Y016820D01*
X009314Y016820D01*
X009285Y016849D01*
X009198Y016936D01*
X009155Y016936D01*
X009155Y017084D01*
X009096Y017142D01*
X008423Y017142D01*
X008364Y017084D01*
X008364Y016489D01*
X008423Y016431D01*
X009096Y016431D01*
X009138Y016473D01*
X009231Y016380D01*
X009413Y016380D01*
X009483Y016450D01*
X009532Y016450D01*
X009963Y016019D01*
X009963Y015677D01*
X010021Y015618D01*
X010030Y015618D01*
X010009Y015612D01*
X009977Y015594D01*
X009951Y015568D01*
X009932Y015536D01*
X009923Y015500D01*
X009923Y015305D01*
X010220Y015305D01*
X010220Y015225D01*
X010300Y015225D01*
X010300Y015305D01*
X010596Y015305D01*
X010596Y015500D01*
X010587Y015536D01*
X010568Y015568D01*
X010542Y015594D01*
X010510Y015612D01*
X010489Y015618D01*
X010498Y015618D01*
X010556Y015677D01*
X010556Y015794D01*
X010901Y015794D01*
X010901Y015608D01*
X010959Y015549D01*
X011829Y015549D01*
X011888Y015608D01*
X011888Y015794D01*
X015447Y015794D01*
X015447Y015125D01*
X011602Y015125D01*
X011514Y015037D01*
X010573Y014095D01*
X010573Y014100D01*
X010514Y014159D01*
X009565Y014159D01*
X009506Y014100D01*
X009506Y012600D01*
X009565Y012541D01*
X009889Y012541D01*
X009889Y012439D01*
X009771Y012439D01*
X009713Y012380D01*
X009713Y012125D01*
X009114Y012125D01*
X009114Y012312D01*
X009056Y012370D01*
X008461Y012370D01*
X008403Y012312D01*
X008403Y011638D01*
X008461Y011580D01*
X009056Y011580D01*
X009114Y011638D01*
X009114Y011825D01*
X009752Y011825D01*
X009771Y011806D01*
X009780Y011806D01*
X009759Y011800D01*
X009727Y011781D01*
X009701Y011755D01*
X009682Y011723D01*
X009673Y011688D01*
X009673Y011493D01*
X009970Y011493D01*
X009970Y011413D01*
X010050Y011413D01*
X010050Y011493D01*
X010346Y011493D01*
X010346Y011688D01*
X010337Y011723D01*
X010318Y011755D01*
X010292Y011781D01*
X010260Y011800D01*
X010239Y011806D01*
X010248Y011806D01*
X010306Y011864D01*
X010306Y012380D01*
X010248Y012439D01*
X010189Y012439D01*
X010189Y012541D01*
X010514Y012541D01*
X010573Y012600D01*
X010573Y013671D01*
X011727Y014825D01*
X015447Y014825D01*
X015447Y013349D01*
X015351Y013445D01*
X015252Y013445D01*
X014800Y013897D01*
X013701Y013897D01*
X013701Y013985D01*
X013642Y014044D01*
X013300Y014044D01*
X013020Y014324D01*
X013020Y014541D01*
X012961Y014600D01*
X011998Y014600D01*
X011940Y014541D01*
X011940Y013978D01*
X011998Y013920D01*
X012961Y013920D01*
X012980Y013939D01*
X013068Y013851D01*
X013068Y013509D01*
X013127Y013450D01*
X013642Y013450D01*
X013701Y013509D01*
X013701Y013597D01*
X014675Y013597D01*
X015040Y013233D01*
X015040Y013134D01*
X015168Y013005D01*
X015351Y013005D01*
X015447Y013101D01*
X015447Y012153D01*
X015025Y011730D01*
X014308Y011730D01*
X014250Y011672D01*
X014250Y011465D01*
X014082Y011465D01*
X014082Y011672D01*
X014023Y011730D01*
X012996Y011730D01*
X012937Y011672D01*
X012937Y011465D01*
X012769Y011465D01*
X012769Y011672D01*
X012711Y011730D01*
X011683Y011730D01*
X011625Y011672D01*
X011625Y010959D01*
X011683Y010900D01*
X012711Y010900D01*
X012769Y010959D01*
X012769Y011165D01*
X012937Y011165D01*
X012937Y010959D01*
X012996Y010900D01*
X014023Y010900D01*
X014082Y010959D01*
X014082Y011165D01*
X014250Y011165D01*
X014250Y010959D01*
X014308Y010900D01*
X015336Y010900D01*
X015394Y010959D01*
X015394Y011672D01*
X015392Y011674D01*
X015447Y011728D01*
X015447Y005437D01*
X014296Y005437D01*
X014226Y005507D01*
X014043Y005507D01*
X013915Y005379D01*
X013915Y005196D01*
X013922Y005189D01*
X013922Y001824D01*
X013852Y001754D01*
X013852Y001571D01*
X013981Y001442D01*
X014163Y001442D01*
X014292Y001571D01*
X014292Y001754D01*
X014222Y001824D01*
X014222Y005067D01*
X014226Y005067D01*
X014296Y005137D01*
X015447Y005137D01*
X015447Y002437D01*
X014947Y002437D01*
X014792Y002592D01*
X014792Y002691D01*
X014663Y002820D01*
X014481Y002820D01*
X014352Y002691D01*
X014352Y002509D01*
X014481Y002380D01*
X014580Y002380D01*
X014822Y002137D01*
X015447Y002137D01*
X015447Y001052D01*
X005412Y001052D01*
X005412Y001335D01*
X005295Y001771D01*
X005295Y001771D01*
X005069Y002162D01*
X004750Y002481D01*
X004750Y002481D01*
X004359Y002707D01*
X003923Y002824D01*
X003837Y002824D01*
X003837Y007673D01*
X003840Y007672D01*
X003875Y007662D01*
X004228Y007662D01*
X004228Y008136D01*
X004308Y008136D01*
X004308Y007662D01*
X004660Y007662D01*
X004696Y007672D01*
X004728Y007690D01*
X004754Y007716D01*
X004772Y007748D01*
X004782Y007784D01*
X004782Y008136D01*
X004308Y008136D01*
X004308Y008216D01*
X004782Y008216D01*
X004782Y008569D01*
X004772Y008604D01*
X004754Y008636D01*
X004728Y008662D01*
X004696Y008681D01*
X004660Y008690D01*
X004308Y008690D01*
X004308Y008216D01*
X004228Y008216D01*
X004228Y008690D01*
X003875Y008690D01*
X003840Y008681D01*
X003837Y008679D01*
X003837Y008795D01*
X003840Y008794D01*
X003875Y008784D01*
X004228Y008784D01*
X004228Y009258D01*
X004308Y009258D01*
X004308Y008784D01*
X004660Y008784D01*
X004696Y008794D01*
X004728Y008812D01*
X004754Y008838D01*
X004772Y008870D01*
X004782Y008906D01*
X004782Y009258D01*
X004308Y009258D01*
X004308Y009338D01*
X004782Y009338D01*
X004782Y009691D01*
X004772Y009726D01*
X004754Y009758D01*
X004741Y009771D01*
X004754Y009783D01*
X004772Y009815D01*
X004782Y009851D01*
X004782Y010203D01*
X004308Y010203D01*
X004308Y010283D01*
X004782Y010283D01*
X004782Y010636D01*
X004772Y010671D01*
X004754Y010703D01*
X004728Y010729D01*
X004696Y010748D01*
X004660Y010757D01*
X004308Y010757D01*
X004308Y010283D01*
X004228Y010283D01*
X004228Y010203D01*
X004308Y010203D01*
X004308Y009729D01*
X004308Y009338D01*
X004228Y009338D01*
X004228Y010203D01*
X003837Y010203D01*
X003837Y010283D01*
X004228Y010283D01*
X004228Y010757D01*
X003875Y010757D01*
X003840Y010748D01*
X003837Y010746D01*
X003837Y010784D01*
X003840Y010782D01*
X003875Y010772D01*
X004228Y010772D01*
X004228Y011246D01*
X004308Y011246D01*
X004308Y010772D01*
X004660Y010772D01*
X004696Y010782D01*
X004728Y010800D01*
X004754Y010826D01*
X004772Y010858D01*
X004782Y010894D01*
X004782Y011246D01*
X004308Y011246D01*
X004308Y011326D01*
X004782Y011326D01*
X004782Y011679D01*
X004772Y011714D01*
X004754Y011746D01*
X004728Y011772D01*
X004696Y011791D01*
X004660Y011800D01*
X004308Y011800D01*
X004308Y011326D01*
X004228Y011326D01*
X004228Y011800D01*
X003875Y011800D01*
X003840Y011791D01*
X003837Y011789D01*
X003837Y016717D01*
X003923Y016717D01*
X004359Y016834D01*
X004750Y017060D01*
X005069Y017379D01*
X005069Y017379D01*
X005295Y017770D01*
X005295Y017770D01*
X005412Y018206D01*
X005412Y018489D01*
X015447Y018489D01*
X015447Y018331D01*
X015447Y018339D02*
X005412Y018339D01*
X005412Y018261D02*
X014344Y018261D01*
X014316Y018182D02*
X005405Y018182D01*
X005384Y018104D02*
X006522Y018104D01*
X006433Y018067D02*
X006227Y017862D01*
X006116Y017593D01*
X006116Y017303D01*
X006227Y017034D01*
X006433Y016829D01*
X006701Y016717D01*
X006992Y016717D01*
X007260Y016829D01*
X007466Y017034D01*
X007577Y017303D01*
X007577Y017593D01*
X007466Y017862D01*
X007260Y018067D01*
X006992Y018178D01*
X006701Y018178D01*
X006433Y018067D01*
X006391Y018025D02*
X005363Y018025D01*
X005342Y017947D02*
X006313Y017947D01*
X006234Y017868D02*
X005321Y017868D01*
X005300Y017790D02*
X006198Y017790D01*
X006165Y017711D02*
X005261Y017711D01*
X005216Y017633D02*
X006133Y017633D01*
X006116Y017554D02*
X005170Y017554D01*
X005125Y017476D02*
X006116Y017476D01*
X006116Y017397D02*
X005080Y017397D01*
X005009Y017319D02*
X006116Y017319D01*
X006142Y017240D02*
X004930Y017240D01*
X004852Y017162D02*
X006174Y017162D01*
X006207Y017083D02*
X004773Y017083D01*
X004750Y017060D02*
X004750Y017060D01*
X004655Y017005D02*
X006256Y017005D01*
X006335Y016926D02*
X004519Y016926D01*
X004383Y016848D02*
X006413Y016848D01*
X006575Y016769D02*
X004117Y016769D01*
X004359Y016834D02*
X004359Y016834D01*
X004398Y016390D02*
X004362Y016381D01*
X004331Y016363D01*
X004304Y016336D01*
X004286Y016305D01*
X004277Y016269D01*
X004277Y016015D01*
X004691Y016015D01*
X004691Y015935D01*
X004277Y015935D01*
X004277Y015681D01*
X004286Y015645D01*
X004304Y015613D01*
X004331Y015587D01*
X004362Y015569D01*
X004398Y015559D01*
X004691Y015559D01*
X004691Y015935D01*
X004771Y015935D01*
X004771Y015559D01*
X005065Y015559D01*
X005100Y015569D01*
X005132Y015587D01*
X005158Y015613D01*
X005177Y015645D01*
X005186Y015681D01*
X005186Y015935D01*
X004771Y015935D01*
X004771Y016015D01*
X004691Y016015D01*
X004691Y016390D01*
X004398Y016390D01*
X004356Y016377D02*
X003837Y016377D01*
X003837Y016455D02*
X007671Y016455D01*
X007671Y016377D02*
X005107Y016377D01*
X005100Y016381D02*
X005065Y016390D01*
X004771Y016390D01*
X004771Y016015D01*
X005186Y016015D01*
X005186Y016269D01*
X005177Y016305D01*
X005158Y016336D01*
X005132Y016363D01*
X005100Y016381D01*
X005179Y016298D02*
X005504Y016298D01*
X005498Y016292D02*
X005498Y015658D01*
X005556Y015599D01*
X006269Y015599D01*
X006328Y015658D01*
X006328Y015825D01*
X006717Y015825D01*
X006717Y015638D01*
X006776Y015580D01*
X007370Y015580D01*
X007429Y015638D01*
X007429Y016312D01*
X007370Y016370D01*
X006776Y016370D01*
X006717Y016312D01*
X006717Y016125D01*
X006328Y016125D01*
X006328Y016292D01*
X006269Y016350D01*
X005556Y016350D01*
X005498Y016292D01*
X005498Y016220D02*
X005186Y016220D01*
X005186Y016141D02*
X005498Y016141D01*
X005498Y016063D02*
X005186Y016063D01*
X005186Y015906D02*
X005498Y015906D01*
X005498Y015984D02*
X004771Y015984D01*
X004771Y015906D02*
X004691Y015906D01*
X004691Y015984D02*
X003837Y015984D01*
X003837Y015906D02*
X004277Y015906D01*
X004277Y015827D02*
X003837Y015827D01*
X003837Y015749D02*
X004277Y015749D01*
X004279Y015670D02*
X003837Y015670D01*
X003837Y015592D02*
X004326Y015592D01*
X004255Y015355D02*
X004196Y015297D01*
X004196Y014584D01*
X004255Y014525D01*
X004889Y014525D01*
X004948Y014584D01*
X004948Y015297D01*
X004889Y015355D01*
X004255Y015355D01*
X004196Y015278D02*
X003837Y015278D01*
X003837Y015356D02*
X007467Y015356D01*
X007467Y015278D02*
X004948Y015278D01*
X004948Y015199D02*
X007467Y015199D01*
X007467Y015121D02*
X006998Y015121D01*
X007015Y015104D02*
X006956Y015163D01*
X006244Y015163D01*
X006185Y015104D01*
X006185Y014470D01*
X006244Y014412D01*
X006956Y014412D01*
X007015Y014470D01*
X007015Y014637D01*
X007036Y014637D01*
X007106Y014567D01*
X007288Y014567D01*
X007417Y014696D01*
X007417Y014879D01*
X007288Y015007D01*
X007106Y015007D01*
X007036Y014937D01*
X007015Y014937D01*
X007015Y015104D01*
X007015Y015042D02*
X007467Y015042D01*
X007467Y014964D02*
X007332Y014964D01*
X007410Y014885D02*
X007470Y014885D01*
X007467Y014888D02*
X007526Y014830D01*
X007731Y014830D01*
X007721Y014820D01*
X007703Y014788D01*
X007693Y014753D01*
X007693Y014577D01*
X008010Y014577D01*
X008010Y014497D01*
X007693Y014497D01*
X007693Y014322D01*
X007703Y014287D01*
X007721Y014255D01*
X007731Y014245D01*
X007713Y014245D01*
X007655Y014187D01*
X007655Y014000D01*
X006885Y014000D01*
X006885Y014047D01*
X006827Y014105D01*
X006193Y014105D01*
X006134Y014047D01*
X006134Y013334D01*
X006193Y013275D01*
X006827Y013275D01*
X006885Y013334D01*
X006885Y013700D01*
X007655Y013700D01*
X007655Y013513D01*
X007713Y013455D01*
X008308Y013455D01*
X008366Y013513D01*
X008366Y014187D01*
X008335Y014218D01*
X008352Y014229D01*
X008378Y014255D01*
X008397Y014287D01*
X008403Y014308D01*
X008403Y014299D01*
X008459Y014243D01*
X008403Y014187D01*
X008403Y013513D01*
X008461Y013455D01*
X008609Y013455D01*
X008609Y013370D01*
X008461Y013370D01*
X008403Y013312D01*
X008403Y012638D01*
X008461Y012580D01*
X009056Y012580D01*
X009114Y012638D01*
X009114Y013312D01*
X009056Y013370D01*
X008909Y013370D01*
X008909Y013455D01*
X009056Y013455D01*
X009114Y013513D01*
X009114Y014187D01*
X009056Y014245D01*
X008982Y014245D01*
X009036Y014299D01*
X009036Y014776D01*
X008977Y014834D01*
X008873Y014834D01*
X008927Y014888D01*
X008927Y015075D01*
X009088Y015075D01*
X009088Y014989D01*
X009146Y014931D01*
X009155Y014931D01*
X009134Y014925D01*
X009102Y014906D01*
X009076Y014880D01*
X009057Y014848D01*
X009048Y014813D01*
X009048Y014618D01*
X009345Y014618D01*
X009345Y014538D01*
X009425Y014538D01*
X009425Y014618D01*
X009721Y014618D01*
X009721Y014813D01*
X009712Y014848D01*
X009693Y014880D01*
X009667Y014906D01*
X009635Y014925D01*
X009614Y014931D01*
X009623Y014931D01*
X009681Y014989D01*
X009681Y015505D01*
X009623Y015564D01*
X009146Y015564D01*
X009088Y015505D01*
X009088Y015375D01*
X008927Y015375D01*
X008927Y015562D01*
X008910Y015579D01*
X008910Y015682D01*
X009096Y015682D01*
X009155Y015741D01*
X009155Y016336D01*
X009096Y016394D01*
X008423Y016394D01*
X008364Y016336D01*
X008364Y015741D01*
X008423Y015682D01*
X008610Y015682D01*
X008610Y015620D01*
X008274Y015620D01*
X008215Y015562D01*
X008215Y014888D01*
X008229Y014874D01*
X008165Y014874D01*
X008179Y014888D01*
X008179Y015562D01*
X008140Y015601D01*
X008177Y015638D01*
X008177Y016312D01*
X008118Y016370D01*
X007971Y016370D01*
X007971Y016386D01*
X008248Y016386D01*
X008306Y016445D01*
X008306Y016961D01*
X008248Y017019D01*
X008239Y017019D01*
X008260Y017025D01*
X008292Y017043D01*
X008318Y017070D01*
X008337Y017101D01*
X008346Y017137D01*
X008346Y017332D01*
X008050Y017332D01*
X008050Y017412D01*
X008346Y017412D01*
X008346Y017607D01*
X008337Y017643D01*
X008318Y017675D01*
X008292Y017701D01*
X008260Y017719D01*
X008225Y017729D01*
X008050Y017729D01*
X008050Y017412D01*
X007970Y017412D01*
X007970Y017729D01*
X007794Y017729D01*
X007759Y017719D01*
X007727Y017701D01*
X007701Y017675D01*
X007682Y017643D01*
X007673Y017607D01*
X007673Y017412D01*
X007970Y017412D01*
X007970Y017332D01*
X007673Y017332D01*
X007673Y017137D01*
X007682Y017101D01*
X007701Y017070D01*
X007727Y017043D01*
X007759Y017025D01*
X007780Y017019D01*
X007771Y017019D01*
X007713Y016961D01*
X007713Y016618D01*
X007671Y016576D01*
X007671Y016370D01*
X007524Y016370D01*
X007465Y016312D01*
X007465Y015638D01*
X007504Y015599D01*
X007467Y015562D01*
X007467Y014888D01*
X007417Y014807D02*
X007714Y014807D01*
X007693Y014728D02*
X007417Y014728D01*
X007371Y014650D02*
X007693Y014650D01*
X007693Y014493D02*
X007015Y014493D01*
X007015Y014571D02*
X007102Y014571D01*
X007292Y014571D02*
X008010Y014571D01*
X007693Y014414D02*
X006959Y014414D01*
X006831Y014100D02*
X007655Y014100D01*
X007655Y014022D02*
X006885Y014022D01*
X006885Y013629D02*
X007655Y013629D01*
X007655Y013551D02*
X006885Y013551D01*
X006885Y013472D02*
X007695Y013472D01*
X007713Y013370D02*
X007655Y013312D01*
X007655Y013125D01*
X007619Y013125D01*
X007619Y013193D01*
X007560Y013251D01*
X007084Y013251D01*
X007025Y013193D01*
X007025Y012677D01*
X007084Y012618D01*
X007093Y012618D01*
X007071Y012612D01*
X007039Y012594D01*
X007013Y012568D01*
X006995Y012536D01*
X006985Y012500D01*
X006985Y012305D01*
X007282Y012305D01*
X007282Y012225D01*
X007362Y012225D01*
X007362Y011909D01*
X007537Y011909D01*
X007573Y011918D01*
X007605Y011937D01*
X007631Y011963D01*
X007649Y011995D01*
X007655Y012014D01*
X007655Y011638D01*
X007713Y011580D01*
X008308Y011580D01*
X008366Y011638D01*
X008366Y012312D01*
X008308Y012370D01*
X008160Y012370D01*
X008160Y012580D01*
X008308Y012580D01*
X008366Y012638D01*
X008366Y013312D01*
X008308Y013370D01*
X007713Y013370D01*
X007658Y013315D02*
X006866Y013315D01*
X006885Y013394D02*
X008609Y013394D01*
X008443Y013472D02*
X008326Y013472D01*
X008366Y013551D02*
X008403Y013551D01*
X008403Y013629D02*
X008366Y013629D01*
X008366Y013708D02*
X008403Y013708D01*
X008403Y013786D02*
X008366Y013786D01*
X008366Y013865D02*
X008403Y013865D01*
X008403Y013943D02*
X008366Y013943D01*
X008366Y014022D02*
X008403Y014022D01*
X008403Y014100D02*
X008366Y014100D01*
X008366Y014179D02*
X008403Y014179D01*
X008380Y014257D02*
X008444Y014257D01*
X008994Y014257D02*
X009093Y014257D01*
X009102Y014249D02*
X009134Y014231D01*
X009169Y014221D01*
X009345Y014221D01*
X009345Y014538D01*
X009048Y014538D01*
X009048Y014343D01*
X009057Y014307D01*
X009076Y014275D01*
X009102Y014249D01*
X009114Y014179D02*
X010656Y014179D01*
X010578Y014100D02*
X010572Y014100D01*
X010735Y014257D02*
X009676Y014257D01*
X009667Y014249D02*
X009693Y014275D01*
X009712Y014307D01*
X009721Y014343D01*
X009721Y014538D01*
X009425Y014538D01*
X009425Y014221D01*
X009600Y014221D01*
X009635Y014231D01*
X009667Y014249D01*
X009720Y014336D02*
X010813Y014336D01*
X010892Y014414D02*
X009721Y014414D01*
X009721Y014493D02*
X010970Y014493D01*
X011049Y014571D02*
X009425Y014571D01*
X009425Y014493D02*
X009345Y014493D01*
X009345Y014571D02*
X009036Y014571D01*
X009036Y014493D02*
X009048Y014493D01*
X009036Y014414D02*
X009048Y014414D01*
X009036Y014336D02*
X009049Y014336D01*
X009114Y014100D02*
X009507Y014100D01*
X009506Y014022D02*
X009114Y014022D01*
X009114Y013943D02*
X009506Y013943D01*
X009506Y013865D02*
X009114Y013865D01*
X009114Y013786D02*
X009506Y013786D01*
X009506Y013708D02*
X009114Y013708D01*
X009114Y013629D02*
X009506Y013629D01*
X009506Y013551D02*
X009114Y013551D01*
X009074Y013472D02*
X009506Y013472D01*
X009506Y013394D02*
X008909Y013394D01*
X009111Y013315D02*
X009506Y013315D01*
X009506Y013237D02*
X009114Y013237D01*
X009114Y013158D02*
X009506Y013158D01*
X009506Y013080D02*
X009114Y013080D01*
X009114Y013001D02*
X009506Y013001D01*
X009506Y012923D02*
X009114Y012923D01*
X009114Y012844D02*
X009506Y012844D01*
X009506Y012766D02*
X009114Y012766D01*
X009114Y012687D02*
X009506Y012687D01*
X009506Y012609D02*
X009085Y012609D01*
X009114Y012295D02*
X009713Y012295D01*
X009713Y012373D02*
X008160Y012373D01*
X008160Y012452D02*
X009889Y012452D01*
X009889Y012530D02*
X008160Y012530D01*
X008337Y012609D02*
X008432Y012609D01*
X008403Y012687D02*
X008366Y012687D01*
X008366Y012766D02*
X008403Y012766D01*
X008403Y012844D02*
X008366Y012844D01*
X008366Y012923D02*
X008403Y012923D01*
X008403Y013001D02*
X008366Y013001D01*
X008366Y013080D02*
X008403Y013080D01*
X008403Y013158D02*
X008366Y013158D01*
X008366Y013237D02*
X008403Y013237D01*
X008406Y013315D02*
X008363Y013315D01*
X007655Y013237D02*
X007574Y013237D01*
X007619Y013158D02*
X007655Y013158D01*
X007070Y013237D02*
X005954Y013237D01*
X005954Y013315D02*
X006153Y013315D01*
X006134Y013394D02*
X004939Y013394D01*
X004937Y013392D02*
X004948Y013403D01*
X004948Y013652D01*
X005134Y013652D01*
X005222Y013739D01*
X005569Y014086D01*
X005569Y014412D01*
X005775Y014412D01*
X005834Y014470D01*
X005834Y015104D01*
X005775Y015163D01*
X005063Y015163D01*
X005004Y015104D01*
X005004Y014470D01*
X005063Y014412D01*
X005269Y014412D01*
X005269Y014211D01*
X005010Y013952D01*
X004948Y013952D01*
X004948Y014116D01*
X004889Y014174D01*
X004255Y014174D01*
X004196Y014116D01*
X004196Y013403D01*
X004255Y013344D01*
X004553Y013344D01*
X004691Y013207D01*
X004691Y012857D01*
X004749Y012799D01*
X005895Y012799D01*
X005954Y012857D01*
X005954Y013334D01*
X005895Y013392D01*
X004937Y013392D01*
X004948Y013472D02*
X006134Y013472D01*
X006134Y013551D02*
X004948Y013551D01*
X004948Y013629D02*
X006134Y013629D01*
X006134Y013708D02*
X005191Y013708D01*
X005269Y013786D02*
X006134Y013786D01*
X006134Y013865D02*
X005348Y013865D01*
X005426Y013943D02*
X006134Y013943D01*
X006134Y014022D02*
X005505Y014022D01*
X005569Y014100D02*
X006188Y014100D01*
X006241Y014414D02*
X005778Y014414D01*
X005834Y014493D02*
X006185Y014493D01*
X006185Y014571D02*
X005834Y014571D01*
X005834Y014650D02*
X006185Y014650D01*
X006185Y014728D02*
X005834Y014728D01*
X005834Y014807D02*
X006185Y014807D01*
X006185Y014885D02*
X005834Y014885D01*
X005834Y014964D02*
X006185Y014964D01*
X006185Y015042D02*
X005834Y015042D01*
X005817Y015121D02*
X006202Y015121D01*
X006328Y015670D02*
X006717Y015670D01*
X006717Y015749D02*
X006328Y015749D01*
X006763Y015592D02*
X005137Y015592D01*
X005184Y015670D02*
X005498Y015670D01*
X005498Y015749D02*
X005186Y015749D01*
X005186Y015827D02*
X005498Y015827D01*
X004771Y015827D02*
X004691Y015827D01*
X004691Y015749D02*
X004771Y015749D01*
X004771Y015670D02*
X004691Y015670D01*
X004691Y015592D02*
X004771Y015592D01*
X004771Y016063D02*
X004691Y016063D01*
X004691Y016141D02*
X004771Y016141D01*
X004771Y016220D02*
X004691Y016220D01*
X004691Y016298D02*
X004771Y016298D01*
X004771Y016377D02*
X004691Y016377D01*
X004284Y016298D02*
X003837Y016298D01*
X003837Y016220D02*
X004277Y016220D01*
X004277Y016141D02*
X003837Y016141D01*
X003837Y016063D02*
X004277Y016063D01*
X003837Y016534D02*
X007671Y016534D01*
X007707Y016612D02*
X003837Y016612D01*
X003837Y016691D02*
X007713Y016691D01*
X007713Y016769D02*
X007118Y016769D01*
X007280Y016848D02*
X007713Y016848D01*
X007713Y016926D02*
X007358Y016926D01*
X007437Y017005D02*
X007757Y017005D01*
X007693Y017083D02*
X007486Y017083D01*
X007519Y017162D02*
X007673Y017162D01*
X007673Y017240D02*
X007551Y017240D01*
X007577Y017319D02*
X007673Y017319D01*
X007577Y017397D02*
X007970Y017397D01*
X007970Y017476D02*
X008050Y017476D01*
X008050Y017554D02*
X007970Y017554D01*
X007970Y017633D02*
X008050Y017633D01*
X008050Y017711D02*
X007970Y017711D01*
X007745Y017711D02*
X007528Y017711D01*
X007561Y017633D02*
X007680Y017633D01*
X007673Y017554D02*
X007577Y017554D01*
X007577Y017476D02*
X007673Y017476D01*
X007496Y017790D02*
X010901Y017790D01*
X010901Y017868D02*
X007459Y017868D01*
X007381Y017947D02*
X010901Y017947D01*
X010901Y018025D02*
X007302Y018025D01*
X007172Y018104D02*
X010913Y018104D01*
X010901Y017711D02*
X008274Y017711D01*
X008339Y017633D02*
X010901Y017633D01*
X010901Y017554D02*
X008346Y017554D01*
X008346Y017476D02*
X010901Y017476D01*
X010922Y017397D02*
X008050Y017397D01*
X008346Y017319D02*
X013381Y017319D01*
X013381Y017397D02*
X011867Y017397D01*
X011888Y017476D02*
X013381Y017476D01*
X013381Y017554D02*
X011888Y017554D01*
X011888Y017633D02*
X013381Y017633D01*
X013381Y017240D02*
X011834Y017240D01*
X011829Y017245D02*
X010959Y017245D01*
X010901Y017187D01*
X010901Y016513D01*
X010959Y016455D01*
X011829Y016455D01*
X011888Y016513D01*
X011888Y017187D01*
X011829Y017245D01*
X011888Y017162D02*
X013381Y017162D01*
X013381Y017083D02*
X011888Y017083D01*
X011888Y017005D02*
X013381Y017005D01*
X013381Y016926D02*
X011888Y016926D01*
X011888Y016848D02*
X013381Y016848D01*
X013381Y016769D02*
X011888Y016769D01*
X011888Y016691D02*
X013381Y016691D01*
X013381Y016612D02*
X011888Y016612D01*
X011888Y016534D02*
X013381Y016534D01*
X013381Y016455D02*
X011830Y016455D01*
X011871Y016298D02*
X013381Y016298D01*
X013381Y016220D02*
X011888Y016220D01*
X011888Y016141D02*
X013381Y016141D01*
X013381Y016377D02*
X010029Y016377D01*
X009951Y016455D02*
X010958Y016455D01*
X010901Y016534D02*
X009872Y016534D01*
X009794Y016612D02*
X010901Y016612D01*
X010901Y016691D02*
X009715Y016691D01*
X009464Y016769D02*
X010901Y016769D01*
X010901Y016848D02*
X009286Y016848D01*
X009208Y016926D02*
X010901Y016926D01*
X010901Y017005D02*
X009155Y017005D01*
X009155Y017083D02*
X010901Y017083D01*
X010901Y017162D02*
X008346Y017162D01*
X008346Y017240D02*
X010955Y017240D01*
X011888Y017711D02*
X014321Y017711D01*
X014316Y017790D02*
X011888Y017790D01*
X010918Y016298D02*
X010108Y016298D01*
X009919Y016063D02*
X009155Y016063D01*
X009155Y016141D02*
X009840Y016141D01*
X009762Y016220D02*
X009155Y016220D01*
X009155Y016298D02*
X009683Y016298D01*
X009605Y016377D02*
X009114Y016377D01*
X009121Y016455D02*
X009155Y016455D01*
X009155Y015984D02*
X009963Y015984D01*
X009963Y015906D02*
X009155Y015906D01*
X009155Y015827D02*
X009963Y015827D01*
X009963Y015749D02*
X009155Y015749D01*
X009096Y015513D02*
X008927Y015513D01*
X008927Y015435D02*
X009088Y015435D01*
X008910Y015592D02*
X009975Y015592D01*
X009969Y015670D02*
X008910Y015670D01*
X008610Y015670D02*
X008177Y015670D01*
X008177Y015749D02*
X008364Y015749D01*
X008364Y015827D02*
X008177Y015827D01*
X008177Y015906D02*
X008364Y015906D01*
X008364Y015984D02*
X008177Y015984D01*
X008177Y016063D02*
X008364Y016063D01*
X008364Y016141D02*
X008177Y016141D01*
X008177Y016220D02*
X008364Y016220D01*
X008364Y016298D02*
X008177Y016298D01*
X008306Y016455D02*
X008398Y016455D01*
X008405Y016377D02*
X007971Y016377D01*
X008306Y016534D02*
X008364Y016534D01*
X008364Y016612D02*
X008306Y016612D01*
X008306Y016691D02*
X008364Y016691D01*
X008364Y016769D02*
X008306Y016769D01*
X008306Y016848D02*
X008364Y016848D01*
X008364Y016926D02*
X008306Y016926D01*
X008262Y017005D02*
X008364Y017005D01*
X008364Y017083D02*
X008326Y017083D01*
X007465Y016298D02*
X007429Y016298D01*
X007429Y016220D02*
X007465Y016220D01*
X007465Y016141D02*
X007429Y016141D01*
X007429Y016063D02*
X007465Y016063D01*
X007465Y015984D02*
X007429Y015984D01*
X007429Y015906D02*
X007465Y015906D01*
X007465Y015827D02*
X007429Y015827D01*
X007429Y015749D02*
X007465Y015749D01*
X007465Y015670D02*
X007429Y015670D01*
X007383Y015592D02*
X007497Y015592D01*
X007467Y015513D02*
X003837Y015513D01*
X003837Y015435D02*
X007467Y015435D01*
X007062Y014964D02*
X007015Y014964D01*
X007693Y014336D02*
X005569Y014336D01*
X005569Y014257D02*
X007720Y014257D01*
X007655Y014179D02*
X005569Y014179D01*
X005269Y014257D02*
X003837Y014257D01*
X003837Y014179D02*
X005237Y014179D01*
X005159Y014100D02*
X004948Y014100D01*
X004948Y014022D02*
X005080Y014022D01*
X005269Y014336D02*
X003837Y014336D01*
X003837Y014414D02*
X005060Y014414D01*
X005004Y014493D02*
X003837Y014493D01*
X003837Y014571D02*
X004209Y014571D01*
X004196Y014650D02*
X003837Y014650D01*
X003837Y014728D02*
X004196Y014728D01*
X004196Y014807D02*
X003837Y014807D01*
X003837Y014885D02*
X004196Y014885D01*
X004196Y014964D02*
X003837Y014964D01*
X003837Y015042D02*
X004196Y015042D01*
X004196Y015121D02*
X003837Y015121D01*
X003837Y015199D02*
X004196Y015199D01*
X004948Y015121D02*
X005021Y015121D01*
X005004Y015042D02*
X004948Y015042D01*
X004948Y014964D02*
X005004Y014964D01*
X005004Y014885D02*
X004948Y014885D01*
X004948Y014807D02*
X005004Y014807D01*
X005004Y014728D02*
X004948Y014728D01*
X004948Y014650D02*
X005004Y014650D01*
X005004Y014571D02*
X004935Y014571D01*
X004196Y014100D02*
X003837Y014100D01*
X003837Y014022D02*
X004196Y014022D01*
X004196Y013943D02*
X003837Y013943D01*
X003837Y013865D02*
X004196Y013865D01*
X004196Y013786D02*
X003837Y013786D01*
X003837Y013708D02*
X004196Y013708D01*
X004196Y013629D02*
X003837Y013629D01*
X003837Y013551D02*
X004196Y013551D01*
X004196Y013472D02*
X003837Y013472D01*
X003837Y013394D02*
X004205Y013394D01*
X003837Y013315D02*
X004582Y013315D01*
X004660Y013237D02*
X003837Y013237D01*
X003837Y013158D02*
X004691Y013158D01*
X004691Y013080D02*
X003837Y013080D01*
X003837Y013001D02*
X004691Y013001D01*
X004691Y012923D02*
X003837Y012923D01*
X003837Y012844D02*
X004703Y012844D01*
X004749Y012526D02*
X004691Y012468D01*
X004691Y011991D01*
X004749Y011932D01*
X005172Y011932D01*
X005172Y010461D01*
X005034Y010461D01*
X004975Y010403D01*
X004975Y010162D01*
X004983Y010155D01*
X004975Y010147D01*
X004975Y009906D01*
X004983Y009899D01*
X004975Y009891D01*
X004975Y009651D01*
X004983Y009643D01*
X004975Y009635D01*
X004975Y009436D01*
X004963Y009424D01*
X004945Y009392D01*
X004935Y009356D01*
X004935Y009259D01*
X005351Y009259D01*
X005766Y009259D01*
X005766Y009356D01*
X005757Y009392D01*
X005738Y009424D01*
X005726Y009436D01*
X005726Y009609D01*
X005885Y009450D01*
X006003Y009450D01*
X006003Y009342D01*
X006062Y009283D01*
X006538Y009283D01*
X006597Y009342D01*
X006597Y009858D01*
X006573Y009881D01*
X006597Y009904D01*
X006597Y010420D01*
X006542Y010475D01*
X006597Y010529D01*
X006597Y011045D01*
X006538Y011104D01*
X006062Y011104D01*
X006003Y011045D01*
X006003Y010875D01*
X005472Y010875D01*
X005472Y011932D01*
X005895Y011932D01*
X005954Y011991D01*
X005954Y012468D01*
X005895Y012526D01*
X004749Y012526D01*
X004691Y012452D02*
X003837Y012452D01*
X003837Y012530D02*
X006470Y012530D01*
X006470Y012549D02*
X006470Y012469D01*
X006550Y012469D01*
X006550Y012549D01*
X006925Y012549D01*
X006925Y012843D01*
X006916Y012878D01*
X006897Y012910D01*
X006871Y012936D01*
X006839Y012955D01*
X006804Y012964D01*
X006550Y012964D01*
X006550Y012549D01*
X006470Y012549D01*
X006470Y012964D01*
X006215Y012964D01*
X006180Y012955D01*
X006148Y012936D01*
X006122Y012910D01*
X006103Y012878D01*
X006094Y012843D01*
X006094Y012549D01*
X006470Y012549D01*
X006470Y012609D02*
X006550Y012609D01*
X006550Y012687D02*
X006470Y012687D01*
X006470Y012766D02*
X006550Y012766D01*
X006550Y012844D02*
X006470Y012844D01*
X006470Y012923D02*
X006550Y012923D01*
X006884Y012923D02*
X007025Y012923D01*
X007025Y013001D02*
X005954Y013001D01*
X005954Y012923D02*
X006135Y012923D01*
X006094Y012844D02*
X005941Y012844D01*
X006094Y012766D02*
X003837Y012766D01*
X003837Y012687D02*
X006094Y012687D01*
X006094Y012609D02*
X003837Y012609D01*
X003837Y012373D02*
X004691Y012373D01*
X004691Y012295D02*
X003837Y012295D01*
X003837Y012216D02*
X004691Y012216D01*
X004691Y012138D02*
X003837Y012138D01*
X003837Y012059D02*
X004691Y012059D01*
X004701Y011981D02*
X003837Y011981D01*
X003837Y011902D02*
X005172Y011902D01*
X005172Y011824D02*
X003837Y011824D01*
X004228Y011745D02*
X004308Y011745D01*
X004308Y011667D02*
X004228Y011667D01*
X004228Y011588D02*
X004308Y011588D01*
X004308Y011510D02*
X004228Y011510D01*
X004228Y011431D02*
X004308Y011431D01*
X004308Y011353D02*
X004228Y011353D01*
X004308Y011274D02*
X005172Y011274D01*
X005172Y011196D02*
X004782Y011196D01*
X004782Y011117D02*
X005172Y011117D01*
X005172Y011039D02*
X004782Y011039D01*
X004782Y010960D02*
X005172Y010960D01*
X005172Y010882D02*
X004779Y010882D01*
X004731Y010803D02*
X005172Y010803D01*
X005172Y010725D02*
X004732Y010725D01*
X004779Y010646D02*
X005172Y010646D01*
X005172Y010568D02*
X004782Y010568D01*
X004782Y010489D02*
X005172Y010489D01*
X004983Y010411D02*
X004782Y010411D01*
X004782Y010332D02*
X004975Y010332D01*
X004975Y010254D02*
X004308Y010254D01*
X004308Y010332D02*
X004228Y010332D01*
X004228Y010254D02*
X003837Y010254D01*
X004228Y010175D02*
X004308Y010175D01*
X004308Y010097D02*
X004228Y010097D01*
X004228Y010018D02*
X004308Y010018D01*
X004308Y009940D02*
X004228Y009940D01*
X004228Y009861D02*
X004308Y009861D01*
X004308Y009783D02*
X004228Y009783D01*
X004228Y009704D02*
X004308Y009704D01*
X004308Y009626D02*
X004228Y009626D01*
X004228Y009547D02*
X004308Y009547D01*
X004308Y009469D02*
X004228Y009469D01*
X004228Y009390D02*
X004308Y009390D01*
X004308Y009312D02*
X004935Y009312D01*
X004935Y009259D02*
X004935Y009162D01*
X004945Y009126D01*
X004963Y009094D01*
X004989Y009068D01*
X005021Y009050D01*
X005057Y009040D01*
X005351Y009040D01*
X005645Y009040D01*
X005680Y009050D01*
X005712Y009068D01*
X005738Y009094D01*
X005757Y009126D01*
X005766Y009162D01*
X005766Y009259D01*
X005351Y009259D01*
X005351Y009259D01*
X005351Y009040D01*
X005351Y009259D01*
X005351Y009259D01*
X005351Y009259D01*
X004935Y009259D01*
X004935Y009233D02*
X004782Y009233D01*
X004782Y009155D02*
X004937Y009155D01*
X004981Y009076D02*
X004782Y009076D01*
X004782Y008998D02*
X006751Y008998D01*
X006673Y008919D02*
X004782Y008919D01*
X004755Y008841D02*
X006594Y008841D01*
X006535Y008781D02*
X006535Y008698D01*
X006983Y008250D01*
X007066Y008250D01*
X007570Y008754D01*
X007570Y008837D01*
X007452Y008955D01*
X007572Y009075D01*
X007611Y009075D01*
X007602Y009066D01*
X007602Y008884D01*
X007731Y008755D01*
X007751Y008755D01*
X007571Y008575D01*
X007571Y008550D01*
X007546Y008550D01*
X007348Y008352D01*
X007348Y008327D01*
X007323Y008327D01*
X007126Y008129D01*
X007126Y008104D01*
X007101Y008104D01*
X006903Y007907D01*
X006903Y007824D01*
X007035Y007692D01*
X006788Y007445D01*
X006726Y007507D01*
X006543Y007507D01*
X006415Y007379D01*
X006415Y007196D01*
X006543Y007067D01*
X006726Y007067D01*
X006796Y007137D01*
X006905Y007137D01*
X006993Y007225D01*
X007247Y007480D01*
X007379Y007348D01*
X007462Y007348D01*
X007660Y007545D01*
X007660Y007570D01*
X007665Y007570D01*
X007665Y007509D01*
X007793Y007380D01*
X007976Y007380D01*
X008072Y007476D01*
X008168Y007380D01*
X008351Y007380D01*
X008480Y007509D01*
X008480Y007691D01*
X008416Y007755D01*
X008476Y007755D01*
X008605Y007884D01*
X008605Y007980D01*
X008735Y007850D01*
X008735Y007498D01*
X008066Y006830D01*
X007893Y006657D01*
X007882Y006657D01*
X007882Y006682D01*
X007685Y006879D01*
X007660Y006879D01*
X007660Y006904D01*
X007462Y007102D01*
X007379Y007102D01*
X006903Y006626D01*
X006903Y006543D01*
X007022Y006424D01*
X007008Y006424D01*
X006766Y006666D01*
X006683Y006666D01*
X006607Y006590D01*
X005980Y007217D01*
X005980Y007254D01*
X005851Y007382D01*
X005668Y007382D01*
X005540Y007254D01*
X005540Y007071D01*
X005668Y006942D01*
X005830Y006942D01*
X006394Y006378D01*
X006318Y006302D01*
X006318Y006219D01*
X006655Y005882D01*
X006738Y005882D01*
X006980Y006124D01*
X007087Y006124D01*
X006791Y005828D01*
X006791Y005745D01*
X007044Y005493D01*
X006643Y005493D01*
X006286Y005850D01*
X006286Y006088D01*
X006227Y006147D01*
X005711Y006147D01*
X005653Y006088D01*
X005653Y006079D01*
X005647Y006101D01*
X005628Y006133D01*
X005602Y006159D01*
X005570Y006177D01*
X005535Y006187D01*
X005340Y006187D01*
X005340Y005890D01*
X005260Y005890D01*
X005260Y006187D01*
X005065Y006187D01*
X005029Y006177D01*
X004997Y006159D01*
X004971Y006133D01*
X004953Y006101D01*
X004943Y006065D01*
X004943Y005890D01*
X005260Y005890D01*
X005260Y005810D01*
X005340Y005810D01*
X005340Y005513D01*
X005535Y005513D01*
X005570Y005523D01*
X005602Y005541D01*
X005628Y005567D01*
X005647Y005599D01*
X005653Y005621D01*
X005653Y005612D01*
X005711Y005553D01*
X006159Y005553D01*
X006411Y005301D01*
X006411Y004761D01*
X006470Y004703D01*
X007182Y004703D01*
X007241Y004761D01*
X007241Y004948D01*
X007499Y004948D01*
X007587Y005036D01*
X008006Y005455D01*
X008016Y005455D01*
X008016Y005444D01*
X006947Y004375D01*
X005379Y004375D01*
X005001Y003997D01*
X004462Y003997D01*
X004403Y003939D01*
X004403Y003265D01*
X004462Y003207D01*
X005001Y003207D01*
X005275Y002933D01*
X005275Y002677D01*
X005334Y002618D01*
X005343Y002618D01*
X005321Y002612D01*
X005289Y002594D01*
X005263Y002568D01*
X005245Y002536D01*
X005235Y002500D01*
X005235Y002305D01*
X005532Y002305D01*
X005532Y002225D01*
X005612Y002225D01*
X005612Y001909D01*
X005787Y001909D01*
X005823Y001918D01*
X005855Y001937D01*
X005881Y001963D01*
X005899Y001995D01*
X005909Y002030D01*
X005909Y002225D01*
X005612Y002225D01*
X005612Y002305D01*
X005909Y002305D01*
X005909Y002500D01*
X005899Y002536D01*
X005881Y002568D01*
X005855Y002594D01*
X005823Y002612D01*
X005801Y002618D01*
X005810Y002618D01*
X005869Y002677D01*
X005869Y003193D01*
X005810Y003251D01*
X005381Y003251D01*
X005233Y003399D01*
X005233Y003805D01*
X005503Y004075D01*
X007072Y004075D01*
X007160Y004163D01*
X008229Y005232D01*
X008239Y005232D01*
X008239Y005221D01*
X007947Y004929D01*
X007860Y004842D01*
X007860Y004100D01*
X008610Y003350D01*
X008697Y003262D01*
X009098Y003262D01*
X009168Y003192D01*
X009351Y003192D01*
X009480Y003321D01*
X009480Y003504D01*
X009351Y003632D01*
X009168Y003632D01*
X009098Y003562D01*
X008822Y003562D01*
X008160Y004225D01*
X008160Y004717D01*
X008451Y005009D01*
X008462Y005009D01*
X008462Y004999D01*
X008322Y004859D01*
X008235Y004771D01*
X008235Y004288D01*
X008160Y004288D01*
X008235Y004288D02*
X008797Y003725D01*
X008885Y003637D01*
X010322Y003637D01*
X010477Y003483D01*
X010477Y003384D01*
X010606Y003255D01*
X010788Y003255D01*
X010860Y003327D01*
X010860Y003243D01*
X011157Y003243D01*
X011157Y003163D01*
X010860Y003163D01*
X010860Y002968D01*
X010870Y002932D01*
X010888Y002900D01*
X010914Y002874D01*
X010946Y002856D01*
X010982Y002846D01*
X011157Y002846D01*
X011157Y003163D01*
X011237Y003163D01*
X011237Y003243D01*
X011534Y003243D01*
X011534Y003438D01*
X011524Y003473D01*
X011506Y003505D01*
X011480Y003531D01*
X011448Y003550D01*
X011426Y003556D01*
X011435Y003556D01*
X011494Y003614D01*
X011494Y004130D01*
X011435Y004189D01*
X011347Y004189D01*
X011347Y004192D01*
X011476Y004192D01*
X011568Y004285D01*
X011568Y004134D01*
X011627Y004075D01*
X012142Y004075D01*
X012201Y004134D01*
X012201Y004222D01*
X012469Y004222D01*
X012847Y004600D01*
X012847Y005064D01*
X012917Y005134D01*
X012917Y005316D01*
X012788Y005445D01*
X012606Y005445D01*
X012477Y005316D01*
X012477Y005134D01*
X012547Y005064D01*
X012547Y004725D01*
X012345Y004522D01*
X012201Y004522D01*
X012201Y004610D01*
X012142Y004669D01*
X011887Y004669D01*
X011557Y004999D01*
X011557Y005009D01*
X011582Y005009D01*
X011780Y005207D01*
X011780Y005232D01*
X011805Y005232D01*
X012003Y005430D01*
X012003Y005455D01*
X012027Y005455D01*
X012225Y005652D01*
X012225Y005677D01*
X012250Y005677D01*
X012448Y005875D01*
X012448Y005900D01*
X012473Y005900D01*
X012671Y006098D01*
X012671Y006123D01*
X012696Y006123D01*
X012893Y006320D01*
X012893Y006345D01*
X012918Y006345D01*
X013116Y006543D01*
X013116Y006626D01*
X012984Y006758D01*
X013124Y006898D01*
X013258Y006764D01*
X013259Y006764D01*
X013259Y006747D01*
X013268Y006711D01*
X013287Y006679D01*
X013434Y006532D01*
X013728Y006825D01*
X013784Y006769D01*
X013491Y006475D01*
X013638Y006328D01*
X013670Y006309D01*
X013706Y006300D01*
X013742Y006300D01*
X013778Y006309D01*
X013810Y006328D01*
X014017Y006535D01*
X013784Y006769D01*
X013841Y006825D01*
X014074Y006592D01*
X014282Y006799D01*
X014300Y006831D01*
X014310Y006867D01*
X014310Y006904D01*
X014300Y006939D01*
X014282Y006971D01*
X014134Y007119D01*
X013841Y006825D01*
X013784Y006882D01*
X014078Y007175D01*
X013930Y007323D01*
X013898Y007341D01*
X013863Y007351D01*
X013845Y007351D01*
X013759Y007437D01*
X013773Y007451D01*
X013816Y007408D01*
X013899Y007408D01*
X014263Y007773D01*
X014263Y007856D01*
X013926Y008193D01*
X013844Y008193D01*
X013479Y007828D01*
X013479Y007745D01*
X013561Y007663D01*
X013547Y007649D01*
X013461Y007735D01*
X013379Y007735D01*
X012875Y007231D01*
X012875Y007148D01*
X012912Y007110D01*
X012772Y006970D01*
X012640Y007102D01*
X012557Y007102D01*
X012359Y006904D01*
X012359Y006879D01*
X012334Y006879D01*
X012137Y006682D01*
X012137Y006657D01*
X012112Y006657D01*
X011914Y006459D01*
X011914Y006434D01*
X011889Y006434D01*
X011691Y006236D01*
X011691Y006211D01*
X011666Y006211D01*
X011468Y006014D01*
X011468Y005989D01*
X011444Y005989D01*
X011246Y005791D01*
X011246Y005766D01*
X011235Y005766D01*
X011105Y005897D01*
X011105Y006004D01*
X010976Y006132D01*
X010793Y006132D01*
X010665Y006004D01*
X010665Y005821D01*
X010793Y005692D01*
X010884Y005692D01*
X011023Y005554D01*
X011023Y005543D01*
X010998Y005543D01*
X010800Y005345D01*
X010800Y005321D01*
X010775Y005321D01*
X010578Y005123D01*
X010578Y005098D01*
X010553Y005098D01*
X010370Y004915D01*
X010353Y004915D01*
X010317Y004906D01*
X010285Y004887D01*
X010209Y004811D01*
X010511Y004510D01*
X010498Y004497D01*
X010196Y004798D01*
X010120Y004722D01*
X010102Y004690D01*
X010092Y004654D01*
X010092Y004617D01*
X010102Y004582D01*
X010120Y004550D01*
X010336Y004335D01*
X010498Y004497D01*
X010511Y004484D01*
X010524Y004497D01*
X010825Y004195D01*
X010901Y004272D01*
X010919Y004303D01*
X010923Y004317D01*
X011047Y004194D01*
X011047Y004189D01*
X010959Y004189D01*
X010900Y004130D01*
X010900Y003614D01*
X010959Y003556D01*
X010968Y003556D01*
X010946Y003550D01*
X010917Y003533D01*
X010917Y003566D01*
X010788Y003695D01*
X010689Y003695D01*
X010447Y003937D01*
X009009Y003937D01*
X008535Y004412D01*
X008535Y004647D01*
X008674Y004786D01*
X008685Y004786D01*
X008685Y004761D01*
X008882Y004564D01*
X008907Y004564D01*
X008907Y004539D01*
X009105Y004341D01*
X009130Y004341D01*
X009130Y004316D01*
X009328Y004118D01*
X009411Y004118D01*
X009887Y004594D01*
X009887Y004677D01*
X009689Y004875D01*
X009664Y004875D01*
X009664Y004900D01*
X009466Y005098D01*
X009441Y005098D01*
X009441Y005123D01*
X009244Y005321D01*
X009219Y005321D01*
X009219Y005345D01*
X009021Y005543D01*
X008996Y005543D01*
X008996Y005568D01*
X008798Y005766D01*
X008773Y005766D01*
X008773Y005791D01*
X008575Y005989D01*
X008551Y005989D01*
X008551Y006014D01*
X008368Y006196D01*
X008368Y006213D01*
X008358Y006249D01*
X008340Y006281D01*
X008264Y006357D01*
X007962Y006056D01*
X007949Y006069D01*
X008251Y006370D01*
X008175Y006446D01*
X008143Y006465D01*
X008129Y006468D01*
X008216Y006556D01*
X008415Y006358D01*
X008415Y006321D01*
X008543Y006192D01*
X008726Y006192D01*
X008855Y006321D01*
X008855Y006504D01*
X008726Y006632D01*
X008564Y006632D01*
X008429Y006768D01*
X008947Y007286D01*
X009035Y007374D01*
X009035Y007850D01*
X010166Y008982D01*
X010235Y008913D01*
X010322Y008825D01*
X011860Y007288D01*
X011947Y007200D01*
X012424Y007200D01*
X012571Y007348D01*
X012640Y007348D01*
X013116Y007824D01*
X013116Y007892D01*
X013224Y008000D01*
X013343Y007882D01*
X013425Y007882D01*
X013790Y008247D01*
X013790Y008329D01*
X013453Y008666D01*
X013370Y008666D01*
X013006Y008302D01*
X013006Y008219D01*
X013012Y008212D01*
X012928Y008128D01*
X012924Y008142D01*
X012905Y008174D01*
X012829Y008250D01*
X012528Y007949D01*
X012515Y007962D01*
X012816Y008263D01*
X012740Y008339D01*
X012708Y008358D01*
X012673Y008367D01*
X012656Y008367D01*
X012473Y008550D01*
X012448Y008550D01*
X012448Y008575D01*
X012250Y008773D01*
X012225Y008773D01*
X012225Y008797D01*
X012205Y008817D01*
X012351Y008817D01*
X012421Y008887D01*
X013385Y008887D01*
X014547Y007725D01*
X014547Y007011D01*
X014477Y006941D01*
X014477Y006759D01*
X014606Y006630D01*
X014788Y006630D01*
X014917Y006759D01*
X014917Y006941D01*
X014847Y007011D01*
X014847Y007850D01*
X014759Y007937D01*
X013509Y009187D01*
X013043Y009187D01*
X013048Y009192D01*
X013066Y009224D01*
X013076Y009260D01*
X013076Y009435D01*
X012759Y009435D01*
X012759Y009515D01*
X013076Y009515D01*
X013076Y009690D01*
X013068Y009719D01*
X014023Y009719D01*
X014082Y009778D01*
X014082Y010491D01*
X014023Y010549D01*
X012996Y010549D01*
X012937Y010491D01*
X012937Y009812D01*
X012769Y009812D01*
X012769Y010491D01*
X012711Y010549D01*
X011683Y010549D01*
X011625Y010491D01*
X011625Y009822D01*
X011509Y009937D01*
X011174Y009937D01*
X011146Y009910D01*
X011142Y009924D01*
X011124Y009956D01*
X011048Y010032D01*
X010746Y009730D01*
X010733Y009743D01*
X011035Y010045D01*
X010958Y010121D01*
X010927Y010139D01*
X010891Y010149D01*
X010874Y010149D01*
X010691Y010331D01*
X010608Y010331D01*
X010476Y010199D01*
X010440Y010236D01*
X010540Y010336D01*
X010540Y010419D01*
X010534Y010425D01*
X010553Y010414D01*
X010589Y010404D01*
X010626Y010404D01*
X010661Y010414D01*
X010693Y010432D01*
X010831Y010570D01*
X010621Y010780D01*
X010678Y010837D01*
X010621Y010893D01*
X010565Y010837D01*
X010355Y011046D01*
X010217Y010909D01*
X010198Y010877D01*
X010189Y010841D01*
X010189Y010804D01*
X010198Y010769D01*
X010210Y010749D01*
X010203Y010756D01*
X010120Y010756D01*
X009756Y010391D01*
X009756Y010308D01*
X010093Y009971D01*
X010175Y009971D01*
X010228Y010024D01*
X010264Y009987D01*
X010132Y009855D01*
X010132Y009787D01*
X009947Y009602D01*
X009860Y009514D01*
X009860Y009288D01*
X009954Y009194D01*
X008885Y008125D01*
X008551Y008459D01*
X008551Y008461D01*
X008575Y008461D01*
X008758Y008644D01*
X008775Y008644D01*
X008811Y008653D01*
X008843Y008672D01*
X008919Y008748D01*
X008618Y009049D01*
X008631Y009062D01*
X008932Y008761D01*
X009008Y008837D01*
X009026Y008869D01*
X009036Y008905D01*
X009036Y008922D01*
X009219Y009104D01*
X009219Y009129D01*
X009244Y009129D01*
X009441Y009327D01*
X009441Y009352D01*
X009466Y009352D01*
X009664Y009550D01*
X009664Y009575D01*
X009689Y009575D01*
X009887Y009772D01*
X009887Y009855D01*
X009411Y010331D01*
X009342Y010331D01*
X009167Y010507D01*
X009167Y010629D01*
X009038Y010757D01*
X008856Y010757D01*
X008727Y010629D01*
X008727Y010501D01*
X008723Y010505D01*
X008723Y010901D01*
X008665Y010959D01*
X008149Y010959D01*
X008090Y010901D01*
X008090Y010892D01*
X008084Y010913D01*
X008066Y010945D01*
X008040Y010971D01*
X008008Y010990D01*
X007972Y010999D01*
X007777Y010999D01*
X007777Y010702D01*
X007697Y010702D01*
X007697Y010622D01*
X007777Y010622D01*
X007777Y010326D01*
X007972Y010326D01*
X008008Y010335D01*
X008040Y010354D01*
X008066Y010380D01*
X008084Y010412D01*
X008090Y010433D01*
X008090Y010424D01*
X008149Y010366D01*
X008438Y010366D01*
X008907Y009897D01*
X008907Y009886D01*
X008897Y009886D01*
X008558Y010225D01*
X008470Y010312D01*
X007266Y010312D01*
X007266Y010420D01*
X007211Y010475D01*
X007266Y010529D01*
X007266Y011045D01*
X007207Y011104D01*
X007080Y011104D01*
X007080Y011155D01*
X007129Y011155D01*
X007187Y011213D01*
X007187Y011611D01*
X007129Y011670D01*
X006731Y011670D01*
X006672Y011611D01*
X006672Y011213D01*
X006731Y011155D01*
X006780Y011155D01*
X006780Y011104D01*
X006731Y011104D01*
X006672Y011045D01*
X006672Y010529D01*
X006727Y010475D01*
X006672Y010420D01*
X006672Y009904D01*
X006696Y009881D01*
X006672Y009858D01*
X006672Y009342D01*
X006731Y009283D01*
X007037Y009283D01*
X006535Y008781D01*
X006535Y008762D02*
X003837Y008762D01*
X003837Y008684D02*
X003852Y008684D01*
X004228Y008684D02*
X004308Y008684D01*
X004308Y008605D02*
X004228Y008605D01*
X004228Y008527D02*
X004308Y008527D01*
X004308Y008448D02*
X004228Y008448D01*
X004228Y008370D02*
X004308Y008370D01*
X004308Y008291D02*
X004228Y008291D01*
X004308Y008213D02*
X005993Y008213D01*
X005951Y008254D02*
X006159Y008462D01*
X006191Y008480D01*
X006226Y008490D01*
X006263Y008490D01*
X006299Y008480D01*
X006331Y008462D01*
X006510Y008282D01*
X006217Y007989D01*
X006274Y007932D01*
X006273Y007932D02*
X006539Y007667D01*
X006747Y007874D01*
X006765Y007906D01*
X006775Y007942D01*
X006775Y007979D01*
X006765Y008014D01*
X006747Y008046D01*
X006567Y008226D01*
X006274Y007932D01*
X006273Y007932D02*
X006217Y007876D01*
X006483Y007610D01*
X006275Y007403D01*
X006243Y007384D01*
X006208Y007375D01*
X006171Y007375D01*
X006135Y007384D01*
X006103Y007403D01*
X005924Y007582D01*
X006217Y007876D01*
X006160Y007932D01*
X005867Y007639D01*
X005687Y007819D01*
X005669Y007850D01*
X005659Y007886D01*
X005659Y007923D01*
X005669Y007959D01*
X005687Y007990D01*
X005895Y008198D01*
X006160Y007932D01*
X006217Y007989D01*
X005951Y008254D01*
X005988Y008291D02*
X004782Y008291D01*
X004782Y008370D02*
X006067Y008370D01*
X006145Y008448D02*
X004782Y008448D01*
X004782Y008527D02*
X006706Y008527D01*
X006784Y008448D02*
X006344Y008448D01*
X006423Y008370D02*
X006863Y008370D01*
X006941Y008291D02*
X006501Y008291D01*
X006554Y008213D02*
X006441Y008213D01*
X006476Y008134D02*
X006362Y008134D01*
X006397Y008056D02*
X006284Y008056D01*
X006319Y007977D02*
X006228Y007977D01*
X006205Y007977D02*
X006115Y007977D01*
X006127Y007899D02*
X006194Y007899D01*
X006240Y007899D02*
X006307Y007899D01*
X006272Y007820D02*
X006385Y007820D01*
X006351Y007742D02*
X006464Y007742D01*
X006429Y007663D02*
X007007Y007663D01*
X006985Y007742D02*
X006614Y007742D01*
X006693Y007820D02*
X006906Y007820D01*
X006903Y007899D02*
X006761Y007899D01*
X006775Y007977D02*
X006974Y007977D01*
X007052Y008056D02*
X006737Y008056D01*
X006658Y008134D02*
X007131Y008134D01*
X007209Y008213D02*
X006580Y008213D01*
X007107Y008291D02*
X007288Y008291D01*
X007366Y008370D02*
X007186Y008370D01*
X007264Y008448D02*
X007445Y008448D01*
X007523Y008527D02*
X007343Y008527D01*
X007421Y008605D02*
X007602Y008605D01*
X007680Y008684D02*
X007500Y008684D01*
X007570Y008762D02*
X007723Y008762D01*
X007645Y008841D02*
X007565Y008841D01*
X007602Y008919D02*
X007487Y008919D01*
X007495Y008998D02*
X007602Y008998D01*
X007306Y009233D02*
X007173Y009233D01*
X007207Y009283D02*
X007123Y009283D01*
X007239Y009167D01*
X007447Y009375D01*
X008072Y009375D01*
X008160Y009287D01*
X008205Y009242D01*
X008209Y009255D01*
X008227Y009287D01*
X008303Y009364D01*
X008605Y009062D01*
X008618Y009075D01*
X008316Y009377D01*
X008390Y009450D01*
X007266Y009450D01*
X007266Y009342D01*
X007207Y009283D01*
X007236Y009312D02*
X007384Y009312D01*
X007266Y009390D02*
X008330Y009390D01*
X008355Y009312D02*
X008381Y009312D01*
X008433Y009233D02*
X008459Y009233D01*
X008512Y009155D02*
X008538Y009155D01*
X008590Y009076D02*
X008616Y009076D01*
X008669Y008998D02*
X008695Y008998D01*
X008747Y008919D02*
X008773Y008919D01*
X008826Y008841D02*
X008852Y008841D01*
X008904Y008762D02*
X008930Y008762D01*
X008933Y008762D02*
X009522Y008762D01*
X009444Y008684D02*
X008855Y008684D01*
X008720Y008605D02*
X009365Y008605D01*
X009287Y008527D02*
X008641Y008527D01*
X008561Y008448D02*
X009208Y008448D01*
X009130Y008370D02*
X008639Y008370D01*
X008718Y008291D02*
X009051Y008291D01*
X008973Y008213D02*
X008796Y008213D01*
X008875Y008134D02*
X008894Y008134D01*
X009083Y007899D02*
X011248Y007899D01*
X011170Y007977D02*
X009162Y007977D01*
X009240Y008056D02*
X011091Y008056D01*
X011013Y008134D02*
X009319Y008134D01*
X009397Y008213D02*
X010934Y008213D01*
X010856Y008291D02*
X009476Y008291D01*
X009554Y008370D02*
X010777Y008370D01*
X010699Y008448D02*
X009633Y008448D01*
X009711Y008527D02*
X010620Y008527D01*
X010542Y008605D02*
X009790Y008605D01*
X009868Y008684D02*
X010463Y008684D01*
X010385Y008762D02*
X009947Y008762D01*
X010025Y008841D02*
X010306Y008841D01*
X010228Y008919D02*
X010104Y008919D01*
X009915Y009155D02*
X009269Y009155D01*
X009191Y009076D02*
X009836Y009076D01*
X009758Y008998D02*
X009112Y008998D01*
X009036Y008919D02*
X009679Y008919D01*
X009601Y008841D02*
X009010Y008841D01*
X009348Y009233D02*
X009914Y009233D01*
X009860Y009312D02*
X009426Y009312D01*
X009505Y009390D02*
X009860Y009390D01*
X009860Y009469D02*
X009583Y009469D01*
X009662Y009547D02*
X009893Y009547D01*
X009971Y009626D02*
X009740Y009626D01*
X009819Y009704D02*
X010050Y009704D01*
X010128Y009783D02*
X009887Y009783D01*
X009881Y009861D02*
X010138Y009861D01*
X010217Y009940D02*
X009802Y009940D01*
X009724Y010018D02*
X010045Y010018D01*
X009967Y010097D02*
X009645Y010097D01*
X009567Y010175D02*
X009888Y010175D01*
X009810Y010254D02*
X009488Y010254D01*
X009341Y010332D02*
X009756Y010332D01*
X009776Y010411D02*
X009263Y010411D01*
X009184Y010489D02*
X009854Y010489D01*
X009933Y010568D02*
X009167Y010568D01*
X009149Y010646D02*
X010011Y010646D01*
X010090Y010725D02*
X009071Y010725D01*
X008823Y010725D02*
X008723Y010725D01*
X008723Y010803D02*
X010189Y010803D01*
X010201Y010882D02*
X008723Y010882D01*
X008723Y010646D02*
X008745Y010646D01*
X008727Y010568D02*
X008723Y010568D01*
X008472Y010332D02*
X007998Y010332D01*
X008084Y010411D02*
X008103Y010411D01*
X007777Y010411D02*
X007697Y010411D01*
X007697Y010489D02*
X007777Y010489D01*
X007777Y010568D02*
X007697Y010568D01*
X007697Y010622D02*
X007697Y010326D01*
X007502Y010326D01*
X007467Y010335D01*
X007435Y010354D01*
X007409Y010380D01*
X007390Y010412D01*
X007381Y010447D01*
X007381Y010622D01*
X007697Y010622D01*
X007697Y010646D02*
X007266Y010646D01*
X007266Y010568D02*
X007381Y010568D01*
X007381Y010489D02*
X007226Y010489D01*
X007266Y010411D02*
X007391Y010411D01*
X007477Y010332D02*
X007266Y010332D01*
X007697Y010332D02*
X007777Y010332D01*
X007697Y010702D02*
X007381Y010702D01*
X007381Y010878D01*
X007390Y010913D01*
X007409Y010945D01*
X007435Y010971D01*
X007467Y010990D01*
X007502Y010999D01*
X007697Y010999D01*
X007697Y010702D01*
X007697Y010725D02*
X007777Y010725D01*
X007777Y010803D02*
X007697Y010803D01*
X007697Y010882D02*
X007777Y010882D01*
X007777Y010960D02*
X007697Y010960D01*
X007424Y010960D02*
X007266Y010960D01*
X007266Y010882D02*
X007382Y010882D01*
X007381Y010803D02*
X007266Y010803D01*
X007266Y010725D02*
X007381Y010725D01*
X007266Y011039D02*
X010347Y011039D01*
X010362Y011039D02*
X010475Y011039D01*
X010441Y010960D02*
X010554Y010960D01*
X010519Y010882D02*
X010610Y010882D01*
X010621Y010893D02*
X010411Y011103D01*
X010549Y011241D01*
X010581Y011259D01*
X010617Y011269D01*
X010653Y011269D01*
X010689Y011259D01*
X010721Y011241D01*
X010845Y011117D01*
X010621Y010893D01*
X010632Y010882D02*
X010723Y010882D01*
X010678Y010837D02*
X010902Y011060D01*
X011025Y010936D01*
X011044Y010904D01*
X011053Y010869D01*
X011053Y010832D01*
X011044Y010796D01*
X011025Y010764D01*
X010888Y010627D01*
X010678Y010837D01*
X010645Y010803D02*
X010711Y010803D01*
X010676Y010725D02*
X010789Y010725D01*
X010755Y010646D02*
X010868Y010646D01*
X010907Y010646D02*
X015447Y010646D01*
X015447Y010568D02*
X010829Y010568D01*
X010750Y010489D02*
X011625Y010489D01*
X011625Y010411D02*
X010651Y010411D01*
X010564Y010411D02*
X010540Y010411D01*
X010537Y010332D02*
X011625Y010332D01*
X011625Y010254D02*
X010769Y010254D01*
X010847Y010175D02*
X011625Y010175D01*
X011625Y010097D02*
X010982Y010097D01*
X011008Y010018D02*
X011034Y010018D01*
X011061Y010018D02*
X011625Y010018D01*
X011625Y009940D02*
X011133Y009940D01*
X010956Y009940D02*
X010930Y009940D01*
X010877Y009861D02*
X010851Y009861D01*
X010799Y009783D02*
X010773Y009783D01*
X010720Y009730D02*
X010733Y009717D01*
X010432Y009416D01*
X010508Y009340D01*
X010527Y009329D01*
X010385Y009187D01*
X010228Y009344D01*
X010171Y009401D01*
X010321Y009551D01*
X010324Y009537D01*
X010343Y009505D01*
X010419Y009429D01*
X010720Y009730D01*
X010720Y009704D02*
X010694Y009704D01*
X010642Y009626D02*
X010616Y009626D01*
X010563Y009547D02*
X010537Y009547D01*
X010485Y009469D02*
X010459Y009469D01*
X010458Y009390D02*
X010181Y009390D01*
X010239Y009469D02*
X010379Y009469D01*
X010322Y009547D02*
X010317Y009547D01*
X010260Y009312D02*
X010509Y009312D01*
X010431Y009233D02*
X010338Y009233D01*
X010597Y008975D02*
X010763Y009141D01*
X010775Y009129D01*
X010800Y009129D01*
X010800Y009104D01*
X010998Y008907D01*
X011023Y008907D01*
X011023Y008882D01*
X011221Y008684D01*
X011246Y008684D01*
X011246Y008659D01*
X011444Y008461D01*
X011468Y008461D01*
X011468Y008436D01*
X011666Y008238D01*
X011691Y008238D01*
X011691Y008214D01*
X011889Y008016D01*
X011914Y008016D01*
X011914Y007991D01*
X012097Y007808D01*
X012097Y007791D01*
X012106Y007755D01*
X012125Y007724D01*
X012201Y007647D01*
X012502Y007949D01*
X012515Y007936D01*
X012214Y007634D01*
X012290Y007558D01*
X012322Y007540D01*
X012336Y007536D01*
X012299Y007500D01*
X012072Y007500D01*
X010597Y008975D01*
X010620Y008998D02*
X010907Y008998D01*
X010985Y008919D02*
X010652Y008919D01*
X010731Y008841D02*
X011064Y008841D01*
X011142Y008762D02*
X010809Y008762D01*
X010888Y008684D02*
X011221Y008684D01*
X011299Y008605D02*
X010966Y008605D01*
X011045Y008527D02*
X011378Y008527D01*
X011468Y008448D02*
X011123Y008448D01*
X011202Y008370D02*
X011535Y008370D01*
X011613Y008291D02*
X011280Y008291D01*
X011359Y008213D02*
X011692Y008213D01*
X011770Y008134D02*
X011437Y008134D01*
X011516Y008056D02*
X011849Y008056D01*
X011927Y007977D02*
X011594Y007977D01*
X011673Y007899D02*
X012006Y007899D01*
X012084Y007820D02*
X011751Y007820D01*
X011830Y007742D02*
X012114Y007742D01*
X012185Y007663D02*
X011908Y007663D01*
X011987Y007585D02*
X012263Y007585D01*
X012243Y007663D02*
X012217Y007663D01*
X012295Y007742D02*
X012321Y007742D01*
X012374Y007820D02*
X012400Y007820D01*
X012452Y007899D02*
X012478Y007899D01*
X012531Y007977D02*
X012557Y007977D01*
X012609Y008056D02*
X012635Y008056D01*
X012688Y008134D02*
X012714Y008134D01*
X012766Y008213D02*
X012792Y008213D01*
X012866Y008213D02*
X013011Y008213D01*
X013006Y008291D02*
X012788Y008291D01*
X012653Y008370D02*
X013074Y008370D01*
X013152Y008448D02*
X012574Y008448D01*
X012496Y008527D02*
X013231Y008527D01*
X013309Y008605D02*
X012417Y008605D01*
X012339Y008684D02*
X013588Y008684D01*
X013514Y008605D02*
X013667Y008605D01*
X013593Y008527D02*
X013745Y008527D01*
X013671Y008448D02*
X013824Y008448D01*
X013750Y008370D02*
X013902Y008370D01*
X013981Y008291D02*
X013790Y008291D01*
X013757Y008213D02*
X014059Y008213D01*
X013985Y008134D02*
X014138Y008134D01*
X014064Y008056D02*
X014216Y008056D01*
X014142Y007977D02*
X014295Y007977D01*
X014221Y007899D02*
X014373Y007899D01*
X014452Y007820D02*
X014263Y007820D01*
X014232Y007742D02*
X014530Y007742D01*
X014547Y007663D02*
X014154Y007663D01*
X014075Y007585D02*
X014547Y007585D01*
X014547Y007506D02*
X013997Y007506D01*
X013918Y007428D02*
X014547Y007428D01*
X014547Y007349D02*
X013867Y007349D01*
X013845Y007351D02*
X013845Y007351D01*
X013796Y007428D02*
X013768Y007428D01*
X013982Y007271D02*
X014547Y007271D01*
X014547Y007192D02*
X014060Y007192D01*
X014016Y007114D02*
X014129Y007114D01*
X014139Y007114D02*
X014547Y007114D01*
X014547Y007035D02*
X014217Y007035D01*
X014290Y006957D02*
X014493Y006957D01*
X014477Y006878D02*
X014310Y006878D01*
X014282Y006800D02*
X014477Y006800D01*
X014514Y006721D02*
X014204Y006721D01*
X014125Y006643D02*
X014593Y006643D01*
X014801Y006643D02*
X015447Y006643D01*
X015447Y006721D02*
X014880Y006721D01*
X014917Y006800D02*
X015447Y006800D01*
X015447Y006878D02*
X014917Y006878D01*
X014901Y006957D02*
X015447Y006957D01*
X015447Y007035D02*
X014847Y007035D01*
X014847Y007114D02*
X015447Y007114D01*
X015447Y007192D02*
X014847Y007192D01*
X014847Y007271D02*
X015447Y007271D01*
X015447Y007349D02*
X014847Y007349D01*
X014847Y007428D02*
X015447Y007428D01*
X015447Y007506D02*
X014847Y007506D01*
X014847Y007585D02*
X015447Y007585D01*
X015447Y007663D02*
X014847Y007663D01*
X014847Y007742D02*
X015447Y007742D01*
X015447Y007820D02*
X014847Y007820D01*
X014798Y007899D02*
X015447Y007899D01*
X015447Y007977D02*
X014719Y007977D01*
X014641Y008056D02*
X015447Y008056D01*
X015447Y008134D02*
X014562Y008134D01*
X014484Y008213D02*
X015447Y008213D01*
X015447Y008291D02*
X014405Y008291D01*
X014327Y008370D02*
X015447Y008370D01*
X015447Y008448D02*
X014248Y008448D01*
X014170Y008527D02*
X015447Y008527D01*
X015447Y008605D02*
X014091Y008605D01*
X014013Y008684D02*
X015447Y008684D01*
X015447Y008762D02*
X013934Y008762D01*
X013856Y008841D02*
X015447Y008841D01*
X015447Y008919D02*
X013777Y008919D01*
X013699Y008998D02*
X015447Y008998D01*
X015447Y009076D02*
X013620Y009076D01*
X013542Y009155D02*
X015447Y009155D01*
X015447Y009233D02*
X013069Y009233D01*
X013076Y009312D02*
X015447Y009312D01*
X015447Y009390D02*
X013076Y009390D01*
X013076Y009547D02*
X015447Y009547D01*
X015447Y009469D02*
X012759Y009469D01*
X013076Y009626D02*
X015447Y009626D01*
X015447Y009704D02*
X013072Y009704D01*
X012937Y009861D02*
X012769Y009861D01*
X012769Y009940D02*
X012937Y009940D01*
X012937Y010018D02*
X012769Y010018D01*
X012769Y010097D02*
X012937Y010097D01*
X012937Y010175D02*
X012769Y010175D01*
X012769Y010254D02*
X012937Y010254D01*
X012937Y010332D02*
X012769Y010332D01*
X012769Y010411D02*
X012937Y010411D01*
X012937Y010489D02*
X012769Y010489D01*
X012769Y010960D02*
X012937Y010960D01*
X012937Y011039D02*
X012769Y011039D01*
X012769Y011117D02*
X012937Y011117D01*
X012937Y011510D02*
X012769Y011510D01*
X012769Y011588D02*
X012937Y011588D01*
X012937Y011667D02*
X012769Y011667D01*
X012961Y012100D02*
X013020Y012158D01*
X013020Y012262D01*
X013128Y012262D01*
X013128Y012154D01*
X013187Y012096D01*
X013663Y012096D01*
X013722Y012154D01*
X013722Y012670D01*
X013663Y012729D01*
X013575Y012729D01*
X013575Y012781D01*
X013642Y012781D01*
X013701Y012839D01*
X013701Y013316D01*
X013642Y013375D01*
X013127Y013375D01*
X013068Y013316D01*
X013068Y012839D01*
X013127Y012781D01*
X013275Y012781D01*
X013275Y012729D01*
X013187Y012729D01*
X013128Y012670D01*
X013128Y012562D01*
X013020Y012562D01*
X013020Y012721D01*
X012961Y012780D01*
X011998Y012780D01*
X011940Y012721D01*
X011940Y012158D01*
X011998Y012100D01*
X012961Y012100D01*
X012999Y012138D02*
X013145Y012138D01*
X013128Y012216D02*
X013020Y012216D01*
X013020Y012609D02*
X013128Y012609D01*
X013145Y012687D02*
X013020Y012687D01*
X012975Y012766D02*
X013275Y012766D01*
X013068Y012844D02*
X010573Y012844D01*
X010573Y012766D02*
X011984Y012766D01*
X011940Y012687D02*
X010573Y012687D01*
X010573Y012609D02*
X011940Y012609D01*
X011940Y012530D02*
X010189Y012530D01*
X010189Y012452D02*
X011940Y012452D01*
X011940Y012373D02*
X010306Y012373D01*
X010306Y012295D02*
X011940Y012295D01*
X011940Y012216D02*
X010306Y012216D01*
X010306Y012138D02*
X011960Y012138D01*
X011625Y011667D02*
X010346Y011667D01*
X010346Y011588D02*
X011625Y011588D01*
X011625Y011510D02*
X010346Y011510D01*
X010346Y011413D02*
X010050Y011413D01*
X010050Y011096D01*
X010225Y011096D01*
X010260Y011106D01*
X010292Y011124D01*
X010318Y011150D01*
X010337Y011182D01*
X010346Y011218D01*
X010346Y011413D01*
X010346Y011353D02*
X011625Y011353D01*
X011625Y011431D02*
X010050Y011431D01*
X010050Y011353D02*
X009970Y011353D01*
X009970Y011413D02*
X009970Y011096D01*
X009794Y011096D01*
X009759Y011106D01*
X009727Y011124D01*
X009701Y011150D01*
X009682Y011182D01*
X009673Y011218D01*
X009673Y011413D01*
X009970Y011413D01*
X009970Y011431D02*
X007187Y011431D01*
X007187Y011353D02*
X009673Y011353D01*
X009673Y011274D02*
X007187Y011274D01*
X007170Y011196D02*
X009679Y011196D01*
X009738Y011117D02*
X007080Y011117D01*
X006780Y011117D02*
X006525Y011117D01*
X006515Y011115D02*
X006551Y011124D01*
X006583Y011143D01*
X006609Y011169D01*
X006627Y011201D01*
X006637Y011236D01*
X006637Y011374D01*
X006378Y011374D01*
X006378Y011451D01*
X006637Y011451D01*
X006637Y011588D01*
X006627Y011624D01*
X006609Y011656D01*
X006583Y011682D01*
X006551Y011700D01*
X006515Y011710D01*
X006378Y011710D01*
X006378Y011451D01*
X006300Y011451D01*
X006300Y011374D01*
X006042Y011374D01*
X006042Y011236D01*
X006051Y011201D01*
X006070Y011169D01*
X006096Y011143D01*
X006128Y011124D01*
X006163Y011115D01*
X006300Y011115D01*
X006300Y011374D01*
X006378Y011374D01*
X006378Y011115D01*
X006515Y011115D01*
X006597Y011039D02*
X006672Y011039D01*
X006672Y010960D02*
X006597Y010960D01*
X006597Y010882D02*
X006672Y010882D01*
X006672Y010803D02*
X006597Y010803D01*
X006597Y010725D02*
X006672Y010725D01*
X006672Y010646D02*
X006597Y010646D01*
X006597Y010568D02*
X006672Y010568D01*
X006712Y010489D02*
X006557Y010489D01*
X006597Y010411D02*
X006672Y010411D01*
X006672Y010332D02*
X006597Y010332D01*
X006597Y010254D02*
X006672Y010254D01*
X006672Y010175D02*
X006597Y010175D01*
X006597Y010097D02*
X006672Y010097D01*
X006672Y010018D02*
X006597Y010018D01*
X006597Y009940D02*
X006672Y009940D01*
X006676Y009861D02*
X006593Y009861D01*
X006597Y009783D02*
X006672Y009783D01*
X006672Y009704D02*
X006597Y009704D01*
X006597Y009626D02*
X006672Y009626D01*
X006672Y009547D02*
X006597Y009547D01*
X006597Y009469D02*
X006672Y009469D01*
X006672Y009390D02*
X006597Y009390D01*
X006567Y009312D02*
X006702Y009312D01*
X006908Y009155D02*
X005764Y009155D01*
X005766Y009233D02*
X006987Y009233D01*
X006830Y009076D02*
X005720Y009076D01*
X005766Y009312D02*
X006033Y009312D01*
X006003Y009390D02*
X005757Y009390D01*
X005726Y009469D02*
X005866Y009469D01*
X005787Y009547D02*
X005726Y009547D01*
X005351Y009233D02*
X005351Y009233D01*
X005351Y009155D02*
X005351Y009155D01*
X005351Y009076D02*
X005351Y009076D01*
X004944Y009390D02*
X004782Y009390D01*
X004782Y009469D02*
X004975Y009469D01*
X004975Y009547D02*
X004782Y009547D01*
X004782Y009626D02*
X004975Y009626D01*
X004975Y009704D02*
X004778Y009704D01*
X004754Y009783D02*
X004975Y009783D01*
X004975Y009861D02*
X004782Y009861D01*
X004782Y009940D02*
X004975Y009940D01*
X004975Y010018D02*
X004782Y010018D01*
X004782Y010097D02*
X004975Y010097D01*
X004975Y010175D02*
X004782Y010175D01*
X004308Y010411D02*
X004228Y010411D01*
X004228Y010489D02*
X004308Y010489D01*
X004308Y010568D02*
X004228Y010568D01*
X004228Y010646D02*
X004308Y010646D01*
X004308Y010725D02*
X004228Y010725D01*
X004228Y010803D02*
X004308Y010803D01*
X004308Y010882D02*
X004228Y010882D01*
X004228Y010960D02*
X004308Y010960D01*
X004308Y011039D02*
X004228Y011039D01*
X004228Y011117D02*
X004308Y011117D01*
X004308Y011196D02*
X004228Y011196D01*
X004782Y011353D02*
X005172Y011353D01*
X005172Y011431D02*
X004782Y011431D01*
X004782Y011510D02*
X005172Y011510D01*
X005172Y011588D02*
X004782Y011588D01*
X004782Y011667D02*
X005172Y011667D01*
X005172Y011745D02*
X004754Y011745D01*
X005472Y011745D02*
X007655Y011745D01*
X007655Y011667D02*
X007132Y011667D01*
X007187Y011588D02*
X007704Y011588D01*
X007655Y011824D02*
X005472Y011824D01*
X005472Y011902D02*
X007655Y011902D01*
X007655Y011981D02*
X007641Y011981D01*
X007362Y011981D02*
X007282Y011981D01*
X007282Y011909D02*
X007107Y011909D01*
X007071Y011918D01*
X007039Y011937D01*
X007013Y011963D01*
X006995Y011995D01*
X006985Y012030D01*
X006985Y012225D01*
X007282Y012225D01*
X007282Y011909D01*
X007282Y012059D02*
X007362Y012059D01*
X007362Y012138D02*
X007282Y012138D01*
X007282Y012216D02*
X007362Y012216D01*
X007282Y012295D02*
X006925Y012295D01*
X006925Y012373D02*
X006985Y012373D01*
X006985Y012452D02*
X006925Y012452D01*
X006925Y012469D02*
X006550Y012469D01*
X006550Y012054D01*
X006804Y012054D01*
X006839Y012064D01*
X006871Y012082D01*
X006897Y012108D01*
X006916Y012140D01*
X006925Y012176D01*
X006925Y012469D01*
X006993Y012530D02*
X006550Y012530D01*
X006550Y012452D02*
X006470Y012452D01*
X006470Y012469D02*
X006470Y012054D01*
X006215Y012054D01*
X006180Y012064D01*
X006148Y012082D01*
X006122Y012108D01*
X006103Y012140D01*
X006094Y012176D01*
X006094Y012469D01*
X006470Y012469D01*
X006470Y012373D02*
X006550Y012373D01*
X006550Y012295D02*
X006470Y012295D01*
X006470Y012216D02*
X006550Y012216D01*
X006550Y012138D02*
X006470Y012138D01*
X006470Y012059D02*
X006550Y012059D01*
X006822Y012059D02*
X006985Y012059D01*
X006985Y012138D02*
X006914Y012138D01*
X006925Y012216D02*
X006985Y012216D01*
X007003Y011981D02*
X005943Y011981D01*
X005954Y012059D02*
X006197Y012059D01*
X006105Y012138D02*
X005954Y012138D01*
X005954Y012216D02*
X006094Y012216D01*
X006094Y012295D02*
X005954Y012295D01*
X005954Y012373D02*
X006094Y012373D01*
X006094Y012452D02*
X005954Y012452D01*
X005954Y013080D02*
X007025Y013080D01*
X007025Y013158D02*
X005954Y013158D01*
X006925Y012844D02*
X007025Y012844D01*
X007025Y012766D02*
X006925Y012766D01*
X006925Y012687D02*
X007025Y012687D01*
X007065Y012609D02*
X006925Y012609D01*
X006728Y011667D02*
X006598Y011667D01*
X006637Y011588D02*
X006672Y011588D01*
X006672Y011510D02*
X006637Y011510D01*
X006672Y011431D02*
X006378Y011431D01*
X006300Y011431D02*
X005472Y011431D01*
X005472Y011353D02*
X006042Y011353D01*
X006042Y011274D02*
X005472Y011274D01*
X005472Y011196D02*
X006054Y011196D01*
X006154Y011117D02*
X005472Y011117D01*
X005472Y011039D02*
X006003Y011039D01*
X006003Y010960D02*
X005472Y010960D01*
X005472Y010882D02*
X006003Y010882D01*
X006300Y011117D02*
X006378Y011117D01*
X006378Y011196D02*
X006300Y011196D01*
X006300Y011274D02*
X006378Y011274D01*
X006378Y011353D02*
X006300Y011353D01*
X006300Y011451D02*
X006042Y011451D01*
X006042Y011588D01*
X006051Y011624D01*
X006070Y011656D01*
X006096Y011682D01*
X006128Y011700D01*
X006163Y011710D01*
X006300Y011710D01*
X006300Y011451D01*
X006300Y011510D02*
X006378Y011510D01*
X006378Y011588D02*
X006300Y011588D01*
X006300Y011667D02*
X006378Y011667D01*
X006081Y011667D02*
X005472Y011667D01*
X005472Y011588D02*
X006042Y011588D01*
X006042Y011510D02*
X005472Y011510D01*
X006637Y011353D02*
X006672Y011353D01*
X006672Y011274D02*
X006637Y011274D01*
X006624Y011196D02*
X006690Y011196D01*
X007187Y011510D02*
X009673Y011510D01*
X009673Y011588D02*
X009065Y011588D01*
X009114Y011667D02*
X009673Y011667D01*
X009695Y011745D02*
X009114Y011745D01*
X009114Y011824D02*
X009753Y011824D01*
X009713Y012138D02*
X009114Y012138D01*
X009114Y012216D02*
X009713Y012216D01*
X010306Y012059D02*
X013866Y012059D01*
X013879Y012056D02*
X014054Y012056D01*
X014054Y012372D01*
X014134Y012372D01*
X014134Y012056D01*
X014309Y012056D01*
X014345Y012065D01*
X014377Y012084D01*
X014403Y012110D01*
X014421Y012142D01*
X014431Y012177D01*
X014431Y012372D01*
X014134Y012372D01*
X014134Y012452D01*
X015447Y012452D01*
X015447Y012530D02*
X014431Y012530D01*
X014431Y012452D02*
X014431Y012647D01*
X014421Y012683D01*
X014403Y012715D01*
X014377Y012741D01*
X014345Y012759D01*
X014309Y012769D01*
X014134Y012769D01*
X014134Y012452D01*
X014431Y012452D01*
X014431Y012609D02*
X015447Y012609D01*
X015447Y012687D02*
X014419Y012687D01*
X014321Y012766D02*
X015447Y012766D01*
X015447Y012844D02*
X013701Y012844D01*
X013701Y012923D02*
X015447Y012923D01*
X015447Y013001D02*
X013701Y013001D01*
X013701Y013080D02*
X015093Y013080D01*
X015040Y013158D02*
X013701Y013158D01*
X013701Y013237D02*
X015035Y013237D01*
X014957Y013315D02*
X013701Y013315D01*
X013665Y013472D02*
X014800Y013472D01*
X014878Y013394D02*
X013020Y013394D01*
X013020Y013472D02*
X013104Y013472D01*
X013068Y013551D02*
X013020Y013551D01*
X013020Y013629D02*
X013068Y013629D01*
X013020Y013631D02*
X012961Y013690D01*
X011998Y013690D01*
X011940Y013631D01*
X011940Y013068D01*
X011998Y013010D01*
X012961Y013010D01*
X013020Y013068D01*
X013020Y013631D01*
X013068Y013708D02*
X010610Y013708D01*
X010573Y013629D02*
X011940Y013629D01*
X011940Y013551D02*
X010573Y013551D01*
X010573Y013472D02*
X011940Y013472D01*
X011940Y013394D02*
X010573Y013394D01*
X010573Y013315D02*
X011940Y013315D01*
X011940Y013237D02*
X010573Y013237D01*
X010573Y013158D02*
X011940Y013158D01*
X011940Y013080D02*
X010573Y013080D01*
X010573Y013001D02*
X013068Y013001D01*
X013068Y012923D02*
X010573Y012923D01*
X010688Y013786D02*
X013068Y013786D01*
X013054Y013865D02*
X010767Y013865D01*
X010845Y013943D02*
X011975Y013943D01*
X011940Y014022D02*
X010924Y014022D01*
X011002Y014100D02*
X011940Y014100D01*
X011940Y014179D02*
X011081Y014179D01*
X011159Y014257D02*
X011940Y014257D01*
X011940Y014336D02*
X011238Y014336D01*
X011316Y014414D02*
X011940Y014414D01*
X011940Y014493D02*
X011395Y014493D01*
X011473Y014571D02*
X011970Y014571D01*
X011709Y014807D02*
X015447Y014807D01*
X015447Y014728D02*
X011630Y014728D01*
X011552Y014650D02*
X015447Y014650D01*
X015447Y014571D02*
X012989Y014571D01*
X013020Y014493D02*
X015447Y014493D01*
X015447Y014414D02*
X013020Y014414D01*
X013020Y014336D02*
X015447Y014336D01*
X015447Y014257D02*
X013086Y014257D01*
X013165Y014179D02*
X015447Y014179D01*
X015447Y014100D02*
X013243Y014100D01*
X013664Y014022D02*
X015447Y014022D01*
X015447Y013943D02*
X013701Y013943D01*
X013701Y013551D02*
X014721Y013551D01*
X014910Y013786D02*
X015447Y013786D01*
X015447Y013708D02*
X014989Y013708D01*
X015067Y013629D02*
X015447Y013629D01*
X015447Y013551D02*
X015146Y013551D01*
X015224Y013472D02*
X015447Y013472D01*
X015447Y013394D02*
X015402Y013394D01*
X015426Y013080D02*
X015447Y013080D01*
X015447Y013865D02*
X014832Y013865D01*
X014134Y012766D02*
X014054Y012766D01*
X014054Y012769D02*
X013879Y012769D01*
X013843Y012759D01*
X013811Y012741D01*
X013785Y012715D01*
X013767Y012683D01*
X013757Y012647D01*
X013757Y012452D01*
X014054Y012452D01*
X013722Y012452D01*
X013722Y012530D02*
X013757Y012530D01*
X013757Y012609D02*
X013722Y012609D01*
X013705Y012687D02*
X013769Y012687D01*
X013868Y012766D02*
X013575Y012766D01*
X013722Y012373D02*
X014054Y012373D01*
X014054Y012372D02*
X013757Y012372D01*
X013757Y012177D01*
X013767Y012142D01*
X013785Y012110D01*
X013811Y012084D01*
X013843Y012065D01*
X013879Y012056D01*
X013769Y012138D02*
X013705Y012138D01*
X013722Y012216D02*
X013757Y012216D01*
X013757Y012295D02*
X013722Y012295D01*
X014054Y012295D02*
X014134Y012295D01*
X014134Y012373D02*
X015447Y012373D01*
X015447Y012295D02*
X014431Y012295D01*
X014431Y012216D02*
X015447Y012216D01*
X015432Y012138D02*
X014419Y012138D01*
X014323Y012059D02*
X015354Y012059D01*
X015275Y011981D02*
X010306Y011981D01*
X010306Y011902D02*
X015197Y011902D01*
X015118Y011824D02*
X010266Y011824D01*
X010324Y011745D02*
X015040Y011745D01*
X015394Y011667D02*
X015447Y011667D01*
X015447Y011588D02*
X015394Y011588D01*
X015394Y011510D02*
X015447Y011510D01*
X015447Y011431D02*
X015394Y011431D01*
X015394Y011353D02*
X015447Y011353D01*
X015447Y011274D02*
X015394Y011274D01*
X015394Y011196D02*
X015447Y011196D01*
X015447Y011117D02*
X015394Y011117D01*
X015394Y011039D02*
X015447Y011039D01*
X015447Y010960D02*
X015394Y010960D01*
X015447Y010882D02*
X011050Y010882D01*
X011046Y010803D02*
X015447Y010803D01*
X015447Y010725D02*
X010986Y010725D01*
X011001Y010960D02*
X011625Y010960D01*
X011625Y011039D02*
X010923Y011039D01*
X010880Y011039D02*
X010767Y011039D01*
X010802Y010960D02*
X010688Y010960D01*
X010844Y011117D02*
X011625Y011117D01*
X011625Y011196D02*
X010766Y011196D01*
X010504Y011196D02*
X010341Y011196D01*
X010346Y011274D02*
X011625Y011274D01*
X010426Y011117D02*
X010281Y011117D01*
X010269Y010960D02*
X008051Y010960D01*
X008317Y011588D02*
X008452Y011588D01*
X008403Y011667D02*
X008366Y011667D01*
X008366Y011745D02*
X008403Y011745D01*
X008403Y011824D02*
X008366Y011824D01*
X008366Y011902D02*
X008403Y011902D01*
X008403Y011981D02*
X008366Y011981D01*
X008366Y012059D02*
X008403Y012059D01*
X008403Y012138D02*
X008366Y012138D01*
X008366Y012216D02*
X008403Y012216D01*
X008403Y012295D02*
X008366Y012295D01*
X009970Y011274D02*
X010050Y011274D01*
X010050Y011196D02*
X009970Y011196D01*
X009970Y011117D02*
X010050Y011117D01*
X010458Y010254D02*
X010531Y010254D01*
X010233Y010018D02*
X010223Y010018D01*
X010698Y009076D02*
X010828Y009076D01*
X011585Y009861D02*
X011625Y009861D01*
X012374Y008841D02*
X013431Y008841D01*
X013510Y008762D02*
X012260Y008762D01*
X012926Y008134D02*
X012934Y008134D01*
X013123Y007899D02*
X013325Y007899D01*
X013247Y007977D02*
X013201Y007977D01*
X013113Y007820D02*
X013479Y007820D01*
X013482Y007742D02*
X013034Y007742D01*
X012956Y007663D02*
X013307Y007663D01*
X013229Y007585D02*
X012877Y007585D01*
X012799Y007506D02*
X013150Y007506D01*
X013072Y007428D02*
X012720Y007428D01*
X012642Y007349D02*
X012993Y007349D01*
X012915Y007271D02*
X012495Y007271D01*
X012490Y007035D02*
X009792Y007035D01*
X009792Y006957D02*
X012412Y006957D01*
X012333Y006878D02*
X009792Y006878D01*
X009792Y006800D02*
X012255Y006800D01*
X012176Y006721D02*
X009792Y006721D01*
X009792Y006643D02*
X012098Y006643D01*
X012019Y006564D02*
X009723Y006564D01*
X009663Y006505D02*
X009792Y006634D01*
X009792Y007691D01*
X009663Y007820D01*
X009481Y007820D01*
X009352Y007691D01*
X009352Y006634D01*
X009481Y006505D01*
X009663Y006505D01*
X009421Y006564D02*
X008794Y006564D01*
X008855Y006486D02*
X011941Y006486D01*
X011862Y006407D02*
X008855Y006407D01*
X008855Y006329D02*
X011784Y006329D01*
X011705Y006250D02*
X008784Y006250D01*
X008485Y006250D02*
X008357Y006250D01*
X008392Y006172D02*
X011627Y006172D01*
X011548Y006093D02*
X011015Y006093D01*
X011093Y006015D02*
X011470Y006015D01*
X011391Y005936D02*
X011105Y005936D01*
X011143Y005858D02*
X011313Y005858D01*
X011246Y005779D02*
X011222Y005779D01*
X011023Y005544D02*
X008996Y005544D01*
X008942Y005622D02*
X010954Y005622D01*
X010920Y005465D02*
X009099Y005465D01*
X009177Y005387D02*
X010842Y005387D01*
X010763Y005308D02*
X009256Y005308D01*
X009334Y005230D02*
X010685Y005230D01*
X010606Y005151D02*
X009413Y005151D01*
X009491Y005073D02*
X010528Y005073D01*
X010449Y004994D02*
X009570Y004994D01*
X009648Y004916D02*
X010371Y004916D01*
X010236Y004837D02*
X009727Y004837D01*
X009805Y004759D02*
X010157Y004759D01*
X010235Y004759D02*
X010261Y004759D01*
X010314Y004680D02*
X010340Y004680D01*
X010392Y004602D02*
X010418Y004602D01*
X010471Y004523D02*
X010497Y004523D01*
X010511Y004484D02*
X010349Y004322D01*
X010564Y004106D01*
X010596Y004088D01*
X010631Y004078D01*
X010668Y004078D01*
X010704Y004088D01*
X010736Y004106D01*
X010812Y004182D01*
X010511Y004484D01*
X010549Y004445D02*
X010575Y004445D01*
X010628Y004366D02*
X010654Y004366D01*
X010706Y004288D02*
X010732Y004288D01*
X010785Y004209D02*
X010811Y004209D01*
X010839Y004209D02*
X011031Y004209D01*
X010953Y004288D02*
X010910Y004288D01*
X010901Y004131D02*
X010760Y004131D01*
X010900Y004052D02*
X008894Y004052D01*
X008973Y003974D02*
X010900Y003974D01*
X010900Y003895D02*
X010489Y003895D01*
X010567Y003817D02*
X010900Y003817D01*
X010900Y003738D02*
X010646Y003738D01*
X010823Y003660D02*
X010900Y003660D01*
X010902Y003581D02*
X010933Y003581D01*
X010860Y003267D02*
X010801Y003267D01*
X010860Y003110D02*
X005869Y003110D01*
X005869Y003032D02*
X010860Y003032D01*
X010864Y002953D02*
X005869Y002953D01*
X005869Y002875D02*
X010913Y002875D01*
X011157Y002875D02*
X011237Y002875D01*
X011237Y002846D02*
X011412Y002846D01*
X011448Y002856D01*
X011480Y002874D01*
X011506Y002900D01*
X011524Y002932D01*
X011534Y002968D01*
X011534Y003163D01*
X011237Y003163D01*
X011237Y002846D01*
X011237Y002953D02*
X011157Y002953D01*
X011157Y003032D02*
X011237Y003032D01*
X011237Y003110D02*
X011157Y003110D01*
X011157Y003189D02*
X005869Y003189D01*
X005365Y003267D02*
X006411Y003267D01*
X006411Y003265D02*
X006470Y003207D01*
X007182Y003207D01*
X007241Y003265D01*
X007241Y003939D01*
X007182Y003997D01*
X006470Y003997D01*
X006411Y003939D01*
X006411Y003265D01*
X006411Y003346D02*
X005286Y003346D01*
X005233Y003424D02*
X006411Y003424D01*
X006411Y003503D02*
X005233Y003503D01*
X005233Y003581D02*
X006411Y003581D01*
X006411Y003660D02*
X005233Y003660D01*
X005233Y003738D02*
X006411Y003738D01*
X006411Y003817D02*
X005245Y003817D01*
X005324Y003895D02*
X006411Y003895D01*
X006446Y003974D02*
X005402Y003974D01*
X005481Y004052D02*
X007907Y004052D01*
X007860Y004131D02*
X007128Y004131D01*
X007206Y004209D02*
X007860Y004209D01*
X007860Y004288D02*
X007285Y004288D01*
X007363Y004366D02*
X007860Y004366D01*
X007860Y004445D02*
X007442Y004445D01*
X007520Y004523D02*
X007860Y004523D01*
X007860Y004602D02*
X007599Y004602D01*
X007677Y004680D02*
X007860Y004680D01*
X007860Y004759D02*
X007756Y004759D01*
X007834Y004837D02*
X007860Y004837D01*
X007913Y004916D02*
X007934Y004916D01*
X007991Y004994D02*
X008012Y004994D01*
X008070Y005073D02*
X008091Y005073D01*
X008148Y005151D02*
X008169Y005151D01*
X008227Y005230D02*
X008239Y005230D01*
X008437Y004994D02*
X008458Y004994D01*
X008379Y004916D02*
X008358Y004916D01*
X008301Y004837D02*
X008280Y004837D01*
X008235Y004759D02*
X008201Y004759D01*
X008235Y004680D02*
X008160Y004680D01*
X008160Y004602D02*
X008235Y004602D01*
X008235Y004523D02*
X008160Y004523D01*
X008160Y004445D02*
X008235Y004445D01*
X008235Y004366D02*
X008160Y004366D01*
X008175Y004209D02*
X008313Y004209D01*
X008253Y004131D02*
X008391Y004131D01*
X008332Y004052D02*
X008470Y004052D01*
X008410Y003974D02*
X008548Y003974D01*
X008489Y003895D02*
X008627Y003895D01*
X008567Y003817D02*
X008705Y003817D01*
X008646Y003738D02*
X008784Y003738D01*
X008724Y003660D02*
X008862Y003660D01*
X008803Y003581D02*
X009117Y003581D01*
X009402Y003581D02*
X010378Y003581D01*
X010457Y003503D02*
X009480Y003503D01*
X009480Y003424D02*
X010477Y003424D01*
X010515Y003346D02*
X009480Y003346D01*
X009426Y003267D02*
X010593Y003267D01*
X011237Y003189D02*
X013922Y003189D01*
X013922Y003267D02*
X011534Y003267D01*
X011534Y003346D02*
X013922Y003346D01*
X013922Y003424D02*
X012216Y003424D01*
X012213Y003420D02*
X012232Y003452D01*
X012241Y003487D01*
X012241Y003663D01*
X011925Y003663D01*
X011925Y003743D01*
X012241Y003743D01*
X012241Y003918D01*
X012232Y003954D01*
X012213Y003986D01*
X012187Y004012D01*
X012155Y004030D01*
X012119Y004040D01*
X011925Y004040D01*
X011925Y003743D01*
X011845Y003743D01*
X011845Y004040D01*
X011650Y004040D01*
X011614Y004030D01*
X011582Y004012D01*
X011556Y003986D01*
X011538Y003954D01*
X011528Y003918D01*
X011528Y003743D01*
X011845Y003743D01*
X011845Y003663D01*
X011925Y003663D01*
X011925Y003366D01*
X012119Y003366D01*
X012155Y003375D01*
X012187Y003394D01*
X012213Y003420D01*
X012241Y003503D02*
X013922Y003503D01*
X013922Y003581D02*
X012241Y003581D01*
X012241Y003660D02*
X013922Y003660D01*
X013922Y003738D02*
X011925Y003738D01*
X011925Y003660D02*
X011845Y003660D01*
X011845Y003663D02*
X011845Y003366D01*
X011650Y003366D01*
X011614Y003375D01*
X011582Y003394D01*
X011556Y003420D01*
X011538Y003452D01*
X011528Y003487D01*
X011528Y003663D01*
X011845Y003663D01*
X011845Y003738D02*
X011494Y003738D01*
X011494Y003660D02*
X011528Y003660D01*
X011528Y003581D02*
X011461Y003581D01*
X011507Y003503D02*
X011528Y003503D01*
X011534Y003424D02*
X011553Y003424D01*
X011845Y003424D02*
X011925Y003424D01*
X011925Y003503D02*
X011845Y003503D01*
X011845Y003581D02*
X011925Y003581D01*
X011925Y003817D02*
X011845Y003817D01*
X011845Y003895D02*
X011925Y003895D01*
X011925Y003974D02*
X011845Y003974D01*
X011549Y003974D02*
X011494Y003974D01*
X011494Y004052D02*
X013922Y004052D01*
X013922Y003974D02*
X012220Y003974D01*
X012241Y003895D02*
X013922Y003895D01*
X013922Y003817D02*
X012241Y003817D01*
X012198Y004131D02*
X013922Y004131D01*
X013922Y004209D02*
X012201Y004209D01*
X012535Y004288D02*
X013922Y004288D01*
X013922Y004366D02*
X012613Y004366D01*
X012692Y004445D02*
X013922Y004445D01*
X013922Y004523D02*
X012770Y004523D01*
X012847Y004602D02*
X013922Y004602D01*
X013922Y004680D02*
X012847Y004680D01*
X012847Y004759D02*
X013922Y004759D01*
X013922Y004837D02*
X012847Y004837D01*
X012847Y004916D02*
X013922Y004916D01*
X013922Y004994D02*
X012847Y004994D01*
X012856Y005073D02*
X013922Y005073D01*
X013922Y005151D02*
X012917Y005151D01*
X012917Y005230D02*
X013915Y005230D01*
X013915Y005308D02*
X012917Y005308D01*
X012846Y005387D02*
X013923Y005387D01*
X014001Y005465D02*
X012038Y005465D01*
X011960Y005387D02*
X012548Y005387D01*
X012477Y005308D02*
X011881Y005308D01*
X011780Y005230D02*
X012477Y005230D01*
X012477Y005151D02*
X011724Y005151D01*
X011646Y005073D02*
X012538Y005073D01*
X012547Y004994D02*
X011561Y004994D01*
X011640Y004916D02*
X012547Y004916D01*
X012547Y004837D02*
X011718Y004837D01*
X011797Y004759D02*
X012547Y004759D01*
X012503Y004680D02*
X011875Y004680D01*
X012201Y004602D02*
X012424Y004602D01*
X012346Y004523D02*
X012201Y004523D01*
X011568Y004209D02*
X011493Y004209D01*
X011493Y004131D02*
X011571Y004131D01*
X011528Y003895D02*
X011494Y003895D01*
X011494Y003817D02*
X011528Y003817D01*
X011534Y003110D02*
X013922Y003110D01*
X013922Y003032D02*
X011534Y003032D01*
X011530Y002953D02*
X013922Y002953D01*
X013922Y002875D02*
X011481Y002875D01*
X010539Y004131D02*
X009423Y004131D01*
X009315Y004131D02*
X008816Y004131D01*
X008737Y004209D02*
X009237Y004209D01*
X009158Y004288D02*
X008659Y004288D01*
X008580Y004366D02*
X009080Y004366D01*
X009001Y004445D02*
X008535Y004445D01*
X008535Y004523D02*
X008923Y004523D01*
X008844Y004602D02*
X008535Y004602D01*
X008568Y004680D02*
X008766Y004680D01*
X008687Y004759D02*
X008647Y004759D01*
X007959Y005387D02*
X007938Y005387D01*
X007881Y005308D02*
X007860Y005308D01*
X007802Y005230D02*
X007781Y005230D01*
X007724Y005151D02*
X007703Y005151D01*
X007645Y005073D02*
X007624Y005073D01*
X007567Y004994D02*
X007546Y004994D01*
X007488Y004916D02*
X007241Y004916D01*
X007241Y004837D02*
X007410Y004837D01*
X007331Y004759D02*
X007239Y004759D01*
X007253Y004680D02*
X003837Y004680D01*
X003837Y004602D02*
X007174Y004602D01*
X007096Y004523D02*
X003837Y004523D01*
X003837Y004445D02*
X007017Y004445D01*
X007206Y003974D02*
X007986Y003974D01*
X008064Y003895D02*
X007241Y003895D01*
X007241Y003817D02*
X008143Y003817D01*
X008221Y003738D02*
X007241Y003738D01*
X007241Y003660D02*
X008300Y003660D01*
X008378Y003581D02*
X007241Y003581D01*
X007241Y003503D02*
X008457Y003503D01*
X008535Y003424D02*
X007241Y003424D01*
X007241Y003346D02*
X008614Y003346D01*
X008692Y003267D02*
X007241Y003267D01*
X007059Y002796D02*
X013922Y002796D01*
X013922Y002718D02*
X007248Y002718D01*
X007260Y002713D02*
X006992Y002824D01*
X006701Y002824D01*
X006433Y002713D01*
X006227Y002507D01*
X006116Y002239D01*
X006116Y001948D01*
X006227Y001680D01*
X006433Y001474D01*
X006701Y001363D01*
X006992Y001363D01*
X007260Y001474D01*
X007466Y001680D01*
X007577Y001948D01*
X007577Y002239D01*
X007466Y002507D01*
X007260Y002713D01*
X007334Y002639D02*
X013922Y002639D01*
X013922Y002561D02*
X007412Y002561D01*
X007476Y002482D02*
X013922Y002482D01*
X013922Y002404D02*
X007509Y002404D01*
X007541Y002325D02*
X013922Y002325D01*
X013922Y002247D02*
X007574Y002247D01*
X007577Y002168D02*
X013922Y002168D01*
X013922Y002090D02*
X007577Y002090D01*
X007577Y002011D02*
X013922Y002011D01*
X013922Y001933D02*
X007571Y001933D01*
X007538Y001854D02*
X013922Y001854D01*
X013874Y001776D02*
X007506Y001776D01*
X007473Y001697D02*
X013852Y001697D01*
X013852Y001619D02*
X007405Y001619D01*
X007327Y001540D02*
X013883Y001540D01*
X013961Y001462D02*
X007231Y001462D01*
X007041Y001383D02*
X015447Y001383D01*
X015447Y001305D02*
X005412Y001305D01*
X005412Y001226D02*
X015447Y001226D01*
X015447Y001148D02*
X005412Y001148D01*
X005412Y001069D02*
X015447Y001069D01*
X015447Y001462D02*
X014183Y001462D01*
X014261Y001540D02*
X015447Y001540D01*
X015447Y001619D02*
X014292Y001619D01*
X014292Y001697D02*
X015447Y001697D01*
X015447Y001776D02*
X014270Y001776D01*
X014222Y001854D02*
X015447Y001854D01*
X015447Y001933D02*
X014222Y001933D01*
X014222Y002011D02*
X015447Y002011D01*
X015447Y002090D02*
X014222Y002090D01*
X014222Y002168D02*
X014791Y002168D01*
X014713Y002247D02*
X014222Y002247D01*
X014222Y002325D02*
X014634Y002325D01*
X014457Y002404D02*
X014222Y002404D01*
X014222Y002482D02*
X014378Y002482D01*
X014352Y002561D02*
X014222Y002561D01*
X014222Y002639D02*
X014352Y002639D01*
X014379Y002718D02*
X014222Y002718D01*
X014222Y002796D02*
X014457Y002796D01*
X014687Y002796D02*
X015447Y002796D01*
X015447Y002718D02*
X014765Y002718D01*
X014792Y002639D02*
X015447Y002639D01*
X015447Y002561D02*
X014823Y002561D01*
X014902Y002482D02*
X015447Y002482D01*
X015447Y002875D02*
X014222Y002875D01*
X014222Y002953D02*
X015447Y002953D01*
X015447Y003032D02*
X014222Y003032D01*
X014222Y003110D02*
X015447Y003110D01*
X015447Y003189D02*
X014222Y003189D01*
X014222Y003267D02*
X015447Y003267D01*
X015447Y003346D02*
X014222Y003346D01*
X014222Y003424D02*
X015447Y003424D01*
X015447Y003503D02*
X014222Y003503D01*
X014222Y003581D02*
X015447Y003581D01*
X015447Y003660D02*
X014222Y003660D01*
X014222Y003738D02*
X015447Y003738D01*
X015447Y003817D02*
X014222Y003817D01*
X014222Y003895D02*
X015447Y003895D01*
X015447Y003974D02*
X014222Y003974D01*
X014222Y004052D02*
X015447Y004052D01*
X015447Y004131D02*
X014222Y004131D01*
X014222Y004209D02*
X015447Y004209D01*
X015447Y004288D02*
X014222Y004288D01*
X014222Y004366D02*
X015447Y004366D01*
X015447Y004445D02*
X014222Y004445D01*
X014222Y004523D02*
X015447Y004523D01*
X015447Y004602D02*
X014222Y004602D01*
X014222Y004680D02*
X015447Y004680D01*
X015447Y004759D02*
X014222Y004759D01*
X014222Y004837D02*
X015447Y004837D01*
X015447Y004916D02*
X014222Y004916D01*
X014222Y004994D02*
X015447Y004994D01*
X015447Y005073D02*
X014231Y005073D01*
X014268Y005465D02*
X015447Y005465D01*
X015447Y005544D02*
X012117Y005544D01*
X012195Y005622D02*
X015447Y005622D01*
X015447Y005701D02*
X012274Y005701D01*
X012352Y005779D02*
X015447Y005779D01*
X015447Y005858D02*
X012431Y005858D01*
X012509Y005936D02*
X015447Y005936D01*
X015447Y006015D02*
X012588Y006015D01*
X012666Y006093D02*
X015447Y006093D01*
X015447Y006172D02*
X012745Y006172D01*
X012823Y006250D02*
X015447Y006250D01*
X015447Y006329D02*
X013811Y006329D01*
X013890Y006407D02*
X015447Y006407D01*
X015447Y006486D02*
X013968Y006486D01*
X013988Y006564D02*
X015447Y006564D01*
X014051Y007035D02*
X013938Y007035D01*
X013972Y006957D02*
X013859Y006957D01*
X013894Y006878D02*
X013788Y006878D01*
X013815Y006800D02*
X013866Y006800D01*
X013831Y006721D02*
X013945Y006721D01*
X013910Y006643D02*
X014023Y006643D01*
X013737Y006721D02*
X013624Y006721D01*
X013658Y006643D02*
X013545Y006643D01*
X013580Y006564D02*
X013467Y006564D01*
X013402Y006564D02*
X013116Y006564D01*
X013099Y006643D02*
X013323Y006643D01*
X013266Y006721D02*
X013021Y006721D01*
X013026Y006800D02*
X013223Y006800D01*
X013144Y006878D02*
X013104Y006878D01*
X012909Y007114D02*
X009792Y007114D01*
X009792Y007192D02*
X012875Y007192D01*
X012837Y007035D02*
X012707Y007035D01*
X012306Y007506D02*
X012065Y007506D01*
X011876Y007271D02*
X009792Y007271D01*
X009792Y007349D02*
X011798Y007349D01*
X011719Y007428D02*
X009792Y007428D01*
X009792Y007506D02*
X011641Y007506D01*
X011562Y007585D02*
X009792Y007585D01*
X009792Y007663D02*
X011484Y007663D01*
X011405Y007742D02*
X009741Y007742D01*
X009403Y007742D02*
X009035Y007742D01*
X009035Y007820D02*
X011327Y007820D01*
X009352Y007663D02*
X009035Y007663D01*
X009035Y007585D02*
X009352Y007585D01*
X009352Y007506D02*
X009035Y007506D01*
X009035Y007428D02*
X009352Y007428D01*
X009352Y007349D02*
X009010Y007349D01*
X008931Y007271D02*
X009352Y007271D01*
X009352Y007192D02*
X008853Y007192D01*
X008774Y007114D02*
X009352Y007114D01*
X009352Y007035D02*
X008696Y007035D01*
X008617Y006957D02*
X009352Y006957D01*
X009352Y006878D02*
X008539Y006878D01*
X008460Y006800D02*
X009352Y006800D01*
X009352Y006721D02*
X008475Y006721D01*
X008554Y006643D02*
X009352Y006643D01*
X008415Y006329D02*
X008292Y006329D01*
X008236Y006329D02*
X008210Y006329D01*
X008213Y006407D02*
X008365Y006407D01*
X008286Y006486D02*
X008146Y006486D01*
X008131Y006250D02*
X008157Y006250D01*
X008079Y006172D02*
X008053Y006172D01*
X008000Y006093D02*
X007974Y006093D01*
X007936Y006056D02*
X007949Y006043D01*
X007648Y005741D01*
X007724Y005665D01*
X007756Y005647D01*
X007770Y005643D01*
X007375Y005248D01*
X007241Y005248D01*
X007241Y005435D01*
X007239Y005436D01*
X007576Y005773D01*
X007576Y005814D01*
X007635Y005754D01*
X007936Y006056D01*
X007922Y006015D02*
X007896Y006015D01*
X007843Y005936D02*
X007817Y005936D01*
X007765Y005858D02*
X007739Y005858D01*
X007686Y005779D02*
X007660Y005779D01*
X007610Y005779D02*
X007576Y005779D01*
X007504Y005701D02*
X007689Y005701D01*
X007749Y005622D02*
X007425Y005622D01*
X007347Y005544D02*
X007671Y005544D01*
X007592Y005465D02*
X007268Y005465D01*
X007241Y005387D02*
X007514Y005387D01*
X007435Y005308D02*
X007241Y005308D01*
X006993Y005544D02*
X006592Y005544D01*
X006514Y005622D02*
X006914Y005622D01*
X006836Y005701D02*
X006435Y005701D01*
X006357Y005779D02*
X006791Y005779D01*
X006821Y005858D02*
X006286Y005858D01*
X006286Y005936D02*
X006600Y005936D01*
X006522Y006015D02*
X006286Y006015D01*
X006280Y006093D02*
X006443Y006093D01*
X006365Y006172D02*
X005580Y006172D01*
X005649Y006093D02*
X005658Y006093D01*
X005340Y006093D02*
X005260Y006093D01*
X005260Y006015D02*
X005340Y006015D01*
X005340Y005936D02*
X005260Y005936D01*
X005260Y005858D02*
X003837Y005858D01*
X003837Y005936D02*
X004943Y005936D01*
X004943Y006015D02*
X003837Y006015D01*
X003837Y006093D02*
X004951Y006093D01*
X005020Y006172D02*
X003837Y006172D01*
X003837Y006250D02*
X006318Y006250D01*
X006345Y006329D02*
X003837Y006329D01*
X003837Y006407D02*
X006365Y006407D01*
X006286Y006486D02*
X003837Y006486D01*
X003837Y006564D02*
X006208Y006564D01*
X006129Y006643D02*
X003837Y006643D01*
X003837Y006721D02*
X006051Y006721D01*
X005972Y006800D02*
X003837Y006800D01*
X003837Y006878D02*
X005894Y006878D01*
X005654Y006957D02*
X003837Y006957D01*
X003837Y007035D02*
X005575Y007035D01*
X005540Y007114D02*
X003837Y007114D01*
X003837Y007192D02*
X005540Y007192D01*
X005557Y007271D02*
X003837Y007271D01*
X003837Y007349D02*
X005635Y007349D01*
X005884Y007349D02*
X006415Y007349D01*
X006415Y007271D02*
X005962Y007271D01*
X006004Y007192D02*
X006418Y007192D01*
X006497Y007114D02*
X006083Y007114D01*
X006161Y007035D02*
X007312Y007035D01*
X007234Y006957D02*
X006240Y006957D01*
X006318Y006878D02*
X007155Y006878D01*
X007077Y006800D02*
X006397Y006800D01*
X006475Y006721D02*
X006998Y006721D01*
X006920Y006643D02*
X006789Y006643D01*
X006868Y006564D02*
X006903Y006564D01*
X006946Y006486D02*
X006960Y006486D01*
X006659Y006643D02*
X006554Y006643D01*
X006772Y007114D02*
X008350Y007114D01*
X008272Y007035D02*
X007529Y007035D01*
X007607Y006957D02*
X008193Y006957D01*
X008115Y006878D02*
X007686Y006878D01*
X007764Y006800D02*
X008036Y006800D01*
X007958Y006721D02*
X007843Y006721D01*
X008429Y007192D02*
X006960Y007192D01*
X007038Y007271D02*
X008507Y007271D01*
X008586Y007349D02*
X007464Y007349D01*
X007377Y007349D02*
X007117Y007349D01*
X007195Y007428D02*
X007299Y007428D01*
X007542Y007428D02*
X007745Y007428D01*
X007667Y007506D02*
X007621Y007506D01*
X008024Y007428D02*
X008120Y007428D01*
X008399Y007428D02*
X008664Y007428D01*
X008735Y007506D02*
X008477Y007506D01*
X008480Y007585D02*
X008735Y007585D01*
X008735Y007663D02*
X008480Y007663D01*
X008429Y007742D02*
X008735Y007742D01*
X008735Y007820D02*
X008541Y007820D01*
X008605Y007899D02*
X008686Y007899D01*
X008607Y007977D02*
X008605Y007977D01*
X006928Y007585D02*
X006457Y007585D01*
X006379Y007506D02*
X006542Y007506D01*
X006464Y007428D02*
X006300Y007428D01*
X006078Y007428D02*
X003837Y007428D01*
X003837Y007506D02*
X005999Y007506D01*
X005926Y007585D02*
X003837Y007585D01*
X003837Y007663D02*
X003871Y007663D01*
X004228Y007663D02*
X004308Y007663D01*
X004308Y007742D02*
X004228Y007742D01*
X004228Y007820D02*
X004308Y007820D01*
X004308Y007899D02*
X004228Y007899D01*
X004228Y007977D02*
X004308Y007977D01*
X004308Y008056D02*
X004228Y008056D01*
X004228Y008134D02*
X004308Y008134D01*
X004782Y008134D02*
X005831Y008134D01*
X005753Y008056D02*
X004782Y008056D01*
X004782Y007977D02*
X005680Y007977D01*
X005659Y007899D02*
X004782Y007899D01*
X004782Y007820D02*
X005686Y007820D01*
X005764Y007742D02*
X004769Y007742D01*
X004665Y007663D02*
X005842Y007663D01*
X005891Y007663D02*
X006005Y007663D01*
X005970Y007742D02*
X006083Y007742D01*
X006048Y007820D02*
X006162Y007820D01*
X006150Y008056D02*
X006037Y008056D01*
X006071Y008134D02*
X005958Y008134D01*
X006549Y008684D02*
X004684Y008684D01*
X004772Y008605D02*
X006627Y008605D01*
X008135Y009312D02*
X008252Y009312D01*
X008843Y009940D02*
X008864Y009940D01*
X008786Y010018D02*
X008764Y010018D01*
X008707Y010097D02*
X008686Y010097D01*
X008629Y010175D02*
X008607Y010175D01*
X008550Y010254D02*
X008529Y010254D01*
X006850Y007506D02*
X006727Y007506D01*
X006950Y006093D02*
X007056Y006093D01*
X006978Y006015D02*
X006871Y006015D01*
X006899Y005936D02*
X006793Y005936D01*
X006246Y005465D02*
X005202Y005465D01*
X005174Y005493D02*
X004462Y005493D01*
X004403Y005435D01*
X004403Y004761D01*
X004462Y004703D01*
X005174Y004703D01*
X005233Y004761D01*
X005233Y005435D01*
X005174Y005493D01*
X005260Y005513D02*
X005065Y005513D01*
X005029Y005523D01*
X004997Y005541D01*
X004971Y005567D01*
X004953Y005599D01*
X004943Y005635D01*
X004943Y005810D01*
X005260Y005810D01*
X005260Y005513D01*
X005260Y005544D02*
X005340Y005544D01*
X005340Y005622D02*
X005260Y005622D01*
X005260Y005701D02*
X005340Y005701D01*
X005340Y005779D02*
X005260Y005779D01*
X004943Y005779D02*
X003837Y005779D01*
X003837Y005701D02*
X004943Y005701D01*
X004947Y005622D02*
X003837Y005622D01*
X003837Y005544D02*
X004994Y005544D01*
X005233Y005387D02*
X006325Y005387D01*
X006403Y005308D02*
X005233Y005308D01*
X005233Y005230D02*
X006411Y005230D01*
X006411Y005151D02*
X005233Y005151D01*
X005233Y005073D02*
X006411Y005073D01*
X006411Y004994D02*
X005233Y004994D01*
X005233Y004916D02*
X006411Y004916D01*
X006411Y004837D02*
X005233Y004837D01*
X005231Y004759D02*
X006413Y004759D01*
X006168Y005544D02*
X005605Y005544D01*
X005340Y006172D02*
X005260Y006172D01*
X004434Y005465D02*
X003837Y005465D01*
X003837Y005387D02*
X004403Y005387D01*
X004403Y005308D02*
X003837Y005308D01*
X003837Y005230D02*
X004403Y005230D01*
X004403Y005151D02*
X003837Y005151D01*
X003837Y005073D02*
X004403Y005073D01*
X004403Y004994D02*
X003837Y004994D01*
X003837Y004916D02*
X004403Y004916D01*
X004403Y004837D02*
X003837Y004837D01*
X003837Y004759D02*
X004405Y004759D01*
X003837Y004366D02*
X005370Y004366D01*
X005292Y004288D02*
X003837Y004288D01*
X003837Y004209D02*
X005213Y004209D01*
X005135Y004131D02*
X003837Y004131D01*
X003837Y004052D02*
X005056Y004052D01*
X004438Y003974D02*
X003837Y003974D01*
X003837Y003895D02*
X004403Y003895D01*
X004403Y003817D02*
X003837Y003817D01*
X003837Y003738D02*
X004403Y003738D01*
X004403Y003660D02*
X003837Y003660D01*
X003837Y003581D02*
X004403Y003581D01*
X004403Y003503D02*
X003837Y003503D01*
X003837Y003424D02*
X004403Y003424D01*
X004403Y003346D02*
X003837Y003346D01*
X003837Y003267D02*
X004403Y003267D01*
X004319Y002718D02*
X005275Y002718D01*
X005275Y002796D02*
X004026Y002796D01*
X003837Y002875D02*
X005275Y002875D01*
X005254Y002953D02*
X003837Y002953D01*
X003837Y003032D02*
X005176Y003032D01*
X005097Y003110D02*
X003837Y003110D01*
X003837Y003189D02*
X005019Y003189D01*
X005869Y002796D02*
X006635Y002796D01*
X006445Y002718D02*
X005869Y002718D01*
X005832Y002639D02*
X006359Y002639D01*
X006281Y002561D02*
X005885Y002561D01*
X005909Y002482D02*
X006217Y002482D01*
X006184Y002404D02*
X005909Y002404D01*
X005909Y002325D02*
X006152Y002325D01*
X006119Y002247D02*
X005612Y002247D01*
X005612Y002168D02*
X005532Y002168D01*
X005532Y002225D02*
X005532Y001909D01*
X005357Y001909D01*
X005321Y001918D01*
X005289Y001937D01*
X005263Y001963D01*
X005245Y001995D01*
X005235Y002030D01*
X005235Y002225D01*
X005532Y002225D01*
X005532Y002247D02*
X004984Y002247D01*
X004906Y002325D02*
X005235Y002325D01*
X005235Y002404D02*
X004827Y002404D01*
X004748Y002482D02*
X005235Y002482D01*
X005259Y002561D02*
X004612Y002561D01*
X004476Y002639D02*
X005312Y002639D01*
X005235Y002168D02*
X005063Y002168D01*
X005069Y002162D02*
X005069Y002162D01*
X005111Y002090D02*
X005235Y002090D01*
X005240Y002011D02*
X005156Y002011D01*
X005202Y001933D02*
X005296Y001933D01*
X005247Y001854D02*
X006155Y001854D01*
X006187Y001776D02*
X005292Y001776D01*
X005315Y001697D02*
X006220Y001697D01*
X006288Y001619D02*
X005336Y001619D01*
X005357Y001540D02*
X006367Y001540D01*
X006462Y001462D02*
X005378Y001462D01*
X005399Y001383D02*
X006652Y001383D01*
X006122Y001933D02*
X005848Y001933D01*
X005904Y002011D02*
X006116Y002011D01*
X006116Y002090D02*
X005909Y002090D01*
X005909Y002168D02*
X006116Y002168D01*
X005612Y002090D02*
X005532Y002090D01*
X005532Y002011D02*
X005612Y002011D01*
X005612Y001933D02*
X005532Y001933D01*
X009502Y004209D02*
X010461Y004209D01*
X010382Y004288D02*
X009580Y004288D01*
X009659Y004366D02*
X010304Y004366D01*
X010367Y004366D02*
X010393Y004366D01*
X010446Y004445D02*
X010472Y004445D01*
X010225Y004445D02*
X009737Y004445D01*
X009816Y004523D02*
X010147Y004523D01*
X010096Y004602D02*
X009887Y004602D01*
X009884Y004680D02*
X010099Y004680D01*
X010785Y005701D02*
X008863Y005701D01*
X008773Y005779D02*
X010706Y005779D01*
X010665Y005858D02*
X008706Y005858D01*
X008628Y005936D02*
X010665Y005936D01*
X010676Y006015D02*
X008549Y006015D01*
X008471Y006093D02*
X010754Y006093D01*
X012893Y006329D02*
X013637Y006329D01*
X013559Y006407D02*
X012980Y006407D01*
X013059Y006486D02*
X013501Y006486D01*
X013702Y006800D02*
X013753Y006800D01*
X013561Y007663D02*
X013533Y007663D01*
X013549Y007899D02*
X013443Y007899D01*
X013521Y007977D02*
X013628Y007977D01*
X013600Y008056D02*
X013706Y008056D01*
X013678Y008134D02*
X013785Y008134D01*
X014308Y009719D02*
X015336Y009719D01*
X015394Y009778D01*
X015394Y010491D01*
X015336Y010549D01*
X014308Y010549D01*
X014250Y010491D01*
X014250Y009778D01*
X014308Y009719D01*
X014250Y009783D02*
X014082Y009783D01*
X014082Y009861D02*
X014250Y009861D01*
X014250Y009940D02*
X014082Y009940D01*
X014082Y010018D02*
X014250Y010018D01*
X014250Y010097D02*
X014082Y010097D01*
X014082Y010175D02*
X014250Y010175D01*
X014250Y010254D02*
X014082Y010254D01*
X014082Y010332D02*
X014250Y010332D01*
X014250Y010411D02*
X014082Y010411D01*
X014082Y010489D02*
X014250Y010489D01*
X014250Y010960D02*
X014082Y010960D01*
X014082Y011039D02*
X014250Y011039D01*
X014250Y011117D02*
X014082Y011117D01*
X014082Y011510D02*
X014250Y011510D01*
X014250Y011588D02*
X014082Y011588D01*
X014082Y011667D02*
X014250Y011667D01*
X014134Y012059D02*
X014054Y012059D01*
X014054Y012138D02*
X014134Y012138D01*
X014134Y012216D02*
X014054Y012216D01*
X014054Y012372D02*
X014054Y012452D01*
X014054Y012769D01*
X014054Y012687D02*
X014134Y012687D01*
X014134Y012609D02*
X014054Y012609D01*
X014054Y012530D02*
X014134Y012530D01*
X014134Y012452D02*
X014054Y012452D01*
X013068Y013080D02*
X013020Y013080D01*
X013020Y013158D02*
X013068Y013158D01*
X013068Y013237D02*
X013020Y013237D01*
X013020Y013315D02*
X013068Y013315D01*
X011284Y014807D02*
X009721Y014807D01*
X009721Y014728D02*
X011206Y014728D01*
X011127Y014650D02*
X009721Y014650D01*
X009425Y014414D02*
X009345Y014414D01*
X009345Y014336D02*
X009425Y014336D01*
X009425Y014257D02*
X009345Y014257D01*
X009048Y014650D02*
X009036Y014650D01*
X009036Y014728D02*
X009048Y014728D01*
X009048Y014807D02*
X009004Y014807D01*
X009081Y014885D02*
X008924Y014885D01*
X008927Y014964D02*
X009113Y014964D01*
X009088Y015042D02*
X008927Y015042D01*
X008215Y015042D02*
X008179Y015042D01*
X008179Y014964D02*
X008215Y014964D01*
X008218Y014885D02*
X008176Y014885D01*
X008179Y015121D02*
X008215Y015121D01*
X008215Y015199D02*
X008179Y015199D01*
X008179Y015278D02*
X008215Y015278D01*
X008215Y015356D02*
X008179Y015356D01*
X008179Y015435D02*
X008215Y015435D01*
X008215Y015513D02*
X008179Y015513D01*
X008149Y015592D02*
X008245Y015592D01*
X009673Y015513D02*
X009926Y015513D01*
X009923Y015435D02*
X009681Y015435D01*
X009681Y015356D02*
X009923Y015356D01*
X009923Y015225D02*
X009923Y015030D01*
X009932Y014995D01*
X009951Y014963D01*
X009977Y014937D01*
X010009Y014918D01*
X010044Y014909D01*
X010220Y014909D01*
X010220Y015225D01*
X009923Y015225D01*
X009923Y015199D02*
X009681Y015199D01*
X009681Y015121D02*
X009923Y015121D01*
X009923Y015042D02*
X009681Y015042D01*
X009656Y014964D02*
X009950Y014964D01*
X010220Y014964D02*
X010300Y014964D01*
X010300Y014909D02*
X010475Y014909D01*
X010510Y014918D01*
X010542Y014937D01*
X010568Y014963D01*
X010587Y014995D01*
X010596Y015030D01*
X010596Y015225D01*
X010300Y015225D01*
X010300Y014909D01*
X010300Y015042D02*
X010220Y015042D01*
X010220Y015121D02*
X010300Y015121D01*
X010300Y015199D02*
X010220Y015199D01*
X010220Y015278D02*
X009681Y015278D01*
X009688Y014885D02*
X011363Y014885D01*
X011441Y014964D02*
X010569Y014964D01*
X010596Y015042D02*
X011520Y015042D01*
X011598Y015121D02*
X010596Y015121D01*
X010596Y015199D02*
X015447Y015199D01*
X015447Y015278D02*
X010300Y015278D01*
X010596Y015356D02*
X015447Y015356D01*
X015447Y015435D02*
X010596Y015435D01*
X010593Y015513D02*
X015447Y015513D01*
X015447Y015592D02*
X011872Y015592D01*
X011888Y015670D02*
X015447Y015670D01*
X015447Y015749D02*
X011888Y015749D01*
X010916Y015592D02*
X010544Y015592D01*
X010550Y015670D02*
X010901Y015670D01*
X010901Y015749D02*
X010556Y015749D01*
X010556Y016141D02*
X010901Y016141D01*
X010901Y016220D02*
X010529Y016220D01*
X014368Y017005D02*
X015447Y017005D01*
X015447Y017083D02*
X014901Y017083D01*
X014951Y017162D02*
X015447Y017162D01*
X015447Y017240D02*
X014951Y017240D01*
X014951Y017319D02*
X015447Y017319D01*
X015447Y017397D02*
X014951Y017397D01*
X014951Y017476D02*
X015447Y017476D01*
X015447Y017554D02*
X014951Y017554D01*
X014928Y017633D02*
X015022Y017633D01*
X015031Y017628D02*
X015066Y017618D01*
X015242Y017618D01*
X015242Y017935D01*
X014945Y017935D01*
X014945Y017740D01*
X014954Y017704D01*
X014973Y017672D01*
X014999Y017646D01*
X015031Y017628D01*
X014952Y017711D02*
X014904Y017711D01*
X014909Y017790D02*
X014945Y017790D01*
X014945Y017868D02*
X014909Y017868D01*
X014909Y017947D02*
X015242Y017947D01*
X015242Y018025D02*
X015322Y018025D01*
X015322Y018104D02*
X015242Y018104D01*
X015242Y018182D02*
X015322Y018182D01*
X015322Y018261D02*
X015242Y018261D01*
X015447Y018418D02*
X005412Y018418D01*
X006321Y016298D02*
X006717Y016298D01*
X006717Y016220D02*
X006328Y016220D01*
X006328Y016141D02*
X006717Y016141D01*
X014951Y016926D02*
X015447Y016926D01*
X015322Y017633D02*
X015242Y017633D01*
X015242Y017711D02*
X015322Y017711D01*
X015322Y017790D02*
X015242Y017790D01*
X015242Y017868D02*
X015322Y017868D01*
X014945Y018025D02*
X014909Y018025D01*
X014909Y018104D02*
X014945Y018104D01*
X014945Y018182D02*
X014909Y018182D01*
X014881Y018261D02*
X014963Y018261D01*
X015394Y010489D02*
X015447Y010489D01*
X015447Y010411D02*
X015394Y010411D01*
X015394Y010332D02*
X015447Y010332D01*
X015447Y010254D02*
X015394Y010254D01*
X015394Y010175D02*
X015447Y010175D01*
X015447Y010097D02*
X015394Y010097D01*
X015394Y010018D02*
X015447Y010018D01*
X015447Y009940D02*
X015394Y009940D01*
X015394Y009861D02*
X015447Y009861D01*
X015447Y009783D02*
X015394Y009783D01*
X004308Y009233D02*
X004228Y009233D01*
X004228Y009155D02*
X004308Y009155D01*
X004308Y009076D02*
X004228Y009076D01*
X004228Y008998D02*
X004308Y008998D01*
X004308Y008919D02*
X004228Y008919D01*
X004228Y008841D02*
X004308Y008841D01*
D34*
X004260Y009350D03*
X004260Y010225D03*
X005322Y012287D03*
X004697Y013787D03*
X004447Y014912D03*
X005947Y015970D03*
X005572Y016912D03*
X007197Y014787D03*
X008010Y013850D03*
X008760Y011850D03*
X009197Y011162D03*
X008947Y010537D03*
X007822Y008975D03*
X008385Y007975D03*
X008260Y007600D03*
X007885Y007600D03*
X006635Y007287D03*
X005760Y007162D03*
X004072Y006975D03*
X005697Y004787D03*
X008635Y006412D03*
X009572Y006725D03*
X009572Y007600D03*
X010885Y005912D03*
X012697Y005225D03*
X011385Y004412D03*
X011197Y003850D03*
X010697Y003475D03*
X009260Y003412D03*
X009072Y001912D03*
X014072Y001662D03*
X014822Y001537D03*
X016260Y001662D03*
X016197Y002662D03*
X014572Y002600D03*
X016635Y004100D03*
X015072Y004412D03*
X014135Y005287D03*
X016135Y006662D03*
X017260Y007287D03*
X017510Y006975D03*
X014697Y006850D03*
X013822Y006787D03*
X012260Y009037D03*
X012010Y010100D03*
X013322Y010162D03*
X014572Y010100D03*
X015947Y009537D03*
X016635Y009037D03*
X016760Y009850D03*
X018385Y009912D03*
X018760Y009287D03*
X021135Y008225D03*
X020697Y007225D03*
X021697Y007162D03*
X024822Y007162D03*
X028072Y007162D03*
X028072Y004537D03*
X024822Y004537D03*
X021697Y004537D03*
X021697Y001725D03*
X024822Y001725D03*
X024322Y009350D03*
X022635Y009787D03*
X021885Y009725D03*
X024822Y010725D03*
X024322Y012162D03*
X024822Y012787D03*
X022572Y012412D03*
X020822Y012287D03*
X019572Y012537D03*
X017885Y011287D03*
X018635Y011225D03*
X016510Y011662D03*
X015260Y013225D03*
X017947Y015475D03*
X018135Y016912D03*
X020135Y016912D03*
X022447Y016912D03*
X024822Y016912D03*
X024822Y014725D03*
X027760Y014725D03*
X027760Y012787D03*
X021322Y014412D03*
X011947Y011287D03*
X009322Y016600D03*
X009572Y017725D03*
D35*
X009572Y007600D02*
X009572Y006725D01*
M02*
