G75*
%MOIN*%
%OFA0B0*%
%FSLAX24Y24*%
%IPPOS*%
%LPD*%
%AMOC8*
5,1,8,0,0,1.08239X$1,22.5*
%
%ADD10C,0.0000*%
D10*
X003697Y002684D02*
X003774Y002682D01*
X003851Y002676D01*
X003928Y002667D01*
X004004Y002654D01*
X004080Y002637D01*
X004154Y002616D01*
X004228Y002592D01*
X004300Y002564D01*
X004370Y002533D01*
X004439Y002498D01*
X004507Y002460D01*
X004572Y002419D01*
X004635Y002374D01*
X004696Y002326D01*
X004755Y002276D01*
X004811Y002223D01*
X004864Y002167D01*
X004914Y002108D01*
X004962Y002047D01*
X005007Y001984D01*
X005048Y001919D01*
X005086Y001851D01*
X005121Y001782D01*
X005152Y001712D01*
X005180Y001640D01*
X005204Y001566D01*
X005225Y001492D01*
X005242Y001416D01*
X005255Y001340D01*
X005264Y001263D01*
X005270Y001186D01*
X005272Y001109D01*
X005272Y000912D01*
X028106Y000912D01*
X028107Y000913D02*
X028104Y000992D01*
X028105Y001072D01*
X028110Y001152D01*
X028119Y001231D01*
X028131Y001310D01*
X028147Y001388D01*
X028167Y001465D01*
X028190Y001541D01*
X028217Y001617D01*
X028248Y001690D01*
X028282Y001762D01*
X028319Y001833D01*
X028360Y001901D01*
X028404Y001968D01*
X028451Y002032D01*
X028501Y002094D01*
X028554Y002154D01*
X028610Y002211D01*
X028668Y002265D01*
X028729Y002317D01*
X028793Y002365D01*
X028858Y002411D01*
X028926Y002453D01*
X028995Y002492D01*
X029067Y002528D01*
X029140Y002560D01*
X029214Y002589D01*
X029290Y002614D01*
X029367Y002635D01*
X029444Y002653D01*
X029523Y002667D01*
X029602Y002678D01*
X029682Y002684D01*
X029681Y002684D02*
X029681Y016857D01*
X029604Y016859D01*
X029527Y016865D01*
X029450Y016874D01*
X029374Y016887D01*
X029298Y016904D01*
X029224Y016925D01*
X029150Y016949D01*
X029078Y016977D01*
X029008Y017008D01*
X028939Y017043D01*
X028871Y017081D01*
X028806Y017122D01*
X028743Y017167D01*
X028682Y017215D01*
X028623Y017265D01*
X028567Y017318D01*
X028514Y017374D01*
X028464Y017433D01*
X028416Y017494D01*
X028371Y017557D01*
X028330Y017622D01*
X028292Y017690D01*
X028257Y017759D01*
X028226Y017829D01*
X028198Y017901D01*
X028174Y017975D01*
X028153Y018049D01*
X028136Y018125D01*
X028123Y018201D01*
X028114Y018278D01*
X028108Y018355D01*
X028106Y018432D01*
X028106Y018629D01*
X005272Y018629D01*
X005272Y018432D01*
X006256Y017448D02*
X006258Y017496D01*
X006264Y017544D01*
X006274Y017591D01*
X006287Y017637D01*
X006305Y017682D01*
X006325Y017726D01*
X006350Y017768D01*
X006378Y017807D01*
X006408Y017844D01*
X006442Y017878D01*
X006479Y017910D01*
X006517Y017939D01*
X006558Y017964D01*
X006601Y017986D01*
X006646Y018004D01*
X006692Y018018D01*
X006739Y018029D01*
X006787Y018036D01*
X006835Y018039D01*
X006883Y018038D01*
X006931Y018033D01*
X006979Y018024D01*
X007025Y018012D01*
X007070Y017995D01*
X007114Y017975D01*
X007156Y017952D01*
X007196Y017925D01*
X007234Y017895D01*
X007269Y017862D01*
X007301Y017826D01*
X007331Y017788D01*
X007357Y017747D01*
X007379Y017704D01*
X007399Y017660D01*
X007414Y017615D01*
X007426Y017568D01*
X007434Y017520D01*
X007438Y017472D01*
X007438Y017424D01*
X007434Y017376D01*
X007426Y017328D01*
X007414Y017281D01*
X007399Y017236D01*
X007379Y017192D01*
X007357Y017149D01*
X007331Y017108D01*
X007301Y017070D01*
X007269Y017034D01*
X007234Y017001D01*
X007196Y016971D01*
X007156Y016944D01*
X007114Y016921D01*
X007070Y016901D01*
X007025Y016884D01*
X006979Y016872D01*
X006931Y016863D01*
X006883Y016858D01*
X006835Y016857D01*
X006787Y016860D01*
X006739Y016867D01*
X006692Y016878D01*
X006646Y016892D01*
X006601Y016910D01*
X006558Y016932D01*
X006517Y016957D01*
X006479Y016986D01*
X006442Y017018D01*
X006408Y017052D01*
X006378Y017089D01*
X006350Y017128D01*
X006325Y017170D01*
X006305Y017214D01*
X006287Y017259D01*
X006274Y017305D01*
X006264Y017352D01*
X006258Y017400D01*
X006256Y017448D01*
X003697Y016857D02*
X003697Y002684D01*
X006256Y002094D02*
X006258Y002142D01*
X006264Y002190D01*
X006274Y002237D01*
X006287Y002283D01*
X006305Y002328D01*
X006325Y002372D01*
X006350Y002414D01*
X006378Y002453D01*
X006408Y002490D01*
X006442Y002524D01*
X006479Y002556D01*
X006517Y002585D01*
X006558Y002610D01*
X006601Y002632D01*
X006646Y002650D01*
X006692Y002664D01*
X006739Y002675D01*
X006787Y002682D01*
X006835Y002685D01*
X006883Y002684D01*
X006931Y002679D01*
X006979Y002670D01*
X007025Y002658D01*
X007070Y002641D01*
X007114Y002621D01*
X007156Y002598D01*
X007196Y002571D01*
X007234Y002541D01*
X007269Y002508D01*
X007301Y002472D01*
X007331Y002434D01*
X007357Y002393D01*
X007379Y002350D01*
X007399Y002306D01*
X007414Y002261D01*
X007426Y002214D01*
X007434Y002166D01*
X007438Y002118D01*
X007438Y002070D01*
X007434Y002022D01*
X007426Y001974D01*
X007414Y001927D01*
X007399Y001882D01*
X007379Y001838D01*
X007357Y001795D01*
X007331Y001754D01*
X007301Y001716D01*
X007269Y001680D01*
X007234Y001647D01*
X007196Y001617D01*
X007156Y001590D01*
X007114Y001567D01*
X007070Y001547D01*
X007025Y001530D01*
X006979Y001518D01*
X006931Y001509D01*
X006883Y001504D01*
X006835Y001503D01*
X006787Y001506D01*
X006739Y001513D01*
X006692Y001524D01*
X006646Y001538D01*
X006601Y001556D01*
X006558Y001578D01*
X006517Y001603D01*
X006479Y001632D01*
X006442Y001664D01*
X006408Y001698D01*
X006378Y001735D01*
X006350Y001774D01*
X006325Y001816D01*
X006305Y001860D01*
X006287Y001905D01*
X006274Y001951D01*
X006264Y001998D01*
X006258Y002046D01*
X006256Y002094D01*
X025941Y002094D02*
X025943Y002142D01*
X025949Y002190D01*
X025959Y002237D01*
X025972Y002283D01*
X025990Y002328D01*
X026010Y002372D01*
X026035Y002414D01*
X026063Y002453D01*
X026093Y002490D01*
X026127Y002524D01*
X026164Y002556D01*
X026202Y002585D01*
X026243Y002610D01*
X026286Y002632D01*
X026331Y002650D01*
X026377Y002664D01*
X026424Y002675D01*
X026472Y002682D01*
X026520Y002685D01*
X026568Y002684D01*
X026616Y002679D01*
X026664Y002670D01*
X026710Y002658D01*
X026755Y002641D01*
X026799Y002621D01*
X026841Y002598D01*
X026881Y002571D01*
X026919Y002541D01*
X026954Y002508D01*
X026986Y002472D01*
X027016Y002434D01*
X027042Y002393D01*
X027064Y002350D01*
X027084Y002306D01*
X027099Y002261D01*
X027111Y002214D01*
X027119Y002166D01*
X027123Y002118D01*
X027123Y002070D01*
X027119Y002022D01*
X027111Y001974D01*
X027099Y001927D01*
X027084Y001882D01*
X027064Y001838D01*
X027042Y001795D01*
X027016Y001754D01*
X026986Y001716D01*
X026954Y001680D01*
X026919Y001647D01*
X026881Y001617D01*
X026841Y001590D01*
X026799Y001567D01*
X026755Y001547D01*
X026710Y001530D01*
X026664Y001518D01*
X026616Y001509D01*
X026568Y001504D01*
X026520Y001503D01*
X026472Y001506D01*
X026424Y001513D01*
X026377Y001524D01*
X026331Y001538D01*
X026286Y001556D01*
X026243Y001578D01*
X026202Y001603D01*
X026164Y001632D01*
X026127Y001664D01*
X026093Y001698D01*
X026063Y001735D01*
X026035Y001774D01*
X026010Y001816D01*
X025990Y001860D01*
X025972Y001905D01*
X025959Y001951D01*
X025949Y001998D01*
X025943Y002046D01*
X025941Y002094D01*
X025941Y017448D02*
X025943Y017496D01*
X025949Y017544D01*
X025959Y017591D01*
X025972Y017637D01*
X025990Y017682D01*
X026010Y017726D01*
X026035Y017768D01*
X026063Y017807D01*
X026093Y017844D01*
X026127Y017878D01*
X026164Y017910D01*
X026202Y017939D01*
X026243Y017964D01*
X026286Y017986D01*
X026331Y018004D01*
X026377Y018018D01*
X026424Y018029D01*
X026472Y018036D01*
X026520Y018039D01*
X026568Y018038D01*
X026616Y018033D01*
X026664Y018024D01*
X026710Y018012D01*
X026755Y017995D01*
X026799Y017975D01*
X026841Y017952D01*
X026881Y017925D01*
X026919Y017895D01*
X026954Y017862D01*
X026986Y017826D01*
X027016Y017788D01*
X027042Y017747D01*
X027064Y017704D01*
X027084Y017660D01*
X027099Y017615D01*
X027111Y017568D01*
X027119Y017520D01*
X027123Y017472D01*
X027123Y017424D01*
X027119Y017376D01*
X027111Y017328D01*
X027099Y017281D01*
X027084Y017236D01*
X027064Y017192D01*
X027042Y017149D01*
X027016Y017108D01*
X026986Y017070D01*
X026954Y017034D01*
X026919Y017001D01*
X026881Y016971D01*
X026841Y016944D01*
X026799Y016921D01*
X026755Y016901D01*
X026710Y016884D01*
X026664Y016872D01*
X026616Y016863D01*
X026568Y016858D01*
X026520Y016857D01*
X026472Y016860D01*
X026424Y016867D01*
X026377Y016878D01*
X026331Y016892D01*
X026286Y016910D01*
X026243Y016932D01*
X026202Y016957D01*
X026164Y016986D01*
X026127Y017018D01*
X026093Y017052D01*
X026063Y017089D01*
X026035Y017128D01*
X026010Y017170D01*
X025990Y017214D01*
X025972Y017259D01*
X025959Y017305D01*
X025949Y017352D01*
X025943Y017400D01*
X025941Y017448D01*
X005272Y018432D02*
X005270Y018355D01*
X005264Y018278D01*
X005255Y018201D01*
X005242Y018125D01*
X005225Y018049D01*
X005204Y017975D01*
X005180Y017901D01*
X005152Y017829D01*
X005121Y017759D01*
X005086Y017690D01*
X005048Y017622D01*
X005007Y017557D01*
X004962Y017494D01*
X004914Y017433D01*
X004864Y017374D01*
X004811Y017318D01*
X004755Y017265D01*
X004696Y017215D01*
X004635Y017167D01*
X004572Y017122D01*
X004507Y017081D01*
X004439Y017043D01*
X004370Y017008D01*
X004300Y016977D01*
X004228Y016949D01*
X004154Y016925D01*
X004080Y016904D01*
X004004Y016887D01*
X003928Y016874D01*
X003851Y016865D01*
X003774Y016859D01*
X003697Y016857D01*
M02*
